<svg xmlns="http://www.w3.org/2000/svg" width="1600" height="1600" viewBox="0 0 16000 16000" preserveAspectRatio="xMidYMid meet"  xmlns:v="https://vecta.io/nano"><path d="M119 15965c16-19 152-156 301-305l271-270-17-32c-9-18-34-58-55-89l-38-56-581 581v-1289l326 325c179 179 345 352 368 385 76 106 118 216 136 354 16 119-6 283-51 388-18 43-19 43-69 43-27 0-50-2-50-5s10-25 22-48c36-71 58-174 58-277 0-107-8-170-22-170-5 0-122 113-259 250l-250 250H88l31-35zm1370 9c-5-15-8-29-6-31 3-2 51 10 108 26l104 29-98 1c-96 1-98 1-108-25zm2125-306c-183-184-341-351-353-373-11-22-39-110-60-195l-438-1746c2-2 59 11 128 30l1514 396c77 21 165 43 195 50s78 27 105 45c68 43 1289 1264 1346 1346 98 139 134 260 133 444 0 130-7 170-46 278l-20 57h-108l21-42c55-109 80-274 59-397l-12-74-513 513h-130l605-616c0-15-98-164-107-164-5 0-184 176-398 390l-390 390H3945l-331-332zm-279-818c21-22 37-40 34-40s-23 18-44 40-37 40-34 40 23-18 44-40zm273-107c-10-2-26-2-35 0-10 3-2 5 17 5s27-2 18-5zm187-353c21-22 37-40 34-40s-23 18-44 40-37 40-34 40 23-18 44-40zm326-127l24-28-30 25c-16 14-32 26-34 28-2 1 0 2 6 2 5 0 20-12 34-27zm-921-468l185-190-187 185c-104 102-188 189-188 194s1 7 3 5c1-3 85-90 187-194zm1055 135c21-22 37-40 34-40s-23 18-44 40-37 40-34 40 23-18 44-40zm-1120-202l140-143-140 138c-78 76-144 135-148 131s-7-2-7 4c0 7 3 12 8 12 4 0 70-64 147-142zm3709 2247c-4-14-5-28-2-30 2-2 51 9 108 25l105 29h-102c-102 1-103 1-109-24zm2129-297c-176-178-334-343-349-368-16-26-39-92-55-155l-109-430c-379-1487-352-1373-326-1368l1031 268 904 254c59 39 1298 1280 1341 1344 48 73 100 190 116 265 30 143 12 350-40 475-16 36-18 37-66 37-28 0-50-2-50-5s8-22 19-43c43-85 55-152 56-294 0-91-4-141-12-149s-72 50-262 240l-250 251h-136l303-303 302-314c0-18-65-126-90-148l-21-19-784 784H9295l-322-322zm-5-935c-10-2-28-2-40 0-13 2-5 4 17 4 22 1 32-1 23-4zm511-477c13-14 21-31 18-38-4-9-6-8-6 4-1 9-13 26-27 37-15 12-22 21-17 21s20-11 32-24zm-989-543l145-148-147 145c-82 80-148 138-148 131 0-8-3-12-6-8-5 5 3 27 9 27 1 0 67-66 147-147zm3706 2251c-4-15-5-28-3-31 3-2 51 10 108 26l104 29-101 1c-102 1-102 1-108-25zm2127-303c-177-179-333-342-346-361-15-23-46-126-90-295l-349-1378c-39-153-68-280-66-282 3-3 27 2 54 10 48 14 111 30 439 115l1015 265 294 76c44 11 98 30 120 41 25 12 153 132 324 301l282 282v1411l-145 144-1210-3-322-326zm-5-928c-10-2-26-2-35 0-10 3-2 5 17 5s27-2 18-5zm513-480l24-28-30 25c-16 14-32 26-34 28-2 1 0 2 6 2 5 0 20-12 34-27zm-917-473l181-185-187 185c-104 102-188 192-187 200 0 13 1 13 6 0 3-8 87-98 187-200zm-1697 572l-357-370c0-27 21-52 44-52 16 0 118 96 377 354 199 200 355 364 357 376 4 27-15 50-42 50-15 0-131-110-379-358zm-9314-1522c-28-5-77-19-108-31l-58-21 867-867-20-36c-10-20-23-39-28-42-4-3-209 195-455 441l-446 446-422-422c-406-409-421-425-436-478-18-64-259-1011-292-1147-15-63-19-93-11-93 6 0 72 16 146 36l745 193c193 50 361 97 375 103 39 19 837 816 882 882 120 174 123 405 7 580-44 66-307 328-376 375-103 69-252 101-370 81zm252-120c52-20 82-44 229-189 92-91 178-182 191-201 45-70 66-149 63-233l-3-77-365 366-365 365 95-3c69-3 112-11 155-28zm-1015-1435c0-11-14 7-31 40-7 13-3 12 10-5 11-14 21-29 21-35zm90-72c0-7-61 31-73 46-7 8 7 2 31-14 23-15 42-30 42-32zm-434-305l29-33-32 29c-31 28-38 36-30 36 2 0 16-15 33-32zm4-139c0-4-30 24-67 62-47 49-69 66-75 57-4-8-8-8-8-2 0 29 20 19 82-43 37-37 68-71 68-74zm76 59l29-33-32 29c-31 28-38 36-30 36 2 0 16-15 33-32zm6365 2007c-35-8-83-22-108-31l-45-17 865-865-12-31c-30-71-9-87-487 390l-444 444-849-850-328-1291 1062 276c110 28 214 60 230 70 17 10 221 211 455 447 460 462 462 464 495 605 29 122 14 232-47 358-26 53-62 95-202 236-94 94-191 183-216 197-111 63-256 87-369 62zm284-123c61-29 91-55 236-200 126-128 171-180 191-222 41-89 61-214 39-249-7-11-96 73-365 342l-356 363c0 3 42 5 93 2 78-3 103-9 162-36zm-1299-1154l29-33-31 28c-17 15-33 24-37 20-4-3-7-1-7 5 0 20 15 13 46-20zm284-283c42-48 42-48 6-15-21 19-42 44-48 55s-9 18-6 15c2-3 24-27 48-55zm228-126c-3-20-5-19-9 9-3 20-2 29 4 23 5-5 7-19 5-32zm-578-244c63-63 112-115 110-115-3 0-57 52-120 115s-112 115-110 115c3 0 57-52 120-115zm650 70c19-19 32-35 29-35s-20 16-39 35-32 35-29 35 20-16 39-35zm-660-207c-3-2-36 30-75 72l-69 75 74-72c41-40 72-74 70-75zm6468 2072c-45-8-142-36-162-48-4-2 186-199 424-437l432-432-16-29c-8-16-20-36-25-44-9-12-98 72-458 433l-448 447-426-427-426-428-37-150-161-640-120-494c5-4 16-1 280 68l849 221c66 17 133 39 150 50 17 10 223 212 458 447 457 459 470 475 497 601 14 66 14 182 0 242-26 112-64 166-248 353-194 197-247 233-386 262-76 16-106 17-177 5zm257-128c59-28 94-57 223-185 215-213 240-254 249-414 3-51 4-93 2-93s-168 165-369 366l-365 365 95-3c83-3 104-7 165-36zm-1260-1186c6-4 1-4-10 2s-29 19-39 31c-10 11-23 18-29 14s-7-1-2 6c5 9 16 5 39-16l41-37zm278-282c18-14 22-21 11-15-22 11-84 77-84 89 0 4 10-5 21-20s35-39 52-54zm195-95c-3-20-5-19-9 9-3 20-2 29 4 23 5-5 7-19 5-32zm78-181l29-33-32 29c-18 17-33 31-33 33 0 8 8 1 36-29zm-8245 461c-50-10-201-58-201-65 0-2 298-302 661-665l662-662-21-41c-11-22-35-62-54-88l-34-48-1389 1389-613-612c-338-337-630-637-651-667-34-49-46-88-120-380l-320-1264c-45-175-79-321-77-324 3-2 56 9 118 26l888 232 813 211c50 12 98 32 130 54 81 54 1307 1287 1356 1364 183 286 154 669-72 931-112 131-438 443-512 492-83 54-176 92-275 113-77 16-218 18-289 4zm319-105c61-18 178-73 218-104 15-11 134-127 266-258 265-263 306-319 347-465 19-66 23-105 23-197-2-203 64-249-614 428l-586 599c24 25 254 22 346-3zM3724 9133c9-18 14-33 12-33-6 0-36 55-36 66s5 3 24-33zm460-460c9-18 14-33 12-33-6 0-36 55-36 66s5 3 24-33zm-984-228l185-190-187 185c-104 102-188 189-188 194s1 7 3 5c1-3 85-90 187-194zm-68-72c76-76 138-141 138-145 0-5-5-8-11-8-5 0-8 4-5 8 3 5-57 70-133 145-76 76-135 137-132 137s68-62 143-137zm7131 3052c-35-8-92-24-129-36l-66-22 1332-1332-32-55c-17-30-42-70-56-88l-25-33-1386 1385-26-24c-14-13-296-295-628-626l-629-651c-17-31-50-142-91-308l-294-1155c-115-450-122-480-112-480 4 0 61 14 126 31l1546 404c120 31 235 66 255 77 50 28 1302 1277 1357 1353 50 70 89 152 116 250 24 87 26 262 4 366-19 90-78 216-138 294-67 89-483 495-551 540-163 106-391 150-573 110zm352-109c141-45 190-81 433-321 245-242 283-286 336-392 50-99 70-202 63-328-2-55-8-108-12-119-7-15-109 83-602 575l-593 594 47 11c80 19 237 9 328-20zM8685 9500c21-22 37-40 34-40s-23 18-44 40-37 40-34 40 23-18 44-40zm460-460c21-22 37-40 34-40s-23 18-44 40-37 40-34 40 23-18 44-40zm354-169c0-14-1-14-6-1-3 8-15 26-27 40l-21 25 28-24c15-14 27-32 26-40zm-939-436l180-185c-3 0-88 83-190 185s-183 185-180 185 88-83 190-185zm1050 140c19-19 32-35 29-35s-20 16-39 35-32 35-29 35 20-16 39-35zm-1121-199c104-104 139-146 130-151-8-5-10-4-6 0 4 5-57 73-135 152-79 79-140 143-138 143 3 0 70-65 149-144zm7142 3054c-63-13-201-60-201-68 0-4 128-135 285-292l285-285v136l-201 200c-111 110-199 202-196 205s38 10 79 15c97 12 231 0 304-28 11-4 14 5 14 44v50l-52 12c-67 17-259 23-317 11zM0 11330c0-46 2-51 32-66 70-36 141-100 359-320 189-192 232-241 268-306 61-113 84-213 79-357-2-64-7-122-12-130-6-10-102 80-367 345L0 10855v-130l344-344 345-344-24-46a943.2 943.2 0 0 0-55-90l-32-44-578 578V9157l26 24c85 78 615 611 646 649 158 196 205 473 123 722-49 151-81 194-340 456-241 245-321 314-408 351l-47 20v-49zm14623-712l-647-665c-14-23-39-95-55-160l-447-1790c2-2 46 7 98 21l1703 444c61 15 118 37 145 55 25 16 165 149 313 296l267 266v1410l-750 745c-3 0-285-280-627-622zm-643-2390c-3-2-70 65-150 147l-145 150 150-147c82-81 147-149 145-150z"/><path d="M6862 9007c-248-248-352-359-352-374 0-28 37-55 59-44 23 13 721 713 721 723 0 25-23 48-48 48-22 0-89-62-380-353zM2845 7471c-121-37-157 15 327-469l432-432-17-35c-9-20-23-38-30-41-8-3-196 179-455 438l-443 443-855-860-321-1281c3-3 286 70 712 182l545 142c30 6 853 822 906 898 111 161 117 395 13 559-36 58-301 329-372 382-27 20-85 49-130 64-99 35-216 38-312 10zm256-87c97-29 132-54 297-218 141-139 168-171 200-235 33-66 37-83 40-170l4-96-361 360-361 367c0 14 125 8 181-8zM1866 6208l29-33-32 29c-18 17-33 31-33 33 0 8 8 1 36-29zm208-76c2-4-11-6-30-4s-34 6-34 8c0 8 59 4 64-4zm-269-582c60-60 107-110 105-110-3 0-55 50-115 110-60 61-107 110-105 110 3 0 55-49 115-110zm649 71c21-22 25-31 14-37-7-4-10-3-5 1 4 5-5 21-20 37-15 15-24 28-22 28 3 0 18-13 33-29zm5718 1842l-83-27 871-871-26-44-27-43-897 897-848-848-35-141-132-521-153-625c3-7 124 23 563 139l710 184 429 426c257 255 444 449 467 484 56 85 73 152 73 277 0 89-5 115-27 173-37 96-70 139-225 294-169 170-203 197-295 236-62 26-87 31-177 34-92 3-115 0-188-24zm345-102c58-28 93-57 236-199 133-132 174-180 198-228 35-71 55-173 45-228l-8-39-359 359c-197 197-359 363-359 368s40 7 89 4c73-4 102-11 158-37zm-721-1728c15-20 23-33 16-29-13 8-56 66-49 66 3 0 17-17 33-37zm-720-5l29-33-32 29c-31 28-38 36-30 36 2 0 16-15 33-32zm80-80l29-33-32 29c-31 28-38 36-30 36 2 0 16-15 33-32zm-66-65l75-78-77 75c-72 69-83 80-75 80 1 0 36-35 77-77zm146-15l29-33-32 29c-31 28-38 36-30 36 2 0 16-15 33-32zm6334 2007c-102-30-120-36-120-43 0-4 194-201 432-439l432-432-56-84-898 898-831-840c-8-11-54-173-101-360l-163-639c-41-164-74-300-72-302 1-2 25 3 52 11l365 95 869 235c52 37 840 831 873 879 58 85 80 154 86 268 5 108-17 202-66 288-14 25-104 124-201 220-187 186-226 213-347 245-71 18-193 18-254 0zm262-99c88-31 138-69 284-218 152-154 188-202 214-284 18-60 29-204 14-204-11 0-723 718-717 724 16 15 141 4 205-18zm-1219-1205c-2-3-20 12-41 34l-37 39 41-35c22-19 39-36 37-38zm171-39c2-4-11-6-30-4s-34 6-34 8c0 8 59 4 64-4zm146-262c17-7 29-15 26-17-14-14-146 98-146 123 0 3 20-16 45-44 24-27 58-55 75-62zm158-71c-3-20-5-19-9 9-3 20-2 29 4 23 5-5 7-19 5-32zm-578-244c63-63 112-115 110-115-3 0-57 52-120 115s-112 115-110 115c3 0 57-52 120-115zm649 71c25-26 29-36 19-41-7-5-10-4-5 0 4 5-7 24-25 42-17 18-30 33-27 33s20-15 38-34zm-714-148l70-73-71 68c-38 37-73 64-77 61-4-4-7-2-7 4 0 23 16 11 85-60zm-7530 597c-141-43-191-59-195-62-2-2 294-302 659-667l664-664-28-54c-15-29-40-69-56-88l-28-35-1387 1386-629-630c-553-553-633-637-657-688-15-32-80-270-147-533l-349-1395c2-1 57 12 123 30l265 69 750 196c749 194 756 196 805 225 22 13 335 320 696 682 630 632 657 661 696 738 72 140 88 209 87 370 0 120-4 152-25 221-49 160-89 214-354 482-258 261-294 293-403 347-118 58-198 75-347 74-71 0-134-2-140-4zm355-114c137-47 188-87 456-355 218-219 255-260 288-324 72-140 99-294 76-431l-12-74-594 594c-326 326-590 597-586 600 13 13 66 17 187 14 92-2 135-8 185-24zM3330 4145c19-19 32-35 29-35s-20 16-39 35-32 35-29 35 20-16 39-35zm466-467l29-33-32 29c-31 28-38 36-30 36 2 0 16-15 33-32zm104-74c0-7-58 25-65 36-3 5 10 1 29-11 20-12 36-23 36-25zm356-386l29-33-32 29c-31 28-38 36-30 36 2 0 16-15 33-32zm5989 2851c-36-8-59-16-148-48-27-11-19-19 636-674l664-664-28-54c-15-30-40-69-56-87l-28-33-1386 1385-629-629c-482-482-634-640-654-679-15-29-61-189-107-371l-395-1559c-5-15-3-18 12-12 11 4 78 22 149 41l495 129 815 213 328 84c150 36 129 19 805 693l669 681c57 74 117 200 138 286 22 94 19 275-5 373-23 92-68 188-123 266-58 80-471 490-545 539-71 48-174 94-258 116-65 17-281 19-349 4zm375-107c69-24 144-62 190-96 49-37 454-440 502-500s89-140 114-221c22-72 28-325 7-346-9-9-147 124-597 574l-586 596c0 28 287 23 370-7zM9021 4013l24-28-25 22c-14 11-34 23-45 26-19 5-19 5 1 6 11 0 31-11 45-26zm458-457c13-14 21-31 18-38-4-9-6-8-6 4-1 9-13 26-27 37-15 12-22 21-17 21s20-11 32-24zm-729-649c13-5 13-6 0-6-8-1-98 83-200 187l-185 187 185-181c102-100 192-184 200-187zm-124-34c-1-2-65 60-141 137-95 96-141 136-147 127-5-7-8-8-8-1 0 32 27 12 157-118 78-78 141-143 139-145zm6964 3193c-74-21-160-51-160-56 0-3 128-133 285-290l285-285v130l-202 202c-111 111-199 206-195 209 15 15 270 14 327-1 30-8 59-15 63-15s7 21 5 47l-3 47-50 13c-64 16-295 16-355-1zM0 5976c0-51 2-54 32-67 56-23 168-122 359-315 239-243 272-287 320-429 21-61 24-88 24-217 0-80-4-150-8-154-4-5-170 154-367 351L0 5505v-132l346-346 347-346-41-68c-76-125-33-147-362 182L0 5085V3795l311 310c339 339 389 395 441 500 90 179 107 347 56 549-41 168-97 247-357 509-225 228-297 290-393 338l-58 29v-54zm14632-704l-650-664c-23-33-42-93-85-263l-427-1694c0-6 18-5 48 4 26 8 119 32 207 55l595 155 325 85c61 15 191 50 290 76l307 79c70 18 144 43 165 55 21 13 163 147 316 299l277 276v1410l-748 747-620-620zm-592-1127c19-19 32-35 29-35s-20 16-39 35-32 35-29 35 20-16 39-35zm465-465c21-22 37-40 34-40s-23 18-44 40-37 40-34 40 23-18 44-40zm399-385l17-30-20 24c-12 13-21 28-21 34 0 12 0 11 24-28zm-995-207c96-98 183-178 191-179 12 0 12-2 1-6-16-7-381 355-380 377 0 13 1 13 6 0 3-8 85-95 182-192zm1056 132c21-22 37-40 34-40s-23 18-44 40-37 40-34 40 23-18 44-40zm-1120-200l135-140c-3 0-68 63-145 140s-137 140-135 140c3 0 68-63 145-140zM1507 3652l-357-368c0-22 33-55 52-52 30 5 728 707 728 733 0 27-18 45-45 45-14 0-138-118-378-358zm1403-1518c-28-6-150-44-164-52-4-2 186-199 424-437l433-433-24-41c-12-22-25-41-28-41-4 0-206 200-451 445l-445 445-408-408c-224-224-416-420-427-437-10-16-66-217-124-445L1514 18c-5-16 13-17 220-18 219 0 229 1 333 29l700 184 437 436c337 337 442 447 465 490 100 190 85 397-42 567-53 70-294 307-354 348-67 45-167 77-258 81-44 2-91 1-105-1zm150-94c116-22 155-49 342-238 210-213 229-244 236-389 2-51 1-93-4-93-4 0-169 161-365 358-314 313-355 358-336 364 34 9 69 9 127-2zM1900 824c0-3-13 4-30 16-16 12-30 24-30 26 0 3 14-4 30-16 17-12 30-24 30-26zM1800 58c0-5-5-8-11-8-5 0-8 4-5 8 3 5-24 37-59 72-36 36-65 58-65 51 0-8-3-12-6-8-3 3-3 11 1 17 5 8 31-12 76-56 38-38 69-72 69-76zm6415 2062c-38-12-80-23-92-27-13-3-23-8-23-12s193-200 429-436l429-429-19-37c-10-21-23-40-27-43-5-3-210 196-456 442l-447 446-836-847c-7-9-40-121-72-249L6870 10c0-5 90-9 222-10h221l131 34 266 70c375 98 403 106 439 136 20 15 218 212 442 437 437 440 452 458 484 594 19 81 19 157 0 237-30 126-56 163-250 358-113 114-197 190-225 204-132 67-267 84-385 50zm207-81c114-25 152-52 334-233 136-137 176-183 199-231 31-66 52-184 41-230-7-28-15-21-367 331-285 285-355 360-341 366 26 10 76 9 134-3zM7270 813c0-8-38 17-51 33-9 11-2 9 19-6 17-13 32-25 32-27zm468-374c-3-20-5-19-9 9-3 20-2 29 4 23 5-5 7-19 5-32zm-583-239c60-60 107-110 105-110-3 0-55 50-115 110-60 61-107 110-105 110 3 0 55-49 115-110zm680 32c-3-3-6-3-7-1-2 2-16 20-33 39l-30 35 37-34c21-19 36-37 33-39zm5728 1888c-138-36-172 14 317-475l432-432-15-30c-34-65-13-82-487 392l-445 445-398-398-427-432c-25-31-47-108-164-570l-146-570c-5-19-10-38-10-43 0-4 109-6 243-4l242 3 170 47 370 98c110 28 214 60 230 70 17 10 221 211 456 446 305 308 432 442 451 478 44 84 61 167 55 275-8 172-47 240-253 446-153 152-203 194-272 224-115 52-230 61-349 30zm208-80c110-21 161-56 341-237 143-145 171-178 199-238 27-58 34-85 37-157 3-49 0-88-4-88-5 0-171 162-368 359-281 281-355 360-340 364 33 8 80 7 135-3zM12620 814c0-3-13 4-30 16-16 12-30 24-30 26 0 3 14-4 30-16 17-12 30-24 30-26zm302-294c18-11 29-20 23-20-5 0-23 9-40 20-39 26-25 26 17 0zm-486-252l29-33-32 29c-31 28-38 36-30 36 2 0 16-15 33-32zm80-80l29-33-32 29c-31 28-38 36-30 36 2 0 16-15 33-32zm-74-55c68-67 78-83 56-83-6 0-8 3-4 7 9 9-115 134-126 127-4-3-8 0-8 5 0 21 15 10 82-56zm181-52c-2-3-18 10-36 29l-32 34 36-30c20-16 34-31 32-33zM4915 720c-43-8-195-58-195-64 0-1 147-149 327-329L5374 0h131l-309 309c-347 347-330 316-176 327 178 12 347-46 490-169 41-35 164-155 272-265L5980 0h101l-32 48c-40 59-434 458-511 518-66 51-188 114-268 138-65 20-281 29-355 16zm5355 1c-25-5-72-19-105-31s-68-24-79-27c-14-5 51-75 310-334l329-329h130l-310 310-300 311c6 0 19 2 30 5 11 2 56 7 100 10 118 8 229-15 345-72 93-46 100-52 354-305l260-259h48c26 0 48 3 48 6 0 32-490 531-580 591-133 89-243 124-410 128-69 2-145 0-170-4zm5355-1c-50-9-195-58-195-66 0-3 127-132 283-286l282-282 6 123-202 201c-111 110-200 203-197 205 9 10 112 25 167 25 31 0 95-8 144-18l87-18v94l-47 12c-61 16-262 22-328 10z"/><path d="M0 621v-48l64-38c47-27 130-103 312-286L623 0h49c26 0 48 3 48 6 0 22-92 123-312 339C192 559 145 601 84 633c-40 20-75 37-78 37s-6-22-6-49zm4275-351L4005 0h1080l-540 540-270-270zm10710 0L14715 0h1078l-538 540-270-270zm-5355 0L9370 5c0-3 240-5 532-5h533l-537 530c-4 0-125-117-268-260zM2 74L5 5l138-6-34 38c-19 21-51 53-72 72l-38 34 3-69z"/><path d="M3714 15638c-402-404-400-401-398-528 3-199 215-329 395-242 31 15 202 180 599 577l555 555h-791l-360-362zm699-230c-650-651-636-635-636-753 0-100 52-190 140-242 34-20 63-27 118-31 137-9 111-30 780 638l590 590-395 390c-3 0-272-267-597-592zm4660 230c-396-397-402-405-403-514 0-114 52-203 152-256 60-32 185-32 243-1 24 13 267 247 593 573l552 556c0 2-174 4-388 4h-387l-362-362zm-6795-3425l-387-400c-32-64 7-175 73-207 39-18 102-21 143-5 29 11 773 746 773 764 0 10-210 225-220 225-3 0-174-170-382-377zm5350 0c-293-295-378-386-388-416-23-74 11-157 81-192 33-18 111-20 142-4 12 6 192 180 399 387l378 377-112 112c-62 62-115 113-118 113s-175-170-382-377zm5353-7l-384-384-5-55c-5-69 17-120 69-154 33-22 47-25 99-21l61 4 769 769-225 225-384-384zm-8446 54c-123-123-226-232-228-242-6-20 24-58 45-58 7 0 116 103 243 230l230 230-15 27c-9 15-24 29-34 31-13 3-85-63-241-218zm5351-6c-134-133-226-233-226-244 0-23 26-50 48-50 26 0 462 440 462 466 0 25-24 54-45 54-8 0-115-101-239-226zm5358 5c-122-122-225-231-227-241-6-20 24-58 45-58 7 0 115 102 240 227 185 184 227 231 222 248-6 21-31 45-48 45-5 0-110-100-232-221zm-12671-341c-205-205-376-386-382-401-30-78 2-173 69-207 46-23 110-26 148-6 15 8 196 184 402 390l375 376-110 110c-60 60-114 110-120 110s-178-168-382-372zm5350-10c-333-334-382-388-388-420-14-77 20-149 86-183 33-18 96-19 136-4 15 5 198 180 406 387l377 377-112 112c-62 62-115 113-118 113s-177-172-387-382zm5355 5c-329-331-378-383-388-420-20-76 15-154 84-187 39-18 107-21 139-5 12 6 192 180 399 387l378 377-112 112c-62 62-115 113-118 113s-175-170-382-377zm-10400-291c-207-207-381-387-387-399-16-32-13-110 5-149 33-69 133-102 207-70 18 8 198 180 407 390l375 376-230 230-377-378zm5345-14c-258-259-384-392-389-411-30-126 87-238 208-198 24 8 141 119 408 386l379 381c5 5-209 224-219 224-3 0-177-172-387-382zm5355 5c-411-413-412-414-389-500 6-22 20-52 31-65 39-51 122-72 187-48 15 6 198 181 405 388l378 377-112 112c-62 62-115 113-118 113s-175-170-382-377zm-9630-1100l-612-634c-78-188 53-389 254-389 121 0 105-14 753 634l587 595c0 3-87 93-193 199l-192 192-597-597zm10711 9l-610-632c-33-63-34-186-1-247 51-96 127-145 238-151 129-7 99-32 764 633l595 595-395 390c-3-1-269-265-591-588zm-10250-469c-520-521-599-604-615-647-37-100-17-208 52-285 59-66 121-94 205-95 122 0 109-12 762 641l587 588-395 395-596-597zm5359-1c-328-328-604-613-613-632-26-51-31-147-11-207 50-150 238-233 376-165 33 16 210 186 640 617l595 595-390 390-597-598zm5355 5c-413-413-598-606-614-637-31-61-32-166-3-231 46-100 144-163 254-163 123 0 109-12 703 582l537 537v220l-285 285-592-593zm-4890-460l-614-637c-35-67-33-176 3-245 53-101 133-149 248-150 64 0 83 4 126 28 35 20 225 203 637 615l587 587-395 395-592-593zm-5360-9c-454-454-597-604-612-638-29-64-28-160 3-225 31-68 101-130 167-149 66-20 101-20 170 0 52 15 74 36 657 617l602 602-390 385c-3 0-271-267-597-592zm10621-80c-555-557-546-546-546-670 0-112 60-205 161-252 65-29 170-29 231 1 31 16 142 120 353 330l307 308-5 785-501-502zM2278 6862c-207-207-382-390-388-405-36-98 24-204 127-223 75-14 94 2 493 401l375 375-230 230-377-378zm5350-9c-378-380-387-389-393-435-17-115 98-215 206-179 24 8 146 123 417 394l382 382-225 225-387-387zm5360 9c-207-207-381-387-387-399-16-31-14-109 4-142 22-44 71-79 119-86 82-13 101 3 501 404l370 371-230 230-377-378zm-8451 44c-119-118-221-225-227-237-16-29 17-65 52-56 12 4 122 105 243 226 211 212 219 221 209 248-6 19-17 29-35 31-22 3-59-30-242-212zm5345-9c-219-220-239-246-210-275 30-30 55-10 276 211 219 220 239 246 210 275-30 30-55 10-276-211zm5357 6c-119-120-219-225-222-234-8-23 20-59 46-59 14 0 90 69 235 213 117 116 218 220 223 229 16 29-6 68-38 68-23 0-66-38-244-217zM2578 6562c-207-207-381-387-387-399s-11-44-11-71c0-63 30-109 90-140 49-25 98-24 149 3 14 7 192 180 396 384l370 371-230 230-377-378zm5355 6c-430-431-434-437-382-544 23-48 65-79 120-89 73-13 100 8 497 407l373 374-115 112c-62 62-115 112-117 112s-172-168-376-372zm5350-10c-326-327-383-389-392-423-31-117 82-226 199-195 40 11 85 51 425 391l380 379-230 230-382-382zM2870 6255l-384-384-4-63c-4-73 16-115 70-148 33-20 113-26 151-12 14 6 425 411 724 714l53 53-225 225-385-385zm5358 8c-207-208-382-391-388-406-26-70 3-156 66-197 33-22 121-27 157-9 12 6 192 180 399 387l378 377-112 112c-62 62-115 113-118 113s-175-170-382-377zm5350 0c-332-334-378-383-388-421-28-105 46-202 153-202 27 0 58 5 70 11s192 180 399 387l378 377-112 112c-62 62-115 113-118 113s-175-170-382-377zM9304 5167l-609-632c-30-63-32-170-5-234 62-143 236-209 374-142 27 14 235 214 634 613l592 593-395 394-591-592zm5349-10c-581-581-602-604-617-656-30-102-12-197 50-269 55-65 123-96 209-97 128 0 111-14 767 642l588 588-395 395-602-603zM4404 4688c-567-569-602-606-615-653-40-143 14-268 145-338 55-29 184-31 236-3 19 10 304 286 633 614l597 597-390 385c-3 0-276-271-606-602zm5354 5c-563-565-597-601-613-652-21-64-16-159 10-211 24-48 82-107 130-133 31-17 57-22 120-22 69 0 87 4 131 28 35 20 224 202 635 613l584 584-395 390c-3 0-274-269-602-597zm5356 5c-652-654-630-627-628-753 2-189 184-319 365-260 51 16 85 49 602 563l547 547v220l-138 138c-75 75-142 137-147 137-6 0-276-267-601-592zm-4886-455c-625-626-622-622-635-731-13-113 60-235 169-282 66-28 171-25 233 8 24 12 276 257 630 611l590 591-395 390c-3 0-269-264-592-587zm2760-2730c-207-208-382-391-387-406-16-41-13-104 5-143 33-69 144-106 212-70 15 8 196 184 402 390l375 376-230 230-377-377zm-10710-10l-387-400c-6-12-11-42-11-66 0-111 132-194 228-143 15 8 196 184 402 390l375 376-110 110c-60 60-112 110-115 110s-174-170-382-377zm5350 0c-322-324-378-384-389-420-37-126 92-240 218-192 15 5 198 180 406 387l377 377-112 112c-62 62-115 113-118 113s-175-170-382-377zm-3101 39c-125-125-227-231-227-236 0-23 23-46 48-46 23 0 68 40 250 223 122 123 222 230 222 239 0 17-36 48-55 48-6 0-113-103-238-228zm5361 11c-120-120-221-228-225-241-7-29 13-52 46-52 39 0 461 423 461 462 0 27-23 48-51 48-7 0-111-98-231-217zm5350-11c-126-125-228-231-228-236 0-23 23-46 48-46 23 0 68 41 251 224 197 198 222 227 216 248-9 29-6 25-35 33-22 5-50-20-252-223zM2578 1213c-207-208-382-391-387-406-49-131 71-261 200-218 24 8 145 122 414 391l380 380-230 230-377-377zm10705-5c-333-334-383-388-392-425-35-130 102-245 222-188 18 8 201 184 407 390l375 375-230 230-382-382zm-5355-5c-207-208-382-391-388-406-24-65 2-146 61-188 42-30 115-36 160-14 19 9 202 184 406 388l373 372-112 112c-62 62-115 113-118 113s-175-170-382-377zM2878 912c-207-207-381-387-387-399s-11-44-11-71c0-78 57-146 133-159 80-13 96 1 497 402l375 375-230 230-377-378zm5355 5c-204-204-378-386-387-404-62-123 64-268 195-224 24 8 145 122 414 391l380 380-230 230-372-373zm5345-14c-378-380-387-389-393-435-13-88 49-170 140-185 77-12 96 3 495 402l374 374-229 231-387-387zM4336 200L4137 0h397c218 0 396 3 396 8 0 8-382 392-390 392-3 0-95-90-204-200z" fill="#fe934e"/><path d="M3714 15638c-402-404-400-401-398-528 1-103 55-189 148-238 69-36 179-38 246-5 32 16 205 183 600 578l555 555h-791l-360-362zm698-231c-649-650-635-634-635-752 0-100 52-190 140-242 34-20 63-27 118-31 137-9 111-30 780 638l589 589-184 186-201 195c-12 7-141-117-607-583zm4661 231c-198-200-369-379-379-398-27-50-26-190 0-244 25-50 75-100 129-128 59-32 184-32 242-1 23 12 272 253 593 573l552 556c0 2-174 4-388 4h-387l-362-362zm691-230l-610-633c-14-29-19-62-19-120 0-70 4-87 29-133 32-58 73-93 143-124 65-29 173-22 234 15 24 14 307 289 629 611l585 586-395 390c-3 0-271-267-596-592zm4664 235c-238-240-363-373-378-402-31-61-36-135-16-206 23-77 98-154 175-180 63-21 148-17 207 11 26 11 225 203 599 576l560 558h-790l-357-357zm685-245c-599-600-602-603-618-662-39-136 28-277 159-337 57-26 157-25 216 2 34 15 174 148 588 562l542 542v210l-285 285-602-602zM0 15610v-44l44 44-44 44v-44zm57-128l-57-58 2-392 3-392 505 505-395 395-58-58zm4811-539c-562-564-597-601-613-652-25-75-17-174 18-234 54-91 134-136 242-137 125 0 106-17 760 639l589 590-194 196-200 195c-3 0-274-269-602-597zm5355-5c-600-601-601-603-618-662-40-138 23-275 153-336 38-18 59-21 121-18 44 2 91 11 111 21 19 9 299 281 630 612l595 595-390 390-602-602zm5270-80c-552-553-545-545-545-663 0-115 70-220 175-260 68-26 179-17 238 18 24 14 178 160 342 324l297 298-5 785-502-502zM1137 12692l-607-620c0-16 36-52 52-52 7 0 286 273 620 607l608 630c0 22-26 43-52 43-7 0-287-273-621-608zm5356 6c-503-502-603-607-603-630 0-25 23-48 47-48 4 0 281 273 615 607l608 628c0 27-18 45-44 45-14 0-222-202-623-602zm5353-4c-377-376-606-613-606-624 0-28 43-54 67-41 36 19 1213 1207 1213 1223 0 22-27 48-50 48-12 0-255-236-624-606zM58 13133l-58-59v-129l92 92c87 87 92 94 82 120-17 49-51 42-116-24zm5182-168c-216-216-224-225-214-252 6-18 18-29 33-31 20-3 64 36 248 220 221 221 241 246 211 276s-55 10-278-213zm5361 5c-222-222-241-246-209-278 29-29 55-9 266 201 117 116 218 220 223 229 5 10 5 26-1 42-21 56-45 39-279-194zm5262-92c-131-131-149-158-121-186 27-27 55-11 156 91l103 103-6 124-132-132zM3948 10513l-612-634c-78-188 53-389 254-389 121 0 105-13 753 635l587 594c0 3-87 93-193 199l-192 192-597-597zm5355 5l-609-628c-14-27-19-57-19-125 0-80 3-95 27-136 55-93 134-138 244-139 55 0 81 5 120 25 37 19 191 166 639 615l590 590-395 390c-3 0-271-267-597-592zm5356 3c-384-384-595-603-610-632-33-62-34-185-1-246 51-96 127-145 238-151 129-7 99-32 764 633l595 595-395 389c-3 0-269-265-591-588zm-10246-463c-649-650-635-633-636-752 0-79 31-153 88-205 59-54 107-74 186-74 122-2 109-13 762 640l587 588-395 395-592-592zm5355-6c-328-328-604-613-613-632-26-51-31-147-11-207 50-151 239-233 377-164 33 17 212 189 640 617l594 594-391 389-596-597zm5355 5c-413-413-598-606-614-637-31-61-32-166-3-231 46-100 144-163 254-163 123 0 109-11 703 582l537 537v220l-285 285-592-593zM0 10253v-46l25 23 25 24-22 23c-12 13-23 23-25 23s-3-21-3-47zm57-121l-57-58 2-392 3-392 505 505-395 395-58-58zm10176-535l-614-637c-35-67-33-176 3-245 53-101 133-149 248-150 64 0 83 4 126 28 35 20 225 203 637 615l587 587-396 395-591-593zm-5360-9c-454-454-597-604-612-638-29-64-28-160 3-225 31-68 101-130 167-149 66-20 102-20 170 0 52 15 75 36 657 617l602 602-390 385c-3 0-271-267-597-592zm10625-75c-554-556-550-551-550-674 0-113 60-206 161-253 65-29 170-29 231 1 31 16 142 120 353 330l307 308-5 785-497-497zM1147 7353l-608-616c-13-23 13-67 39-67 22 0 1232 1210 1232 1232 0 17-35 48-55 48-5 0-279-269-608-597zm5943 579c-14-9-290-282-613-605-425-426-587-595-587-611 0-27 18-46 44-46 14 0 222 202 623 602 503 502 603 607 603 630 0 17-7 31-19 38-25 13-21 13-51-8zm4767-579l-608-616c-15-26-1-56 28-63 23-6 81 49 629 597l610 623c7 20-26 56-49 56-7 0-281-269-610-597zM59 7783l-59-56v-132l90 90c50 49 90 97 90 106 0 18-31 49-49 49-7 0-39-25-72-57zm5187-169c-135-134-226-233-226-244 0-18 34-50 54-50 6 0 110 100 233 222 183 182 223 227 223 250 0 26-23 48-49 48-5 0-111-101-235-226zm5358 5c-183-183-224-228-224-251 0-33 31-54 58-39 9 5 116 109 237 230l220 221-15 28c-9 15-24 28-34 30-13 3-86-63-242-219zm5259-94c-82-80-133-138-133-150 0-32 16-47 45-47 21 0 49 22 127 99l99 99-6 129-132-130zM3953 5168l-614-638c-36-70-33-177 6-248 54-100 132-146 245-146 63 0 84 5 126 28 36 19 219 196 637 614l587 587-395 395-592-592zm5352-1l-610-632c-30-63-32-170-5-234 46-106 170-181 280-168 99 12 107 19 728 640l592 592-395 393-590-591zm5348-10c-581-581-602-604-617-656-30-102-12-197 50-269 55-65 123-96 209-97 128 0 111-15 767 642l588 588-396 395-601-603zM4413 4698c-651-652-636-634-637-754 0-106 55-192 158-247 55-29 184-31 236-3 19 10 304 286 633 614l597 597-390 385c-3 0-272-267-597-592zm5345-5c-595-596-596-598-613-657-33-115-6-215 77-293 86-78 213-94 315-38 34 18 227 204 634 611l584 584-395 390c-3 0-274-269-602-597zm5356 5c-652-654-630-627-628-753 2-189 184-319 365-260 51 16 85 49 602 563l547 547v220l-138 138c-76 75-143 137-148 137s-275-267-600-592zM0 4900v-44l44 44-44 44v-44zm57-128l-57-58v-779l505 505-390 390-58-58zm4812-539c-654-656-629-626-629-748 0-118 75-225 181-260 66-22 159-17 219 13 33 15 209 185 635 612l590 590-395 390c-3 0-274-269-601-597zm5359 10c-625-626-622-622-635-731-12-106 52-222 152-275 58-31 193-31 250 0 23 12 295 277 630 612l590 591-395 390c-3 0-269-264-592-587zm5265-95c-553-554-545-545-545-665 0-204 214-336 398-243 48 24 115 85 357 327l297 298-5 785-502-502zM1151 1999l-607-614c-21-32-4-65 34-65 23 0 128 100 630 603l602 623c0 26-19 44-46 44-16 0-186-164-613-591zm5341-12c-404-404-602-609-602-623 0-26 18-44 45-44 28 0 1225 1197 1225 1226 0 26-18 44-45 44-13 0-217-197-623-603zm5355 6c-329-329-600-608-603-621-8-29 12-52 45-52 21 0 139 113 623 598l604 614c9 28-14 58-44 58-22 0-130-103-625-597zM57 2426l-57-54v-137l92 92c87 87 92 94 82 120-17 49-52 42-117-21zm5184-170c-181-182-222-228-219-247 2-15 13-27 31-33 27-10 36-2 252 214 124 124 225 232 225 242 0 33-12 48-39 48-21 0-70-44-250-224zm5356 6c-222-222-239-246-205-280 29-29 55-9 266 201 117 116 218 220 223 229 16 29-6 68-38 68-23 0-66-38-246-218zm5266-94c-131-131-149-158-121-186 27-27 55-11 156 91l103 103-6 124-132-132zM4340 202L4145 5l389-3 395 3c5 6-379 395-389 395-3-1-93-89-200-198zm5355-2L9495 0h398c218 0 397 3 397 8 0 8-382 392-390 392-3 0-95-90-205-200zm5350 0L14845 0h398c218 0 397 3 397 8 0 8-382 392-390 392-3 0-95-90-205-200z" fill="#ffcc25"/><g fill="#fefdfc"><path d="M3253 14918c0-7-47-193-103-413l-133-527 365-366 949 250-38 27c-90 65-143 163-151 278-6 94-21 109-117 115-135 9-258 93-315 215-15 33-24 75-28 130-6 103-15 113-108 117-76 4-131 21-191 59-39 25-113 102-113 119 0 13-17 9-17-4zm5323-129l-206-813 182-183c112-112 188-181 197-178 10 4 316 84 421 111 190 47 500 131 505 135 3 4-10 17-30 29-84 52-155 197-155 315 0 57-22 75-89 75-115 0-241 68-305 164-48 72-56 96-63 188-8 98-17 108-112 113-113 5-235 74-292 164-15 23-17 19-53-120zm5384 125c0-3-34-139-76-302l-78-307c-1-5-20-81-41-168l-39-157 366-367 167 43 684 179c81 21 117 35 88 35-17 0-100 79-126 120-34 54-55 128-55 190 0 78-21 96-116 102-126 9-248 86-306 195-27 50-51 172-42 209 8 30-36 55-105 59-31 2-69 6-86 10-52 11-126 58-175 112-46 50-60 61-60 47zm-12443-541c-192-192-353-359-358-372-11-28 12-61 42-61 11 0 169 150 374 355 360 359 377 379 343 413-7 7-21 12-32 12-13 0-142-121-369-347zm5350-11c-236-236-357-364-357-378 0-26 18-44 45-44 13 0 140 120 379 359 321 322 357 361 351 382-9 27-22 39-45 39-8 0-176-161-373-358zm-3882-515c-20-51-91-357-83-357s269 67 341 87c27 8 25 10-113 148-107 107-141 135-145 122zm5346-23c-57-222-82-326-78-331 4-4 357 84 364 91 1 1-60 64-137 141l-138 138-11-39zm5319-137l-48-186c-7-18 15-14 173 29l171 45 31 7-126 126c-69 70-133 133-142 139-14 11-21-8-59-160zM1824 11553c-3-15-26-107-51-203l-84-334 220-220 326 85 250 65-26 17c-38 25-69 89-77 159l-7 63-64 8c-74 9-113 27-158 73-46 48-65 90-72 159l-6 60-55 6c-66 7-114 27-157 63l-32 27-7-28zm5361 14c-3-10-8-25-11-34-3-10-8-27-10-38s-30-122-62-247l-58-227 112-112 113-112 243 63 318 86-26 25c-38 35-64 92-72 157-6 51-10 57-32 60-85 8-130 25-175 64-57 50-76 85-90 168l-10 65-55 6c-61 7-111 29-152 67-24 22-28 23-33 9zm5351 2l-138-551 108-109c60-60 114-109 121-109 8 0 62 13 121 29l433 114-24 26c-35 37-56 82-70 154l-13 62-57 7c-131 17-213 101-226 233l-6 60-62 7c-67 7-114 27-155 66-21 19-28 22-32 11zm-10885-705c-25-95-33-135-30-139 6-5 169 38 169 45 0 3-29 34-64 69l-64 64-11-39zm5358 31c-1-15-5-34-23-104-10-35-16-65-14-67 6-5 168 38 168 45 0 11-130 136-131 126zm5357-6c-13-38-44-164-41-167 4-5 175 42 175 48 0 3-29 34-65 70-44 44-66 59-69 49zM8610 9574c0-5-54-220-120-479l-120-470 366-366 882 229c34 8 62 18 62 21-1 3-18 18-40 33-48 34-104 108-125 167-8 24-18 74-21 110-9 90-27 109-104 110-193 2-344 151-357 352-4 54-11 83-22 93-9 8-47 15-92 18-117 7-214 59-280 152-16 21-29 35-29 30zm-5355-16c-3-7-36-137-75-288l-163-641 369-369 214 56 234 60c10 2 42 10 70 18s132 36 231 61l184 50c2 3-22 27-52 55-31 28-66 67-78 86-28 45-49 127-49 190 0 41-5 55-25 74-14 13-32 21-43 18-32-9-132 11-188 38-70 33-156 126-183 199-13 36-21 80-21 123-1 85-14 97-121 104-99 8-177 46-247 123-34 36-54 52-57 43z"/><path d="M13922 9403l-117-463-75-310c0-8 80-95 178-193l179-178 144 36c9 2 92 24 185 48l567 148c26 6 47 14 47 18 0 3-18 19-40 34-80 57-140 179-140 285 0 79-21 99-107 100-178 4-323 133-352 313-6 34-8 72-5 84 9 38-31 62-116 68-114 8-211 58-267 137-15 22-31 40-34 40s-24-75-47-167zM1507 9002l-357-365c0-24 23-47 48-47 23 0 89 62 385 358 352 352 358 359 346 385-28 61-40 51-422-331zm10713 3l-358-365c-7-21 19-50 46-50 22 0 89 62 380 353 193 193 352 360 352 369 0 33-12 48-39 48-22 0-92-65-381-355zm-3889-531l-81-329c0-12 48-3 185 35 80 22 151 40 159 40s17 4 20 8c3 5-57 71-134 147l-138 138-11-39zm5321-131l-48-190c-6-21 0-20 180 25 102 26 186 49 186 52s-62 67-138 143l-138 137-42-167zm-10714-25l-44-184c3-3 315 78 355 92 10 3-29 49-119 139l-140 135c-3 0-26-82-52-182zM1825 6198c-4-18-36-145-71-283l-64-250 113-113c75-75 117-110 127-106 14 5 155 42 400 105l128 34c10 4 3 17-21 45-37 43-57 97-57 152 0 45-15 58-67 58-116 0-218 101-232 230l-6 54-60 12c-79 15-106 26-148 64l-35 31-7-33zm5360 19c-2-6-35-134-73-284l-69-271 112-112c62-62 117-110 122-107 4 3 98 28 208 56l230 61a2147.1 2147.1 0 0 0 73 20l43 11-24 19c-34 27-67 100-75 168l-7 57-50 3c-128 7-226 103-241 233l-6 57-52 7c-63 8-128 36-161 69-17 17-27 22-30 13zm5355 11c0-4-32-131-71-284l-71-277 224-225 112 29 435 115c11 3 7 13-15 37-41 44-55 74-68 149l-11 63-60 6c-72 7-108 24-156 76-49 51-59 73-67 146l-7 61-66 12c-74 14-99 25-146 68-18 17-33 27-33 24zM1660 5545c0-6-11-48-24-95l-23-85 90 22c50 13 92 24 93 26 2 2-28 34-66 72-39 38-70 65-70 60zm5336-72l-24-92c-6-16 27-12 121 17l58 17-137 136-18-78zm5370 56c-3-8-14-47-25-88l-20-73 32 6c18 3 58 14 90 24l58 17-65 64c-46 45-67 60-70 50zM8603 4187c-11-47-220-861-228-892-5-16 33-58 179-204l184-184 687 178c11 2 56 14 100 25l153 40-68 68c-77 77-108 144-117 254-4 44-12 72-22 81-9 8-45 17-81 20-114 8-165 32-245 111-82 81-103 126-112 243-7 91-19 103-106 108-35 2-91 14-123 26-59 22-142 89-174 141l-17 28-10-43zm-5348 22l-240-939 364-364 58 14 68 16c6 1 89 23 185 48l310 82c336 87 335 87 309 103-47 30-112 105-137 160-23 48-26 70-27 151v95l-90 1c-69 0-104 6-148 23-71 28-153 105-193 181-26 50-29 64-29 162 0 58-3 104-7 102-4-3-31-6-60-8-127-10-258 48-329 147-19 26-30 35-34 26zm10606-397l-119-475-16-68 362-362 49 11 123 30 672 176c53 14 99 26 104 26 4 0-11 13-33 29-94 68-153 180-153 291 0 76-21 95-111 103-206 18-345 163-353 368-2 80-15 91-107 95-95 4-198 52-258 121-23 25-41 50-41 54 0 5-3 9-7 9-5 0-55-183-112-408zm-6991-157c-235-235-356-362-358-378-4-30 21-51 50-43 30 7 728 706 728 728 0 21-27 48-48 48-10 0-177-160-372-355zm5347-3c-196-196-357-364-357-373 0-19 31-49 51-49 8 0 175 161 372 358 254 254 357 363 357 379 0 22-26 43-52 43-7 0-174-161-371-358zm1430-679c-26-103-45-189-42-191 2-3 73 14 157 36l218 57-286 285-47-187zm-10709-5l-43-186c3-4 358 88 364 94 5 5-260 274-269 274-3 0-26-82-52-182zm5394 151c-24-77-84-330-79-335 6-7 357 87 357 95 0 3-60 66-134 140l-134 133-10-33zM1762 593l-72-282 222-223 563 147-32 34c-37 40-63 107-63 163 0 42-3 44-72 52-119 13-214 108-225 226-6 66-6 67-66 73-64 6-116 28-156 66l-28 26-71-282zm10778 282c0-3-32-132-72-286l-71-281 109-109c81-82 114-109 129-106 11 2 110 28 220 57l266 69c66 16 66 16 43 33-32 25-74 115-78 171-2 27-5 50-7 51-2 2-27 6-54 9-68 7-115 28-157 69-48 46-68 89-76 161l-7 62-51 6c-78 10-122 28-160 65-19 19-34 32-34 29zm-5354-16c-3-8-24-86-47-174l-96-373 112-112 112-111 511 132c48 13 50 18 21 45-29 26-58 93-67 156l-7 53-57 7c-129 16-207 92-232 224l-12 69-50 6c-63 8-122 33-156 66-21 20-29 23-32 12zM1650 149c-6-24-18-66-25-92-13-44-13-48 3-43 9 2 46 12 82 22 36 9 68 20 72 23 4 4-21 35-56 70l-64 64-12-44zm5354 14c-3-16-12-53-20-84s-14-59-14-62c0-5 28 1 129 29l54 15-64 65c-35 35-67 64-71 64s-10-12-14-27zm5362 16c-13-39-45-163-43-165 4-4 164 40 171 47 3 3-23 34-59 69-44 44-66 59-69 49z"/></g></svg>