<!DOCTYPE svg PUBLIC "-//W3C//DTD SVG 20010904//EN" "http://www.w3.org/TR/2001/REC-SVG-20010904/DTD/svg10.dtd">
<svg version="1.0" xmlns="http://www.w3.org/2000/svg" width="936px" height="906px" viewBox="0 0 9360 9060" preserveAspectRatio="xMidYMid meet">
<g id="layer101" fill="#a16c6e" stroke="none">
 <path d="M313 9041 c-16 -26 -219 -127 -272 -136 l-41 -7 0 -139 c0 -123 2 -139 17 -139 9 0 14 3 10 6 -9 9 23 106 46 139 34 49 98 103 178 151 115 67 154 77 270 72 91 -5 107 -8 177 -44 107 -53 229 -174 262 -259 21 -53 24 -77 24 -200 0 -247 -38 -299 -369 -500 -88 -54 -182 -110 -210 -124 -76 -41 -285 -181 -285 -191 0 -16 7 -13 99 38 110 62 168 89 210 97 23 5 29 10 21 15 -9 6 7 18 51 39 35 17 118 60 184 96 229 125 215 120 345 120 113 0 116 -1 189 -38 101 -52 154 -90 194 -140 82 -100 113 -206 103 -354 -8 -122 -16 -149 -72 -233 -51 -77 -87 -107 -197 -165 -102 -53 -169 -70 -252 -61 -79 8 -122 23 -260 91 -60 30 -127 57 -147 61 -34 5 -42 2 -72 -28 -39 -39 -49 -82 -44 -193 3 -64 5 -70 25 -73 16 -2 24 3 28 20 4 14 5 28 4 34 -7 38 4 76 31 104 25 26 37 30 80 30 40 0 69 -10 148 -50 111 -56 160 -69 250 -70 76 0 150 25 242 80 87 53 164 79 253 86 61 6 83 3 144 -19 140 -48 251 -143 312 -264 28 -56 51 -179 51 -274 0 -102 28 -191 84 -267 52 -70 75 -88 220 -176 83 -51 117 -66 147 -66 101 0 120 33 126 222 4 111 3 138 -8 136 -7 -2 -16 10 -20 27 -4 19 -7 -7 -8 -68 -1 -105 -12 -139 -59 -189 -35 -38 -73 -36 -160 7 -175 88 -251 219 -252 432 0 109 -14 173 -58 262 -45 90 -77 122 -207 202 -151 94 -168 110 -216 201 l-44 83 0 150 0 150 34 70 c44 89 119 162 227 221 69 37 96 46 166 54 84 10 164 3 222 -20 17 -6 80 -39 140 -74 61 -35 143 -80 181 -101 39 -21 105 -58 147 -81 42 -24 95 -51 117 -60 23 -9 41 -20 41 -26 0 -5 5 -6 10 -3 6 3 10 1 10 -4 0 -6 3 -10 8 -9 4 1 22 -6 40 -16 19 -9 35 -16 37 -14 1 2 -24 30 -58 63 -33 33 -57 51 -53 40 7 -19 6 -19 -16 1 -26 23 -252 164 -342 213 -32 17 -77 44 -100 60 -62 43 -155 88 -208 101 -28 7 -89 11 -145 8 l-98 -4 -152 -77 -152 -77 -100 0 -100 0 -98 51 c-146 75 -226 156 -269 274 -14 39 -18 78 -18 180 0 112 3 138 23 189 37 92 126 175 299 277 78 46 142 87 142 91 0 4 -18 8 -39 8 -29 0 -76 -18 -170 -65 -72 -36 -149 -72 -172 -80 -67 -24 -176 -19 -259 11 -85 30 -186 88 -203 115 -11 18 -25 19 -182 19 -158 0 -171 -1 -182 -19z"/>
 <path d="M2410 9046 c0 -21 -39 -49 -190 -133 -117 -66 -329 -196 -412 -254 -15 -11 -31 -19 -35 -19 -4 -1 -26 -17 -48 -36 -34 -30 -36 -34 -15 -28 38 10 359 178 492 256 196 115 268 148 347 159 124 17 243 -25 367 -130 123 -104 155 -174 161 -346 4 -125 -3 -148 -57 -176 -46 -25 -97 -24 -140 3 -40 25 -112 60 -116 56 -1 -2 9 -16 22 -31 13 -15 24 -25 24 -21 0 4 9 -2 20 -14 12 -12 25 -22 30 -22 5 0 35 -15 66 -34 107 -65 177 -56 209 28 14 36 16 72 13 202 l-3 159 -37 75 c-48 99 -112 163 -231 234 -54 31 -101 64 -104 72 -8 21 -363 21 -363 0z"/>
 <path d="M3730 9049 c0 -22 70 -77 182 -143 140 -82 181 -95 217 -69 42 31 61 80 61 156 0 65 -1 67 -25 67 -19 0 -25 -5 -25 -20 0 -57 -49 -100 -115 -100 -42 0 -196 78 -203 102 -3 14 -15 18 -48 18 -26 0 -44 -5 -44 -11z"/>
 <path d="M4660 8932 c0 -129 11 -182 38 -182 23 0 32 50 32 181 l0 129 -35 0 -35 0 0 -128z"/>
 <path d="M5209 9058 c-1 -2 -3 -136 -5 -298 -5 -343 -13 -411 -56 -499 -39 -80 -95 -136 -202 -200 -96 -58 -140 -70 -256 -71 -96 0 -136 15 -284 105 -86 52 -215 120 -426 226 -74 38 -152 78 -172 90 -37 22 -57 22 -43 -1 8 -14 85 -63 170 -110 33 -18 101 -60 150 -94 50 -33 115 -74 145 -91 30 -18 100 -58 155 -90 114 -66 174 -118 215 -190 49 -86 63 -154 58 -284 -3 -104 -7 -123 -34 -181 -44 -93 -118 -169 -211 -218 -86 -44 -179 -72 -242 -72 -119 0 -250 58 -349 153 -118 114 -177 325 -123 443 27 60 50 72 114 63 51 -6 149 -48 162 -68 8 -14 33 -2 31 15 -2 15 -26 43 -26 30 0 -4 -21 8 -47 26 -116 84 -187 108 -249 88 -56 -19 -66 -50 -74 -240 -7 -178 -11 -193 -77 -295 -50 -78 -152 -148 -278 -190 -69 -24 -91 -27 -163 -22 -73 4 -93 10 -189 57 -58 28 -145 77 -192 108 -88 56 -479 262 -499 262 -24 0 1 -28 56 -60 31 -19 73 -46 92 -60 43 -32 241 -151 408 -245 186 -105 287 -218 305 -341 4 -21 9 -212 13 -424 7 -402 11 -462 32 -466 8 -2 8 0 1 3 -8 4 -8 7 0 12 22 14 33 165 36 506 2 209 7 366 14 390 14 54 73 151 122 201 48 49 192 127 268 144 111 26 231 -3 357 -86 96 -63 143 -112 183 -192 35 -70 42 -109 44 -272 3 -177 33 -226 121 -201 51 15 140 53 144 64 2 4 8 5 13 1 5 -3 9 -1 9 4 0 5 27 28 60 51 33 23 60 44 60 46 0 2 -16 -2 -35 -7 -19 -6 -31 -16 -28 -21 4 -6 0 -8 -10 -4 -10 3 -17 2 -17 -4 0 -6 -4 -7 -10 -4 -5 3 -10 1 -10 -5 0 -6 -4 -8 -10 -5 -5 3 -10 2 -10 -4 0 -6 -18 -15 -40 -21 -81 -22 -161 26 -176 106 -12 62 2 205 24 254 51 112 162 213 297 269 75 32 84 33 185 29 100 -3 111 -6 184 -42 98 -48 207 -148 245 -226 45 -89 54 -137 49 -262 -4 -138 -28 -198 -113 -287 -51 -53 -198 -153 -313 -210 -23 -12 -77 -44 -120 -72 -42 -28 -88 -55 -101 -60 -13 -5 -35 -18 -50 -30 -14 -11 -55 -40 -89 -65 -35 -25 -62 -48 -59 -50 3 -3 46 15 96 40 50 25 97 46 106 46 8 0 15 4 15 10 0 5 39 29 88 53 48 24 130 68 182 97 278 156 271 153 406 148 122 -5 183 -27 288 -104 89 -65 136 -126 164 -214 19 -60 21 -99 26 -465 3 -220 8 -410 12 -422 11 -38 24 -15 24 40 0 29 6 84 13 122 9 46 14 173 16 365 2 308 5 330 51 420 44 85 136 165 285 245 50 27 122 70 160 95 39 26 99 62 135 81 36 19 67 37 68 42 2 4 8 5 13 1 5 -3 9 -1 9 4 0 6 21 24 48 41 26 16 61 44 77 61 l30 32 -27 -13 c-15 -6 -26 -16 -25 -22 1 -5 -4 -12 -12 -15 -9 -3 -11 0 -6 8 4 7 -5 5 -24 -4 -17 -9 -31 -21 -31 -27 0 -6 -4 -7 -10 -4 -5 3 -10 1 -10 -5 0 -6 -4 -8 -10 -5 -5 3 -10 1 -10 -5 0 -6 -4 -8 -10 -5 -5 3 -10 1 -10 -4 0 -6 -4 -11 -10 -11 -16 0 -206 -94 -305 -150 -221 -126 -262 -148 -299 -160 -49 -16 -194 -8 -254 13 -102 36 -241 143 -287 221 -45 77 -56 126 -64 276 -7 133 -10 151 -41 225 -42 100 -111 170 -236 240 -100 56 -155 107 -190 177 -98 193 -58 483 83 607 89 79 236 140 342 142 81 2 133 -12 231 -60 94 -45 201 -149 239 -230 l26 -56 7 -420 c7 -381 12 -494 23 -483 2 2 9 50 14 108 6 57 15 106 19 109 4 4 7 85 8 182 0 96 4 188 8 203 4 18 3 25 -4 21 -6 -3 -10 3 -10 14 0 12 3 21 8 21 4 0 7 55 7 122 0 114 2 127 27 179 44 88 123 168 224 224 126 70 185 129 224 221 30 73 50 184 50 282 0 83 48 142 115 142 14 0 63 -18 107 -40 80 -40 124 -47 98 -15 -7 8 -21 15 -31 15 -9 0 -24 6 -31 13 -27 26 -96 67 -161 98 l-67 31 -35 -26 c-54 -41 -65 -72 -65 -178 -1 -115 -21 -233 -51 -295 -37 -77 -140 -171 -249 -228 -95 -50 -95 -50 -185 -48 -135 2 -253 55 -376 170 -118 110 -129 159 -129 581 0 315 0 322 -20 322 -11 0 -20 -1 -21 -2z m1368 -2515 c-4 -3 -10 -3 -14 0 -3 4 0 7 7 7 7 0 10 -3 7 -7z"/>
 <path d="M5716 8993 c-7 -69 8 -340 18 -351 11 -10 14 3 20 88 3 47 10 112 14 145 4 33 7 69 6 80 0 11 -1 39 -2 63 -2 37 -5 42 -26 42 -22 0 -24 -5 -30 -67z"/>
 <path d="M6820 9051 c0 -5 44 -33 98 -62 195 -105 263 -165 319 -281 55 -112 67 -235 37 -357 -41 -165 -81 -201 -476 -433 -37 -22 -72 -46 -79 -54 -6 -8 -18 -14 -26 -14 -16 0 -233 -141 -252 -164 -26 -31 -2 -28 57 8 75 45 166 86 193 86 13 0 18 4 13 12 -5 8 -2 9 9 5 10 -4 16 -2 14 4 -1 6 5 15 13 20 8 4 44 26 80 47 121 71 340 183 388 197 59 19 165 19 223 2 142 -43 278 -153 345 -280 l39 -72 0 -136 c0 -133 -1 -136 -34 -204 -73 -148 -239 -264 -406 -285 -110 -14 -180 0 -279 56 -220 123 -368 128 -565 15 -247 -141 -339 -195 -387 -228 -31 -21 -72 -48 -92 -61 l-37 -23 28 25 c15 14 24 26 19 26 -4 0 -21 -14 -38 -31 -16 -18 -54 -48 -84 -67 -30 -20 -49 -37 -42 -40 14 -4 156 53 182 73 8 7 69 40 135 75 66 35 167 93 225 128 137 85 212 119 285 130 125 19 236 -10 362 -96 75 -51 115 -96 155 -175 29 -58 32 -73 43 -237 7 -96 16 -183 20 -193 22 -52 116 -61 196 -18 109 58 122 66 141 84 10 10 24 15 30 11 7 -5 8 -3 3 6 -6 10 -4 12 11 6 10 -4 15 -4 11 0 -4 4 -2 13 4 21 19 22 -6 16 -97 -27 -89 -41 -134 -49 -179 -28 -64 29 -89 144 -61 277 26 124 96 219 214 290 115 69 165 84 272 85 87 0 101 -2 162 -31 128 -60 236 -152 281 -238 38 -74 48 -150 39 -274 -8 -100 -14 -128 -40 -182 -36 -75 -97 -141 -173 -187 -30 -18 -126 -77 -215 -131 -88 -54 -196 -117 -239 -141 -44 -23 -84 -48 -90 -55 -5 -7 -37 -30 -70 -50 -81 -52 -57 -55 38 -5 43 22 87 40 98 40 10 0 19 4 19 9 0 5 75 49 168 97 92 48 211 114 265 147 200 122 341 129 512 26 123 -73 210 -175 234 -272 23 -93 25 -198 6 -283 -41 -187 -111 -253 -487 -458 -37 -20 -98 -57 -135 -82 -37 -26 -72 -47 -78 -48 -16 -3 -167 -117 -161 -123 2 -3 40 14 83 36 43 23 86 41 96 41 9 0 17 4 17 10 0 5 24 21 53 36 28 14 77 41 107 59 30 18 62 35 70 37 8 2 17 5 20 8 11 12 199 121 258 151 81 40 198 57 284 41 62 -11 107 -32 273 -126 55 -31 103 -56 108 -56 4 0 7 18 7 40 0 32 -4 40 -18 40 -20 0 -245 131 -281 164 -39 35 -80 102 -107 173 -24 63 -26 77 -22 193 6 153 33 231 107 309 62 65 251 171 306 171 12 0 15 16 15 90 0 69 -3 90 -13 90 -8 0 -19 -11 -25 -24 -34 -75 -175 -178 -303 -221 -105 -36 -179 -34 -271 7 -188 84 -257 144 -312 273 -33 77 -36 91 -36 183 0 55 5 124 10 153 20 103 134 237 260 304 99 53 170 125 217 223 38 77 38 77 41 222 4 170 -7 225 -67 317 -47 72 -97 118 -190 173 -87 52 -121 92 -121 144 0 47 55 109 152 172 68 43 84 64 51 64 -15 0 -16 -2 -3 -10 15 -10 8 -14 -21 -11 -9 1 -40 -15 -70 -35 -30 -20 -79 -47 -109 -61 -107 -47 -136 -99 -102 -177 16 -34 31 -50 64 -67 84 -43 207 -130 237 -168 44 -56 91 -162 100 -224 33 -242 -56 -440 -237 -531 -169 -84 -304 -87 -452 -10 -188 99 -264 215 -282 429 -12 155 -23 209 -57 280 -37 81 -88 136 -176 192 -129 83 -146 96 -195 149 -69 76 -82 120 -90 304 -7 149 -8 158 -42 230 -62 133 -126 194 -288 275 -49 26 -90 50 -90 55 0 6 -27 10 -60 10 -33 0 -60 -4 -60 -9z"/>
 <path d="M7820 9028 c1 -97 21 -343 28 -350 12 -12 22 113 22 264 l0 118 -25 0 c-22 0 -25 -4 -25 -32z"/>
 <path d="M8350 8990 c0 -39 6 -86 14 -105 35 -82 101 -72 326 50 85 46 123 55 218 56 92 1 164 -24 258 -89 76 -52 115 -89 149 -140 15 -23 32 -42 36 -42 5 0 9 40 9 88 l0 88 -52 16 c-65 20 -216 105 -231 130 -11 16 -27 18 -180 18 l-168 0 -25 -30 c-14 -16 -54 -44 -89 -61 -53 -26 -73 -31 -111 -26 -53 6 -88 34 -104 83 -8 23 -18 34 -31 34 -17 0 -19 -8 -19 -70z"/>
 <path d="M20 8481 c0 -37 -4 -61 -12 -63 -7 -3 -6 -7 5 -11 15 -6 17 2 17 63 0 39 -2 70 -5 70 -3 0 -5 -27 -5 -59z"/>
 <path d="M310 8394 c-19 -8 -41 -21 -50 -28 -21 -17 -100 -46 -128 -46 -29 0 -71 22 -96 49 -11 12 -23 21 -28 21 -4 0 -8 -34 -8 -75 l0 -74 33 -6 c37 -7 79 7 145 49 23 14 48 26 57 26 8 0 15 5 15 11 0 5 5 7 10 4 6 -3 10 -1 10 5 0 6 3 9 8 7 4 -2 25 14 47 35 43 41 40 46 -15 22z"/>
 <path d="M4040 7660 c0 -7 3 -10 7 -7 3 4 3 10 0 14 -4 3 -7 0 -7 -7z"/>
 <path d="M0 6426 l0 -166 29 0 c36 0 149 -42 199 -74 20 -13 66 -50 102 -83 54 -50 70 -73 95 -134 27 -68 30 -85 32 -214 4 -166 5 -174 39 -214 42 -51 109 -40 236 38 37 22 72 41 78 41 5 0 10 4 10 10 0 5 3 9 8 8 4 -1 19 4 34 10 19 8 26 16 22 27 -8 20 -48 19 -65 -1 -20 -24 -138 -74 -176 -74 -19 0 -43 5 -55 11 -34 18 -58 86 -58 168 0 195 90 333 282 430 179 90 306 75 531 -62 88 -54 568 -300 573 -294 6 5 -162 130 -188 140 -9 3 -99 57 -200 120 -101 63 -223 137 -273 163 l-90 49 -120 3 c-140 4 -198 -11 -302 -79 -83 -55 -132 -71 -228 -77 -58 -3 -94 0 -128 12 -110 37 -246 122 -291 181 -31 40 -66 131 -66 170 0 18 -4 24 -12 19 -8 -5 -9 -2 -5 9 3 9 2 19 -3 22 -6 4 -10 -57 -10 -159z"/>
 <path d="M2600 6500 c0 -7 3 -10 7 -7 3 4 3 10 0 14 -4 3 -7 0 -7 -7z"/>
 <path d="M3647 6504 c-10 -18 -29 -126 -23 -139 3 -8 0 -16 -7 -19 -7 -2 -4 -5 5 -5 15 -1 16 -5 8 -27 -13 -33 -13 -37 3 -28 7 5 6 0 -3 -11 -13 -15 -15 -70 -17 -335 -1 -355 0 -346 -78 -456 -52 -72 -103 -116 -195 -167 -67 -37 -175 -139 -202 -192 -37 -71 -50 -134 -57 -276 -7 -134 -10 -151 -39 -212 -38 -82 -103 -149 -201 -207 -91 -54 -151 -70 -262 -70 -85 0 -90 1 -189 51 -123 61 -165 98 -218 187 -46 77 -58 117 -68 223 -16 181 53 338 189 429 55 37 153 80 182 80 22 0 94 -89 100 -124 3 -17 7 -64 9 -104 4 -68 10 -92 20 -81 9 10 17 223 10 280 -9 77 -33 108 -90 116 -48 6 -97 -13 -219 -87 -71 -42 -94 -51 -167 -61 -121 -17 -160 -8 -313 72 -111 57 -146 71 -209 79 -126 18 -231 -9 -373 -95 -43 -26 -136 -81 -208 -123 -71 -41 -151 -89 -178 -108 -26 -19 -52 -34 -58 -34 -6 0 -26 -12 -44 -27 -18 -16 -51 -41 -74 -56 -23 -16 -41 -33 -41 -38 0 -15 37 -1 101 37 31 19 66 34 78 34 11 0 21 4 21 10 0 5 28 24 63 41 34 17 75 41 92 53 16 11 41 27 55 34 14 7 95 51 180 97 85 46 176 89 202 96 28 6 90 10 147 7 90 -3 105 -7 177 -43 120 -59 220 -169 261 -286 7 -22 15 -100 18 -174 10 -244 49 -313 260 -453 171 -114 230 -188 260 -326 24 -107 16 -236 -18 -303 -62 -125 -123 -189 -236 -254 -96 -54 -118 -60 -223 -60 -108 0 -152 11 -220 57 -29 20 -64 42 -78 49 -52 27 -122 99 -149 154 -39 77 -49 126 -56 271 -4 76 -12 139 -22 161 -17 41 -53 65 -91 61 -33 -5 -113 -40 -126 -56 -6 -7 -27 -19 -46 -27 -46 -17 -136 -82 -122 -87 7 -2 42 13 79 32 37 20 73 36 81 36 7 0 11 4 8 9 -3 5 9 11 27 14 22 3 44 -2 72 -18 75 -43 78 -49 73 -182 -4 -107 -7 -124 -36 -187 -18 -38 -44 -85 -58 -103 -26 -35 -138 -114 -214 -153 -74 -37 -281 -162 -338 -203 -30 -22 -60 -40 -67 -41 -8 -1 -22 -9 -32 -17 -10 -9 -45 -33 -78 -55 -49 -32 -56 -40 -38 -42 12 -2 50 13 83 32 34 20 70 36 81 36 10 0 19 4 19 10 0 5 19 18 43 28 23 10 87 46 142 79 169 102 387 210 450 223 105 22 177 11 289 -44 109 -53 156 -95 217 -188 52 -81 61 -120 64 -268 3 -177 19 -226 112 -337 61 -73 283 -211 616 -383 185 -95 223 -110 201 -77 -5 7 -1 4 9 -6 10 -11 20 -18 22 -15 3 2 -9 18 -27 34 -17 16 -28 23 -24 17 4 -7 5 -13 2 -13 -2 0 -62 39 -133 86 -109 73 -300 187 -472 280 -74 40 -107 71 -154 141 -61 93 -77 152 -77 287 1 146 10 186 56 254 53 77 106 126 179 167 138 78 252 94 380 54 39 -12 154 -70 273 -138 114 -65 244 -137 289 -159 45 -23 110 -60 144 -82 62 -40 89 -49 89 -29 0 5 -5 7 -12 3 -8 -5 -9 -2 -5 10 4 10 3 15 -3 11 -6 -3 -10 -2 -10 3 0 16 -254 178 -490 312 -309 175 -362 244 -374 483 -7 147 30 251 121 343 63 64 113 97 209 139 67 30 91 35 155 35 90 0 162 -19 248 -67 175 -97 243 -222 255 -468 6 -126 7 -132 48 -214 51 -106 104 -160 229 -234 96 -56 147 -105 198 -190 49 -81 53 -116 60 -549 3 -223 9 -409 13 -413 3 -3 9 6 12 22 12 61 27 419 25 613 -2 191 -1 209 20 262 40 103 137 215 217 249 33 15 88 48 295 178 81 50 154 91 162 91 8 0 18 7 21 16 3 8 10 13 15 10 5 -3 12 1 15 10 4 9 13 14 22 10 10 -4 13 -2 8 6 -5 8 -2 9 10 5 9 -4 15 -3 12 2 -3 5 12 20 34 35 41 27 48 40 28 52 -6 4 -8 3 -5 -3 4 -6 0 -14 -9 -17 -10 -4 -13 -2 -9 7 4 6 -1 3 -9 -7 -9 -11 -16 -16 -16 -10 0 5 -3 5 -8 -1 -9 -13 -38 -31 -82 -52 -138 -64 -308 -154 -375 -198 -200 -129 -292 -162 -414 -149 -130 13 -323 132 -384 237 -40 69 -58 144 -68 294 -9 130 -13 149 -44 218 -45 99 -98 153 -214 222 -105 62 -188 139 -220 205 -67 141 -67 320 1 453 17 33 37 72 45 87 22 43 83 90 186 142 89 46 100 49 188 54 86 4 100 2 169 -25 146 -57 252 -149 317 -276 24 -48 27 -66 34 -217 4 -91 12 -177 18 -192 5 -15 24 -34 40 -42 27 -15 35 -14 93 4 78 24 259 135 252 154 -4 11 -17 10 -62 -8 -31 -13 -75 -33 -97 -44 -22 -12 -50 -22 -64 -22 -33 0 -89 37 -106 71 -39 74 -23 231 32 327 40 70 140 163 228 211 120 66 340 198 427 257 42 28 91 58 107 65 17 8 31 18 31 22 0 5 5 5 10 2 6 -3 10 -1 10 5 0 6 4 9 8 6 5 -3 9 1 9 9 0 8 -6 15 -13 15 -33 0 -361 -175 -623 -334 -207 -124 -372 -113 -588 41 -75 53 -105 90 -140 174 l-26 64 -9 428 c-7 383 -13 479 -31 451z"/>
 <path d="M6810 6489 c0 -19 -2 -21 -10 -9 -26 42 -31 -15 -34 -421 -3 -337 -7 -422 -19 -455 -50 -136 -120 -217 -233 -271 -69 -33 -80 -35 -121 -27 -61 12 -85 45 -91 124 -2 33 -7 60 -11 60 -3 0 -4 22 -3 50 3 39 0 51 -12 56 -29 11 -28 15 -26 -181 1 -136 8 -165 50 -193 49 -33 79 -26 245 59 159 81 195 89 327 69 150 -21 299 -134 370 -278 33 -67 33 -67 33 -222 0 -146 -1 -158 -26 -210 -37 -78 -104 -147 -195 -202 -100 -60 -181 -81 -288 -76 -76 4 -89 8 -216 71 -166 82 -221 95 -339 78 -74 -10 -105 -21 -219 -79 l-134 -67 -100 -3 c-113 -4 -144 4 -262 71 -132 75 -199 161 -231 299 -10 47 -15 146 -17 383 -3 419 -6 485 -22 485 -22 0 -26 -59 -32 -460 -6 -421 -10 -455 -66 -543 -17 -26 -50 -64 -74 -86 -40 -35 -84 -63 -319 -202 -49 -29 -130 -79 -179 -112 -48 -32 -93 -60 -100 -61 -21 -3 -130 -90 -118 -94 6 -2 40 11 74 28 35 18 74 38 88 45 66 33 226 119 235 125 22 17 293 164 335 182 90 39 252 32 344 -14 76 -38 162 -106 205 -162 66 -86 82 -139 92 -306 4 -80 12 -161 18 -180 12 -41 72 -144 104 -179 32 -34 121 -93 231 -152 l98 -52 46 14 c75 24 87 53 89 226 2 121 0 142 -14 147 -24 10 -27 1 -28 -84 0 -44 -3 -80 -6 -80 -4 0 -14 -17 -22 -39 -19 -45 -60 -81 -94 -81 -42 0 -146 59 -206 118 -70 68 -98 114 -127 206 -19 58 -22 85 -18 185 4 108 6 120 37 178 56 105 178 210 295 256 72 28 219 35 281 13 78 -26 190 -102 254 -172 84 -92 101 -140 116 -334 13 -166 30 -225 84 -304 45 -65 86 -100 177 -151 46 -26 103 -64 127 -85 85 -75 127 -194 127 -362 0 -125 -26 -200 -104 -302 -49 -64 -67 -79 -153 -126 -54 -30 -179 -104 -278 -165 -197 -123 -227 -140 -236 -138 -3 1 -23 -16 -44 -38 -33 -33 -36 -39 -19 -39 11 0 29 7 40 15 10 8 26 15 35 15 9 0 22 7 30 16 7 9 60 40 118 69 59 29 159 84 223 121 64 38 152 89 195 114 129 74 192 145 243 275 22 55 24 72 22 214 l-2 154 -37 66 c-43 78 -146 188 -217 233 -110 69 -157 112 -205 184 -60 89 -74 148 -69 287 3 92 7 109 37 172 48 99 132 178 257 241 l96 49 112 0 c101 0 116 -3 166 -28 141 -71 218 -133 265 -212 40 -68 65 -178 65 -290 0 -123 9 -159 67 -258 65 -112 111 -146 453 -329 248 -133 343 -182 385 -198 28 -11 27 -9 -15 32 -24 24 -50 42 -56 40 -6 -1 -14 4 -18 13 -3 8 -10 15 -16 15 -6 0 -63 33 -128 73 -64 41 -166 102 -227 137 -203 117 -222 129 -267 178 -82 88 -118 183 -118 316 0 138 16 199 74 285 57 84 115 133 221 186 58 30 84 37 155 42 129 9 185 -10 370 -121 186 -112 545 -296 577 -296 13 0 23 4 23 10 0 5 -6 7 -14 4 -7 -3 -16 2 -19 10 -3 8 -25 25 -49 37 -24 12 -51 28 -60 37 -10 8 -18 11 -18 7 0 -4 -8 -1 -17 7 -82 70 -525 328 -608 354 -129 40 -250 22 -422 -64 -129 -65 -163 -75 -247 -74 -119 2 -271 70 -372 169 -129 125 -160 376 -69 559 48 97 119 161 276 247 123 67 239 138 378 230 39 26 76 47 81 47 6 0 10 5 10 11 0 5 5 7 10 4 6 -3 10 -1 10 6 0 7 3 9 6 6 8 -8 44 36 44 54 0 8 -7 6 -20 -6 -11 -10 -20 -14 -20 -10 0 4 -8 1 -17 -7 -10 -9 -76 -45 -148 -82 -147 -74 -278 -148 -389 -219 -42 -27 -108 -60 -148 -74 -64 -22 -84 -25 -177 -21 -113 5 -148 16 -256 81 -101 61 -122 84 -171 183 l-48 95 -3 437 c-2 239 -6 438 -8 441 -3 2 -5 -7 -5 -20z m1865 -3299 c3 -5 4 -10 1 -10 -3 0 -8 5 -11 10 -3 6 -4 10 -1 10 3 0 8 -4 11 -10z"/>
 <path d="M8235 5700 c3 -5 8 -10 11 -10 2 0 4 5 4 10 0 6 -5 10 -11 10 -5 0 -7 -4 -4 -10z"/>
 <path d="M0 5130 c0 -30 4 -40 16 -40 14 0 273 -127 284 -139 3 -3 10 -7 15 -8 6 -1 19 -5 30 -9 18 -7 18 -6 -3 22 -13 16 -33 34 -45 39 -12 6 -68 41 -124 78 -55 37 -117 74 -137 82 l-36 15 0 -40z"/>
 <path d="M1415 4791 c3 -5 1 -12 -5 -16 -5 -3 -10 -2 -10 4 0 16 -145 -53 -220 -104 -36 -24 -94 -58 -129 -75 -35 -17 -86 -46 -115 -64 -87 -57 -290 -154 -353 -170 -124 -32 -160 -23 -411 112 -85 45 -158 82 -163 82 -5 0 -9 -16 -9 -35 0 -25 4 -35 15 -35 9 0 44 -17 78 -39 34 -21 94 -57 132 -79 77 -44 124 -89 178 -169 104 -154 65 -468 -74 -603 -47 -45 -183 -127 -239 -144 -21 -6 -42 -15 -46 -19 -4 -4 -16 -7 -26 -7 -17 0 -18 -11 -18 -141 0 -121 2 -138 14 -126 14 13 39 87 30 87 -10 0 38 82 67 114 16 19 76 63 132 98 129 79 191 141 242 242 39 78 39 79 46 230 8 190 15 211 93 315 44 58 145 131 306 221 339 190 547 330 489 330 -5 0 -8 -4 -4 -9z"/>
 <path d="M9005 4790 c4 -6 11 -8 16 -5 14 9 11 15 -7 15 -8 0 -12 -5 -9 -10z"/>
 <path d="M4556 4778 c3 -5 10 -6 15 -3 13 9 11 12 -6 12 -8 0 -12 -4 -9 -9z"/>
 <path d="M9049 4781 c7 -5 11 -13 8 -18 -6 -10 32 -38 153 -115 143 -90 150 -92 150 -50 0 18 -8 31 -23 38 -174 90 -264 137 -271 145 -6 5 -15 9 -20 9 -6 0 -5 -4 3 -9z"/>
 <path d="M8523 3843 c5 -12 14 -20 18 -17 5 3 9 1 9 -5 0 -5 14 -12 30 -16 17 -4 54 -23 83 -43 99 -68 302 -195 427 -266 136 -77 195 -128 224 -193 30 -69 46 -47 46 63 l0 94 -30 0 c-43 0 -78 16 -262 123 -90 52 -221 125 -292 163 -134 72 -145 78 -187 107 -14 9 -37 16 -51 15 -23 -2 -25 -5 -15 -25z"/>
 <path d="M5232 3266 l-37 -34 0 -184 0 -183 32 -60 c56 -107 89 -143 196 -212 56 -37 134 -99 172 -138 68 -67 72 -74 94 -157 31 -114 27 -279 -9 -372 -36 -94 -124 -178 -259 -246 -35 -17 -102 -57 -150 -89 -47 -32 -119 -75 -158 -96 -40 -20 -83 -47 -95 -60 -13 -12 -27 -24 -33 -26 -27 -11 -135 -85 -139 -96 -5 -13 101 30 119 48 5 5 17 9 27 9 10 0 18 4 18 9 0 5 89 55 197 111 109 57 226 120 261 141 126 77 228 107 325 96 77 -9 249 -98 312 -162 118 -118 159 -283 119 -475 -8 -41 -26 -93 -39 -115 -39 -67 -116 -137 -208 -189 -91 -51 -146 -102 -200 -188 -57 -89 -60 -106 -65 -336 -5 -243 -2 -262 33 -262 18 0 23 4 19 15 -4 10 -2 13 7 10 12 -4 14 32 14 208 l0 213 44 89 c73 148 172 223 349 265 163 39 219 21 562 -184 132 -79 440 -237 440 -226 0 26 -246 189 -499 331 -203 114 -263 162 -314 247 -46 77 -56 110 -62 222 -5 99 5 184 29 229 69 134 93 160 194 220 70 42 196 81 263 81 62 0 179 -29 230 -57 116 -63 214 -165 240 -251 6 -20 16 -113 23 -207 11 -149 16 -177 40 -227 39 -83 101 -146 206 -208 237 -141 277 -218 281 -538 1 -103 6 -197 12 -209 12 -26 42 -31 51 -8 3 8 6 100 6 204 1 121 6 208 15 240 27 103 110 220 188 265 23 13 121 69 217 123 96 55 217 128 267 161 51 34 97 62 103 62 5 0 10 5 10 11 0 5 4 8 9 5 5 -3 12 1 15 10 3 8 10 13 14 10 5 -3 9 1 9 9 0 24 -16 19 -133 -41 -106 -55 -189 -102 -424 -238 -174 -101 -204 -111 -337 -110 l-111 1 -88 49 c-112 62 -182 131 -228 226 -51 103 -63 176 -47 290 16 114 25 139 72 210 49 71 88 103 208 169 53 29 132 76 176 104 170 111 221 142 263 159 23 11 42 24 42 29 0 6 3 8 6 5 9 -10 94 74 87 85 -5 8 -8 7 -11 -1 -2 -7 -8 -10 -13 -6 -5 3 -9 0 -9 -6 0 -6 -4 -8 -10 -5 -5 3 -10 1 -10 -5 0 -6 -4 -9 -9 -5 -6 3 -13 0 -18 -7 -10 -16 1 -10 -253 -140 -113 -58 -227 -119 -255 -136 -143 -89 -242 -120 -356 -109 -45 4 -80 17 -156 57 -54 29 -111 59 -127 68 -37 19 -138 41 -191 42 -65 0 -183 -38 -275 -88 -150 -83 -208 -97 -313 -75 -144 30 -301 131 -360 231 -54 93 -71 155 -71 257 1 113 28 209 83 291 61 91 53 86 316 229 125 69 349 206 401 246 28 21 56 39 63 39 7 0 9 5 6 10 -3 6 0 10 8 10 7 0 14 6 14 14 0 9 -6 12 -16 8 -49 -19 -229 -112 -311 -161 -52 -32 -175 -102 -273 -155 -216 -119 -256 -129 -403 -104 -99 17 -149 40 -251 118 -102 77 -162 206 -163 348 0 185 79 228 249 136 87 -46 131 -53 96 -14 -27 30 -185 127 -235 145 -63 22 -86 19 -128 -19z"/>
 <path d="M13 3133 c4 -3 10 -3 14 0 3 4 0 7 -7 7 -7 0 -10 -3 -7 -7z"/>
 <path d="M6680 2979 c0 -5 5 -7 10 -4 6 3 10 8 10 11 0 2 -4 4 -10 4 -5 0 -10 -5 -10 -11z"/>
 <path d="M2748 2963 c6 -2 10 -8 7 -13 -6 -10 97 -85 204 -150 154 -94 180 -109 311 -180 79 -43 156 -94 185 -121 61 -58 128 -172 149 -253 20 -75 15 -222 -9 -291 -24 -70 -85 -155 -136 -191 -42 -30 -311 -193 -387 -236 -21 -11 -53 -32 -72 -46 -19 -15 -40 -26 -46 -24 -5 1 -19 -6 -30 -16 -10 -10 -51 -39 -90 -64 -68 -44 -95 -68 -77 -68 12 0 222 108 255 132 15 10 56 32 90 48 35 15 133 67 218 114 178 100 223 115 340 119 84 2 87 1 180 -46 146 -73 222 -150 282 -283 25 -57 31 -215 11 -292 -37 -140 -138 -258 -287 -332 l-89 -45 -105 2 c-122 3 -168 16 -267 74 -119 70 -163 82 -274 77 -107 -5 -190 -30 -256 -76 -70 -50 -136 -71 -236 -78 -82 -5 -101 -3 -153 16 -127 48 -231 125 -289 212 -53 82 -67 136 -70 283 -2 114 1 136 19 175 47 103 130 192 220 238 22 11 112 65 200 120 87 54 179 110 204 123 25 13 48 29 52 34 5 6 8 6 8 1 0 -6 6 -2 13 9 8 10 19 15 26 11 6 -4 10 -3 9 2 -2 5 26 29 61 53 35 24 59 45 54 46 -14 5 -183 -84 -175 -91 3 -3 -3 -6 -13 -6 -19 0 -311 -150 -415 -213 -36 -22 -96 -55 -135 -74 -61 -29 -79 -33 -150 -33 -77 0 -180 25 -211 50 -17 15 -176 101 -406 221 -108 57 -196 105 -195 108 1 3 -1 7 -6 8 -4 2 -29 14 -57 28 -54 27 -70 31 -70 14 0 -5 5 -7 11 -4 6 4 13 -2 16 -14 3 -11 9 -18 14 -15 5 3 9 0 9 -5 0 -6 5 -11 12 -11 6 0 57 -29 112 -66 138 -89 294 -187 396 -247 149 -88 198 -127 247 -196 64 -92 75 -122 80 -236 6 -118 -15 -236 -53 -288 -13 -17 -34 -48 -48 -67 -34 -50 -61 -72 -151 -122 -265 -148 -377 -214 -422 -248 -28 -21 -54 -36 -57 -33 -2 3 -32 -19 -65 -48 -33 -29 -59 -54 -57 -56 3 -4 105 40 136 57 8 5 69 38 135 73 66 35 178 99 248 141 164 99 216 123 302 136 98 15 201 -6 301 -60 93 -52 122 -76 177 -150 66 -88 91 -177 84 -305 -5 -101 -22 -164 -55 -213 -10 -15 -19 -39 -20 -54 l-2 -28 105 0 105 0 0 26 c0 14 -7 32 -15 40 -47 48 -73 305 -40 406 28 85 50 121 112 184 220 224 550 209 751 -33 86 -103 100 -142 101 -287 2 -112 12 -181 39 -246 13 -32 65 -90 80 -90 21 0 13 55 -15 116 -27 56 -28 67 -28 204 l0 145 37 76 c65 133 195 227 365 265 120 26 217 6 348 -73 105 -62 182 -166 214 -284 9 -31 12 -105 9 -232 l-3 -186 28 -16 c17 -10 27 -12 27 -5 0 6 5 8 10 5 7 -4 10 65 10 199 0 192 2 210 26 286 22 71 33 89 87 145 51 53 90 80 212 146 83 45 216 123 297 175 81 52 155 97 164 101 10 3 26 15 36 25 10 10 24 16 31 12 7 -4 9 -3 4 1 -4 5 0 16 9 26 24 27 7 45 -20 20 -11 -11 -86 -53 -166 -94 -80 -41 -185 -99 -235 -128 -335 -197 -351 -203 -500 -204 -75 0 -86 3 -180 48 -122 58 -201 134 -259 250 l-38 74 4 144 c4 160 6 167 83 267 59 79 77 94 180 152 107 60 159 114 218 225 l42 80 3 424 c2 285 -1 428 -8 435 -7 7 -10 6 -10 -2 0 -7 -5 -12 -11 -12 -36 0 -38 -28 -39 -392 0 -392 -4 -425 -57 -531 -44 -88 -95 -137 -202 -190 -198 -100 -289 -97 -478 13 -107 63 -147 100 -180 165 -48 94 -63 152 -63 250 0 120 -13 184 -54 270 -36 76 -114 170 -149 180 -23 7 -186 96 -272 148 -123 75 -447 248 -462 246 -4 0 -2 -3 5 -6z"/>
 <path d="M0 2785 c0 -17 5 -25 18 -24 9 0 12 3 6 5 -7 3 -10 14 -7 24 3 11 0 20 -6 20 -6 0 -11 -11 -11 -25z"/>
 <path d="M9317 2773 c-34 -53 -82 -99 -151 -144 -83 -55 -168 -79 -277 -79 -97 0 -152 16 -287 84 -82 41 -167 66 -227 66 -100 -1 -173 -27 -349 -126 -192 -109 -320 -188 -353 -217 -12 -10 -28 -17 -35 -15 -7 3 -29 -9 -49 -26 -19 -17 -57 -43 -82 -58 -44 -26 -61 -48 -36 -48 10 0 152 68 189 91 8 5 63 34 122 64 99 51 280 155 338 195 77 52 224 85 318 69 80 -12 111 -25 237 -97 l100 -57 120 0 c129 0 158 7 233 58 52 35 154 82 200 92 l32 7 0 89 c0 52 -4 89 -10 89 -5 0 -20 -17 -33 -37z m-1687 -437 c0 -3 -5 -8 -12 -12 -7 -4 -8 -3 -4 4 7 12 16 16 16 8z"/>
 <path d="M0 2685 l0 -54 60 -7 c46 -5 78 -18 141 -55 95 -55 137 -93 187 -168 52 -78 72 -148 72 -250 -1 -169 -38 -271 -135 -366 -57 -55 -186 -124 -272 -146 l-53 -13 0 -123 c0 -100 3 -123 14 -123 8 0 18 10 21 23 32 101 76 156 191 234 129 87 285 109 421 58 101 -38 190 -103 247 -180 71 -97 86 -146 97 -310 10 -165 12 -174 40 -208 29 -38 87 -37 165 4 110 58 119 62 124 68 3 4 17 12 33 18 15 7 27 17 27 23 0 6 5 8 10 5 6 -4 9 -1 8 7 -2 7 5 13 14 13 9 0 20 4 25 9 4 5 3 6 -4 2 -6 -3 -15 -2 -18 4 -5 8 -11 8 -19 1 -7 -6 -16 -8 -19 -4 -4 3 -7 1 -7 -6 0 -7 -4 -9 -10 -6 -5 3 -10 1 -10 -5 0 -6 -4 -9 -8 -6 -5 3 -18 -3 -29 -13 -38 -35 -115 -56 -169 -45 -68 13 -81 42 -92 206 -8 121 -10 132 -50 210 -50 102 -104 155 -235 232 -107 63 -154 112 -204 213 -25 52 -28 71 -32 175 -3 105 0 124 24 198 31 94 78 158 162 223 95 72 203 117 284 117 112 0 256 -54 384 -145 56 -39 204 -122 340 -190 33 -16 62 -32 65 -36 10 -13 111 -51 118 -45 4 4 -4 16 -18 27 -14 10 -30 23 -37 29 -7 5 -15 10 -19 10 -4 0 -19 10 -32 23 -14 12 -21 15 -17 7 5 -8 -11 1 -36 21 -62 50 -176 121 -373 229 -290 160 -396 167 -629 45 -142 -75 -268 -91 -393 -49 -27 9 -95 42 -151 75 -87 50 -184 99 -199 99 -2 0 -4 -25 -4 -55z"/>
 <path d="M8784 1786 c-51 -12 -174 -78 -319 -171 -44 -28 -125 -78 -179 -111 -54 -32 -111 -67 -125 -76 -14 -10 -33 -21 -41 -25 -26 -12 -130 -87 -126 -91 5 -4 148 56 161 69 5 5 19 9 31 9 12 0 24 7 28 15 3 8 65 44 138 81 73 37 170 89 215 116 96 59 258 118 325 118 152 0 362 -111 419 -221 34 -68 49 -52 49 51 0 89 0 90 -25 90 -13 0 -80 29 -147 64 -178 93 -277 113 -404 82z"/>
 <path d="M510 1010 c0 -7 3 -10 7 -7 3 4 3 10 0 14 -4 3 -7 0 -7 -7z"/>
 <path d="M471 886 c-1 -61 -6 -160 -12 -221 -7 -65 -9 -178 -5 -276 5 -149 4 -173 -14 -232 -11 -35 -27 -70 -35 -77 -8 -7 -15 -28 -15 -46 l0 -34 115 0 c125 0 126 1 103 57 -7 16 -18 28 -25 26 -11 -4 -29 38 -40 98 -4 19 -8 198 -10 399 -3 229 -8 369 -14 377 -6 7 -8 16 -5 21 3 6 -5 12 -18 14 l-24 5 -1 -111z"/>
 <path d="M8871 978 c-2 -7 -6 -191 -10 -408 -7 -390 -10 -428 -44 -481 -8 -13 -18 -39 -22 -57 l-7 -32 102 0 c81 0 102 3 107 15 3 9 -10 48 -28 88 l-33 72 -8 380 c-4 209 -8 391 -10 405 -3 27 -42 42 -47 18z"/>
 <path d="M1894 241 c-5 -5 -49 -32 -99 -59 -49 -27 -123 -68 -163 -90 -40 -22 -69 -36 -66 -30 4 6 -2 6 -15 -1 -18 -10 -41 -40 -41 -55 0 -3 29 -6 65 -6 61 0 70 4 67 31 -1 3 46 34 103 68 57 34 114 73 127 86 13 14 28 25 35 25 19 0 24 17 10 29 -8 6 -17 7 -23 2z"/>
 <path d="M6415 241 c-6 -10 0 -15 16 -13 3 1 12 -9 18 -22 7 -12 27 -31 44 -41 18 -10 65 -40 106 -67 40 -28 88 -56 107 -64 19 -8 34 -19 34 -24 0 -6 18 -10 40 -10 44 0 52 16 23 43 -10 8 -90 52 -178 96 -88 45 -170 88 -182 97 -14 10 -23 12 -28 5z"/>
 <path d="M5224 152 c4 -7 3 -12 -2 -12 -13 0 -23 -71 -16 -109 4 -17 12 -31 19 -31 17 0 21 145 4 156 -8 4 -9 3 -5 -4z"/>
 <path d="M4182 132 c-1 -7 -7 -10 -12 -7 -16 10 -29 -38 -23 -84 12 -86 50 -26 40 64 -2 22 -4 34 -5 27z"/>
 <path d="M8354 96 c-3 -19 -1 -48 4 -63 9 -24 11 -20 11 35 1 69 -5 80 -15 28z"/>
 </g>

</svg>