<svg version="1.0" xmlns="http://www.w3.org/2000/svg" width="470" height="470" viewBox="0 0 4700 4700"><g fill="#72717e"><path d="M1110 4689c0-6 14-9 33-7 27 3 32 0 29-17-15-103 5-185 61-243a244 244 0 01418 117c12 55-3 161-23 161-6 0-8-9-4-22 28-99 13-169-46-235-51-54-96-75-168-76-159-3-267 164-205 316 6 15 1 17-44 17-29 0-51-5-51-11z"/><path d="M1257 4665c-38-79-7-179 68-223 80-46 198-13 240 68 18 35 20 111 3 157l-12 33h-282l-17-35zM3630 4691c0-5-7-17-16-26s-14-18-11-22c11-10 559-144 571-140 7 3 35 30 61 61 48 56 48 57 36 96l-12 40h-81c-57 0-84-4-92-14s-50-15-168-19c-88-2-158-1-158 4s6 9 14 9 18 5 21 10c4 6-25 10-79 10-47 0-86-4-86-9zm590-91c13-8 10-15-17-42l-32-32-11 28c-16 44-13 56 18 56 15 0 34-5 42-10zM2390 4334l-170-30c-173-30-202-41-230-87-26-42-25-67 10-270 39-217 45-239 72-264 57-52 83-53 287-17 167 29 192 39 205 77 23 63-25 112-122 125-35 5-70 16-79 24-16 17-42 122-43 174 0 35 16 52 78 84 54 28 82 64 82 105 0 51-43 89-90 79zm52-31c26-23 23-75-4-100-13-11-44-32-70-46-26-15-54-37-63-50-12-17-19-20-32-11-10 6-20 24-24 40-13 66-56 104-119 104-92 0-143-95-98-182 20-40 113-62 158-38 14 7 25 7 39-2 15-9 25-9 45 0 28 13 31 11 41-36 7-32 6-33-20-26-19 5-32 1-48-13-12-11-42-23-65-26-105-13-148-137-71-201 41-35 72-41 116-25 53 20 78 60 78 122 0 70 9 83 42 62 14-9 55-21 92-26 73-10 111-39 111-84 0-36-32-52-160-75-234-43-290-38-323 32-16 36-77 367-77 421 1 82 41 111 195 138l165 29c68 12 72 11 92-7zm-297-121c7-15 18-22 37-22 22 0 28-5 28-21 0-12-8-23-20-26s-20-14-20-27c-1-48-45-62-57-17-3 12-15 21-31 23-37 4-41 35-8 48 20 7 26 16 26 40 0 25 4 31 18 28 9-2 21-13 27-26zm62-312c2-8-1-22-7-30-13-20-44-1-48 29-3 19 0 22 25 19 15-2 29-10 30-18zm71-58c4-28-24-40-45-19s-9 49 19 45c15-2 24-11 26-26zm-129-1c19-12 4-51-20-51-22 0-34 22-25 45 6 17 24 19 45 6zm76-71c0-20-5-25-25-25-28 0-41 32-18 46 23 15 43 5 43-21zM37 4118c-35-10-37-12-37-53v-43l47 14c94 29 168 14 238-48 61-53 85-105 85-183 0-100-52-185-136-225-38-17-60-21-118-17-39 2-81 7-94 12-20 7-22 4-22-34 0-39 11-53 25-31 3 6 26 10 50 10 35 0 45-4 50-20 7-23 38-26 96-8 32 9 39 16 39 37 0 32 50 64 85 55 21-5 29 1 55 42 35 55 36 61 14 85-21 23-10 75 18 90 18 9 20 17 14 55-8 60-22 84-50 84s-58 40-56 73c4 39 1 43-52 72-48 26-52 27-64 10-17-23-81-14-101 15-15 22-29 23-86 8zM4686 4069c-9-30-48-55-80-51-24 3-42-14-71-65-18-31-18-33-1-52 23-25 13-91-15-98-22-6-24-26-8-89 9-33 16-44 31-44 10 0 30-12 45-26 20-20 24-32 19-54-5-26-1-33 32-55 53-36 62-33 62 20 0 32-4 45-14 45-19 0-65 55-87 105-26 56-25 147 2 201 11 24 38 59 60 79 35 32 40 41 37 73-4 35-4 36-12 11z"/><path d="M82 3883c-18-7-42-57-42-88 0-68 106-103 149-49 46 59 9 145-61 143-18 0-39-3-46-6zm85-28c33-23 35-62 4-98-22-24-33-29-54-23-37 9-57 33-57 68 0 59 57 88 107 53zM3329 2937c-41-27-52-67-19-67 22 0 59-35 60-57 0-7-14-20-31-28-22-12-29-22-27-38 3-22 4-22 69-14 18 2 26-13 63-118 24-65 49-122 57-126 27-14 209-72 213-68 2 2 2 55-1 118l-6 113-80 62c-44 33-91 71-106 83l-26 21 23 24c27 30 28 44 2 58-17 9-25 6-46-15-13-14-29-25-34-25-16 0-40 44-40 72 0 35-24 37-71 5zm256-217c53-40 99-78 101-84 3-7 4-46 2-87l-3-74-59 80-113 151c-52 70-66 101-39 91 8-3 58-38 111-77zm-104-7l116-155c40-54 73-100 73-102 0-3-37 8-81 23l-82 27-43 119c-24 65-44 124-44 132 0 26 20 12 61-44zM1690 2695c-18-17-168-36-255-33l-60 3 2-30c3-44 63-544 69-582 5-28 11-33 33-33 15 0 36 7 47 15 19 12 192 41 219 36l55-4c37-2 45 1 42 15-1 9 6 19 18 23 27 9 28 55 1 55-25 0-28 5-36 60l-7 45 67 33c50 24 65 37 61 48-3 9-6 37-6 62 0 26-4 53-9 60-4 7-38 20-74 28-67 16-85 31-47 41 19 5 20 11 14 67-8 72-9 76-35 76-10 0-19 7-19 15 0 20-60 20-80 0zm64-32c3-16 8-66 12-113l6-85-20 25c-19 24-47 174-36 192s33 6 38-19zm-320-30c14-52 15-169 2-193-14-24-14-24-20 20a977 977 0 00-18 185c11 11 31 4 36-12zm252-116c92-48 122-171 60-252-100-130-306-64-306 99 0 52 16 90 52 123 54 50 131 62 194 30zm234-117c0-31-4-40-17-40-10 0-28-3-39-6-18-5-22 0-28 30-9 48-2 56 45 56 39 0 39 0 39-40zm-101-292c1-21-4-28-18-28-17 0-20 11-26 86-6 63-4 93 6 112 12 26 13 22 25-58 7-47 13-97 13-112zm-347 124c9-15 19-64 23-110 7-78 7-82-12-82-18 0-21 9-27 68l-13 110c-7 48 5 54 29 14z"/><path d="M1563 2503c-55-11-114-112-97-166 30-100 131-146 212-97 119 72 81 253-55 265-21 2-48 1-60-2zm13-48c9-34-37-95-72-95-36 0-28 51 15 98 28 29 49 28 57-3zm58-58c37-27-2-96-41-71-32 20-39 41-19 63 22 24 35 26 60 8zm101-54c-9-38-30-70-60-89s-31-19-39 21c-5 24-1 36 23 63 19 21 39 32 57 32 24 0 26-3 19-27zM2651 1449c-66-26-137-94-171-164-21-42-25-65-25-140 0-78 4-97 27-140 34-66 87-119 151-152 44-23 65-27 137-27 77-1 92 2 153 32a311 311 0 01177 288c0 122-64 230-171 289-74 40-197 46-278 14zm215-34c61-18 122-69 161-132 25-43 28-57 28-133 0-77-3-90-31-140a298 298 0 00-255-150c-94 0-204 72-251 164a283 283 0 0057 322c78 79 178 103 291 69z"/><path d="M2777 1401c-3-12-1-24 4-27 13-8 24 25 12 37-7 7-12 3-16-10zM2650 1359c7-11 14-18 17-15 8 8-5 36-17 36-7 0-7-6 0-21zM2901 1366c-8-9-11-19-7-23 9-9 29 13 24 27-2 8-8 7-17-4zM2555 1280c10-11 23-20 28-20 6 0 2 9-8 20s-23 20-28 20c-6 0-2-9 8-20zM2845 1243c-59-72-75-79-126-52-50 25-77 19-30-7 19-11 43-29 54-41 27-30 57-30 57 0 0 13 22 49 50 82 44 52 58 75 46 75-2 0-25-26-51-57zM2984 1265c-16-12-16-14-3-15 9 0 22 7 29 15 16 19 0 19-26 0zM2505 1160c-4-6 5-10 20-10s24 4 20 10c-3 6-12 10-20 10s-17-4-20-10zM3000 1140c0-5 9-10 21-10 11 0 17 5 14 10-3 6-13 10-21 10s-14-4-14-10zM2550 1035c-10-12-10-15 3-15 8 0 17 7 21 15 3 8 2 15-3 15s-14-7-21-15zM2972 1019c2-7 10-15 17-17 8-3 12 1 9 9-2 7-10 15-17 17-8 3-12-1-9-9zM2635 940c-10-11-13-20-8-20 13 0 38 29 31 35-3 3-13-4-23-15zM2880 936c0-8 5-18 10-21 6-3 10 1 10 9s-4 18-10 21c-5 3-10-1-10-9zM2760 899c0-11 5-17 10-14 6 3 10 13 10 21s-4 14-10 14c-5 0-10-9-10-21zM90 1388l-89-45c-2-2-1-6 3-10s45 12 92 36c46 24 86 42 88 40 7-7 276-543 273-545-7-7-378-194-385-194-5 0-22 28-38 61-17 36-30 55-32 45-5-24 48-126 66-126 21 0 412 203 412 214 0 20-284 566-295 566-6 0-49-19-95-42z"/><path d="M150 1365c0-9 5-15 11-13s11 8 11 13-5 11-11 13-11-4-11-13zM4570 1279c-52-27-96-53-98-58-1-4 48-109 110-232 82-164 113-218 116-200 2 13 0 26-5 30-13 10-193 375-193 392 0 10 17 23 43 34 64 25 165 85 142 84-11-1-63-24-115-50zM23 1303c-20-4-23-11-23-49 0-24 5-44 10-44 6 0 10 11 10 25 0 25 20 37 20 13 0-8 5-6 11 4 11 20 63 15 90-8 8-8 21-14 28-14 17 0 53-83 39-91-5-4-7-16-3-28 4-14 1-23-9-27-9-3-16-15-16-25 0-22-11-24-28-7-14 14-16 74-3 83 16 9-16 58-40 62-13 2-31 11-40 19-16 15-17 14-12-6 5-19 3-21-16-15-18 5-21 2-21-23 0-17-6-33-13-35-9-4-9-8-1-14 7-4 13-17 15-28 3-11 11-20 19-21 8 0 23-4 33-8 10-5 23-4 31 3 11 10 18 7 30-11 29-41 10-69-21-30-13 16-14 15-8-5 5-17 2-23-8-23-9 0-17 6-20 13-3 9-8 9-21-3-16-12-19-12-27 3-15 26-29 20-29-12 0-21 6-30 22-35 133-35 256 74 227 201-23 107-109 158-226 136z"/><path d="M4647 1250c-59-70-60-160-1-229 20-22 40-41 45-41 17 0 9 52-11 68-22 19-45 82-29 82 5 0 7 10 4 23-4 15-1 28 9 36 9 8 16 20 16 27 0 8 5 14 10 14 6 0 10 11 10 25 0 34-22 32-53-5zM100 1231c0-5 5-13 10-16 6-3 10-2 10 4 0 5-4 13-10 16-5 3-10 2-10-4zM160 1210c0-5 5-10 10-10 6 0 10 5 10 10 0 6-4 10-10 10-5 0-10-4-10-10zM4520 1213c1-19 16-31 29-24 7 5 10 14 7 20-8 12-36 15-36 4zM180 1171c0-6 5-13 10-16 6-3 10 1 10 9 0 9-4 16-10 16-5 0-10-4-10-9z"/><path d="M4680 1160c0-5 5-10 10-10 6 0 10 5 10 10 0 6-4 10-10 10-5 0-10-4-10-10zM160 1111c0-5 5-13 10-16 6-3 10-2 10 4 0 5-4 13-10 16-5 3-10 2-10-4zM4660 1104c0-8 5-12 10-9 6 4 8 11 5 16-9 14-15 11-15-7zM4685 1070c-3-5-1-10 4-10 6 0 11 5 11 10 0 6-2 10-4 10-3 0-8-4-11-10zM40 1050c0-5 5-10 10-10 6 0 10 5 10 10 0 6-4 10-10 10-5 0-10-4-10-10zM169 945c-81-44-49-165 43-165a86 86 0 0157 154c-34 29-61 32-100 11zm89-58c26-55-35-101-80-60-21 19-24 63-6 81 22 22 71 10 86-21z"/><path d="M184 885c-15-39 29-62 56-30 11 13 10 18-6 30-25 19-43 19-50 0zM395 890c-10-16 7-31 23-21 10 6 10 10-2 20-10 9-16 9-21 1zM72 718c6-18 28-21 28-4 0 9-7 16-16 16s-14-5-12-12zM1867 588l-106-226c-44-95-81-175-81-178s17-12 38-20c85-35 327-149 330-156 2-5 18-8 35-7 27 0 18 7-63 47-52 26-139 67-192 91-54 24-102 49-108 56-7 8 0 31 22 74 28 54 35 61 54 57 13-4 125-54 251-112 125-59 238-110 251-115 25-10 28-35 7-63-19-25-19-36-1-36 8 0 44 67 86 157 40 87 77 164 82 170 16 20 1 43-39 60-86 35-469 213-515 238-26 15-26 15-51-37zm316-124l203-95 13-43c12-41 11-48-13-98-22-47-32-57-65-66-21-7-43-12-49-12-15 0-361 160-392 181-14 9-31 34-39 54-12 35-11 42 14 95 27 56 52 74 107 79 10 0 109-42 221-95zM3802 211C3718 100 3650 8 3650 5c0-9 206-5 216 4 16 15 174 63 188 58 8-3 17-19 21-36s13-31 21-31c10 0 11 6 4 26-16 42-13 47 31 41s59-14 44-25c-6-4-16-15-24-25-12-16-9-17 43-17 39 0 56 4 56 13 0 7-28 94-63 192-71 200-59 186-174 200l-59 7-152-201zm241 169c23 0 22-19-5-47-28-30-34-29-47 8-16 45-14 52 12 45 12-3 30-6 40-6zm-64-96c1-16-29-44-115-109-64-47-118-84-121-82-3 3 16 32 41 64l108 137 62 80 12-35c7-18 13-44 13-55zm140-71c3-2-9-18-27-35l-31-32-11 28c-18 50-14 58 28 50 20-4 39-8 41-11zM924 145c-26-40-6-71 64-101 31-13 65-29 74-34 10-6 46-10 81-10 62 0 64 1 113 48 58 56 119 78 187 68 54-8 133-57 149-91 6-14 17-25 25-25 24 0 14 20-33 65a242 242 0 01-348-4c-17-17-33-31-36-31-4 0-23 15-42 33a497 497 0 01-190 107c-18 0-33-8-44-25z"/><path d="M1335 44c-16-8-37-22-45-30-12-12 3-14 119-14 120 0 132 2 120 16-36 44-136 58-194 28z"/></g><g fill="#e13b49"><path d="M2791 4678c25-47 92-118 145-153l55-37 59 36c32 20 60 36 63 36s9-21 13-47c11-76 15-77 67-14 43 54 51 59 99 65 28 4 55 9 59 12 9 5-21 124-32 124-12 0-11-21 3-60 9-29 9-35-7-47-11-7-32-13-48-13-22 0-40-11-69-42-32-35-41-40-48-28-6 8-10 20-10 27 0 6-2 18-6 26-3 9 13 25 48 47 97 61 105 90 23 90-59 0-70-10-30-28 14-6 25-15 24-19 0-12-180-126-204-130-28-5-130 78-163 133-28 46-64 65-41 22zM3630 4691c0-5-7-17-17-26-11-11-13-19-6-23 6-4 135-38 287-76l276-69 55 59c59 64 60 66 44 113l-11 31h-80c-57 0-84-4-92-14s-50-15-168-19c-88-2-158-1-158 4s6 9 14 9 18 5 21 10c4 6-25 10-79 10-47 0-86-4-86-9zm590-91c13-8 10-15-17-42l-32-32-11 28c-16 44-13 56 18 56 15 0 34-5 42-10zM725 4096c-37-16-92-77-101-111-3-13-2-107 2-207l9-183 185 3c166 3 189 5 230 25 87 43 114 155 59 244-22 36-85 72-125 73-22 0-34 17-34 50 0 27-58 90-97 106-40 17-89 17-128 0zm118-10c41-17 97-80 97-109 0-33 11-43 50-51 83-15 133-74 134-157 0-60-29-109-79-134-32-15-73-21-210-27-93-5-174-7-181-4-15 6-27 347-13 384 21 57 93 111 147 112 12 0 37-6 55-14z"/><path d="M744 3997l-29-25 3-139c2-76 6-141 10-144 4-4 67-3 141 1 131 6 135 7 158 35 28 32 25 67-7 100-15 15-34 19-82 20l-63 1-7 64c-8 69-25 94-69 105-20 5-34 0-55-18zM3531 2046c-237-167-254-186-249-281 3-57 8-68 82-175 114-166 144-200 194-222s101-19 156 9c17 9 107 70 200 135 93 66 175 122 183 125 7 3 13 11 13 19s-75 120-166 251c-200 286-198 282-204 282-3 0-97-64-209-143zm326-52c62-87 113-162 113-165s-46-37-103-76c-138-96-137-93-96-145l40-52c4-4 58 27 120 69 88 62 115 76 128 68 31-20 20-39-50-88l-147-103c-41-29-76-52-77-50l-14 26c-7 13-26 28-42 34-24 8-29 16-29 42 0 35-22 61-55 68-13 2-19 11-18 23 5 42-8 66-42 81-29 12-35 20-35 44 0 35-31 70-61 70-18 0-20 4-14 31 6 24 2 36-17 56-23 25-23 25-3 39l145 103c69 49 130 88 135 87 6-1 61-74 122-162zm-343-190c17-17 20-33 8-49-8-12-149-125-155-125-13 0-14 47-3 74 15 35 98 116 120 116 8 0 22-7 30-16zm416-140c0-9-7-14-17-12-25 5-28 28-4 28 12 0 21-6 21-16zm-262-76c54-54-105-146-192-112-16 6-23 34-8 34 4 0 41 20 82 45 79 47 98 53 118 33z"/><path d="M3625 2020l-99-73c-19-13-17-18 44-105 35-51 68-92 74-92 16 1 178 113 189 132 8 11-6 38-54 106-34 51-65 92-69 91-3 0-41-27-85-59zm115-9l20-29-77-54-90-61c-11-7-60 59-50 69 20 20 163 112 169 108 4-3 16-18 28-33zm61-88l20-31-87-61c-81-58-87-61-100-44-31 40-37 56-23 64l84 58c39 28 74 49 78 48s17-16 28-34zM888 1948c-25-6-53-27-83-60l-45-50-52 35c-29 19-57 33-61 30s-32-42-62-88l-100-154c-26-39-45-77-42-84s72-56 153-109l267-171 117-77 26 38c94 137 184 287 180 298-3 8-28 27-55 44l-49 31 24 44c84 150-51 320-218 273zm146-42c55-30 78-77 74-147-4-62-32-110-78-134-44-23-204-55-211-43-4 6-15 52-24 102-14 72-15 100-6 131 13 49 54 91 107 110 45 17 84 11 138-19zm-324-57c49-30 50-32 50-77 0-31-7-55-20-72-26-34-25-46 8-67 37-23 52-43 52-70 0-30-6-29-59 7-48 32-71 38-71 16 0-13 101-86 120-86 5 0 10 9 10 20 0 12 10 25 24 32 21 9 32 6 70-16l45-26 25 37c14 20 42 45 62 55l36 17 54-34 55-35-34-53c-109-169-151-229-162-234-7-2-80 38-162 91l-245 156c-54 34-98 68-98 75 0 8 26 53 58 102l91 141c18 28 35 52 37 52l54-31z"/><path d="M900 1883c-31-12-61-48-70-84-21-76 40-149 124-149 30 0 45 7 71 33 56 56 58 111 7 168-21 24-38 32-72 35-25 2-52 1-60-3zM631 1792c-17-27-31-52-31-57 0-12 33-34 51-35 15 0 69 71 69 92 0 10-40 47-51 48-4 0-21-22-38-48zM535 1643c-32-48-31-55 5-76l29-18 26 40c30 48 30 53 7 74-27 25-38 21-67-20zM1027 1572a65 65 0 01-17-24c0-3 18-18 40-33 39-27 41-28 55-9 22 29 18 40-19 63-40 25-39 25-59 3zM630 1523c0-11 23-31 54-50 60-37 71-39 79-19 4 9-15 26-53 50-65 40-80 44-80 19zM962 1474c-26-39-25-40 29-73l37-21 22 37 22 38-33 27c-18 16-38 28-44 28-5 0-21-16-33-36zM815 1463c-32-48-31-55 4-76l30-18 25 38c15 21 26 43 26 49 0 10-42 44-54 44-3 0-17-17-31-37zM896 1376c-15-24-14-26 10-45 40-31 63-35 79-14 22 28 18 39-19 62-43 27-50 26-70-3zM2928 310c-124-83-234-150-243-150-49 0-76-60-40-90 20-17 66-4 72 20 9 32 18 23 38-35 10-30 24-55 31-55 11 0 9 12-6 50-11 28-20 56-20 63 0 12 169 126 199 134 13 3 20-6 29-34 14-47 58-118 107-172 36-40 39-41 101-41 57 0 64 2 64 19 0 30 16 33 28 6 10-22 32-35 32-19 0 6-57 103-66 113-2 2-28-12-59-32-30-21-61-37-70-37-28 0-135 175-135 221 0 10 39 42 94 77 52 34 97 66 100 71 8 13-4 41-18 41-6 0-113-68-238-150zM3847 268c-59-79-120-159-136-178-15-19-36-47-45-62l-18-28h105c58 0 108 4 111 8 2 4 46 21 96 37 90 29 92 29 106 10 8-10 14-27 14-37s7-18 15-18c11 0 12 5 5 26-16 42-13 47 31 41s59-14 44-25c-6-4-16-15-24-25-12-16-9-17 43-17 39 0 56 4 56 13 0 7-28 94-63 192-71 200-59 186-174 200l-59 7-107-144zm196 112c23 0 22-19-5-47-28-30-34-29-47 8-16 45-14 52 12 45 12-3 30-6 40-6zm-64-96c1-16-29-44-115-109-64-47-118-84-121-82-3 3 16 32 41 64l108 137 62 80 12-35c7-18 13-44 13-55zm140-71c3-2-9-18-27-35l-31-32-11 28c-18 50-14 58 28 50 20-4 39-8 41-11z"/></g><g fill="#1fb7d6"><path d="M3330 3944c-9-10-22-13-43-8-28 6-29 5-23-20 5-19 1-28-14-36-27-14-25-28 5-36 21-5 25-12 25-45v-38l-78 6c-51 4-92 1-116-7a251 251 0 01-156-221c0-105 92-209 197-223 145-19 263 86 263 234 0 55 4 68 26 91l26 28-21 27c-13 17-21 41-21 66 0 21-8 50-17 65-16 25-16 26 7 45 20 16 21 21 9 29-7 5-20 9-26 9-7 0-13 9-13 19 0 27-15 34-30 15zm18-70c4-27-26-40-46-20-21 20-8 48 20 44 14-2 24-11 26-24zm0-66c14-14 16-28 2-28-5 0-14 9-20 20-12 22-1 27 18 8zm20-88c24-28 40-55 37-60-13-22-42-7-79 42-30 39-35 52-25 59 21 13 21 13 67-41zM4415 3328c-21-21-136-125-328-298a837 837 0 01-117-118c0-16 289-332 304-332 41 0 358 60 370 69 8 7 20 38 27 69s16 61 21 66c4 6 8 63 8 128 0 136 14 125-130 103-104-16-180-19-180-7 0 36 47 287 57 304 2 4 32-25 65-64 124-143 183-202 186-184 2 9-5 24-16 34-11 9-66 69-123 132-56 63-108 116-113 117-6 1-20-8-31-19zm-9-65l-21-118-23-140-7-40-115-7c-63-4-134-9-158-12-28-4-42-2-40 4 4 14 350 329 361 330 5 0 6-8 3-17zm-91-369c-3-26-15-78-26-118-11-39-22-86-26-103-3-18-9-33-14-33-9 0-249 260-249 271 0 3 66 11 148 16l161 11c10 2 12-8 6-44zM0 2965c0-52 2-95 5-95 2 0 14 32 26 70 20 66 20 72 5 95-29 43-36 29-36-70zM2460 2423l-89-98c-89-95-86-87-55-137 14-24 48-75 75-115 27-39 49-75 49-80-1-4-25 18-53 50-50 54-55 57-82 48l-57-15c-25-6-28-11-28-49 0-72 7-81 73-109 236-100 238-100 277-95 35 4 109 51 262 163 47 34 50 43 36 104l-11 50h-126l-28-60c-31-69-48-80-29-17 19 59 64 179 75 198 7 12 4 22-12 37-25 22-231 162-239 162-3 0-20-17-38-37zm54-68c9-30 19-68 22-85l7-30h-102c-55 0-101 3-101 8 0 10 140 162 150 162 5 0 16-25 24-55zm185-75c-31-16-119-43-124-39-5 6-44 147-45 162 0 4 41-20 91-54 64-43 88-64 78-69zm-40-181l-56-151c-15-49-23-4-23 122 0 125 2 141 18 146l62 23c31 11 46 13 48 6 1-6-20-72-49-146zm-114 107c12-4 20-326 8-325a4876 4876 0 00-223 333c0 3 203-5 215-8zm255-106c-6-11-17-20-25-20s-15 9-15 20c0 15 7 20 25 20 23 0 24-2 15-20zm43-30c6-23-7-34-29-26-12 4-13 10-4 26 14 25 26 26 33 0zm-97-5c6-14-41-85-57-85-10 0 33 99 44 100 4 0 10-7 13-15zm-426-21c0-9-7-14-17-12-25 5-28 28-4 28 12 0 21-6 21-16zm-44-28c14-11 16-17 7-26-14-15-29-7-36 20-6 24 2 25 29 6zm109-12c25-27 32-44 18-44-13 1-63 48-63 60 0 18 20 11 45-16zm419 20c25-10 20-18-31-52l-73-50-25-17 19 30c31 49 70 94 83 94 6 1 18-2 27-5zm-416-89c60-50 57-55-15-24l-72 30c-23 9-23 10-5 24 28 21 34 19 92-30zM859 1004c-9-11-10-20-2-32 8-14 2-24-32-54-53-47-82-103-64-124 16-20 5-28-21-14-24 13-73 5-90-15-6-7-12-28-12-46-2-57 55-92 195-124 22-4 27-10 22-23-12-31-10-36 12-40 17-2 26 4 34 22 11 24 13 25 38 11 14-8 38-19 54-25 34-12 37-47 4-59-37-14-50-37-43-76 4-19 11-35 16-35s35 12 67 26 87 36 123 49c35 13 66 27 68 33 1 5-2 21-8 36-10 27-13 28-68 24-64-3-67 2-42 72 7 19 15 41 16 48 3 11 8 10 26-2 20-14 24-14 40 1 14 12 15 19 7 30-6 7-18 13-25 13-20 0-19 3 31 78 53 79 65 130 42 166-9 13-26 27-37 31-30 10-80-14-91-42l-9-24-24 28c-21 25-32 28-99 31-67 4-76 6-86 28-12 28-23 30-42 8zm343-81c10-9 18-28 18-42 0-28-48-119-74-140-14-12-16-10-16 12 0 13-3 39-6 56-5 24-3 31 9 31 24 0 31 19 17 46-11 19-11 26 0 39 16 19 29 19 52-2zm-111-80c8-32 14-90 13-128 0-81-21-127-66-146-58-24-165 63-227 184-19 38-19 38 3 52 12 8 40 21 64 29l75 29 57 25c54 23 66 16 81-45zM747 729c5-26 10-30 29-26 18 3 31-5 55-35 17-22 29-42 26-44-9-9-120 25-147 44-31 24-38 61-14 79 28 21 44 15 51-18zm452-243c-2-2-33-16-69-29l-102-41c-21-9-38-13-38-8 0 8 176 81 199 81 8 1 12-1 10-3zM3403 910c-51-8-117-50-143-93-34-56-21-228 21-273 58-64 174-83 256-43 38 18 104 88 115 120 2 6 25 15 52 20 41 8 54 6 81-11 35-22 55-13 55 26 0 24 21 37 46 27 13-5 15 4 12 58l-3 64-33 3c-24 2-36 10-44 28-14 31-35 31-60-1-16-21-28-25-69-25-44 0-56 5-105 45-30 25-58 45-62 45l-42 8c-19 4-54 5-77 2zm145-59c91-72 93-73 155-66 55 6 57 5 57-18 0-14 3-38 6-55 6-28 4-32-22-37-85-18-103-26-124-59-30-49-83-93-128-107-92-27-204 30-216 109-19 129-19 150 4 187 51 82 192 107 268 46zm261-101c13-79 14-110 2-110-4 0-11 26-14 58l-13 97c-5 28-3 37 4 30 6-5 16-39 21-75z"/><path d="M3336 820c-54-48-57-57-43-148 11-68 18-84 43-105 28-25 88-42 106-31 5 3 7 13 4 21s1 37 10 64l17 50-32 33c-29 30-31 37-25 74 7 42 20 52 41 31 8-8 13-7 18 1 11 18-5 28-56 35-42 6-49 4-83-25zm40-37c-10-10-19 5-10 18 6 11 8 11 12 0 2-7 1-15-2-18zm-21-49c0-10-8-20-17-22-18-3-26 27-11 42 12 11 28 0 28-20zm-15-100c0-16-16-19-25-4-8 13 4 32 16 25 5-4 9-13 9-21zm75 16c3-5-1-10-10-10s-13 5-10 10c3 6 8 10 10 10s7-4 10-10zm-21-59c3-5-1-15-10-22-13-10-17-10-25 2-5 8-9 17-9 22 0 10 38 9 44-2zM3507 813c-14-13-6-33 13-33 13 0 20 7 20 20 0 19-20 27-33 13zM3540 741c0-12 5-21 10-21 6 0 10 6 10 14s-4 18-10 21c-5 3-10-3-10-14z"/><path d="M3464 739c-8-14 11-33 25-25 6 4 11 11 11 16 0 13-29 20-36 9zM3510 674c-11-12-10-18 3-31 8-9 23-13 31-10 21 8 21 43 0 51s-20 8-34-10zM3482 599c2-6 8-10 13-10s11 4 13 10-4 11-13 11-15-5-13-11z"/></g><g fill="#eeaf15"><path d="M0 4630c0-38 2-70 4-70 16 0 36 14 36 25 0 21 16 26 43 16 19-7 30-24 44-68 18-57 19-58 73-76 30-10 79-19 109-20 46-1 56 2 69 21 12 18 24 22 67 22 75 0 84 14 55 88-12 31-27 74-33 95-6 20-15 37-20 37-10 0 1-63 21-113 8-21 12-41 9-44-4-3-27 0-51 7-47 13-63 36-81 118-6 27-11 32-36 32-17 0-28-3-26-7 2-5 15-42 27-83s27-81 33-88c20-25-7-32-56-14l-48 17-27 87c-23 76-30 88-49 88-29 0-29-10 2-101 25-71 26-99 6-99-11 0-61 149-61 181 0 10-7 19-15 19s-15-4-15-10c0-5-9-10-20-10s-20 5-20 10c0 6-9 10-20 10-18 0-20-7-20-70zM2106 4691c5-5 44-25 86-44l77-35 14 21c20 31 30 67 19 67-6 0-15-13-21-30-5-16-15-30-21-30-20 0-110 42-110 51 0 5-12 9-27 9-17 0-23-4-17-9zM4481 4683c0-10 5-33 12-51 10-28 21-37 67-53 30-10 74-18 98-19 40 0 42 2 42 29 0 25-4 29-38 35-38 6-63 25-75 59-4 9-16 17-27 17-19 0-20-4-14-51 9-67-14-64-35 4-14 47-32 63-30 30zM3968 4380c-5-15-52-25-192-41l-115-13-5-35-25-161c-11-69-21-152-23-184-3-59-3-60 27-66 40-9 228-105 244-124 16-18 41-21 41-5 0 6-16 29-35 50-19 22-35 42-35 47 0 4 15 17 33 29 29 20 37 21 65 11 17-7 34-9 38-5 12 12-5 37-26 37-23 0-25 8-8 47 27 62 69 80 112 48 17-13 22-13 38 2 22 20 22 27 3 47-10 10-26 13-48 10-46-8-65 12-73 74l-7 52h32c26 0 32 4 29 18-3 13-12 16-38 14-30-3-39 2-58 28-27 35-24 42 29 76 40 25 47 46 17 52-9 2-18-2-20-8zm-74-59c3-5-11-23-32-40-42-35-36-46 31-57 20-4 37-10 37-15s-4-9-8-9-30-14-58-31c-49-32-49-32-24-42 168-71 176-87 45-87-35 0-67-5-71-11-3-6 12-30 35-53 22-23 41-45 41-50 0-4-22-5-50-1-44 6-50 5-50-12 0-10 9-33 20-50 27-44 13-43-96 7l-87 40 7 62c4 35 13 101 21 148l22 135 8 50 95 11 102 13c4 0 9-3 12-8z"/><path d="M3747 4243c-10-10-8-41 3-48 20-12 50 6 50 31 0 18-5 24-23 24-13 0-27-3-30-7zM3738 4129c-23-13-23-51 0-72 24-22 35-21 55 1 21 23 22 46 1 66-18 18-32 20-56 5zM3717 3989c-23-13-22-36 3-49 24-13 40-5 40 19 0 27-21 42-43 30zM1335 3719c-105-78-385-377-385-411-1-29 323-348 353-348 23 0 275 244 308 297 11 18 19 43 17 55-2 18 3 24 20 26 13 2 26 9 28 17 6 15-42 115-55 115-4 0-16-9-26-20-40-44-49-5-10 42 14 16 25 37 25 46 0 23-193 212-216 211-11 0-37-14-59-30zm164-89c91-88 93-91 76-110-28-30-39-25-78 38-19 31-56 77-81 102-50 48-56 60-28 60 10 0 60-41 111-90zm-87 3c66-67 188-283 188-334 0-25-23-53-142-174-79-80-148-145-155-145-19 0-333 310-333 328 0 23 348 382 371 382 8 0 40-26 71-57z"/><path d="M1285 3471a522 522 0 00-167-152c-19 0-15-4 17-18 47-21 165-141 165-168 1-13 4-11 13 9 15 34 134 157 161 168 19 7 19 8-9 23-17 8-61 47-98 86-38 39-70 71-72 71s-6-8-10-19zM2412 3407c-5-7-12-28-15-47-4-19-9-45-13-57-5-17-2-23 10-23 8 0 23-11 31-24 19-29 17-92-3-88l-59 9-45 6 7-144c4-79 10-172 14-207l6-63 155-4c85-2 158-1 162 1s-13 44-38 93c-24 49-44 92-44 96 0 5 34 5 76 2 64-6 75-5 71 8-4 8-51 84-107 169-55 85-100 160-100 167 0 6 6 17 14 23 11 9 2 19-49 53-47 32-66 39-73 30zm49-47c10-6 19-20 19-31 0-17 51-101 182-298 33-50 26-65-26-50-38 11-96 12-96 2 0-5 20-45 44-90 30-57 40-85 32-93s-244-16-247-7c-4 8-26 353-23 358 2 3 29 2 60-3s59-7 61-4c6 6-12 91-33 159-19 61-12 77 27 57zM615 2828l-62-85-24-33H424c-64 0-104-4-104-10s27-45 60-87c33-41 60-82 60-89 0-20-50-167-61-178-14-15-11-26 6-26 9 0 58 14 109 32l93 31 48-34a3839 3839 0 01132-89c3 0 3 40-1 90-4 55-3 97 3 109 6 10 47 47 91 82s80 67 80 71-12 10-27 14c-67 14-164 48-173 59-6 7-23 52-39 101-15 48-32 89-37 91s-27-20-49-49zm75-86l25-77 78-26c43-15 82-30 88-36 5-5-19-29-64-61l-73-52 4-90c3-62 1-90-7-90-6 0-40 20-77 45-73 51-92 53-164 25-90-35-95-28-56 79 27 75 27 77-36 153-21 25-38 50-38 55 0 12 70 23 141 23 27 0 49 4 49 8 0 15 92 134 98 127 4-3 18-41 32-83z"/><path d="M602 2645a68 68 0 00-55-25c-45 0-50-8-26-42 16-22 19-37 14-68l-7-41 41 7c30 5 48 2 66-10 33-21 45-13 45 29 0 24 7 39 27 54 29 24 30 22-15 45a91 91 0 00-44 47c-12 35-18 36-46 4zM4460 2199c-41-11-126-48-189-81l-113-61 6-43c7-55 70-181 130-260 41-55 148-154 165-154 34 0 241 185 241 215 0 8-2 15-4 15s-36-33-76-74c-91-94-142-130-172-123-62 16-216 224-254 344l-18 56 25 20c13 10 67 41 120 67 116 59 217 82 312 73 47-4 67-3 67 6 0 6-15 11-32 11-18 0-55 2-83 5-33 3-75-2-125-16zM0 2181c0-5 16-12 35-15 25-5 39-14 45-31 16-42-18-191-59-261-24-40-25-44-12-44 18 0 81 144 92 208 16 88 6 127-33 141-38 13-68 14-68 2z"/><path d="M4525 2160c-75-7-185-48-269-101-44-28-48-33-42-60 8-41 59-141 98-191 51-68 131-148 146-148s172 127 172 138c0 4 16 24 35 44l35 37v278l-37 7c-21 3-45 5-53 4l-85-8zM0 2028c1-111 2-121 15-103 20 25 34 76 42 147 6 56 5 58-21 68l-32 10c-2 0-4-55-4-122zM1797 1547c-53-14-114-57-127-92-5-14-4-52 5-101 7-43 11-82 9-86-3-4-20-8-39-8-46 0-141-38-176-71-21-19-29-36-29-60 0-26 27-161 46-226 8-30 58-48 134-48 135 0 226 56 232 144l3 45 65 16c116 29 170 73 170 134-1 27-27 183-48 285-11 51-47 73-129 77-37 2-89-2-116-9zm191-33c73-48-44-134-183-134-48 0-68 5-89 21-34 27-33 38 9 79 56 55 202 74 263 34zm45-120c16-16-26-64-77-88-94-44-246-32-246 20 0 17 13 18 59 4 43-12 149 11 206 44 45 27 49 29 58 20zm-283-174c49-25 51-49 9-84-49-41-95-56-173-56-81 0-116 17-116 55 0 32 46 65 118 87 77 22 115 22 162-2zm330-35c0-18-82-81-123-94-61-18-105-20-117-5-21 25-4 41 52 48 29 4 78 20 108 35 63 33 80 37 80 16zm-250-209c0-20-54-60-110-82-82-33-220-14-220 31 0 18 12 19 64 4 44-12 111 0 191 37 60 27 75 29 75 10zM1867 588l-106-226c-44-95-81-175-81-178s17-12 38-20c85-35 327-149 330-156 2-5 18-8 35-7 27 0 18 7-63 47-52 26-139 67-192 91-54 24-102 49-108 56-7 8 0 31 22 74 28 54 35 61 54 57 13-4 123-52 246-109l251-115c30-13 34-37 12-66-19-25-19-36-1-36 8 0 44 67 86 157 40 87 77 164 82 170 16 20 1 43-39 60-86 35-469 213-515 238-26 15-26 15-51-37zm316-124l203-95 13-43c12-41 11-48-13-98-22-47-32-57-65-66-21-7-43-12-49-12-15 0-361 160-392 181-14 9-31 34-39 54-12 35-11 42 14 95 27 56 52 74 107 79 10 0 109-42 221-95z"/><path d="M1944 510c-33-13-64-59-64-95 0-44 26-65 160-128 244-115 236-113 286-63 42 42 45 82 8 125-14 17-30 31-35 31-4 0-70 29-146 64-151 71-178 79-209 66zm231-103c38-59-38-160-93-121-28 19-35 59-17 94 28 53 83 67 110 27zM125 361c-12-5-27-16-34-25-8-10-29-16-52-16-37 0-39-2-39-31 0-26 3-29 20-24 11 3 20 5 20 2l36-106c33-96 34-104 20-126C74 1 75 0 123 1c39 0 44 4 72 46 17 26 35 48 41 50 7 2 20-19 30-47 14-40 22-50 41-50 27 0 26-2 12 38-10 29-8 36 21 72 17 22 36 38 40 35 5-3 19-37 31-75 21-64 39-90 39-57 0 16-51 166-63 184-11 17-68-2-95-32-12-15-26-24-30-21-4 2-20 47-36 98s-32 100-36 108c-8 18-37 22-65 11zm76-116c22-72 24-95 5-95-7 0-25-9-39-20l-25-20-17 52-20 66c-5 15 54 84 68 79 5-1 18-30 28-62zM4665 298c-21-16-43-23-74-23-40-1-48-5-88-50-70-79-74-90-55-163 10-38 22-62 30-62 9 0 12 7 9 17-25 87-30 113-23 120 10 11 24-14 44-79 14-48 21-58 40-58 27 0 27 10 1 88l-21 61 27 36c43 55 44 54 90-84 18-52 38-97 44-99 17-6 14 101-4 134-19 37-19 59 1 78 10 11 14 30 12 62l-3 46-30-24zM0 28C0 10 5 0 15 0c19 0 19 11 0 36C1 54 1 54 0 28z"/></g></svg>