<?xml version="1.0" encoding="UTF-8" ?>
<!DOCTYPE svg PUBLIC "-//W3C//DTD SVG 1.1//EN" "http://www.w3.org/Graphics/SVG/1.1/DTD/svg11.dtd">
<svg width="1000pt" height="967pt" viewBox="0 0 1000 967" version="1.1" xmlns="http://www.w3.org/2000/svg">
<g id="#ffffe7ff">
<path fill="#ffffe7" opacity="1.00" d=" M 713.07 0.00 L 734.09 0.00 L 734.44 0.73 C 734.46 3.99 734.42 7.26 734.77 10.51 C 735.80 19.24 735.61 28.07 735.20 36.83 C 734.07 37.35 732.94 37.85 731.81 38.34 C 728.60 32.23 725.15 26.25 721.73 20.26 C 717.70 14.51 715.71 7.65 711.61 1.95 C 711.98 1.46 712.71 0.49 713.07 0.00 Z" />
<path fill="#ffffe7" opacity="1.00" d=" M 0.00 820.87 C 4.48 822.90 7.84 826.96 8.01 832.03 C 5.15 830.53 2.41 828.80 0.00 826.65 L 0.00 820.87 Z" />
<path fill="#ffffe7" opacity="1.00" d=" M 0.00 904.89 C 6.17 907.14 10.79 912.69 12.56 918.93 C 8.28 918.50 4.01 917.66 0.00 916.07 L 0.00 904.89 Z" />
</g>
<g id="#7560a5ff">
<path fill="#7560a5" opacity="1.00" d=" M 266.34 0.00 L 389.09 0.00 C 391.47 4.42 395.65 7.38 399.06 10.94 C 409.46 21.56 420.20 31.83 430.58 42.46 C 434.25 46.14 438.72 48.94 442.16 52.86 C 445.31 56.33 445.17 61.43 444.52 65.77 C 444.00 68.76 440.75 70.07 438.01 69.81 C 433.94 70.15 430.31 68.07 427.19 65.71 C 413.29 55.37 400.77 43.29 386.69 33.18 C 383.01 30.40 379.39 27.35 374.91 25.95 C 377.22 29.61 380.55 32.40 383.71 35.29 C 396.74 47.95 410.60 59.72 423.54 72.47 C 426.17 74.99 428.32 78.30 428.39 82.05 C 428.60 85.18 426.70 88.49 423.55 89.27 C 419.79 90.16 415.62 89.83 412.30 87.73 C 404.90 83.32 399.29 76.61 392.38 71.56 C 383.25 64.78 375.23 56.65 366.10 49.87 C 361.32 46.23 357.17 41.78 352.00 38.65 C 351.25 40.48 348.73 42.50 350.44 44.45 C 355.18 51.90 361.47 58.19 366.56 65.38 C 371.22 71.95 377.10 77.56 381.59 84.26 C 383.97 87.61 384.15 92.01 383.23 95.89 C 381.66 98.25 378.40 97.71 375.99 97.42 C 371.12 96.10 367.11 92.82 363.03 90.00 C 347.43 78.33 337.15 61.22 322.43 48.61 C 315.29 42.98 307.66 38.00 300.26 32.73 C 287.00 24.15 274.71 13.54 266.34 0.00 Z" />
<path fill="#7560a5" opacity="1.00" d=" M 396.35 0.00 L 445.91 0.00 C 447.21 4.85 452.78 5.82 455.97 9.04 C 460.54 13.67 460.87 22.32 455.82 26.72 C 453.21 28.29 449.80 27.81 447.03 26.90 C 431.41 20.33 417.95 9.42 401.98 3.62 C 399.91 2.73 398.18 1.27 396.35 0.00 Z" />
<path fill="#7560a5" opacity="1.00" d=" M 814.70 297.34 C 824.19 293.12 834.87 296.39 843.86 300.38 C 850.78 304.32 857.87 308.06 864.37 312.71 C 870.60 317.73 876.41 323.33 881.47 329.53 C 890.67 341.94 893.87 357.79 893.50 372.99 C 893.54 381.10 891.44 389.09 888.37 396.55 C 885.42 402.86 881.89 408.90 879.37 415.41 C 875.92 423.82 874.11 432.91 874.59 442.00 C 874.37 447.09 875.21 453.99 870.16 457.06 C 861.58 460.12 851.56 453.10 851.34 444.03 C 851.11 438.71 850.95 433.27 852.27 428.06 C 854.90 417.79 856.48 407.28 859.11 397.01 C 859.46 395.37 860.17 390.90 857.23 392.93 C 852.68 397.15 849.01 402.22 844.60 406.59 C 837.80 415.82 830.37 424.62 824.34 434.42 C 813.58 450.08 803.94 466.49 792.85 481.93 C 790.60 484.69 788.41 487.88 784.98 489.25 C 780.35 489.96 775.59 489.76 771.01 488.87 C 770.26 484.66 769.95 480.27 770.83 476.06 C 776.27 467.49 782.18 459.25 787.70 450.71 C 793.46 442.76 797.73 433.89 801.83 425.00 C 802.77 423.66 801.76 422.25 801.25 420.98 C 795.38 426.89 789.10 432.36 782.78 437.78 C 779.30 440.69 775.04 442.60 771.94 445.97 C 768.78 449.46 764.91 452.21 761.88 455.82 C 760.04 458.07 757.50 459.54 755.06 461.04 C 753.39 464.95 749.32 466.64 746.45 469.47 C 744.88 470.86 743.46 472.90 741.08 472.62 C 737.29 472.50 732.91 473.57 729.55 471.47 C 727.35 466.88 728.27 461.39 731.41 457.48 C 735.13 450.40 742.09 446.20 747.46 440.57 C 753.56 433.30 760.85 427.12 766.69 419.62 C 770.37 414.87 775.23 410.90 777.67 405.29 C 775.23 406.50 773.07 408.18 771.13 410.08 C 765.36 415.65 759.14 420.73 753.41 426.35 C 749.89 429.53 746.54 432.91 742.77 435.80 C 734.85 440.35 729.75 448.51 721.55 452.63 C 718.76 453.97 714.46 454.15 712.75 451.08 C 709.89 446.89 712.22 441.71 713.35 437.34 C 719.15 430.84 725.61 424.93 731.43 418.42 C 743.28 406.97 754.64 395.02 765.72 382.82 C 764.52 381.61 763.30 380.42 762.08 379.26 C 748.01 387.55 734.64 396.96 721.09 406.07 C 718.01 408.00 714.78 410.29 711.00 410.31 C 708.58 410.33 705.53 409.03 705.42 406.27 C 704.21 399.51 709.40 394.14 713.44 389.44 C 722.43 380.30 732.64 372.42 743.21 365.19 C 751.59 357.97 760.44 351.05 767.03 342.05 C 769.67 338.36 772.70 334.98 775.44 331.37 C 782.29 322.00 790.78 313.87 800.23 307.15 C 804.91 303.69 808.98 299.13 814.70 297.34 Z" />
<path fill="#7560a5" opacity="1.00" d=" M 297.41 922.54 C 306.07 917.09 316.17 914.61 326.19 913.10 C 335.66 911.89 345.47 912.30 354.54 915.49 C 365.29 919.27 375.76 924.15 387.07 926.11 C 396.26 927.20 405.55 925.62 414.75 926.58 C 417.04 926.85 418.67 928.92 419.25 931.03 C 420.71 937.41 417.46 944.66 411.53 947.55 C 406.44 950.14 400.53 949.74 395.00 949.52 C 381.96 948.40 369.04 945.26 355.91 945.54 C 357.07 949.26 360.54 951.28 363.38 953.62 C 369.41 958.58 376.06 962.69 382.55 967.00 L 265.01 967.00 C 269.42 957.39 273.77 947.62 280.29 939.20 C 285.26 932.97 290.48 926.68 297.41 922.54 Z" />
</g>
<g id="#c0526bff">
<path fill="#c0526b" opacity="1.00" d=" M 681.27 0.00 L 713.07 0.00 C 712.71 0.49 711.98 1.46 711.61 1.95 C 715.71 7.65 717.70 14.51 721.73 20.26 C 725.15 26.25 728.60 32.23 731.81 38.34 C 732.37 39.76 732.92 41.19 733.44 42.63 C 734.07 42.67 735.33 42.77 735.96 42.81 C 736.53 39.24 736.82 35.63 736.76 32.01 C 736.64 23.66 736.82 15.30 736.23 6.97 C 736.12 4.77 735.44 2.67 734.44 0.73 L 734.09 0.00 L 836.67 0.00 C 835.75 15.99 836.94 32.00 836.62 48.00 C 836.88 58.24 834.34 68.24 832.12 78.16 C 830.62 84.56 826.88 90.76 820.95 93.91 C 812.05 99.22 801.70 101.13 791.62 102.78 C 784.81 103.92 777.88 103.54 771.01 103.57 C 763.83 103.62 756.60 102.62 749.81 100.25 C 741.48 97.39 734.37 91.93 727.98 86.02 C 724.32 82.38 720.35 78.92 717.58 74.51 C 713.20 67.10 709.71 59.12 708.05 50.64 C 705.09 41.19 702.76 31.24 696.96 23.03 C 693.90 18.46 689.52 14.95 686.62 10.27 C 684.50 7.02 683.21 3.34 681.27 0.00 Z" />
<path fill="#c0526b" opacity="1.00" d=" M 268.45 174.75 C 271.46 174.24 275.49 173.53 277.56 176.41 C 280.33 179.22 279.69 183.47 279.74 187.05 C 279.83 192.13 276.96 196.92 272.88 199.80 C 269.02 202.51 264.61 204.33 260.18 205.90 C 251.82 208.81 243.49 211.85 235.25 215.09 C 231.96 216.49 227.86 216.99 225.84 220.31 C 238.69 223.37 251.85 224.76 265.00 225.51 C 276.34 225.92 287.71 225.15 299.01 226.30 C 315.11 226.84 331.32 225.57 347.31 227.88 C 350.92 229.53 354.90 232.58 354.78 236.97 C 354.93 240.11 355.28 244.16 351.99 245.89 C 347.36 248.23 341.98 247.32 336.99 247.52 C 321.15 247.70 305.20 246.42 289.46 248.75 C 287.23 249.19 285.18 250.21 283.12 251.10 C 283.55 251.82 283.98 252.55 284.40 253.28 C 293.46 254.72 302.09 257.87 310.91 260.28 C 323.64 263.78 335.82 269.24 348.97 271.16 C 354.09 271.79 359.75 274.11 362.03 279.06 C 362.87 282.40 363.32 286.91 360.34 289.36 C 356.84 291.11 352.75 290.51 348.99 290.41 C 327.30 287.87 306.23 280.44 284.27 280.38 C 284.32 280.87 284.41 281.84 284.46 282.32 C 288.99 283.55 293.48 284.94 298.07 285.99 C 303.37 287.22 308.50 289.57 314.05 289.44 C 313.37 289.79 312.69 290.14 312.02 290.49 C 323.99 292.35 335.60 296.00 347.39 298.77 C 351.28 299.87 356.36 301.44 357.16 306.05 C 357.51 308.82 356.76 311.82 355.17 314.12 C 352.45 317.38 347.73 316.62 343.97 316.59 C 325.36 314.39 307.36 308.59 288.74 306.47 C 288.63 306.23 288.41 305.75 288.30 305.51 C 281.50 305.78 274.41 300.58 267.97 304.34 C 268.50 307.27 270.89 309.33 273.48 310.52 C 277.64 312.45 281.97 313.98 286.10 315.99 C 294.62 320.41 303.85 323.18 312.43 327.50 C 316.19 329.58 321.84 330.39 322.95 335.27 C 324.43 338.48 322.28 342.30 318.93 343.07 C 310.64 344.65 302.45 342.00 294.22 341.51 C 294.75 341.18 295.30 340.86 295.85 340.56 C 291.35 340.35 287.13 338.72 283.00 337.09 C 274.80 334.36 266.88 330.86 258.62 328.34 C 243.31 323.68 227.27 322.73 211.44 321.19 C 202.64 319.48 193.88 317.35 185.38 314.50 C 179.25 311.90 172.16 310.63 167.42 305.57 C 165.10 303.39 163.34 300.67 162.24 297.68 C 157.11 284.79 157.41 270.62 157.67 256.99 C 158.85 245.54 161.57 234.04 167.02 223.83 C 170.04 217.86 175.48 213.75 180.00 209.00 C 185.00 203.69 191.63 200.44 198.02 197.14 C 214.08 189.71 232.86 193.34 248.85 185.76 C 255.22 181.83 261.54 177.69 268.45 174.75 Z" />
<path fill="#c0526b" opacity="1.00" d=" M 232.70 602.03 C 234.16 597.89 239.80 596.69 243.50 598.42 C 247.19 599.78 249.10 603.55 250.13 607.10 C 255.93 626.41 260.46 646.08 266.23 665.41 C 267.34 669.45 267.56 673.80 269.49 677.58 C 270.22 679.21 272.00 679.55 273.55 679.95 C 274.46 678.07 275.76 676.22 275.64 674.04 C 275.59 667.08 275.69 660.09 274.78 653.18 C 274.14 646.47 274.74 639.70 273.94 633.00 C 273.38 627.79 273.33 622.49 274.51 617.36 C 277.27 616.06 280.74 614.40 283.62 616.26 C 287.61 619.69 289.29 624.90 290.55 629.84 C 295.79 645.74 295.44 662.69 298.29 679.04 C 299.18 687.36 302.39 695.19 305.04 703.07 C 306.84 708.64 309.85 713.84 310.62 719.72 C 310.88 719.24 311.14 718.77 311.40 718.30 C 311.93 721.62 312.86 724.86 313.89 728.06 C 316.57 737.14 317.62 746.59 318.39 755.99 C 318.57 761.40 319.02 767.00 317.17 772.19 C 315.94 776.17 312.84 779.13 310.00 782.02 C 305.63 786.57 299.76 789.12 294.60 792.60 C 283.97 799.59 271.50 803.43 259.03 805.42 C 249.00 805.92 238.69 806.14 229.10 802.68 C 216.49 798.16 204.15 790.83 196.77 779.32 C 190.89 770.90 185.96 761.69 178.56 754.44 C 175.07 750.93 171.47 747.46 167.23 744.86 C 163.40 742.36 159.11 740.41 155.90 737.07 C 152.22 733.34 153.08 726.11 157.82 723.67 C 162.19 721.18 167.57 719.63 172.52 721.32 C 178.36 723.20 183.88 726.40 187.98 731.02 C 196.48 739.99 206.14 747.68 215.16 756.08 C 216.31 751.96 213.84 748.18 212.78 744.35 C 211.23 739.14 209.21 734.11 207.27 729.06 C 203.17 715.85 195.80 704.03 190.55 691.30 C 185.01 680.71 180.35 669.69 175.00 659.00 C 172.44 652.60 168.53 646.14 169.51 638.96 C 170.07 635.44 171.97 631.25 175.94 630.70 C 179.47 630.09 184.22 630.06 186.27 633.58 C 189.15 638.38 191.11 643.67 193.59 648.68 C 199.95 660.84 204.93 673.84 213.13 684.96 C 214.59 687.05 216.50 688.80 218.72 690.08 C 218.97 684.25 216.80 678.74 216.09 673.03 C 213.83 657.16 211.40 641.30 207.50 625.73 C 206.07 620.69 205.85 615.36 206.49 610.18 C 207.48 604.61 214.60 601.93 219.30 604.75 C 224.13 608.95 224.86 615.59 226.66 621.36 C 229.43 631.00 232.06 640.68 234.49 650.42 C 235.70 656.12 238.45 661.32 239.93 666.94 C 240.65 669.06 240.99 671.63 243.08 672.91 C 243.42 672.46 244.11 671.56 244.45 671.12 C 242.41 657.84 239.62 644.68 236.58 631.60 C 234.99 621.80 231.18 612.08 232.70 602.03 Z" />
<path fill="#c0526b" opacity="1.00" d=" M 772.11 900.12 C 774.47 897.00 778.83 896.93 782.30 897.82 C 786.00 899.60 786.76 904.23 786.69 907.94 C 786.57 917.96 786.91 928.01 785.70 937.98 C 785.24 947.64 785.40 957.33 785.45 967.00 L 760.64 967.00 C 762.60 951.31 765.79 935.78 767.43 920.05 C 767.82 913.28 767.13 905.49 772.11 900.12 Z" />
<path fill="#c0526b" opacity="1.00" d=" M 799.55 899.76 C 803.75 898.98 809.56 898.48 811.81 903.06 C 815.22 909.89 812.59 917.69 812.64 924.95 C 812.68 938.98 811.17 952.96 811.44 967.00 L 789.42 967.00 C 789.98 958.58 791.38 950.26 792.33 941.88 C 792.89 932.18 794.27 922.54 794.93 912.85 C 795.74 908.41 795.46 902.65 799.55 899.76 Z" />
<path fill="#c0526b" opacity="1.00" d=" M 725.81 919.92 C 726.30 912.76 735.61 909.56 741.36 912.63 C 745.21 917.11 745.03 923.43 746.13 928.94 C 747.89 941.65 749.37 954.39 751.78 967.00 L 729.57 967.00 C 729.13 951.25 724.23 935.73 725.81 919.92 Z" />
<path fill="#c0526b" opacity="1.00" d=" M 832.10 931.08 C 834.94 926.97 843.08 927.62 843.71 933.20 C 845.69 944.36 844.43 955.80 843.29 967.00 L 822.28 967.00 C 823.96 957.17 827.36 947.77 829.72 938.11 C 830.37 935.72 830.85 933.24 832.10 931.08 Z" />
</g>
<g id="#d7a695ff">
<path fill="#d7a695" opacity="1.00" d=" M 734.44 0.73 C 735.44 2.67 736.12 4.77 736.23 6.97 C 736.82 15.30 736.64 23.66 736.76 32.01 C 736.82 35.63 736.53 39.24 735.96 42.81 C 735.33 42.77 734.07 42.67 733.44 42.63 C 732.92 41.19 732.37 39.76 731.81 38.34 C 732.94 37.85 734.07 37.35 735.20 36.83 C 735.61 28.07 735.80 19.24 734.77 10.51 C 734.42 7.26 734.46 3.99 734.44 0.73 Z" />
<path fill="#d7a695" opacity="1.00" d=" M 34.36 34.37 C 37.50 30.63 42.00 26.73 47.27 27.78 C 50.44 28.47 54.73 29.62 55.59 33.24 C 56.44 37.57 55.38 42.16 52.57 45.59 C 48.36 51.35 44.10 57.08 39.74 62.74 C 33.54 70.81 28.35 79.59 23.15 88.32 C 21.70 90.73 20.76 93.39 20.05 96.09 C 24.88 95.37 27.45 90.87 31.08 88.14 C 45.40 76.80 60.57 66.49 73.98 54.03 C 78.46 49.78 84.63 45.76 91.05 47.99 C 95.63 48.65 97.42 54.09 95.97 58.01 C 93.97 63.76 88.96 67.63 84.76 71.76 C 77.61 78.61 70.57 85.58 63.22 92.21 C 56.95 98.63 49.94 104.53 45.10 112.17 C 47.33 111.13 49.54 110.00 51.48 108.45 C 66.41 96.45 80.87 83.86 95.55 71.55 C 99.46 68.15 105.11 65.23 110.23 67.82 C 113.78 70.76 114.54 76.34 112.46 80.37 C 110.07 85.10 105.87 88.52 102.11 92.12 C 92.51 100.49 83.74 109.75 74.20 118.20 C 67.93 125.03 59.75 130.08 54.61 137.91 C 56.39 138.73 58.29 140.46 60.36 139.46 C 64.51 137.87 68.11 135.16 71.91 132.91 C 81.12 127.02 90.77 121.85 99.94 115.89 C 103.50 113.65 107.51 111.20 111.91 111.95 C 113.88 112.21 116.30 113.13 116.54 115.40 C 117.48 120.34 114.09 124.59 111.18 128.17 C 102.24 139.18 89.74 146.25 78.32 154.32 C 67.79 161.54 57.85 169.82 49.74 179.74 C 45.78 184.43 41.71 189.04 37.57 193.57 C 30.09 201.90 20.88 208.41 11.71 214.71 C 8.07 217.27 4.08 219.27 0.00 221.04 L 0.00 78.02 C 2.29 76.34 4.73 74.74 6.34 72.34 C 15.42 59.49 24.32 46.49 34.36 34.37 Z" />
<path fill="#d7a695" opacity="1.00" d=" M 954.81 57.70 C 962.43 55.76 970.19 61.77 971.72 69.18 C 974.06 79.46 969.44 89.41 967.23 99.27 C 965.38 107.61 962.22 115.67 961.24 124.19 C 966.25 122.21 969.15 117.47 972.83 113.82 C 982.69 103.68 991.24 92.39 1000.00 81.32 L 1000.00 220.19 C 997.13 221.12 994.09 221.76 991.08 221.24 C 978.38 219.32 967.21 212.40 957.00 204.98 C 948.14 198.27 940.06 190.21 934.39 180.60 C 928.28 170.15 926.99 157.84 926.64 145.99 C 927.20 138.41 927.52 130.60 930.48 123.49 C 935.16 111.79 943.30 101.62 946.49 89.30 C 949.00 81.09 947.97 72.34 950.05 64.06 C 950.73 61.48 951.75 58.23 954.81 57.70 Z" />
<path fill="#d7a695" opacity="1.00" d=" M 721.55 452.63 C 729.75 448.51 734.85 440.35 742.77 435.80 C 739.70 440.64 735.07 444.11 730.84 447.86 C 728.11 450.14 725.54 452.69 722.38 454.40 C 718.59 456.48 713.64 455.29 710.63 452.38 C 706.59 448.02 707.95 439.98 713.35 437.34 C 712.22 441.71 709.89 446.89 712.75 451.08 C 714.46 454.15 718.76 453.97 721.55 452.63 Z" />
<path fill="#d7a695" opacity="1.00" d=" M 67.91 467.57 C 69.08 462.37 69.72 457.07 70.70 451.84 C 70.53 458.48 69.67 465.07 68.57 471.62 C 67.52 471.66 66.47 471.71 65.42 471.77 C 65.41 466.03 64.67 460.26 65.51 454.56 C 66.25 458.92 64.42 464.04 67.91 467.57 Z" />
<path fill="#d7a695" opacity="1.00" d=" M 823.11 590.12 C 825.94 587.45 830.24 587.04 833.85 588.08 C 837.40 589.28 837.66 593.74 837.61 596.91 C 836.88 604.79 833.81 612.21 831.74 619.81 C 827.27 635.13 820.63 650.02 819.33 666.09 C 820.96 665.19 822.37 663.91 822.94 662.08 C 829.63 645.25 835.84 628.23 842.23 611.28 C 843.86 607.05 845.16 602.61 847.82 598.87 C 851.13 593.67 859.79 595.34 862.37 600.47 C 863.06 604.30 862.95 608.33 861.97 612.12 C 855.90 631.59 849.63 650.99 843.48 670.44 C 842.37 674.18 840.10 677.76 840.34 681.78 C 840.53 683.32 842.54 685.49 844.13 684.16 C 848.85 680.56 850.81 674.72 853.86 669.84 C 860.48 659.03 865.97 647.53 872.87 636.90 C 874.85 633.40 879.10 632.49 882.80 633.29 C 885.27 633.41 885.14 636.57 885.52 638.40 C 886.06 649.86 881.41 660.67 876.90 670.95 C 870.58 684.44 862.76 697.37 858.92 711.88 C 854.45 727.36 853.19 743.76 846.53 758.58 C 842.90 766.41 839.59 774.52 834.58 781.59 C 829.60 788.32 820.75 789.58 813.03 790.53 C 803.76 790.61 794.39 791.15 785.24 789.39 C 777.39 788.05 769.83 785.41 762.42 782.57 C 752.06 778.53 743.78 770.55 737.34 761.68 C 731.49 753.24 726.87 743.69 725.59 733.41 C 724.12 723.98 724.76 714.44 724.63 704.95 C 724.61 700.46 723.31 696.12 722.06 691.86 C 719.59 683.67 714.31 676.50 712.87 667.98 C 712.32 664.44 714.10 659.79 718.17 659.52 C 722.89 659.20 728.33 658.46 732.29 661.69 C 738.96 666.30 741.49 674.50 742.84 682.11 C 745.09 692.71 748.75 702.95 750.77 713.60 C 750.93 715.23 752.25 716.22 753.51 717.08 C 758.03 703.67 761.06 689.79 763.04 675.80 C 765.88 661.93 766.39 647.75 768.68 633.80 C 769.46 628.87 769.15 623.84 770.15 618.94 C 771.65 611.29 771.66 603.17 775.09 596.02 C 777.76 590.54 785.23 589.40 790.40 591.62 C 793.54 593.51 793.45 597.77 793.45 601.00 C 792.09 618.03 788.69 634.89 788.53 652.01 C 788.60 654.85 788.25 659.28 791.89 660.03 C 793.92 658.10 794.79 655.37 795.84 652.87 C 799.33 644.02 803.33 635.39 806.78 626.53 C 811.03 618.40 814.06 609.73 817.14 601.11 C 818.52 597.18 819.70 592.83 823.11 590.12 Z" />
</g>
<g id="#63a460ff">
<path fill="#63a460" opacity="1.00" d=" M 588.36 129.37 C 592.06 124.65 596.62 120.44 602.10 117.90 C 606.60 116.99 613.39 116.81 615.25 122.08 C 616.09 125.91 615.82 130.24 613.34 133.44 C 607.65 141.29 601.21 148.55 594.96 155.95 C 588.59 162.50 583.85 170.34 578.98 178.00 C 577.74 179.75 577.43 181.88 577.27 183.96 C 578.55 183.43 579.90 182.93 580.96 181.99 C 586.48 177.06 592.59 172.85 598.91 169.01 C 607.88 163.41 616.34 157.04 625.12 151.15 C 630.53 147.49 635.17 142.46 641.48 140.28 C 645.75 138.67 651.23 139.34 654.19 143.08 C 654.91 146.33 655.28 150.32 652.95 153.04 C 642.74 164.23 630.65 173.44 618.99 183.03 C 612.81 189.45 604.98 194.33 600.03 201.89 C 604.31 200.68 607.66 197.63 611.20 195.10 C 616.95 190.55 622.88 186.26 628.69 181.79 C 635.34 176.72 642.68 172.56 649.02 167.06 C 653.18 163.84 657.51 160.06 662.99 159.61 C 666.05 159.25 669.31 161.03 670.20 164.08 C 671.05 167.83 671.03 172.22 668.37 175.28 C 663.19 181.52 656.92 186.81 650.21 191.34 C 643.68 196.42 637.50 201.93 631.06 207.13 C 624.82 212.93 617.68 217.65 611.44 223.44 C 610.15 224.65 608.33 226.43 609.70 228.27 C 611.70 230.49 614.89 229.41 617.10 228.14 C 627.53 222.46 637.97 216.77 648.70 211.69 C 653.51 209.49 657.83 206.12 663.06 204.91 C 665.50 204.29 667.93 205.32 670.34 205.71 C 671.07 208.00 672.08 210.48 671.16 212.89 C 669.05 218.37 664.41 222.32 660.20 226.20 C 650.16 234.14 638.70 240.01 628.03 247.04 C 613.37 255.53 601.97 268.29 589.95 279.99 C 584.39 286.26 576.90 290.25 570.36 295.37 C 565.76 299.06 560.26 301.30 555.19 304.26 C 550.65 306.96 545.12 307.67 539.94 307.14 C 527.71 304.29 517.72 296.30 507.58 289.37 C 500.87 283.79 495.03 277.21 489.99 270.10 C 484.62 262.05 481.35 252.59 480.47 242.98 C 480.44 232.41 479.50 221.56 482.55 211.29 C 483.93 206.32 487.20 202.26 489.55 197.76 C 493.56 189.64 498.90 182.27 503.06 174.23 C 507.59 164.94 505.18 153.91 509.62 144.61 C 511.70 140.08 517.38 140.88 521.37 141.77 C 524.82 143.82 527.87 146.91 529.07 150.83 C 531.10 156.78 530.12 163.22 528.77 169.20 C 526.22 175.43 523.67 181.70 522.05 188.26 C 520.57 194.28 517.89 199.95 516.53 206.00 C 516.88 206.25 517.57 206.75 517.92 207.00 C 530.97 197.15 542.13 185.10 552.68 172.69 C 564.39 158.10 576.13 143.53 588.36 129.37 Z" />
<path fill="#63a460" opacity="1.00" d=" M 51.54 396.51 C 53.97 393.26 58.64 392.78 62.29 393.83 C 65.25 394.79 66.25 398.12 66.45 400.92 C 66.83 406.93 66.50 412.97 66.54 418.99 C 66.74 430.87 64.69 442.68 65.51 454.56 C 64.67 460.26 65.41 466.03 65.42 471.77 C 66.47 471.71 67.52 471.66 68.57 471.62 C 69.67 465.07 70.53 458.48 70.70 451.84 C 72.23 437.56 73.94 423.30 75.15 408.99 C 75.62 405.25 75.30 400.97 77.98 397.96 C 80.30 394.95 84.60 395.03 87.93 395.92 C 91.35 396.97 93.15 400.56 93.36 403.94 C 94.08 415.97 92.48 427.96 92.23 439.98 C 91.26 448.96 91.85 458.02 90.81 466.99 C 90.51 471.33 90.25 475.70 90.53 480.04 C 90.49 482.13 92.18 484.78 94.48 483.46 C 99.04 479.49 98.74 472.93 100.69 467.64 C 103.23 460.86 103.84 453.54 106.44 446.78 C 108.58 440.89 108.68 434.37 111.61 428.76 C 112.97 426.03 115.81 423.91 118.99 424.53 C 122.92 424.50 124.30 428.87 124.51 432.08 C 125.01 439.99 124.93 447.95 124.39 455.85 C 123.46 462.16 121.87 468.37 120.63 474.63 C 114.98 494.57 116.25 515.55 117.32 536.00 C 117.41 541.03 116.71 546.02 116.58 551.05 C 116.39 558.90 113.77 566.38 112.29 574.03 C 111.21 579.65 108.42 585.27 103.62 588.59 C 95.67 593.48 86.83 597.44 77.32 597.51 C 77.77 597.82 78.22 598.14 78.66 598.47 C 75.42 598.75 72.19 599.21 68.95 599.61 C 58.57 601.11 47.99 600.32 37.63 598.97 C 28.07 596.41 18.96 591.89 11.18 585.76 C 7.37 582.90 4.76 578.35 0.00 576.91 L 0.00 515.41 C 1.88 517.42 3.81 519.45 5.02 521.97 C 7.71 527.21 10.84 532.21 13.53 537.46 C 14.05 537.55 15.09 537.73 15.61 537.82 C 17.45 525.58 15.70 513.26 15.21 501.00 C 14.72 492.06 13.21 483.24 11.87 474.40 C 10.01 457.23 6.19 440.29 5.52 423.00 C 5.55 418.58 5.51 413.30 8.98 410.05 C 13.23 406.85 21.67 405.90 23.78 412.01 C 26.36 419.82 26.69 428.13 27.74 436.24 C 29.63 449.54 30.69 463.29 36.55 475.60 C 37.50 475.63 38.46 475.67 39.42 475.71 C 40.54 461.04 43.24 446.56 45.57 432.04 C 46.54 423.36 47.43 414.67 48.20 405.97 C 48.47 402.59 49.31 399.14 51.54 396.51 Z" />
<path fill="#63a460" opacity="1.00" d=" M 968.50 490.78 C 975.78 488.42 984.79 490.11 989.76 496.22 C 993.65 501.28 996.19 507.24 1000.00 512.37 L 1000.00 574.50 C 998.01 571.23 995.86 568.05 994.29 564.56 C 988.05 552.37 987.01 538.31 980.92 526.07 C 978.05 520.53 974.12 515.64 969.95 511.04 C 966.89 507.65 963.83 503.74 963.50 499.01 C 963.12 495.60 965.06 491.75 968.50 490.78 Z" />
<path fill="#63a460" opacity="1.00" d=" M 540.19 731.44 C 543.39 731.56 546.82 730.90 549.83 732.33 C 555.32 734.86 560.18 738.50 565.35 741.59 C 571.27 745.16 576.13 750.14 581.04 754.94 C 588.66 761.35 595.58 768.62 603.90 774.18 C 616.23 782.99 630.38 788.76 643.01 797.08 C 648.37 800.95 653.54 805.12 658.05 809.97 C 662.37 814.61 667.71 818.55 670.48 824.43 C 671.89 827.05 671.59 830.12 671.66 833.00 C 671.57 837.58 671.81 842.25 670.50 846.69 C 666.48 861.71 660.95 876.84 650.88 888.93 C 645.95 894.33 640.83 899.82 634.19 903.12 C 617.98 911.63 598.38 915.42 580.64 909.70 C 577.93 908.92 575.11 908.59 572.50 907.53 C 567.28 905.31 561.57 904.75 556.04 903.79 C 545.04 902.13 534.17 907.36 523.21 905.02 C 521.83 904.50 520.51 903.72 519.61 902.55 C 519.16 897.87 518.57 892.52 521.62 888.54 C 525.24 883.36 531.91 881.20 538.01 881.37 C 552.75 881.40 567.49 881.74 582.24 881.64 C 581.14 877.77 577.10 876.13 574.03 874.09 C 561.69 867.66 549.67 860.57 536.88 855.04 C 529.70 850.98 521.64 848.98 514.16 845.61 C 504.82 841.43 495.09 838.08 486.18 832.99 C 481.22 830.17 474.66 828.79 471.89 823.29 C 470.95 820.31 471.20 817.08 471.37 814.01 C 471.35 811.15 474.25 809.11 476.96 809.34 C 483.88 808.57 490.52 811.18 496.46 814.47 C 508.91 819.89 521.21 825.87 534.39 829.34 C 537.08 829.79 540.21 831.19 542.52 828.99 C 539.62 825.37 535.36 823.20 531.96 820.11 C 524.03 813.32 515.45 807.31 507.77 800.24 C 503.04 796.30 498.03 792.73 493.38 788.70 C 489.10 785.10 482.55 782.97 481.45 776.77 C 481.14 772.95 480.09 766.95 484.99 765.66 C 493.77 763.59 500.62 770.28 507.47 774.50 C 513.62 777.92 518.95 782.59 525.11 786.01 C 534.54 791.90 543.37 799.16 553.99 802.86 C 551.94 799.05 548.05 796.92 544.83 794.25 C 540.22 790.89 536.16 786.85 531.48 783.58 C 524.35 778.78 517.78 773.20 510.69 768.32 C 505.56 764.56 499.42 761.36 496.54 755.39 C 494.21 751.08 496.89 744.56 501.96 743.94 C 506.77 742.69 511.50 745.10 515.49 747.56 C 531.84 758.14 547.65 769.52 564.02 780.07 C 567.44 782.17 570.39 784.90 573.66 787.22 C 575.18 788.34 576.66 786.69 577.49 785.52 C 578.00 783.54 577.38 781.44 575.91 780.05 C 564.67 768.33 552.81 757.21 541.68 745.40 C 537.97 741.79 537.32 735.74 540.19 731.44 Z" />
</g>
<g id="#fbdb4bff">
<path fill="#fbdb4b" opacity="1.00" d=" M 469.72 418.74 C 473.11 413.04 482.81 411.60 487.06 416.92 C 489.17 424.35 486.51 432.32 482.96 438.91 C 480.62 442.92 479.66 447.51 477.99 451.80 C 475.45 458.27 474.80 465.24 473.19 471.96 C 472.26 475.58 472.15 479.42 473.32 483.00 C 480.19 480.49 483.75 473.41 487.69 467.72 C 492.21 461.81 495.77 455.25 500.21 449.28 C 502.90 445.61 502.98 440.59 506.27 437.29 C 510.75 432.83 512.04 426.05 517.16 422.15 C 520.03 419.55 524.24 419.01 527.90 419.88 C 532.55 421.95 533.11 428.15 531.26 432.35 C 528.12 439.65 524.84 446.94 520.78 453.79 C 518.91 457.11 516.58 460.74 517.29 464.73 C 519.67 466.08 521.30 463.03 522.30 461.33 C 525.17 455.70 529.66 451.08 532.29 445.31 C 534.22 441.14 537.90 438.22 540.89 434.84 C 543.86 431.42 549.56 431.36 553.09 433.90 C 555.46 436.66 554.51 440.69 554.70 444.04 C 554.97 449.94 551.13 454.69 548.50 459.61 C 543.90 468.80 539.20 477.98 533.50 486.54 C 530.45 491.28 528.63 496.71 525.24 501.25 C 523.04 504.09 521.57 508.07 523.61 511.42 C 526.49 512.64 528.89 509.55 530.79 507.80 C 534.66 503.01 539.01 498.65 542.98 493.95 C 547.41 488.07 552.04 482.35 556.62 476.60 C 559.12 473.34 563.60 472.58 567.39 473.65 C 569.61 474.43 570.82 476.80 570.70 479.08 C 571.13 488.64 565.49 496.88 560.58 504.59 C 555.62 511.89 550.58 519.16 544.95 525.98 C 541.58 530.05 539.21 534.82 535.94 538.96 C 534.13 541.25 532.44 543.66 531.36 546.39 C 528.48 553.68 524.70 560.57 521.85 567.88 C 517.35 579.51 511.22 590.60 503.10 600.12 C 498.58 605.77 494.07 612.40 486.76 614.56 C 472.05 617.32 457.17 613.47 443.28 608.74 C 429.92 603.38 416.49 595.93 408.41 583.58 C 400.33 571.42 395.37 556.68 396.64 541.97 C 397.13 533.50 400.56 525.50 400.70 517.00 C 401.75 509.39 402.10 501.59 400.62 494.02 C 399.43 487.40 397.18 480.81 397.61 474.02 C 399.56 470.40 404.36 470.01 407.99 470.66 C 412.40 472.21 417.01 474.90 418.61 479.57 C 421.39 486.69 421.71 494.46 422.44 501.98 C 422.09 509.23 423.21 516.39 423.72 523.59 C 424.10 525.94 426.66 528.88 429.14 527.11 C 432.22 523.97 433.17 519.39 435.67 515.82 C 440.33 508.68 441.35 499.97 445.45 492.57 C 448.31 487.44 448.42 481.37 450.79 476.04 C 452.84 471.34 454.25 466.40 455.11 461.34 C 456.09 455.60 459.13 450.52 460.67 444.96 C 462.60 435.93 464.69 426.62 469.72 418.74 Z" />
<path fill="#fbdb4b" opacity="1.00" d=" M 18.93 766.95 C 20.66 766.01 22.81 765.35 24.71 766.17 C 29.26 767.88 32.95 771.29 36.06 774.94 C 43.46 783.96 49.11 794.23 54.49 804.53 C 60.11 814.00 65.54 823.78 73.18 831.81 C 84.07 843.97 96.36 855.13 104.56 869.43 C 109.52 878.31 116.33 887.32 115.42 898.06 C 114.14 908.01 108.16 916.49 102.46 924.46 C 96.23 933.44 87.87 940.71 79.03 947.04 C 69.80 953.06 59.14 957.55 47.97 957.71 C 38.90 957.92 29.63 957.79 20.86 955.17 C 13.44 953.01 7.03 948.53 0.00 945.47 L 0.00 916.07 C 4.01 917.66 8.28 918.50 12.56 918.93 C 10.79 912.69 6.17 907.14 0.00 904.89 L 0.00 826.65 C 2.41 828.80 5.15 830.53 8.01 832.03 C 7.84 826.96 4.48 822.90 0.00 820.87 L 0.00 784.56 C 2.40 786.97 4.97 789.23 7.12 791.89 C 15.36 802.33 23.77 812.66 31.60 823.42 C 33.05 825.23 34.61 827.26 36.97 827.89 C 38.69 827.46 40.16 825.91 39.77 824.05 C 39.08 819.73 36.70 815.94 34.82 812.08 C 30.45 804.26 27.21 795.89 22.95 788.01 C 20.62 783.18 17.43 778.43 17.24 772.91 C 17.25 770.85 17.25 768.41 18.93 766.95 Z" />
<path fill="#fbdb4b" opacity="1.00" d=" M 972.58 772.96 C 972.78 769.78 975.17 766.80 978.08 765.57 C 982.38 765.21 986.33 767.86 989.18 770.87 C 992.62 774.92 995.90 779.15 1000.00 782.60 L 1000.00 815.67 C 996.85 812.44 993.88 809.00 991.91 804.92 C 989.11 799.59 985.35 794.86 982.08 789.82 C 978.55 784.45 973.58 779.57 972.58 772.96 Z" />
<path fill="#fbdb4b" opacity="1.00" d=" M 953.41 782.42 C 955.30 780.17 958.59 780.12 961.25 780.65 C 964.68 781.41 966.94 784.35 969.13 786.87 C 973.62 792.45 978.90 797.49 982.19 803.95 C 985.03 809.50 989.50 813.92 993.12 818.94 C 995.11 821.69 997.60 824.02 1000.00 826.41 L 1000.00 900.54 C 996.79 897.91 993.53 895.33 990.74 892.26 C 985.97 887.00 980.08 882.94 975.16 877.85 C 970.85 873.44 965.60 870.11 961.27 865.73 C 955.93 860.36 949.62 856.09 944.23 850.77 C 939.20 845.81 933.05 841.76 929.53 835.48 C 927.26 831.70 926.86 826.74 928.84 822.78 C 931.00 818.84 936.47 817.70 940.32 819.72 C 944.60 821.86 948.03 825.29 951.68 828.32 C 959.36 834.60 966.20 841.85 974.05 847.93 C 979.42 851.85 984.69 856.39 991.31 858.00 C 990.12 852.24 985.93 847.91 983.01 843.00 C 976.73 832.68 970.02 822.63 963.65 812.37 C 959.77 805.99 953.88 800.79 951.47 793.58 C 950.03 789.85 950.92 785.47 953.41 782.42 Z" />
<path fill="#fbdb4b" opacity="1.00" d=" M 953.94 908.98 C 959.40 905.51 966.36 904.41 972.58 906.36 C 981.84 909.02 990.69 912.96 1000.00 915.51 L 1000.00 944.27 C 993.98 940.48 988.12 936.36 981.70 933.28 C 973.14 929.13 963.32 929.53 954.40 926.56 C 951.46 925.66 948.70 923.24 948.61 919.99 C 948.59 915.80 950.66 911.58 953.94 908.98 Z" />
</g>
</svg>
