<svg xmlns="http://www.w3.org/2000/svg" width="450" height="450" viewBox="0 0 4500 4500" preserveAspectRatio="xMidYMid meet"  fill="#c9b1a1" xmlns:v="https://vecta.io/nano"><path d="M115 4491c11-20 122-53 192-58 80-6 146 11 178 47 24 26 17 25-39-6-37-21-59-26-112-25-65 0-180 26-190 42-3 5-12 9-20 9s-13-4-9-9zm420-34c-44-60-97-79-203-72-101 7-212 35-281 70-28 14-51 21-51 15 0-17 79-51 178-76 115-29 246-33 298-8 33 16 104 88 104 106 0 17-16 5-45-35zm99 21c-13-41-7-127 11-154 9-14 31-32 48-40 30-13 28-14-48-9-223 13-267 17-350 30-128 20-295 30-295 18 0-6 47-13 107-16s151-13 203-21 187-20 298-26c271-14 391-38 434-87 9-10 31-52 49-93 40-91 96-161 157-197 36-21 61-28 126-31 81-4 101-1 261 47l110 31c62 15 123 59 145 106 35 72 21 205-34 312-29 56-121 160-132 149-4-4 2-15 15-23 42-30 110-134 131-201 28-92 27-199-3-243-12-19-36-42-52-51-32-19-227-81-334-105-120-28-237 6-303 87-33 42-88 146-88 168 0 21-61 79-99 94-21 9-78 23-126 31-101 18-118 26-54 26 54 1 122 15 172 37 29 13 39 24 47 55 11 38 6 92-10 118-14 23-23 4-10-21 18-32 7-109-19-130-21-17-170-49-229-49-90 0-129 49-119 150 7 62 3 76-9 38zm121-5c7-30 18-40 54-50 27-7 61 25 61 58 0 30-18 22-22-8-5-48-78-40-78 8 0 11-5 19-11 19-7 0-9-10-4-27zm413-150c3-205 18-291 64-354 40-55 85-73 170-67 57 5 86 15 202 72 155 76 190 102 207 153 13 39 7 129-13 195-20 68-135 178-185 178-10 0 1-11 27-26 109-64 150-131 157-257 7-121 0-129-189-221-163-79-215-93-281-75-103 27-142 124-143 354-1 192-2 225-11 225-5 0-7-80-5-177zm655 146c24-19 55-64 83-118l65-123c15-27 22-62 26-140 6-102 5-104-22-136-17-21-60-48-109-71-95-44-136-85-136-137 0-43 29-102 76-153 66-74 139-89 223-46 60 30 103 80 132 154 12 31 27 62 32 69 27 35 132-4 208-77 39-38 51-59 69-121 30-99 44-124 100-184 57-61 63-73 130-251 45-120 52-147 48-192-6-72-30-94-144-139-112-43-164-86-219-180-75-127-92-177-159-469-20-84-54-138-166-259-165-178-261-246-400-282-52-13-86-15-170-9-58 4-136 8-173 9-63 1-71 3-92 30-38 48-45 130-20 246 11 52 12 78 2 132-11 69-11 73 24 253 12 63 3 153-22 219-10 28-52 95-92 148-49 64-87 128-111 186-41 98-81 154-127 178-49 25-224 64-287 64-48 0-62-4-80-23-20-21-22-35-25-153l-2-129-43-59c-49-70-66-122-56-180 10-64 40-113 106-175 69-65 86-94 123-215 35-116 40-175 22-261l-41-193c-14-68-26-154-26-192 0-207 121-421 237-420 39 1 83 27 145 86 59 56 105 84 140 84 31 0 111-44 194-105 141-105 158-116 228-136 142-41 183-70 222-154 48-103 24-190-83-292-89-84-143-119-225-144-81-25-92-37-85-90 9-69 44-95 173-129 103-28 151-57 216-130 29-33 58-60 65-60 21 0-127 150-167 170-19 9-64 24-100 33-134 33-170 60-170 128 0 40 0 40 108 74 59 19 205 132 255 198 30 40 57 106 57 141 0 52-33 129-73 173-49 53-67 63-177 93-75 21-97 34-195 108-135 103-190 132-248 132-46 0-98-30-142-80-93-106-189-105-264 4-101 147-116 292-58 561l42 201c7 47-11 139-53 259-24 71-36 89-108 166-91 95-109 133-102 215 4 41 12 65 36 97 65 85 67 92 67 224 0 139 6 151 71 160 46 6 235-37 293-67 49-24 64-46 134-190 31-63 81-146 112-185 70-89 86-122 99-212 9-63 7-90-13-197-20-109-21-132-10-185 10-51 9-75-6-151-24-122-13-191 38-247 18-20 31-23 91-23 39 0 108-5 154-12 146-20 293 23 427 125 104 79 285 283 321 362 12 28 32 97 43 155 46 244 150 454 254 514 23 14 69 35 102 47 118 43 163 100 151 191-6 42-63 203-114 322-9 22-43 67-74 100-50 53-61 72-85 150-21 68-38 100-69 135-43 48-150 111-189 111-37 0-69-34-89-94-33-97-118-167-202-169-120-1-248 193-176 266 12 12 65 44 119 72 128 66 137 82 128 220-6 86-11 108-37 155-17 30-46 84-65 120-37 71-88 130-112 130-9 0 0-13 22-31zm481 21c72-13 398-16 418-5 11 7-62 11-225 12-161 1-226-2-193-7zm543-4c-3-8-18-23-34-33-25-16-56-18-363-18-320 0-337-1-370-20-30-18-35-27-38-62-2-23 4-58 13-80 9-21 20-77 24-124 14-153 47-189 300-315 137-68 154-82 195-164 38-75 45-81 156-149 53-33 120-81 148-106 70-63 71-96 7-167-54-60-57-87-24-218 27-106 18-150-44-217-45-49-82-71-167-98-96-31-182-104-261-220-71-104-83-150-85-323-2-177-4-180-93-243-37-26-83-74-126-130-78-103-114-135-207-184-110-58-226-94-325-101-231-15-313-59-313-169 0-65 38-126 122-196 74-62 120-85 183-94 108-15 179-64 240-165 60-100 90-230 69-307-4-13-35-41-74-67-82-54-110-88-110-132 0-26 8-38 43-65 52-41 52-42 77-109 40-109 65-139 116-140 83-1 99 127 28 230-19 28-39 71-43 96-29 153 81 233 340 249 143 9 185 19 222 56 26 27 29 35 24 77-7 65-26 78-149 106-46 10-84 58-102 132-9 36-26 84-36 105-54 105-87 247-76 324 9 58 37 79 129 100 124 28 155 62 172 185 14 105 34 129 104 130 36 0 48-5 75-33 17-18 39-47 48-65 24-45 95-77 152-68 83 14 96 58 45 159-36 70-42 145-19 252 39 188 124 263 287 253 89-5 154-33 215-92 47-45 68-86 108-216 18-61 50-135 75-177 60-99 69-135 49-204-8-30-18-81-21-114-7-79 10-100 117-144 75-31 85-39 118-89 26-38 58-69 107-101 81-54 104-86 90-127-24-65-90-57-176 22-32 30-67 54-78 54-51 0-93-89-112-235-15-117-2-203 39-254 26-32 35-36 83-39 50-3 61 1 122 40 36 24 101 63 142 87 103 59 124 55 202-40 61-74 99-98 198-124 68-17 115-19 115-5 0 6-18 10-39 10s-70 9-107 21c-63 19-76 27-150 104-44 46-92 87-106 90-34 9-84-16-281-138-95-58-161-40-192 54-30 90-8 302 39 371 33 50 60 48 120-10 60-59 107-77 154-61 19 6 34 21 40 37 10 29 11 28 31-46 13-48 72-113 136-150 22-13 67-48 100-78 86-80 141-95 189-51 30 26 66 91 66 115-1 9-12-5-27-33-38-75-50-85-99-85-38 0-50 6-111 61-37 33-88 73-113 89-81 52-90 60-111 101-29 58-34 123-14 198 29 114 47 138 129 176 86 41 100 55 116 115 19 78 18 76 56 39 21-20 64-89 104-169 38-74 69-127 69-117 1 21-110 238-145 284-14 18-34 38-46 44-28 15-43-5-53-68-8-56-36-85-104-110-29-10-63-30-77-44-33-34-74-147-74-202v-42l-23 40c-14 24-50 59-93 89-42 29-83 68-99 93-35 55-64 78-128 99-114 37-131 72-98 194 33 120 27 158-48 275-17 28-46 95-62 150-45 146-59 174-114 230-69 71-141 99-255 99-97 0-130-13-190-74-43-44-74-117-91-215s-8-169 30-247c46-94 29-128-64-128-54 0-78 17-122 84-33 51-48 64-80 74-55 16-73 15-110-7-26-16-33-29-43-78-30-146-32-153-61-178-17-13-49-30-72-36-180-48-180-48-173-194 4-100 9-118 69-260 15-33 33-87 42-119 22-79 54-109 146-136 41-12 80-29 87-38 6-9 12-35 12-57 0-74-38-91-235-105-138-9-205-26-269-69-66-44-81-72-81-154 0-68 3-77 43-143 34-58 42-79 42-120 0-126-93-123-140 4-11 31-26 69-32 85-6 15-33 43-60 63-43 32-48 40-44 66 6 38 37 71 101 108 70 40 85 59 92 117 13 112-58 285-152 371-54 50-124 82-179 82-60 1-192 90-250 169-44 60-54 104-33 153 27 64 96 91 264 103 112 7 219 38 339 95 97 47 159 100 239 208 41 54 80 93 123 122 35 24 69 55 77 70 10 20 14 66 13 171-1 164 13 219 79 319 48 72 153 177 195 194l106 41c51 19 86 40 118 72 78 77 91 142 54 275-28 102-26 112 25 167 103 110 72 162-196 331-71 44-78 52-114 124-41 84-61 102-162 148-107 48-230 119-264 152-41 40-57 82-63 168-2 40-12 89-20 109-39 92-23 140 51 156 42 9 229 10 490 3 161-5 173-4 199 15 31 24 61 65 46 65-5 0-12-6-15-14z"/><path d="M3341 4494c-2-19-51-62-79-68-67-16-231-70-272-89-53-26-91-93-98-174-6-76 3-102 43-119 76-31 109-9 133 90 16 66 19 71 61 93 74 39 178 27 224-25 38-42 32-111-23-267-47-130-35-295 27-388 54-80 63-102 63-156 0-45-3-53-32-74-18-14-62-41-98-60-141-75-200-237-115-317 12-12 68-41 123-65 172-74 242-136 307-268 42-86 38-83 180-171 30-18 65-56 101-107 31-43 72-93 93-111s42-44 46-58 22-55 40-93c31-64 32-68 14-78-26-13-51-66-44-90 9-28 69-64 140-84 181-51 269-152 299-344 8-51 17-96 20-99 9-9 7 27-8 119-29 180-112 275-289 333-131 43-163 72-136 122 21 41 41 37 140-23 172-106 216-143 273-228 14-22 26-33 26-24 0 21-47 84-96 130-44 40-92 74-207 144-75 46-79 50-117 129-22 46-40 89-40 97s-32 73-70 144c-95 175-103 201-89 278 14 82 31 112 100 179 67 66 100 85 160 93 73 10 131 27 184 53 57 28 175 143 175 170-1 12-6 9-22-13-74-103-179-166-317-190-98-17-129-34-206-117-65-69-85-113-92-204-6-69 9-111 93-256 24-42 44-80 44-84 0-15-44 34-94 106-64 91-75 101-173 159-75 45-78 48-120 133-64 129-148 203-308 268-107 44-132 63-146 110-9 30-9 49 1 84 20 74 60 118 150 166 45 24 93 57 107 74 37 44 29 116-19 188-71 107-73 113-73 243 0 110 3 128 35 225l36 108c4 6 179-116 200-140 12-12 24-43 28-68s25-75 47-111c61-102 75-173 41-207-10-10-47-24-81-32-81-17-105-44-98-113 3-36 16-65 56-124 31-47 51-87 51-104 0-59-75-92-159-69-74 19-130 23-146 10-8-7-15-28-15-47 0-27 8-42 34-67 19-17 70-66 113-108 60-57 89-78 116-83 63-12 83-1 123 71 27 48 53 78 93 108 88 65 118 101 126 147 6 36 2 51-29 111-38 72-46 125-22 134 8 3 54-14 103-37 74-36 98-43 148-43 53 0 74 7 174 57 86 43 125 57 157 57 26 0 44 5 44 11 0 27-97 2-212-54-147-72-176-73-292-18-44 21-93 41-108 45-25 6-28 3-39-33-11-37-9-44 25-110 51-100 49-131-12-190-27-25-70-63-95-84s-59-61-74-89c-55-103-99-100-218 16l-104 99c-23 21-31 37-31 62 0 44 23 51 98 30 129-38 222-3 222 84 0 10-23 51-50 92-65 96-75 127-57 172 12 28 22 36 63 46 82 20 117 42 126 79 12 46-12 122-62 197-30 45-40 70-40 100 0 52-22 77-130 151-93 64-119 90-120 117-1 94-161 149-270 92-40-21-58-50-70-116-6-30-18-60-27-66-25-19-67-16-97 8-31 24-34 43-6 36 29-7 69 28 92 82 24 57 42 77 93 104 34 19 58 22 168 23 146 2 158 7 175 77 10 43 6 107-8 107-4 0-5-19-3-43 3-26-1-57-10-79-18-44-54-54-148-44-136 14-250-41-280-134-15-46-48-82-74-78-17 3-20 9-17 43 2 22 14 63 28 92 20 41 33 55 69 72 25 12 50 21 57 21 12 0 79 21 216 67 44 15 78 52 69 75-3 8-6 8-6 2zm173-31c11-62 58-146 92-165 17-10 66-27 110-38 95-25 126-50 127-106 1-32-9-54-58-124-57-81-60-88-60-145 0-111 95-269 243-406 37-34 84-73 105-87l37-25 64 17c35 10 108 42 163 72 54 30 113 60 131 66 17 7 32 16 32 20s-2 8-4 8c-13 0-111-47-176-85-87-50-177-81-212-72-13 4-58 35-99 70-171 146-292 349-269 451 7 34 64 129 96 160 19 20 31 70 23 100-15 55-58 86-147 105-72 15-129 46-146 79-8 15-22 53-31 85-19 65-31 76-21 20zm90 11c14-56 62-94 119-94 12 0 42 22 69 50 47 49 58 70 38 70-5 0-10-4-10-8 0-5-16-27-36-50-30-36-41-42-74-42-30 0-43 6-64 31-14 17-26 39-26 50 0 10-5 19-11 19-7 0-9-10-5-26zm480-16c34-40 36-45 36-117 0-61-5-86-25-125-14-27-25-57-25-67 0-20-43-54-162-129-82-52-118-95-118-143 0-46 38-139 86-209 53-78 217-238 243-238 33 0 85 23 153 66 38 24 86 53 108 64 50 25 120 87 120 106 0 7-19-6-42-29-24-23-70-57-103-75s-89-51-125-73c-92-55-109-53-196 29-180 169-267 345-206 418 20 23 94 76 162 116 58 34 84 63 100 113 7 22 19 49 25 60 7 11 16 55 20 97 7 83 1 103-43 151-41 43-47 31-8-15zm191-70c-4-62-7-144-6-182 2-78 4-82 112-204 33-37 73-94 89-126 22-43 30-53 30-35 0 30-68 132-148 222-54 61-62 75-67 122-4 30-2 83 4 118 13 76 15 197 2 197-5 0-12-51-16-112zm205 103c0-6 5-13 10-16 6-3 10 1 10 9 0 9-4 16-10 16-5 0-10-4-10-9zm-3020-138c-107-37-180-115-180-191 0-60 30-99 99-129 68-30 117-26 181 17 25 17 50 30 57 30 6 0 23 14 38 32 24 28 26 37 20 77-15 99-82 182-145 180-14 0-45-7-70-16zm114-12c52-20 104-159 77-209-6-11-23-27-38-35-16-8-50-26-77-40-61-33-103-34-165-3-64 33-89 81-72 138 29 97 186 182 275 149zm-161-106c-55-24-70-81-28-109s121-18 158 19c21 21 22 69 1 89-19 20-87 20-131 1zm127-28c14-27 14-29-13-53-66-57-193-9-129 49 49 45 118 47 142 4zm820 144c-91-30-172-99-192-162-44-150 213-321 420-279 80 17 134 75 201 215 28 58 51 116 51 129 0 32-36 61-100 81-61 19-336 31-380 16zm275-15c55-7 118-22 140-32 57-27 57-56 2-169-60-122-96-168-152-195-98-47-266-10-370 81-42 37-75 97-75 134 0 72 83 150 190 179 69 19 138 19 265 2zm-258-40c-60-17-96-51-104-98-8-52 2-80 39-118 53-51 104-73 188-78 125-7 179 32 230 168 22 58 22 61 5 80-42 47-259 74-358 46zm283-25c20-6 45-17 55-25 19-14 19-15 1-68-55-158-160-204-315-138-72 31-111 78-111 134 0 89 59 119 225 112 61-2 126-9 145-15zm-219-44c-13-6-33-24-43-38-63-84 116-136 181-52 26 32 26 44 0 77-17 21-29 26-67 26-26 0-58-6-71-13zm119-17c29-29 25-57-12-80-80-49-193 6-130 63 43 39 112 47 142 17zm1887 80c-14-16-35-59-47-96l-23-67 46-41c25-23 51-52 57-64 6-13 14-21 18-17 12 11-31 75-65 96-39 24-40 30-12 106 23 63 45 93 66 93 7 0 13 5 13 10 0 20-29 9-53-20zM88 4210c-38-21-68-64-68-98 0-10 20-59 45-110 34-67 51-118 65-194 25-133 44-180 85-217 40-35 94-46 159-31 77 17 127 48 196 121 89 94 104 93 271-16 173-113 305-160 454-160 122 0 150 12 246 104 133 129 103 177-131 205-104 13-137 22-195 50-83 42-158 102-214 173-60 77-102 82-245 33-132-46-163-40-246 44-64 66-173 108-295 113-76 3-96 0-127-17zm198-5c98-23 173-61 234-120 79-74 102-77 241-31 61 20 119 36 130 36 35 0 73-27 108-75 42-59 116-117 205-162 59-30 93-39 203-54 158-22 193-36 193-80 0-23-14-43-65-93-108-107-183-130-326-101-117 23-229 70-331 137-119 78-162 99-210 101-38 1-44-3-107-70-75-81-133-112-221-120-112-9-155 43-193 232-18 89-35 141-65 202-50 98-52 129-14 165 48 47 118 57 218 33zm-23-186c-73-36-80-126-16-223 66-101 151-129 245-80 105 54 58 240-77 303-56 27-99 27-152 0zm166-23c48-31 79-73 97-133 24-79-17-139-103-149-58-7-97 9-138 58-78 92-86 211-16 237 50 18 119 13 160-13zm-109-76c-24-24-25-48-6-94 26-62 91-85 136-48 43 34 26 107-33 142-41 25-72 25-97 0zm96-15c54-37 53-117-2-128-41-7-94 47-94 96 0 20 6 38 13 40 24 10 63 7 83-8zm447 35c-12-5-29-23-38-40-36-69 28-166 149-225 174-85 339-86 386-3 13 25 13 29-6 55-11 15-66 53-122 83s-122 67-146 81c-86 51-171 70-223 49zm177-40c25-13 56-31 69-41s62-37 110-60c98-46 131-73 131-106 0-65-148-84-288-37-120 40-179 81-213 146-25 48-24 83 2 109 19 19 30 21 83 17 35-3 81-15 106-28z"/><path d="M977 3843c-14-13-6-64 12-82 48-48 156-75 200-52 41 22 23 51-59 98-70 40-135 55-153 36zm138-47c90-49 101-69 40-74-77-7-165 37-165 82 0 49 22 47 125-8zm2042 366c-31-35-15-77 36-95 19-7 56 8 69 27 15 22 8 65-11 76-30 16-76 12-94-8zm93-17c10-12 9-20-4-40-18-27-36-31-67-15-18 10-26 50-12 63 12 13 71 7 83-8zm770-111c-17-15-38-40-47-58-30-58-15-183 32-277 26-51 83-126 101-133 33-12 179 82 213 138 14 22 21 50 21 83 0 60-31 108-106 169-27 21-66 53-87 71-46 41-84 43-127 7zm169-63c149-121 174-191 98-278-33-37-115-95-153-107-55-17-164 185-164 304 0 52 34 116 72 140 18 11 37 20 41 20 5 0 52-35 106-79zm-125-62c-39-43-13-201 38-233 13-8 26-6 51 7 86 47 89 151 7 221-38 31-70 33-96 5zm102-35c29-30 34-43 34-84 0-42-4-52-31-74-40-34-61-33-82 3-22 38-33 141-18 169 18 34 58 28 97-14zM0 4001c0-8 14-43 30-79 43-90 63-174 58-245-4-51-9-64-35-87-17-15-37-30-44-32-8-3-11-9-6-13 9-11 54 22 81 59 29 39 28 147-3 236-25 73-80 183-81 161zm2944-65c-70-33-169-130-184-183-28-91 26-177 168-271 48-32 116-79 152-105 70-51 96-56 158-31 67 26 72 51 38 199-8 39-16 95-16 126 0 133-37 232-99 267-55 31-148 30-217-2zm196-8c68-35 88-84 105-255 7-76 21-164 30-196 15-54 16-60 0-83-19-29-53-44-100-44-25 0-52 14-105 53-39 28-92 65-118 81-214 134-239 259-75 388 99 78 184 96 263 56zm-165-52c-84-37-141-120-132-194 11-97 114-182 223-182 76 0 111 32 124 115 30 186-80 320-215 261zm141-31c46-35 69-114 60-204-10-109-53-144-152-122-102 23-170 104-162 192 12 123 164 203 254 134zm-155-77c-48-51-32-143 28-168 75-31 142 33 120 115-6 22-20 48-31 58-29 25-92 22-117-5zm100-1c21-16 42-82 34-107-17-53-80-67-122-28-66 61 17 189 88 135zm386 82c-31-18-50-68-43-117 11-80 59-132 121-132 29 0 61 38 77 91 30 102-72 206-155 158zm94-19c25-14 49-62 49-100 0-41-34-106-59-113-81-21-149 144-85 207 18 18 66 21 95 6zm-71-40c-37-37-14-110 35-110 50 0 75 85 33 114-30 21-44 20-68-4zm64-16c19-18 19-16 6-48-10-28-38-34-58-14-13 13-16 60-5 71 11 12 41 7 57-9zM1 3755c0-61 2-85 9-75 11 18 11 104 0 140-5 17-8-5-9-65zm1884 29c-85-43-87-124-4-158 97-40 206 41 173 129-16 41-113 58-169 29zm138-21c26-24 22-75-9-104-21-19-36-24-79-23-63 0-95 22-95 64 0 69 127 113 183 63zm192-184c-22-12-51-29-65-39-52-36-161-83-203-87-51-6-104 9-161 45-25 15-60 26-96 29-49 5-68 0-160-37-90-36-115-42-175-41-38 0-97 7-130 15l-423 103c-130 35-182 30-306-30-100-49-166-67-240-67-23 0-49-6-58-12-19-15-38-78-38-129 0-82-76-268-132-326-42-43-31-52 12-10 31 30 82 126 109 207 7 19 19 77 26 129 8 54 20 100 28 109 10 9 47 18 102 23 73 6 101 15 193 58 127 60 168 67 242 46 30-8 96-24 145-36 50-11 153-36 230-55 77-20 176-38 221-41 77-5 84-4 185 37 137 56 174 57 276 4 65-33 85-39 132-37 67 2 106 17 230 90 96 56 145 69 175 44 8-7 33-49 54-94 22-45 81-140 131-211 168-238 162-303-36-418-162-94-206-170-274-468-56-246-110-355-234-475-139-136-268-190-450-190-93 0-115 3-145 21-59 34-66 62-41 161 27 107 26 146-4 263-14 52-25 123-25 157 0 131-32 218-125 343-35 47-91 140-125 208-81 161-117 198-239 245-51 20-116 52-144 71-95 62-170 66-241 12-58-44-79-103-87-246-4-69-14-150-23-180-9-29-16-84-16-121 0-135 36-237 118-335 102-121 97-177-21-257-33-22-45-63-25-83 7-8 33-20 57-27 89-25 109-101 91-332-7-82-11-202-9-265 4-98 8-122 28-160l67-132c74-150 125-154 297-26 102 76 149 97 210 98 64 0 95-15 207-99 71-53 117-79 182-102 49-18 104-46 124-63 31-27 37-39 41-83 5-46 2-58-26-102-40-62-111-128-159-148-30-13-60-14-155-9-127 7-183-2-211-33-22-24-16-45 29-96s87-106 128-170c37-57 82-91 141-105 117-30 207-63 244-90 46-33 82-41 42-9-47 37-138 78-212 95-123 28-156 49-213 134-27 42-76 107-107 145-43 51-55 72-47 81 22 26 78 35 210 32 153-3 176 3 249 75 60 59 91 109 101 163 17 89-28 142-163 194-110 43-122 49-198 110-115 93-195 117-282 86-20-7-73-40-117-72-116-85-151-104-193-104-45 0-78 32-104 99-9 25-32 71-51 102-49 81-59 161-44 353 14 191 14 314 0 357-17 50-56 87-100 94-21 4-42 11-45 16-13 22 8 59 44 80 55 32 77 66 76 120 0 46-14 71-98 176-19 23-44 68-57 100-30 78-37 226-16 320 9 37 19 118 23 178 7 133 29 192 82 229 74 50 127 47 222-15 35-22 95-52 134-67 131-48 155-72 248-256 33-66 82-147 109-180 28-34 66-92 85-131 29-60 36-86 45-185 6-63 22-163 36-221l25-105-21-82c-28-110-27-153 4-190 74-88 298-79 488 20 61 32 104 65 172 133 131 129 176 227 239 511 33 151 78 262 126 317 22 25 84 72 137 105 111 68 130 85 147 137 27 77 0 145-129 325-37 52-85 131-106 175-22 44-49 90-61 102-28 30-80 30-133 2zM17 3418c51-57 56-116 17-223-37-103-39-112-25-99 27 25 61 144 61 211 0 71-27 133-58 133-13 0-12-4 5-22zm2103 15c-14-2-59-15-102-28-120-38-162-40-256-15-89 24-118 23-250-5-90-20-90-20-357 31-48 9-119 14-177 12-91-3-99-5-126-31-63-60-42-140 57-227 67-58 101-109 182-270 28-58 87-152 129-210 43-58 95-132 116-165l39-60-3-105c-2-94 1-114 29-198 30-89 31-97 24-205l-7-112 28-29c27-26 33-28 89-24 34 2 125 25 210 53l150 48 65 66c103 104 165 255 235 571 55 246 56 248 217 354 51 33 103 76 115 95 30 45 29 102-2 168-28 61-178 222-241 259-42 25-116 37-164 27zm-883-49c129-28 247-31 319-9 64 19 137 19 205-1 71-21 167-14 283 20 121 36 179 35 239-5 63-41 193-181 221-238 37-72 40-103 17-149-21-41-39-56-172-142-93-60-119-103-154-256l-36-159c-67-292-154-460-274-530-44-25-277-101-340-110-48-7-85 10-102 46-10 20-10 46-1 115 11 89 10 92-21 185-28 84-31 107-30 202 1 102-1 109-30 161-18 30-69 106-116 169-46 63-109 164-139 225-79 157-116 211-187 273-87 76-110 139-69 192 41 52 178 56 387 11zm-112-48c-22-9-51-27-64-43-20-23-23-34-18-78 5-49 57-187 127-339 18-38 51-90 74-115s61-72 85-103c63-83 94-100 206-107 101-7 125-18 125-60 0-41-26-69-100-106-38-19-76-45-84-57-20-29-20-93 0-149 8-24 24-81 34-127 23-103 39-129 86-138 51-9 194 28 254 66 57 36 83 75 135 195 71 166 94 234 145 421 28 102 57 198 64 212 17 32 52 65 125 117 75 54 111 107 111 162 0 104-71 163-245 205-85 21-125 20-299-2-78-11-116-11-181-2-44 7-126 12-181 12-65 0-126 7-179 20-115 29-173 33-220 16zm191-27c52-13 136-24 244-30 91-5 180-12 197-15 18-3 87 2 155 11 141 20 231 16 330-15 90-28 149-73 167-128 21-66-4-120-82-180-97-75-134-110-151-146-9-19-34-101-55-183l-61-212c-39-121-134-333-167-371-53-61-174-110-275-110-43 0-49 3-63 30-8 16-22 60-30 97-7 37-21 88-30 113-19 51-21 135-5 155 6 7 40 28 76 46 109 56 138 109 91 165-22 25-31 28-113 32-98 5-124 15-170 64-115 121-172 208-240 365-52 123-69 172-72 219-4 58-3 62 24 81 54 38 118 42 230 12z"/><path d="M1194 3225c-22-23-25-31-19-68 4-23 13-58 21-77 7-19 25-77 40-127 30-102 76-170 168-247l48-41 122-5c138-6 167-17 210-83 21-33 26-53 26-102 0-69-15-132-37-157-9-10-40-24-69-33-75-22-105-50-111-106-16-141 139-204 226-93 17 22 21 41 21 107v80l60 56c59 54 62 59 84 146 13 50 39 122 58 160 19 39 43 95 53 125 33 104 63 153 116 194 82 63 108 124 74 172-18 27-63 34-156 24-62-7-83-5-129 11-66 23-114 24-215 3-87-18-121-15-186 14-54 25-275 72-336 72-34 0-50-6-69-25zm216-14c80-16 165-38 190-50 50-23 142-28 200-11 55 17 150 14 198-5 36-15 60-17 143-11 120 8 139 1 139-52 0-46-15-68-79-117-50-39-101-118-115-180-4-16-29-80-56-140-27-61-56-142-66-180-15-64-22-75-78-127l-61-57v-78c0-43-6-87-12-99-32-56-131-74-171-31-34 36-46 80-32 121 13 40 41 61 104 77 59 15 91 52 106 126 26 122-10 215-100 261-40 21-54 23-131 18-99-7-124 0-187 51-67 55-126 141-146 214-10 35-29 97-42 137-33 101-30 139 16 155 25 9 30 8 180-22zm19-132c-73-27-65-160 15-256 30-36 66-48 166-58 36-4 109-18 162-31 161-40 214-29 250 53 39 88-2 210-91 269-44 29-31 28-256 8-37-4-89 0-137 10-42 9-78 16-80 15-2 0-15-5-29-10zm130-26c80-16 91-16 191 1 96 16 110 16 142 3 77-32 128-114 128-206 0-56-22-95-65-115-38-18-61-17-180 15-38 10-109 23-158 29-131 16-156 30-197 110-32 64-36 120-10 153 25 32 37 33 149 10zm-14-73c-13-15-16-28-10-56 10-54 51-91 111-99 27-3 75-12 108-20 65-15 98-8 115 24 18 32 13 82-11 117-33 47-58 56-131 44-39-6-77-6-102 0-55 13-60 13-80-10zm277-14c9-4 24-26 33-48 13-34 14-46 4-70-14-35-43-43-100-28-24 7-70 16-103 20-67 10-93 29-102 76-11 58-8 59 127 58 68 0 132-4 141-8zm2523 377c-75-18-261-85-277-100-23-20-58-85-58-106 0-7-20-52-45-100-52-102-55-124-19-137 40-16 89-12 192 15 175 46 274 111 322 210 22 46 30 130 16 173-13 39-71 59-131 45zm100-38c29-28 33-81 13-148-14-46-103-143-155-170-58-30-239-77-297-77-76 0-79 12-29 114 22 44 46 100 53 122 24 77 45 93 186 140 152 51 195 54 229 19zm-258-69c-97-26-121-42-138-93-14-44-7-146 11-168 34-41 194 18 265 96 65 72 69 156 9 179-35 14-46 12-147-14zm163-11c17-21 7-87-20-125-41-58-157-120-224-120-31 0-36 4-46 36-14 43-6 108 19 149 14 24 32 34 92 51 90 27 162 30 179 9zm-239-101c-43-55-10-108 49-79 38 20 62 51 58 77-2 19-10 23-44 26-35 3-45-1-63-24zm80 6c15-9 17-15 9-30-13-23-66-53-80-45-17 11-11 43 12 65 25 23 32 24 59 10zm229-210c-84-64-152-90-238-90-78-1-94-10-121-71-33-75-46-170-33-240 15-84 44-122 123-164 37-19 73-42 80-51 10-13 14-51 14-143 0-158 8-174 108-232 39-23 87-53 105-66 18-14 36-22 39-19 9 8-16 27-107 80-124 72-125 74-127 229-3 155-8 165-99 214-104 56-130 110-121 246 4 59 12 93 34 135l28 57 80 6c44 4 99 13 122 21 42 15 193 117 193 131s-16 6-80-43zm-3775 5c-20-19-25-34-25-77 0-88-13-115-90-187-69-65-70-67-70-116 0-62 15-85 100-156 66-56 80-77 144-221 38-86 69-113 142-124 103-15 182 50 266 219 40 79 50 184 23 238-9 19-58 75-109 124-89 87-93 93-116 170-27 91-56 128-116 144-68 19-122 14-149-14zm187-20c27-19 33-32 78-157 22-61 40-82 138-166 76-66 99-123 82-212-20-106-114-259-180-292-64-33-150-18-197 33-12 14-34 56-48 94-26 70-81 165-94 165-4 0-35 25-69 56-98 88-95 139 14 239l66 60 10 90c6 50 15 96 21 103 17 22 145 12 179-13zm-136-137c-9-12-16-42-16-65 0-37-6-50-50-98-69-77-68-99 9-172 43-40 66-72 82-112 27-69 53-98 96-110 74-21 131 20 185 134 48 102 36 158-50 233-47 40-61 60-75 105-23 73-62 107-122 107-34 0-47-5-59-22zm120-13c12-7 31-41 43-73 14-41 35-72 64-99 71-65 87-91 87-139 0-47-10-75-53-147-67-111-171-101-216 21-23 62-29 70-100 135-58 54-56 84 9 153 46 49 50 57 50 102 0 27 3 52 7 55 12 13 88 7 109-8zm26-240c-67-29-80-143-21-187 20-15 31-17 51-9 36 14 75 68 83 118 6 37 3 46-19 68-28 28-47 30-94 10zm83-25c35-39-1-134-60-155-23-8-30-6-46 14-22 27-26 99-6 123 32 40 84 49 112 18zm2084 341c-40-13-63-27-119-75-34-29-89-60-154-87-55-23-125-58-154-77-69-45-174-149-195-195-25-51-38-130-31-185 8-58 56-153 92-179 64-47 150-56 219-22 48 23 60 42 99 151 62 171 151 249 300 265 107 11 253-46 339-132 43-43 55-65 89-160 51-143 70-172 146-220 25-16 69-48 98-72 42-34 62-43 91-43 111 0 195 150 126 224-34 37-58 88-79 166-22 79-57 142-94 168-15 11-57 29-94 41-109 36-130 60-162 183-33 124-110 181-315 232-106 26-156 30-202 17zm211-36c195-52 262-105 294-232 30-119 52-141 176-182 105-34 137-74 178-220 12-41 34-92 49-114 61-87 64-117 21-173-22-27-90-63-119-64-9 0-49 27-88 60-40 33-76 60-81 60-6 0-27 16-49 35-38 35-47 53-105 211-29 78-55 117-102 158-47 39-144 84-220 102-121 28-255-12-327-97-40-46-91-146-113-218-14-47-39-78-81-100-30-15-117-14-156 3-109 45-160 230-99 357 25 51 110 140 185 193 27 19 94 53 151 76 77 30 120 55 167 96 35 30 78 58 94 63 53 16 128 11 225-14zm-214-100c-21-7-63-37-92-66l-53-52-95-8c-110-9-175-37-263-114-70-61-97-119-91-195 8-107 73-172 171-172 80 1 116 45 178 216 38 106 79 170 121 192 23 12 67 18 145 22 108 5 118 3 214-28 112-37 142-35 168 12 13 23 13 30-3 66-29 65-75 102-152 123-80 22-192 24-248 4zm239-19c28-7 61-18 73-25 33-18 82-90 82-121 0-59-47-65-171-19-81 30-88 31-197 25-62-3-128-12-145-20-61-25-96-80-158-251-36-99-77-152-124-161-63-11-130 27-165 96-18 33-16 119 3 155 33 65 146 156 226 183 19 7 60 12 93 12 74 0 119 19 168 70 21 22 54 47 72 55 42 18 177 19 243 1zm-670-262c-69-36-115-107-100-156 16-53 77-88 126-73 11 4 34 28 50 53 38 60 41 140 7 172-26 24-43 25-83 4zm83-37c11-23 11-38 2-77-22-93-92-129-145-75-44 44-22 123 47 165 44 27 79 22 96-13zm-113-47c-29-55-16-87 30-76 29 7 59 59 50 86-10 33-61 27-80-10zm63-7c2-13-7-29-24-42-44-35-61-5-23 43 24 30 42 30 47-1zm977-5c-60-35-71-99-30-176 56-108 138-158 208-128 48 20 63 62 48 130-14 63-70 150-111 171-34 18-87 19-115 3zm133-40c74-70 106-195 60-238-43-40-111-20-172 51-39 46-71 128-61 158 3 11 20 32 37 47 41 34 87 28 136-18zm-108-28c-26-26-25-59 3-101 40-60 97-45 97 26 0 17-8 42-17 55-31 46-52 51-83 20zm56-8c18-11 33-76 22-95-23-42-78 5-78 67 0 30 30 46 56 28zM13 2783c-25-10-12-22 17-17 53 11 76-3 139-86 68-89 86-124 129-255l48-135c10-27 15-56 11-70-9-35-188-217-221-226-26-6-88 0-120 12-9 3-16 2-16-4 0-16 86-35 126-27 30 5 57 27 136 108 55 56 103 112 108 123 10 26-2 82-33 154-13 30-32 84-41 120-10 36-25 79-34 95-22 44-129 182-154 199-22 15-69 20-95 9zm4459-50c-7-23-9-73-5-128 4-73 0-118-21-235-42-225-36-318 21-355 34-23 42-10 10 15-52 41-59 133-21 302 9 40 20 147 23 238 4 91 11 173 15 183 5 10 4 17-1 17-6 0-15-17-21-37zm-308-28c-33-22-55-80-55-140s18-103 57-134c42-33 79-27 125 19 71 72 77 174 14 237-27 27-41 33-77 33-24 0-53-7-64-15zm106-10c43-22 63-68 58-132-4-46-10-60-43-93-29-30-47-40-70-40-80 0-121 140-68 231 28 47 73 60 123 34zm-80-57c-20-19-28-81-12-104 13-20 47-32 68-24 25 10 54 52 54 79 0 52-71 85-110 49zm71-8c28-15 25-61-6-90-20-19-30-22-43-14-29 19-38 59-18 88 18 28 36 32 67 16z"/><path d="M76 2489c-44-34-70-103-74-197-5-95 1-125 28-152 43-43 149-9 184 58 44 84 15 228-58 295-25 23-47 22-80-4zm80-16c51-52 79-187 50-251-22-48-71-82-119-82-31 0-41 5-58 33-17 27-20 44-16 108 9 150 84 251 143 192zm-81-137c-21-31-16-95 7-110 26-16 51 3 62 47 18 71-33 118-69 63zm53-25c6-39-7-71-28-71-25 0-35 36-21 74 13 33 44 32 49-3zm2881-1c-111-33-176-190-134-321 35-109 123-234 217-307 33-26 82-66 109-89 59-51 87-60 125-40s60 45 79 90c22 53 19 93-20 287-50 245-89 325-182 366-55 25-140 31-194 14zm182-24c94-39 134-124 184-391 39-206 35-249-27-306-46-42-75-38-140 19-31 26-79 65-107 87-52 40-116 115-163 190-101 163-65 357 76 409 47 18 125 14 177-8zm-143-28c-47-12-93-64-109-120-34-129 77-301 196-301 84 0 129 47 140 149 13 113-35 221-115 262-48 24-57 25-112 10zm118-30c60-47 93-120 94-211 0-99-36-154-108-164-106-14-212 125-199 260 5 57 30 95 78 119 47 25 100 23 135-4zm-121-73c-27-26-31-57-15-101 14-37 38-53 77-54 26 0 36 6 48 30 24 46 2 119-42 139-34 16-41 14-68-14zm79-14c26-29 32-88 11-111-24-26-41-25-70 5-27 27-35 91-13 113 18 18 53 15 72-7zM769 1837c-100-67-148-271-98-420 27-80 52-121 96-154 88-67 160-20 248 163 129 267 116 369-52 415-92 26-152 25-194-4zm156-1c85-18 122-40 146-88 26-50 21-98-23-208-75-188-147-290-206-290-69 0-141 93-167 215-30 144 27 324 117 368 40 20 55 20 133 3zm-103-131c-98-88-110-278-21-325 86-47 218 111 207 248-6 69-36 102-101 109-40 5-48 2-85-32zm135 0c67-47 39-204-52-283-88-78-174 3-144 136 13 60 43 116 75 141s90 28 121 6zm-112-68c-42-42-49-99-15-117 27-14 50-6 83 28 48 50 43 101-11 117-17 5-30-1-57-28zm73 1c19-19 14-44-14-77-29-35-73-43-75-13-3 37 4 58 24 80 23 24 47 28 65 10zm1312 211c-56-23-100-92-100-158 0-31 6-44 27-61 68-53 203 30 203 125 0 35-27 81-57 94-28 13-40 13-73 0zm87-31c31-29 32-94 2-132-41-53-131-75-160-40-19 23-15 88 8 124 42 66 108 88 150 48zm-106-44c-25-32-27-57-5-78 37-38 119 5 107 55-12 53-69 65-102 23zm79-9c10-12 10-21 2-40-9-20-19-25-47-25-29 0-35 4-35 21 0 52 51 80 80 44zM0 1835c0-3 15-25 34-50 53-69 66-128 63-291l-2-140 34-67c42-83 88-126 185-172 82-39 150-105 161-156 7-30 2-41-58-126-16-23-32-65-38-99-21-111-31-142-61-178-49-60-185-116-280-116-21 0-38-4-38-10 0-24 145 3 223 40 112 54 140 92 162 214l15 96c0 5 18 31 40 59 54 68 61 88 45 135-20 56-79 112-167 157-159 80-227 201-206 365 16 122-4 215-65 302-26 36-47 53-47 37zm264-24c-19-11-36-34-43-53-28-90-64-270-64-329-1-58 3-74 29-115 56-91 153-120 216-65 45 39 66 105 79 241 15 172-4 289-52 319-12 7-47 15-78 18-44 3-63 0-87-16zm159-21c45-36 60-184 36-356-19-141-55-194-132-194-55 0-101 33-132 94-33 65-32 105 5 271 46 204 46 204 141 205 42 0 63-5 82-20zm-121-167c-28-41-42-90-42-147 1-62 17-86 58-86 56 0 100 90 88 179-11 80-66 108-104 54zm78-19c26-68-4-184-52-200-16-5-27-1-41 17-24 30-19 97 12 163 18 36 28 46 47 46 17 0 27-8 34-26zm3513 99c-29-14-69-43-89-64-32-32-38-47-42-91-3-42 0-57 12-67 15-13 133-39 178-40 9-1 48 27 87 61 63 55 71 66 71 98 0 43-41 107-76 121-43 16-88 10-141-18zm131 2c32-15 76-78 76-108 0-17-99-115-136-135-13-7-30-9-37-5-6 4-38 10-71 14-32 4-63 12-69 18-19 19-14 87 9 118 35 47 133 106 187 112 5 1 24-6 41-14zm-99-81c-66-34-75-42-75-69 0-28 15-41 62-49 32-6 41-2 72 25 37 32 45 63 26 100-14 25-25 24-85-7zm78-16c13-48-42-94-98-84-28 6-35 12-35 30 0 17 12 29 52 49 63 33 74 33 81 5zM1 1659c-1-9 6-33 14-52 8-21 15-67 15-106 0-156 46-266 172-413 62-73 68-103 38-212l-22-83 21-75c13-47 19-87 15-107-12-60-95-101-204-101-40 0-51-3-40-10 20-14 136-2 178 17 77 36 101 108 67 203-20 57-19 92 6 170 30 96 22 131-51 213-112 127-149 213-160 372-5 78-13 123-28 155-11 25-21 38-21 29z"/><path d="M2560 1609c-13-6-48-28-76-50-31-24-84-50-136-68-155-52-178-75-178-175 0-66 18-109 102-240 63-99 63-100 133-128 93-37 114-54 137-113 36-90 12-212-49-252-23-15-51-18-173-18-135 0-149-2-195-25-96-48-114-112-71-256 13-43 29-103 36-132s24-67 37-83c32-38 93-69 134-69 40 0 35 6-9 13-49 8-106 50-127 93-10 21-26 70-36 109-11 38-25 93-33 121-24 85 0 150 69 187 35 19 57 22 175 23l157 3c30 1 83 48 100 88 21 51 19 163-5 215-25 56-54 81-127 108-76 27-83 35-151 142-89 140-111 216-80 276 23 44 48 61 138 91 102 34 118 43 181 93 46 36 53 38 117 38 147 0 273-40 368-117 61-50 72-77 72-183 0-83 2-93 25-115 55-55 91-19 81 81-7 68 3 106 36 142 33 35 62 28 126-30 32-29 73-64 91-78 43-32 71-88 71-143 0-24-11-99-25-167-40-194-34-239 45-370 89-147 117-160 216-101 38 23 86 46 108 52 51 14 194 0 431-41 93-17 183-30 200-29l30 1-30 8c-75 22-421 73-521 77-120 6-136 2-233-59-53-33-80-35-109-8-32 30-79 102-112 172-37 79-39 156-8 296 26 119 28 215 5 259-9 17-38 49-64 70-27 21-65 55-86 76-48 48-77 59-116 46-52-18-71-63-71-168 0-89 0-91-24-91-39 0-49 23-47 113 0 45-4 96-10 114-14 43-96 115-174 154-92 45-284 72-345 48zm-835-148c-61-21-133-41-160-45-119-17-185-57-185-113 0-75 88-156 183-168 114-15 167-60 296-250 37-55 82-110 101-122 38-26 94-30 143-9 92 38 92 84-8 454-79 295-137 335-370 253zm237-2c40-28 72-93 102-204l37-135c48-163 65-263 50-303-20-52-133-76-188-40-15 10-55 61-90 115-34 53-90 126-123 162-64 68-101 87-200 101-86 12-155 84-148 155 4 46 38 64 163 89 55 10 123 29 150 42 65 29 152 48 190 41 17-3 42-13 57-23zm-171-82c-39-15-78-57-87-94-4-15 0-39 9-59 24-50 124-181 187-246 47-49 61-58 91-58 45 0 59 27 59 113-1 131-53 287-112 328-36 26-101 33-147 16zm139-33c53-45 82-120 99-253 9-70 2-134-18-154-16-16-66 10-106 55-20 21-69 84-110 139-96 129-100 175-17 218 54 29 113 27 152-5zm-111-115c-25-25-19-46 33-115 56-75 98-78 98-8 0 114-72 182-131 123zm94-32c18-36 25-112 13-124-9-9-93 82-102 110-8 25 13 47 46 47 22 0 31-7 43-33zm827 262c-31-3-98-20-150-37s-114-34-137-37c-24-4-45-11-49-16-3-5-14-9-25-9s-34-13-50-29c-23-24-29-38-29-73 0-77 69-158 222-264 104-72 139-240 97-464-23-123-45-136-184-106-149 33-161 35-201 26-46-11-70-36-85-93-29-107 30-233 136-290 36-20 55-22 175-22 200 1 232 21 253 156 11 71 12 73 57 100 25 16 74 65 110 111 76 95 127 129 220 148 51 10 77 10 122 1 67-14 74-23 113-141 15-47 56-142 91-212 34-69 65-145 69-167 4-23 11-41 16-41 21 0-6 81-71 215-38 78-76 168-85 200-27 94-52 135-90 151-72 30-224 10-297-39-18-13-61-59-96-102-38-48-82-91-110-107-55-32-58-37-65-109-7-70-30-117-65-131-43-17-254-23-306-8-97 27-166 123-166 232 0 72 14 103 55 123 43 20 76 19 160-4 70-19 107-24 177-22 28 1 42 7 53 25 21 32 45 180 45 277 0 167-39 251-150 329-137 95-204 190-183 258 10 30 100 82 142 82 13 0 80 18 147 40 135 44 191 49 243 22 56-28 70-57 101-215 16-81 36-160 44-176 18-35 67-59 146-73 72-12 135-55 156-103 8-19 14-66 14-104 0-100 16-166 48-195l71-62c27-24 56-65 80-113 47-95 84-123 136-98 19 9 51 41 75 76 24 34 56 66 75 75 42 20 147 21 251 2 97-18 454-32 454-19 0 6-84 13-197 16-109 4-234 14-278 22-180 33-251 13-321-90-71-105-122-99-180 20-40 82-53 99-118 151-63 50-76 83-76 187 0 99-12 141-52 183-35 37-82 59-161 74-33 7-69 22-86 36-31 26-46 73-77 252-8 46-21 97-29 113-30 56-92 79-185 68zM3 1354c3-23 35-104 71-180 85-176 88-198 45-295-27-60-34-90-37-157l-4-83-37-17c-45-20-45-21-39-27 2-3 19 0 36 6 46 16 62 48 62 126 0 53 7 84 30 138 46 106 42 144-27 284-31 64-67 145-80 181-22 60-24 62-20 24zm4287-41c-65-5-155-35-177-60-47-50-52-133-12-218 16-35 26-43 64-53 58-16 163-15 194 1 41 21 83 110 83 177 0 109-51 160-152 153zm75-23c31-12 64-79 65-131 0-20-12-62-26-94-20-44-34-60-60-71-41-17-93-18-159-1-43 11-53 18-69 52-30 60-33 136-7 178 17 28 33 38 88 55 76 23 129 27 168 12zm-145-59c-27-7-60-61-60-98 0-38 22-71 57-88 52-25 99-6 124 51 17 37 18 50 9 84-15 56-55 72-130 51zm108-36c16-35 15-60-3-95-27-53-74-64-120-28-25 19-27 26-23 70 6 60 26 77 89 78 40 0 47-3 57-25zM0 1226c0-7 7-33 16-57 22-59 22-182 1-233-24-56-19-79 5-26 32 69 35 171 8 259-21 69-30 86-30 57zm2717-141c-9-9-17-22-17-28 0-34 54-201 85-264 66-134 141-169 213-100 40 39 42 83 7 163-28 64-98 165-144 208-38 36-117 48-144 21zm121-22c30-18 114-133 147-200 15-32 25-69 25-96 0-38-5-49-31-71-36-30-55-32-89-9-39 27-68 63-96 123-30 62-73 203-74 238 0 41 64 49 118 15zm12-178c-16-20-4-72 27-113 30-40 76-43 81-4 11 76-69 164-108 117zm76-46c14-27 20-89 8-89-32 0-74 59-74 104 0 47 38 38 66-15zm-1891 213c-77-37-118-72-153-131-23-40-27-57-27-127 0-98 13-126 73-155 39-19 70-23 273-31 261-10 274-7 343 73 29 34 36 51 36 84 0 52-19 70-120 119-46 21-98 58-135 92-114 107-185 126-290 76zm171-7c20-8 66-42 102-76 41-38 100-78 154-105 48-24 92-53 98-64 16-30 4-70-32-114-52-64-71-68-306-61-317 9-343 20-350 145-7 124 34 194 147 253 80 41 129 47 187 22zm-151-64c-131-61-154-205-42-262 48-25 161-29 222-9 100 33 99 161-3 253-36 32-49 37-90 37-26 0-65-9-87-19zm151-16c60-39 96-126 80-190-13-52-140-82-237-55-19 5-48 23-63 39-26 27-28 35-24 81 6 55 30 90 83 117 67 35 116 38 161 8zm-106-43c-37-17-60-41-66-70-10-47 30-82 93-82 58 0 93 21 93 56 0 69-65 120-120 96zm77-34c32-30 32-84 1-94-33-10-99-6-114 7-23 19-17 65 12 88 34 27 72 27 101-1zm2547 87c-40-61-38-150 3-166 32-12 27-13 68 22 27 24 35 39 35 66 0 84-68 135-106 78zm75-9c7-8 11-35 9-62-2-38-8-51-31-68-40-30-62-13-61 47 0 74 50 123 83 83zM523 675c-17-7-49-38-71-68-23-30-58-69-79-86-39-33-187-108-305-156-38-15-68-31-68-36 0-9 1-9 153 54 173 72 252 128 317 223 16 22 43 47 61 54 29 12 40 10 128-20 130-45 134-49 129-130-4-68-8-79-118-290-40-76-77-154-95-203-4-9-3-17 3-17s14 10 17 23c4 12 52 114 108 226 97 193 102 207 102 267 0 80-13 94-121 132-112 40-125 42-161 27zm-33-161c-24-10-199-98-265-134-99-54-145-90-177-139-26-40-29-53-26-103 3-46 11-65 35-95C73 22 95 3 105 2c12-3 6 8-18 32-72 72-70 160 5 232 59 56 82 70 252 158 125 64 157 76 198 76 93 0 108-53 64-217-34-125-62-201-91-245-14-21-21-38-16-38 26 0 88 142 127 294 41 158 22 216-73 222-26 2-55 1-63-2zm2573-16c-71-15-136-83-193-202-26-56-55-124-63-153-18-62-33-91-60-120-11-13-16-23-10-23 22 0 63 63 83 127 83 270 208 398 344 353 58-19 74-46 231-398 18-40 36-76 40-80 15-13-7 53-37 118l-79 169c-55 121-99 188-131 200-42 15-83 18-125 9zm-34-92c-69-47-124-155-154-302-9-41-19-82-22-90-3-7 0-14 6-14s13 10 15 23c37 185 76 283 134 340 70 68 136 66 188-6 44-60 133-257 140-312 4-25 11-45 16-45 11 0 2 60-19 120-8 25-41 94-72 155-41 80-65 116-90 132-45 30-97 30-142-1zM358 391C172 331 74 193 140 84 190 5 353-28 432 25c89 60 134 231 89 331-15 32-26 42-51 48-43 8-46 8-112-13zm145-41c26-50 19-157-16-233C447 29 376-4 276 19c-109 25-162 95-135 179 29 93 190 195 299 189 40-2 47-6 63-37zm-199-54c-47-21-74-62-74-111 0-59 41-95 107-95 87 0 133 86 94 175-19 42-22 45-58 45-21-1-52-7-69-14zm100-15c27-30 32-93 10-130-50-84-185-46-170 48 7 43 31 68 82 86 52 19 58 18 78-4zm-103-57c-25-32-27-67-6-84 34-29 104 60 75 94-19 24-46 19-69-10zm57-8c5-22-24-66-43-66-20 0-19 39 1 68 18 26 37 25 42-2zm3476 185c-33-15-73-69-79-109-3-20-8-48-11-62s-32-50-64-80c-65-62-80-86-80-127 1-24 3-21 20 20 11 29 36 63 65 89 54 48 80 95 88 158 4 34 14 52 38 74 30 27 36 28 103 24 39-3 98-15 131-27 131-47 257-73 325-68 68 6 130 23 130 37 0 4-21 2-47-6-94-28-211-13-403 53-80 27-182 39-216 24zm100-71c-46-14-75-51-77-97-2-54 21-86 86-117 57-29 149-37 198-18 36 14 69 59 69 93 0 82-174 170-276 139zm166-40c64-32 92-66 88-109-5-53-43-76-126-76-74 1-124 19-168 63-22 23-25 33-21 67 4 27 15 48 33 64 25 21 35 23 89 19 34-3 80-15 105-28zm-142-17c-9-2-21-18-27-35-10-27-8-33 20-59 35-33 88-39 113-13 19 19 19 18 1 53-11 23-72 65-87 60-1-1-11-3-20-6zm62-28c33-17 47-50 30-70-16-19-34-19-70 0-33 17-47 50-30 70 16 19 34 19 70 0zm-986 50c-21-31-20-81 1-144 27-83 89-132 131-103 51 34 41 181-16 242-37 40-92 42-116 5zm80 4c36-17 66-87 66-157 0-32-5-63-12-70-44-44-121 38-129 138-6 70 1 85 48 99 1 1 13-4 27-10zm-42-41c-18-18-14-73 7-99 27-33 55-16 59 35 5 56-35 95-66 64zm48-29c15-26 5-69-15-69-19 0-36 41-28 69 7 27 29 27 43 0zm-2077 56c-30-21-40-78-20-120 9-18 34-48 57-66 22-18 50-48 62-67 11-18 22-31 25-28 10 10-22 53-78 108-51 49-59 62-59 93 0 55 15 75 55 75 43 0 80-32 138-120 51-79 94-105 198-121 41-6 98-18 127-27 29-8 55-12 58-9 10 9-80 36-161 48-75 10-143 36-171 64-7 6-28 36-47 67-67 104-131 140-184 103zm-285-76c-21-22-56-76-78-119-43-85-45-90-31-90 4 0 21 28 35 63 34 78 81 141 123 163 40 22 53 13 93-67 23-45 76-132 97-158 2-2 6-2 9 2 3 3-7 25-23 49s-46 75-67 113c-43 79-49 85-90 85-21 0-40-11-68-41zM4310 70c-11-11-20-24-20-29s-3-16-6-25-2-16 4-16 13 13 17 30c8 35 15 41 56 42 22 1 40-9 69-37 22-21 42-36 46-33 9 10-4 27-48 59-48 34-90 37-118 9zm-424-25c-21-7-43-19-47-27-13-20-1-23 20-4 32 29 93 32 146 6 54-26 71-21 23 8-46 27-96 34-142 17zM783 40c-13-5-23-17-23-26 0-16 1-16 18-1 24 22 48 22 61 0 5-10 13-15 17-10 9 8-24 47-40 46-6 0-21-4-33-9z"/></svg>