<svg xmlns="http://www.w3.org/2000/svg" width="640" height="640" fill-rule="evenodd"><path d="M637.5 214.1l2.5-1v2.3l-1.1.4zm2.5-87l-.5-.1c-1.7-.5-3.7-.8-6-1-2 0-4.4 0-6.7.2l-7.5 1-3.8.7c-1.4.4-2.3.6-3.1.4-1.3-.3-2.1-1-1.2-2.8A93.7 93.7 0 01640 103v2.5a85.2 85.2 0 00-26.3 20.8l.8-.2 3.9-.8a82 82 0 0115-1.1c2.4 0 4.6.4 6.6 1zm-27.1-.7h-.1" fill="#843ba1"/><g fill="#ed1174"><path d="M615.7 305c1-3.2 2.6-7 4.7-10.6a32.1 32.1 0 0119.6-15.8v1.7a34.3 34.3 0 00-4.3 1.7 28 28 0 00-13.4 12.6c-2 3.4-3.5 7-4.4 10-1 2.7-1.4 5-1.5 7.1 0 2.2.2 4.3.8 6.8a51.6 51.6 0 003 8.7c1.2 2.6 2.6 5 4.2 7.1 1.6 2.2 3.6 4 5.6 5.4a35.3 35.3 0 0010 4.8v2.3a43.6 43.6 0 01-5.2-1.9c-2.2-1-4.5-2-6.6-3.5s-4-3.3-5.9-5.6a52.7 52.7 0 01-7.3-16.1c-.6-2.6-.9-4.9-.8-7.2.1-2.3.6-4.6 1.5-7.5"/><path d="M632 283c.3.3 0 1-.5 1.3s-1.2.5-1.5.2L618 269.8l-3.5-4a7.1 7.1 0 00-2.2-1.7 2.7 2.7 0 00-1.6-.2 4 4 0 00-1.6.7c-.6.5-1.3 1.1-1.8 1.8a6 6 0 00-1 2.1c-.2.8-.1 1.7.2 2.6.3 1 1 2.1 2 3.5 1 1.3 2.3 2.7 3.7 4.2l5 4.5 3.5 2.8c1.1.8 2 1.3 2.7 1.6.6.3 1 .4 1.4.4a.8.8 0 00.3 0v-.1l.1-.1c.5-.5 1.2-.8 1.6-.6s.4.7 0 1.2a4.3 4.3 0 01-.5.5 4.2 4.2 0 01-1 .6c-.4.2-.9.4-1.5.4a5 5 0 01-2-.5c-.8-.3-1.7-.9-3-1.7l-3.6-2.8-4.9-4.7-3.8-4.2c-1-1.5-1.8-2.7-2.1-3.8a5.8 5.8 0 01-.2-3.3c.2-1 .7-2 1.4-2.9.7-1 1.6-2 2.6-2.6 1-.8 2-1.3 3-1.5 1-.1 1.9 0 2.7.3a8 8 0 012.5 2c1 .9 2 2.2 3.5 4L632 283m-10.5 49.9c.6-.5 1.2-.6 1.6-.4s.2.9-.3 1.3l-7.8 6.9-6.5 5.5-2.5 2c-1.6 1.2-2.4 1.9-2.5 2.3-.1.4 0 1 .4 1.5l1.6 1.9c.7.6 1.3 1.2 2 1.6.6.3 1.2.5 1.9.5.6 0 1.2-.2 2-.6 1-.5 2-1.3 3.2-2.3l4.3-4 4.1-4 5.2-5.1c.5-.5 1.1-.7 1.5-.5s.4.8-.1 1.2v.1l-5.2 5.1-4.2 4.1-4.5 4a25.4 25.4 0 01-3.8 2.8c-1.3.7-2.4 1.1-3.5 1.1a5 5 0 01-2.7-.7c-.7-.5-1.4-1-2.1-1.7l-1.8-2c-.4-.9-.7-1.7-.5-2.5.3-1.3 1.5-2.2 3.7-4l2.5-1.9 6.3-5.4 7.7-6.8"/><path d="M616 266.8c-.5.2-1 0-1-.5 0-.4.4-.8.8-1a80.4 80.4 0 0124.2-11.8v1.7a40.4 40.4 0 00-2.8.7 77.6 77.6 0 00-21.1 10.9m23.9 104c-4-.7-8-1.7-11.4-3a64.2 64.2 0 01-17.3-11.3c-.3-.4 0-1 .5-1.4.6-.4 1.2-.4 1.5-.1 5 4 10 8.2 17 11 3 1.1 6.3 2 9.7 2.7v2"/><path d="M606 347.3c.2.3 0 1-.6 1.3s-1.2.5-1.4.1c-2.8-3.8-5.5-7.7-7.8-11.8a46.5 46.5 0 01-6.2-26.4c.3-5.6 1.2-11 2.2-15.1.9-3.8 1.9-6.7 3-9 1-2.3 2.2-4 3.3-5.6a46.8 46.8 0 017-7.7c.5-.4 1.2-.6 1.6-.4s.3.8-.2 1.2l-3.4 3.4a43.1 43.1 0 00-6.3 9c-1 2.2-2 5-2.9 8.6-1 4-1.8 9.4-2 14.8-.3 4.3 0 8.8.8 12.9 1 4.6 2.9 8.9 5.1 13 2.3 4 5 7.9 7.8 11.7m10.2-82.5c-.2.5-.8 1-1.4 1s-.8-.3-.6-.8a31.3 31.3 0 0111.7-16c3.4-2.3 7.9-4.3 12.8-5.6l1.3-.4v1.7l-1.7.5c-4.5 1.2-8.6 3-11.7 5-5.9 4-8.1 9.3-10.3 14.5v.1"/><path d="M605.2 271.6c.5-.3 1.2-.4 1.4 0s0 1-.7 1.3c-4.5 3-9 6.1-12.9 9.4a32.5 32.5 0 00-8.7 10.8c-1.8 4-2.5 8.6-2.2 13.3.3 5.1 1.8 10.4 4.1 15.3 4.5 9.4 12.1 17.5 19.8 25.5.3.4 0 1-.5 1.4s-1.2.5-1.5.2a104 104 0 01-19.9-25.8 44 44 0 01-4.2-15.7c-.3-5 .4-9.8 2.3-14 2.1-4.6 5.5-8.4 9.7-12 4-3.4 8.6-6.5 13.3-9.7m6 84.8c-.2-.4.1-1 .7-1.3.6-.4 1.2-.4 1.4 0 4.2 9.2 8.4 18.4 15 22.2 3.1 1.9 7 2.4 10.9 2.3a27.5 27.5 0 00.8 0v1.9h-1.7c-4.3.2-8.4-.5-11.8-2.5-6.8-4-11-13.3-15.3-22.6"/></g><path d="M580.8 423.2c.8 5.5 2.6 13.6 6.1 21.4a50 50 0 0010.3 15.4c5 4.8 11.3 8.2 18.3 10.3A74 74 0 00640 473v2a77 77 0 01-25-3 47.2 47.2 0 01-19.7-11 52 52 0 01-10.8-16c-3.5-8-5.4-16.3-6.2-21.8-.7-4.7-.5-7.6 0-9.3.1-.8.4-1.4.7-1.7.5-.6 1-.8 1.5-1a2.6 2.6 0 011 .2 2.5 2.5 0 01.8.3 222 222 0 0015.6 6.8c5.3 2 10.8 3.7 16.6 4.5 5.4.7 11 .8 16.7.3a105.2 105.2 0 008.8-1v2l-8.2 1c-5.8.4-11.7.4-17.4-.4-6-.9-11.8-2.6-17.4-4.7-4.4-1.7-8.7-3.6-13-5.6l.8 2.9.4 1.6a92 92 0 0014 30.3c3 4 6.7 7.8 11 10.6 4 2.7 8.7 4.5 13.6 5.7a68.8 68.8 0 0016.2 1.8v2a72 72 0 01-16.7-2 47 47 0 01-14.6-6 47 47 0 01-11.6-11.3 79.1 79.1 0 01-7.6-12.7A92.2 92.2 0 01585 427l-2.3-7.8-.4-1.6a47 47 0 00-1.1-4.3l-.5 1.2a24 24 0 00.1 8.7zm57.6 37.8l-1.1 1.4c-.4.7-.8 1.4-.8 1.8l.6-.2 1-1.1a4 4 0 00.3-1.8zm-3.4.4c-.6 1-1 1.9-1 2.6a1.8 1.8 0 00.3 1c.2.4.6.7 1.1.9l1.4.2a4.1 4.1 0 002.1-.6 4 4 0 001.1-1v-5.3l-.2-.2a2.4 2.4 0 00-1.3-.3c-.5 0-1 .1-1.4.4-.7.5-1.5 1.4-2.1 2.3zm-5.4-24.4a3 3 0 00-1.6-.5 2 2 0 00-1.2.3 1.8 1.8 0 00-.5.5 3 3 0 00-.5 1.6c0 .8.2 1.6.6 2.4.4.7 1 1.4 1.7 1.9s1.5.7 2.3.7c.5 0 .9 0 1.3-.2a2 2 0 00.9-.7l.2-1c0-.7-.4-1.7-1-2.6-.6-1-1.5-2-2.2-2.4zm0 3l-1.2-1.4v.6c0 .5.1 1.1.4 1.7l.7 1 .6.1a.3.3 0 00.1 0v-.2c.1-.5-.2-1.1-.6-1.8zm-10.1 7a3 3 0 00-1.6-.5 2 2 0 00-1.2.3 1.8 1.8 0 00-.6.5 3 3 0 00-.4 1.6c0 .8.1 1.6.5 2.4.3.8.8 1.5 1.5 2 .7.4 1.6.7 2.4.7.4 0 .8 0 1.2-.2a2 2 0 001-.7 1.7 1.7 0 00.2-.9c0-.7-.3-1.7-.9-2.7-.6-1-1.4-2-2.1-2.4zm-.1 3.1l-1.1-1.4a2.4 2.4 0 00-.1.5c0 .6 0 1.2.3 1.7.2.4.5.8.8 1l.5.2h.1l.1-.2c0-.4-.2-1.1-.7-1.8zm-12.8-15c-.3-.5-.6-.8-1-1a2.5 2.5 0 00-1.3-.4 2.3 2.3 0 00-1 .2c-.5.3-1 .8-1.3 1.3-.3.6-.6 1.5-.7 2.3 0 .8.1 1.6.5 2.3a4 4 0 001.5 1.5c.4.3.8.4 1.3.5.5 0 1 0 1.4-.2a1.9 1.9 0 00.8-.8c.4-.6.5-1.6.4-2.7 0-1-.3-2.3-.6-3zm-1.9 2.8c0-.6-.1-1.3-.3-1.8a4 4 0 00-.5 1.8c0 .5 0 1 .2 1.4l.4.5c.2-.4.3-1.1.2-1.9" fill="#42b0b8"/><g fill="#c88c1a"><path d="M629.6 519.7l-6.8-5.2a15.3 15.3 0 00-6.8-2.7c-1.8 0-3.5.5-4.9 1.5a9.6 9.6 0 00-3.4 4.5 7.8 7.8 0 000 5.1c.6 1.7 1.8 3.4 3.4 4.7 3 2.4 7.3 4 11.2 5.4l2 .7 2.8 1.1 2.5 1c.8-1.8 1.7-3.5 2.8-5a35.5 35.5 0 013.9-5l-2.6-2.5c-1.2-1.2-2.6-2.4-4.1-3.6zm-5-6.9a67.5 67.5 0 0111 8.9c1.2 1 2.2 2.1 3 3.1.3.3.1.8-.3 1.2a31.7 31.7 0 00-4 5 35.6 35.6 0 00-3.3 6 1.4 1.4 0 01-.2.3c-.4.5-1.1.8-1.6.7l-3.6-1.4-3-1-1.9-.8a41 41 0 01-11.4-5.5c-1.8-1.5-3.1-3.3-3.8-5.2-.6-1.9-.6-4 .1-6a13 13 0 014.7-6c2-1.4 4.3-2.3 6.8-2.2 2.5.2 5 1.4 7.5 3"/><path d="M613.6 529.8c.6-.2 1-.1 1.1.4s-.4 1-1 1.3l-4.2 1.9c-1.3.7-2.5 1.5-3.6 2.5-1.2 1-2.3 2.3-3 3.7-.7 1.2-1 2.5-1 3.7a7 7 0 001.8 4c1 1.4 2.6 2.6 4.5 3.6 2 1 4.3 1.7 6.6 2.2 2.2.3 4.4.4 6.2.1a10 10 0 005.4-2.7c.5-.4 1.2-.6 1.5-.4s.3.8-.2 1.3a14.4 14.4 0 01-3.3 2.3c-1.2.7-2.5 1.1-4 1.4a25.7 25.7 0 01-14-2.5c-2-1-3.6-2.3-4.7-3.7a8 8 0 01-2-4.6 9 9 0 011.2-4.7 17 17 0 013.8-4.7c1.4-1.2 2.8-2.2 4.4-3 1.4-.8 3-1.4 4.5-2m26.4 12.3l-1-.4c-.3-.2-.4-.4-.3-.8a37 37 0 001.3-4.5v5.7m0 23.3l-1-.6c-2-1.3-3.8-2.8-5-4.5a12.2 12.2 0 01-1.9-3.3 13 13 0 01-.7-3.5c0-.5.4-1 1-1.3s1.2-.1 1.2.3c0 1.1.3 2.2.7 3.3a11.3 11.3 0 001.7 3 18 18 0 004 3.8v2.8"/><path d="M626.6 557.9c-.7-3-.8-6.3-.5-9.7.3-3.3 1.1-6.7 2.4-10a38.2 38.2 0 015.1-9.2c2-2.5 4-4.7 6.4-6.4v1.9a35.5 35.5 0 00-11.4 31.3 35.5 35.5 0 0011.4-19.2v6.2a38 38 0 01-11.9 15.2c-.5.4-1.2.4-1.4 0l-.1-.1"/><path d="M640 524.3l-1 1c-.6.2-1.1 0-1.1-.5-.2-5.6-.3-11.2-1.4-14.9a13.6 13.6 0 00-.8-2l-.2.3c-.8 1.2-1.5 2.5-3.5 1.9a4.7 4.7 0 01-2.9-3.4 3.2 3.2 0 010-.8c.1-.7.4-1.4.9-2a4 4 0 012.6-1.5h.7c1 .1 2.2.8 3.2 2 .8 1.1 1.6 2.5 2.1 4.3 1 3.3 1.3 8 1.4 12.7zm-4.7-17.1a9 9 0 00-.8-1.2c-.8-1-1.7-1.6-2.4-1.7a1 1 0 00-.3 0l-.2.1-.3.8v.5c0 .5.4 1 .8 1.5s1 1 1.4 1l.1-.2c.4-.5 1-1 1.6-.9h.1"/></g><g fill="#376c93"><path d="M640 0v1.4a92 92 0 00-12.8 6.1 48 48 0 00-13 10.3 18 18 0 00-4.2 9.6c-.4 3.6.6 7 2.5 9.8a18 18 0 007.7 6.6c3.5 1.6 8 2.6 13.6 2.9h6.2v1.9h-7.3a37.8 37.8 0 01-14.1-3 19 19 0 01-8.2-7c-2-3-3-6.6-2.6-10.4.3-3.5 1.8-7.2 4.8-10.9 3.2-3.9 8-7.8 14-11.2A96 96 0 01640-.3V0m0 14.9c-.6.9-1 1.8-1 2.6-.2 1.2.2 2.1 1 2.8v2.8c-.8-.3-1.4-.7-2-1.2-1-1-1.4-2.2-1.3-3.7.3-1.6 1.2-3.4 2.6-5l.7-.9V15m-568.3 625c-5-1.5-10-2.7-14.7-3.7A102.2 102.2 0 006.7 639l-2.9 1H0v-.3a110.2 110.2 0 0131-7 104 104 0 0127.4 1.7c6.5 1.3 13.4 3.2 20.4 5.6h-7.1"/><path d="M33 632.8c.3.3 0 .9-.5 1.3s-1.2.5-1.4.1c-3-3.7-5.8-7.5-8.1-10.9a34.8 34.8 0 01-4.9-9l-.3-2.2c0-1.4.4-2.6 1.3-3.6s2-1.7 3.5-2.1c1-.3 2-.4 3.2-.4 2.3 0 5 .4 8 1.7 3 1.2 6.5 3 10.5 6 8 5.6 18 15 28 24.3a.5.5 0 01.2.2c0 .3-.1.7-.5 1-.4.4-1 .6-1.3.5l-.3-.1c-10-9.4-20.1-18.7-28-24.3-3.9-2.8-7.2-4.7-10.2-5.8a19.6 19.6 0 00-7.3-1.6c-1 0-1.8 0-2.6.3-.7.2-1.3.5-1.7 1-.4.4-.6 1.1-.6 2 0 .6 0 1.2.3 2 .6 2.3 2.4 5.3 4.7 8.7 2.3 3.4 5.2 7.1 8 10.9"/></g><path d="M99.2 133.4c1-.9 2.4-2 4-2.7 1.7-.8 3.7-1.3 5.9-1 4.2.3 8.7 3.4 11 5l-2-1.4a68.3 68.3 0 00-14.4-18.3A120.4 120.4 0 0075 97.2a42.6 42.6 0 00-9.5-3c8 7.8 15.8 15.7 21.1 22.7 5.2 6.7 8 12.7 10.6 18.5l2-2zM0 215.4V213l11-4.2 12-4.4a195.8 195.8 0 018.8-2.8l3.8-1a111 111 0 01.5-24.3c.7-6 2-13.4 3.4-21.6l4.6-25a26.4 26.4 0 00-3.3-.6c-2.6-.3-5.2-.2-8 .3S27 131 24.4 132c-2.6 1.1-4.9 2.3-6.4 3-4 2.1-4 2.1-6.2 0-1.5-1.4-4.3-4.1-7.4-6a20.1 20.1 0 00-4.4-2v-2l.1.1c2.1.6 4 1.4 5.7 2.5a43 43 0 017.4 5.9c3-7 6.1-14.1 12.5-20.9 3.4-3.6 7.7-7 12.4-10.5a312 312 0 0112-8.3h-.2c-6.7.6-15.4 1.5-24.3 3.3-6.6 1.3-13.2 3-19.1 5.4a77.8 77.8 0 00-6.5 2.9V103a79.1 79.1 0 015-2.2c6.1-2.4 13-4.2 19.6-5.6 9-1.8 17.9-2.7 24.7-3.3 6-.4 10.3-.5 14.3 0 4.1.5 7.8 1.6 12.4 3.5a123.7 123.7 0 0129.5 18.3c8.4 7.5 12.7 15.1 15 19 4.1 7.4 4.1 7.4-2 3.2-2-1.4-6.1-4.2-9.4-4.5-1.6-.2-3 .2-4.4.9-1.4.6-2.6 1.6-3.5 2.4-1 .9-1.7 1.7-2.2 2.3-.5.5-.8 1-1.2 1.2-.8.5-1.6.4-2.4 0l-1.6-1.1a20 20 0 00-5.2-3c-1.7-.7-4-1.4-6.5-1.8a18.4 18.4 0 00-11.4 1.4c-1.8.9-3.3 1.8-4.4 2.7l-.8.5c-2.2 1.7-3.2 2.4-6.1 1l-3.4-2.2A55.7 55.7 0 0050 132l-3.4 16.2a200.7 200.7 0 00-3.5 34.6c0 5.5 0 10.9.2 16.3a16.3 16.3 0 011.5 0c1.7 0 3.4.2 5.9.8 2.3.6 5.4 1.6 8.7 2.7l10.7 3.6-.8 1.7-10.6-3.6-8.5-2.6c-2.2-.5-3.7-.8-5-.8-1.4 0-2.7.3-4.5.7l-2.5.6c-.2.2-.6.4-1 .4a1.8 1.8 0 01-.4 0l-3.7 1a191.5 191.5 0 00-20.7 7L0 215.5zM38.1 200l1.5-.4 1-.2-.1-17a193.7 193.7 0 013.5-34.8c1-5.6 2.3-11.2 3.5-16.8l-1-.4-4.5 24.8c-1.4 8-2.6 15.5-3.3 21.6-1.3 11-1 17.3-.6 23.2zm24-106.4c8.4 8.3 16.8 16.6 22.4 24 5 6.4 7.7 12 10.2 17.6l-1.2-.8a37.5 37.5 0 00-11.2-4 21 21 0 00-13.1 1.7c-2 .9-3.6 2-4.8 2.8.1-3.3.2-7-.4-13l-1.7-13.4-2.3-15a42.7 42.7 0 012 .1zm-4.6-.1h-3c-5 3.4-10 6.7-14.6 10a63 63 0 00-24.1 30.2l.6-.3c1.6-.7 3.9-2 6.6-3 2.7-1.2 5.8-2.3 9-2.9a29.7 29.7 0 0117.4 2c3.2 1.5 6 3.4 8.2 4.9l3 1.9 1.1.3c.3-3.8.5-7.8-.2-14.8l-1.7-13.3-2.3-15" fill="#843ba1"/><g fill="#ed1174"><path d="M0 278.7a39.8 39.8 0 016.2-1.5 28.7 28.7 0 0117.4 2.5 69.5 69.5 0 0114.1 10.1c1.7 1.7 3 3 3.9 4.6s1.6 3.3 2.1 5.7a66 66 0 011.4 18.3 23.5 23.5 0 01-6.2 15A57.6 57.6 0 0116.3 347a30.6 30.6 0 01-14.6.2l-1.7-.4v-2.3l3 .9a27.7 27.7 0 0013.6-.3 53.5 53.5 0 0020.8-12.4c1.6-1.9 2.9-3.8 3.8-6 1-2.2 1.5-4.7 1.7-7.6a56 56 0 00-3.4-23.3c-.9-1.5-2-2.8-3.7-4.3a68.2 68.2 0 00-13.8-10 27.4 27.4 0 00-16.5-2.4 36.9 36.9 0 00-5.5 1.3v-1.7"/><path d="M39.2 293.3c-.6.4-1.2.5-1.4.1-.2-.2-.1-.7.3-1 2-2.2 4-4.4 7.2-6.9L50 282l4.5-3.3 2-2v-.1c.4-.5.5-.8.6-1.2a2 2 0 000-1l-.7-1.4-1.6-2.3c-.4-.6-.9-1-1.3-1.4-.4-.3-.8-.4-1.3-.3-.6 0-1.4.4-2.7 1.1a69.8 69.8 0 00-5.7 3.5 49.2 49.2 0 00-4.7 3.6 24.8 24.8 0 00-3.5 3.6 22.4 22.4 0 00-1.8 2.8c-.8 1.5-1 2-1 2.6-.2.5-.8 1-1.4 1.1s-1-.1-.8-.6c.1-.7.3-1.4 1.3-3.1a25.3 25.3 0 012-3.2c1-1.3 2.3-2.7 4-4.2 1.5-1.3 3.3-2.7 5-3.9l6.2-3.7c1.6-.9 2.7-1.4 3.7-1.5a3 3 0 012.5.5l1.5 1.6a20.2 20.2 0 012.4 4c.2.6.2 1 0 1.6 0 .6-.3 1.3-.9 2.1-.6.9-1.4 1.7-2.7 2.8l-4.7 3.5-4.7 3.5a59.5 59.5 0 00-6.7 6.4 2 2 0 01-.4.3m-2 40.5c-.3-.2-.2-.8.3-1.3s1.2-.5 1.6-.3c4.2 3.8 8.5 7.5 11.6 10.7 1.6 1.5 3 3 3.9 4.3 1 1.4 1.5 2.7 1.5 4 0 1.3-.5 2.5-1.2 3.6-.9 1.4-2.1 2.6-3.2 3.3-1 .8-2 1.2-3 1-.8 0-1.6-.5-2.5-1.4-1-.9-2.2-2.2-3.5-3.8l-3.3-3.6c-1.7-1.9-3.5-3.6-5-5l-2.2-2.3c-1.7-1.7-2.1-2.4-2.5-3v-.6c.2-.4.4-.7.8-.9.3-.2.7-.2 1-.2a.5.5 0 01.3.3c.4.6.7 1.3 2.3 2.9l2.2 2.2a142.4 142.4 0 018.3 8.7c1.4 1.5 2.5 2.8 3.5 3.7.7.7 1.3 1 1.8 1.2.3 0 .6-.1 1-.4a8.7 8.7 0 002.2-2.3c.5-.8.8-1.6.8-2.5 0-1-.5-2.2-1.4-3.4-.8-1.3-2.1-2.7-3.7-4.3L37.2 334"/><path d="M0 253.5a49.3 49.3 0 0122.3.2 57.9 57.9 0 0119.2 8.2c4.4 2.7 6.6 4.6 8.8 6.5.4.3.2 1-.3 1.4s-1.2.5-1.6.3a75.2 75.2 0 00-17-10.9 56.6 56.6 0 00-10.5-3.7 50.8 50.8 0 00-12.2-1.2c-3 0-5.9.3-8.7.9v-1.7m55.2 25.4c-.2-.4 0-1 .6-1.4s1.2-.4 1.4-.1c1.8 2.6 3.6 5 5.9 9a39 39 0 016 17.2 62.8 62.8 0 01-3 26.4 42 42 0 01-5.2 10.3c-2 3-4.3 5.5-6.5 8-.4.5-1.1.8-1.6.6s-.4-.7 0-1.2c2.2-2.5 4.4-5 6.3-7.7s3.6-5.9 5-9.6a61.5 61.5 0 002.9-25.9 38 38 0 00-6-16.8c-2.3-3.8-4-6.3-5.8-8.8"/><path d="M45.8 355.9c.6-.4 1.2-.5 1.5-.1s0 .9-.6 1.3h-.1c-4.3 3-8.7 5.7-14.1 8.4a50 50 0 01-32.2 5.3H0v-2.1l1.6.2a44.7 44.7 0 0022-1.5c3.1-1 6-2.2 8.6-3.4 5.2-2.6 9.4-5.4 13.6-8.1M0 243a58.5 58.5 0 0126.9-.3c4.6 1.2 8.7 2.9 12 4.7 2.8 1.7 5 3.5 6.7 5.3a20 20 0 014 6.4c1.5 3.7 1.2 6.7.9 9.8a1 1 0 01-.1.3c-.2.4-.6.8-1.1 1s-.9 0-1-.3v-.3c.3-2.9.5-5.8-.8-9.3-.7-2-2-4-3.9-6.1a27.2 27.2 0 00-6.4-5A51.7 51.7 0 000 244.8V243"/><path d="M56.1 278.1c-.3-.2-.2-.7.2-1.2.5-.5 1.2-.7 1.6-.4 5.6 4.7 11.1 9.3 16 17.6 2.6 4.5 5 10 6.4 15.6a33 33 0 011 13.5c-.7 4.5-3 8.2-5.8 11.2s-6 5.2-8.8 7c-5.5 3.7-9.2 5.5-12.9 7.4h-.1c-.6.3-1 .2-1.2-.2 0-.4.3-1 .8-1.3h.2c3.6-1.9 7.1-3.7 12.4-7.2a44 44 0 008.1-6.4c2.5-2.7 4.5-5.9 5.2-10 .6-3.8.1-8.3-1-13a62.7 62.7 0 00-6.4-15.2A62.5 62.5 0 0056 278M0 379.6c3.8-.2 7.8-1 11.6-1.8 4.3-1 8.4-2 12.1-3.2 3.4-1 6.3-2.1 8.7-3.2a25.3 25.3 0 009-7.2l2.5-3.6 2.3-3.7c.3-.6 1-1 1.5-1s.7.6.4 1l-2.3 3.9a52.4 52.4 0 01-2.8 3.9 27 27 0 01-10.3 8.2 68.4 68.4 0 01-9.2 3.5 157.6 157.6 0 01-23.5 5v-1.8"/></g><path d="M0 473h.7c8.4-.5 16.7-2.2 24.2-5a47.4 47.4 0 0028.7-25.3c3-6.5 4.7-13.2 5.4-18.6 1.2-9.7-.6-15.3-1.5-18.2-.4-1.3 1.2-2.3.4-1.8-.4.2-.9.5-1.3 1s-.8 1-1 2v3c0 2 .2 4.8-.2 8.7a79.8 79.8 0 01-7 24.4c-2 4-4.5 7.8-7.4 11a41.8 41.8 0 01-10.4 8.2c-4 2.2-8.5 4-13.4 5.1-5 1.2-10.2 1.8-15.8 2H0v-2h1c5.4 0 10.4-.7 15.2-1.8 4.6-1.1 9-2.8 12.7-4.9A40 40 0 0046 442.3a68.8 68.8 0 006.8-23.9c.5-3.8.4-6.5.3-8.5v-3.3c-4.4 1.5-9 3.2-14.8 5.6l-3 1.2c-6.6 2.7-14.6 6-24.2 8.5-3.5 1-7.3 1.7-11.1 2.3v-2a118.2 118.2 0 0010-2.1c9.4-2.4 17.3-5.7 23.8-8.4l3.1-1.3a314 314 0 0117.4-6.4l.2-.2c.6-.6 1.2-1 1.6-1.2 2.4-1.4 2.4-1.4 3.8 3v.1c1 3 2.8 8.9 1.6 18.8a63.6 63.6 0 01-5.5 19 48.9 48.9 0 01-29.7 26.3 85.6 85.6 0 01-25 5L0 475zm0-8.5a5 5 0 00.4-.8c.4-.7.6-1.6.6-2.3 0-.6-.2-1.2-.5-1.6v-.1a2.1 2.1 0 00-.5-.5zm7-35a3 3 0 00-1.5-.6h-.1a2 2 0 00-1.1.3l-.7.5a3 3 0 00-.4 1.6c0 .7.1 1.6.5 2.4.3.7.9 1.4 1.6 2a4.5 4.5 0 002.3.7c.4 0 .9 0 1.3-.2a2 2 0 00.9-.7 1.7 1.7 0 00.3-.9c0-.7-.4-1.7-1-2.7-.5-1-1.4-2-2.1-2.4zm-.1 3l-1.1-1.4a2.4 2.4 0 000 .5 3.9 3.9 0 00.3 1.7c.2.4.4.8.7 1l.6.2h.1v-.2c0-.5-.2-1.1-.6-1.8zm30-4.4a3 3 0 00-1.5-.6 2.1 2.1 0 00-1.2.3 1.8 1.8 0 00-.6.6 3 3 0 00-.5 1.5c0 .8.2 1.6.5 2.4.3.8.9 1.5 1.6 2 .7.4 1.5.7 2.3.7.5 0 .9 0 1.3-.2a2 2 0 001-.7 1.7 1.7 0 00.2-.9c0-.7-.4-1.7-1-2.6-.5-1-1.4-2-2-2.5zm-.1 3l-1-1.4-.2.5c0 .6.1 1.2.4 1.7.2.5.4.8.7 1l.6.2h.1a.3.3 0 000-.2c0-.4-.2-1.1-.6-1.8zM32.6 448c.2-.6.2-1.5 0-2.4 0-.5 0-1-.2-1.3a2.1 2.1 0 00-.5.8v1.5l.7 1.4zm2.6-2.3c-.1-1-.4-2-1-2.7-.3-.3-.7-.6-1.1-.7a2.6 2.6 0 00-1.6 0c-.3 0-.7.3-1 .5-.4.4-.8 1-1 1.6-.3.7-.2 1.5 0 2.3a5.6 5.6 0 001 2.2c.5.6 1.1 1 1.8 1.2a2.6 2.6 0 001.1.1c.4 0 .7-.2 1-.4s.5-.6.6-1c.3-.8.3-2 .2-3zm10-23.5v-2.4c0-.5-.2-1-.3-1.3a2 2 0 00-.5.8v1.5l.7 1.4zm2.5-2.3c-.1-1-.4-2-1-2.7a2.6 2.6 0 00-2.7-.8 2.8 2.8 0 00-1 .6 3.6 3.6 0 00-1 1.6c-.3.7-.2 1.5 0 2.3a5.6 5.6 0 001 2.2c.6.6 1.2 1 1.8 1.2a2.6 2.6 0 001.2.1c.3 0 .6-.2 1-.4s.4-.6.6-1c.2-.8.2-2 .1-3zM26.2 424c-.2-.5-.4-.8-.8-1.1-.3-.3-.7-.5-1.1-.5a2.5 2.5 0 00-1 0H23c-.5.2-1 .6-1.4 1.1-.5.6-1 1.4-1.1 2.2-.2.7-.2 1.5 0 2.2.2.7.7 1.3 1.2 1.8.3.3.7.5 1.1.6.6.2 1.1.2 1.6 0a2 2 0 001-.6c.4-.6.7-1.6.8-2.6a8 8 0 00-.1-3zm-2.4 2.7v-2a4 4 0 00-.7 1.5c-.2.6-.2 1 0 1.5 0 .3.2.5.3.6.2-.3.3-1 .4-1.6zM9.6 445.2c-.2-.5-.4-.8-.7-1v-.2c-.4-.3-.8-.4-1.2-.5a2.5 2.5 0 00-1 0l-.2.1c-.5.2-1 .5-1.4 1-.5.6-1 1.4-1.1 2.2-.2.7-.2 1.5 0 2.3.2.6.7 1.3 1.2 1.7.3.3.7.5 1.1.6.6.2 1.1.2 1.6 0a2 2 0 001-.6c.4-.5.7-1.5.8-2.6a8 8 0 00-.1-3zm-2.4 2.6v-2a4 4 0 00-.7 1.6c-.2.5-.2 1 0 1.5a1.9 1.9 0 00.3.6c.2-.4.3-1 .4-1.7" fill="#42b0b8"/><g fill="#c88c1a"><path d="M12.2 526.2l8.7.8c2.8.5 5.5 1.4 7.4 2.9a9.6 9.6 0 013.2 5.5c.5 2.4.3 5-.6 7.1-1 2.2-2.5 3.9-4.6 5-2 1-4.2 1.5-6.7 1.4-4-.3-8.4-2.1-12.3-3.7l-1.9-.8-2.9-1.2-2.5-1v-5.7a36.6 36.6 0 00.8-8.8c0-.4.4-1 1-1.3h.4c1.3-.3 2.8-.4 4.5-.4 1.6 0 3.5 0 5.5.2zm7.3 2.6a66.4 66.4 0 00-13.8-1L3 528a34.3 34.3 0 01-.4 5.7c-.3 2.2-.9 4.3-1.6 6.5l3.1 1.2 2.9 1.2 2 .8c3.7 1.5 8 3.3 11.7 3.6 2 .1 3.8-.3 5.2-1a6.7 6.7 0 003-3.3c.7-1.8.9-4 .4-6.2-.4-1.9-1.3-3.7-2.9-5a15.3 15.3 0 00-6.9-2.7"/><path d="M15 547.9c-.1-.4.2-1 .8-1.4s1.2-.3 1.4 0c1.3 3 2.6 6 3 9.4a16 16 0 01-.4 5.6 9.6 9.6 0 01-2.5 4.5 9.3 9.3 0 01-5.3 2.4c-1.9.3-4 .1-6.3-.5-1.9-.5-3.8-1.4-5.7-2.4v-2.8l.8.5c2 1.3 4.3 2.3 6.4 2.9 2 .5 3.9.7 5.5.5 1.3-.2 2.5-.7 3.2-1.5.8-.7 1.4-1.9 1.7-3.1.5-1.6.5-3.5.4-5.2-.4-3.2-1.7-6-3-9M0 522.7l.8-.6c.6-.4 1.2-.5 1.5-.2a.5.5 0 010 .2c.7 3 .9 6.3.5 9.7-.3 3.3-1 6.7-2.4 10l-.4 1v-6.2a34.5 34.5 0 00.6-4c.3-3 .2-5.7-.2-8.3l-.4.3v-2"/><path d="M0 524a.8.8 0 010 .3v-3 2.6m2.3 2c-.5.4-1.2.6-1.5.4s-.3-.8.1-1.3c4-4.1 8-8.2 11.7-10.4 1.8-1 3.4-1.7 4.9-1.9 1.7-.2 3 0 3.9.6l.4.5c.5.5.6 1.1.6 1.8s-.3 1.4-.7 2a4.5 4.5 0 01-.8.9c-.8.6-1.8 1-2.7 1.1-1 .1-2 0-2.6-.3-1.2-.6-1-1.6-.8-2.6.1-.5.7-1 1.3-1.2s1 .1.9.6c-.1.6-.2 1.2.3 1.4.4.2 1 .3 1.6.2.4 0 .7-.1 1-.3.2-.3.3-.7.3-1a1.6 1.6 0 00-.4-1.1l-.3-.3c-.5-.4-1.5-.6-2.7-.4-1 .2-2.3.6-3.6 1.4-3.2 2-7 5.8-10.8 9.8"/></g><g fill="#376c93"><path d="M120.1 16.9c.4.2.4.7 0 1.2s-1.2.7-1.6.6c-16-7-31.9-14-46.8-18.7h7a528.6 528.6 0 0141.4 16.9zM3.8-.1A106.6 106.6 0 000 1.5V0h3.8zM0 46.8c7.6-.2 16.4-1.2 24.6-2.1l9-1c12.5-1.3 21-1.4 29.7-1.5.6 0 .7.4.5 1s-.9.8-1.4.9h-.1c-8.6 0-17.2.2-29.5 1.4l-9 1c-7.8 1-16.3 2-23.8 2.2v-1.9"/><path d="M48.4 30c-.3-.3 0-1 .5-1.3s1.2-.6 1.5-.3l16 16.6c5.2 5.3 10.5 10.3 15.8 14.8 5.4 4.7 10.8 8.8 15.7 11.9a39 39 0 0011.7 5.4c1.4.3 2.6.3 3.6.2 1.1-.2 2-.6 2.6-1.1a5 5 0 001.3-2.6c.2-1 .2-2 0-3.3-.3-2.6-1.7-5.6-3.8-9a80.4 80.4 0 00-9.4-11.4 189.8 189.8 0 00-23.6-20.7c-5.7-4.1-7.4-4.1-9-4-.6 0-1-.4-.7-1s.9-1 1.5-1c2 0 3.9 0 10 4.3a169.7 169.7 0 0123.7 20.8c4 4.1 7.2 8 9.5 11.6 2.2 3.5 3.6 6.6 4 9.4.3 1.3.2 2.6 0 3.7-.3 1.6-1 3-2.2 4a8.2 8.2 0 01-4.5 2.2c-1.3.2-2.8.1-4.4-.2-3.4-.7-7.5-2.7-12.1-5.6-5-3.1-10.4-7.2-15.8-12C75 57 69.7 52 64.4 46.6c-5.4-5.4-10.7-11-16-16.5"/><path d="M93.1 39.2c-.6 0-1-.3-.7-.8s.8-1 1.3-1l11-1.8 9.5-1.6c5.1-.8 8.1-1.3 12.3.5 1.8.8 3.9 2 6 3.3 2.5 1.5 5.2 3.2 7.5 4 2 .7 3.7.9 5 .7 1.2-.1 1.9-.4 2-.8.3-.5.1-1.2-.4-2-.6-1.3-1.8-2.6-3.1-3.8l-1.2-1c-2.4-2.2-4.8-4.3-5-7.7 0-2 .6-4.3 1.7-6.7 1-2.3 2.3-4.5 3.4-6.5l.4-.7c1.8-3 3-5.1 2-6-.6-.5-1.9-.8-3.5-.9A45.7 45.7 0 00131 7c-1.3.3-2.5.8-3.6 1.7a39 39 0 00-7.2 9.2c-.3.5-1 .9-1.5.8s-.7-.5-.3-1c2.5-4 5-7.9 8-10.2a13 13 0 015-2.3 47.5 47.5 0 0111-.6c2 0 3.5.4 4.3 1.1 1.7 1.5.2 4-2 7.7l-.4.7c-1 2-2.3 4.1-3.3 6.3-.9 2-1.5 4.2-1.4 5.9.1 3 2.4 5 4.6 7l1.2 1c1.4 1.3 2.6 2.7 3.3 4 .7 1.1.9 2.3.4 3.4-.7 1.4-2.5 2.4-4.8 2.7a13 13 0 01-5.8-.8c-2.5-.9-5.2-2.5-7.8-4.1-2-1.3-4.1-2.5-5.9-3.3-3.7-1.6-6.4-1.1-11.2-.3h-.4l-9.2 1.5-10.9 1.8M4.8 10.4A14 14 0 000 14.9v-2.6a16.8 16.8 0 019.7-5.2 19 19 0 015.7-.1c1.5.2 2.7.6 3.6 1.2 1 .7 1.7 1.6 2 2.8a13.2 13.2 0 01-.1 8.4c-1.1 2.5-2.8 2.8-6 3.3l-2.1.3a39 39 0 01-10.3.7h-.1c-.9-.1-1.7-.3-2.4-.6v-2.7c.8.7 2 1.2 3.6 1.4h.1c2.9.4 6.7-.2 9.7-.7l2.1-.3c2-.3 3-.4 3.4-1.3.3-.8.5-2 .5-3.4a12 12 0 00-.5-3.8c-.3-1.1-.9-1.9-1.7-2.4s-1.8-.8-3-1c-1.5-.2-3.3-.3-5.1 0-1.5.3-3 .7-4.3 1.5"/><path d="M38 10.8h-.1a4.7 4.7 0 00-1.9 2.4c-.3 1-.3 2 .1 2.6.8 1.3 3.3 1.4 5.8 1.4h.7c2.5 0 5 0 6-.7.4-.2.7-.6.9-1.1.3-1 .5-2 .5-2.9 0-.8-.1-1.4-.4-2s-1-.8-2.2-1c-1.3-.3-3.3-.3-5.3 0-1.6.2-3 .6-4 1.3zm-.7-1.4c1.6-1 3.5-1.5 5.4-1.8 2.3-.3 4.5-.3 6 0s2.4.8 2.9 1.5.6 1.6.6 2.6-.2 2.3-.6 3.4c-.4 1-1.1 2-2.2 2.7-2 1.4-5 1.3-7.8 1.3h-.7c-3 0-5.7 0-6.8-1.8-.6-1-.7-2.4-.2-3.7a8 8 0 013.3-4.1m29.6 0a6.5 6.5 0 00-1.2 2 3 3 0 00-.2 1.7c.2.6.7 1.1 1.6 1.5a37 37 0 009.4 2.3c1.3.2 2.5.2 3.3 0 .4-.2.7-.5.8-.8.4-.7.4-1.7.2-2.5-.1-.8-.3-1.4-.7-2s-1-.9-1.8-1.3l-2.6-.8a28 28 0 00-3.5-.7 18.2 18.2 0 00-3.8 0H68c-.5 0-1 0-1.3.5zm-3.3 2.3a9.6 9.6 0 011.7-3A4.6 4.6 0 0169 7c1 0 2.3-.2 4.3 0a29.7 29.7 0 013.7.7c1 .3 2 .6 2.8 1 1 .4 1.7 1 2.2 1.6s.8 1.4 1 2.3a6 6 0 01-.4 3.5c-.6 1.1-1.5 2-3 2.6-1.2.4-2.8.4-4.4.3a38.5 38.5 0 01-10-2.5c-1-.6-1.7-1.2-2-2.1-.2-.8 0-1.7.3-2.6M94.9 16c-.3.2-.6.7-.8 1.2-.2.6-.2 1.2 0 1.7s.7 1 1.3 1.3c.7.4 1.5.7 2.5 1l3 .6h1.9l.2-.4.2-.7c.2-.3.4-.6.4-1v-1c-.1-.4-.3-.8-.8-1.1l-1.7-1a18.5 18.5 0 00-5.2-1 2 2 0 00-1 .4zM92 17.7c.3-1 1-2 1.8-2.7 1-.7 2-1 3-1.1.9 0 1.8 0 2.8.2a20.3 20.3 0 013 .9c.8.3 1.6.6 2 1 .7.5 1 1 1.2 1.6.1.5.1 1.1 0 1.6l-.5 1.5-.3.5v.2c-.4 1-.8 2.1-2.9 2.5l-2.5-.1a25.5 25.5 0 01-3.2-.7c-1-.3-2-.6-2.7-1-.8-.5-1.4-1-1.7-1.8a4 4 0 010-2.6m20.4 4.8a1.6 1.6 0 00-.3.8c0 .3 0 .5.2.7l.8.4a4.4 4.4 0 001.4 0 2.5 2.5 0 000-.6l-.4-1-.6-.5a1.2 1.2 0 00-.6 0h-.3l-.2.2zm-2.5 1.6c0-.6.3-1.3.7-1.9A4.5 4.5 0 01112 21a4 4 0 011.8-.6c.5 0 1 0 1.4.3.3.2.7.4 1 .8a3.7 3.7 0 01.5 2.7c-.2.7-.5 1.2-1.2 1.7-.5.3-1.1.5-1.8.6a6.3 6.3 0 01-2-.2c-.6-.1-1-.4-1.4-.7-.3-.4-.4-.9-.4-1.4"/></g><g fill="#a31f71"><path d="M113.8 508.8A45.2 45.2 0 0099.1 519c-3.7 4-6.9 8.8-9 14.8a76.3 76.3 0 00-3.3 22.6c-.1 8 .5 16.2 1.3 23.1a69 69 0 003.6 17.3c1.9 4.7 4.6 8.3 9 11.2a48 48 0 0015.8 6.3c6.5 1.4 13.4 2 19.2 1.6 5.5-.4 10-1.6 13.6-3.6 3.5-2 6.4-4.6 8.8-8a44 44 0 005.8-12.2c1.6-4.9 2.7-10.4 3.6-16.7a179 179 0 001.7-21.5c0-6.4-.2-12.6-1-18-1-5.6-2.6-10.2-4.5-14-1.9-3.8-4.2-6.8-6.5-9.1a25.5 25.5 0 00-17-7.8 51.8 51.8 0 00-13.6.2 50 50 0 00-12.8 3.6zm-16.2 9.5a49.2 49.2 0 0129.7-15c5.2-.8 10-.7 14.1-.2 3.8.4 7 1.3 9.9 2.6 2.9 1.3 5.4 3 7.8 5.5a36 36 0 016.7 9.4c2 3.8 3.6 8.6 4.5 14.3.9 5.4 1.2 11.7 1 18.2 0 7.3-.7 14.9-1.6 21.7-.9 6.3-2 12-3.6 17s-3.7 9.3-6.3 13c-2.7 3.7-6 6.8-10 9-4.2 2.2-9 3.6-14.9 4-6 .4-13.1-.2-19.8-1.7-6.1-1.3-12-3.5-16.2-6.4a24 24 0 01-9.3-11.6 70 70 0 01-3.7-17.6c-.8-7-1.4-15.1-1.3-23.3.2-8.1 1.1-16.3 3.5-23.1a43 43 0 019.5-15.8"/><path d="M126 505c-.3-.3 0-1 .5-1.4s1.2-.5 1.5-.1l43.2 51c.3.3 0 1-.5 1.4s-1.2.4-1.4.1L126 505m-19.2 6.8c-.2-.3 0-.9.5-1.3s1.2-.5 1.5-.2l60 69.4c.2.3 0 .9-.6 1.3s-1.2.5-1.4.2l-60-69.4m-11.5 9.9c-.2-.3 0-1 .6-1.3s1.2-.5 1.4-.2l65.3 79.3c.2.3 0 1-.6 1.3s-1.2.5-1.4.2l-65.3-79.3m-9 20.1c-.3-.3 0-1 .5-1.3s1.2-.5 1.5-.2l61.3 72.5c.3.3 0 .9-.5 1.3s-1.2.5-1.5.2l-61.3-72.5M84.9 568c-.2-.3 0-.9.6-1.3s1.2-.5 1.4-.2l39 49.3c.3.3 0 1-.5 1.4s-1.2.4-1.4.1l-39-49.3"/><path d="M157.6 511.5c.5-.4 1.2-.6 1.5-.3s.2.8-.4 1.3l-71.6 62.7c-.6.5-1.2.6-1.6.4s-.1-.9.4-1.3l71.7-62.8m-11.7-7c.5-.4 1.2-.5 1.5-.2s.1.9-.4 1.3l-60.7 51.7c-.5.5-1.2.6-1.5.3s-.2-.8.4-1.3l60.7-51.7m22.8 30.3c.6-.4 1.2-.5 1.5-.2s0 .9-.5 1.3l-79 60.6c-.6.4-1.3.5-1.6.2s0-.9.5-1.3l79.1-60.6m1 24c.5-.4 1.2-.5 1.4-.1s0 .9-.6 1.3l-70.3 49.4c-.6.4-1.2.4-1.5.1s0-1 .6-1.3l70.4-49.4M167.4 579.7c.6-.3 1.2-.3 1.4 0s-.2 1-.7 1.4L112 615c-.5.4-1.2.3-1.3 0s.1-1 .7-1.4l56-33.8m-38.2-76.3c.5-.4 1.2-.6 1.5-.3s.2.8-.3 1.2l-42.9 38.5c-.5.5-1.2.7-1.5.4s-.2-.8.3-1.3l42.9-38.5"/><path d="M164 593.3c.5-.3 1.2-.3 1.3 0s-.1 1-.7 1.4l-37.1 22.8c-.6.4-1.2.4-1.4 0s.2-1 .8-1.3l37-22.9m-49.1-86c.2.3-.1 1-.7 1.3s-1.2.5-1.4.1c-5-7.9-10.1-15.7-16.7-20.8-4.8-3.7-10.5-5.9-14-7.3l-2.9-1.2-.7-.6c-.4-.6 0-1.2 1-1.7a1.7 1.7 0 01.2-.1l1.2-.3c1.4-.1 4.1 0 7.3.4a117.5 117.5 0 019.9 1.5l8 2 6.2 2.6.2.2-.8-1.8-1.2-2.6c-1.5-3.4-3-7.6-4-10.4l-.4-1c-.8-1.9-1.2-3-.4-3.7.8-.7 1.5-.6 2.3.3l2.6 3.2 3.5 4.2a127 127 0 003.2 3.6l2.5 2.9a83 83 0 011.5 1.7c1 1.3 2 2.6 3 3.3.4.4.8.7 1.2.8.2-.8.2-2.4.1-4.6v-4.8a121.4 121.4 0 011-13.9c.5-2.3 1.3-3 2.5-2.8h.2c.5.3.8 1 1.3 2v.1l3 7a64.6 64.6 0 011.1 3.1l1 3.3.2.3 2.2 7.1.6 1.5.5-1 2-3.5a78.2 78.2 0 013-4.3 110.9 110.9 0 013.6-4.7 73.3 73.3 0 014.9-5.4c1.3-1 2-1.2 2.3-.3.1.3 0 .8-.2 1.6a65 65 0 01-1 2.7v.1L152 472l-2.5 6.4-2.4 6.1c2-1.9 4.9-4.7 7.7-6.6a20 20 0 015.2-2.4 100.1 100.1 0 018.5-1.4 103.9 103.9 0 014-.4l2.5-.1c1 0 1.5.4 1.3 1.1-.3.9-1.5 1.7-4.2 3.4l-1.7 1-6.2 4.3a66.7 66.7 0 00-6.6 5.2 41 41 0 00-9.4 13.6l-.7 2.6c-.1.5-.7 1-1.3 1.2s-1-.1-.9-.6a27 27 0 016.3-12.4 44.7 44.7 0 014.8-5.2 153.9 153.9 0 0113.3-10l1.7-1a30 30 0 012.1-1.3h-1.9a97.3 97.3 0 00-3.8.4 100.1 100.1 0 00-3.8.5c-1.4.2-2.8.4-4.2.8a16.1 16.1 0 00-4.3 2 54.4 54.4 0 00-7.2 6.3l-1 1c-1.5 1.4-2.3 2-2.9 1.3-.4-.4 0-1.4.8-3.3v-.1l2.2-5.8 2.5-6.4 1.7-4.6.7-1.8-.4.4a71 71 0 00-2.6 3 109 109 0 00-6.3 8.7l-2 3.4c-.6 1.2-1.1 2.1-1.7 2.6-1.1 1.2-1.9 1.2-2.5.2-.3-.4-.6-1.1-1-2.2l-3.3-10.7a61.6 61.6 0 00-1.2-3l-2.8-6.6a96.1 96.1 0 00-.8 12v4.9c.1 2.3.1 4.1-.2 5.2a3.2 3.2 0 01-.6 1.1c-.5.6-1 1-1.7 1a2.5 2.5 0 01-1.3 0l-1.7-1c-1-.9-2-2.1-3-3.5l-1.5-1.7a93.5 93.5 0 00-5.7-6.5 166 166 0 01-2.5-3l3 7.6 2.1 4.5c.8 1.8 1 3-.5 3.7-1 .3-2-.1-3.6-1-1.4-.6-3.5-1.6-6-2.4a67 67 0 00-7.9-2 116 116 0 00-9.7-1.5l-4-.4.7.2c3.6 1.4 9.3 3.7 14.3 7.5 6.7 5.1 11.8 13 16.8 21zm-1.3-23.3c.2.2.3.3.4.2.4-.1 0-.1-.4-.2zm-6.7-19.1zm20.9-5.3c-.3 0-.2 0 0 0zm18.7 26.6c.1.2 0 .1 0 0zm27.7-11c0-.2 0-.1 0 0M260.7 640l-.3-58.4c0-.5.5-1 1-1.3s1.2 0 1.2.4l.3 59.3h-2.2"/><path d="M270.4 594.8l7.2 12 19.9 33.2h-2.9l-19-31.9-7.3-12c-4.6-7.7-6.6-11.2-7.4-13l-11.8 12.4-10.3 11-31.9 33.5h-2l32.4-34.2 10.4-11 12.6-13.1a10.6 10.6 0 01.4-.5c2-1.6 2.1-.9 1.8.2l-.2.4c0 .2.6.4 8.1 13m-9.3 8.5c.6-.4 1.3-.4 1.5 0 .2.2 0 .7-.4 1a403.8 403.8 0 00-31.4 35.7h-2a393.5 393.5 0 0132.3-36.7zM238 640h3l1.2-.7 6.5-4.4.8-.7-3 4.3-1 1.5h2l.8-1.2c2-2.7 3.5-5 4-6 .2-.7.2-1-.2-1.3-.8-.3-2.1.6-4.3 2.2a110 110 0 01-9.8 6.3"/></g><g fill="#ed1174"><path d="M442.2 594.2a25.6 25.6 0 016.5 13.7 29 29 0 01-.5 10.8 69 69 0 01-5.7 15.5 155 155 0 01-3 5.8H437c1.2-2.1 2.2-4.1 3.1-6a68 68 0 005.7-15.3 25.4 25.4 0 00-2.2-18.4c-1.2-2.2-2.5-4-3.6-5.3-1.1-1.3-2-2.2-3-2.8-1-.5-2-.8-3.6-.8-1.6-.1-3.6 0-6 .8-2.5.8-5.4 2.3-8.5 5a80.2 80.2 0 00-10.4 11.4c-3.8 4.9-7.9 10.5-12.3 16.8L386 640h-2.6l10.5-15.1 12.4-16.8a82 82 0 0110.7-11.8c3.4-2.9 6.6-4.5 9.4-5.4a21.1 21.1 0 017.5-1c2 0 3.5.4 4.9 1.1 1.2.7 2.2 1.7 3.4 3.2"/><path d="M383.4 640l10.5-15.1 7-9.8 6.6-8.5c.3-.4 1-.6 1.6-.4.3 0 .5.1.6.3l3.3 5.1c1.6 2.7 3.2 5.5 5 7.4 2 2.2 4.3 3.3 6.4 4.2 1.2.6 2.3 1 3.3 1.8 1.9 1.3 3 3.3 4.3 5.4a48.4 48.4 0 003.4 4.9l3.4 4.7H436l-2.9-4-1.8-2.3a48 48 0 01-1.6-2.6c-1.2-2-2.3-3.9-4-5-.8-.7-1.9-1.1-3-1.6-2.2-1-4.6-2.2-7-4.6-1.8-2-3.5-4.9-5-7.6l-2.3-3.6-5.2 6.9-7 9.8L386 640h-2.6m21.8-21.4c.2-.4.9-.7 1.5-.7s1.1.5 1 .9l-2.9 7c-.1.4-.8.7-1.5.7s-1-.5-.9-.9l2.8-7m7.3 3.8c.4-.3 1.2-.5 1.8-.3s.7.6.3 1l-5.4 5.3c-.4.4-1.1.5-1.7.3s-.7-.6-.3-1l5.3-5.3m4 5.3c.2-.4 1-.7 1.6-.7s1 .4 1 .8l-2.7 7.1c-.1.4-.8.8-1.5.7s-1-.4-1-.8l2.7-7.1m9.2 7.6a1.9 1.9 0 011.8-.2c.5.2.6.7.2 1l-4.4 3.6a1.6 1.6 0 01-.7.3h-.8a1.4 1.4 0 01-.2 0c-.6-.3-.7-.8-.2-1.1l4.3-3.6m4.2 3.9c.2-.4.9-.7 1.5-.7s1 .5.9.9l-.3.6h-2.5l.4-.8m-32.7-5.6c-.4-.3-.2-.8.3-1s1.4-.3 1.8 0l5.3 4.7c.4.3.2.8-.4 1s-1.3.3-1.7 0l-5.3-4.7m8.1-.5c-.4-.3-.4-.8.1-1s1.3-.4 1.8-.2l3.3 2c.4.3.4.8-.1 1.1s-1.4.4-1.8 0l-3.3-2"/><path d="M421.4 630c-.5-.1-.6-.6-.1-1a1.9 1.9 0 011.7-.2l3.6 1.5c.5.3.6.7.1 1s-1.2.5-1.7.3l-3.6-1.5M408 616c-.5-.3-.5-.8 0-1.1s1.3-.4 1.8-.2l3.3 1.9c.5.3.5.7 0 1s-1.3.4-1.8.2L408 616m-11.4 10c.2-.4 1-.6 1.6-.5s1 .5.7 1L395 632c-.2.4-1 .6-1.6.5s-1-.5-.7-1l3.8-5.6m-6 10c.2-.4.9-.7 1.5-.6s1.1.4 1 .8l-1.5 3.8h-2.4a.5.5 0 010-.2l1.4-3.8m37.4-2.8c-.3-.3 0-.8.6-1s1.3-.1 1.6.2l4 4.7c.2.3 0 .8-.6 1s-1.4.1-1.7-.2l-4-4.7"/></g><path d="M542.7 640l.7-3.6c.5-2.6 1.3-4.4 2-5.8s1.8-2.5 2.6-3.5c.3-.4.9-.2 1.2.4s.5 1.3.2 1.6c-.9 1-1.7 2-2.4 3.3s-1.5 3-2 5.4l-.4 2.2zm-14.6 0l.5-.8 4-7.2c1.5-3.8 1.4-7 1.2-10.2 0-.6.3-1 .8-.8s.8.9.9 1.5c.2 3.5.3 7-1.4 11.1-.8 2-2 4.1-3.4 6.4zm-11.5 0l1-1.9c.1-.4.6-.4 1 .1s.6 1.3.4 1.7zm-8 0l.4-.6c1.3-2.3 2.4-4.2 3-5.7.9-2 .7-3 .5-3.9a1.6 1.6 0 010-.5c0-.3 0-.5.3-.6.3-.2.7.1 1 .6a2.4 2.4 0 01.1.2l.2.4c.3 1.4.6 2.8-.5 5.5l-2.4 4.6zm-14 0a56.2 56.2 0 016-9.8c1.4-1.8 2.6-3.5 3.5-5.3 1.6-3.3 2-7.3 2.5-11.3v-.3c.2-.1.4-.2.6 0 .2 0 .4.4.4.7a.9.9 0 010 .3A37 37 0 01505 626c-.9 2-2.1 3.6-3.5 5.5a60.2 60.2 0 00-5.4 8.5zm75.2 0h2a54.7 54.7 0 014.7-10.3l.6-1c1.4-2.2 1.8-3-.1-4.4a72 72 0 00-5-2.3 3 3 0 00-.9-.7c-.4-.3-1.4-.4-3.6-.8l-7.9-1.5c-6.3-1.2-15.9-3.2-25.1-5.7-6.4-1.7-12.6-3.7-17.4-5.7-7.3-3.2-11.4-6.7-13.7-8.8-1.6-1.3-2.5-2.2-3.4-2-1.1.2-1.5 2.1-2 5-.5 2.7-1.2 6.4-2.7 10.5-1.7 4.5-4.4 9.6-7.1 14.7-2.2 4.2-4.4 8.3-6 12.2l-.4.8h2.3a185 185 0 015.6-11.2c2.7-5.1 5.4-10.2 7.1-14.9 1.6-4.2 2.3-8 2.8-10.7.5-2.4.8-4 1.2-4 .3 0 1 .5 2.1 1.5 2.5 2.1 6.7 5.8 14.3 9.1a135 135 0 0017.6 5.8 373 373 0 0025.2 5.8l8 1.4 1.4.3c-.8 1-2 2.5-3 4.8-1 1.8-1.7 4.1-2.4 6.6-.6 1.8-1 3.6-1.4 5.5h2a103.3 103.3 0 011-4c.7-2.4 1.4-4.6 2.2-6.4 1.2-2.4 2.6-4 3.4-5l.5-.5 2.9 1.1 2 1c.4.4-.5 0-1 .7l-.5 1a57.3 57.3 0 00-5 11.3l-.3.8" fill="#42b0b8"/><g fill="#a31f71"><path d="M334 72.8c-.2.3-.4.6-.7.7l-.8.7-2.1 1-1.8.3c-2.5 0-4 0-5.2-.7-1.2-.6-2.1-1.7-3.4-3.8-.4-.6-.5-1-.6-1.4-1 1.1-2.5 2.4-4 3.4-1.8 1.1-3.6 1.9-5.1 1.9-1.1 0-2.8-.1-4.4-.5a8.7 8.7 0 01-3-1.1 12.9 12.9 0 01-3.2-3.3c-.3.6-.7 1.2-1.3 1.8a11 11 0 01-5.2 3 19 19 0 01-5.3.5 10 10 0 01-4.3-1.5 19.4 19.4 0 01-3.7-2.7 7.8 7.8 0 01-4.2 3.7c-2.5 1.1-5.5 1.4-7.7 1.3-6.4-.3-7.1-1.4-10.3-5.5l-.8-1a13.4 13.4 0 00-2-2 5.7 5.7 0 01-.4.8c-1 2-3 4.4-5.4 6-2 1.2-4 1.9-6 1.3-1.7-.6-3.3-1.6-4.7-2.8a35.3 35.3 0 01-3.8-3.8l-.1.4a9.5 9.5 0 01-1 1.6v.1c-1.6 2-3.8 3-6 3.3a12 12 0 01-6-1.2c-1-.4-1.9-1-2.7-1.5l-1.3-1.3-1.6-1.4-.2.3-.3.4a10.8 10.8 0 01-8.6 3.4c-3-.1-6-1.2-8.2-2.8a11.7 11.7 0 01-.5-.4 26.3 26.3 0 01-.7-.6c-1.2-1.1-2.7-2.6-3.7-2.1a7 7 0 00-1.6 1.3c-1.4 1.4-2.9 2.9-5.9 3-3.6.2-6.7-1.8-9.5-3.6l-1-.5c-.3-.3-.2-.8.3-1.3s1.1-.7 1.5-.4l1 .5c2.6 1.7 5.5 3.5 8.6 3.4 1.8 0 2.7-1 3.7-2a10 10 0 012.6-2c2.4-1.2 4.4.7 6 2l.6.7.4.3c2 1.5 4.7 2.5 7.4 2.6 2.4 0 4.7-.6 6-2l.3-.4a4 4 0 00.3-.6c.7-1.3 1-1.7 2.7-1.3.4.2 1.4 1.1 2.3 2 .5.4 1 .9 1.3 1v.1a13.6 13.6 0 002.4 1.4c1.7.8 3.5 1.2 5.2 1.1 1.3-.1 2.6-.7 3.4-1.8l.7-1.2a16.8 16.8 0 00.3-.6c.3-.6.5-1.2 1-1.6v-.2c1-.8 1.9-.9 2.9.3a35 35 0 003.6 3.8c1.4 1 2.8 2 4.4 2.5 1.3.4 2.6 0 3.7-.8 1.8-1.1 3.4-3.1 4.2-4.6a4.3 4.3 0 00.4-.8c.2-.8.4-1.3 1.5-2 .4-.3.8-.4 1.1-.3.8.2 1.4.7 2 1.2l1.4 1.6.8 1c3 3.8 3.7 4.8 9.4 5 1.9.1 4.5 0 6.5-1 1.2-.4 2.1-1.2 2.5-2.4l.4-1.6c0-.5 0-.7.7-1.1 1.3-.9 1.3-.5 1.5 0 0 .2.2.5.6 1 .9 1 2.4 2.2 4 3.1 1.3.7 2.6 1.2 3.6 1.3 1.8 0 3.4 0 4.7-.3 1.2-.3 2.3-1 3.4-2 .8-.8 1-1.8 1.2-2.4.2-.6.4-1.1 1.1-1.5.9-.5 1.4-.3 2 .8a12.5 12.5 0 003.4 3.6c.5.4 1.5.7 2.6 1 1.4.3 3 .4 4 .4a11.6 11.6 0 006.7-4.3l.2-.5c0-.3.1-.4.4-.8.6-.6.9-.6 1.6-.6h.2c.3 0 .5.1.6.3.3.4.4.8.5 1.2.1.4.2.8.6 1.3 1.2 2 2 3 3 3.5s2.3.5 4.5.5l.9-.2 1.5-.7.4-.7 2.2-4.5v4l-.1.3-.2.2-.3.8zm-34-4.3h-.1c-.3.3-.1.1.1 0zm-65.1-.1c.1-.2.2-.3 0-.2v.2"/><path d="M308.4 73.3c0 .5-.6 1-1.2 1.3s-1 0-1-.5a156.4 156.4 0 015.5-24.9l.6-1.4 4.2-9.9c-.3-2.2-5.1-1.8-8.2-1.5l-1.8.2h-.1c-3.9.1-7.2.6-10.4 1-4.5.7-8.9 1.3-14.7 1.2-12.5-.3-25-.2-37.5 0l-26.3.2a115 115 0 01-20.2-2l-4.7-.8c.2 3.5 2 6.2 4 9.3l1.4 2 3.5 5.4c3.9 6 7.5 11.4 11 18.2.1.4-.2 1-.8 1.3s-1.2.4-1.4 0c-3.4-6.8-7-12.2-10.9-18L196 49l-1.4-2.1c-2.5-3.7-4.6-6.8-4.2-11.5l.2-.5c.4-.5 1-.9 1.6-.8l6.4 1c6.6 1 11.7 2 20 2l26.2-.2h37.5c5.7.1 10-.5 14.3-1.1 3.3-.5 6.6-1 10.7-1.1l1.8-.2c3.6-.3 9.2-.8 9.6 2.4 0 .7-3 7.5-4.3 10.7l-.6 1.5a154.9 154.9 0 00-5.4 24.3"/><path d="M195.2 47.3c-.5 0-.7-.4-.4-1s1-.9 1.5-.8h.1l53 1.8c14.3 0 26-.5 35.8-1l3.1-.1 26.2-1.1c.6 0 .8.4.6 1s-1 .9-1.5.9l-26.2 1-3.1.2c-9.8.5-21.6 1-35.8 1-15.8 0-34.5-1-53.2-1.9M263 36c0 .5-.5 1-1.1 1.3s-1.1 0-1.1-.4L260.7 0h2.2l.2 36"/><path d="M297.5 0l6 10 7.2 13.1c1 2.3 1 2.8 1 3.2-.5 1.7-.8 1.7-10.1 1.7h-.1c-8.1 0-24.1.2-45.7-.3l-34.2-1-27.8-.9c-6.7-.2-10-.4-9.9-2.5 0-2 3-4.9 8.6-10.6l2.5-2.6L204.8 0h2.2l-10.6 10.9-2.5 2.6c-5.1 5.2-7.7 7.9-7.8 9 0 1 2.8 1.2 8.8 1.4l27.8 1 34.1 1 45.8.2c6.8 0 6.7 1.4 6.8.7 0-.2 0-.4-.9-2.4-1-2-3-5.9-7.2-13L294.6 0h2.9m-66.7 0l-.8 1.3c-.3.6-.4 1-.4 1.4 0 .2.1.3.4.4.3 0 .8 0 1.5-.2a34 34 0 006.4-3h3c-3.3 2-7 4-9.7 4.8-1 .3-1.9.4-2.5.3-.8-.2-1.3-.6-1.3-1.3 0-.6.1-1.4.6-2.4l.8-1.3zm16.6 0h-2a184 184 0 01-5.5 7l-2.2 2.6c-2.2 2.6-3.6 4.3-3.5 5.3 0 .6.6.9 1.7.7 1.2-.1 3.2-.8 5.5-1.5 3-1 6.5-2.1 8-2 1 0 1 .7.7 1.7-.5 1.3-1.6 3-2.7 4.9-.3.5-.2 1 .4 1s1.2-.3 1.5-.9c1.2-1.9 2.3-3.8 2.9-5.4.6-1.8.4-3.1-1.7-3.2-2-.1-5.7 1-9 2.1l-4.9 1.5c-.1 0-.2.1-.2 0 0-.2 1.1-1.6 2.8-3.6l2.4-2.7c1.8-2.3 4-5 5.8-7.5"/></g><g fill="#ed1174"><path d="M391.7 45.3c.2-.4 1-.7 1.6-.6s1 .5.7 1l-3.3 5.8-3.4 6.3-1.2 2.6c-2 3.9-4 8-6 10.4a10.5 10.5 0 01-4.4 3.2c-1.6.6-3.2.7-4.7.4a9 9 0 01-3.7-1.4c-1-.7-1.8-1.6-2.2-2.7s-.5-2.2 0-3.9c.3-1.6 1.2-3.7 2.6-6.5 1.3-2.7 3.3-6.3 5.1-9.6l5-8.8 2.5-4.2c.2-.4 1-.7 1.6-.6s1 .5.7 1l-2.5 4.2-5 8.7-5 9.6a32.7 32.7 0 00-2.6 6.2 5.4 5.4 0 000 3.4c.4.8 1 1.5 1.7 2 .8.6 1.8 1 2.7 1.2 1 0 1.8 0 2.7-.3a8 8 0 003.3-2.4c2-2.4 4-6.3 5.8-10.2l1.2-2.5a165.5 165.5 0 013.5-6.5l3.3-5.8"/><path d="M439.5 0a645.5 645.5 0 01-21 34 117 117 0 01-8.3 11.7c-2.4 2.7-4.5 4.1-7 4.5s-4.9-.3-7.3-1.4a44 44 0 01-6.3-3.9 219 219 0 01-5.6-4l-5.2-3.9c-4-3-9.3-6.7-6.7-15.8a71.1 71.1 0 018.6-17l2.7-4.2h2.6l-3 4.6c-4 6.3-7.2 12.2-8.5 16.6-2.3 8.5 2.5 12 6.3 14.8l.3.2 4.9 3.6 5.6 4c1.8 1.4 3.9 2.8 6 3.7 1.9 1 3.8 1.5 5.3 1.2s3.2-1.3 5.1-3.6a117 117 0 008.3-11.4A640 640 0 00437 0h2.5"/><path d="M439 1A665 665 0 01418.6 34c-3.6 5.3-6.2 9-8.4 11.6-2.4 2.7-4.5 4.1-7 4.5s-4.9-.3-7.3-1.4a44 44 0 01-6.3-3.9l-5.6-4-4.9-3.6a3.5 3.5 0 01-.3-.3c-4-3-9.3-6.7-6.7-15.8a71.1 71.1 0 018.5-17l2.8-4.2h2.6l-3 4.6c-4 6.3-7.2 12.2-8.5 16.6-2.3 8.5 2.5 12 6.3 14.8l.3.2 4.9 3.6 5.6 4c1.8 1.4 3.9 2.8 6 3.7 1.9 1 3.8 1.5 5.3 1.2s3.2-1.3 5.1-3.6c2.2-2.4 4.8-6.1 8.3-11.4l10-15.7c3.6-5.6 7.2-11.6 10.2-17.1l-.5-1h2.8l.2.5V1m-16.3-1a2 2 0 01-.8 0h.8"/><path d="M432.1 0l-2 4.5c-.2.4-.9.7-1.5.6s-1-.4-.9-.8l2-4.3h2.4m-14.7 1.8c.7-.2 1.4 0 1.6.3s0 .9-.7 1l-4.4 1.4c-.6.2-1.3 0-1.6-.3s0-.8.7-1l4.4-1.4m7.7 7.8c.2-.5.9-.8 1.6-.7s1 .4.8.9l-2 4.9c-.2.4-.9.7-1.6.6s-1-.4-.8-.8l2-5M415 11.4c.6.2.7.6.3 1s-1.1.5-1.7.3l-4.9-1.6c-.6-.2-.7-.7-.3-1s1.1-.6 1.7-.4l5 1.7M421.4 6c.2-.4.9-.7 1.6-.6s1 .4.8.9l-1.6 3.7c-.2.4-.9.7-1.5.6s-1-.4-.9-.9l1.6-3.7m-27-4.3c-.5-.2-.6-.7-.2-1a1.9 1.9 0 011.8-.3l7.6 3.2c.5.2.6.7.2 1a1.9 1.9 0 01-1.8.3l-7.6-3.2M407.7.7c.2-.4.9-.7 1.6-.6s1 .5.7 1l-1.5 2.7c-.2.4-.9.6-1.6.5s-1-.4-.7-.9l1.5-2.7m-16.8 9c-.6.3-1.4.2-1.7-.1s-.1-.9.5-1.1l4.2-1.8c.6-.2 1.4-.1 1.7.2s.1.8-.5 1L391 9.8m.7-9.7c-.1.4-.8.7-1.5.7-.6 0-1-.4-1-.7h2.5m13.5 5.8c.2-.4 1-.6 1.6-.5s1 .5.7.9l-2.8 4.7c-.2.4-1 .7-1.6.6s-1-.5-.7-1l2.8-4.7m1.4 7.7c-.3-.3 0-.8.6-1s1.4-.1 1.7.2l3.9 4.7c.3.3 0 .8-.6 1s-1.4.1-1.7-.2l-3.9-4.7m11.5 2.3c.5-.3 1.3-.3 1.7 0s.3.8-.3 1l-3.5 1.9c-.5.3-1.3.3-1.7 0s-.3-.8.3-1.1l3.5-1.8m1.5 3.4c0-.4.5-.8 1.2-.9s1.2.2 1.3.7l.3 3.9c0 .4-.5.8-1.2.9s-1.2-.2-1.3-.6l-.3-4m-41 11.3c-.2.4-1 .6-1.6.5s-.9-.5-.6-1l4.4-6c.3-.5 1-.7 1.6-.6s1 .6.7 1l-4.5 6.1m4.6 7.7c0 .4-.7.7-1.4.7s-1.1-.3-1-.8l1.5-7.3c.1-.5.7-.8 1.4-.8s1.2.4 1 .8l-1.5 7.4m6.4 1c-.3.5-1 .7-1.7.6s-.8-.6-.5-1l4.5-6c.3-.4 1-.6 1.7-.5s.9.6.6 1l-4.6 6m11.6 3c0 .4-.6.8-1.3.8s-1.2-.3-1.1-.7l.6-5.6c0-.4.7-.7 1.4-.8s1.2.3 1.1.8l-.7 5.5m5.3 2c-.2.5-1 .7-1.6.6s-1-.5-.7-1l3.1-4.6c.3-.4 1-.6 1.6-.5s1 .5.7 1l-3 4.6M402 31c0 .4-.4.8-1 1s-1.4-.2-1.5-.6l-1.2-4.4c-.1-.4.3-.8 1-1s1.3.2 1.4.6l1.3 4.4m-20.3-10.6c-.6-.1-.8-.6-.4-1s1-.5 1.7-.4l6.8 2c.6.2.8.6.4 1s-1.1.6-1.7.4l-6.8-2"/><path d="M385.4 27.4c-.5-.2-.5-.7 0-1s1.2-.4 1.7-.2l3.4 1.7c.5.3.6.7.1 1a1.9 1.9 0 01-1.8.2l-3.4-1.7m27.2 7.3c-.3.4-1 .7-1.7.5s-.9-.5-.6-.9l3-4.4c.3-.4 1-.6 1.6-.5s1 .6.7 1l-3 4.3m-4.7-12.1c.4.3.2.7-.3 1s-1.4.3-1.8 0l-4-3.3c-.4-.3-.2-.8.3-1s1.4-.3 1.8 0l4 3.3m-.3 10.9c-.3.4-1 .6-1.6.5s-1-.5-.7-1l2.3-3.3c.3-.4 1-.6 1.6-.5s1 .5.7 1l-2.3 3.3m-16.4 9c-.4-.4-.4-.9.2-1.2s1.3-.3 1.7 0l3.2 2.2c.4.3.4.8-.2 1s-1.3.4-1.7 0l-3.2-2M377.5 23c-.2.5-.9.7-1.5.7s-1-.5-1-.9l2.9-6.2c.2-.4.8-.7 1.5-.6s1 .4.9.8l-2.8 6.2m9-9.7c-.4-.2-.3-.7.2-1s1.3-.3 1.8 0l6.7 4.7c.4.3.3.8-.2 1.1s-1.3.3-1.7 0l-6.8-4.8m9.3 11.3c-.2.4-1 .7-1.6.6s-1-.5-.7-.9l1.4-2.7c.3-.4 1-.7 1.6-.6s1 .5.8.9l-1.5 2.7M385.3 2.5c-.4-.3-.3-.8.2-1s1.3-.4 1.8-.1l3.8 2.5c.4.3.3.8-.2 1s-1.3.4-1.7.1l-3.9-2.5m-2.7 10.4c-.3.4-1 .6-1.6.5s-.9-.6-.6-1l2.4-3.2c.3-.4 1-.6 1.7-.5s.8.5.6 1l-2.5 3.2m15.5-.6c-.2.4-1 .6-1.6.6s-1-.5-.8-1l2.5-4.8c.2-.4.9-.7 1.5-.6s1 .5.8.9l-2.4 4.9m-.6 4.4c-.6-.1-1-.5-.7-1s1-.6 1.6-.5l6 .8c.6 0 1 .5.8.9s-1 .6-1.6.6l-6-.8m16.6 7.7c0 .4-.5.8-1.2.9s-1.3-.2-1.3-.6l-.3-4c0-.4.5-.8 1.1-.9s1.3.2 1.4.6l.3 4m3 .9c-.6.3-1.4.3-1.8 0s-.3-.8.2-1.1l3.5-1.8c.6-.3 1.4-.3 1.8 0s.3.8-.3 1l-3.5 1.9m14-20c.6-.3 1.4-.3 1.8 0s.3.8-.3 1l-3.5 1.9c-.5.3-1.3.3-1.7 0s-.3-.8.2-1.1l3.5-1.8m-4.2-2c.6.3.7.7.3 1s-1.1.6-1.7.4l-5-1.6c-.5-.2-.6-.7-.3-1s1.2-.6 1.8-.4l4.9 1.7"/></g><path d="M479.3 23.3c-4.8 7.7-9.7 15.4-12.9 25-1.6 4.8-2.8 10-4 15.1-1.3 5.5-2.5 10.7-4.1 15a62.6 62.6 0 01-4.9 10c-1 1.9-2.2 2.5-2 2.8h2.5c3.2 0 8.7 0 16.6 2.4 5 1.5 11.1 4.1 17.1 7 8.7 4.1 17.3 8.9 23 12l6.9 4.1 2.5 1.5v-.5c0-1.3 0-3.5.8-6.4a44 44 0 012.5-6.6c1-2.3 2.3-4.8 3.6-7.1l1.8-3.3a96.6 96.6 0 008.6-19 162.7 162.7 0 002.6-8.6c1.5-5.3 2.6-10.4 3.8-15.5l-17.1-8-17.3-7.9a694.8 694.8 0 00-30-12zM481.8 0h2.3l-.4 1a67.8 67.8 0 00-5 19.9 701.5 701.5 0 0147.8 20l17.6 8.3A364 364 0 00555.5 26l3-8.1c1.2-4.2 2-8 2.8-11.9l.7-3.7.6-2.3h2l-1 3.7-.7 3.7a97.7 97.7 0 01-6 20.3 167.9 167.9 0 01-3.6 8.3A350 350 0 01546 50l3.6 1.8.2-.5c0-.2.2-.4.3-.5l1.3-2.2 2.8-4.7.8-1.3c2.2-3.6 5.1-8.2 7-12.6 1.2-2.5 2-4.9 2.6-7.3l1.8-7.6.4-2.4c.9-4.3 1.7-8.8 3-12.8h2l-.2.7c-1.3 4.1-2.2 8.9-3.1 13.4l-.5 2.5c-.5 2.6-1 5.2-1.7 7.7s-1.6 5-2.7 7.5c-2 4.5-4.9 9.2-7.1 12.8l-.8 1.3-2.8 4.6-1.5 2.5-.7 3.8-.9 5.4-.2 1.4c-.7 4.2-1.5 9.7-3 14.4-.7 2.7-1.7 5.1-2.8 7.5a110 110 0 01-3.7 7l-1.2 2c-2.3 4.1-4.8 8.4-6.4 12.3a53.8 53.8 0 00-2 5.7c-.8 2.3-1.2 4.4-1.5 5.9l-.2 1c-.3 2.2-.4 2.9-1.8 2.8a86.2 86.2 0 01-5.6-1.7c-.2.1-.4.2-.7.1-.5 0-1.4-.6-3.3-1.7l-7-4c-5.5-3.2-14-8-22.7-12-6-3-12-5.5-17-7a49.9 49.9 0 00-16.2-2.4c-2 0-3.3 0-4-.9-1.2-1.5-.2-3.3 1.5-6.1 1.3-2.4 3.2-5.6 4.7-9.7 1.6-4.2 2.8-9.4 4-14.8 1.2-5.1 2.5-10.4 4.1-15.2a110 110 0 0112.2-24 1.8 1.8 0 01-.2-1c.8-6.8 1.6-13.5 5-21.8zm12.8 0c-1.7 3.5-3.2 7.4-4.8 11.3-.2.3 0 .8.2 1s.6.4.7 0c1.8-4.3 3.6-8.6 5.4-12.3zm14 0l-2.2 3.9c-1 2-2.2 4.2-3.2 6.5L500 17c-.2.4 0 1.2.4 1.7s.9.5 1.1 0l3.2-6.7c1-2.1 2-4.3 3.2-6.4l2.6-4.5.7-1.2zm8 0l-.7 1.3-1.6 3.4-1.9 4-1.9 4.2c-.2.5 0 1.2.5 1.7s.9.5 1 0l2-4.2 1.8-4 1.6-3.4 1.6-3zM528 0h2.6l-.7 1a103 103 0 00-3.7 6.4c-2.7 5-4.6 10.7-6.5 16.3-.1.5-.6.5-1 .1s-.7-1.2-.5-1.7c1.9-5.6 3.8-11.3 6.5-16.5 1-2 2.2-3.8 3.3-5.6zm14.6 0h2c-.4 1.6-.6 3.5-.9 5.4-.5 3.8-1 8-1.9 11.4a36.5 36.5 0 01-3 8c-1.3 2.3-2.6 4.3-3.9 6.3-.3.4-.8.3-1.2-.3s-.5-1.2-.2-1.6c1.3-2 2.6-4 3.8-6.3s2.1-4.6 2.9-7.6c.9-3.3 1.4-7.3 1.9-11l.5-4.3zm-30.2 97.3c-.2.4-.8.3-1.2-.2s-.5-1.2-.3-1.6c2.5-4.1 5-8.2 6.5-12.9.8-2.8 1.4-5.9 2-8.8l1-5.5c1.1-4.4 2.7-7.7 4.3-10.9.2-.4.7-.4 1.1 0s.6 1.3.4 1.7c-1.5 3.2-3 6.4-4.1 10.6A93 93 0 00521 75c-.5 3-1.1 6.1-2 9-1.6 5-4 9-6.6 13.2zm-12-3.8c0 .5-.5.6-1 .2s-.7-1-.6-1.6l4.1-17.6c1.4-5.5 2.7-10.4 4-14.1 2.6-7.5 5-10.2 7.4-12.9.3-.3.9-.2 1.2.4s.5 1.3.2 1.6a30.7 30.7 0 00-7.2 12.5c-1.3 3.6-2.6 8.5-4 14l-4 17.5zm-9-11.6c-.2.4-.7.5-1.2 0s-.6-1.2-.4-1.7l3-8 2.5-6.1 1.6-4.2c1-2.5 1.5-3.2 1.9-4 .2-.4.7-.3 1 .1.5.5.7 1.3.5 1.7-.4.8-.8 1.4-1.8 4l-1.7 4-2.4 6.1-3 8zm-12.3 2.8c-.2.4-.7.3-1.1-.2s-.6-1.2-.4-1.6l4.2-8a72.3 72.3 0 007-21.7 24 24 0 013.6-7.4c.2-.4.8-.3 1.2.3s.5 1.3.2 1.6a22.9 22.9 0 00-3.4 7c-.4 1.3-.7 2.8-1 4.5-.8 2.8-1.5 6.1-2.7 9.5-1 2.6-2 5.3-3.4 8l-4.2 8zM465 82.3c-.3.4-.8.3-1.2-.2s-.5-1.3-.3-1.7a63.1 63.1 0 008.6-17.1c1.3-3.9 2.4-8.4 3.4-12.5.9-3.4 1.7-6.7 2.5-9.1a18 18 0 015.7-9.1c.3-.4.8-.1 1.2.4s.4 1.3 0 1.6a16.8 16.8 0 00-5.3 8.6c-.8 2.4-1.6 5.6-2.4 9-1 4.2-2.2 8.8-3.5 12.7a64.8 64.8 0 01-4.1 9.5l-4.6 8zM549.3 54l-.2 1.5-1 5.4-.2 1.4c-.6 4.2-1.4 9.6-2.8 14.2a51 51 0 01-2.9 7.2c-1 2.3-2.3 4.6-3.6 6.9l-1.2 2.1c-2.3 4.1-4.8 8.4-6.5 12.4a55.1 55.1 0 00-2 5.8c-.8 2.5-1.3 4.6-1.5 6.2l-.2 1c-.2 1.3-.3 1.7-.8 1.7s-1.4-.2-2.3-.5l-2.4-.9c0-1.2 0-3.1.7-5.6.5-1.9 1.4-4 2.4-6.3 1-2.4 2.3-4.8 3.6-7.1l1.8-3.3a123.7 123.7 0 008.8-19.3c1-2.8 1.8-5.8 2.6-8.7 1.5-5.5 2.7-10.8 3.8-16l4 1.8" fill="#42b0b8"/><g fill="#29576b"><path d="M160.8 170.4h.2c5 1 10 2 13.4 1a9.5 9.5 0 004.2-3c1.4-1.7 2.9-4 4.6-6.8l.9-1.4c3.5-5.9 8-13.4 15-17.7 3.8-2.4 8.2-3.7 12.7-4.3 4.8-.5 9.7-.2 14.3 1 4.6 1 9 3 12.5 6a25 25 0 017.4 10.6 44.4 44.4 0 01-1.9 32.8 38 38 0 01-9.2 12 49.9 49.9 0 01-28.5 12c-4.8.1-9.8-.6-15-2.5a79.2 79.2 0 01-28.3-18.6c-3.3-3.3-5.1-6.3-6-9-1-2.7-1-5.2-.3-7.5a16.9 16.9 0 01.1-.6 1 1 0 01-.3 0l-4.4-.7a33.8 33.8 0 01-5-1.3c-2-.7-4.1-1.7-6.2-3a21.3 21.3 0 01-8.4-9.2c-1-2-1.6-4.2-2-6.2-.3-1.9-.3-3.6 0-5 .2-.6.5-1.3.9-1.8.5-.7 1.3-1.2 2.2-1.3a3 3 0 011.1 0c2 .4 4.7 3 7.3 5.5l2.6 2.4c1.6 1.3 3 2.3 4.1 2.9 1.1.6 2.1 1 3 1 1 .2 1.8.2 2.5 0 .6-.2 1.2-.5 1.8-1 .6-.8 1.3-1.7 1.9-2.8a17.4 17.4 0 001.4-3.9c.3-1 .4-2 .5-2.9.2-1.7.4-3 1.5-3.8 1-.7 2-.6 3-.1a10.6 10.6 0 014.2 4.5 9 9 0 01.7 3.8c0 1.6-.4 3.6-1 5.7-.7 1.9-1.5 3.9-2.6 5.8l-2.6 4-2.3 3.4zm13.4 2.7c-4 1.3-9.3.3-14.5-.8a13.8 13.8 0 00-.8 2.2c-.5 2-.6 4.3.3 6.8.9 2.6 2.7 5.4 5.8 8.7a78.3 78.3 0 0027.9 18.3 37.7 37.7 0 0027.6-.7 46 46 0 0013.2-8c3.4-3 6.4-6.6 8.5-11a42.6 42.6 0 001.7-31.6 24.1 24.1 0 00-7.2-10.2 29.7 29.7 0 00-12-5.8c-4.4-1-9.1-1.4-13.6-.9-4.1.5-8 1.7-11.3 3.7a46.7 46.7 0 00-13.8 16.5l-.9 1.4a51 51 0 01-5 7.3c-1.8 2-3.6 3.4-5.9 4.1zm-16.5-.6c1-2 2.3-4 3.6-5.8l2.5-3.8a26 26 0 003.2-10.6c0-1.3-.1-2.4-.5-3.3s-.9-1.6-1.6-2.3a9.5 9.5 0 00-2.3-1.8c-.3-.2-.1-.6-.3-.4l-.2 2c-.1.9-.2 2-.5 3-.4 1.5-1 3-1.6 4.3v.1c-.8 1.4-1.6 2.6-2.6 3.5a8 8 0 01-3.4 2.1c-1.1.3-2.2.4-3.4.2a11 11 0 01-3.5-1.3c-1.2-.7-2.6-1.6-4.2-3l-2.7-2.4a23.9 23.9 0 00-6.8-5.2 1.3 1.3 0 00-.3 0l-.3.8a12 12 0 000 4.3 22.4 22.4 0 005.4 11.2c1.3 1.4 2.9 2.6 4.6 3.7 2 1.2 4 2.1 6 2.8a32.4 32.4 0 004.7 1.3l4.2.6m61.3-16.7c-.2.5-.9 1-1.5 1s-.8-.3-.6-.8v-.1c1-2 2-4.2 4.6-4.7 1-.2 2.2 0 3.5.4l3.9 1.5c.4.1.4.7 0 1.2s-1.2.7-1.6.6l-3.8-1.4c-1-.4-2-.5-2.6-.4-.7.1-1.3 1.4-1.9 2.7"/><path d="M234.3 154.2c-.2.5-.8 1-1.4 1s-.9-.2-.7-.7c.5-1.5 1-3 2.3-3.9a3.7 3.7 0 012.2-.7c.6 0 1.3.2 2 .4l1.4.7a13.7 13.7 0 011.4.9l.6.5.3.4c.1.4-.2 1-.8 1.3s-1.2.4-1.3 0a.6.6 0 00-.2-.1l-.4-.4a12.2 12.2 0 00-1.3-.9 9.8 9.8 0 00-1.3-.6l-1.4-.3h-.3c-.3.3-.7 1.3-1 2.4m12.8 9.4c.6-.1 1 .2.7.8s-.8 1-1.3 1l-11 1.7-9.2 1.7c-2.6.6-4.6 1.2-6.3 1.9a13 13 0 00-4 2.5c-1.1 1-2.1 2.2-3.1 3.5-1.5 1.9-3 3.8-5 5.3a29.2 29.2 0 01-12 4.4 1 1 0 01-.4 0c-.4 0-.5-.3-.5-.7.1-.4.5-.8 1-1a1.8 1.8 0 01.4-.1c3.9-.9 7.7-1.7 10.5-3.8 1.6-1.2 3-2.9 4.3-4.6 1.1-1.4 2.2-2.7 3.4-3.9 1.6-1.4 3.3-2.5 5.3-3.3 1.9-.8 4.1-1.4 6.9-2 2.7-.6 5.9-1.1 9.4-1.7l11-1.7m-34.3-25c0 .5-.4 1.1-1 1.4s-1.2 0-1.2-.4c0-6.6.1-13.2-1.6-17.1-.8-1.7-2-3-3.2-3.8a11 11 0 00-5-1.7c-1.6-.1-3 0-4 .4a3 3 0 00-1.6 1.2c-.4.7-.6 1.7-.6 2.6 0 1.4.3 2.7.7 3.6.6 1.5 1.3 1.8 2.1 2 .4.1.5.5.4 1-.3.4-1 .9-1.5 1a1 1 0 01-.3 0c-1-.4-2.1-.8-2.9-2.7-.4-1-.7-2.5-.7-4 0-1.3.2-2.5.8-3.6.8-1.3 2.1-2.3 3.7-2.9 1.5-.5 3.2-.6 5-.5 1.9.2 4 .8 5.7 2 1.4.8 2.7 2.2 3.5 4a47.8 47.8 0 011.7 17.6"/><path d="M212.4 125.5c-.1.5-.7 1-1.3 1.2s-1-.2-.8-.7l1.3-4.2c.6-1.4 1.4-2.7 2.5-3.7 1.2-1 2.6-1.8 4-2 1.5-.4 2.9-.3 4 .1a5 5 0 012.3 2 7.2 7.2 0 011 3.2c.2 1 0 2-.3 2.9a20 20 0 01-1 2.5c-.2.5-.8 1-1.4 1s-.8-.3-.6-.8l.9-2.3c.2-.7.3-1.5.3-2.3-.1-1-.4-2-1-2.8a4 4 0 00-1.8-1.6c-.8-.3-1.8-.4-2.8-.1-.9.2-1.7.6-2.3 1.1-.7.7-1.3 1.6-1.7 2.7-.5 1.1-.9 2.5-1.3 3.8m-9.3-14.4c-.2-.4-.3-.9-.3-1.3a2.5 2.5 0 01.2-.8 2.7 2.7 0 01.6-1c.5-.4 1-.7 1.6-.7a1.2 1.2 0 01.3 0c.3.2.5.5.7 1l.1 1.2a4 4 0 01-.2 1.2l-.4.7c-.4.5-1 .8-1.5.7a1 1 0 01-.3 0c-.3-.1-.6-.5-.8-1m11.5-4.1c-.4.4-.7 1-1 1.7v1.8c.3.4.6.6 1 .6.2.1.6.1.8 0h.2l.7-.8c.3-.5.5-1.1.6-1.6l-.1-1.3a1.4 1.4 0 00-1.7-.8c-.2 0-.4.2-.5.4zm-3 2.1c.2-1 .7-2 1.4-2.7.7-.9 1.6-1.4 2.4-1.6.9-.3 1.7-.2 2.3 0 .5.3 1 .8 1.2 1.3.2.5.3 1.2.2 2-.1.7-.5 1.6-1 2.4a6 6 0 01-2.6 2.3 4 4 0 01-2.4.2c-.7-.2-1.2-.5-1.5-1.1a2 2 0 01-.1-.3c-.3-.6-.2-1.6 0-2.5"/></g><g fill="#e8166b"><path d="M522.4 174v4.5c-.2 8.3-.4 19.3 0 26.8.1 4.4.5 7.6 1.6 10 1 2.2 2.8 3.7 5.7 4.6 3 1 7.2 1.5 12.3 1.7 5.3.2 11.5.1 18.3 0l21.4-.2c7-.1 13.3-.3 17.8-.6 4.3-.3 6.8-.7 8.2-1.5 1.2-.6 1.8-1.8 2.4-3.8.7-2.4 1.4-5.8 1.9-9.6a109.8 109.8 0 00.9-11.7 126.4 126.4 0 00-3-29.3c-.5-1.5-1.2-2.6-2.1-3.3s-2.2-1.2-3.9-1.5l-6.8-.8c-5.9-.6-14.3-1.5-25.8-1.3-5.7 0-12.2.4-18.4.8l-16.5 1.3c-4.4.3-7.5.6-9.6 1-1.8.3-2.7.6-3.2 1-1 1-1 3.4-1.2 10zm-2.3 5.3l.1-6.4c.1-7.2.1-9.7 2-11.6 1.2-1 2.7-1.7 5.2-2.1 2.2-.4 5.3-.6 9.8-1l16.6-1.3c6.2-.4 12.7-.7 18.5-.8 11.6-.2 20 .7 26 1.3 2.9.3 5.1.5 7 .9 1.8.3 3.2.8 4.3 1.7s1.9 2 2.5 3.7c.6 1.6 1 3.8 1.5 6.7a139.6 139.6 0 01.6 34.8 67 67 0 01-2 9.9c-.8 2.7-1.8 4.4-4 5.7-2 1-4.8 1.5-9.5 1.9-4.5.3-11 .5-18 .6l-21.3.3-18.4-.1c-5.4-.2-9.7-.7-12.8-1.8-3.3-1-5.2-2.6-6.3-5.1a28.7 28.7 0 01-1.8-10.4c-.3-7.6-.1-18.6 0-26.9"/><path d="M530.8 159.4c0 .4-.5 1-1.1 1.2-.6.3-1.1 0-1.1-.4-.1-3.5-.2-7 .6-8.9a4 4 0 012.9-2.5c1-.3 2.2-.3 3.6-.2l5.3.4 3.7.6c1.2.4 1.8.8 2.1 1.3.4.6.4 1.2.4 2l-.2 2.4-.1 2.7c0 .5-.6 1-1.2 1.3s-1 0-1-.5l.1-2.7.1-2.4c0-.6 0-1-.2-1.4-.2-.3-.6-.6-1.5-.8l-3.4-.6-5.2-.4a11 11 0 00-2.8 0c-.2.1-.4.3-.5.6-.7 1.6-.6 4.9-.5 8.2m40.7 14.8c-2 1-4 2-5.5 3.5a8.3 8.3 0 00-2.9 5.3c-.2 2.4.5 5.4 1.8 8.3 1.4 3 3.4 5.9 5.8 8 2 1.7 4.3 2.9 6.6 3.6a20 20 0 0013.2-.9c1.7-.7 3-1.6 4-2.7 1-1 1.7-2 2.2-3.1a23 23 0 001.4-3.8l.9-4c.2-1.3.3-2.7.3-4-.1-1.3-.4-2.6-.8-3.9a9.7 9.7 0 00-2-3c-1-1-2.1-2-3.4-2.7l-4-2c-1.3-.5-2.5-1-3.8-1.3a12.1 12.1 0 00-3.8-.4c-1.3 0-2.8.4-4.5.9-1.7.5-3.6 1.3-5.5 2.2zm-6.8 2.6a44.5 44.5 0 0112.5-6.6c1.9-.6 3.6-1 5.2-1a13.8 13.8 0 014.4.4l4 1.5 4 2c1.4.8 2.7 1.7 3.7 2.8a10.5 10.5 0 012.1 3.4c.5 1.3.8 2.7.9 4.2l-.3 4.3a39.2 39.2 0 01-2.4 8.3c-.7 1.4-1.6 2.7-2.9 4a17.5 17.5 0 01-5.2 3.6 21.7 21.7 0 01-14.9 1c-2.4-.7-4.9-2-7-3.9a25.5 25.5 0 01-6-8.2c-1.4-3-2.2-6.2-1.9-8.9.3-2.8 1.8-5 3.8-7"/><path d="M533.9 170.9c-.6 1-.8 2.4-.7 4 .2 1.5.7 3 1.6 4 1.7 2 4.7 2 6.9 2h.4c2-.1 3.2-.1 4-.5a1.8 1.8 0 00.7-.6c.4-.4.6-1 .8-1.9l.4-3.4c0-1.3 0-2.6-.2-3.5-.2-.9-.3-1.3-.6-1.6-.3-.3-.6-.4-1.1-.5l-2.4-.1a55 55 0 00-3.5 0c-1.3.2-2.7.3-4 .6-1 .3-1.9.8-2.3 1.5zm-2.9 4.9c-.2-1.8.1-3.7 1-5 1-1.7 2.7-2.6 4.5-3.2 1.5-.4 3.2-.5 4.6-.6l3.6-.1 2.6.1c.8.2 1.4.4 1.8.8.5.4.7 1 .9 2.1l.2 3.8c0 1.3-.2 2.6-.4 3.7a7.3 7.3 0 01-1.2 2.8 5.6 5.6 0 01-2.4 1.9c-1.4.6-2.8.6-5 .6h-.5c-2.5 0-5.9.1-7.9-2.2-1-1.2-1.6-3-1.8-4.7m34.4-7.6a43.4 43.4 0 00-5.1 4.7c-1.7 1.9-3.2 4.1-4.2 6.6a21 21 0 00-1.3 8.6 24.2 24.2 0 007.7 16.4 26.3 26.3 0 008 5.1 30.2 30.2 0 0025.2-1.3c2.2-1.4 4-3 5.6-4.8a26 26 0 003.6-5.5 26.9 26.9 0 002.2-6.4 26 26 0 00.5-5.9c0-2-.4-4-.8-5.8-.5-1.7-1.2-3.2-2-4.7s-2-2.8-3.3-4a27.5 27.5 0 00-4.6-3.3 39.1 39.1 0 00-5.8-2.8 37.8 37.8 0 00-10.6-2.3 24.3 24.3 0 00-4.3.2 18.7 18.7 0 00-3.7.8c-1.1.4-2 .8-3.2 1.5l-3.9 2.9zm-6.6 4a47 47 0 019.9-8.3 19 19 0 013.9-1.8c1.3-.5 2.8-.8 4.3-1a26.5 26.5 0 014.7-.2c1.7.1 3.6.3 5.5.8a39.5 39.5 0 015.6 1.6 40.4 40.4 0 0110.7 6.3 18.4 18.4 0 015.5 9.2 26 26 0 011 6 27.4 27.4 0 01-.6 6.3 28.8 28.8 0 01-2.4 6.8 29 29 0 01-4 6.2 27.3 27.3 0 01-14.4 8.8 33 33 0 01-19.6-1.5 27.3 27.3 0 01-14-13.1 25.3 25.3 0 01-2.3-9.3c-.1-3.2.3-6.4 1.4-9.2 1.1-2.9 2.9-5.4 4.8-7.5"/></g><g fill="#87288e"><path d="M119.2 268.6c0 .4.2.6 1 1l4.4 1.2 9 2a111.6 111.6 0 0013 1.6 150.8 150.8 0 0031.5-1.4 87 87 0 0022.8-6.7c.2-.1.2.2.3 0l-1.9-1.6-1.5-1.2-4.2-3.5-4.9-4.4-.8-.7c-2.2-2-3.6-3.4-5-3.8-1.2-.3-2.6-.1-4.6.2l-2.5.3a94.2 94.2 0 01-7 .6 123.1 123.1 0 01-7.5.2c-5.3 0-11-.5-14.9-.8h-.4l-4.4-.3h-2.7l-2.2.6c-.9.4-1.9 1-3.3 2a71.8 71.8 0 00-13.2 12.6c-.7 1-1 1.6-1 2.1zm-.7 2.7c-1.1-.5-1.6-1-1.5-1.9 0-.8.5-1.9 1.4-3.2a98.5 98.5 0 0114.2-13.6c1.6-1.2 2.9-1.9 4-2.4a10.3 10.3 0 013-.7h3c1.2 0 2.6 0 4.5.2h.5c3.8.3 9.4.8 14.7.8a119.5 119.5 0 0016.7-1c2.2-.4 3.8-.7 5.3-.2 1.7.5 3.2 1.8 5.5 4l.8.7 4.9 4.3 4.2 3.6 1.5 1.2c1.6 1.2 2.3 1.8 2.2 2.7-.2.8-.8 1.4-2.3 2l-4.1 1.8a98.5 98.5 0 01-35.3 6.8 113.6 113.6 0 01-29.3-1.7l-9.2-2c-2.3-.6-3.8-1-4.7-1.4"/><path d="M149.3 250c.2.4 0 1-.6 1.4s-1.2.4-1.4 0l-7.7-12.5-3.6-6.4-.8-1.5a4 4 0 00-.7-1h-.3l-1.6.2a25.2 25.2 0 00-2.7.7L124 233l-1.7.7c-1.2.4-2.2.8-3 .9-1 .1-1.8 0-2.4-.7-.5-.6-1-1.5-1.3-2.4l-.6-2.4c-.6-2.4-.6-2.4 5-3.5l8.2-1.4a58 58 0 018.8-.9c2.4 0 4 .5 5.3 1.7 1.2 1 2 2.7 3.3 5.1l4.3 9 5.3 11.4c.2.4-.1 1-.7 1.4s-1.2.3-1.4 0l-5.3-11.4-4.3-9c-1.2-2.4-2-4-3.1-5-1-.8-2.4-1.2-4.5-1.3-2.2 0-5.3.4-8.3.9l-8 1.4-2.4.5.6 2.3a6 6 0 001 2c.4.4.7.5 1.2.4.5 0 1.3-.3 2.3-.7l1.7-.7 6.1-2.2 3-.8a21.3 21.3 0 011.8-.2c.7-.1 1-.1 1.4.2.3.2.6.6 1 1.4l.8 1.4 3.5 6.4 7.7 12.5M117 269.3c.1-.5.7-1 1.3-1.1s1 .2.9.7a79.4 79.4 0 00-3 18.4c0 3.7.3 7.7 1 11.5.7 3.4 1.6 6.5 3 9 2.9 5.3 7.6 7.9 12.2 10.4.4.2.4.7-.1 1.2s-1.2.7-1.6.5c-4.8-2.6-9.6-5.2-12.6-10.7a32.7 32.7 0 01-3-9.3c-.8-3.9-1.1-8-1-11.8 0-7.1 1.5-13 2.9-18.7"/><path d="M201.2 266.8c-.2-.4 0-1 .6-1.4s1.2-.4 1.5 0c2.8 4.2 5.5 8.4 7 13.3a29.1 29.1 0 01-.8 16.7 54.5 54.5 0 01-10.5 17 26.8 26.8 0 01-12.1 7.5c-2.1.7-4.5 1.4-7.3 2-2.8.5-6 1-9.9 1.4a173 173 0 01-13.3.8c-4.1 0-8.1 0-11.4-.3a40 40 0 01-14.2-4c-.4-.2-.4-.7 0-1.2s1.2-.7 1.6-.5a38.4 38.4 0 0013.8 3.8c3.2.3 7.1.4 11.1.3a170.4 170.4 0 0013.2-.8 95.3 95.3 0 0016.5-3.2 23 23 0 0010.4-6.5 51.3 51.3 0 009.9-16c1-2.9 1.5-5.5 1.6-8a24.1 24.1 0 00-.9-7.9c-1.3-4.7-4-8.8-6.7-13m-78.4 5.2c0-.5.7-1 1.3-1.2s1 .2.8.7c-.8 3.4-1.7 6.9-2.3 10.2a29.5 29.5 0 001.5 17.7c1.2 2.7 2.5 5.2 4 7.7.1.4-.2 1-.8 1.4s-1.2.4-1.4 0c-1.4-2.5-2.7-5-3.9-7.8a28.8 28.8 0 01-1.6-18.4c.6-3.4 1.5-6.9 2.4-10.3m78.9 2.7c-.2-.4.2-1 .8-1.3s1.2-.3 1.3.1v.1c1.1 3.9 2.2 7.7 1 13a47 47 0 01-3 8.8l-4.7 9.6c-.2.5-.9 1-1.4 1s-.8-.4-.6-1c1.7-3.2 3.3-6.4 4.6-9.4 1.3-3 2.4-6 3-8.4 1-5 0-8.7-1-12.5m-71.3 14.5c0-.4.4-1 1-1.3s1.1-.2 1.2.3l.9 5.4c.3 1.6.7 3.1 1.1 4.3a9.6 9.6 0 003.1 4.3c.3.4 0 1-.6 1.4-.5.4-1.1.4-1.4.1-1.2-1-2.4-2.1-3.3-4.6-.4-1.2-.8-2.7-1-4.5l-1-5.4m62.6-1.6c0-.5.6-1 1.2-1.2.6-.2 1 .1 1 .6-1 4.8-2 9.6-3.6 13.2a25 25 0 01-6.8 8.2c-.6.4-1.2.5-1.5.1-.2-.3 0-.8.5-1.2a22 22 0 005.7-7 58 58 0 003.5-12.7m-4.7-6.4c0-.4.5-1 1.2-1.2s1 0 1 .5c-.1 1.7-.3 3.4-.7 5.1s-1.2 3.3-2 5a1.9 1.9 0 01-1.5 1c-.5 0-.8-.4-.6-.9.8-1.6 1.5-3 2-4.6s.4-3.2.6-4.8"/></g><g fill="#c88c1a"><path d="M471.3 160.2c-.5-.5-1-.3-1.2.3s.2 1.6.8 2l1.3 1a271.2 271.2 0 0117.8 15.9c3 3 6.1 6.3 8.4 9.4l.1.1c2.2 3 3.7 5.7 4.2 8.4.4 2.7-.3 5.5-2.6 8.5a27.2 27.2 0 01-14.8 9c-5.4 1.3-12 1.6-19.6-.3-8.6-2-18.5-6.8-28-12.8a128 128 0 01-25.9-21.4c-8.7-9.8-13.2-19.5-17.4-28.5-2.1-4.6-4.2-9-6.6-13.1-3.4-5.7-7.5-10.9-11.2-15.7-4.5-5.7-8.6-10.9-10.2-15.4-1.4-3.6-1.2-7 0-10 1.5-3.7 4.4-6.6 7.9-8.7 3.3-2 7.2-3 11.3-3.1 4-.2 8.2.6 12.3 2.3 3.5 1.5 7 3.7 10.1 6.2a88 88 0 0119.8 22.5c.4.7 1 1 1.4.7s.3-1.2 0-2A91.5 91.5 0 00408.4 92c-3.4-2.5-7-4.9-10.8-6.5a30.5 30.5 0 00-12.9-2.4 25 25 0 00-11.8 3.3 19.5 19.5 0 00-8.4 9.3 17 17 0 000 12.5c2 5.2 6.2 10.6 11 16.6 3.6 4.7 7.6 9.8 10.8 15.2 2.4 4 4.3 8.2 6.4 12.7 4.3 9.3 9 19.3 18.2 29.6 7 7.8 16.5 15.6 26.5 22 9.7 6.1 19.8 11 28.6 13 7.9 2 14.7 1.7 20.3.3a28.4 28.4 0 0015.3-9.3 13 13 0 003-10.5c-.6-3.5-2.5-7-5-10.4l-.2-.1a90.4 90.4 0 00-8.8-10 219.6 219.6 0 00-18-16l-1.4-1"/><path d="M456.5 164.4a47.3 47.3 0 01-23.7-7.2c-3.5-2.2-6.3-5-8.7-7.9a50.9 50.9 0 01-8.6-15.6 8.6 8.6 0 01-.3-4.7c.7-2.4 3.2-4 6.2-6.1l1.3-1 2.4-1.6a69 69 0 0110.2-6.5c2.5-1.1 5-2 7.7-2.6a25.7 25.7 0 0115.3 1.7 40.5 40.5 0 0115.3 11c1.7 2 3.1 4.2 3.9 6.4.8 2.4 1 4.9.8 7.4a109.6 109.6 0 01-4.7 18.7c-.5 1.1-1 1.8-1.7 2.4-.7.7-1.5 1.2-2.8 2s-2.7 1.6-4.7 2.4c-2 .7-4.6 1.2-8 1.2zm-12.2.6c4.6 1.4 9.2 2.1 12.9 2.2a23.6 23.6 0 0016.2-5.8c.8-.8 1.4-1.6 2-2.9a115.3 115.3 0 004.9-19.6c.2-3 0-6-1-9-1-2.8-2.7-5.4-4.8-7.9a44.7 44.7 0 00-16.4-11.8 27 27 0 00-16-1.7c-2.8.5-5.5 1.4-8 2.6a70 70 0 00-10.4 6.6l-2.3 1.7-1.4.9c-3.2 2.2-5.8 4-6.7 7a12 12 0 00.3 6.5 58.6 58.6 0 009.5 17.3 40.4 40.4 0 0021.2 13.9m25.4-6c.5 0 .7-.7.4-1.5-.2-.7-.8-1.3-1.3-1.2a37 37 0 01-17.3 1.2c-2.8-.6-5.6-1.9-8.3-3.5a54.6 54.6 0 01-18.8-18.7 18.8 18.8 0 01-1.6-4.7l-.6-4.4c0-.7-.5-1.5-1-1.7s-1 .2-1 1l.6 4.9a23.4 23.4 0 002 5.8 57.3 57.3 0 0020.2 20.4c3 1.7 6 3 8.9 3.7 6.2 1.5 12 .1 17.9-1.2"/><path d="M472.6 160.2c-.5-.6-1-.6-1.3 0s0 1.4.5 2a17 17 0 012 2.4c.6.8 1 1.8 1.3 3.2l.4 4.9c.1 2.7.3 5.7 1 8.6 1 3.8 2.7 7.3 4 10l1 1.9.5 1.1-1.1-.8c-1.2-.8-2.5-1.9-3.7-2-1-.2-1.8.3-2.3 1-.6.7-1 1.6-1.3 2.4l-.4.8v-.3a31.5 31.5 0 010-4.2c0-1.4.2-3 .4-4.4l.5-5.3a40.9 40.9 0 00-.9-10.6c-.3-1.6-.7-3.2-1.2-4.7l-1.3-4.2c-.3-.8-.9-1.4-1.4-1.3s-.6.8-.4 1.5l1.3 4.2a51 51 0 011.9 13.9c0 1.7-.3 3.4-.5 5a66.2 66.2 0 00-.5 9.3c.2 1.7.5 3 .8 3.8.9 1.7 1.7 1.6 2.4.6l1-2c.4-.8.8-1.6 1.2-2 .3-.5.7-.8 1.2-.7.7 0 1.8.9 2.8 1.6.6.5 1.2 1 1.7 1.2l1 .3c.3 0 .5-.2.7-.5.2-.3.2-.7.2-1.2 0-.8-.4-1.9-1-3.3l-1.1-2.1a40.6 40.6 0 01-3.6-9c-.6-2.5-.8-5.3-.9-7.8-.1-2-.2-3.8-.5-5.4-.4-2-1-3.6-1.9-4.9-.8-1.2-1.6-2.1-2.5-3"/><path d="M468 165.7c.2-.7-.1-1.6-.7-2s-1-.3-1.2.4l-1 4.3a21.4 21.4 0 01-4.3 8.3l-3.7 4.2-5 5.2-2 1.9c-1.2 1.3-1.3 2.2-.3 3.2a1.2 1.2 0 00.2.2c.3.2.6.2.8.1.3 0 .6-.3 1-.5h.1l2.3-1.2.5-.3-.6 1.9-.4 1.6a3 3 0 00.2 2v.1c.4.8.9 1 1.4.8l.1-.1.4-.7.9-1.3 1-1.5 2.3-3.3 1-1.7c.6-1 1.1-2 1.8-2.9l2.8-3.1 1.6-1.6a17.7 17.7 0 002.6-3.9l.8-1.8.6-2 .4-1.4.2-.8.2-.3.3-.4c.4-.3.4-1.2 0-1.9s-1.1-1-1.5-.6l-.4.5-.5.8a8 8 0 00-.2 1l-.4 1.3-.6 1.8-.7 1.8a13 13 0 01-2.4 3.4l-1.5 1.6-2.9 3.3c-.8 1-1.4 2-2 3l-.9 1.7-1 1.4a2.5 2.5 0 000-.4v-.1c-.2-1-.6-1.5-1.3-1.7l2.6-2.6 3.8-4.3a23.5 23.5 0 004.7-9l1-4.5M205.7 483.7c-.7 1-1.5 1.5-2.5 1.3-.7 0-1.4-.5-2.1-1.5a9 9 0 01-1.2-3c-.4-1.5-.7-3.6-.6-6a33 33 0 013.8-14.6 47.8 47.8 0 0112-15.3 46 46 0 018.4-5.8 42.7 42.7 0 0139-.6c4.5 2 9 4.7 12.6 7.9 3.7 3.2 6.7 7 9 11.1a42.8 42.8 0 014.6 13.8c.6 4 .7 8.2.5 12a72 72 0 01-2 13c-.8 2.8-1.5 4.6-2 5.8-.8 1.4-1.3 2-1.7 2.4-1 1-1.5 1.5-2.2.9-.3-.2-.3-.6-.3-1.1v-.1a30 30 0 00-.4-4.3 4.7 4.7 0 00-.8-1.6l-1.6-1.6a9.5 9.5 0 00-2.3-1.5c-.9-.3-1.8-.5-3-.3-2.1.5-5 2.6-6.8 3.8l-.4.3c-1.8 1.3-2.5 1.6-3 .8-.2-.2-.2-.5-.3-1v-.2l-.6-3a29.3 29.3 0 00-.8-2.6 8 8 0 00-1.1-2.4 5.2 5.2 0 00-2.1-1.5 10.9 10.9 0 00-7.5-.4c-1.8.7-3.5 2-4.6 3l-1.3 1c-1.1.8-1.8.7-2.1.2-.2-.3-.3-.7-.3-1.2 0-.4 0-.7-.2-1a11.8 11.8 0 00-2.4-5.4 9.4 9.4 0 00-2.4-2.1 7 7 0 00-5.6-.9c-1 .3-2 .7-2.8 1.3-1.1.7-2.1 1.7-2.9 2.5l-1.4 1.3c-1.1.8-1.7.7-2.2 0l-.4-.9-.6-1.4a20.8 20.8 0 00-2.4-3.7c-.8-1-1.8-2-2.8-2.7a9.3 9.3 0 00-3.6-1.6c-1.1-.2-2-.1-2.7.2-1.4.7-2.3 3-3 4.5-.3 1-.6 1.7-1 2.2zm-1.6-.7l.5-1.2c.8-2 2-5 4.6-6.3 1.4-.7 2.9-.8 4.3-.6h.1c1.4.3 2.8 1 4.1 1.8a21.5 21.5 0 015.5 6.7 20.2 20.2 0 01.6 1.5l.2.5.3-.4c1-.9 2-2 3.5-3a13 13 0 014-1.7 10 10 0 013.8-.3c1.1.2 2.2.6 3.1 1.2 1 .6 2 1.4 2.7 2.3a13.4 13.4 0 012.6 5.7l.2 1.2v.2l.4-.3c1.3-1 3.4-2.7 5.8-3.6a12.5 12.5 0 019 .3c1.1.5 1.9 1 2.5 1.9.6.7 1 1.6 1.3 2.6l.8 2.7a42 42 0 01.6 3v.3l.1.6c.2.3-.1-.4.2-.6l.3-.3c2-1.4 5.4-3.8 8.2-4.4 1.6-.4 3-.1 4.1.3 1 .5 2 1.1 2.6 1.7.7.6 1.3 1.1 1.7 1.7a5.5 5.5 0 011 2l.4 2.4v.7c.6-1 1.2-2.7 1.8-5.2a70.4 70.4 0 001.5-24.3 41.9 41.9 0 00-13.3-24.4 50.6 50.6 0 00-26.7-11.6 38.7 38.7 0 00-30.3 9.5 45 45 0 00-13.8 21.7c-.5 2.2-.8 4.4-.9 6.4 0 2.2.2 4.2.5 5.7a8 8 0 001.1 2.7l1 1"/><path d="M202.7 484.7c-.1-.4.2-1 .8-1.4s1.2-.2 1.4.2l17.3 51.7c.1.4-.3 1-.9 1.3s-1.1.3-1.3-.1zm18.2 54.2c-.2-.4.2-1 .8-1.4s1.2-.2 1.3.2l.7 2c.1.4-.3 1-.9 1.3s-1.1.3-1.3-.1l-.6-2m1.8-52c0-.4.5-1 1.2-1.2s1 0 1 .4l-.2 49.3c0 .5-.5 1-1.1 1.3s-1.1 0-1.1-.4l.2-49.4m20.3 5a1.9 1.9 0 011.4-1.1c.6 0 .9.3.7.8l-16.4 41a1.9 1.9 0 01-1.4 1c-.6 0-.9-.3-.6-.8l16.3-41m20.3 6.7c.5-.5 1.2-.7 1.6-.5s.4.7 0 1.2l-35.4 38.5c-.4.5-1.1.7-1.5.6s-.4-.8 0-1.3l35.3-38.5m18.5 5c.6-.3 1.2-.3 1.4 0s0 1-.6 1.4l-54.3 36c-.6.3-1.2.3-1.4 0s0-1 .7-1.4l54.2-36m-78-43c-.5.1-.8-.3-.6-.8s1-1 1.5-1c4.9-.4 9.7-.7 13.3 0 1.9.5 3.4 1.2 4.6 2 1.2.8 2.1 1.7 2.8 2.3l.3.2c1 1 1.6 1.6 3 1.4l2.8-.7c1.6-.4 3.5-1 5.2-1.1a13 13 0 014 .2 11 11 0 013.4 1.3c.8.5 1.6 1.1 2.3 1.8a13.8 13.8 0 011.9 2.4l.5 1c.5.7.9 1.4 1.5 1.5.5 0 1.4-.1 2.5-.4l2.3-.5a18.2 18.2 0 013.7-.2c1.1 0 2.3.3 3.5.6a17 17 0 013.4 1.3c1 .5 2 1.1 2.6 1.8l1.2 1.3c.4.6.7 1 1 1l1.5-.8c.9-.6 2-1.3 3.2-1.7a10.1 10.1 0 013.6-.6c1.3 0 2.5.2 3.7.6 2.3.8 4.4 2.2 6.6 3.6.2 0 .2.3.2.6a1.5 1.5 0 01-.4.6 2 2 0 01-.8.5H287.3a29 29 0 00-6.3-3.5c-1-.3-2.1-.5-3.2-.5-1 0-1.8 0-2.7.4-.8.3-1.7.8-2.5 1.3-1 .6-1.8 1.2-2.7 1.3-1.3.2-1.8-.4-2.4-1.3l-1.1-1.2c-.6-.6-1.5-1.2-2.4-1.7a15.8 15.8 0 00-3.2-1.2 15.2 15.2 0 00-3.1-.5 15.9 15.9 0 00-3.2.2l-2.2.5c-1.3.3-2.4.5-3.4.4-1-.3-1.5-1-2.1-2.1a21.9 21.9 0 00-.6-.9 12.8 12.8 0 00-1.7-2.2 11 11 0 00-2.2-1.7 9.7 9.7 0 00-3-1.2 11 11 0 00-3.4-.1c-1.5.1-3.2.6-4.7 1l-3.2.7c-2.2.3-2.8-.3-4.3-1.6l-.2-.2-2.7-2.2c-1.1-.7-2.5-1.4-4.2-1.8-3.3-.7-8-.4-12.7 0"/><path d="M251 435c.5-.3 1.1-.3 1.3.1s-.1 1-.7 1.4c-3.7 2.2-7.3 4.5-10.5 6.7a43.1 43.1 0 00-7.9 6.8c-2 2.3-3.1 4.7-4 7.3-.9 2.6-1.4 5.4-2 8.4l-3.3 19.6c0 .5-.6 1-1.2 1.2s-1 0-1-.6v-.1l3.4-19.5c.5-3 1-6 2-8.7 1-2.8 2.3-5.5 4.6-8.1 2.2-2.6 5.1-5 8.5-7.5 3.4-2.4 7-4.6 10.7-7m1.6 2c-.2-.4.1-1 .7-1.4s1.2-.3 1.4 0c.7 1.4 1.4 2.8 1.9 4.7.4 2 .5 4.5 0 8-.4 3-1.3 7-2.4 11a284.8 284.8 0 01-7.6 24l-2.5 6.4c-.2.5-.9 1-1.4 1s-1-.3-.7-.8l2.5-6.2a211.5 211.5 0 003.1-9c1.4-4.3 3.1-9.8 4.5-15 1-4 1.9-7.7 2.3-10.7.5-3.4.4-5.8 0-7.6-.4-1.8-1.1-3.1-1.8-4.4M258.9 439c-.2-.4.2-1 .8-1.3s1.2-.3 1.3 0l4.9 13c1.4 4.2 2.7 8 3.5 11.2 1 3.3 1.4 5.9 1.5 8.4 0 2.6-.2 5-.7 7.9-.5 2.8-1.2 6.1-2.1 9.6l-3 10.8c0 .5-.7 1-1.3 1.2s-1-.2-.8-.7l3-10.8 2-9.5a34.5 34.5 0 00-.7-15.7c-.9-3.2-2.1-7-3.6-11.1l-4.8-13m-34.5 95.6l.5-.6c.7-.8 1.3-1.6 2.3-2 .7-.3 1.3-.4 1.8-.2.6.1 1 .4 1.3.8.3.3.5.7.6 1.2s0 1-.3 1.7c-.1.5-.4 1-.7 1.5l-.8 2.1c-.2.8.2 1.3.6 2l.2.2.8 1.3.7 1.5.7 1.5.2 1.6a2.5 2.5 0 01-.4 1 2.9 2.9 0 01-1 1 2 2 0 01-1.2.2 1.2 1.2 0 01-.5-.1c-.4-.3-.7-.9-1-1.5l-.4-.9-1-1.3-.3-.4v.2l-.6 3-.4 2a9.3 9.3 0 00-.1 1.5 14.2 14.2 0 000 1.6l.4 2 .1.5c.3 1.4.5 2.9.3 3.8a2.5 2.5 0 01-.6 1c-.4.4-.9.7-1.4.8a2 2 0 01-1 0 1.8 1.8 0 01-.7-.4c-.3-.3-.6-.8-.7-1.3-.2-.5-.3-1.1-.3-1.8l-.1-2.9v-.1l-.4 1.4-.7 2.2-.6 1.6c-.5 1-1.2 1.5-2 1.5-.5 0-1-.2-1.2-.7a4 4 0 01-.3-1.4v-.2c0-.6 0-1.2.2-1.8 0-.7.3-1.4.5-2l1-3.1.3-1 .7-1.7.5-1.8.6-2 .6-2 .7-2.7.3-1c.1-.6.2-1 0-1l-.7-.3H219l-1.5.2a22 22 0 01-4.3.1c-.7 0-1.2-.2-1.5-.5a1 1 0 01-.4-.5c0-.3 0-.7.3-1 .4-.5 1-1 1.8-1.2.8-.3 2-.6 3.2-.7l4.5-.5H223.8a.5.5 0 00.2-.1l.4-.3zm2.1 0l-.8.8c-.5.5-1 .9-1.5 1-.5.3-.9.4-1.3.4a3.7 3.7 0 01-.4 0h-2.2l-4.4.5-1.4.3c1 0 2.5 0 3.8-.2l1.6-.1h2.2c.6 0 1 .2 1.4.4.6.5.5 1 .2 2.2l-.3 1-.6 2.7-.6 2-.6 2.1-.6 1.9-.6 1.8-.4.9-1 3a17.1 17.1 0 00-.5 1.8 7.8 7.8 0 00-.1 1.3l.4-1.5.6-2.1 1-2.7c.4-1 .9-1.7 1.5-2 .8-.3 1.2 0 1.4.5l.4-1.7.6-3 .7-2.5c.6-1.4 1.3-1.8 2.2-1.4h.2a3 3 0 01-.5-2.2v-.1c.1-.8.6-1.7 1-2.6l.6-1.3c.2-.4.2-.8.2-1l-.3-.7-.8-.5h-.2l-.9 1zm-2.8 22.5v-.4.5l.2 1.5.1.3-.3-1.9zm-1.7-5.3c.3-.1.4-.2.1 0"/></g><path d="M341 461.7v-1.1c.4-3 .7-6.4 2.8-9a12 12 0 015.1-3.4c2-.8 4.3-1.1 6.4-1a15.8 15.8 0 014.8.8c1.6.6 3 1.3 4 2.2l.3.2c-.4-2.8-.5-6.4 1.5-9.4 1.3-2 3.3-3.5 5.6-4.7a19 19 0 017.5-2c2.1 0 3.9.4 5.3 1.3 1.4 1 2.5 2.3 3.3 4 .8 1.8 1.2 4 1.6 5.7l.1.8 1.3-1.6c1-1 2.3-1.7 3.5-2a9.2 9.2 0 016.7 1c.8.5 1.5 1.1 1.9 2 .4.7.6 1.5.7 2.5l-.3 3.2a20.2 20.2 0 01-.7 2.4 25.1 25.1 0 01-1 2.5l-.4.7a2.8 2.8 0 01.4 0l.7-.1 2.2.1a5 5 0 012.4 1.2c.6.6 1.2 1.4 1.6 2.2a16.2 16.2 0 011.3 3.1l.3 2a3.4 3.4 0 01-.4 1.5c-.4.8-.8 1.4-2.6 1.8-.8.2-2.3.4-5 .5l-9.4.4-14.5.4-12.4.2h-10a185.9 185.9 0 01-7-.2l-4.3-.3c-1.1 0-2-.1-2.6-.4-.8-.2-1.2-.6-1.3-1.4-.2-.8 0-1.8.2-3.2l.4-2.9zm2.8-2v1.1l-.4 3c-.2 1.2-.4 2.2-.3 2.7 0 .2.2.4.5.5l2.2.3 4.2.3a182.1 182.1 0 007 .2h9.8l12.4-.3 14.4-.4 9.4-.4 4.1-.3c0-.4 0-1-.2-1.6-.3-.8-.7-2-1.2-2.9-.4-.7-.9-1.4-1.4-1.9-.5-.5-1.1-.7-1.7-.8-.6-.2-1.2-.2-1.7-.1h-.6c-1 0-1.7 0-2-.3-.6-.5-.3-1 .2-2l.3-.6a21.4 21.4 0 001-2.2l.5-2.1c.2-1 .4-1.9.3-2.8 0-.7-.2-1.4-.5-2-.4-.6-.9-1.1-1.5-1.5a6.6 6.6 0 00-5-.9 3 3 0 00-1.3.8l-1.3 1.8c-.5.8-.9 1.5-1.5 2-1 .7-1.7.8-2.3.1-.3-.4-.5-1.4-.8-2.7-.3-1.6-.7-3.8-1.4-5.5a7.6 7.6 0 00-3-3.5c-1-.7-2.5-1-4.1-1-1.9 0-4 .6-6 1.6-1.5.8-3 1.8-3.7 3-1.8 2.7-1.3 6.6-1 9.2l.2.8c.1 1.4.2 2.4 0 2.9a2.1 2.1 0 01-.4.9c-.6.8-1.3 1.1-2 1l-.1-.1a1 1 0 01-.5-.3l-.4-.7c-.4-.7-1-1.8-2.2-2.8a12 12 0 00-3.6-2 13.9 13.9 0 00-4.2-.7 14 14 0 00-5.1.8 7.1 7.1 0 00-3 2c-1.6 1.8-1.8 4.8-2 7.4zm57-2.9h-.1zm-45-31.5c-.8.5-1.6.5-2 .1-.2-.4 0-1 .7-1.6 2-1.8 4.1-3.7 7.2-4.1a11.4 11.4 0 018 2c.8.4 1.3 1 1.6 1.6l.3-.3a13.6 13.6 0 016-3.6c2.3-.5 4.4 0 6.6.4.6.1.8.7.3 1.4s-1.3 1-2 1c-1.9-.5-3.8-.8-5.4-.5l-2 .8a8.5 8.5 0 00-2.6 2.5c-1 1.5-1.7 2.3-2.9 1.5l-.5-.7c-.2-.5-.6-1.4-1.6-2.2-.8-.5-2-1-3.3-1.4a9 9 0 00-3.3-.2c-1.8.3-3.3 1.6-4.8 3a2.6 2.6 0 01-.4.3M406 438c-.7.5-1.5.6-1.8.2-.3-.4 0-1.1.6-1.6 2-1.9 4.1-3.8 7.2-4.2 1.4-.2 2.9 0 4.3.3s2.8 1 3.8 1.6c.7.6 1.2 1.2 1.5 1.7l.3-.3a13.6 13.6 0 012.9-2.2c1-.6 2-1 3.1-1.3a16 16 0 016.6.3c.7.1.8.8.3 1.4s-1.3 1-2 1c-1.9-.4-3.8-.8-5.4-.4a6.8 6.8 0 00-2 .8 8.6 8.6 0 00-1.7 1.3 10 10 0 00-1 1.2c-1 1.4-1.6 2.3-2.8 1.4-.2-.1-.3-.4-.5-.7-.2-.5-.6-1.4-1.6-2.1-.8-.6-2-1-3.3-1.4a9.1 9.1 0 00-3.3-.3c-1.8.3-3.3 1.6-4.8 3a2.5 2.5 0 01-.4.3m-85.6 5c-.6.6-1.4.8-1.9.6-.5-.3-.4-1 .2-1.6l.1-.1c2.1-2 4.2-3.8 7.3-4.3 1.4-.2 2.9 0 4.3.3 1.4.4 2.8 1 3.8 1.6a5.6 5.6 0 011.6 1.7l.2-.3a13.6 13.6 0 012.9-2.2c1-.6 2-1 3.2-1.3 2.2-.5 4.4 0 6.6.3.6.2.7.8.2 1.4s-1.3 1.1-2 1c-1.8-.4-3.8-.8-5.4-.4-.7.2-1.3.4-2 .8a8.5 8.5 0 00-2.6 2.4v.1c-1 1.4-1.7 2.3-2.9 1.4-.2-.1-.3-.3-.4-.7-.3-.5-.6-1.3-1.7-2-.8-.7-2-1.2-3.3-1.5a9 9 0 00-3.3-.2c-1.8.2-3.4 1.6-5 3" fill="#376c93"/><path d="M430.2 531.3c2 .6 4 1 6.3 1a15 15 0 0011.4-5 13 13 0 003.2-5.4 11 11 0 000-5.5 26.6 26.6 0 00-6.8-10.8c-1.4-1.4-3-2.4-4.4-3.2a12.5 12.5 0 00-4.6-1.2 16.7 16.7 0 00-8.4 1.6c-1.3.6-2.5 1.5-3.6 2.8-1.9 2.2-3.2 5.5-4 7.8l-.3.6c-.4 1-.7 1.8-2.4 2.9a94.7 94.7 0 01-11.7 5.5l-26.7 11-25.4 10a93.2 93.2 0 01-12.4 4.1c-1.6.4-2 .2-2.3 0a10 10 0 01-1.8-2.2c-.6-.8-1.2-1.9-1.7-3.2-.6-1.4-1-3.1-1.5-5a32.5 32.5 0 01-.6-5.3c0-1.9 0-3.7.3-5.6a31.9 31.9 0 011.2-5.4 28 28 0 011.8-4.3c.8-1.4 1.5-2.5 2.2-3.2.6-.7 1.1-1 1.6-1.1a6 6 0 012 0H343.1c1.6.1 3-.1 3-1.5 0-1.5-1.5-4-3-6.3l-1-1.5-1.2-2.2c-1-1.7-1.8-3-2.7-4-1-.8-1.9-1.1-3-1a9 9 0 00-2.5 1l-3.5 2-4.5 2.3-1.7.9c-2 1-3.6 1.8-4.2 2.5-.6.8-.3 1.6.7 2.3a8 8 0 002.2 1.1 31.8 31.8 0 002.3.8l2 .5h.7c.3.2-.8-.2-1 .3l-2.3 3.6c-1.2 1.8-2.8 4.2-4.4 7a68.1 68.1 0 00-4.6 8.6 25.1 25.1 0 00-2.2 9.4c0 4.7 2.2 9 4 12.2l1 2.3c.8 1.5 1 2.6.8 3.5-.1 1-.7 1.8-1.5 2.7a32.6 32.6 0 01-8 6l-3.3 1.6c-2.1 1-3.8 1.7-4.2 2.6a1.4 1.4 0 00-.1.5c0 .5.2 1 .7 1.6.4.4 1 .8 1.6 1.1 1.3.6 3.1 1 5.5 1.1 2.3 0 5-.2 7.7-.4a57 57 0 016.5-.4c2.8.2 3.6 1.3 6.4 5.2l.1.2c1.7 2.4 4 5.6 6.6 8.7a52 52 0 009.2 9 40 40 0 0019.2 6.4h5l1.7-.2.1 2.1v1.3c.1 1.2.4 2.3 1.5 3 1 .5 2.2.4 3.8-.7a94.6 94.6 0 0010.4-9.6c1.4-1.5 2.2-2.6 2.6-3.5.4-1.1.2-2-.4-3.1-.7-1.3-1.9-2.7-3.1-4.2l-2-2.5a51.8 51.8 0 01-3-4.4l-1-1.5v-.1c-.8-1-1.4-1.7-2.3-1.9-.7-.1-1.3.2-1.8 1a66.4 66.4 0 00-2.6 6.3l-.2.4c-.5 1.5-.7 2.3-2 2.6-.7 0-1.8 0-3.2-.2a33 33 0 01-14-8.7c-2-2.5-3.1-5.1-4-7.6l-.5-1.2-.8-1.7c-.8-2-1.6-4-1.7-5.4 0-.8.3-1.6 1.6-2.6 1.4-1 3.9-2.4 8.3-4.4 5-2.3 12.7-5.4 20.7-8.6l16.9-7 8.5-3.6c7.7-3.3 13.2-5.7 17-6.5 3.8-.8 6 .1 8.2 1l2 .8zm5.4-.8c-2 0-3.9-.4-5.5-1l-1.8-.7c-2.6-1.1-5.2-2.2-9.6-1.3-4 .8-9.6 3.2-17.3 6.6l-8.5 3.7-17 7-20.7 8.6c-4.5 2-7 3.3-8.5 4.5-1.5 1.2-1.9 2.2-1.9 3.4 0 1.7 1 3.8 1.9 6l.7 1.7.4 1.2c1 2.6 2.2 5.5 4.7 8.3a37.2 37.2 0 0011.2 8.3c1.7.8 3.4 1.4 4.8 1.7 1.7.4 3.1.4 4.1.2 1.8-.3 2.1-1.3 2.8-3.2l.1-.3a65.3 65.3 0 012.7-6.5v.1l1 1.5c.8 1.3 1.8 3 3.1 4.6l2.2 2.7c1.1 1.3 2.2 2.6 2.7 3.6.4.6.5 1.2.2 1.8-.3.9-1 1.9-2.4 3.3a93.5 93.5 0 01-10.2 9.4l-1.4 1c-.2-.2.2-.3.1-.8v-1.2c0-1.6 0-3.1-1.3-4.1-1-.8-2-.7-3.8-.6h-4.8c-2.5-.2-5.9-.6-9.4-1.8h-.1c-2.6-.9-5.3-2.1-7.9-4-3-2.1-6-5.2-8.5-8.2-2.6-3.1-4.8-6.2-6.4-8.5l-.2-.2c-3.5-5-4.6-6.6-9-6.7-1.8-.1-4.2 0-6.7.3-2.6.2-5.4.5-7.6.4a11.8 11.8 0 01-4.6-1c.3-.7 1.8-1.4 3.7-2.2l3.4-1.6a33.5 33.5 0 008.2-6.3c1-1 1.6-2 1.8-3.1.2-1.2 0-2.6-.9-4.4l-1.2-2.5c-1.6-3-3.7-7-3.7-11.4 0-2.8 1-5.9 2.2-8.9 1.2-3 2.9-6 4.4-8.5l4.5-7 2.3-3.6c.8-1.7.5-2.5-.7-3.1a4 4 0 00-1.3-.4h-.3l-1.8-.5a28.6 28.6 0 01-2-.7 15 15 0 01-.8-.3c.5-.5 2-1.2 3.8-2.2l1.7-.8 4.5-2.4 3.5-1.9c1-.5 1.6-.8 2.1-.9h.4c.5.5 1.2 1.7 2 3.3l1.4 2.2 1 1.5c1.3 2 2.6 4.3 2.6 5.2 0 .5-.8.6-1.7.6l-1.3-.1h-2.8c-.7.2-1.4.6-2.2 1.4-.7.8-1.5 2-2.3 3.4a29 29 0 00-3.1 10.1 33.3 33.3 0 00-.3 5.8 34 34 0 002.2 11c.6 1.4 1.3 2.6 2 3.6.8 1.2 1.7 2.2 2.5 2.9 1 .9 2 1.4 4.7 1 2.2-.5 5.9-1.7 12.7-4.2l25.4-10 26.7-11.1c6.5-2.8 10-4.4 11.8-5.6 2-1.3 2.4-2.1 2.8-3.3l.3-.6c.8-2.3 2-5.5 3.9-7.6 1-1.1 2.1-2 3.3-2.5s2.5-1 3.8-1.2c1.3-.3 2.5-.4 3.8-.3a9.4 9.4 0 013.4.9c1.1.6 2.3 1.4 3.4 2.5a23 23 0 016 9.4c.3 1.6.4 3.2 0 4.9-.5 1.8-1.6 3.5-3 5a15.6 15.6 0 01-5.3 3.7c-1.7.7-3.5 1-5.2 1m1-19.4l.5.5c.9 1.2 2.1 2.6 2.4 4 .1 1 0 1.9-.4 2.7a5.2 5.2 0 01-2 2.2c-.9.5-2 .8-3.1 1-1.3 0-2.6 0-3.9-.4a9 9 0 01-3.3-1.4c-.5-.4-1-1-1-1.7a5 5 0 01.6-2.6 18 18 0 014.2-5.5 4.3 4.3 0 011.5-.6 7 7 0 011.8-.3c.4 0 .8 0 1 .2.3 0 .6.4 1 1l.7.9zm2 0l-.4-.5-.6-.9c-.8-1-1.4-1.7-2.6-2.2a6 6 0 00-2.1-.4c-.8 0-1.5.1-2.2.3-.7.2-1.3.4-1.9.9a18.8 18.8 0 00-4.6 5.8 6 6 0 00-.6 3.3c.1 1.3 1 2.5 2.3 3.4a14.5 14.5 0 009.3 2.5c1.3-.1 2.6-.5 3.6-1.1a6 6 0 002.4-2.6c.5-1 .7-2.2.4-3.4-.3-2-1.8-3.7-3-5.1" fill="#55bdac"/><path d="M330 280.2a1.8 1.8 0 01.5-.5c.6-.4 1.3-.5 1.5-.2 6.7 8.5 16.5 21.3 22 34.5a62.6 62.6 0 012.2 6.5 48 48 0 007.3-23.6c-.1-8.2-4-16-13.3-23.4-12.6-10-20.7-9.4-26.1-3.8-5 5.2-8.2 14.7-10.6 24.4a74.8 74.8 0 012.9-3.6 50 50 0 017-7c2.4-1.8 4.7-3 6.5-3.3zm21.8 35.1c5.3 13 6.4 26.3-4 36.3a16.2 16.2 0 01-3.9 2.8 2 2 0 00-.5.3c-1.2.5-2.2.6-3 .4-.9-.1-1.6-.6-2.1-1.4-.5-.7-.7-1.7-.6-2.8.2-2.7 2.3-6.1 7.1-8.9 11.6-6.8 6.3-19.2.3-29.4a254.3 254.3 0 00-3.1-5.2l-3-4.7a242.4 242.4 0 00-4-7.1l-4.5-7-.3-.2c.8-1.4 1.5-2.9 2-4.5 6.5 8.3 14.8 19.7 19.6 31.4zm5 7.6c2.5 10.6 1.2 21-7.6 29.6a21.1 21.1 0 01-4.2 3.2 77.6 77.6 0 01-4.8 26.6c-4 8.6-11.1 13.7-24.3 9.1-10-3.5-14.1-10-15-17.8a55.8 55.8 0 014.3-24 28.7 28.7 0 01-4.6-10.3l-.8-5.9c-1.6-11 3.8-24.4 10.7-34.9 2.5-11.4 6-23.1 12.2-29.6 6.5-6.7 15.8-7.8 29.4 3 9.5 7.5 13.5 15.6 13.6 24.1s-3.4 17.5-8.9 26.9zm-14 33.8a75.8 75.8 0 01-4.7 25.7c-3.2 7-9.3 11.2-20.7 7.2-9.6-3.3-13.5-9.6-14.3-17a52 52 0 013.7-21.8 2 2 0 001 0c1.1-.2 1.9-1 2.3-2.3.5-1.8.3-5.5-1.3-11.2-5.1-19.2 3.2-28 11.5-36.6 3-3.2 6.1-6.4 8.6-10l4 6.3 4.1 7 2.9 4.8 3.1 5.2c5.6 9.6 10.7 21 1.3 26.6-6 3.4-8.5 7.7-8.8 11-.1 1.4.1 2.6.7 3.6.7 1 1.6 1.6 2.9 1.8 1 .2 2.3.1 3.6-.3zm-40-18.5l-.8-5.8c-2-13.6 7-30.8 16-41.3 2.2-2.7 4.5-4.9 6.5-6.4 1.8-1.5 3.5-2.4 4.7-2.6.6 0 1.1 0 1.5.3-2 7.2-6.8 12.3-11.8 17.5-8.8 9.2-17.6 18.5-12.2 38.5a25 25 0 011.3 10.4 5 5 0 01-.4-.3 24.7 24.7 0 01-4.8-10.3zm5.5 10.8c.2 0 0 0 0 0m-50.4-43.6c.4-.5 1-.8 1.5-.7.4.1.5.4.3.8h1c1.7.3 3.8 1.4 6 3.1 2.1 1.7 4.5 4 6.8 6.8l2 2.5c-2.2-9-5.3-17.5-10.1-22.5-5.7-5.9-14-6.6-26.3 3.2-9 7.1-12.8 14.7-13 22.8a49.1 49.1 0 007.7 24.2c.6-1.8 1.2-3.7 2-5.5a154.4 154.4 0 0122-34.7zm-.8 3.6c.6 2 1.4 3.7 2.3 5.4a1.5 1.5 0 00-.1.2l-4.4 7-4.2 7-2.9 4.8-3 5.2c-6 10.2-11.4 22.5-.5 28.9 5.2 3 7.5 6.7 7.7 9.6.1 1 0 2-.5 2.6a2 2 0 01-1.3.8c-.9.2-2 0-3.3-.6-.1-.2-.3-.3-.6-.3-1.3-.6-2.6-1.6-4.1-3-10.7-10.3-9.6-23.7-4.3-36.7a140.3 140.3 0 0119.2-31zm-16.9 69.2c-8.6-8.3-9.8-18.7-7.3-29.2v-.1c-5.5-9.3-9.1-18.2-9-26.7.2-8.7 4.3-17 14.1-24.7 13.9-11 23-10.1 29.3-3.6 6 6.3 9.5 18 12 29.2 6.8 10.5 12.2 23.8 10.6 34.8l-.8 5.8v.2c-1.4 4.9-3 8.3-4.6 10.2a55.6 55.6 0 014.3 24c-1 8-5.2 15-15.8 18.6-12.9 4.5-19.8-.3-23.5-8.4a78.7 78.7 0 01-4.8-26.9c-1.4-.7-2.9-1.7-4.5-3.2zm9.5 4.1a5.5 5.5 0 003.7-2.4c.6-1 1-2.3.8-3.8-.3-3.1-2.7-7.1-8.2-10.3-10-6-5-17.5.6-27.1l3.1-5.1 3-4.9 4-7 3.7-5.7c2.4 3.8 5.5 7 8.7 10.4 8.4 8.8 17 17.8 11.8 37a24.9 24.9 0 00-1.3 11.3c.3.9.7 1.4 1.4 1.5.5.1 1 0 1.6-.3a53.8 53.8 0 014 23c-.8 7-4.5 13-13.5 16-11.7 4.2-18-.3-21.5-7.9-3.3-7-4-16.8-4.6-24.7 1 .2 1.9.2 2.7 0zm32.8-8.1l-.2.1c-.2 0-.4-.3-.5-.8-.5-1.6-.2-5.1 1.2-10.6 5.4-19.9-3.3-29-12-38-4.9-5.2-9.8-10.4-11.9-17.5a3.8 3.8 0 01.4 0c1.4.3 3.3 1.2 5.3 2.8 2.1 1.7 4.4 4 6.7 6.7 9 10.6 18.1 28 16.2 41.6l-.8 5.9a24 24 0 01-4.5 9.8" fill="#376c93"/><path d="M478.8 255.1c-4.3 2.6-9.3 6-14 10.3a45.6 45.6 0 00-15.4 29.1 95.2 95.2 0 0116.4-19.5 223 223 0 0127.7-20.5l-4.5-5c-3 1.4-6.2 3.2-10.2 5.6zm56.2 76.4l-.1 4.3a48.3 48.3 0 01-.3 2.6v.7c2.8-2.5 5.4-5.3 7.7-8.2l-7.3.6zm-2.8 9.6l.2-2 .3-2.6v-4.9l-5.9.3-2 8-1.8 7a51.3 51.3 0 004-2.3 55.9 55.9 0 005.2-3.5zm-10.5 8.2h-.1a45.5 45.5 0 01-28.8 3.2c-3.9-.8-7.7-2-11.4-3.6a65.8 65.8 0 01-4.3-2c-2.1-1-4.1-2.2-6-3.5h-.1a63.9 63.9 0 01-7.2-5.6.4.4 0 01-.1 0 55 55 0 01-6.9-7.3.5.5 0 010-.1 49 49 0 01-1.5-1.9 47.1 47.1 0 01-6.6-13.8 49 49 0 01-1.6-8.9 50 50 0 013.8-24.3c3-7 7.6-12.5 12.6-17a95 95 0 0114.7-10.8c4.4-2.7 8-4.6 11.3-6v-.1h.1a39.4 39.4 0 0118.5-3.3 45.6 45.6 0 016.5.9 1 1 0 01.1 0l3 .7a50.9 50.9 0 0110.1 4 63.1 63.1 0 0122 18.6 41.8 41.8 0 017 36.9 59.7 59.7 0 01-1.5 5.5 65 65 0 01-10.3 19.2 66 66 0 01-23.3 19.2zm-1-1.2a43.2 43.2 0 01-11.8 3.3c2-3.3 4-6.5 5.3-9.8a32 32 0 001.6-5.5l.6-4.3 8.4.1-2.1 8.5-2 7.7zm-13.2 3.4c2.1-3.2 4.2-6.5 5.4-9.7.7-1.8 1.2-3.6 1.5-5.4l.7-4.7-2.2-.2a101.1 101.1 0 01-8.8-1.2l-2.6 7.5c-1 2.7-2 5.1-2.9 7-1.4 3.1-2.5 4.7-3.5 6a46 46 0 0012.4.7zm-14.2-1c1-1.2 2-2.7 3.3-5.5l2.8-7 2.9-8-4.7-1-4.1-1a139 139 0 01-4.9 11.4c-1 1.8-1.8 3.4-2.8 4.8a89.3 89.3 0 01-2.2 3.2 59 59 0 009.7 3.1zm.4-24.7c1.9.5 3.6 1 5.3 1.3a122.6 122.6 0 005.2 1.1 100.2 100.2 0 0021.5 1.8 208.7 208.7 0 009.9-.4l6.9-.5-1.3-3-1.3-3.5-9 .2a120.4 120.4 0 01-10.7-.5 141 141 0 01-26.2-5c-9.8-2.5-20.7-6-31.5-9.4a.5.5 0 01-.3-.4l-.8 1-3.7 5.6 8.6 3 16.5 5.5h.1l10.8 3.2zm-11.6 21l1.9-2.8a48.2 48.2 0 002.6-4.6c1.7-3.3 3.4-7.6 5.1-12a284.8 284.8 0 01-9-2.6 64.6 64.6 0 01-4 10c-1.6 3-3.4 5.2-5.3 7.2 1.7 1.2 3.5 2.2 5.4 3.2a64.3 64.3 0 003.3 1.6zm-10-5.6c1.6-1.9 3.3-3.8 4.7-6.4 1.5-2.9 2.8-6.7 4-10.6l-5-1.6c-2 3.5-3.9 7-5.6 9.4a26.8 26.8 0 01-4 4.7 62.7 62.7 0 005.9 4.5zm1.9-19v-.2l-8.2-2.8-1.6 3.2c-.8 1.5-1.5 2.8-2.2 3.8-1 1.6-2 2.5-2.8 3.3 1.7 2.2 3.7 4.2 5.8 6.2a28.5 28.5 0 001.2-1.2c.7-.8 1.5-1.7 2.2-2.8 1.7-2.4 3.6-6 5.5-9.5zm-15.7 6c.6-.5 1.2-1.2 2-2.3l2-3.5 1.9-3.7-7.7-2.7a91 91 0 00-2.6 5.1 45.1 45.1 0 003.5 6 45.8 45.8 0 00.9 1.2zm4.8-22c.3-.1.7-.2 1-.1 10.7 3.4 21.6 6.9 31.3 9.4a207 207 0 0026 4.9 117.5 117.5 0 0010.4.5l7.5-.1-.5-1.4-.7-2.1-1.4-4.2-7.3.1a94.5 94.5 0 01-28.3-4.3 1238 1238 0 01-32.5-9.4l-5.5 6.7zM542 321l-1-2.8-.7-2.1c-1.8-5.5-4.2-12.8-7.8-19.3a62 62 0 00-3.3-5.2v-.1a88.4 88.4 0 00-9.5-11.7l-4.1-4.5-24.2-26.8a37.8 37.8 0 013.5-1.1l16.8 13.3c5.4 4.5 10.3 9.2 14.5 14a88 88 0 0116.5 27.6c3 8 4.2 14 5.4 20.1a66.3 66.3 0 01-2.3 3.8 61 61 0 01-1.2 1.7l-1.2-3v-.1a112 112 0 01-1.4-3.7zm-71.8-23.3l.5-.6 4-4.2c2.2.8 4.4 1.6 6.8 2.3a79.5 79.5 0 008.7 2.4c4.5.9 9.8 1.6 15.1 2.3l7.2 1c3.7.4 7.3 1 10.8 1.7l10.2 1.8a112.6 112.6 0 012.6 6.8l-5.7.1a91 91 0 01-27.8-4.2 1251 1251 0 01-32.4-9.4zm6.4-6.6a88.4 88.4 0 013.8-3.4 83 83 0 012.3-1.8l21 2.7a271.6 271.6 0 018.3 1.4l6.4 1.3 8.9 1.8c1.1 1.7 2.2 3.3 3.1 5a62.4 62.4 0 012 4l-7.7-1.4a331.4 331.4 0 00-11-1.8l-7.1-1c-5.3-.6-10.6-1.3-15-2.2a78 78 0 01-8.6-2.3c-2.3-.7-4.4-1.5-6.4-2.3zm8.4-7a128 128 0 018-5.3l6 .2a98.4 98.4 0 0112.6 1.3l6.2 1.1a185.1 185.1 0 017.7 9.2l-5.8-1.2-6.4-1.2a795.7 795.7 0 00-28.3-4zm11-7.2l4 .2a100.4 100.4 0 0113 1.3l2.5.5-7.8-8.7-.3.3-11.4 6.4zm-43 42.2a46.2 46.2 0 01-2-5.4 63.1 63.1 0 017.2-15 101.4 101.4 0 0118.6-21.2c7.5-6 16-10.1 24.7-14.1l5.2 5.7c-4.7 2.6-9.5 5.3-14 8.1-3.6 2.2-7 4.5-10.4 7v.1a93 93 0 00-3 2.4 95 95 0 00-5 4.5h-.1v.1a114.3 114.3 0 00-21.3 27.8zm-2.8-8.6a48.5 48.5 0 01-1.1-12.7c2.5-3.7 5-7.4 8-11a92 92 0 0110-11c7.4-6.9 17.4-13.5 27.4-20.1l6 6.5a85.2 85.2 0 00-34.9 24.2 104.2 104.2 0 00-14 20.8 68.3 68.3 0 00-1.4 3.3zm99.7 8.6a62 62 0 003.2-7.7c-.5-5-1-10.2-2.7-16-.9-2.8-2-6-3.8-9.3-1.8-3.4-4.2-7.1-7.4-11.2-3.2-4-7.3-8.6-11.8-13.4a865 865 0 00-14.3-14.5 44.4 44.4 0 00-15-.3c5.3 4.1 10.6 8.2 15.5 12.4 5.4 4.5 10.4 9.2 14.6 14a89 89 0 0116.6 28c2.7 7 4 12.6 5 18zm4.9-13.7a40.9 40.9 0 00-7-35.5 63.3 63.3 0 00-21.7-18.3 49.9 49.9 0 00-8.3-3.4l11.6 11.8c4.5 4.7 8.6 9.3 11.8 13.4s5.7 7.9 7.5 11.3a53 53 0 016 20.7" fill="#c88c1a"/><g fill="#87288e"><path d="M485.4 410.6a51.5 51.5 0 0111 13.6 21.4 21.4 0 011.8 14c-.4 2.2-1 4.3-1.7 6-.7 1.7-1.7 3.2-2.7 4-1.4 1-2.6 1.2-4 .6-1-.4-2-1.3-3.3-2.3l-1.8-1.6-4.4-3.7c0 .8 0 1.8.2 3l1.5 11.6.3 4a3.5 3.5 0 01-1.8 3c-1 .5-2.2.7-3.7.5-1.2-.2-2.7-.6-4.4-1.3a38 38 0 01-11-7 31.7 31.7 0 01-8.6-12.5 46.7 46.7 0 01-2.4-18.1c.3-2.6 1-4.6 2-6.3 1-1.7 2.5-3 4.2-4.4a46.7 46.7 0 0116-7.6 12.8 12.8 0 013.9 0 13.6 13.6 0 014 1.2c1.4.7 3 1.7 5 3.3zm4.5 8.2c-2.1-2.6-4.4-4.9-6.4-6.6a21.5 21.5 0 00-4.7-3.1 12.3 12.3 0 00-3.6-1.1c-1-.2-2-.2-3.2 0-1.1.2-2.3.5-3.9 1.1a51.7 51.7 0 00-10.5 5.8c-1.4 1-2.5 2.1-3.3 3.4-.9 1.4-1.4 3-1.7 5.4a45.6 45.6 0 002.4 17.7 27.2 27.2 0 008.3 12 44.8 44.8 0 005.3 4c1.9 1.1 3.8 2.1 5.4 2.8 1.6.7 3 1 4 1.2h1.9l.2-.9c0-.8 0-2-.3-3.7l-.7-5.4-.8-6.1a18 18 0 01-.2-4c.3-2 1.2-2.9 3.2-2.2 1.2.5 3.3 2.4 5.3 4.2l1.8 1.6a13 13 0 003 2.1c.6.3 1 .3 1.4.1.5-.4 1.1-1.4 1.7-2.8a26 26 0 001.8-11.8c-.2-2.2-.8-4.6-2-7a36.8 36.8 0 00-4.4-6.7m-17.8 6.8v-6.2c0-1.7.2-3.3.5-4.4.5-1.7 1.3-2.7 2.3-3.2 1-.5 2-.4 2.8-.2a10.9 10.9 0 016.2 4c.4.7.6 1.4.6 2v.1c-.1.9-.5 1.7-1 2.5a20 20 0 01-2.2 2.5l-2.4 2.4-2.4 2.5-.9 1c-1 1.2-1.4 1.7-2.5 1.4-.3 0-.6-.4-.7-1.2a22 22 0 01-.3-3.2zm2.2-7v6.1l.2 2.8.6-.6 2.5-2.6 2.3-2.3 1.7-2c.4-.6.6-1 .6-1.5s-.1-1-.4-1.5c-.4-.6-1-1.1-1.5-1.6a10.6 10.6 0 00-2-1.2c-.6-.3-1.3-.6-2-.7-.4-.2-.9-.2-1-.1-.2 0-.3.3-.5 1v.1c-.3 1-.4 2.5-.5 4m-11.4.8c-.6.1-1.5.6-2.2 1.2-.5.4-1 1-1 1.5-.2.7.2 1.6.7 2.4.7 1 1.6 1.9 2.6 2.8l3 2.5 1.5 1.1c-.1-1.3-.7-3.3-1.1-5l-.3-1.2-1.2-3.8c-.2-.5-.5-1-.9-1.3-.2-.2-.6-.3-1.1-.2zm-3.4.2c1.2-1 2.7-1.8 3.9-2 1-.3 1.9-.1 2.5.4.5.4.9 1 1.2 1.6l1.2 4 .3 1 1.1 5.4c.1 1 0 1.7-.4 2.3-.8 1-1.7 1.2-2.8.7-.7-.3-1.5-.8-2.4-1.5a40.2 40.2 0 01-3-2.6c-1-1-2-2-2.7-3-.7-1-1.1-2.1-1-3.2.3-1.2 1.1-2.3 2.1-3.1zm8.1 12.2c0 .1 0 .2 0 0m-1.3 6.7l-3 1.3c-.8.4-1.3.8-1.5 1.1-.5.9.3 2.3 1 3.6l.2.4c.8 1.4 1.6 2.8 2.4 3.3l.2.2c.2 0 .4-.4.8-1 .8-1.6 1.8-4.3 2.6-6.5l.7-2 .6-1.7h.1c-.2-.1-.6 0-1.3.2l-2.8 1zm-3.5-.1l3.5-1.6 3-1.1c1-.4 1.9-.6 2.4-.5.7.2 1 .6.8 1.4 0 .5-.3 1.2-.7 2.1l-.7 2-2.8 6.7a6 6 0 01-2.3 2.6c-1 .5-1.8.4-2.5-.1-.9-.6-1.7-2.1-2.5-3.6l-.2-.4c-1-1.7-2-3.4-1-5 .7-1 1.7-1.9 3-2.5"/><path d="M481.3 430.1l1.2-.7c2.3-1.3 4.7-2.7 6.6-3.3a5 5 0 013-.2c.6.2 1.2.7 1.6 1.2.4.6.8 1.3 1 2.1.2.8.2 1.6.2 2.6-.2 1.6-.7 3.5-1.1 5l-.4 1.5c-.6 2.2-.9 3.2-3.6 3.1-.7 0-1.8-.3-3-.6a39.8 39.8 0 01-4-1.4l-3.8-1.8-1.6-.8-.6-.2-1.4-.7c-.6-.5-.7-1 0-1.9.6-.9 2.4-1.9 4.6-3.1zm1.7.7l-1.2.7-1.3.8-3.2 2 1 .5.7.3 1.7.8 3.7 1.7a38.4 38.4 0 006.5 1.9c.1 0 .2-.2.3-.8l.4-1.5c.4-1.4 1-3.2 1-4.6a7 7 0 000-2.3c-.3-.7-.5-1.2-.9-1.7-.3-.4-.7-.7-1.1-.9a3 3 0 00-1.7.2c-1.5.4-3.7 1.7-5.8 3zm-6 3.6h.1zm0 0c0 .1 0 0 .1 0m-3 9l-1.1 5-.3 3.5a3.8 3.8 0 001.9 3.5l.6.3c.2-.4.3-1 .4-1.8v-4l-.2-4.6-.6-4.5-.7 2.5zm-3.3 5.6a52 52 0 011-5.2l1-3.2 1-2.2c1-1.5 1.8-2 2.6-1 .2.4.4 1 .6 2.2l.6 4.7.3 4.7-.1 4.2a8.2 8.2 0 01-.7 2.8c-.7 1.3-1.6 1.7-2.6 1.7-.5 0-1.1-.3-1.7-.6-.5-.3-1-.7-1.5-1.4-.4-.7-.7-1.6-.8-2.8 0-1.1 0-2.5.3-4m25.9-17.9c-.6 0-.8-.4-.6-.9a1.9 1.9 0 011.5-1l30.2-1.1 8.4.3 5.4.7c.5 0 .6.6.3 1s-1 1-1.6.9l-5.2-.7-8.3-.3c-7.3 0-18.7.5-30.1 1.1m50 1c-.3-.2-.3-.8.2-1.3s1.2-.7 1.6-.5c2.3 1.2 4.5 2.3 5.5 3.4.6.7.8 1.4.6 2.1-.3.9-1 1.7-2.4 2.4-1 .5-2.5 1-4.4 1.5-1.7.4-3.7.7-6.2 1l-7.8.8-9.7.5-8.3.1H502l-6-.2c-.5 0-.8-.4-.5-1s1-.9 1.5-.9l6 .1 6.4.1h7.3l8.2-.1 9.6-.5 7.8-.7 5.8-1c1.6-.4 2.8-.8 3.6-1.2l.7-.5c0-.3-.1-.6-.5-1-.9-1-3-2-5.2-3v-.1"/><path d="M527.9 471c-.2.5-.8 1-1.4 1.1s-1-.2-.7-.7l8.8-26 2.3-6.7.3-1 1.3-3.5 2-6.1.8-2.4 4.8-14c.9-2.2 1.6-3.6 3.1-5.2a35 35 0 017.5-4.8c3.4-1.9 8.3-4.4 13.2-6.8l14.9-7.3c3.6-1.7 5.6-2.6 6.8-2.8 1.8-.5 2 0 2.1 1 0 1-.1 2.7-.3 4v.7c-.2.6-.2 1-.2 1.4v.7c0 .8 0 1.4-5.6 4l-12.8 5.6-7.1 3-7.2 3.3-4.2 2-2.1 1.4-1 1.1c-.4.8-.7 1.9-1.2 4l-1 3.2-2.7 9.4-3.7 11.4-10.4 30.6c-.1.5-.8 1-1.3 1.1s-1-.2-.8-.8l10.4-30.6L546 430l2.8-9.4.9-3.1c.6-2.4 1-3.5 1.5-4.5a7 7 0 011.8-2.2 83.3 83.3 0 017.1-3.9l7.3-3.3 7.2-3 12.7-5.6 3.5-1.6v-.8l.2-1.5.1-.7c.2-1.2.4-2.8.3-3.6 0-.2 0-.3-.3-.2-1 .2-2.8 1-6.2 2.6l-14.8 7.2-13 6.8c-3.5 1.9-5.5 3-6.6 4.2-1.2 1-1.7 2.2-2.4 4-1.4 3.5-3.2 9.2-4.8 14l-.8 2.3-2 6.2-1.3 3.5-.3 1-2.3 6.6-8.8 26m24.4-34.6c.1-.5.7-1 1.3-1.2s1 .1 1 .6l-10.8 56.4c-3 15.9-5.3 28-5.6 37.8-.1 5 .3 9.4.6 13 .4 3.7.6 6.6.3 8.7-.5 2.6-1.8 4-3.9 5-1.7 1-4 1.3-6.6 1.5a137.4 137.4 0 01-9.5.7 104 104 0 01-16.4-.8 99.7 99.7 0 01-7.8-1.4c-1.7-.4-2.8-.7-3.4-1.4-.7-.7-.7-1.8-.4-3.7l1-4c.9-3.4 2-7.6 2.5-12 .3-3.1.4-6.4 0-10.4s-1.3-8.8-2.6-15.2c-2.6-12.6-7.3-31.3-12-50 0-.5.4-1.1 1-1.4s1.2-.2 1.3.2l12 50.1a149 149 0 012.5 15.3c.4 4.1.4 7.5 0 10.7a86.8 86.8 0 01-3.5 16.2c-.3 1.4-.2 2.2.2 2.7s1.3.7 2.8 1a98.3 98.3 0 007.7 1.4 90 90 0 007.5.7c2.8.2 5.7.2 8.5 0a134.7 134.7 0 009.4-.6c2.3-.2 4.3-.5 5.5-1.1 1-.5 1.7-1.3 2-2.9.3-2 0-4.7-.3-8.3-.3-3.7-.7-8.1-.6-13.2.3-9.9 2.6-22 5.6-38l.1-.4 10.6-56"/><path d="M492.8 553.5c-.5.4-1.2.7-1.6.5-.4-.2-.4-.7 0-1.2 1.6-1.9 3.2-3.8 6.5-5 1.5-.5 3.3-.8 5.4-1l6.6-.4 8-.2 6.2.2a46.1 46.1 0 019.5 1.7c2.3 1 3.9 2 5.5 3 .3.3.2.9-.3 1.3s-1.2.7-1.5.4c-1.6-1-3-2-5.2-2.8-1.2-.5-2.4-.8-4-1s-3.1-.6-5.2-.7l-6-.2-8 .2-6.4.4c-1.9.2-3.5.5-4.7.9-2.3.8-3.5 2.3-4.8 3.8m5.3-64.6c1.2-.7 2.7-.7 5.9-.7 3 0 7.4 0 9.9.4 1.3.3 2 .8 2.5 1.5.4.7.4 1.6.3 2.8 0 1.1-.2 2.5-.5 4l-.7 4.1-.6 3.2c-.2 1-.4 1.7-.7 2.3-.3 1-.8 1.6-1.8 2.1a7 7 0 01-3.3.6c-1.1 0-2.8 0-4.4-.2l-5.3-.6c-1.4-.2-2.3-.5-3-.8-.7-.4-1-.9-1.3-1.6-.1-.7-.2-1.6-.1-2.6l.2-3.4.4-3.7.3-3.3.5-2.2c.3-1 .8-1.5 1.7-2zm4.9 1.2l-4.5.2v.2c-.2.4-.3 1-.4 1.9l-.3 3.2-.4 3.7-.2 3.3.1 2.2a1.5 1.5 0 00.8 1c.5.3 1.3.5 2.6.7l5.1.6 4.3.2c1 0 1.6 0 1.9-.2l.1-.4c.3-.5.4-1.1.6-2l.6-3 .7-4.2.5-3.8c.1-1 0-1.7-.2-2.2-.3-.5-.8-.8-1.8-1-2.3-.5-6.6-.4-9.5-.4m9 32.4a39.3 39.3 0 0111.8-4.5c1.8-.2 3 .1 3.8.8.8.6 1.3 1.5 1.7 2.5l1.4 4.4.4 1.3.8 2.6.6 2c.2.7.3 1.2 0 1.9-.5.6-1.2 1.2-2.5 1.8l-4 1.6-4.4 1.4c-1.5.4-2.8.6-4 .7-1.2 0-2.2-.1-3-.6a6 6 0 01-2.1-2c-.6-.9-1-1.9-1.4-2.9l-1-3-.9-2.7c-.2-.9-.4-1.6-.1-2.4.3-1 1.1-1.9 2.8-3zm6-1.3c-2 .9-4.2 1.9-5.4 2.7-1 .5-1.3.8-1.4 1.1-.1.4 0 1 .2 1.6l.8 2.7 1 3c.4 1 .8 1.9 1.3 2.6a5 5 0 001.8 1.8c.6.3 1.3.4 2.2.4 1 0 2-.3 3.4-.6l4.2-1.3 3.7-1.5.7-.3-.2-.6-.6-2-.8-2.6-.4-1.3-1.4-4.3a5 5 0 00-1.3-2.2c-.6-.4-1.5-.7-2.8-.5-1.3.1-3.1.7-5 1.3"/><path d="M524.4 476.4c.2-.6.8-1 1.4-1.1s.9.2.7.7l-10.8 32.4-8 24a139.1 139.1 0 00-3.2 11.3l.6.1a8 8 0 00.8.1h1l.7-.1.2-.2a43.9 43.9 0 002-5.5l1.3-5c0-.6.7-1 1.3-1.2s1 .1.8.6l-1.2 5.1-1.3 4a8.5 8.5 0 01-1.2 2.5c-.7.8-1.3 1.2-2 1.4a5.5 5.5 0 01-1.4.3 10 10 0 01-1.3 0 9.8 9.8 0 01-1 0 3.6 3.6 0 01-.9-.3c-.4-.2-.8-.5-.3-2.4.3-1.6 1.2-4.5 3-10.3l8-24 10.8-32.4m7.4-1c.2-.6.9-1 1.4-1.1s1 .3.7.8l-17 46c-.1.5-.8 1-1.3 1s-1-.3-.8-.8l17-46m-47.7-3.4c-.7.2-1.1 0-1.1-.4s.5-1 1.1-1.3l7-2.4c2.6-.7 5.4-1.3 8.9-1.8 6.7-.8 15.7-.9 21-1h8.1c.5 0 .8.4.5 1s-1 .9-1.5.9h-8c-5.3.1-14.2.2-20.8 1-3.3.4-6 1-8.5 1.7-2.4.7-4.6 1.5-6.7 2.3m50.2-4.3c-.5 0-.6-.6-.3-1s1-1 1.5-1l3.4.5 3 .4 2.2.5 1.7.7c1 .5 1.5 1 2.1 1.7a.4.4 0 01.1.1c.2.3 0 .8-.5 1.2s-1 .5-1.4.3c-.6-.6-1.2-1.1-2-1.6l-1.5-.5-2.1-.5-2.9-.4-3.3-.4"/><path d="M546.6 472.6c.6-.2 1 .1.8.6s-.7 1-1.3 1.2l-5.1 1-5.7 1-6.5.4-6.9.3h-7l-7.2-.1-6.6-.3-6.8-.5-4.8-.6-3.3-.6c-.8-.3-1.4-.6-1.9-1l-1-1c-.2-.3 0-.9.6-1.3s1.2-.5 1.5-.2l.8 1 1.5.7 3 .6 4.7.5 6.8.5 6.6.3 7 .1h7l7-.3 6.2-.4 5.5-.9 5-1"/></g><g fill="#293779"><path d="M96 398c4-2.7 11.2-6 17.4-9l6.2-3a16 16 0 005.7-3.7c1-1.4 1.5-3.3 2-6.7l1-13.4 1-12.7c.5-3.8 1.3-5.4 2.9-5.4 1 0 2.1 1.5 3.8 4a267.5 267.5 0 0112 20l.8 1.7c2.5 4.5 3.6 6.6 7.1 7 2 .2 4.9-.1 8-.7 3-.5 6.4-1.3 9.3-2l1-.2c5.5-1.4 9.6-2.3 12-2.2 1.4 0 2.1.6 2.1 1.8 0 1-.8 2.5-2.3 4.8a159.9 159.9 0 01-13.2 15.7l-3.2 3.1c-2 1.9-3 2.9-3 3.9s1 2.4 2.7 4.6l2.9 3.9a144.4 144.4 0 019.8 16.2c1 2 1.5 3.3 1.4 4 0 1.4-1 1.9-2.4 2.3-1 .3-2.3.5-4.1.3-1.8-.2-4-.9-6.9-2.4-2.9-1.6-6.4-4-9.9-6.5-3.2-2.3-6.3-4.5-8.9-6-2.5-1.3-4.3-1.9-5.7-2a3 3 0 00-2.3 1c-.7.7-1.2 1.8-2 3.8a114.2 114.2 0 01-15.4 25.9 10.5 10.5 0 01-3.5 2.6c-1 .3-1.7.4-2.4.1a3 3 0 01-1.5-1.5c-.5-1-.8-2.5-1-4.5-.3-5.5 1-14.8 2-21.6l.3-2.8c.5-3.3.7-5.6.8-7.2.2-1.5.1-2.5 0-3.3 0-.8-.2-1.4-1-1.9-.6-.5-1.9-.8-4.3-1l-8 .1c-4 .2-8.5.3-11.4 0a8.8 8.8 0 01-3.5-1c-.5-.3-.8-.6-.9-1 0-.6.1-1.2.5-1.8.7-1 2-2.1 4-3.4zm17.5-7.7c-6 2.8-13.1 6.2-17 8.6-1.7 1.1-2.7 2-3.2 2.6-.2.3-.2.5-.2.7 0 .2.2.4.6.6a8 8 0 003 .8c2.8.3 7.2.2 11.3 0h8c2.7.1 4.1.5 5 1.1.9.7 1 1.5 1.2 2.4a110 110 0 01-.8 10.8l-.4 2.8c-.9 6.8-2.2 16-1.9 21.4.1 1.9.4 3.2.9 4.2.3.6.7 1 1.1 1.1.4.2.7.2 1.2 0 .6-.3 1.4-.9 2.4-1.9 1.6-1.7 3.6-4.5 5.6-7.6a142.8 142.8 0 006.6-11.9c1.2-2.3 2-4.2 2.6-5.6 1-2.3 1.6-3.6 2.6-4.7 1-1 2.3-1.7 4.2-1.7 1.5 0 3.6.6 6.3 2.1 2.5 1.5 5.7 3.7 8.9 6 3.4 2.4 7 5 9.8 6.5 2.7 1.4 4.9 2 6.5 2.3 1.6.2 2.7 0 3.4-.3.4 0 .5-.1.6-.2 0-.7-.4-1.8-1.4-3.7a134.4 134.4 0 00-12.7-20c-1.7-2.3-2.8-3.7-2.8-5 0-1.7 1.2-3 3.7-5.2l3-3a155.3 155.3 0 0013-15.4c1.4-2 2-3.3 2-4 0-.6-.4-.9-1.3-1-2 0-6 .9-11.5 2.2l-.9.2c-3 .7-6.3 1.5-9.5 2a33 33 0 01-8.4.7c-4-.4-5.2-2.6-7.8-7.4l-.9-1.7a332.8 332.8 0 00-11.9-19.9c-1.5-2.3-2.5-3.6-3-3.7 0 0 0 1.1-.4 3.5-.4 3-.7 7.8-1 12.6l-1.1 13.5c-.4 3.6-1 5.8-2.3 7.5a18 18 0 01-6.8 4.7l-6.3 3m24.8.8c-.4 1-.6 2.3-.5 3.5.1.8.4 1.6 1 2 .6.6 1.6.8 2.7.7 1.1 0 2.3-.4 3-.9.7-.4 1-1 1.3-1.6.4-.8.5-1.8.4-2.8-.1-.9-.4-1.7-.8-2.4-.3-.6-.8-1-1.4-1.4-.5-.2-1-.3-1.7-.3a5.4 5.4 0 00-2 .4c-.4.3-.8.5-1.1.9-.4.4-.7 1-1 1.9zm-2.2 4.2c-.1-1.3.2-2.8.5-4 .4-1 .8-1.9 1.4-2.6.6-.7 1.4-1.2 2.2-1.6.9-.4 1.9-.6 2.8-.7.8 0 1.6.1 2.3.5.7.3 1.3 1 1.7 1.7a7 7 0 01.4 6 6 6 0 01-2.2 2.8 9.1 9.1 0 01-4.4 1.4c-1.3 0-2.6-.2-3.4-.9a3.8 3.8 0 01-1.3-2.6"/><path d="M102.4 398.1c-.4.2-.8 0-.7-.4s.4-.8.9-1a129 129 0 0011-3.7c3.6-1.5 7-3.3 10.5-5.2.5-.2 1-.1 1 .2 0 .3-.2.8-.7 1-3.5 1.9-7 3.7-10.7 5.2-3.7 1.6-7.5 2.8-11.3 4m20.9 38.8c-.2.4-.7.8-1 .8s-.8-.2-.6-.6l11.9-28.7c.1-.4.6-.8 1-.8s.7.2.5.6L123.3 437m51.5-14.4c.2.2 0 .7-.3 1s-1 .4-1.2.2l-21.8-20.9c-.2-.2-.1-.7.3-1s1-.4 1.2-.2l21.8 20.9M161 391.4c-.5.3-1 .3-1.1 0s0-.7.5-1l18.5-11.8c.5-.3 1-.3 1 0s0 .7-.5 1l-18.4 11.8m-55.7 9.9c-.4 0-.7-.1-.7-.5s.6-.8 1-1l24-6.3c.4 0 .7.1.6.5s-.5.8-1 1l-23.9 6.3m27.2-48.3c0-.3.3-.8.7-1s1-.2 1 .1l6.6 28.6c0 .3-.3.7-.7 1s-1 .1-1-.2l-6.6-28.5"/></g><g fill="#42b0b8"><path d="M407.7 251.1c-.1.3-.4.6-.7.8l-.8.6-2.1 1-1.8.3c-2.5 0-4 0-5.2-.7-1.2-.6-2.1-1.7-3.4-3.8-.4-.6-.5-1-.6-1.4-1 1.1-2.4 2.4-4 3.4-1.7 1.1-3.6 2-5 2-1.2 0-3-.2-4.5-.6a8.7 8.7 0 01-3-1 12.8 12.8 0 01-3.2-3.4 7.3 7.3 0 01-1.3 1.8 11 11 0 01-5.1 3 19 19 0 01-5.4.5c-1.3 0-2.9-.6-4.3-1.4-1.4-.8-2.7-1.8-3.7-2.7a7.8 7.8 0 01-4.1 3.6c-2.6 1.1-5.6 1.4-7.8 1.3-6.3-.3-7.1-1.4-10.3-5.5l-.8-1-1.3-1.5a5.7 5.7 0 00-.7-.5 5.8 5.8 0 01-.4.8c-1 2-3 4.4-5.4 6-2 1.2-4 1.9-6 1.3-1.7-.6-3.3-1.6-4.7-2.8a35.6 35.6 0 01-3.7-3.8l-.2.4-1 1.7c-1.6 2-3.7 3-6 3.3a12 12 0 01-6-1.2c-1-.4-1.9-1-2.6-1.5l-1.4-1.2a42 42 0 00-1.5-1.5l-.3.3-.3.4a10.8 10.8 0 01-8.6 3.4c-3-.1-6-1.1-8.2-2.8a10.5 10.5 0 01-.5-.4 24 24 0 01-.7-.6c-1.2-1.1-2.7-2.6-3.7-2a7 7 0 00-1.6 1.2c-1.4 1.4-2.9 2.9-5.9 3-3.6.2-6.7-1.8-9.5-3.5l-1-.6c-.3-.3-.2-.8.3-1.3s1.2-.7 1.5-.4l1 .5c2.6 1.7 5.5 3.6 8.6 3.4 1.8 0 2.8-1 3.7-1.9.7-.8 1.5-1.5 2.6-2 2.5-1.2 4.4.6 6 2l.6.6.4.4c2 1.5 4.8 2.4 7.4 2.5 2.4 0 4.7-.5 6-2l.3-.4.3-.5c.8-1.3 1-1.8 2.7-1.4.4.2 1.4 1.1 2.3 2a13.8 13.8 0 003.7 2.6c1.7.7 3.5 1.2 5.2 1 1.3-.1 2.6-.7 3.4-1.8l.8-1.2.2-.6c.3-.6.5-1.2 1-1.6v-.1c1-.9 2-1 2.9.2a35 35 0 003.7 3.8c1.3 1.1 2.7 2 4.3 2.5 1.3.4 2.6 0 3.7-.7 1.8-1.2 3.4-3.2 4.3-4.7l.3-.8c.2-.8.4-1.3 1.5-2 .4-.3.8-.4 1.1-.3.8.2 1.4.7 2 1.2l1.4 1.7.8 1c3 3.8 3.7 4.7 9.4 5 1.9 0 4.5-.1 6.5-1 1.2-.5 2.2-1.3 2.5-2.5l.4-1.6c0-.4 0-.7.7-1.1 1.3-.9 1.3-.5 1.5 0 0 .2.2.6.6 1 1 1 2.4 2.2 4 3.1 1.3.7 2.6 1.3 3.7 1.3 1.8 0 3.3 0 4.6-.3 1.2-.3 2.3-1 3.4-2 .8-.8 1-1.8 1.3-2.3.2-.7.3-1.2 1-1.6.9-.5 1.4-.3 2 .8a12.7 12.7 0 003.4 3.6c.6.4 1.5.8 2.6 1 1.5.3 3 .4 4 .4s2.2-.5 3.4-1.3c1.4-1 2.7-2 3.3-3 .2-.2.2-.4.2-.5l.4-.8c.7-.6 1-.6 1.6-.6h.3c.2 0 .4.1.5.3.3.5.4.8.5 1.3.1.3.2.7.6 1.2 1.2 2 2 3 3 3.5s2.3.5 4.5.5a10.3 10.3 0 002.4-.9l.4-.7.2-.4 2-4v4l-.1.2-.1.3a28.3 28.3 0 00-.4.7zm-34-4.3l-.1.1c-.3.2 0 0 .1 0zm-65.1-.1c.1-.2.2-.3 0-.2a.3.3 0 000 .2"/><path d="M382.1 251.7c0 .4-.6 1-1.2 1.2s-1 0-1-.5a156.4 156.4 0 015.5-24.8l.6-1.5 4.2-9.9c-.3-2.2-5.1-1.8-8.2-1.5l-1.8.2h-.1c-3.9.1-7.2.6-10.4 1-4.5.7-8.9 1.3-14.7 1.2-12.5-.3-25-.2-37.5 0l-26.2.2c-8.4 0-13.6-1-20.3-2l-4.7-.7c.2 3.4 2 6.1 4 9.2l1.4 2 3.5 5.4c3.9 6 7.5 11.4 11 18.2.1.4-.2 1-.8 1.3s-1.2.4-1.4 0c-3.4-6.7-7-12.2-10.8-18l-3.5-5.4-1.4-2c-2.5-3.8-4.6-6.9-4.1-11.6a1.1 1.1 0 01.2-.5c.3-.5 1-.8 1.5-.8l6.4 1c6.6 1.1 11.7 2 20 2l26.2-.2h37.6c5.6.1 9.9-.5 14.2-1.1 3.3-.5 6.7-1 10.7-1.1l1.8-.2c3.6-.3 9.2-.8 9.6 2.4 0 .7-2.9 7.5-4.3 10.8l-.6 1.4a155.4 155.4 0 00-5.4 24.3"/><path d="M269 225.7c-.6 0-.8-.5-.5-1s1-1 1.5-1h.1l53 2c14.3 0 26-.6 35.8-1l3.2-.2 26.2-1c.5-.1.8.3.5.8a1.9 1.9 0 01-1.5 1l-26.1 1-3.2.2c-9.8.5-21.6 1.1-35.8 1-15.8 0-34.5-1-53.2-1.8m67.8-11.5c0 .5-.5 1-1.1 1.3s-1.1 0-1.1-.4l-.5-95.2c0-.4.5-1 1-1.2s1.2-.1 1.2.4l.5 95.1"/><path d="M344.1 133l7.2 12 25.8 43.4c4.2 7 6.2 10.9 7.3 13 1 2.3 1 2.8 1 3.2-.5 1.7-.8 1.7-10 1.8h-.2a1691 1691 0 01-45.7-.4l-34.2-1-27.8-.9c-6.7-.2-10-.4-9.9-2.5.1-1.9 3-4.9 8.6-10.6l2.5-2.6 42.3-44.3 10.4-11 12.6-13a13.4 13.4 0 01.4-.5c2-1.7 2.1-1 1.8.1 0 .1 0 .3-.2.4v.1c0 .1.6.3 8.1 12.9zm5.2 13.5l-7.2-12c-4.7-7.7-6.7-11.3-7.5-13L323 133.8l-10.4 11-42.3 44.4-2.6 2.6c-5 5.2-7.7 7.9-7.8 9 0 1 2.9 1.2 8.8 1.4l27.8 1 34.1 1 45.8.3c6.8 0 6.7 1.3 6.9.6 0-.2 0-.4-1-2.4s-3-5.9-7.1-13l-25.8-43.2m-14.4-4.8c.5-.4 1.2-.5 1.4-.2.2.3 0 .8-.3 1.2-14.8 15.7-29.5 31.4-32.3 37-.3.6-.4 1-.4 1.3 0 .2.2.4.4.4.3 0 .9 0 1.5-.2 2.6-.7 6.6-2.9 10-5l6.3-4.2c2-1.6 3.4-2.5 4.2-2.2.4.2.5.6.2 1.3-.5 1-2 3.4-4 6a190.1 190.1 0 01-6.6 8.7l-2.3 2.7a20 20 0 00-2.9 3.7l.2-.1c1-.1 2.9-.8 5-1.5 3.3-1 7-2.2 9-2.1 2 0 2.2 1.4 1.6 3.2a32 32 0 01-2.9 5.5c-.3.5-1 .9-1.5.8s-.7-.5-.4-1c1.1-1.8 2.2-3.6 2.7-5 .3-1 .2-1.6-.7-1.6-1.5-.1-5 1-8 2-2.2.7-4.3 1.4-5.5 1.6-1 0-1.6-.2-1.7-.8-.1-1 1.3-2.7 3.5-5.2l2.3-2.8a189 189 0 006.5-8.4l3-4.3a6.3 6.3 0 01-.9.7c-1.6 1.2-3.8 2.8-6.5 4.4-3.6 2.2-8 4.6-10.9 5.4-1 .3-1.9.4-2.5.3-.8-.2-1.2-.6-1.3-1.3 0-.6.1-1.4.6-2.3 3-6 17.9-21.8 32.8-37.7l.4-.3"/></g><g fill="#ed1174"><path d="M398 355.4l-6.8-5.1a15.3 15.3 0 00-6.8-2.7c-1.9-.1-3.5.5-5 1.4a9.6 9.6 0 00-3.3 4.5 7.8 7.8 0 000 5.2c.6 1.7 1.7 3.3 3.4 4.7 2.9 2.3 7.3 4 11.1 5.3l2 .8 2.9 1 2.4 1a38 38 0 012.9-5c1.1-1.8 2.4-3.4 3.8-4.9a108.9 108.9 0 00-6.7-6.2zm-5-6.8a67.7 67.7 0 0111 8.8c1.2 1.1 2.2 2.2 3 3.2.2.2.1.7-.3 1.2a31.7 31.7 0 00-4.1 5 35.6 35.6 0 00-3.2 5.9 1.4 1.4 0 01-.3.4c-.4.5-1 .8-1.5.6l-3.7-1.3-2.8-1.1-2-.8c-4-1.4-8.4-3-11.5-5.5-1.8-1.5-3-3.2-3.7-5.1-.6-2-.6-4 0-6 .9-2.3 2.5-4.5 4.7-6 2-1.5 4.4-2.4 6.9-2.2 2.4.1 5 1.3 7.5 2.9"/><path d="M382 365.6c.5-.3 1-.1 1 .3s-.3 1-1 1.3l-4.1 2c-1.3.6-2.5 1.4-3.7 2.4-1.1 1-2.2 2.3-3 3.7-.6 1.2-1 2.5-.9 3.8a7 7 0 001.7 4c1.1 1.3 2.6 2.5 4.6 3.5 1.9 1 4.2 1.8 6.6 2.2 2.2.4 4.4.5 6.2.2a10.1 10.1 0 005.3-2.7c.5-.5 1.2-.7 1.6-.4s.3.8-.2 1.2c-1 1-2 1.7-3.3 2.4a13.5 13.5 0 01-4 1.3c-2.1.4-4.5.3-7-.1-2.4-.5-4.9-1.3-7-2.4-2-1-3.6-2.3-4.8-3.7a8 8 0 01-1.9-4.6c0-1.6.4-3.2 1.2-4.7a17 17 0 013.7-4.7c1.4-1.2 3-2.1 4.4-3l4.5-2m38.7-3.7l8.6.8c2.9.5 5.6 1.4 7.4 3a9.6 9.6 0 013.3 5.5c.5 2.4.2 5-.7 7-1 2.2-2.5 3.9-4.5 5-2 1-4.3 1.6-6.8 1.4a41 41 0 01-12.2-3.7l-2-.8-2.8-1.1-3.6-1.5c-.3-.1-.4-.4-.2-.7.8-2.2 1.3-4.5 1.7-6.7a32.7 32.7 0 00.3-6.6c0-.5.5-1 1-1.3a1.5 1.5 0 01.4-.1c1.3-.3 2.8-.4 4.5-.4l5.6.2zm7.3 2.7a66.2 66.2 0 00-13.9-1l-2.6.1c0 2-.1 3.8-.4 5.8a38 38 0 01-1.6 6.4l3 1.3 3 1.1 2 .8c3.6 1.6 8 3.4 11.6 3.6 2 .1 3.8-.2 5.2-1a6.7 6.7 0 003-3.3c.7-1.7 1-4 .5-6.1-.4-2-1.3-3.8-3-5a15.3 15.3 0 00-6.8-2.7"/><path d="M423.4 383.6c-.1-.4.2-1 .8-1.3s1.2-.4 1.4 0c1.3 3 2.6 5.9 3 9.3a16 16 0 01-.4 5.7 9.5 9.5 0 01-2.5 4.4 9.3 9.3 0 01-5.3 2.5c-2 .3-4 0-6.3-.5-2.2-.7-4.6-1.7-6.7-3-2-1.3-3.8-2.9-5-4.5a12.2 12.2 0 01-2.6-6.9c0-.5.4-1 1-1.3s1.1 0 1.2.4a12 12 0 00.6 3.2c.4 1 1 2.1 1.7 3.1a24.4 24.4 0 0011.2 7.1c2 .6 4 .7 5.5.5 1.4-.2 2.5-.7 3.3-1.4.8-.8 1.4-2 1.7-3.2.4-1.6.5-3.4.3-5.1-.3-3.2-1.6-6.1-2.9-9"/><path d="M395 393.7c-.7-3-.9-6.3-.5-9.7a37.8 37.8 0 0114.7-26.3c.6-.4 1.2-.4 1.4-.1a.5.5 0 01.1.2c.7 3 .8 6.3.5 9.7a37.8 37.8 0 01-14.7 26.2c-.6.4-1.2.5-1.5.1a.5.5 0 010-.1zm1.7-10.5c-.3 3-.2 5.7.2 8.3a35.5 35.5 0 0011.8-31.6 35.5 35.5 0 00-12 23.3"/><path d="M408.4 359.7c0 .4-.4 1-1 1.3s-1.2 0-1.2-.4a66 66 0 00-1.4-15 14 14 0 00-.8-2 1.2 1.2 0 01-.1.3c-.8 1.3-1.6 2.5-3.5 2a4.7 4.7 0 01-3-3.5v-.8c.2-.6.5-1.3 1-2a4 4 0 012.5-1.4 3.2 3.2 0 01.8 0c1 0 2.2.8 3.2 2 .8 1 1.6 2.5 2 4.3 1.2 3.9 1.4 9.5 1.5 15.2zm-4.7-16.8a9.1 9.1 0 00-.8-1.2c-.9-1-1.7-1.6-2.4-1.7a1.1 1.1 0 00-.3 0l-.2.1c-.2.3-.3.5-.3.9v.4c0 .6.4 1 .7 1.5.5.6 1 1 1.5 1.1l.1-.3c.3-.5 1-.9 1.5-.8a.8.8 0 01.2 0m7 18.7c-.5.4-1.2.6-1.6.4s-.3-.8.2-1.2c4-4.2 8-8.3 11.6-10.4 1.8-1.1 3.5-1.7 5-2 1.6-.2 3 0 3.8.7l.5.4c.4.5.6 1.2.6 1.8 0 .7-.3 1.5-.8 2.1a4.5 4.5 0 01-.7.8c-.8.7-1.8 1-2.7 1.1-1 .2-2 0-2.6-.3-1.2-.6-1-1.6-.8-2.6 0-.5.6-1 1.2-1.2s1 .2 1 .7c-.2.5-.3 1.1.3 1.4.3.2 1 .2 1.6.2.4 0 .7-.2.9-.3v-.1c.3-.3.4-.6.4-1a1.6 1.6 0 00-.7-1.4c-.6-.4-1.5-.5-2.7-.4-1 .2-2.3.6-3.7 1.5-3.1 1.9-7 5.8-10.8 9.7"/></g></svg>