<svg xmlns="http://www.w3.org/2000/svg" xmlns:xlink="http://www.w3.org/1999/xlink" width="1300" height="1300" viewBox="0 0 13000 13000" preserveAspectRatio="xMidYMid meet" xmlns:v="https://vecta.io/nano"><g fill="#211e1e"><path d="M560 12982c0-10 7-42 16-71 23-78 87-138 184-174 296-110 1419-509 1456-517 94-21 212 27 267 108 20 29 247 641 247 666 0 3-488 6-1085 6-1042 0-1085-1-1085-18zm2745-32c-29-28-58-64-65-80-33-81 39-166 128-152 26 3 66 35 178 140 79 74 144 137 144 139s-75 3-166 3h-165l-54-50zm746 9c-93-57-138-95-172-145-65-95-86-223-54-331 19-63 82-136 144-168 171-86 362-41 536 127 105 100 142 152 125 173-7 8-17 15-22 15s-57-49-116-109c-85-86-121-115-177-142-65-32-76-34-170-34-110 0-154 15-206 72-51 54-64 92-63 178 1 154 71 240 284 350l105 54h-75c-70 0-79-3-139-40zm3009 23c0-10 7-42 16-71 23-78 87-138 184-174 288-107 1420-509 1457-517 93-21 212 27 266 108 20 29 247 641 247 666 0 3-488 6-1085 6-1042 0-1085-1-1085-18zm2745-32c-29-28-58-64-65-80-25-59 7-124 72-149 55-21 83-4 234 137l144 139c0 2-75 3-166 3h-165l-54-50zm741 7c-153-93-223-194-233-337-13-182 82-303 265-341 136-28 289 30 427 163 105 100 142 152 125 173-7 8-17 15-22 15s-57-49-116-109c-85-86-121-115-177-142-65-32-76-34-170-34-110 0-154 15-206 72-49 52-63 92-63 178 0 72 3 86 34 144 43 79 105 131 250 206l105 54h-75c-70 0-80-3-144-42zm-5763 6c-7-2-20-28-28-58-24-82 4-177 82-272 56-70 62-74 84-63 27 15 24 25-27 94-80 105-99 170-73 245 8 24 8 35-1 46-13 16-17 17-37 8zm6493-8c-37-37-33-162 7-242 14-27 46-72 72-101 40-44 50-50 66-42 27 15 24 29-17 80-82 103-108 181-84 254 9 29 9 40 0 51-16 19-25 19-44 0zm-8138-20c-59-33-98-161-56-188 25-17 48 8 48 54 0 31 7 45 36 73 54 52 35 95-28 61z"/><use xlink:href="#B"/><path d="M9634 12931c-57-35-92-159-52-184 25-17 48 8 48 54 0 31 7 45 36 73 57 55 33 97-32 57zm1504 2c-46-53-53-132-18-206 25-54 65-100 82-95 31 11 29 34-6 92-42 70-47 120-15 160 11 14 19 34 17 44-4 24-41 27-60 5z"/><use xlink:href="#C"/><path d="M10242 12458c-34-34 1-133 67-190 61-52 87-64 106-48 25 20 18 37-29 70-57 39-89 83-96 134-5 43-25 57-48 34z"/><use xlink:href="#D"/><use xlink:href="#D" x="6500"/><use xlink:href="#E"/><use xlink:href="#E" x="6500"/><use xlink:href="#F"/><path d="M6846 12168c-42-65-21-112 61-143 26-10 50-19 52-21 2-1-5-24-14-51l-21-60c-2-10-12-9-41 1-163 57-364-8-458-149-16-24-35-45-41-45-20 0-44-36-44-68 0-21 7-36 22-46 32-23 55-20 84 9 21 21 24 31 19 56-13 58 65 138 174 179 95 37 212 20 367-50 120-54 193-159 202-288 4-68 3-74-22-97-31-29-35-74-8-98 43-39 121-2 107 51-3 15-8 65-9 112-7 180-88 306-241 376-30 14-55 27-55 29s9 30 21 61c19 49 24 55 43 49 113-35 140-31 162 22 31 73 10 94-157 153-129 47-181 51-203 18zm6106-388c-23-25-45-53-48-62-3-10-11-18-18-18-44 0-62-88-24-114 32-22 55-20 84 9 20 20 24 31 19 58-5 24-1 39 15 60 16 20 20 38 18 69l-3 43-43-45zm-12785-6c-63-20-129-85-150-149-15-43-17-109-17-540v-492l47-14c63-18 154-14 206 9 68 30 109 85 151 202 265 729 260 708 210 808-34 68-94 116-191 154-95 36-188 44-256 22zm6500 0c-65-20-131-86-151-151-8-26-29-86-47-133l-70-195-74-210c-55-150-65-185-65-223 0-66 22-115 80-173 57-58 105-82 229-115 61-15 147-7 198 19 31 17 85 71 101 102 6 11 69 185 141 387 146 409 150 427 105 516-34 68-94 116-191 154-95 36-188 44-256 22z"/><path d="M12881 11247c-62-175-116-338-119-363-8-74 15-132 77-195 51-51 142-102 156-87 3 3 4 220 3 484l-3 478-114-317zm-9983 134c-21-17-29-18-65-8-35 9-45 8-71-9-47-30-380-347-381-363-1-8 10-28 22-45l24-31-178-168c-190-179-207-203-174-253 21-32 57-48 89-40 14 3 103 79 197 169 94 89 177 163 184 165s20-9 29-23 24-25 33-25c8 0 81 62 161 138l195 183c44 39 51 51 53 87 1 28 10 51 28 73 20 23 26 39 21 56-5 23-5 23 31 8 21-8 43-20 50-26 45-38 58-162 25-249-27-70-85-143-151-190-31-21-132-75-224-120-238-115-303-180-314-317-9-118 51-206 164-239 130-38 281 27 394 169 44 54 47 65 25 73-9 4-42-23-92-73-89-91-150-125-235-131-73-6-151 29-185 83-31 47-32 141-2 202 31 64 88 104 265 189 246 118 325 182 387 312 35 75 47 177 27 236-26 80-100 136-178 136-28 0-45 7-62 25-28 30-59 32-92 6zm6499-1c-21-17-30-18-56-9-61 21-67 17-383-289l-88-84 57-73-178-168c-183-173-204-201-179-246 6-12 22-28 35-37 47-30 76-12 257 159 94 89 176 163 183 165s20-9 29-23 24-25 33-25c8 0 81 62 161 138l195 183c44 40 51 50 52 86 1 28 9 50 29 73 19 23 26 40 22 56-6 21-4 22 30 11 21-6 47-26 63-46 37-49 43-163 11-235-55-129-124-185-374-306-238-115-300-177-313-315-11-120 48-207 163-241 130-38 273 22 389 164 49 59 53 70 30 78-9 4-42-23-92-73-89-91-150-125-235-131-78-6-154 30-186 87-29 52-30 138-1 198 31 64 88 104 265 189 246 118 325 182 387 312 35 75 47 177 27 236-26 80-100 136-178 136-28 0-45 7-62 25-28 30-59 32-93 5zm-3084-12c-16-21-53-127-53-152 0-26 19-39 40-26 22 13 69 154 58 173-11 20-32 22-45 5zm6499 0c-19-25-60-155-53-167 5-7 18-11 31-9 18 2 28 18 50 79 19 53 25 81 18 92-11 20-32 22-46 5zm-8207-303c-55-19-106-79-131-156l-67-189c-194-539-189-523-185-577 5-58 34-108 82-141 36-24 1077-399 1121-403 58-6 113 12 155 49 38 35 47 55 180 428 79 222 140 406 140 426 0 64-12 98-49 139-35 38-54 46-594 239l-585 200c-15-1-45-7-67-15zm6489-4c-49-22-98-80-112-130-5-20-24-74-42-121l-175-485c-38-107-46-139-42-182 4-58 33-108 81-141 37-25 1084-401 1124-403 59-4 111 13 152 49 38 35 47 56 146 332 169 470 174 486 174 536 0 54-20 101-59 138-21 20-164 75-585 226l-589 200c-18 0-50-9-73-19zm-6814-370c-5-11-30-77-55-147-44-124-47-154-13-141 15 5 108 252 108 286 0 26-26 28-40 2zm6500-1c-6-12-31-78-55-148-43-122-46-152-12-139 14 5 107 254 107 288 0 25-26 24-40-1z"/><use xlink:href="#G"/><use xlink:href="#G" x="6500"/><use xlink:href="#H"/><path d="M8477 10604c-43-43-49-130-10-122 12 2 19 14 21 38 2 23 12 42 29 57 16 13 24 27 20 37-9 23-31 20-60-10zm-6047-329c-23-27-2-84 47-131 44-43 75-55 88-34 4 6-16 32-44 58-40 38-51 55-51 79 0 35-22 50-40 28zm6500 0c-23-27-2-83 47-131 45-43 75-54 88-34 4 6-16 32-44 58-40 38-51 55-51 79 0 35-22 50-40 28zm-7470-406c-158-31-325-149-406-287-77-131-102-307-65-452 31-120 73-193 161-281 83-84 171-136 281-164 95-25 260-16 354 19 166 63 292 187 356 351 25 64 33 100 37 177 6 125-9 201-60 308-78 163-237 287-415 325-75 16-173 18-243 4zm6505 1c-275-55-474-284-492-566-19-281 177-546 458-619 48-13 91-16 174-13 93 4 122 10 190 36 185 73 319 225 370 420 19 75 19 220 0 292-59 222-242 399-462 445-73 16-174 18-238 5zm-3113-143c-15-17-3-32 37-45 46-16 71-15 71 3 0 27-91 63-108 42zm6505 6c-19-18-5-41 32-51 51-16 71-15 71 3 0 22-88 63-103 48zM988 9638c-69-74-122-220-116-320 3-45 6-53 23-53 18 0 21 9 26 75 9 117 34 184 98 264 24 30 29 42 20 52-16 19-17 18-51-18zm6495-5c-66-73-117-216-111-315 3-45 6-53 23-53 18 0 21 9 26 75 9 117 34 184 98 264 24 30 29 42 20 52-16 19-17 19-56-23z"/><use xlink:href="#I"/><use xlink:href="#I" x="6500"/><path d="M858 9613c-36-41-74-156-62-188 13-33 37-10 50 46 7 31 23 72 34 93 31 51 13 89-22 49zm6499-1c-38-42-75-164-58-191 16-24 38-4 45 41 4 23 18 65 32 92 33 63 21 102-19 58zm-3951-32c-74-23-107-97-82-184 37-127 173-237 295-238h49l-24-66c-130-356-210-589-207-597 2-5 53-44 114-85l299-208c105-73 198-132 207-130 11 2 54 109 140 348l138 381c48 127-131 330-293 332-165 2-193-182-51-325 61-61 120-90 196-97l61-6-62-175c-35-96-67-175-72-175-17 0-544 370-544 382 0 17 154 442 175 483s17 117-10 175c-56 117-230 215-329 185zm6500 0c-69-21-106-95-86-172 36-134 173-249 299-250 50 0 50 0 40-26-6-15-47-128-91-252l-108-299c-15-41-26-80-23-85 2-6 50-42 106-81l396-274c57-39 110-71 119-69s58 123 139 348l138 381c61 161-217 397-372 316-65-34-81-130-38-222 47-99 174-185 272-185h52l-50-142-60-175c-5-18-14-35-19-38-4-3-86 49-182 116l-270 187c-54 37-98 72-98 79 0 17 153 441 175 483 21 41 17 117-10 175-56 117-230 215-329 185zm-6654-119c-18-11-33-72-26-106 15-71 86-175 119-175 25 0 17 28-20 77-46 60-62 112-48 158 12 37-1 61-25 46zm6499 0c-7-5-17-27-22-49-7-33-5-52 11-95 26-68 76-137 101-137 27 0 24 26-10 69-58 74-72 121-52 175 11 28-6 50-28 37zm-6610-27c-37-46-22-143 28-193 39-39 56-1 22 48-32 45-36 76-12 114 16 26 18 36 9 45-17 17-24 15-47-14zm6500 0c-30-38-28-105 4-159 24-41 47-60 59-48 11 11 6 35-13 62-31 43-35 76-15 109 17 29 14 62-5 62-5 0-19-12-30-26z"/><use xlink:href="#J"/><use xlink:href="#J" x="6500"/><path d="M2296 9095c-3-9-6-31-6-48 0-16-13-54-30-83-24-43-27-54-16-63 17-15 38 5 68 62 26 52 31 140 7 145-9 1-19-4-23-13zm6500 0c-3-9-6-29-6-45 0-15-13-53-29-83-29-55-27-82 6-70 46 18 91 203 52 211-9 1-19-4-23-13zm-2891-149c-269-54-484-215-601-451-63-128-86-224-87-365-1-134 17-226 65-338 103-238 289-401 545-478 114-34 308-39 416-10 225 60 418 201 527 385 286 482 33 1097-510 1242-98 26-263 33-355 15zm6500 0c-267-53-484-215-601-451-66-133-87-224-87-375s22-242 88-375c106-213 284-360 520-431 121-36 310-39 425-7 91 26 163 53 213 83l37 22-5 1423-75 37c-152 74-361 104-515 74zM0 8126l6-706c16 0 108 76 162 135 297 317 293 821-8 1139-37 39-89 86-114 104l-46 33v-705zm5232 494c-87-105-146-257-158-408-5-61-3-81 10-97 12-16 18-18 33-9 14 9 19 30 24 106 10 142 50 251 135 360 46 59 50 88 10 88-12 0-34-17-54-40zm6502 2c-99-119-164-302-164-460 0-46 22-72 48-55 13 8 18 32 23 105 10 142 50 251 135 360 46 59 50 88 10 88-12 0-34-16-52-38z"/><use xlink:href="#K"/><use xlink:href="#K" x="6500"/><path d="M443 8063c-8-3-13-24-13-54 0-143-51-293-138-409-45-58-52-87-25-97 12-5 30 8 64 46 92 103 159 283 159 427 0 60-3 75-17 82-10 5-24 7-30 5zm6500 0c-8-3-13-25-13-61 0-137-52-287-138-402-45-58-52-87-25-97 12-5 30 8 64 46 92 103 159 283 159 427 0 60-3 75-17 82-10 5-24 7-30 5z"/><use xlink:href="#L"/><use xlink:href="#L" x="6500"/><path d="M1092 7748c-47-16-125-89-144-135-27-66-54-141-149-403l-239-709c0-122 72-217 200-264 296-110 1419-509 1456-517 90-20 207 24 262 100 13 17 48 99 78 183 247 683 328 918 332 963 8 99-47 203-131 245-22 12-367 138-766 282-652 234-733 261-796 263-38 2-85-2-103-8zm6500 0c-39-13-117-80-137-117-15-30-27-62-120-326l-95-265c-131-359-180-505-180-541 0-119 73-215 200-262 296-110 1419-509 1456-517 90-20 207 24 262 100 13 17 71 163 128 323 308 855 299 824 274 913-17 61-60 117-112 148-24 14-372 143-773 287-656 236-737 263-800 265-38 2-85-2-103-8zm-3208-269c-31-30-32-31-62-15-37 19-88 20-118 3-41-23-529-491-532-510-2-12 11-34 33-57l37-38-344-327c-81-76-152-150-158-166-23-55 6-120 65-144 66-28 80-18 344 231l246 233 41-41c23-22 49-38 57-36 18 4 514 470 540 507 11 17 17 41 15 68-2 35 3 47 36 83 31 35 37 48 34 76-5 39 6 43 55 18 218-110 139-472-144-659-37-26-148-84-245-130l-243-122c-87-51-161-125-197-198-25-53-29-71-29-150 1-49 6-108 13-131 15-52 82-128 136-156 180-92 371-46 554 135 97 96 129 142 112 162-7 8-17 15-22 15s-57-49-116-109c-133-135-203-174-322-179-93-5-146 9-202 51-66 51-92 106-93 197 0 64 5 85 32 142 45 96 102 137 382 274 129 63 263 135 296 159 210 149 318 397 259 595-31 105-149 190-264 190-27 0-43 7-65 30-40 42-89 41-131-1zm6500 0c-31-30-32-31-62-15-37 19-88 20-118 3-24-13-524-483-537-503-4-8 8-30 33-59l40-46-342-324c-81-76-152-150-158-166-23-55 6-120 67-145 63-27 79-16 342 232l246 233 41-41c23-22 49-38 57-36 19 4 515 470 540 507 11 16 17 41 15 68-2 35 3 47 36 83 31 35 37 48 34 76-5 39 6 43 55 18 173-88 164-356-19-553-76-83-161-137-370-236-226-108-295-148-359-210-70-68-107-148-113-245-8-135 41-236 144-296 199-117 441-34 645 219 32 40 37 52 29 68-6 10-15 19-21 19-5 0-58-49-117-109-85-86-121-115-177-142-65-32-76-34-170-34-108 0-142 11-198 64-54 49-72 97-71 186 0 72 4 87 34 144 50 94 108 134 379 267 129 63 263 135 296 159 209 149 318 398 259 595-31 105-149 190-264 190-27 0-43 7-65 30-40 42-89 41-131-1zM657 7247c-8-7-28-52-45-102l-67-189c-20-55-34-105-31-113 3-7 16-13 29-13 23 0 30 15 95 197 38 109 68 203 65 209-7 19-29 24-46 11zm6496 1c-18-25-145-397-138-407 3-6 17-11 30-11 19 0 26 9 43 58l71 199c45 128 49 144 35 158-19 18-29 19-41 3zm-2371-787c-7-4-19-29-27-55-24-80 6-180 82-273 56-70 62-74 84-63 27 15 24 29-17 80-82 103-108 181-84 254 9 29 9 40 0 51-14 17-20 18-38 6zm6500 0c-7-4-20-30-28-57-23-78 7-178 83-271 56-70 62-74 84-63 27 15 24 25-27 94-80 105-99 170-73 245 8 24 8 35-1 46-14 17-20 18-38 6zm-8144-26c-38-21-67-75-70-130-2-35 1-50 14-58 25-17 48 8 48 54 0 30 7 45 35 72 38 37 44 61 19 71-19 7-13 8-46-9z"/><use xlink:href="#B" y="-6500"/><path d="M9638 6435c-38-21-67-75-70-130-2-35 1-50 14-58 26-17 48 8 48 55 0 33 6 46 35 72 38 35 45 60 19 70-19 7-13 8-46-9z"/><use xlink:href="#B" x="6500" y="-6500"/><use xlink:href="#C" y="-6500"/><path d="M10242 5958c-18-18-15-74 7-116 20-38 123-132 145-132 16 0 36 21 36 37 0 6-20 26-44 43-57 38-85 78-94 132-8 44-27 59-50 36z"/><use xlink:href="#D" y="-6500"/><use xlink:href="#D" x="6500" y="-6500"/><use xlink:href="#E" y="-6500"/><use xlink:href="#E" x="6500" y="-6500"/><use xlink:href="#F" y="-6500"/><path d="M6846 5668c-42-65-21-112 61-143 26-10 50-19 51-21 2-1-6-29-18-62l-22-60-37 13c-161 56-363-10-456-150-16-24-35-45-41-45-20 0-44-36-44-68 0-21 7-36 22-46 32-22 55-20 84 9 20 20 23 31 18 62-5 35-2 42 41 86 96 101 226 131 371 86 225-69 322-168 332-340 4-72 3-76-22-92-32-21-36-75-8-100 43-39 121-2 107 51-4 15-8 65-10 112-6 180-87 306-240 376-30 14-55 27-55 29s9 30 21 61c19 49 24 55 43 49 113-35 140-31 162 22 31 73 10 94-157 153-129 47-181 51-203 18zm6116-377c-18-18-40-46-49-62-10-16-22-29-29-29-20 0-44-36-44-68 0-21 7-36 22-46 32-22 55-20 84 9 20 20 24 31 19 58-5 24-1 39 15 60 16 20 20 38 18 69l-3 43-33-34zM167 5274c-63-20-129-85-150-149-15-43-17-109-17-540v-492l47-14c102-30 200-10 269 53 49 45 46 37 210 493 99 274 108 306 109 371 0 61-4 77-30 119-41 65-87 100-181 136-96 37-188 45-257 23zm6500 1c-28-10-64-32-90-58-38-37-50-60-95-187l-92-260c-142-395-143-399-118-484 19-62 108-148 183-175 114-42 164-52 226-42 32 5 70 16 86 24 31 17 85 71 101 102 6 11 69 185 141 387 146 409 150 427 105 516-34 68-94 116-191 154-95 36-188 44-256 23z"/><path d="M12912 4830l-118-327c-55-148-44-223 46-314 50-51 141-102 155-87 3 3 4 220 3 484l-3 479-83-235zm-10015 50c-21-17-30-18-56-9-61 21-67 17-383-289l-88-84 57-73-179-169c-109-103-181-178-185-194-13-52 47-112 100-98 15 3 101 77 198 169 94 89 177 163 184 165s20-9 29-23 24-25 33-25c8 0 81 62 161 138l195 183c44 40 51 50 52 86 1 28 9 50 29 73 20 24 26 40 21 57-5 23-5 23 31 8 21-8 43-20 50-26 45-38 58-162 25-249-27-70-85-143-151-190-31-21-132-75-224-120-238-115-303-180-314-317-6-83 16-141 71-188 133-114 334-67 482 113 49 59 53 70 30 78-9 4-42-23-92-73-89-91-150-125-235-131-47-4-68 0-111 22-69 34-97 80-97 162 1 127 50 177 286 290 246 118 326 183 386 311 36 76 48 178 28 237-26 80-100 136-178 136-28 0-45 7-62 25-28 30-59 32-93 5zm6500 0c-21-17-30-18-56-9-61 21-67 17-383-289l-88-84 57-73-178-168c-190-179-207-203-174-253 21-32 57-48 89-40 14 3 103 79 197 169 94 89 177 163 184 165s20-9 29-23 24-25 33-25c8 0 81 62 161 138l195 183c44 39 51 51 53 87 1 28 10 51 28 73 20 23 26 39 21 56-5 23-5 23 31 8 20-8 38-15 40-15s15-17 29-37c20-31 25-49 25-104 0-80-18-136-67-207-50-73-127-125-326-222-239-115-304-180-315-317-9-118 51-206 164-239 130-38 281 27 394 169 44 54 47 65 25 73-9 4-42-23-92-73-89-91-150-125-235-131-47-4-68 0-111 22-69 34-97 80-97 162 1 127 50 177 286 290 180 87 250 131 312 198 119 129 146 323 59 423-37 42-81 63-135 63-28 0-45 7-62 25-28 30-59 32-93 5zm-3084-12c-6-7-22-45-36-85-24-65-25-74-11-88 11-10 21-12 32-6 20 10 66 139 60 167-4 23-31 30-45 12zm6500 0c-17-21-53-127-53-154 0-21 4-25 26-22 23 3 30 13 54 79 19 53 25 81 18 92-11 20-32 22-45 5zm-8207-303c-65-23-102-68-135-164-32-96-164-464-218-611-28-76-34-105-31-147 5-58 34-108 82-141 17-11 272-107 566-212 569-204 590-210 664-175 75 36 72 29 276 602 95 266 105 314 75 378-35 72-44 76-629 285l-584 200c-15-1-44-7-66-15zm6499 0c-62-22-105-78-142-186-17-52-47-137-66-189-184-507-190-526-168-592 6-19 29-51 50-72 35-34 85-54 567-227l566-198c57-13 121 5 168 47 38 35 47 55 180 427 148 413 157 451 125 520-35 72-44 76-629 285l-584 200c-15-1-45-7-67-15zm-6825-375c-6-11-20-46-30-78l-44-127c-25-69-23-94 7-82 14 5 107 254 107 288 0 25-26 24-40-1zm6500 1c-28-54-100-275-91-284 21-21 40 7 81 120 51 145 59 183 37 183-9 0-21-9-27-19z"/><use xlink:href="#M"/><use xlink:href="#M" x="6500"/><path d="M1977 4104c-28-28-46-99-29-116 19-19 42 0 42 32 0 21 9 39 26 55 16 15 24 31 20 40-8 22-30 18-59-11z"/><use xlink:href="#H" x="6500" y="-6500"/><path d="M2430 3775c-23-27-2-84 47-131 43-42 75-55 88-35 3 5-17 32-45 59-38 38-50 56-50 80 0 34-22 48-40 27zm6500 0c-23-27-2-84 47-131 44-43 75-55 88-34 4 6-16 32-44 58-40 38-51 55-51 79 0 35-22 50-40 28zm-7465-405c-165-33-329-148-411-288-73-123-100-297-70-435 50-224 224-404 447-462 102-27 261-17 364 24 158 61 284 188 347 346 61 157 48 351-35 510-48 91-164 204-259 249-122 58-265 79-383 56zm6500 0c-168-34-333-151-414-295-56-99-76-178-75-305 0-97 4-126 25-187 37-104 85-176 164-250 129-120 260-168 440-161 93 4 122 10 190 36 333 132 479 507 323 832-78 163-237 287-415 325-73 16-174 18-238 5zm-3108-137c-19-18-5-41 32-51 51-16 71-15 71 3 0 22-88 63-103 48zm6495-6c-15-17-3-32 37-45 46-16 71-15 71 3 0 27-91 63-108 42zM990 3140c-71-76-124-221-118-322 3-45 6-53 23-53 18 0 21 9 26 75 3 41 10 89 14 105 11 44 61 139 80 155 28 24 36 47 20 60-12 10-20 6-45-20zm6512 12c-71-62-124-192-126-311-1-70 1-76 19-76s21 9 26 75c3 41 10 89 14 105 12 47 61 138 84 159 38 34 21 82-17 48z"/><use xlink:href="#I" y="-6500"/><use xlink:href="#I" x="6500" y="-6500"/><path d="M858 3113c-36-41-71-146-61-183 10-39 36-17 49 41 7 31 23 72 34 93 31 51 13 89-22 49zm6499-1c-38-42-75-164-58-191 16-24 38-4 45 41 4 23 18 65 32 92 33 63 21 102-19 58zm-3951-32c-69-21-106-95-86-172 35-133 173-249 298-250h49l-140-393c-52-143-92-264-90-270 2-5 27-26 56-45l475-330c40-28 80-50 88-48 12 2 53 105 141 348l138 381c37 96-56 244-192 306-134 62-243 11-243-112 0-132 160-285 299-287h50l-51-141-62-177c-7-19-17-35-22-35-18 0-544 370-544 382 0 17 153 441 175 483 21 41 16 119-11 177-55 115-230 213-328 183zm6500 0c-69-21-106-95-86-172 36-134 173-249 299-250 50 0 50 0 39-26-5-15-43-119-83-232l-144-401 52-39c144-109 560-391 574-388 11 2 54 110 138 343l139 377c42 97-51 251-191 315-136 62-243 10-243-117 0-128 162-280 299-282h50l-51-141-60-172c-6-16-14-34-18-38s-85 47-181 113l-271 188c-54 37-98 72-98 79 0 17 153 441 175 483 21 41 17 117-9 172-59 122-229 219-330 188zm-6654-119c-25-15-33-73-17-126 18-62 69-142 97-151 39-12 39 12-2 66-52 69-68 120-52 163 13 35-2 63-26 48zm6494-7c-24-24-21-115 5-167 33-63 69-107 90-107 31 0 30 16-7 64-52 68-67 110-59 166 7 53-4 70-29 44zm-6605-20c-30-38-28-105 4-159 24-41 47-60 59-48 11 11 6 35-13 62-32 45-36 76-12 114 16 26 18 36 9 45-17 17-24 15-47-14zm6500 0c-30-38-28-105 4-159 24-41 47-60 59-48s6 35-19 71c-29 43-31 64-9 102 17 27 14 60-5 60-5 0-19-12-30-26zm-7431-261c0-101-39-205-107-286-12-16-23-35-23-43 0-25 38-15 66 19 91 107 150 367 83 367-16 0-19-8-19-57zm6500 4c0-99-41-211-107-290-28-35-30-57-4-57 49 0 134 160 153 286 13 90 8 114-22 114-18 0-20-6-20-53zm-6414-89c-3-13-7-39-11-59-3-21-17-54-30-74-27-39-25-55 5-55 48 0 103 199 58 208-12 2-19-4-22-20zm6500 0c-3-13-7-39-11-59-3-21-17-54-31-74-19-28-22-40-14-50 18-21 35-8 65 47 34 61 41 150 13 156-12 2-19-4-22-20zm-2891-142c-269-54-484-215-601-451-66-133-87-224-87-375s22-242 88-375c108-215 282-359 520-431 77-23 109-27 220-27 183-2 313 35 459 130 329 213 463 603 336 980-70 209-242 398-445 488-145 64-348 89-490 61zm6500 0c-374-75-637-357-686-735-15-114 0-240 40-357 92-268 290-457 566-540 116-34 309-39 418-10 80 21 169 56 221 87l36 21-5 1423-75 37c-152 74-361 104-515 74zM0 1626l6-706c17 0 110 78 165 138 294 321 289 819-11 1136-37 39-89 86-114 104l-46 33v-705zm5232 494c-92-111-152-272-155-417-2-90 9-117 41-97 13 9 18 32 23 106 10 142 50 251 135 360 46 59 50 88 10 88-12 0-34-17-54-40zm6502 2c-85-102-136-225-156-372-12-92-7-137 17-147 31-11 45 17 45 87 0 129 51 272 136 382 46 59 50 88 10 88-12 0-34-16-52-38zm-6677-30c-58-63-106-244-73-271 27-23 42-6 55 65 7 40 27 96 47 133 27 49 32 66 23 77-15 19-33 18-52-4z"/><use xlink:href="#K" x="6500" y="-6500"/><path d="M443 1563c-8-3-13-24-13-54 0-144-51-293-139-409-42-56-50-92-19-98 37-7 142 148 182 269 38 112 49 272 20 287-11 5-25 7-31 5zm6500-1c-5-4-13-47-16-97-10-143-51-251-136-365-42-56-50-92-19-98 36-7 133 133 179 259 24 66 32 106 36 185 5 94 4 103-14 112-10 6-24 8-30 4z"/><use xlink:href="#L" y="-6500"/><use xlink:href="#L" x="6500" y="-6500"/><path d="M1092 1248c-41-14-118-80-138-120-13-26-178-476-209-573-7-22-30-85-50-140C620 210 560 34 560 18c0-17 58-18 1088-18h1087l74 208c41 114 76 228 79 255 9 95-40 194-120 241-24 14-372 143-773 287-656 236-737 263-800 265-38 2-85-2-103-8zm6500 0c-41-14-118-80-138-119-8-16-49-125-90-242l-94-262c-10-27-33-90-50-140l-114-315c-19-52-37-112-41-133l-7-37h2177l74 208c41 114 76 228 79 255 9 95-40 194-120 241-24 14-372 143-773 287-656 236-737 263-800 265-38 2-85-2-103-8zM4384 979c-31-30-32-31-62-15-37 19-88 20-118 3-40-22-529-491-532-510-2-10 12-35 32-58l36-39L3365 0h330l202 189 39-40c21-22 46-38 55-37 20 3 515 467 542 507 11 16 17 41 15 68-2 35 3 47 36 83 31 35 37 48 34 76-5 39 6 43 55 18 217-110 139-472-143-659-37-25-141-81-231-124L4135 2l73-1c69-1 77 2 195 60 67 34 149 81 183 104 255 182 355 516 204 688-50 56-107 85-187 93-50 6-67 12-89 35-39 41-89 40-130-2zm6500 0c-31-30-32-31-62-15-37 19-88 20-118 3-25-14-525-484-538-505-6-10 4-27 34-57l42-43L9865 0h330l202 189 39-40c21-22 46-38 55-37 20 3 515 467 542 507 11 16 17 41 15 68-2 35 3 47 36 83 31 35 37 48 34 76-5 39 6 43 55 18 173-87 164-356-19-553-74-80-158-135-355-230l-164-79 73-1c69-1 77 2 195 60 67 34 149 81 183 104 208 148 317 397 259 592-19 64-89 145-146 167-22 9-67 19-99 23-47 5-64 11-86 34-39 41-89 40-130-2zM657 747c-8-7-28-52-45-102l-66-190c-20-55-34-105-31-112 2-7 15-13 28-13 22 0 30 16 95 197 38 108 68 202 65 209-7 19-29 24-46 11zm6501 0c-8-7-46-99-83-206-64-181-67-194-51-207 10-7 24-10 31-8 15 6 155 393 148 410-7 19-29 24-45 11z"/></g><path d="M1473 9489c-48-24-99-77-119-125-19-44-18-136 2-182 19-46 68-98 116-123 56-29 108-33 173-15 142 42 213 204 146 334-25 48-77 97-123 116-54 23-144 20-195-5zm152-103c19-8 44-30 55-48 68-111-57-236-168-168-104 64-61 215 66 229 7 0 28-5 47-13zm6348 103c-48-24-99-77-119-125-19-44-18-136 2-182 30-73 110-135 192-148 143-23 291 125 268 268-13 82-75 162-148 192-54 23-144 20-195-5zm152-103c19-8 44-30 55-48 68-111-57-236-168-168-42 26-66 81-57 128 7 39 53 88 88 95 40 8 47 7 82-7zm-2165-945c-98-32-184-113-220-207-27-73-24-174 7-246 28-62 96-134 158-166 44-24 62-27 145-27 85 0 101 3 148 28 204 107 248 372 88 532-63 62-126 89-221 92-44 1-91-1-105-6zm193-184c48-37 70-88 65-152-10-125-136-191-248-132-51 27-90 90-90 147 0 134 167 218 273 137zm6307 184c-185-60-285-259-219-435 25-69 96-149 163-184 45-24 62-27 146-27 85 0 101 3 148 28 248 130 245 476-5 599-51 24-183 35-233 19zm193-184c70-53 88-165 38-236-71-100-231-90-288 19-29 55-29 105 0 160 47 89 171 117 250 57zM1473 2989c-48-24-99-77-119-125-19-44-18-136 2-182 30-73 110-135 192-148 143-23 291 125 268 268-13 82-75 162-148 192-54 23-144 20-195-5zm152-103c19-8 44-30 55-48 68-111-57-236-168-168-104 64-61 215 66 229 7 0 28-5 47-13zm6370 113c-45-12-110-72-134-122-25-52-28-141-5-195 31-75 113-137 198-148 141-20 284 127 262 268-13 82-75 162-148 192-40 17-124 20-173 5zm130-113c65-27 91-103 60-170-43-91-182-84-221 11-34 81 20 162 114 172 7 0 28-5 47-13zm-2200-960c-121-51-205-176-205-306 0-121 74-240 185-298 44-24 62-27 145-27 85 0 101 3 148 28 247 130 245 476-3 597-75 37-189 39-270 6zm228-169c48-37 70-88 65-152-10-125-136-191-248-132-51 27-90 90-90 147 0 134 167 218 273 137zm6307 184c-141-46-240-178-240-321 0-89 32-162 99-231 75-76 145-103 251-97 287 17 418 360 215 563-63 64-125 89-220 92-44 1-91-1-105-6zm193-184c70-53 88-165 38-236-73-102-236-90-290 22-27 56-27 103 2 157 47 89 171 117 250 57z" fill="#b42d2c"/><g fill="#606060"><path d="M935 12988c-57-159-75-210-75-217 0-4 19-13 43-20 23-7 56-19 72-26 17-7 45-18 63-24 30-9 34-8 41 12 23 60 101 280 101 283 0 2-54 4-120 4-87 0-122-3-125-12zm356-160c-34-95-61-178-61-185 0-10 158-70 164-62 4 6 146 407 146 413 0 3-42 6-94 6h-93l-62-172zm340-63c-47-129-81-238-77-242 7-7 95-42 164-65 20-7 36-8 41-2 4 5 41 101 81 214l96 268 23 62h-244l-84-235zm1905 213c10-13 19-24 20-25 0-2 11 8 24 22l23 25h-86l19-22zm3895 0c-41-114-73-209-70-211 8-6 184-69 198-70 11-2 76 158 117 285 5 17-5 18-116 18-116 0-121-1-129-22zm700-212c-46-129-81-239-77-244 3-5 18-13 33-17 15-3 46-15 69-26 23-10 57-20 74-21l32-3 65 180 131 365h-244l-83-234z"/><use xlink:href="#N"/><path d="M3366 12919c-52-48-66-67-66-89 0-26 29-60 52-60 4 0 42 32 83 72l76 71-33 34c-17 18-35 33-39 33-3 0-36-27-73-61zm6500 0c-57-52-66-66-66-95 0-28 5-36 26-44 32-13 40-8 120 70l64 64-32 33c-17 18-35 33-39 33-3 0-36-27-73-61zm-9474-805c3-15 25-25 178-83 25-9 53-15 63-13 28 6 16 34-18 44-16 5-37 12-45 15-8 4-17 7-20 8s-12 5-20 8c-26 11-114 37-128 37-8 0-12-7-10-16zm6498 1c0-12 33-34 60-39 3-1 10-4 15-8 6-3 38-14 73-23 34-10 65-21 67-25 8-12 46 1 42 14s-52 38-99 51l-13 5c-3 1-8 3-12 5-5 1-15 4-23 7-79 31-110 34-110 13zm-6688-397c-44-10-122-74-122-100 0-7 32-24 72-38 80-28 104-53 75-75-16-12-28-10-83 11-35 13-71 24-78 24-13 0-36-48-36-75 0-7 34-25 75-40 64-23 75-31 75-50 0-35-24-37-96-10-37 14-71 25-76 25s-8-23-6-51l3-52 60-21c47-16 61-26 63-44 5-31-19-37-75-18-25 9-48 16-50 16s-3-23-3-51c0-47 2-51 34-64 18-8 36-21 39-29 8-21-19-39-48-32-24 6-25 5-25-47 0-29 6-59 12-65 10-10 10-17 0-32-7-12-12-60-12-129v-109l51-17c100-34 211-4 253 66 26 44 20 53-56 79-59 20-74 29-76 48-5 34 20 36 102 9l75-25 15 46c9 25 15 46 13 47-1 1-33 13-72 27-78 29-101 51-72 73 16 12 28 10 83-11 35-13 71-24 79-24s19 18 26 41c15 48 14 49-78 79-66 23-79 38-59 66 13 17 17 16 89-9 41-15 77-27 80-27 9 0 38 82 32 89-4 3-39 17-78 31-58 20-73 29-75 48-5 34 20 36 103 8l76-25 15 34c8 19 14 40 14 47s-30 24-67 37c-75 26-99 46-82 68 16 18 32 17 110-12l68-24 6 29c15 66-27 152-93 193-46 29-144 64-197 70-22 3-59 1-83-5zm6504 1c-49-12-92-43-112-81-8-16-14-31-12-33 2-1 33-12 70-24 71-24 94-41 84-66-7-20-41-19-104 5-29 11-58 20-66 20-13 0-36-48-36-75 0-7 34-25 75-40 63-23 75-31 75-50 0-35-23-37-96-9-37 14-72 23-79 21-6-3-16-22-23-43-14-45-14-45 76-75 68-23 84-41 59-66-14-15-22-14-90 10-42 15-77 27-80 27-6 0-31-90-26-94 2-1 36-14 74-27 56-19 71-28 73-47 5-34-20-36-102-9l-75 25-15-46c-9-25-15-46-13-47 1-1 33-13 71-26 78-28 100-50 75-74-14-14-22-13-82 10-88 33-95 32-103-11-18-98 60-194 196-239 134-45 237-24 284 56 26 44 20 53-56 79-59 20-74 29-76 48-5 34 20 36 102 9l75-25 15 46c9 25 15 46 13 47-1 1-33 13-72 27-78 29-101 51-72 73 16 12 28 10 83-11 35-13 70-24 78-24 15 0 42 73 32 89-4 6-12 11-18 11s-37 10-69 21c-50 18-59 26-59 46 0 35 19 37 97 8 39-14 73-25 76-25 10 0 38 83 30 90-4 4-38 17-75 30-74 24-82 30-73 60 8 26 28 25 105-5 35-14 65-25 67-25 6 0 33 68 33 82 0 8-31 24-71 37-68 24-91 43-82 69 7 18 30 15 111-12l71-24 6 28c15 70-33 163-104 199-110 56-198 77-265 60zm6276-378c-10-28-10-36 0-43 14-8 22 17 16 55-3 19-5 17-16-12zm-10373-179l-176-166 85-93c47-51 89-93 93-93 16 0 359 333 359 349 0 27-138 171-163 171-14-1-85-60-198-168zm134-186c7-17-115-136-138-136-37 0-25 27 40 87 71 65 89 74 98 49z"/><use xlink:href="#O"/><path d="M12935 11206c-21-49-19-63 9-70 13-3 31-9 40-12 13-5 16 3 16 50 0 31-4 56-9 56s-17 3-25 6c-12 4-20-4-31-30zm-59-164c-9-25-15-46-13-47 7-4 125-45 131-45 4 0 6 23 4 52l-3 51-52 18-52 17-15-46zm-50-134c-11-41-6-78 14-117 22-45 89-105 131-120l29-10v216l-72 27c-88 32-94 32-102 4zm-8201-26c-16-11-35-25-41-33-23-28-254-690-254-727 0-42 34-106 53-99 7 2 82 200 168 440l156 437h-26c-14 0-39-8-56-18zm6500 0c-16-11-35-25-41-33-21-25-256-693-256-726 0-38 32-98 52-98 9 0 66 146 171 438l156 437h-26c-14 0-39-8-56-18zm-8775-92l-105-100 54-54 214 205-23 24c-13 14-26 25-29 25-3-1-53-46-111-100zm6500 0l-105-100 54-54 52 50 163 153-24 26c-13 14-26 25-29 25s-53-45-111-100zm-4100 88c-1-2-72-201-159-443l-158-440 36-13c20-8 55-19 78-27l42-13 77 215c62 171 82 216 99 223 17 6 36 50 96 216l77 214c1 4-36 21-84 39-79 28-103 35-104 29zm6495-10c-2-7-72-202-155-433l-150-431c0-10 34-26 117-52l31-10 78 215c61 171 82 216 99 223 17 6 36 49 92 207l78 214c5 13-10 23-80 48-97 35-104 36-110 19zm-6339-282c-65-182-75-218-65-234 10-17 1-52-64-232-72-198-76-214-60-226 24-16 93-37 101-29 4 3 41 101 83 218 61 171 80 213 95 215 16 2 34 43 94 210l77 218c2 5-34 23-79 39-46 15-88 30-94 32s-44-88-88-211zm232-83c-51-142-74-221-68-227 17-17 12-35-65-250l-73-210c23-12 149-49 153-45 6 6 305 834 312 864 4 17-7 24-74 47l-93 32c-12 5-32-40-92-211zm6500 0c-51-142-74-221-68-227 17-17 12-35-59-233l-73-208c-2-12 14-23 61-41 35-13 69-24 76-24s33 58 60 133l80 222c99 271 188 526 184 528-2 2-39 16-82 31l-90 32c-8 2-39-72-89-213zm-9480 105c-50-52-56-66-36-86 21-21 42-13 91 34l47 46-21 29c-11 16-23 29-27 28-4 0-28-23-54-51zm6500 0c-53-56-57-67-29-92 18-17 21-15 74 31 31 26 56 53 56 58 1 9-42 55-50 55-2-1-25-24-51-52zm-3367-411l-158-443c-4-12 146-64 153-53 2 4 35 94 73 201l76 211c4 9 16 17 26 17s19 1 19 3c0 1 34 96 75 212 42 115 74 213 72 218-3 9-151 67-171 67-6 0-80-195-165-433z"/><use xlink:href="#P"/><use xlink:href="#P" x="6500"/><use xlink:href="#Q"/><use xlink:href="#R"/><path d="M0 8506c0-192 3-244 12-241 28 9 226 65 232 65 12 0 24-37 17-49-9-14-240-83-253-75-4 3-8-157-8-356v-362l38 30c164 130 268 330 288 552 12 143-38 336-122 467-38 60-131 162-176 195l-28 19v-245zm1135-1003c-47-25-72-51-93-101-61-144-332-924-332-956 0-49 21-95 59-130 17-17 31-27 31-24s97 276 215 607l215 611c0 15-61 11-95-7zm6500 0c-47-25-72-51-93-101-61-144-332-924-332-956 0-49 21-95 59-130 17-17 31-27 31-24s97 276 215 606l215 611c0 16-61 12-95-6zm-6346-31c-27-70-429-1195-429-1200 0-4 48-24 106-44l105-37 8 22c5 12 45 123 89 247 127 356 120 338 148 342 29 3 29 3 162 378l80 225-32 11c-17 7-75 28-129 47l-98 36-10-27zm6500 0c-28-71-429-1195-429-1201 0-4 47-23 105-43l106-37 8 22c5 12 45 126 91 252 128 357 117 333 147 337 25 3 32 19 129 288 57 157 103 292 103 302 1 9-11 20-26 26l-224 81-10-27z"/><use xlink:href="#S"/><path d="M10677 7363c-255-239-427-406-427-414 0-10 230-254 240-254 9 0 27 17 300 274l193 189c16 26-4 57-102 160-67 69-105 102-120 102-14 0-47-23-84-57zm-3-439c3-9 4-20 1-25-15-24-188-170-197-167-7 3-16 12-22 22-9 15 3 30 79 101 89 84 126 102 139 69zm-2666 155c-106-297-107-300-88-319 20-20 20-20 0-72l-190-544c0-11 157-71 164-63 1 2 50 137 108 299 100 282 106 295 133 300 26 5 32 18 131 295l107 304c1 9-38 28-118 57l-130 43c-5 0-58-135-117-300zm-6074 178c-2-7-51-142-108-302-103-287-104-290-84-309 11-10 17-23 15-30-60-154-207-582-204-590 7-16 197-80 206-70 9 11 15 28 251 689l187 521c2 6-4 14-14 17-10 2-69 23-131 45-80 29-114 38-118 29zm6500 0c-2-7-51-142-108-302-102-283-103-290-85-308 10-10 19-19 19-20s-49-138-109-304l-108-302 104-37c59-21 108-33 113-28 4 5 18 38 30 74s60 169 105 295l302 841c2 6-4 14-14 17-10 2-69 23-131 45-80 29-114 38-118 29zm-6185-134c-17-44-429-1194-429-1198 0-5 210-78 214-74 2 2 50 135 106 294l111 299c4 5 18 9 30 10 20 1 33 32 130 301 59 165 104 303 101 306-8 7-235 89-246 89-4 0-11-12-17-27zm6500 0c-17-43-429-1194-429-1198 0-5 210-78 214-74 2 2 50 135 106 294 57 160 108 295 113 302s18 11 29 10c20-2 35 32 122 278 108 304 115 326 103 330-6 2-61 23-122 45-60 22-113 40-118 40-4 0-12-12-18-27zm220-391c-106-295-107-297-86-313 20-16 19-19-85-310l-102-297c1-2 18 1 38 8 48 15 99 75 120 141l101 284c232 643 230 638 203 702-14 34-58 83-72 83-6 0-59-134-117-298zm-5280-9l-146-137c-29-27-53-52-53-55 1-3 15-22 33-42l32-37 300 287-36 36-36 37-94-89zm6526 26c-39-34-106-97-150-140l-79-79 34-35c19-19 36-35 39-35 4 0 71 63 151 140l145 139-35 36-36 35-69-61zm-6849-330c-75-69-86-105-41-135 24-16 27-15 58 9 17 14 54 46 81 72l49 46-33 34c-19 19-37 35-41 35-3 0-36-27-73-61zm6502 1c-70-64-87-99-58-125 29-27 58-17 123 42 34 31 65 62 69 67 7 10-48 76-63 76-3 0-35-27-71-60zM387 5616c-4-10 2-17 16-22 12-3 42-15 66-26s56-22 70-25c14-2 31-9 38-15s13-7 13-3 6 3 13-2c6-5 23-7 36-4l25 7-28 22c-16 12-35 22-42 22s-25 5-41 12l-33 13c-3 1-12 4-20 7-78 30-106 34-113 14zm6503-1c0-9 8-18 18-22 9-3 36-14 59-24 23-11 46-19 52-19 5 0 22-5 38-12 15-6 30-12 33-12a93.3 93.3 0 0 0 15-7c6-3 21-3 34 0l25 7-28 22c-16 12-35 22-42 22s-25 5-41 12l-33 13c-3 1-12 4-20 7-79 31-110 34-110 13zM192 5216c-24-8-53-23-64-33-20-18-53-73-46-77 2-1 34-14 72-27 78-28 102-52 73-73-15-11-27-10-83 10-36 13-71 24-78 24-13 0-36-48-36-75 0-7 34-25 75-40 64-23 75-31 75-50 0-35-24-37-96-10-37 14-71 25-76 25s-8-23-6-51l3-52 60-21c47-16 61-26 63-44 5-31-19-37-75-18-25 9-48 16-50 16s-3-23-3-51c0-47 2-51 30-61 60-20 55-79-5-64-24 6-25 5-25-47 0-29 6-59 12-65 10-10 10-17 0-32-7-12-12-60-12-129v-109l51-17c102-34 211-5 253 66 26 44 20 53-56 79-59 20-74 29-76 48-2 13 3 24 12 28 13 5 84-14 147-41 13-5 20 4 33 41 9 26 15 48 13 49-1 1-33 13-71 26-78 28-102 52-73 74 16 12 28 10 83-11 35-13 70-24 78-24 15 0 42 73 32 89-4 6-12 11-18 11s-37 10-69 21c-50 18-59 26-59 46 0 35 17 36 99 8 41-14 75-25 77-25 8 0 33 84 27 90-4 4-38 17-75 30-74 24-82 30-73 60 8 26 23 25 107-5l69-25 15 35c7 19 14 40 14 47 0 8-31 24-71 37-68 24-91 43-82 69 7 18 38 15 114-13l68-24 6 29c9 41-2 88-31 132-57 88-251 156-352 124zm6505 0c-26-7-56-21-68-32-21-19-54-73-47-78 2-2 34-14 72-27 78-27 102-52 73-74-16-12-28-10-83 11-35 13-71 24-78 24-13 0-36-48-36-75 0-7 34-25 75-40 63-23 75-31 75-50 0-35-24-37-101-8-40 15-74 22-78 17-11-12-32-76-27-81 2-3 37-17 78-32 58-21 74-31 76-49 5-35-22-37-102-8l-79 26c-6 0-31-90-26-94 2-1 36-14 74-28 55-19 71-29 73-46 5-34-21-36-102-9l-75 25-15-46c-9-25-15-46-13-47 1-1 33-13 71-26 78-28 102-52 73-74-16-12-28-10-83 11-85 32-92 31-100-11-18-100 58-194 194-239 122-41 204-32 265 30 24 24 46 70 36 78-2 1-35 14-74 28-55 19-71 29-73 46-5 34 21 36 102 9l74-25 11 26c25 67 26 65-51 92-80 28-104 53-75 75 16 12 28 10 83-11 35-13 70-24 78-24 7 0 19 18 26 41 16 48 16 48-77 80-54 18-63 24-63 45 0 36 17 37 95 9 39-14 73-25 76-25 10 0 41 82 34 89-4 3-39 17-78 31-58 20-73 29-75 48-5 34 20 36 103 8l76-25 15 34c8 19 14 40 14 47 0 8-31 24-71 37-68 24-91 43-82 69 7 18 38 15 114-13l68-24 7 34c8 44-1 80-32 127-29 45-76 76-159 106-82 29-131 34-188 18zm6285-375c-10-28-10-36 0-43 14-8 22 17 16 55-3 19-5 17-16-12zM2609 4662l-176-166 85-93c47-51 89-93 93-93 16 0 359 334 359 349 0 27-138 171-163 171-14-1-85-60-198-168zm137-183c7-12-84-109-122-130-20-10-27-10-37 0s2 26 58 77c69 64 88 74 101 53z"/><use xlink:href="#O" y="-6500"/><path d="M12932 4701c-16-53-15-58 12-65 13-3 31-9 40-12 26-10 23 92-3 106-31 16-37 12-49-29zm-56-158c-9-25-15-47-13-48 7-4 125-45 131-45 4 0 6 23 4 51l-3 51-102 38-17-47zm-52-148c-11-61 13-120 67-169 27-24 62-49 79-54l30-11v110c0 60-1 109-3 109-1 0-33 11-71 25s-75 25-82 25-16-16-20-35zm-8199-13c-16-11-35-25-41-33-20-25-256-693-256-725 0-34 22-83 45-102 17-14 12-27 275 711l59 167h-26c-14 0-39-8-56-18zm6510 8c-11-4-30-18-41-31-28-31-264-688-264-735 0-37 19-83 43-102 17-14 0-56 196 491l138 387-26-1c-14 0-35-4-46-9zm-8785-100l-104-99 24-26c13-14 27-24 31-23 4 2 53 47 109 101l103 97-23 25c-13 14-26 25-29 25s-53-45-111-100zm6500 1l-105-99 24-26c14-15 28-25 32-24 4 2 53 47 109 101l103 97-23 25c-13 14-26 25-30 25-3 0-53-45-110-99zm-4105 77c-2-7-72-202-155-433l-150-432c0-6 33-22 74-36l74-25 78 215c63 174 81 216 99 223 17 6 30 29 48 82l121 339c6 13-10 22-80 47-97 36-103 37-109 20zm6500 0c-2-7-72-202-155-433l-150-432c0-6 33-22 74-36l74-25 78 215c61 172 81 216 99 223 17 6 36 50 96 216l77 215c3 6-159 69-179 69-5 0-12-6-14-12zm-6339-282c-65-182-75-218-65-234 10-17 1-51-61-223l-77-216c-5-13 107-58 117-46 4 4 28 67 54 138 103 291 102 290 123 293 16 2 34 44 97 219l74 218c-3 3-178 65-182 65-2 0-38-96-80-214zm6500 0c-65-182-75-218-65-234 10-17 1-51-61-223l-77-216c-5-12 106-58 116-48 3 4 40 102 82 218 62 172 80 213 96 215 18 3 47 73 170 428 2 5-34 23-79 39-46 15-88 30-94 32s-44-88-88-211zm-9222 112l-29-33 33 29c30 28 37 36 29 36-2 0-16-15-33-32z"/><use xlink:href="#T"/><use xlink:href="#T" x="6500"/><path d="M2162 4112c-56-53-62-70-33-96 18-16 21-15 69 26 28 24 53 48 55 55 3 6-4 23-17 38l-22 26-52-49zm6500-1c-53-51-61-68-40-89s43-13 90 36l47 47-23 28-22 28-52-50zm3129-414l-158-442c-3-9 105-51 142-56 10-1 24 32 105 261 64 178 60 170 80 170 14 0 34 47 97 219l79 220-84 30c-46 17-89 31-96 31-6 0-80-195-165-433zm-6117 338c-5-11-41-110-80-220-61-171-69-201-57-210 13-10 4-42-61-225-42-117-75-214-74-216 9-8 69 28 84 51 9 14 70 175 136 357 132 370 137 396 89 450-28 31-30 32-37 13zm6500 0c-5-11-41-110-80-220-61-171-69-201-57-210 13-10 4-42-61-225-42-117-75-214-73-216 7-7 70 32 84 52 8 13 69 173 134 355 133 371 138 397 90 451-28 31-30 32-37 13zM1436 3315c-95-26-178-75-251-149-78-79-125-158-150-256-24-90-16-242 15-325 71-186 225-320 415-360 88-18 132-18 220 0 224 47 393 218 441 445 59 279-128 571-412 645-70 18-211 18-278 0zm263-285c60-30 104-72 131-127 32-62 36-197 6-253-26-49-84-108-131-132-92-48-233-31-311 36-171 146-116 422 98 492 56 18 155 11 207-16zm391-130c0-14-10-22-37-29l-86-25c-54-16-80-12-75 12 2 11 30 24 78 38 97 29 120 30 120 4zm-977-172l8-73c7-33-28-30-45 4-26 49-17 121 14 121 15 0 19-11 23-52zm6823 587c-95-26-178-75-251-149-123-124-171-248-162-421 5-112 27-184 85-274 77-122 214-216 357-246 88-18 132-18 220 0 224 47 393 218 441 445 59 279-128 571-412 645-70 18-211 18-278 0zm263-285c60-30 104-72 131-127 32-62 36-197 6-253-26-49-84-108-131-132-92-48-233-31-311 36-171 146-116 422 98 492 56 18 155 11 207-16zm391-130c0-14-10-22-37-29l-86-25c-54-16-80-12-75 12 2 11 30 24 78 38 97 29 120 30 120 4zm-977-172l8-73c7-33-28-30-45 4-26 49-17 121 14 121 15 0 19-11 23-52zm-5360-63c0-22 2-30 4-17 2 12 2 30 0 40-3 9-5-1-4-23z"/><use xlink:href="#Q" y="-6500"/><use xlink:href="#R" y="-6500"/><path d="M0 2006c0-192 3-244 12-241 28 9 226 65 232 65 12 0 24-37 17-49-9-14-240-83-253-75-4 3-8-157-8-356V988l38 30c213 169 324 456 278 721-28 162-93 294-198 407-34 36-74 74-90 85l-28 20v-245zm1135-1005c-54-25-78-54-105-126L720 5c0-3 35-5 77-3l77 3 356 1006c0 15-53 9-95-10zm154-29c-6-15-84-232-174-482L945 17c-7-16 1-17 116-15l123 3 52 145c48 134 54 145 80 150 29 5 26-2 209 512l34 97-32 9-130 45-98 36-10-27zm6500 0c-6-15-84-232-174-482L7445 17c-7-16 1-17 116-15l123 3 28 80c74 206 78 214 105 217 25 3 32 20 134 303l107 300-31 11c-18 7-76 28-130 47l-98 36-10-27z"/><use xlink:href="#S" y="-6500"/><path d="M10661 848l-166-158c-199-187-245-233-245-240 0-11 230-255 240-255s468 428 489 456c7 11 11 28 7 41-10 37-199 228-226 228-14 0-50-27-99-72zm13-424c3-9 4-20 1-25-15-24-188-170-197-167-7 3-16 12-22 22-9 15 3 30 79 101 89 84 126 102 139 69zM8007 578c-90-254-105-303-92-311 23-12 18-44-24-160L7852 0h193l30 86c31 89 38 99 68 99 20 0 27 17 161 395l68 198c2 10-37 28-117 57-66 24-124 44-130 44-5 0-58-135-118-301zM1934 757c-2-7-51-142-108-302-102-284-104-290-85-308 23-22 23-16-1-77-11-28-20-55-20-60 0-6 49-10 118-10h119l240 666c2 6-4 14-14 17-10 2-69 23-131 45-80 29-114 38-118 29zm6500 0c-2-7-51-142-108-302-102-283-103-290-85-308 23-22 23-16-1-77-11-28-20-55-20-60 0-6 50-10 120-10 66 0 120 1 120 3 0 3 153 433 209 586 17 46 30 85 29 86-4 3-197 74-231 85-20 6-29 5-33-3zM2249 623c-28-71-219-609-219-615 0-5 65-8 144-8 128 0 145 2 151 18 24 62 184 513 187 527 2 14-21 26-117 61-66 24-123 44-128 44-4 0-12-12-18-27zm6500 0c-28-71-219-609-219-615 0-5 65-8 144-8h144l20 53c35 90 170 472 174 491 2 15-18 26-117 62-66 24-123 44-128 44-4 0-12-12-18-27zm327-94L8890 5c0-3 35-5 78-5h79l61 173c34 95 62 190 62 211 0 43-27 101-64 135-20 18-27 21-30 10zM2486 277l-94-264c-3-10 16-13 77-13 45 0 81 1 81 3 0 4 18 54 84 242 40 110 44 160 20 208-20 39-54 77-68 77-6 0-51-114-100-253zm1229-28c-39-33-81-73-95-88s-51-51-82-79c-53-47-55-51-39-66 10-9 35-16 60-16 41 0 49 6 166 112 68 62 124 118 124 124 1 5-14 24-32 42l-33 32-69-61zm6505 4c-36-32-102-95-149-139-99-96-102-114-19-114 52 0 54 1 133 76 44 42 99 92 123 111 23 20 42 41 42 47 0 7-15 27-33 44l-33 32-64-57z"/></g><path d="M3391 9512c-52-52-36-125 47-214 73-79 161-113 223-88 83 35 67 154-34 247-57 53-96 73-157 80-45 5-51 3-79-25zm73-101c29-56 70-94 121-111 37-12 46-36 19-47-9-3-40 6-70 20-60 30-124 112-124 159 0 44 27 34 54-21zm6425 100c-50-51-33-125 49-213 60-64 112-91 179-92 71-1 99 25 96 90-4 112-147 244-266 244-18 0-39-10-58-29zm75-100c29-56 70-94 121-111 19-6 35-18 35-26 0-51-122 1-171 73-37 53-50 113-25 113 9 0 26-21 40-49zm-5994-349c-37-37-38-69-6-137 42-92 161-175 249-175 35 0 87 48 87 81 0 48-26 104-74 156-57 63-110 93-177 100-44 5-51 2-79-25zm92-99c5-18 24-45 43-60 35-28 43-47 25-58-12-7-60 17-83 43-20 22-37 79-29 100 8 24 36 8 44-25zm6409 99c-39-38-40-71-5-140 47-94 160-172 249-172 34 0 74 37 81 74 12 69-70 191-159 237-21 11-60 23-87 26-45 5-51 3-79-25zm91-99c5-18 24-45 43-60 35-28 43-47 25-58-14-9-65 21-89 51-27 34-30 107-4 102 9-2 20-18 25-35zm-7047-367c-16-47-27-87-25-89l50-34c25-16 146-100 269-186 124-86 226-155 228-153 10 10 62 160 57 167-5 9-521 368-538 375-7 3-23-27-41-80zm440-312c23-15 25-15 31 0 7 19 33 21 40 3 8-21-14-67-31-67-32 0-95 40-95 60 0 24 22 26 55 4zm6060 312c-16-47-27-87-25-89l50-34c25-16 143-98 262-181 120-84 222-153 229-154 9-3 75 160 67 166-70 51-535 369-543 372-6 3-24-33-40-80zm440-312c21-14 24-14 33 2 16 28 46 10 37-24-3-15-10-31-15-36-20-20-124 33-114 59 8 19 28 19 59-1zM3391 3012c-52-52-36-125 47-214 60-64 112-91 179-92 69-1 96 24 96 86 0 56-30 114-86 165-57 53-96 73-157 80-45 5-51 3-79-25zm68-91c32-62 68-98 116-117 25-9 45-23 45-31 0-53-124 4-176 81-36 53-45 106-19 106 8 0 23-17 34-39zm6455 110c-30-13-54-50-54-82 0-67 84-180 165-222 57-30 137-29 167 1 29 29 29 91 0 147-23 45-93 115-141 139-38 20-109 29-137 17zm45-110c32-62 68-98 117-117 53-20 58-50 8-48-67 3-159 95-171 170-8 48 21 46 46-5zm-5988-359c-39-38-40-71-5-140 46-93 159-172 247-172 35 0 87 48 87 81 0 46-26 103-68 150-56 63-116 98-180 106-47 5-53 3-81-25zm91-99c5-18 24-45 43-60 35-28 43-47 25-58-15-9-66 22-89 54-27 37-29 104-4 99 9-2 20-18 25-35zm6407 98c-28-29-31-36-25-72 10-61 39-111 96-162 87-78 181-98 231-48 48 49 32 124-45 208-57 63-108 92-176 100-45 5-51 3-81-26zm91-93c0-12 18-38 40-59s40-43 40-48c0-34-65-10-98 36-20 28-25 49-23 91 1 20 4 21 21 12 11-6 20-20 20-32zm-7045-373c-15-47-27-86-24-88 2-2 54-38 114-79l270-186c87-62 162-109 165-104 10 11 63 162 59 166-32 24-536 369-544 372-6 3-23-33-40-81zm440-311c21-14 24-14 33 2 6 11 16 15 27 10 20-7 13-54-11-72-21-16-104 30-104 57 0 23 22 24 55 3zm6060 312c-16-47-27-87-25-89l115-79c61-41 182-125 270-187 87-61 162-108 165-103 15 17 63 166 54 169-5 2-46 29-90 61l-198 137-182 128c-37 26-70 47-73 47-4 0-20-38-36-84zm440-312c23-15 25-15 31 0 7 19 33 21 40 3 8-21-14-67-31-67-32 0-95 40-95 60 0 24 22 26 55 4z" fill="#337ca8"/><g fill="#f1f1f1"><path d="M710 12955c0-57 19-102 57-138l30-28 71 199c3 9-16 12-77 12h-81v-45z"/><use xlink:href="#U"/><path d="M1291 12828c-34-95-61-178-61-184 0-10 158-71 164-63 4 6 146 407 146 413 0 3-42 6-94 6h-93l-62-172z"/><use xlink:href="#V"/><use xlink:href="#W"/><use xlink:href="#N" x="-6500"/><path d="M3538 12978l22-22 44 44h-88l22-22zm3672-23c0-57 19-102 57-138l30-28 71 199c3 9-16 12-77 12h-81v-45z"/><use xlink:href="#U" x="6500"/><path d="M7791 12828c-34-95-61-178-61-184 0-10 158-71 164-63 4 6 146 406 146 413 0 3-42 6-94 6h-93l-62-172z"/><use xlink:href="#V" x="6500"/><use xlink:href="#W" x="6500"/><use xlink:href="#N"/><path d="M10038 12978l22-22 44 44h-88l22-22z"/><use xlink:href="#X"/><use xlink:href="#X" x="6500"/><path d="M392 12113c2-11 38-29 108-55 112-40 150-46 150-24 0 8-45 29-116 55-129 46-147 49-142 24z"/><use xlink:href="#Y"/><use xlink:href="#Z"/><use xlink:href="#Z" x="6500"/><use xlink:href="#a"/><use xlink:href="#a" x="6500"/><use xlink:href="#b"/><use xlink:href="#b" x="6500"/><use xlink:href="#c"/><use xlink:href="#c" x="6500"/><path d="M5138 10503c-51-142-74-221-68-227 17-17 12-35-64-246-41-113-73-207-71-210 6-9 144-54 150-49 6 6 305 834 312 864 4 17-7 24-74 47l-93 32c-12 5-32-40-92-211zm6500 0c-51-142-74-221-68-227 17-17 12-35-59-233l-73-208c-2-12 14-23 61-41 35-13 69-24 76-24s33 58 60 133l80 222c102 281 188 526 184 528-2 2-39 16-82 31l-90 32c-8 2-39-72-89-213z"/><use xlink:href="#d"/><use xlink:href="#d" x="6500"/><path d="M5293 10202l-155-441c-3-16 139-74 147-61 3 5 36 95 74 202l76 211c4 9 15 17 25 17 14 0 34 45 95 216 44 122 74 218 69 223-11 9-154 61-169 61-5 0-79-192-162-428zm6500 0l-155-441c-3-16 139-74 147-61 3 5 36 95 74 202l76 211c4 9 15 17 24 17 18 0 32 32 127 298 26 75 43 137 38 141-11 9-154 61-169 61-5 0-79-192-162-428z"/><use xlink:href="#e"/><use xlink:href="#f"/><path d="M1538 9341c-71-36-41-151 40-151 31 0 82 52 82 83 0 32-33 73-65 79-14 3-40-2-57-11zm6505 4c-77-33-48-155 37-155 29 0 80 53 80 82 0 57-63 96-117 73zM5978 8201c-29-26-33-35-33-81s4-55 33-81c73-65 182-17 182 81 0 97-110 146-182 81zm6500 0c-29-26-33-35-33-81s4-55 33-81c24-22 42-29 73-29 105 0 151 146 64 200-48 29-98 26-137-9zM1135 7501c-49-22-68-43-94-101-56-129-331-922-331-954 0-48 21-94 57-129l30-28 433 1221c0 16-51 11-95-9zm6500 0c-49-22-68-43-94-101-56-129-331-922-331-954 0-49 21-95 59-130 17-17 31-27 31-24s97 276 215 606l215 611c0 17-51 13-95-8zm-6346-29c-27-70-429-1195-429-1200 0-4 48-24 106-44 78-27 106-34 110-24 3 7 51 143 108 302 98 273 105 289 131 294 23 4 31 16 55 80 65 174 180 502 180 514 0 8-28 24-62 36l-189 69-10-27zm6500 0c-27-70-429-1195-429-1200 0-4 48-24 106-44 74-26 106-33 110-25 2 7 51 143 108 302 99 276 105 290 131 295s33 19 131 293l104 302c0 7-28 23-62 35l-189 69-10-27zm-6281-393c-106-297-107-300-88-319 20-20 20-20 0-72l-190-543c0-11 157-72 164-64 2 2 11 27 21 54 49 148 189 532 197 542 6 7 19 11 30 10 17-2 33 34 124 288l107 303c1 9-40 29-122 58-68 24-126 44-130 44-3 0-54-136-113-301zm6500 0c-106-297-107-300-88-319 20-20 20-20 0-72l-190-543c0-11 157-72 164-64 1 2 49 135 106 294l112 302c6 7 19 11 30 10 17-2 33 34 124 288l107 303c1 9-40 29-122 58-68 24-126 44-130 44-3 0-54-136-113-301zm-6074 178c-2-7-51-142-108-302-103-287-104-290-84-309 11-10 17-23 15-30-60-154-207-582-204-590 7-16 197-80 206-70 9 11 18 35 249 684l187 522c4 10 0 17-12 21-10 2-69 23-131 45-80 29-114 38-118 29zm6500 0c-2-7-51-142-108-302-103-287-104-290-84-309 11-10 17-23 15-30-60-154-207-582-204-590 7-16 197-80 206-70 4 5 17 36 29 69 11 33 59 166 105 295l304 846c2 6-4 14-14 17-10 2-69 23-131 45-80 29-114 38-118 29zm-6185-134c-16-41-429-1194-429-1198 0-5 211-78 214-74 2 2 49 132 105 289l110 300c4 8 19 15 31 15 21 0 32 25 131 300 59 165 104 303 101 306-8 6-235 89-246 89-4 0-11-12-17-27zm6500 0c-16-41-429-1194-429-1198 0-5 211-78 214-74 2 2 50 135 106 294 57 160 108 295 113 302s18 11 29 10c20-2 35 32 122 278 108 304 115 326 103 330-6 2-61 23-122 45-60 22-113 40-118 40-4 0-12-12-18-27zm-6280-391c-106-295-107-297-86-313 20-16 19-19-85-310l-102-297c8-11 74 23 101 51 35 36 37 41 232 587 87 245 141 409 141 433 0 55-53 147-84 147-6 0-59-134-117-298zm6500 0c-106-295-107-297-86-313 20-16 19-19-85-310l-102-297c8-11 75 23 102 51 30 31 102 218 267 687l69 195c40 110 44 160 20 208-20 39-54 77-68 77-6 0-59-134-117-298z"/><use xlink:href="#g"/><use xlink:href="#g" x="6500"/><use xlink:href="#X" y="-6500"/><use xlink:href="#X" x="6500" y="-6500"/><use xlink:href="#Y" x="-6500" y="-6500"/><use xlink:href="#Y" y="-6500"/><use xlink:href="#Z" y="-6500"/><use xlink:href="#Z" x="6500" y="-6500"/><use xlink:href="#a" y="-6500"/><use xlink:href="#a" x="6500" y="-6500"/><path d="M4745 4368c-2-7-72-202-155-433l-150-432c0-6 33-22 74-36l74-25 78 215c63 175 81 216 99 223 17 6 30 29 48 82l121 339c6 13-10 22-80 47-97 36-103 37-109 20z"/><use xlink:href="#b" x="6500" y="-6500"/><path d="M4906 4086c-65-182-75-218-65-234 10-17 1-51-61-223l-77-216c-5-13 107-58 117-46 4 4 28 67 54 138 103 290 102 290 123 293 18 3 41 61 170 428 2 5-34 23-79 39-46 15-88 30-94 32s-44-88-88-211z"/><use xlink:href="#c" x="6500" y="-6500"/><use xlink:href="#h"/><use xlink:href="#h" x="6500"/><use xlink:href="#d" y="-6500"/><use xlink:href="#d" x="6500" y="-6500"/><path d="M5291 3697l-158-442c-4-12 146-65 152-54 3 4 36 94 74 201l76 211c4 9 15 17 25 17 18 0 21 8 131 314 22 61 38 114 36 119-3 9-151 67-171 67-6 0-80-195-165-433zm6500 0l-158-442c-3-9 105-51 142-56 10-1 24 32 105 261 64 179 60 170 80 170 14 0 34 45 95 216 44 122 74 218 69 223-11 9-154 61-169 61-5 0-79-195-164-433z"/><use xlink:href="#e" y="-6500"/><use xlink:href="#f" y="-6500"/><path d="M1542 2844c-76-32-46-154 38-154 29 0 80 53 80 83 0 32-33 73-64 79-13 3-38-1-54-8zm6497-2c-20-10-36-27-39-42-13-53 27-110 78-110 30 0 82 52 82 82 0 60-66 98-121 70zM5978 1701c-29-26-33-35-33-81s4-55 33-81c72-64 182-16 182 80 0 98-109 147-182 82zm6500 0c-29-26-33-35-33-81s4-55 33-81c47-43 102-41 148 5 73 73 25 186-80 186-25 0-45-8-68-29zM1134 1001c-50-23-77-56-104-129C990 767 720 10 720 5c0-3 35-5 77-3l77 3 356 1006c0 15-53 9-96-10zm6500 0c-50-23-77-56-104-129-40-105-310-862-310-867 0-3 35-5 77-3l77 3 356 1003c0 18-49 14-96-7zm-6345-29c-6-15-84-232-174-482L945 17c-7-16 1-17 116-15l123 3 52 145c48 134 54 145 79 150 26 5 33 19 131 293l104 302c0 7-28 23-62 35l-189 69-10-27zm6500 0c-6-15-84-232-174-482L7445 17c-7-16 1-17 116-15l123 3 52 145c48 134 54 145 79 150 27 5 33 18 131 290 57 157 103 292 103 301 1 11-19 24-61 39l-189 69-10-27zM1507 578c-90-254-105-303-92-311 23-12 18-44-24-160L1352 0h193l30 86c31 89 38 99 69 99 15 0 37 51 122 290l107 303c1 9-40 29-122 58-68 24-126 44-130 44-3 0-54-136-114-302zm6500 0c-90-254-105-303-92-311 23-12 18-44-24-160L7852 0h193l30 86c31 89 38 99 68 99 20 0 27 17 161 395l68 198c2 9-39 28-121 58-68 24-126 44-130 44-3 0-54-136-114-302zM1934 757c-2-7-51-142-108-302-102-283-103-290-85-308 23-22 23-16-1-77-11-28-20-55-20-60 0-6 49-10 119-10h118l240 666c2 6-4 14-14 17-10 2-69 23-131 45-80 29-114 38-118 29zm6500 0c-2-7-51-142-108-302-102-283-103-290-85-308 23-22 23-16-1-77-11-28-20-55-20-60 0-6 50-10 120-10 66 0 120 1 120 3s41 118 91 258l144 400c4 11 0 18-12 22-10 2-69 23-131 45-80 29-114 38-118 29zM2249 623c-28-71-219-609-219-615 0-5 65-8 144-8 128 0 145 2 151 18 24 60 184 513 187 527 2 13-22 26-117 61-66 24-123 44-128 44-4 0-12-12-18-27zm6500 0c-28-71-219-609-219-615 0-5 65-8 144-8h144l20 53c35 88 170 472 174 491 2 14-19 26-117 62-66 24-123 44-128 44-4 0-12-12-18-27zM2486 277l-94-264c-3-10 16-13 76-13h80l25 72 61 173c40 110 44 160 20 208-20 39-54 77-68 77-6 0-51-114-100-253zm6500 0l-94-264c-3-10 16-13 75-13h80l61 173c65 182 72 227 46 280-20 39-54 77-68 77-6 0-51-114-100-253zm-5317-72C3478 25 3485 33 3499 16c9-11 30-16 60-16 45 1 49 3 171 120l125 119-36 36-36 37-114-107zm6500 0C9978 25 9985 33 9999 16c9-11 30-16 60-16 45 1 49 3 171 120l125 119-36 36-36 37-114-107z"/></g><defs ><path id="B" d="M4638 12933c-47-54-53-130-18-205 25-55 65-101 82-96 31 11 29 34-6 92-42 70-47 120-15 160 11 14 19 34 17 44-4 24-41 27-60 5z"/><path id="C" d="M3742 12458c-35-35 1-133 70-193 58-50 83-61 103-45 25 20 18 37-29 70-57 38-85 78-94 132-8 44-27 59-50 36z"/><path id="D" d="M1433 12394c-10-27 10-46 67-66 63-21 80-18 80 16 0 21-9 27-62 45-74 25-77 25-85 5z"/><path id="E" d="M1780 12275c-10-12-11-21-4-33 6-8 104-49 218-90 189-68 209-74 223-59 9 8 13 22 10 30-3 7-97 47-209 87l-214 77c-6 2-17-3-24-12z"/><path id="F" d="M353 12178c-5-7-16-28-23-46-12-30-11-36 7-60 11-14 42-35 69-46l52-22c2-1-6-29-18-62l-22-60-42 15c-62 23-188 21-256-5-30-12-70-31-87-42-29-17-33-25-33-61v-41l37 28c125 95 265 96 469 4 120-54 193-159 202-288 4-68 3-74-22-97-31-29-35-74-8-98 43-39 121-2 107 51-4 15-8 65-10 112-6 180-87 306-240 376-30 14-55 27-55 29s9 30 21 61c19 49 24 55 43 49 113-35 140-31 162 22 31 73 10 94-157 153-113 41-179 50-196 28z"/><path id="G" d="M398 10590c-28-30-72-62-110-81-60-29-68-30-173-27l-110 3v-25c0-21 7-27 45-37 95-24 212-7 300 44 64 38 142 120 138 147-6 39-40 29-90-24z"/><path id="H" d="M1977 10604c-43-42-49-130-10-122 12 2 20 16 24 42 4 24 15 46 29 56 15 11 21 23 17 34-9 23-31 20-60-10z"/><path id="I" d="M5093 9634c-3-8-2-19 3-23 11-10 295-111 310-111 17 0 25 27 11 38-12 9-296 112-310 112-4 0-10-7-14-16z"/><path id="J" d="M2207 9153c-6-88-33-169-77-228-48-65-56-85-40-95 40-24 141 151 161 277 13 83 7 123-20 123-16 0-19-11-24-77z"/><path id="K" d="M5057 8592c-58-63-106-244-73-271 28-23 44-6 52 56 4 36 21 85 45 132 30 56 36 77 28 88-15 18-33 16-52-5z"/><path id="L" d="M562 7891c-7-4-17-36-22-70-5-39-21-85-44-126-36-66-38-95-5-95 55 0 147 239 109 285-14 17-20 18-38 6z"/><path id="M" d="M399 4091c-25-27-70-62-100-77-51-27-62-29-174-29l-120-1v-24c0-21 7-27 45-37 95-24 212-7 300 44 64 38 142 120 138 147-5 38-40 29-89-23z"/><path id="N" d="M8873 12965c-10-30-8-36 10-48 20-13 19-18-85-308l-102-297c1-2 18 1 37 7 72 24 89 55 202 369l105 303c0 5-35 9-78 9h-79l-10-35z"/><path id="O" d="M9109 11162l-176-166 85-93c47-51 89-93 93-93 15 0 359 334 359 349 0 27-138 171-163 171-14-1-85-60-198-168zm134-186c7-17-115-136-138-136-37 0-25 27 40 87 71 65 89 74 98 49z"/><path id="P" d="M1436 9815c-95-26-178-75-251-149-123-124-171-248-162-421 7-155 61-273 175-382 90-87 252-153 377-153 69 0 177 28 255 67 149 72 260 220 296 393 59 279-128 571-412 645-70 18-211 18-278 0zm263-285c60-30 104-72 131-127 32-62 36-197 6-253-26-49-84-108-131-132-92-48-233-31-311 36-171 146-116 422 98 492 56 18 155 11 207-16zm391-130c0-14-10-22-37-29l-86-25c-54-16-80-12-75 12 2 11 30 24 78 38 97 29 120 30 120 4zm-977-172l8-73c7-33-28-30-45 4-26 49-17 121 14 121 15 0 19-11 23-52z"/><path id="Q" d="M5959 8891c-394-55-679-378-679-771 0-432 341-772 775-772 167 0 309 47 450 147 236 167 360 463 311 744-64 368-354 631-722 654-43 3-104 2-135-2zm265-417c155-76 242-245 215-416-20-127-96-230-213-291-58-30-67-32-171-32-98 0-116 3-167 27-80 37-152 107-191 187-30 61-32 72-32 171 0 93 3 112 26 161 45 96 116 163 218 206 49 21 69 23 156 20s108-7 159-33zm535-162c5-10 6-24 2-31-5-7-62-28-127-47-105-29-121-31-134-18-27 26 1 46 116 80 132 39 131 39 143 16zm-1361-181c9-6 11-22 6-58-4-37-2-58 10-81 20-39 20-58 1-66-24-9-42 3-60 41-20 41-17 132 4 157 15 18 21 19 39 7z"/><path id="R" d="M12459 8891c-394-55-679-378-679-771 0-357 236-660 585-751 119-31 272-29 388 5 88 26 168 62 219 98l28 19v1264l-22 14c-153 96-359 144-519 122zm265-417c155-76 242-245 215-416-20-127-96-230-213-291-58-30-67-32-171-32-98 0-116 3-167 27-80 37-152 107-191 187-30 61-32 72-32 171 0 93 3 112 26 161 45 96 116 163 218 206 49 21 69 23 156 20s108-7 159-33zm-826-343c9-6 11-22 6-58-4-37-2-58 10-81 20-39 20-58 1-66-24-9-42 3-60 41-20 41-17 132 4 157 15 18 21 19 39 7z"/><path id="S" d="M4087 7278l-341-325 20-26c11-14 66-74 123-133l102-108 47 46 445 425c16 27-4 58-102 161-66 69-105 102-120 102s-73-48-174-142zm87-354c3-9 4-20 1-25-15-24-188-170-197-167-7 3-16 12-22 22-9 15 3 30 79 101 89 84 126 102 139 69z"/><path id="T" d="M5138 4003c-51-142-74-221-68-227 17-17 12-35-64-246-41-113-72-208-70-211 5-9 143-54 148-48 6 6 316 867 316 878 0 3-35 18-78 33l-92 32c-12 5-32-40-92-211z"/><path id="U" d="M931 12978c-41-114-73-209-70-211 2-2 50-20 107-40l103-36 8 22c23 60 101 280 101 283 0 2-54 4-120 4-116 0-121-1-129-22z"/><path id="V" d="M1631 12765c-50-139-81-239-75-244 19-17 195-74 203-65 4 5 41 101 81 214l96 268 23 62h-244l-84-235z"/><path id="W" d="M1926 12723l-103-289c-4-10 204-91 211-83 2 2 50 135 106 294 57 160 108 295 113 302s18 11 29 10c13-1 23 6 29 21l8 22h-294l-99-277z"/><path id="X" d="M3366 12919c-68-62-83-98-54-127 26-26 59-12 129 55l69 67-32 33c-17 18-35 33-39 33-3 0-36-27-73-61z"/><path id="Y" d="M6892 12113c2-11 38-29 108-54 105-38 150-47 150-30 0 15-23 27-130 64-118 42-133 44-128 20z"/><path id="Z" d="M4625 10882c-16-11-35-25-41-33-23-28-254-690-254-727 0-41 34-106 53-99 6 2 82 200 168 440l156 437h-26c-14 0-39-8-56-18z"/><path id="a" d="M2350 10790l-105-100 27-27 28-27 92 89 107 102c13 11 12 16-9 38-13 14-26 25-29 24-3 0-53-45-111-99z"/><path id="b" d="M4745 10868c-2-7-72-202-155-433l-150-432c0-6 33-22 74-36l74-25 78 215c61 172 81 216 99 223 17 6 36 50 96 216l77 214c3 7-160 70-179 70-5 0-12-6-14-12z"/><path id="c" d="M4906 10586c-65-182-75-218-65-234 10-17 1-51-61-223l-77-216c-5-12 105-58 115-48 4 3 41 101 83 218 61 171 80 213 96 215 18 3 41 59 170 428 2 5-34 23-79 39-46 15-88 30-94 32s-44-88-88-211z"/><path id="d" d="M2163 10610c-54-51-62-67-41-88s43-13 90 36l47 47-44 54-52-49z"/><path id="e" d="M5674 10535c-5-11-41-110-80-220-61-171-69-201-57-210 13-10 4-42-60-221-78-217-80-236-22-198 14 9 32 29 40 44s66 173 130 351c129 361 134 388 86 441-28 31-30 32-37 13z"/><path id="f" d="M12174 10535c-5-11-41-110-80-220-61-171-69-201-57-210 13-10 4-42-60-221-79-220-80-239-18-195 34 25 33 22 172 410 122 342 128 370 80 423-28 31-30 32-37 13z"/><path id="g" d="M3637 6674c-81-76-147-140-147-144 0-3 16-21 34-39l35-34 145 138c81 76 146 141 146 144 0 4-15 22-33 39l-34 33-146-137z"/><path id="h" d="M5138 4003c-51-142-74-221-68-227 17-17 12-35-64-246-41-113-73-207-71-210 6-9 144-54 150-49 5 6 315 867 315 878 0 3-35 18-78 33l-92 32c-12 5-32-40-92-211z"/></defs></svg>