<!DOCTYPE svg PUBLIC "-//W3C//DTD SVG 20010904//EN" "http://www.w3.org/TR/2001/REC-SVG-20010904/DTD/svg10.dtd">
<svg version="1.0" xmlns="http://www.w3.org/2000/svg" width="288px" height="288px" viewBox="0 0 2880 2880" preserveAspectRatio="xMidYMid meet">
<g id="layer101" fill="#3e7866" stroke="none">
 <path d="M0 2810 c0 -76 11 -84 36 -26 10 25 13 27 14 10 0 -26 36 -74 55 -74 17 0 47 90 43 127 -3 27 -4 28 -75 31 l-73 3 0 -71z"/>
 <path d="M848 2833 c-3 -83 0 -104 18 -124 12 -13 17 -32 16 -53 -3 -25 3 -38 20 -52 15 -13 22 -27 20 -45 -2 -14 6 -36 17 -50 16 -21 28 -24 78 -23 72 0 136 31 165 79 15 26 31 38 61 46 23 6 45 13 50 16 4 2 7 -14 7 -36 0 -36 -3 -40 -36 -51 -19 -7 -38 -18 -41 -26 -3 -8 -14 -14 -25 -14 -33 0 -56 -18 -68 -54 -8 -25 -8 -41 -1 -54 9 -16 7 -19 -7 -18 -14 1 -18 -9 -20 -53 l-3 -54 57 -54 c78 -72 118 -83 187 -55 62 26 81 27 137 7 50 -18 110 -11 144 16 32 25 60 130 54 202 -4 54 -4 55 29 71 18 9 33 21 33 28 0 7 14 21 31 30 17 10 27 22 24 28 -3 5 1 10 9 10 18 0 40 36 31 50 -3 6 0 10 8 10 21 0 27 24 20 77 -4 33 -11 47 -25 51 -12 3 -18 14 -18 33 0 46 -67 77 -109 50 -9 -6 -21 -5 -31 1 -11 7 -31 7 -66 -1 -27 -7 -58 -12 -69 -12 -27 0 -64 -26 -75 -52 -7 -18 -9 -18 -9 -4 -1 13 -7 16 -25 11 -24 -6 -25 -3 -32 55 -4 40 -11 61 -19 61 -8 0 -16 -6 -18 -12 -4 -10 -6 -10 -6 0 -2 25 -21 1 -21 -26 0 -15 -5 -34 -10 -42 -8 -12 -16 -9 -47 20 -74 68 -122 79 -140 33 l-11 -28 -1 28 -1 27 -101 0 c-64 0 -98 -4 -94 -10 3 -5 2 -10 -4 -10 -5 0 -13 5 -16 10 -3 6 -19 10 -36 10 -28 0 -29 -2 -31 -47z m543 -53 c3 -58 0 -70 -20 -70 -19 0 -46 -52 -34 -64 4 -3 1 -6 -5 -6 -16 0 -15 15 4 51 8 16 12 39 9 49 -7 23 24 95 36 83 4 -4 8 -24 10 -43z m-427 -1 c-8 -13 -27 -11 -48 4 -16 12 -14 13 18 9 20 -2 33 -8 30 -13z m295 -57 c-13 -37 -24 -41 -32 -12 -3 13 2 25 16 35 27 19 29 15 16 -23z m291 -30 c-7 -13 -9 -8 -9 23 0 35 1 37 10 17 6 -15 5 -30 -1 -40z m180 -135 c8 -3 4 -6 -11 -6 -14 -1 -34 6 -45 14 -18 14 -17 14 11 6 17 -5 37 -12 45 -14z m-104 -28 c19 -22 19 -22 -3 -10 -13 6 -23 16 -23 21 0 15 5 12 26 -11z m-154 -54 c-2 -14 -9 -28 -15 -32 -7 -4 -8 0 -4 11 4 10 7 24 7 32 0 8 4 14 9 14 4 0 6 -11 3 -25z m-138 -1 c15 -39 -4 -42 -24 -3 -8 15 -7 19 4 19 7 0 17 -7 20 -16z m-19 -94 c-8 -13 -34 1 -60 30 l-20 23 43 -22 c23 -12 40 -26 37 -31z m-17 -90 c6 0 12 -4 12 -10 0 -25 -83 3 -114 39 -19 21 -18 21 35 -3 29 -14 60 -26 67 -26z m-32 -75 c15 -11 16 -14 3 -15 -8 0 -24 7 -35 15 -15 11 -16 14 -3 15 8 0 24 -7 35 -15z"/>
 <path d="M2627 2873 c-10 -10 -8 -61 2 -67 5 -4 43 7 85 23 l75 29 3 -32 c2 -17 -2 -48 -9 -70 -17 -51 -16 -78 2 -102 15 -19 16 -19 28 0 7 11 24 34 40 51 24 29 27 41 27 104 l0 71 -123 0 c-68 0 -127 -3 -130 -7z"/>
 <path d="M2097 2442 c-9 -10 -17 -24 -17 -30 0 -16 -12 -15 -36 3 -10 8 -25 15 -33 15 -8 0 0 -11 19 -25 20 -14 27 -25 18 -25 -17 0 -48 -31 -48 -47 0 -21 34 -23 71 -5 33 16 41 17 50 6 9 -11 8 -14 -5 -14 -20 0 -56 -35 -56 -55 0 -21 59 -20 89 1 20 14 25 15 37 2 12 -12 9 -16 -26 -32 -73 -32 -80 -86 -11 -86 28 0 49 8 71 27 l32 27 19 -25 18 -24 -34 -3 c-46 -4 -103 -56 -85 -77 7 -8 21 -15 32 -15 25 0 80 24 100 43 15 15 18 13 42 -23 14 -22 31 -40 37 -40 7 0 6 8 -3 23 -46 70 -45 65 -16 90 31 26 48 57 48 87 0 47 -63 28 -99 -31 -17 -28 -18 -28 -34 -11 -16 17 -15 20 7 41 25 24 41 77 30 105 -16 41 -94 -6 -94 -57 0 -20 -1 -20 -16 -5 -15 15 -15 18 0 39 18 26 21 74 6 84 -18 11 -51 -16 -57 -46 -5 -27 -8 -29 -20 -16 -12 12 -13 19 -3 36 13 26 10 73 -6 78 -6 2 -18 -5 -27 -15z"/>
 <path d="M440 2438 c0 -8 7 -32 15 -51 19 -45 19 -47 -1 -47 -23 0 -84 -64 -84 -89 0 -41 89 -19 115 28 l11 22 12 -25 c10 -21 8 -26 -14 -41 -50 -33 -68 -125 -24 -125 24 0 80 47 80 68 1 15 3 14 15 -2 13 -17 12 -21 -10 -42 -32 -29 -35 -84 -6 -84 11 0 30 13 44 30 21 24 26 26 31 13 4 -9 0 -23 -9 -33 -8 -9 -15 -29 -15 -43 0 -34 32 -37 54 -5 l16 22 30 -29 c16 -16 30 -24 30 -18 0 5 -9 18 -20 28 -26 23 -25 33 1 37 30 4 48 33 31 50 -9 9 -22 10 -54 1 -32 -9 -45 -9 -50 0 -5 8 3 15 21 19 16 5 34 15 41 23 29 35 -43 62 -85 31 -17 -12 -21 -12 -32 3 -19 25 -16 31 21 31 42 0 93 38 83 63 -10 27 -71 32 -116 10 l-39 -20 -11 24 c-10 21 -8 23 20 23 16 0 46 7 65 15 28 11 35 19 32 37 -2 19 -10 24 -46 26 -25 2 -56 -3 -74 -12 -17 -9 -32 -16 -34 -16 -1 0 -8 17 -14 38 -14 42 -30 64 -30 40z"/>
 <path d="M1 1958 c1 -201 2 -211 16 -170 13 38 18 42 49 42 42 0 41 -5 11 190 -23 144 -23 145 -50 148 l-27 3 1 -213z"/>
 <path d="M2776 2158 c-6 -20 -46 -291 -46 -310 0 -15 9 -18 45 -18 l45 0 0 -62 c-1 -66 -13 -144 -24 -155 -3 -4 -23 10 -44 30 -21 20 -43 37 -49 37 -6 0 -16 7 -23 15 -7 8 -23 15 -35 15 -17 0 -24 -8 -30 -32 l-7 -33 -10 42 c-10 46 -25 63 -60 67 -13 2 -36 8 -51 15 -36 14 -57 14 -57 -1 0 -6 -7 -4 -18 5 -10 10 -31 17 -46 17 -25 0 -28 -3 -23 -27 3 -17 0 -31 -9 -38 -9 -7 -14 -37 -16 -91 -3 -70 0 -85 17 -104 13 -14 18 -33 17 -54 -3 -25 3 -38 20 -52 15 -13 22 -27 20 -45 -2 -14 6 -36 17 -50 16 -21 28 -24 78 -23 72 0 136 31 165 79 15 26 31 38 61 46 23 6 45 13 50 16 4 2 7 -14 7 -36 0 -36 -3 -40 -36 -51 -19 -7 -38 -18 -41 -26 -3 -8 -14 -14 -25 -14 -33 0 -56 -18 -68 -54 -8 -25 -8 -41 -1 -54 9 -16 7 -19 -7 -18 -14 1 -18 -9 -20 -53 l-3 -54 57 -54 c80 -73 116 -83 195 -52 l60 24 -2 389 c-2 216 -6 380 -11 370 -5 -12 -6 -9 -2 11 4 17 8 112 11 213 l5 182 -52 0 c-32 0 -52 -5 -54 -12z m64 -466 c-11 -16 -11 -16 -6 1 3 10 7 46 8 80 l2 62 3 -63 c2 -35 -1 -70 -7 -80z m-435 -10 c-3 -3 -16 5 -28 17 l-22 23 28 -17 c15 -10 25 -20 22 -23z m456 -82 c3 -58 0 -70 -20 -70 -19 0 -46 -52 -34 -64 4 -3 1 -6 -5 -6 -16 0 -15 15 4 51 8 16 12 39 9 49 -7 23 24 95 36 83 4 -4 8 -24 10 -43z m-427 -1 c-8 -13 -27 -11 -48 4 -16 12 -14 13 18 9 20 -2 33 -8 30 -13z m295 -57 c-13 -37 -24 -41 -32 -12 -3 13 2 25 16 35 27 19 29 15 16 -23z m75 -248 c15 -39 -4 -42 -24 -3 -8 15 -7 19 4 19 7 0 17 -7 20 -16z m-19 -94 c-8 -13 -34 1 -60 30 l-20 23 43 -22 c23 -12 40 -26 37 -31z m-17 -90 c6 0 12 -4 12 -10 0 -25 -83 3 -114 39 -19 21 -18 21 35 -3 29 -14 60 -26 67 -26z m-32 -75 c15 -11 16 -14 3 -15 -8 0 -24 7 -35 15 -15 11 -16 14 -3 15 8 0 24 -7 35 -15z"/>
 <path d="M190 1638 c-19 -5 -44 -9 -55 -9 -27 0 -64 -26 -75 -52 -7 -19 -9 -19 -9 -3 -1 12 -6 16 -17 12 -9 -3 -20 -6 -25 -6 -5 0 -9 -120 -9 -288 l0 -287 63 -18 c68 -19 123 -13 157 18 27 24 53 133 48 198 -4 54 -4 55 29 71 18 9 33 21 33 28 0 7 14 21 31 30 17 10 27 22 24 28 -3 5 1 10 9 10 18 0 40 36 31 50 -3 6 0 10 8 10 21 0 27 24 20 77 -4 33 -11 47 -25 51 -12 3 -18 14 -18 33 0 47 -62 75 -110 49 -13 -7 -21 -7 -25 0 -7 12 -37 11 -85 -2z m-50 -126 c-7 -13 -9 -8 -9 23 0 35 1 37 10 17 6 -15 5 -30 -1 -40z m180 -135 c8 -3 4 -6 -11 -6 -14 -1 -34 6 -45 14 -18 14 -17 14 11 6 17 -5 37 -12 45 -14z m-104 -28 c19 -22 19 -22 -3 -10 -13 6 -23 16 -23 21 0 15 5 12 26 -11z m-154 -54 c-2 -14 -9 -28 -15 -32 -7 -4 -8 0 -4 11 4 10 7 24 7 32 0 8 4 14 9 14 4 0 6 -11 3 -25z"/>
 <path d="M1290 1505 c0 -83 4 -145 9 -145 5 0 -1 -27 -15 -59 -29 -72 -46 -177 -42 -256 4 -68 22 -83 42 -33 16 38 15 42 37 -85 19 -112 33 -102 59 41 18 99 24 103 35 20 10 -77 25 -59 50 57 13 59 15 60 51 7 32 -49 64 -68 64 -39 -1 22 -38 180 -63 265 -14 45 -21 82 -16 82 5 0 9 65 9 145 l0 145 -110 0 -110 0 0 -145z"/>
 <path d="M1900 988 c0 -8 7 -32 15 -51 19 -45 19 -47 -1 -47 -23 0 -84 -64 -84 -89 0 -41 89 -19 115 28 l11 22 12 -25 c10 -21 8 -26 -14 -41 -50 -33 -68 -125 -24 -125 24 0 80 47 80 68 1 15 3 14 15 -2 13 -17 12 -21 -10 -42 -32 -29 -35 -84 -6 -84 11 0 30 13 44 30 21 24 26 26 31 13 4 -9 0 -23 -9 -33 -8 -9 -15 -29 -15 -43 0 -34 32 -37 54 -5 l16 22 30 -29 c16 -16 30 -24 30 -18 0 5 -9 18 -20 28 -26 23 -25 33 1 37 30 4 48 33 31 50 -9 9 -22 10 -54 1 -32 -9 -45 -9 -50 0 -5 8 3 15 21 19 16 5 34 15 41 23 29 35 -43 62 -85 31 -17 -12 -21 -12 -32 3 -19 25 -16 31 21 31 42 0 93 38 83 63 -10 27 -71 32 -116 10 l-39 -20 -11 24 c-10 21 -8 23 20 23 16 0 46 7 65 15 28 11 35 19 32 37 -2 19 -10 24 -46 26 -25 2 -56 -3 -74 -12 -17 -9 -32 -16 -34 -16 -1 0 -8 17 -14 38 -14 42 -30 64 -30 40z"/>
 <path d="M637 902 c-9 -10 -17 -24 -17 -30 0 -16 -12 -15 -36 3 -10 8 -25 15 -33 15 -8 0 0 -11 19 -25 20 -14 27 -25 18 -25 -17 0 -48 -31 -48 -47 0 -21 34 -23 71 -5 33 16 41 17 50 6 9 -11 8 -14 -5 -14 -20 0 -56 -35 -56 -55 0 -21 59 -20 89 1 20 14 25 15 37 2 12 -12 9 -16 -26 -32 -73 -32 -80 -86 -11 -86 28 0 49 8 71 27 l32 27 19 -25 18 -24 -34 -3 c-46 -4 -103 -56 -85 -77 7 -8 21 -15 32 -15 25 0 80 24 100 43 15 15 18 13 42 -23 14 -22 31 -40 37 -40 7 0 6 8 -3 23 -46 70 -45 65 -16 90 31 26 48 57 48 87 0 47 -63 28 -99 -31 -17 -28 -18 -28 -34 -11 -16 17 -15 20 7 41 25 24 41 77 30 105 -16 41 -94 -6 -94 -57 0 -20 -1 -20 -16 -5 -15 15 -15 18 0 39 18 26 21 74 6 84 -18 11 -51 -16 -57 -46 -5 -27 -8 -29 -20 -16 -12 12 -13 19 -3 36 13 26 10 73 -6 78 -6 2 -18 -5 -27 -15z"/>
 <path d="M1 404 c1 -107 5 -171 10 -163 6 10 9 4 9 -18 0 -18 -4 -33 -10 -33 -6 0 -10 -38 -10 -94 l0 -93 69 -2 69 -1 -5 42 c-3 24 -19 71 -35 105 -16 33 -28 69 -25 80 4 17 4 17 11 -2 4 -11 12 -28 17 -37 5 -10 9 -24 9 -31 0 -24 143 -137 175 -137 30 0 18 64 -20 110 -19 23 -35 45 -35 49 0 14 -82 61 -106 61 -16 0 -31 12 -49 37 -14 21 -25 43 -25 49 0 20 73 -26 95 -60 18 -27 28 -32 86 -40 72 -10 119 -3 119 17 -1 20 -48 48 -88 52 -20 2 -49 8 -64 14 -15 6 -34 8 -42 5 -8 -3 -25 1 -38 10 -22 16 -21 16 25 16 26 0 47 3 47 8 0 4 -13 57 -28 117 l-28 110 -67 3 -68 3 2 -177z m52 -196 c4 -29 3 -48 -3 -48 -6 0 -10 23 -10 52 0 62 5 60 13 -4z"/>
 <path d="M2795 568 c-6 -18 -55 -215 -55 -222 0 -3 32 -6 70 -6 l70 0 0 120 0 120 -40 0 c-24 0 -42 -5 -45 -12z"/>
 <path d="M1306 458 c-6 -19 -46 -290 -46 -310 0 -15 9 -18 45 -18 l45 0 0 -65 c0 -86 18 -84 23 3 l3 67 2 -67 c1 -38 6 -68 11 -68 5 0 19 29 31 65 21 63 23 65 56 65 42 0 41 -5 11 190 l-23 145 -77 3 c-57 2 -78 -1 -81 -10z m102 -368 c-6 -23 -13 -39 -15 -36 -7 7 8 76 17 76 4 0 3 -18 -2 -40z"/>
 <path d="M2860 320 c-8 -5 -39 -10 -68 -10 -32 0 -63 -6 -78 -17 -14 -9 -48 -20 -76 -24 -38 -6 -60 -17 -85 -41 -39 -38 -40 -41 -10 -68 23 -22 33 -23 151 -4 l38 6 -19 -28 c-61 -91 -83 -125 -83 -129 0 -3 56 -5 125 -5 l125 0 -2 131 c-1 109 -4 126 -14 107 -7 -13 -32 -34 -55 -47 l-43 -25 42 50 c23 28 42 54 42 59 0 4 7 13 16 20 21 15 15 38 -6 25z"/>
 <path d="M873 61 c4 -20 2 -31 -8 -35 -24 -9 -17 -26 11 -26 17 0 23 4 18 13 -6 10 -4 10 7 0 20 -19 219 -18 219 1 0 18 -23 37 -52 40 -13 2 -36 8 -51 15 -36 14 -57 14 -57 -1 0 -6 -7 -4 -18 5 -10 10 -31 17 -47 17 -25 0 -27 -3 -22 -29z"/>
 </g>
<g id="layer102" fill="#438e6b" stroke="none">
 <path d="M0 2818 c1 -60 1 -62 15 -38 15 27 19 59 9 84 -13 34 -24 13 -24 -46z"/>
 <path d="M55 2838 c9 -54 33 -100 48 -95 16 5 38 85 31 114 -7 27 -40 31 -47 6 -4 -17 -5 -17 -6 0 0 9 -8 17 -17 17 -13 0 -15 -7 -9 -42z"/>
 <path d="M860 2862 c0 -28 32 -52 71 -52 43 0 64 -13 56 -34 -9 -22 -59 -20 -90 4 -33 26 -37 25 -37 -8 0 -66 59 -97 116 -61 41 25 57 18 26 -13 -14 -14 -36 -22 -64 -24 -48 -2 -57 -14 -34 -49 19 -29 44 -31 87 -9 34 17 45 14 36 -11 -4 -8 -18 -15 -35 -15 -15 0 -37 -6 -47 -14 -18 -13 -18 -15 -1 -40 26 -41 59 -49 122 -31 51 15 114 63 114 88 0 7 -22 33 -49 60 -28 26 -75 82 -105 125 -50 72 -58 78 -84 74 -18 -2 -35 2 -45 12 -21 21 -37 20 -37 -2z m203 -309 c11 -10 -13 -33 -34 -33 -21 0 -26 26 -6 33 18 8 33 8 40 0z"/>
 <path d="M1022 2803 c29 -43 78 -103 109 -134 l56 -57 42 11 c49 13 101 65 101 100 0 22 -83 127 -100 127 -5 0 -12 -15 -15 -32 -10 -44 -22 -58 -52 -58 -25 0 -25 0 11 40 42 46 41 44 20 64 -22 23 -34 20 -34 -8 0 -14 -11 -38 -25 -53 l-24 -28 -1 53 c0 39 -4 52 -15 52 -8 0 -15 -8 -15 -19 0 -10 -7 -24 -15 -31 -12 -10 -16 -9 -21 4 -3 9 -4 23 0 31 4 12 -3 15 -35 15 l-40 0 53 -77z m258 -62 c-21 -74 -47 -88 -65 -37 -8 24 -6 31 14 47 13 10 31 19 41 19 16 0 17 -5 10 -29z"/>
 <path d="M2636 2854 c-4 -15 -5 -29 -2 -32 6 -5 126 37 141 50 5 4 -23 8 -62 8 -68 0 -71 -1 -77 -26z"/>
 <path d="M2804 2832 c4 -30 1 -63 -7 -88 -13 -41 -12 -84 3 -84 5 0 11 9 15 20 3 11 20 33 36 50 27 27 30 35 27 87 l-3 58 -39 3 -39 3 7 -49z"/>
 <path d="M1634 2805 c-5 -11 -10 -13 -20 -5 -9 8 -19 8 -35 0 -19 -11 -21 -18 -15 -58 6 -51 -4 -79 -24 -67 -9 6 -11 25 -6 67 6 62 3 64 -36 30 -12 -10 -18 -29 -18 -54 0 -48 -23 -48 -28 0 -4 35 -5 36 -33 22 -26 -14 -24 -36 6 -66 30 -30 31 -34 5 -34 -13 0 -28 12 -38 30 -20 35 -28 37 -37 9 -6 -17 4 -33 46 -77 46 -46 48 -51 17 -27 l-38 27 -1 -23 -1 -24 -7 25 -7 25 -13 -23 c-7 -13 -37 -35 -67 -48 -82 -36 -74 -71 26 -127 27 -14 30 -20 20 -32 -27 -32 -93 14 -112 77 -6 21 -15 38 -19 38 -21 0 -41 -15 -55 -42 -14 -27 -14 -32 1 -54 20 -31 64 -58 138 -86 61 -22 70 -33 36 -43 -41 -13 -87 5 -142 55 -30 27 -57 47 -61 43 -3 -3 -6 -24 -6 -47 0 -35 6 -46 53 -89 28 -28 67 -56 86 -64 32 -14 39 -13 93 8 35 14 58 30 58 39 0 13 2 13 9 1 5 -8 34 -22 65 -32 95 -29 157 -3 177 75 5 23 12 49 15 58 4 13 -9 9 -53 -18 -58 -35 -102 -41 -111 -16 -2 8 7 12 27 12 41 0 81 17 114 48 31 29 34 57 11 90 -22 31 -38 27 -53 -13 -14 -41 -54 -75 -87 -75 -36 0 -37 17 -2 29 40 14 78 49 78 72 0 15 7 17 41 14 26 -3 53 2 72 12 29 15 30 17 12 24 -11 4 -37 8 -57 8 -37 1 -68 22 -68 45 0 26 14 25 47 -4 26 -23 43 -30 77 -30 27 0 48 6 56 15 11 13 6 15 -38 15 -34 0 -57 6 -73 19 -37 30 -17 35 59 15 69 -18 107 -15 100 9 -3 6 -22 14 -44 17 -43 6 -64 16 -64 31 0 14 34 11 66 -6 30 -15 63 -11 76 9 15 22 7 27 -41 20 -29 -4 -56 -2 -67 5 -15 8 -9 10 33 11 43 0 54 4 64 21 18 35 -4 45 -41 19 -41 -29 -51 -18 -17 18 30 31 34 54 13 71 -11 9 -24 -2 -64 -56 -55 -75 -99 -119 -180 -181 -29 -23 -53 -42 -53 -44 1 -22 -31 -84 -44 -86 -15 -4 -17 1 -10 35 4 21 7 46 7 57 -1 16 0 17 11 3 10 -14 23 -7 94 49 71 56 213 213 213 236 0 12 -45 9 -58 -4 -7 -7 -12 -27 -12 -46 0 -21 -4 -32 -12 -30 -6 2 -12 22 -12 43 -1 29 -6 41 -19 43 -9 2 -20 -4 -23 -13z m-4 -77 c0 -29 -14 -38 -23 -15 -3 7 -3 26 0 41 7 34 23 15 23 -26z m90 -53 c0 -8 -7 -15 -15 -15 -16 0 -20 12 -8 23 11 12 23 8 23 -8z m-186 -31 c9 -3 16 -12 16 -20 0 -22 -48 -17 -60 6 -9 17 -8 20 9 20 11 0 26 -3 35 -6z m-147 -141 c-3 -10 -5 -2 -5 17 0 19 2 27 5 18 2 -10 2 -26 0 -35z m-47 -13 c26 -26 26 -60 0 -60 -23 0 -55 44 -46 65 7 20 22 19 46 -5z m47 -182 c-2 -18 -4 -6 -4 27 0 33 2 48 4 33 2 -15 2 -42 0 -60z m-137 -68 c11 0 40 -29 40 -41 0 -17 -46 -9 -68 12 -24 21 -20 44 5 35 8 -3 18 -6 23 -6z"/>
 <path d="M1324 2615 c-4 -8 -3 -23 0 -32 6 -14 8 -14 22 5 15 22 12 42 -7 42 -5 0 -12 -7 -15 -15z"/>
 <path d="M2102 2437 c-17 -21 -23 -55 -12 -62 16 -10 40 14 40 41 0 27 -14 38 -28 21z"/>
 <path d="M2176 2381 c-9 -9 -16 -29 -16 -43 0 -21 -5 -25 -25 -25 -24 0 -65 -28 -65 -43 0 -4 10 -10 21 -13 15 -4 30 3 51 24 16 16 34 29 38 29 13 0 30 34 30 59 0 28 -15 34 -34 12z"/>
 <path d="M531 2370 c-37 -17 -41 -22 -31 -35 15 -18 58 -19 97 -3 15 6 31 11 35 10 15 -3 -1 32 -18 39 -28 11 -35 10 -83 -11z"/>
 <path d="M2021 2355 l-23 -23 21 -7 c14 -4 31 -1 46 9 24 16 33 35 18 37 -5 0 -15 2 -23 3 -8 2 -26 -7 -39 -19z"/>
 <path d="M2256 2333 c-12 -14 -24 -33 -28 -42 -7 -20 11 -63 27 -64 18 -1 67 82 59 101 -4 9 -7 20 -6 23 3 16 -34 3 -52 -18z"/>
 <path d="M430 2318 c-19 -13 -39 -37 -46 -55 -13 -30 -12 -31 11 -29 51 6 101 59 88 94 -7 17 -15 15 -53 -10z"/>
 <path d="M584 2281 c-41 -25 -47 -36 -30 -51 21 -17 71 -15 100 4 33 21 33 38 -1 54 -34 15 -32 16 -69 -7z"/>
 <path d="M2339 2231 c-29 -29 -39 -74 -19 -86 17 -11 80 60 80 89 0 35 -24 34 -61 -3z"/>
 <path d="M496 2228 c3 -4 -1 -8 -9 -8 -20 0 -44 -77 -29 -92 31 -31 104 51 82 91 -5 11 -19 19 -29 18 -11 0 -17 -5 -15 -9z"/>
 <path d="M2170 2233 c-41 -15 -78 -72 -47 -74 6 0 19 -2 29 -4 20 -4 77 30 85 51 10 26 -28 41 -67 27z"/>
 <path d="M617 2162 c-20 -22 -13 -32 23 -32 27 0 66 31 53 43 -13 14 -60 7 -76 -11z"/>
 <path d="M0 1999 l0 -160 48 3 c41 3 47 6 44 23 -2 11 -5 34 -7 50 -2 17 -7 46 -10 65 -9 56 -14 93 -18 126 -5 40 -14 54 -38 54 -18 0 -19 -8 -19 -161z"/>
 <path d="M2784 2148 c-4 -6 -9 -25 -11 -42 -4 -33 -9 -70 -18 -126 -3 -19 -8 -48 -10 -65 -2 -16 -5 -39 -7 -50 -3 -18 3 -20 70 -23 l72 -3 0 161 0 160 -44 0 c-25 0 -48 -5 -52 -12z"/>
 <path d="M2232 2135 c-18 -8 -35 -14 -39 -14 -9 1 -22 -34 -16 -43 13 -23 94 2 123 37 12 14 12 18 -1 26 -19 12 -28 11 -67 -6z"/>
 <path d="M549 2136 c0 -1 -2 -10 -4 -20 -2 -11 -6 -30 -9 -42 -5 -18 -2 -21 13 -17 25 6 48 32 53 58 2 16 -3 20 -24 21 -16 1 -28 1 -29 0z"/>
 <path d="M672 2088 c-18 -18 -15 -25 13 -30 29 -6 61 14 51 30 -9 16 -49 15 -64 0z"/>
 <path d="M627 2057 c-9 -6 -18 -24 -21 -38 -3 -22 -1 -26 14 -22 11 3 26 15 34 28 19 29 0 53 -27 32z"/>
 <path d="M2365 1753 c15 -31 39 -52 60 -50 5 0 40 -42 77 -94 37 -52 88 -113 112 -135 44 -41 46 -41 87 -30 47 12 99 64 99 99 0 22 -83 127 -100 127 -5 0 -12 -15 -15 -32 -10 -44 -22 -58 -52 -58 -25 0 -25 0 11 40 42 46 41 44 20 64 -22 23 -34 20 -34 -8 0 -14 -11 -38 -25 -53 l-24 -28 -1 57 c0 38 -5 62 -16 72 -25 26 -33 19 -22 -19 9 -26 8 -38 -2 -49 -18 -22 -33 -9 -27 23 8 37 -13 73 -46 82 -27 7 -28 7 -22 -24 l6 -32 -36 40 c-20 22 -31 30 -25 18 5 -12 15 -25 20 -28 6 -3 10 -11 10 -17 0 -6 -16 6 -35 28 -36 39 -36 39 -20 7z m385 -192 c-21 -74 -47 -88 -65 -37 -8 24 -6 31 14 47 13 10 31 19 41 19 16 0 17 -5 10 -29z"/>
 <path d="M2337 1703 c-27 -26 14 -73 64 -73 43 0 64 -13 56 -34 -9 -22 -59 -20 -90 4 -33 26 -37 25 -37 -8 0 -66 59 -97 116 -61 41 25 57 18 26 -13 -14 -14 -36 -22 -64 -24 -48 -2 -57 -14 -34 -49 19 -29 44 -31 87 -9 34 17 45 14 36 -11 -4 -8 -18 -15 -35 -15 -15 0 -37 -6 -47 -14 -18 -13 -18 -15 -1 -40 26 -41 59 -49 122 -31 51 15 114 63 114 88 0 7 -22 33 -49 60 -28 26 -75 82 -105 125 -50 72 -58 78 -84 74 -21 -3 -35 2 -49 17 -11 12 -23 18 -26 14z m196 -330 c11 -10 -13 -33 -34 -33 -21 0 -26 26 -6 33 18 8 33 8 40 0z"/>
 <path d="M1290 1505 c0 -127 2 -145 16 -145 12 0 14 -5 9 -17 -30 -71 -55 -173 -61 -246 -8 -102 4 -114 34 -34 l20 52 6 -50 c4 -27 11 -81 18 -120 14 -89 20 -75 51 130 l24 150 6 -100 c3 -55 10 -111 15 -125 9 -23 11 -20 21 31 7 31 16 85 20 120 6 47 9 54 10 26 1 -42 15 -74 56 -127 l27 -35 -7 50 c-4 28 -22 103 -41 168 -19 65 -34 120 -34 123 0 2 7 4 15 4 13 0 15 23 15 145 l0 145 -110 0 -110 0 0 -145z m170 -189 c0 -26 -6 -18 -14 19 -5 22 -4 26 4 15 5 -8 10 -24 10 -34z m-126 -55 c-4 -23 -9 -40 -11 -37 -3 3 -2 23 2 46 4 23 9 39 11 37 3 -2 2 -23 -2 -46z m83 -3 c-2 -13 -4 -5 -4 17 -1 22 1 32 4 23 2 -10 2 -28 0 -40z m-100 -110 c-2 -13 -4 -3 -4 22 0 25 2 35 4 23 2 -13 2 -33 0 -45z"/>
 <path d="M224 1625 c-5 -11 -10 -13 -20 -5 -9 8 -19 8 -35 0 -19 -11 -21 -18 -15 -58 6 -51 -4 -79 -24 -67 -9 6 -11 25 -6 67 6 62 3 64 -36 30 -12 -10 -18 -29 -18 -54 0 -49 -23 -48 -28 1 -3 24 -7 31 -19 27 -8 -3 -17 -6 -19 -6 -2 0 -4 -13 -4 -30 0 -19 7 -34 20 -42 26 -16 26 -28 0 -28 -28 0 -26 -37 3 -69 l22 -26 -23 19 -22 20 2 -193 3 -193 58 -18 c96 -30 157 -4 178 74 5 23 12 49 15 58 4 13 -9 9 -53 -18 -58 -35 -102 -41 -111 -16 -2 8 7 12 27 12 41 0 81 17 114 48 31 29 34 57 11 90 -22 31 -38 27 -53 -13 -14 -41 -54 -75 -87 -75 -36 0 -37 17 -2 29 40 14 78 49 78 72 0 15 7 17 41 14 26 -3 53 2 72 12 29 15 30 17 12 24 -11 4 -37 8 -57 8 -37 1 -68 22 -68 45 0 26 14 25 47 -4 26 -23 43 -30 77 -30 27 0 48 6 56 15 11 13 6 15 -38 15 -34 0 -57 6 -73 19 -37 30 -17 35 59 15 69 -18 107 -15 100 9 -3 6 -22 14 -44 17 -43 6 -64 16 -64 31 0 14 34 11 66 -6 30 -15 63 -11 76 9 15 22 7 27 -41 20 -29 -4 -56 -2 -67 5 -15 8 -9 10 33 11 43 0 54 4 64 21 18 35 -4 45 -41 19 -41 -29 -51 -18 -17 18 30 31 34 54 13 71 -11 9 -24 -2 -64 -56 -55 -75 -99 -119 -180 -181 -29 -23 -53 -42 -53 -44 1 -22 -31 -84 -44 -86 -15 -4 -17 1 -10 35 4 21 7 46 7 57 -1 16 0 17 11 3 10 -14 23 -7 94 49 71 56 213 213 213 236 0 12 -45 9 -58 -4 -7 -7 -12 -27 -12 -46 0 -21 -4 -32 -12 -30 -6 2 -12 22 -12 43 -1 29 -6 41 -19 43 -9 2 -20 -4 -23 -13z m-4 -77 c0 -29 -14 -38 -23 -15 -3 7 -3 26 0 41 7 34 23 15 23 -26z m90 -53 c0 -8 -7 -15 -15 -15 -16 0 -20 12 -8 23 11 12 23 8 23 -8z m-186 -31 c9 -3 16 -12 16 -20 0 -22 -48 -17 -60 6 -9 17 -8 20 9 20 11 0 26 -3 35 -6z"/>
 <path d="M2825 1499 c-5 -16 1 -29 24 -53 29 -28 31 -29 31 -9 0 23 -30 83 -42 83 -4 0 -10 -10 -13 -21z"/>
 <path d="M2794 1435 c-4 -8 -3 -23 0 -32 6 -14 8 -14 22 5 15 22 12 42 -7 42 -5 0 -12 -7 -15 -15z"/>
 <path d="M2821 1402 c-7 -13 -37 -35 -67 -48 -82 -36 -74 -71 26 -127 27 -14 30 -20 20 -32 -27 -32 -93 14 -112 77 -6 21 -15 38 -19 38 -21 0 -41 -15 -55 -42 -14 -27 -14 -32 1 -54 20 -31 64 -58 138 -86 61 -22 70 -33 36 -43 -41 -13 -87 5 -142 55 -30 27 -57 47 -61 43 -3 -3 -6 -24 -6 -47 0 -35 6 -46 53 -89 28 -28 67 -56 86 -64 32 -14 39 -13 92 8 38 15 60 30 63 44 3 11 6 97 6 191 0 140 -3 174 -15 184 -13 10 -15 9 -16 -11 l-1 -24 -7 25 -7 25 -13 -23z m36 -79 c-3 -10 -5 -2 -5 17 0 19 2 27 5 18 2 -10 2 -26 0 -35z m-47 -13 c26 -26 26 -60 0 -60 -23 0 -55 44 -46 65 7 20 22 19 46 -5z m47 -182 c-2 -18 -4 -6 -4 27 0 33 2 48 4 33 2 -15 2 -42 0 -60z m-137 -68 c11 0 40 -29 40 -41 0 -17 -46 -9 -68 12 -24 21 -20 44 5 35 8 -3 18 -6 23 -6z"/>
 <path d="M1991 920 c-37 -17 -41 -22 -31 -35 15 -18 58 -19 97 -3 15 6 31 11 35 10 15 -3 -1 32 -18 39 -28 11 -35 10 -83 -11z"/>
 <path d="M642 897 c-17 -21 -23 -55 -12 -62 16 -10 40 14 40 41 0 27 -14 38 -28 21z"/>
 <path d="M1890 868 c-19 -13 -39 -37 -46 -55 -13 -30 -12 -31 11 -29 51 6 101 59 88 94 -7 17 -15 15 -53 -10z"/>
 <path d="M716 841 c-9 -9 -16 -29 -16 -43 0 -21 -5 -25 -25 -25 -24 0 -65 -28 -65 -43 0 -4 10 -10 21 -13 15 -4 30 3 51 24 16 16 34 29 38 29 13 0 30 34 30 59 0 28 -15 34 -34 12z"/>
 <path d="M2044 831 c-41 -25 -47 -36 -30 -51 21 -17 71 -15 100 4 33 21 33 38 -1 54 -34 15 -32 16 -69 -7z"/>
 <path d="M561 815 l-23 -23 21 -7 c14 -4 31 -1 46 9 24 16 33 35 18 37 -5 0 -15 2 -23 3 -8 2 -26 -7 -39 -19z"/>
 <path d="M796 793 c-12 -14 -24 -33 -28 -42 -7 -20 11 -63 27 -64 18 -1 67 82 59 101 -4 9 -7 20 -6 23 3 16 -34 3 -52 -18z"/>
 <path d="M1956 778 c3 -4 -1 -8 -9 -8 -20 0 -44 -77 -29 -92 31 -31 104 51 82 91 -5 11 -19 19 -29 18 -11 0 -17 -5 -15 -9z"/>
 <path d="M2077 712 c-20 -22 -13 -32 23 -32 27 0 66 31 53 43 -13 14 -60 7 -76 -11z"/>
 <path d="M879 691 c-29 -29 -39 -74 -19 -86 17 -11 80 60 80 89 0 35 -24 34 -61 -3z"/>
 <path d="M710 693 c-41 -15 -78 -72 -47 -74 6 0 19 -2 29 -4 20 -4 77 30 85 51 10 26 -28 41 -67 27z"/>
 <path d="M2009 686 c0 -1 -2 -10 -4 -20 -2 -11 -6 -30 -9 -42 -5 -18 -2 -21 13 -17 25 6 48 32 53 58 2 16 -3 20 -24 21 -16 1 -28 1 -29 0z"/>
 <path d="M2132 638 c-18 -18 -15 -25 13 -30 29 -6 61 14 51 30 -9 16 -49 15 -64 0z"/>
 <path d="M2087 607 c-9 -6 -18 -24 -21 -38 -3 -22 -1 -26 14 -22 11 3 26 15 34 28 19 29 0 53 -27 32z"/>
 <path d="M772 595 c-18 -8 -35 -14 -39 -14 -9 1 -22 -34 -16 -43 13 -23 94 2 123 37 12 14 12 18 -1 26 -19 12 -28 11 -67 -6z"/>
 <path d="M0 460 l0 -110 88 0 c80 0 88 2 89 20 1 11 -3 22 -8 25 -5 4 -7 11 -3 16 3 5 0 16 -6 24 -6 8 -9 19 -6 24 4 5 1 13 -5 16 -5 4 -8 13 -5 21 3 7 1 16 -5 20 -6 3 -8 12 -5 19 8 23 -17 35 -76 35 l-58 0 0 -110z"/>
 <path d="M2803 559 c-6 -6 -9 -17 -7 -24 3 -7 1 -16 -5 -19 -6 -4 -8 -13 -5 -20 3 -8 0 -17 -5 -21 -6 -3 -9 -11 -5 -16 3 -5 0 -16 -6 -24 -6 -8 -9 -19 -6 -24 4 -5 2 -12 -3 -16 -5 -3 -9 -14 -8 -25 1 -18 9 -20 64 -20 l63 0 0 110 0 110 -33 0 c-18 0 -38 -5 -44 -11z"/>
 <path d="M1314 448 c-4 -6 -9 -25 -11 -42 -4 -33 -9 -70 -18 -126 -3 -19 -8 -48 -10 -65 -2 -16 -5 -39 -7 -50 -3 -19 3 -20 117 -20 114 0 120 1 117 20 -2 11 -5 34 -7 50 -2 17 -7 46 -10 65 -9 56 -14 93 -18 126 -6 49 -13 54 -82 54 -38 0 -67 -5 -71 -12z"/>
 <path d="M155 289 c-13 -20 30 -46 89 -53 31 -4 63 -3 71 2 15 8 15 10 0 22 -9 7 -35 17 -58 21 -23 4 -54 11 -68 14 -17 4 -30 2 -34 -6z"/>
 <path d="M2721 283 c-14 -9 -47 -20 -74 -24 -51 -8 -107 -48 -107 -76 0 -26 46 -37 101 -25 28 7 63 12 79 12 22 0 39 12 73 51 25 29 43 58 40 65 -7 20 -83 18 -112 -3z m79 -23 c-19 -11 -39 -19 -45 -19 -5 0 6 8 25 19 19 11 40 19 45 19 6 0 -6 -8 -25 -19z"/>
 <path d="M120 220 c0 -6 -4 -9 -10 -5 -5 3 -3 -7 5 -22 8 -15 15 -32 15 -37 0 -23 143 -126 156 -113 9 9 -17 61 -41 83 -14 13 -25 29 -25 36 0 7 -19 24 -43 38 -56 33 -57 34 -57 20z m45 -50 c21 -22 37 -40 34 -40 -3 0 -23 18 -44 40 -21 22 -37 40 -34 40 3 0 23 -18 44 -40z"/>
 <path d="M2776 158 c-31 -15 -56 -32 -56 -37 0 -5 -16 -32 -35 -61 -19 -29 -35 -54 -35 -56 0 -2 29 -4 66 -4 65 0 65 0 80 35 7 19 14 43 14 53 0 10 11 33 25 52 14 19 25 37 25 40 0 13 -29 6 -84 -22z m55 5 c-5 -10 -35 -45 -66 -78 l-56 -60 63 78 c64 78 77 91 59 60z"/>
 <path d="M8 155 c-8 -26 -6 -155 2 -155 11 0 30 74 30 114 0 21 -4 35 -9 31 -5 -3 -11 3 -13 12 -4 16 -5 16 -10 -2z"/>
 <path d="M61 121 c-8 -18 -10 -46 -6 -75 7 -45 18 -58 28 -33 4 9 6 9 6 0 1 -7 8 -13 16 -13 24 0 18 69 -9 113 l-23 38 -12 -30z m16 -43 c-2 -13 -4 -5 -4 17 -1 22 1 32 4 23 2 -10 2 -28 0 -40z"/>
 <path d="M2843 93 c-17 -27 -34 -58 -38 -70 -6 -21 -3 -23 29 -23 32 0 36 3 41 33 4 18 5 50 3 70 l-3 37 -32 -47z"/>
 <path d="M895 53 c19 -40 36 -49 102 -52 47 -2 51 -1 46 18 -6 24 -20 36 -51 44 -21 5 -23 3 -17 -26 l6 -32 -36 40 c-20 22 -31 30 -25 18 5 -12 15 -25 20 -28 6 -3 10 -11 10 -17 0 -6 -16 6 -35 28 -36 39 -36 39 -20 7z"/>
 <path d="M1067 20 c3 -11 14 -20 24 -20 23 0 24 4 3 24 -21 22 -33 20 -27 -4z"/>
 </g>
<g id="layer103" fill="#fbfcfc" stroke="none">
 <path d="M0 1995 l0 -155 45 0 c42 0 45 2 41 23 -3 12 -12 69 -21 127 -23 156 -24 160 -46 160 -18 0 -19 -9 -19 -155z"/>
 <path d="M2786 2123 c-3 -16 -13 -75 -21 -133 -9 -58 -18 -115 -21 -127 -4 -22 -2 -23 66 -23 l70 0 0 155 0 155 -44 0 c-40 0 -45 -2 -50 -27z"/>
 <path d="M1300 1505 l0 -135 100 0 100 0 0 135 0 135 -100 0 -100 0 0 -135z"/>
 <path d="M0 460 l0 -110 85 0 c47 0 85 2 85 4 0 6 -40 176 -46 199 -4 14 -17 17 -65 17 l-59 0 0 -110z"/>
 <path d="M2806 553 c-6 -23 -46 -193 -46 -199 0 -2 27 -4 60 -4 l60 0 0 110 0 110 -34 0 c-24 0 -36 -5 -40 -17z"/>
 <path d="M1316 423 c-3 -16 -13 -75 -21 -133 -9 -58 -18 -115 -21 -127 -4 -23 -3 -23 111 -23 114 0 115 0 111 23 -3 12 -12 69 -21 127 -26 176 -17 160 -90 160 -61 0 -64 -1 -69 -27z"/>
 </g>

</svg>