<!DOCTYPE svg PUBLIC "-//W3C//DTD SVG 20010904//EN" "http://www.w3.org/TR/2001/REC-SVG-20010904/DTD/svg10.dtd">
<svg version="1.0" xmlns="http://www.w3.org/2000/svg" width="416px" height="416px" viewBox="0 0 4160 4160" preserveAspectRatio="xMidYMid meet">
<g id="layer101" fill="#1e6e4d" stroke="none">
 <path d="M85 4146 c50 -12 65 -12 65 3 0 4 -26 8 -57 9 l-58 0 50 -12z"/>
 <path d="M187 4153 c-4 -3 -7 -16 -7 -27 0 -12 -7 -32 -16 -45 -18 -24 -34 -25 -133 -5 -25 5 -32 4 -27 -4 4 -7 16 -12 27 -12 13 0 19 -7 19 -21 0 -17 -4 -20 -23 -15 -21 5 -23 2 -23 -29 1 -39 11 -46 21 -15 11 34 37 25 33 -12 -3 -29 -6 -33 -30 -30 -26 3 -28 1 -27 -30 0 -31 1 -32 11 -10 8 15 19 22 32 20 17 -2 23 5 32 42 9 37 8 46 -3 48 -8 2 -12 10 -9 19 3 8 6 16 6 18 0 1 19 0 43 -2 50 -6 69 10 85 75 9 39 5 52 -11 35z"/>
 <path d="M689 4123 l-23 -36 28 -22 c18 -14 24 -25 17 -29 -24 -15 -7 -35 74 -89 l84 -57 42 63 c24 34 47 65 53 69 30 21 108 -5 170 -55 l30 -24 -22 -31 c-12 -16 -22 -35 -22 -41 0 -15 71 -61 95 -61 62 1 157 78 196 159 27 57 33 166 9 181 -27 17 -47 11 -22 -7 58 -40 -2 -216 -96 -278 -57 -37 -100 -42 -135 -13 l-28 23 95 140 c91 136 108 168 66 130 -18 -16 -21 -17 -44 -1 -14 9 -33 16 -43 16 -12 0 -5 -9 20 -25 20 -14 37 -28 37 -31 0 -3 -21 -36 -47 -74 l-47 -68 -50 34 c-53 36 -119 59 -136 49 -19 -12 -10 11 25 63 20 28 31 52 26 52 -9 0 -85 -104 -162 -220 l-16 -24 -71 48 c-43 29 -69 53 -65 60 3 6 24 37 45 68 40 60 44 68 29 68 -5 0 -22 -20 -38 -45 -29 -47 -43 -54 -61 -32 -8 9 -5 19 8 37 22 28 25 40 11 40 -5 0 -20 -16 -32 -37z"/>
 <path d="M1839 4123 c-6 -20 -29 -53 -50 -73 -34 -32 -39 -43 -39 -81 0 -45 32 -129 48 -129 6 0 13 11 16 24 3 13 22 34 41 46 46 28 55 47 54 112 0 29 6 72 15 96 11 31 12 42 3 39 -6 -2 -18 -25 -25 -50 -10 -35 -18 -47 -32 -47 -28 0 -32 14 -15 54 18 41 18 46 6 46 -5 0 -15 -16 -22 -37z m25 -83 c21 -8 26 -16 26 -43 0 -28 -8 -41 -50 -76 l-50 -42 -10 26 c-17 44 -12 99 10 123 23 24 37 27 74 12z"/>
 <path d="M1986 4137 c-3 -12 -8 -65 -12 -117 -5 -75 -3 -108 11 -160 10 -36 21 -69 25 -73 4 -4 24 24 44 63 33 61 39 85 50 188 7 64 11 119 10 121 -11 12 -18 -19 -27 -114 -8 -85 -13 -105 -24 -100 -8 3 -29 5 -47 5 l-32 0 11 105 c6 58 8 105 4 105 -4 0 -9 -10 -13 -23z m77 -216 c15 -15 -17 -40 -45 -34 -27 5 -38 30 -21 47 8 8 53 -1 66 -13z m-23 -55 c0 -12 -13 -36 -20 -36 -4 0 -10 9 -13 20 -4 15 0 20 14 20 10 0 19 -2 19 -4z"/>
 <path d="M2150 4138 c0 -13 7 -79 15 -148 8 -69 15 -126 15 -127 0 -2 7 -3 15 -3 10 0 15 -10 15 -30 0 -34 17 -45 55 -36 23 6 25 10 19 41 l-6 35 42 0 43 0 -7 83 c-8 89 -13 117 -25 117 -4 0 -4 -26 0 -57 12 -96 11 -123 -6 -123 -18 0 -21 14 -36 158 -6 61 -16 112 -20 112 -12 0 -11 -3 6 -150 8 -69 15 -126 15 -127 0 -2 -22 -3 -48 -3 l-49 0 -13 140 c-7 77 -17 140 -21 140 -5 0 -9 -10 -9 -22z m114 -294 c10 -26 7 -34 -14 -34 -15 0 -20 7 -20 25 0 28 24 34 34 9z"/>
 <path d="M2860 4141 c-20 -16 -22 -22 -12 -34 29 -34 115 -45 204 -26 22 5 131 -139 121 -161 -21 -47 -10 -150 16 -150 19 0 289 213 285 224 -9 24 -63 46 -111 46 -47 1 -49 2 -91 60 -24 33 -48 60 -53 60 -14 0 -13 -1 44 -77 49 -65 54 -69 81 -62 34 9 101 -10 101 -29 0 -16 -246 -203 -257 -196 -12 7 -10 102 2 109 20 12 9 40 -47 114 -31 42 -60 80 -64 84 -3 5 -28 1 -55 -8 -52 -18 -109 -13 -141 11 -17 13 -17 15 7 34 17 13 20 20 10 20 -8 0 -26 -9 -40 -19z"/>
 <path d="M3960 4147 c0 -17 32 -47 51 -47 8 0 21 -5 29 -10 13 -9 12 -13 -7 -28 -13 -10 -25 -33 -29 -58 -5 -36 -4 -42 15 -47 19 -5 21 -12 21 -75 0 -76 12 -96 52 -90 25 3 68 69 67 103 0 12 -10 0 -27 -32 -20 -41 -31 -53 -49 -53 -21 0 -23 4 -23 60 0 63 2 76 10 74 3 -1 24 -5 48 -9 72 -12 47 11 -28 25 -60 11 -70 16 -70 34 0 28 15 50 29 42 6 -4 11 -18 11 -32 0 -14 4 -22 10 -19 6 3 10 14 10 25 0 13 5 17 20 13 15 -4 18 -11 14 -29 -4 -15 -2 -24 5 -24 6 0 11 9 11 20 0 11 7 20 15 20 34 0 12 19 -36 30 -37 9 -49 16 -45 27 3 8 6 16 6 18 0 2 15 -1 32 -6 41 -11 58 -11 58 0 0 5 -17 12 -37 15 -81 14 -143 37 -143 51 0 8 -4 15 -10 15 -5 0 -10 -6 -10 -13z"/>
 <path d="M2602 4088 c-30 -30 1 -73 36 -51 23 14 25 29 7 47 -20 19 -27 20 -43 4z"/>
 <path d="M3667 4002 c-26 -28 -21 -69 9 -89 24 -15 29 -15 53 -2 16 9 27 25 29 43 7 55 -56 87 -91 48z m68 -36 c0 -36 -26 -56 -49 -37 -16 14 -22 52 -9 65 4 4 19 6 33 4 20 -2 25 -8 25 -32z"/>
 <path d="M270 3855 c0 -14 5 -25 10 -25 6 0 10 11 10 25 0 14 -4 25 -10 25 -5 0 -10 -11 -10 -25z"/>
 <path d="M190 3800 c0 -5 14 -10 30 -10 17 0 30 5 30 10 0 6 -13 10 -30 10 -16 0 -30 -4 -30 -10z"/>
 <path d="M320 3800 c0 -5 11 -10 25 -10 14 0 25 5 25 10 0 6 -11 10 -25 10 -14 0 -25 -4 -25 -10z"/>
 <path d="M2720 3775 c0 -14 5 -25 10 -25 6 0 10 11 10 25 0 14 -4 25 -10 25 -5 0 -10 -11 -10 -25z"/>
 <path d="M270 3745 c0 -14 5 -25 10 -25 6 0 10 11 10 25 0 14 -4 25 -10 25 -5 0 -10 -11 -10 -25z"/>
 <path d="M860 3687 c0 -31 -6 -49 -20 -62 -28 -25 -25 -32 15 -39 25 -5 39 -15 50 -36 9 -17 20 -30 25 -30 5 0 16 13 25 30 11 21 25 31 50 36 40 7 43 14 15 39 -14 13 -20 31 -20 62 0 23 -2 43 -5 43 -4 0 -19 -7 -35 -15 -27 -14 -33 -14 -60 0 -16 8 -31 15 -35 15 -3 0 -5 -20 -5 -43z m70 0 c8 0 23 3 33 8 14 6 17 2 17 -23 0 -16 7 -35 15 -42 22 -18 18 -30 -10 -30 -17 0 -29 -8 -37 -25 -6 -14 -14 -25 -18 -25 -4 0 -12 11 -18 25 -8 17 -20 25 -37 25 -28 0 -32 12 -10 30 8 7 15 26 15 42 0 25 3 29 18 23 9 -5 24 -8 32 -8z"/>
 <path d="M2640 3720 c0 -5 11 -10 25 -10 14 0 25 5 25 10 0 6 -11 10 -25 10 -14 0 -25 -4 -25 -10z"/>
 <path d="M2760 3720 c0 -5 11 -10 25 -10 14 0 25 5 25 10 0 6 -11 10 -25 10 -14 0 -25 -4 -25 -10z"/>
 <path d="M2720 3664 c0 -14 4 -23 10 -19 6 3 10 15 10 26 0 10 -4 19 -10 19 -5 0 -10 -12 -10 -26z"/>
 <path d="M3507 3684 c-23 -23 7 -69 37 -58 25 10 17 58 -9 62 -12 2 -24 0 -28 -4z"/>
 <path d="M3771 3621 c2 -30 -2 -46 -19 -64 -29 -31 -28 -35 13 -43 26 -4 40 -15 51 -35 18 -37 31 -37 52 0 11 20 27 32 49 36 38 7 41 15 12 41 -15 13 -20 28 -18 56 4 43 0 45 -42 28 -26 -11 -36 -10 -65 4 l-36 16 3 -39z m94 -3 c23 11 25 10 25 -17 0 -16 7 -34 15 -41 22 -18 18 -30 -8 -30 -15 0 -29 -9 -37 -25 -7 -14 -16 -25 -20 -25 -4 0 -12 11 -18 25 -8 18 -19 25 -38 25 -26 0 -26 1 -11 18 10 10 17 33 17 50 0 30 1 31 25 20 19 -8 31 -8 50 0z"/>
 <path d="M1564 3615 c-20 -31 -12 -68 18 -82 47 -21 97 23 79 70 -17 44 -72 50 -97 12z m76 -10 c14 -17 5 -51 -16 -59 -22 -8 -54 11 -54 32 0 38 46 56 70 27z"/>
 <path d="M1816 3528 c-14 -24 -146 -618 -146 -661 0 -13 8 -31 18 -40 17 -15 373 -97 423 -97 14 0 33 8 41 18 16 18 148 607 148 660 0 16 -8 36 -18 45 -18 16 -370 97 -423 97 -19 0 -33 -8 -43 -22z m284 -43 c166 -36 196 -49 186 -84 -3 -9 -30 -135 -61 -281 -31 -146 -63 -289 -71 -317 -14 -50 -16 -53 -47 -53 -49 1 -385 76 -402 90 -8 7 -15 22 -15 35 0 12 29 159 65 326 73 339 75 344 142 329 21 -5 112 -25 203 -45z"/>
 <path d="M1876 3455 c-34 -35 -28 -83 15 -105 39 -21 89 12 89 59 0 52 -68 82 -104 46z m72 -17 c21 -21 14 -57 -13 -70 -22 -10 -29 -9 -47 10 -19 18 -20 25 -10 47 13 27 49 34 70 13z"/>
 <path d="M2040 3443 c0 -5 -29 -143 -64 -308 -59 -271 -67 -319 -51 -303 4 3 89 389 131 591 3 16 1 27 -5 27 -6 0 -11 -3 -11 -7z"/>
 <path d="M2115 3400 c-24 -27 -22 -70 5 -92 44 -36 100 -10 100 47 0 57 -67 87 -105 45z m73 -12 c26 -26 8 -78 -27 -78 -18 0 -51 29 -51 46 0 34 54 56 78 32z"/>
 <path d="M1842 3294 c-43 -30 -15 -114 38 -114 24 0 70 42 70 63 0 24 -40 67 -64 67 -12 0 -32 -7 -44 -16z m78 -24 c15 -29 3 -59 -26 -66 -30 -8 -54 11 -54 40 0 46 59 64 80 26z"/>
 <path d="M2080 3240 c-39 -39 -11 -110 43 -110 26 0 67 38 67 62 0 27 -40 68 -66 68 -13 0 -33 -9 -44 -20z m82 -26 c14 -31 1 -57 -31 -62 -28 -4 -51 14 -51 42 0 50 62 65 82 20z"/>
 <path d="M1801 3124 c-27 -34 -26 -50 4 -79 29 -30 58 -32 85 -5 39 39 11 110 -44 110 -15 0 -33 -11 -45 -26z m77 -6 c17 -17 15 -53 -3 -68 -20 -17 -62 -5 -70 20 -14 44 41 80 73 48z"/>
 <path d="M2052 3084 c-28 -19 -30 -74 -4 -97 42 -38 102 -8 102 51 0 32 -29 62 -60 62 -9 0 -26 -7 -38 -16z m75 -30 c12 -19 11 -24 -5 -44 -14 -18 -25 -21 -44 -17 -34 9 -42 34 -23 64 19 29 51 28 72 -3z"/>
 <path d="M1770 2970 c-39 -39 -11 -110 44 -110 25 0 66 41 66 65 0 7 -9 24 -21 39 -25 31 -61 34 -89 6z m74 -16 c19 -18 20 -28 6 -55 -20 -37 -80 -18 -80 26 0 42 44 59 74 29z"/>
 <path d="M2016 2919 c-15 -12 -26 -30 -26 -45 0 -31 33 -64 65 -64 30 0 65 32 65 60 0 24 -42 70 -63 70 -8 0 -26 -9 -41 -21z m68 -15 c30 -30 13 -74 -29 -74 -42 0 -59 44 -29 74 8 9 22 16 29 16 7 0 21 -7 29 -16z"/>
 <path d="M965 3195 l-310 -304 75 -75 75 -75 310 304 310 304 -75 75 -75 75 -310 -304z m378 216 l56 -58 -242 -240 c-133 -132 -268 -264 -300 -293 l-58 -54 -62 63 -61 63 24 18 c24 18 25 18 47 -2 26 -24 32 -8 7 17 -15 15 -15 18 7 41 l23 24 33 -32 c43 -41 56 -28 15 15 l-32 33 25 24 c23 22 26 22 43 7 28 -25 39 -20 14 6 l-22 23 25 24 c24 23 25 23 45 5 26 -24 39 -11 15 15 -18 20 -18 21 3 42 21 21 22 21 42 3 26 -24 39 -11 15 15 -18 20 -18 21 5 45 l24 25 38 -37 c46 -45 51 -33 6 14 l-32 33 24 25 24 25 23 -22 c30 -28 43 -15 15 15 l-22 23 23 22 23 22 22 -22 c27 -27 42 -16 17 12 -18 20 -18 21 5 45 l24 25 23 -22 c26 -25 32 -14 6 14 -15 17 -15 19 2 38 10 11 21 20 25 20 4 0 32 -26 63 -59z"/>
 <path d="M3342 3467 c-17 -18 -19 -26 -10 -35 9 -9 7 -16 -6 -31 -17 -19 -20 -19 -42 -4 -13 8 -35 13 -48 11 -25 -5 -494 -347 -495 -361 -1 -8 276 -300 288 -304 9 -3 372 448 382 473 4 14 2 32 -7 50 -14 25 -13 29 6 48 17 17 22 18 29 7 7 -11 13 -10 35 5 14 11 25 24 26 29 0 15 -110 135 -124 135 -7 0 -22 -10 -34 -23z m43 -36 c-14 -14 -17 -14 -25 -1 -13 21 8 44 27 28 12 -10 12 -14 -2 -27z m51 -40 c-9 -14 -33 -14 -41 -1 -4 6 -1 18 6 26 11 13 14 13 27 0 8 -8 11 -19 8 -25z m-46 -16 l24 -25 -22 -22 -22 -22 -27 26 c-26 27 -26 28 -8 48 23 26 27 25 55 -5z m-56 -55 c36 -39 66 -77 66 -84 0 -8 -11 -28 -25 -44 l-25 -29 -90 91 -90 91 27 22 c45 36 64 30 137 -47z m135 24 c-14 -14 -17 -14 -29 0 -10 13 -10 19 0 32 12 14 15 14 29 0 14 -15 14 -17 0 -32z m-217 -109 l86 -90 -65 -80 c-36 -44 -68 -80 -72 -81 -3 -1 -55 49 -114 111 l-109 112 84 61 c46 34 88 60 93 59 6 -1 49 -43 97 -92z m-170 -159 l107 -114 -57 -71 -57 -70 -88 87 c-49 48 -106 108 -128 133 l-39 47 67 51 c38 28 73 51 78 51 6 0 58 -51 117 -114z m-149 -139 c117 -124 124 -134 110 -152 -14 -19 -21 -13 -147 120 -117 122 -131 141 -117 152 9 7 19 13 22 13 4 0 63 -60 132 -133z"/>
 <path d="M300 3458 c-41 -34 -162 -86 -234 -100 -36 -7 -66 -16 -66 -20 0 -28 176 24 265 77 67 41 72 43 77 33 1 -4 -55 -59 -126 -122 l-129 -115 -43 6 c-27 3 -44 2 -44 -4 0 -6 11 -10 25 -10 30 0 65 -29 65 -52 0 -31 -30 -61 -61 -61 -16 0 -29 -4 -29 -10 0 -17 57 -11 81 9 20 16 24 28 22 64 l-1 45 128 116 c71 64 132 116 135 116 14 0 2 -26 -31 -63 -56 -66 -113 -191 -132 -290 -16 -84 -17 -87 -43 -87 -39 0 -159 -39 -159 -51 0 -6 7 -8 15 -5 28 10 119 34 155 40 l36 6 11 75 c16 101 62 205 126 291 l53 71 -26 31 c-31 37 -37 38 -70 10z"/>
 <path d="M581 3456 c-9 -11 -10 -20 -1 -35 19 -36 64 -20 58 20 -4 28 -39 37 -57 15z"/>
 <path d="M2406 3421 c-3 -5 -33 -118 -65 -252 -40 -166 -64 -245 -75 -251 -27 -15 -49 -68 -43 -105 6 -38 47 -123 58 -123 4 0 11 10 15 23 3 12 25 42 47 66 38 42 39 45 33 96 -4 40 5 110 39 294 25 133 43 246 40 251 -8 13 -42 13 -49 1z m34 -17 c0 -7 -64 -350 -81 -432 -9 -46 -14 -53 -32 -50 -16 2 -21 9 -19 23 3 20 100 428 107 453 4 12 25 17 25 6z m-106 -504 c21 -8 26 -16 26 -44 0 -27 -9 -44 -44 -79 l-43 -45 -17 34 c-19 41 -20 77 -5 107 20 38 39 44 83 27z"/>
 <path d="M4021 3265 c-14 -46 -41 -100 -72 -144 -52 -74 -70 -92 -77 -73 -6 20 -25 13 -66 -23 l-38 -34 107 -121 c60 -66 111 -120 114 -120 3 0 23 16 44 36 32 30 36 38 26 51 -11 12 -9 18 11 34 14 10 40 26 58 36 31 17 42 33 23 33 -5 0 -33 -16 -62 -36 l-54 -36 -71 78 -72 78 44 49 c48 54 98 150 109 210 7 37 8 37 56 37 26 0 51 5 54 10 4 6 -16 10 -52 10 l-58 0 -24 -75z m-43 -363 l72 -80 -26 -21 c-15 -12 -30 -21 -34 -21 -6 0 -104 105 -175 189 l-20 23 30 25 29 26 26 -30 c14 -17 58 -67 98 -111z"/>
 <path d="M2667 3313 c-16 -15 -6 -52 15 -59 28 -9 52 20 37 47 -10 19 -39 25 -52 12z"/>
 <path d="M4132 3195 c-12 -15 -22 -38 -22 -50 0 -26 35 -74 46 -63 4 5 0 16 -9 26 -21 23 -22 56 -1 76 8 9 14 21 12 28 -2 6 -14 -1 -26 -17z"/>
 <path d="M1487 3133 c-13 -12 -7 -51 8 -57 34 -13 66 24 44 50 -12 15 -41 19 -52 7z"/>
 <path d="M406 3044 c-34 -34 -9 -94 39 -94 13 0 31 7 39 16 19 18 21 65 4 82 -17 17 -64 15 -82 -4z m74 -24 c13 -25 -10 -53 -41 -48 -30 4 -39 46 -14 64 20 15 42 8 55 -16z"/>
 <path d="M3432 2875 c0 -16 2 -22 5 -12 2 9 2 23 0 30 -3 6 -5 -1 -5 -18z"/>
 <path d="M1320 2855 c0 -14 5 -25 10 -25 6 0 10 11 10 25 0 14 -4 25 -10 25 -5 0 -10 -11 -10 -25z"/>
 <path d="M3350 2820 c0 -5 11 -10 25 -10 14 0 25 5 25 10 0 6 -11 10 -25 10 -14 0 -25 -4 -25 -10z"/>
 <path d="M3470 2820 c0 -5 11 -10 25 -10 14 0 25 5 25 10 0 6 -11 10 -25 10 -14 0 -25 -4 -25 -10z"/>
 <path d="M1250 2800 c0 -5 11 -10 25 -10 14 0 25 5 25 10 0 6 -11 10 -25 10 -14 0 -25 -4 -25 -10z"/>
 <path d="M1370 2800 c0 -5 11 -10 25 -10 14 0 25 5 25 10 0 6 -11 10 -25 10 -14 0 -25 -4 -25 -10z"/>
 <path d="M3432 2765 c0 -16 2 -22 5 -12 2 9 2 23 0 30 -3 6 -5 -1 -5 -18z"/>
 <path d="M1320 2751 c0 -11 5 -23 10 -26 6 -4 10 5 10 19 0 14 -4 26 -10 26 -5 0 -10 -9 -10 -19z"/>
 <path d="M1524 2657 c-22 -19 -26 -29 -20 -51 3 -15 18 -32 31 -38 34 -15 72 3 81 38 6 22 2 32 -20 51 -15 13 -31 23 -36 23 -5 0 -21 -10 -36 -23z m60 -10 c21 -16 18 -45 -6 -61 -38 -23 -78 35 -42 61 10 7 21 13 24 13 3 0 14 -6 24 -13z"/>
 <path d="M3697 2643 c-12 -11 -8 -40 7 -52 26 -22 63 10 50 44 -6 15 -45 21 -57 8z"/>
 <path d="M151 2590 c2 -29 -2 -45 -19 -63 -29 -31 -28 -35 13 -43 26 -4 40 -15 51 -35 18 -37 28 -36 50 0 12 20 28 31 51 36 38 7 41 15 12 41 -15 13 -20 28 -18 56 4 42 0 45 -40 28 -23 -9 -36 -8 -65 4 l-38 16 3 -40z m94 -2 c23 11 25 10 25 -17 0 -16 7 -34 15 -41 22 -18 18 -30 -10 -30 -17 0 -29 -8 -37 -25 -6 -14 -14 -25 -18 -25 -4 0 -12 11 -18 25 -8 17 -20 25 -37 25 -28 0 -32 12 -10 30 8 7 15 25 15 41 0 27 2 28 25 17 19 -8 31 -8 50 0z"/>
 <path d="M2716 2572 c5 -30 2 -41 -15 -56 -30 -27 -26 -43 12 -50 21 -4 38 -16 49 -36 17 -29 38 -40 38 -20 0 21 49 60 75 60 31 0 32 10 1 39 -20 19 -23 29 -19 62 6 44 4 45 -37 24 -25 -13 -32 -13 -64 0 -47 20 -47 20 -40 -23z m69 -5 c11 0 29 3 39 8 16 7 18 5 14 -18 -3 -18 1 -32 13 -43 26 -23 24 -34 -5 -34 -15 0 -32 -10 -43 -26 l-19 -25 -14 25 c-8 17 -22 26 -37 26 -27 0 -30 12 -7 31 10 8 14 23 12 41 -4 23 -2 28 11 22 9 -4 25 -7 36 -7z"/>
 <path d="M924 2586 c-10 -26 4 -48 28 -44 17 2 23 10 23 28 0 18 -6 26 -23 28 -13 2 -25 -3 -28 -12z"/>
 <path d="M3950 2518 c0 -6 18 -67 41 -136 22 -68 38 -126 36 -129 -3 -2 -58 30 -123 72 -127 81 -143 83 -123 13 15 -57 41 -82 174 -165 136 -86 150 -103 138 -177 -4 -30 -16 -51 -43 -76 -53 -49 -69 -105 -46 -165 10 -25 31 -54 47 -66 34 -24 109 -38 109 -20 0 6 -12 11 -27 11 -42 0 -92 36 -109 77 -23 54 -11 99 42 150 45 45 51 65 46 146 -2 25 0 27 17 17 23 -12 31 -13 31 -2 0 4 -22 18 -50 31 -52 25 -58 35 -36 64 17 22 25 21 56 -4 15 -13 18 -19 8 -16 -21 7 -40 -14 -28 -32 13 -22 38 -5 45 32 8 39 -64 283 -96 328 -28 40 -109 75 -109 47z m75 -41 c32 -32 39 -49 111 -281 6 -17 3 -17 -35 5 -40 22 -42 26 -82 153 -23 71 -43 135 -46 143 -9 24 19 13 52 -20z m-90 -193 c74 -47 135 -90 135 -94 0 -4 -8 -17 -17 -28 -18 -20 -19 -20 -122 48 -57 37 -110 79 -116 91 -16 32 -28 69 -21 69 3 0 66 -39 141 -86z"/>
 <path d="M580 2495 c-7 -8 -12 -26 -12 -40 0 -34 19 -55 52 -55 31 0 60 27 60 57 0 44 -72 71 -100 38z m75 -40 c0 -26 -3 -30 -29 -30 -36 0 -56 26 -36 50 8 9 24 15 39 13 22 -2 26 -8 26 -33z"/>
 <path d="M2282 2468 c-7 -7 -12 -26 -12 -43 0 -38 16 -55 51 -55 52 0 79 59 43 94 -18 19 -65 21 -82 4z m73 -43 c0 -24 -5 -31 -24 -33 -32 -5 -54 23 -40 50 7 13 19 18 37 16 23 -2 27 -8 27 -33z"/>
 <path d="M3345 2448 c-75 -26 -123 -89 -140 -179 -6 -33 -15 -42 -97 -90 -150 -89 -388 -331 -388 -395 0 -14 6 -27 14 -30 56 -21 346 193 460 340 33 42 67 76 76 76 9 0 40 7 68 15 74 22 117 68 133 142 7 32 20 72 31 89 10 17 18 34 18 38 0 10 -142 5 -175 -6z m140 -15 c-5 -10 -15 -45 -23 -78 -25 -99 -78 -150 -171 -162 -28 -4 -40 0 -55 16 -17 19 -18 26 -7 76 24 105 101 159 235 164 23 1 27 -2 21 -16z m-261 -239 c7 -17 -21 -69 -52 -97 -17 -15 -19 -14 -46 19 -15 20 -26 37 -24 38 18 14 96 56 104 56 7 0 15 -7 18 -16z m-84 -130 c0 -16 -96 -104 -194 -176 -179 -133 -251 -151 -177 -45 32 46 215 228 271 270 l35 26 32 -31 c18 -18 33 -37 33 -44z"/>
 <path d="M1690 2444 c0 -4 21 -64 46 -135 l46 -128 248 -236 c179 -169 255 -235 272 -235 16 0 45 22 89 68 70 71 80 87 70 113 -3 8 -98 102 -211 209 -113 106 -223 211 -246 232 -34 33 -60 45 -170 78 -137 42 -144 44 -144 34z m103 -41 c9 -5 -30 -63 -43 -63 -4 0 -11 11 -14 24 -3 13 -9 32 -12 41 -6 15 -2 16 27 10 19 -4 37 -9 42 -12z m95 -28 c29 -9 52 -19 52 -23 0 -4 -8 -29 -17 -56 -16 -44 -23 -51 -72 -72 -30 -13 -55 -23 -56 -22 -8 13 -35 92 -35 105 0 16 57 83 70 83 4 0 30 -7 58 -15z m281 -222 c108 -104 197 -193 199 -198 1 -6 -12 -25 -30 -42 l-33 -32 -190 179 c-111 105 -189 185 -187 194 4 25 32 86 38 86 3 0 95 -84 203 -187z m-26 -145 l147 -143 -35 -37 -34 -37 -207 196 -207 197 49 21 49 22 45 -38 c25 -21 111 -103 193 -181z m279 -95 c15 -15 28 -31 28 -36 0 -10 -116 -137 -136 -150 -8 -5 -25 3 -46 21 l-32 29 75 81 c40 45 76 82 78 82 3 0 18 -12 33 -27z"/>
 <path d="M1421 2416 c-6 -7 -39 -16 -74 -18 -35 -3 -79 -13 -98 -22 -19 -9 -123 -91 -232 -182 -192 -160 -199 -165 -218 -148 -10 9 -19 20 -19 24 0 3 39 38 88 77 48 39 99 83 113 97 28 28 45 84 31 98 -5 5 -12 -7 -15 -30 -6 -34 -19 -49 -117 -131 -114 -95 -127 -116 -95 -151 14 -16 12 -20 -20 -44 -25 -19 -35 -35 -35 -54 0 -21 -12 -37 -49 -67 -30 -23 -47 -43 -43 -50 13 -22 61 -75 67 -75 4 0 28 18 54 39 34 29 53 38 71 34 21 -4 63 27 245 177 121 100 235 196 253 214 40 37 67 86 77 141 3 21 15 45 26 53 20 14 26 32 10 32 -5 0 -14 -6 -20 -14z m-36 -73 c-8 -44 -48 -118 -72 -131 -23 -13 -123 105 -102 120 39 27 99 48 138 48 l43 0 -7 -37z m-141 -107 c33 -40 37 -49 25 -60 -8 -7 -81 -69 -164 -136 -82 -68 -157 -129 -165 -136 -13 -11 -23 -4 -64 47 -28 35 -45 64 -40 69 5 5 86 72 179 149 129 106 172 137 180 128 6 -7 28 -35 49 -61z m-361 -381 c-15 -13 -35 -25 -43 -25 -19 0 -90 82 -90 104 0 8 14 26 31 40 l30 26 50 -60 50 -60 -28 -25z m-113 10 c23 -24 23 -25 4 -46 -10 -12 -31 -29 -45 -40 -26 -18 -26 -18 -48 12 l-23 30 39 34 c21 19 41 34 44 35 3 0 16 -11 29 -25z"/>
 <path d="M224 2169 c-17 -5 -39 -18 -49 -29 -28 -31 -116 -24 -154 12 -16 14 -21 15 -21 5 0 -22 43 -45 97 -53 44 -5 54 -3 98 25 27 17 60 31 75 31 62 0 130 -68 130 -130 0 -61 -68 -130 -128 -130 -57 0 -113 45 -127 103 -10 37 -34 54 -92 65 l-53 9 0 -60 c0 -60 1 -61 49 -106 58 -54 71 -97 47 -154 -13 -31 -53 -67 -91 -81 -6 -2 -7 -7 -3 -10 3 -4 22 0 42 9 39 19 70 62 81 112 9 46 -24 117 -69 143 -41 25 -49 41 -40 86 5 27 11 34 29 34 48 0 74 -18 85 -59 20 -76 115 -128 185 -101 135 51 131 241 -6 280 -39 11 -43 11 -85 -1z"/>
 <path d="M213 2088 c-30 -34 -34 -55 -19 -92 28 -67 124 -67 152 -1 16 39 3 89 -26 105 -33 18 -85 12 -107 -12z m110 -20 c9 -11 17 -29 17 -40 0 -25 -44 -68 -70 -68 -21 0 -70 41 -70 59 0 26 22 62 42 71 30 11 59 3 81 -22z"/>
 <path d="M3610 2055 c0 -14 5 -25 10 -25 6 0 10 11 10 25 0 14 -4 25 -10 25 -5 0 -10 -11 -10 -25z"/>
 <path d="M2591 2017 c-18 -23 -2 -49 28 -45 20 2 26 8 26 28 0 29 -34 40 -54 17z"/>
 <path d="M3535 2000 c-4 -6 7 -10 24 -10 17 0 31 5 31 10 0 6 -11 10 -24 10 -14 0 -28 -4 -31 -10z"/>
 <path d="M3660 2000 c0 -5 11 -10 25 -10 14 0 25 5 25 10 0 6 -11 10 -25 10 -14 0 -25 -4 -25 -10z"/>
 <path d="M4151 1984 c0 -11 3 -14 6 -6 3 7 2 16 -1 19 -3 4 -6 -2 -5 -13z"/>
 <path d="M1586 1956 c5 -28 1 -41 -20 -69 l-27 -35 40 -7 c31 -5 42 -13 51 -36 16 -37 31 -37 53 1 12 20 28 31 52 36 42 7 43 13 10 44 -21 20 -24 29 -19 62 7 43 5 44 -38 22 -29 -15 -34 -15 -65 0 -45 21 -45 21 -37 -18z m69 -9 c11 0 29 3 39 8 17 7 18 5 13 -21 -4 -21 0 -35 16 -51 l20 -23 -23 0 c-14 0 -33 -11 -46 -27 l-22 -28 -13 28 c-8 18 -20 27 -36 27 -27 0 -30 12 -7 31 10 8 14 23 12 41 -4 23 -2 28 11 22 9 -4 25 -7 36 -7z"/>
 <path d="M3610 1945 c0 -14 5 -25 10 -25 6 0 10 11 10 25 0 14 -4 25 -10 25 -5 0 -10 -11 -10 -25z"/>
 <path d="M0 1880 c0 -6 6 -13 14 -16 8 -3 19 -18 26 -34 12 -30 5 -55 -24 -80 -23 -18 -20 -33 4 -20 40 21 56 93 29 126 -18 22 -49 37 -49 24z"/>
 <path d="M4084 1866 c-39 -33 -39 -89 0 -122 15 -13 38 -24 52 -24 32 0 31 18 -3 22 -34 4 -67 48 -58 77 10 31 33 51 61 51 13 0 24 5 24 10 0 19 -49 10 -76 -14z"/>
 <path d="M1137 1752 c-21 -23 -21 -41 -1 -70 22 -32 73 -27 93 9 13 24 13 29 -2 53 -21 31 -66 35 -90 8z m74 -18 c17 -21 0 -48 -33 -52 -28 -3 -42 18 -33 49 8 23 48 25 66 3z"/>
 <path d="M3177 1752 c-35 -38 -10 -92 42 -92 34 0 51 17 51 51 0 53 -59 79 -93 41z m73 -22 c15 -28 -22 -65 -50 -50 -19 10 -27 49 -13 63 14 14 53 6 63 -13z"/>
 <path d="M3653 1641 c4 -33 1 -43 -19 -62 -32 -30 -30 -37 11 -45 26 -4 40 -15 51 -35 19 -37 38 -37 54 0 9 23 20 31 51 36 l39 7 -26 31 c-20 24 -25 38 -21 63 7 42 1 47 -36 28 -28 -15 -33 -15 -64 0 -46 22 -46 21 -40 -23z m96 -2 c27 15 28 15 23 -17 -2 -18 2 -33 12 -41 22 -18 20 -31 -4 -31 -12 0 -28 -13 -39 -31 l-19 -31 -16 31 c-12 23 -23 31 -43 31 -26 0 -26 0 -7 21 10 12 17 32 16 49 -2 28 -1 29 27 19 21 -7 36 -7 50 0z"/>
 <path d="M830 1645 c-18 -21 -8 -50 19 -53 37 -6 52 26 25 52 -19 20 -28 20 -44 1z"/>
 <path d="M1970 1621 c-32 -61 37 -123 84 -75 19 18 21 65 4 82 -20 20 -76 15 -88 -7z m74 -13 c21 -30 4 -60 -32 -56 -34 4 -44 45 -16 65 24 18 30 17 48 -9z"/>
 <path d="M2547 1533 c-11 -10 -8 -43 3 -43 6 0 10 11 10 25 0 26 -2 29 -13 18z"/>
 <path d="M164 1427 c-89 -49 -117 -70 -138 -103 -14 -23 -26 -50 -26 -60 0 -13 9 -5 26 24 14 23 27 42 30 42 2 0 9 -11 14 -25 8 -22 4 -36 -31 -90 -22 -36 -39 -70 -37 -77 2 -6 24 20 47 58 24 38 45 70 46 71 1 2 15 6 32 9 27 5 31 3 36 -23 4 -23 -10 -51 -79 -160 -46 -72 -84 -139 -84 -149 0 -10 40 45 89 122 63 99 96 142 114 148 15 6 29 7 32 4 3 -3 -49 -92 -115 -197 -67 -105 -120 -196 -118 -202 6 -18 259 387 268 429 12 58 23 242 13 242 -4 0 -58 -28 -119 -63z m106 -6 c0 -51 -11 -57 -54 -29 l-34 22 36 23 c21 12 40 23 45 23 4 0 7 -18 7 -39z m-56 -48 c44 -27 45 -29 46 -80 0 -29 -4 -53 -9 -53 -5 0 -23 -3 -40 -6 -28 -6 -31 -4 -31 17 0 40 -13 51 -51 44 -32 -6 -35 -4 -47 27 -7 18 -9 34 -5 36 5 1 22 11 38 21 40 26 46 26 99 -6z"/>
 <path d="M2470 1460 c0 -5 11 -10 25 -10 14 0 25 5 25 10 0 6 -11 10 -25 10 -14 0 -25 -4 -25 -10z"/>
 <path d="M2590 1460 c0 -5 11 -10 25 -10 14 0 25 5 25 10 0 6 -11 10 -25 10 -14 0 -25 -4 -25 -10z"/>
 <path d="M456 1424 c-19 -18 -21 -65 -4 -82 20 -20 76 -15 88 7 32 61 -37 123 -84 75z m72 -36 c5 -39 -30 -56 -58 -28 -28 28 -11 63 28 58 21 -2 28 -9 30 -30z"/>
 <path d="M3103 1421 l-203 -16 -30 -31 -31 -31 20 -269 c12 -148 23 -293 27 -321 l5 -53 57 0 57 -1 -24 -19 c-35 -30 -95 -9 -122 41 -5 10 -16 111 -24 226 -16 207 -32 316 -34 228 -2 -74 30 -430 41 -458 6 -15 22 -37 36 -47 31 -25 69 -25 336 -4 222 18 236 22 236 81 0 27 -6 37 -28 50 l-28 16 -23 306 c-13 168 -25 309 -28 314 -2 4 -12 6 -21 6 -9 -1 -108 -9 -219 -18z m227 -18 c1 -10 11 -146 24 -303 13 -157 21 -287 19 -289 -7 -9 -403 -35 -410 -27 -7 6 -56 596 -51 601 3 2 322 29 396 34 15 1 22 -5 22 -16z m-411 -358 c19 -267 20 -281 3 -298 -17 -16 -19 -3 -40 284 -19 244 -21 304 -10 316 11 13 13 13 19 -3 4 -11 17 -145 28 -299z m505 -274 c20 -22 14 -56 -11 -65 -14 -6 -348 -36 -391 -36 -10 0 -12 7 -9 21 3 12 2 32 -3 45 -8 21 -7 24 13 25 12 0 87 6 167 13 209 19 214 19 234 -3z m-434 -41 c0 -6 -14 -10 -30 -10 -28 0 -30 2 -20 20 9 16 15 18 30 10 11 -6 20 -15 20 -20z"/>
 <path d="M3310 880 c0 -5 7 -10 15 -10 8 0 15 5 15 10 0 6 -7 10 -15 10 -8 0 -15 -4 -15 -10z"/>
 <path d="M3200 870 c0 -5 7 -10 15 -10 8 0 15 5 15 10 0 6 -7 10 -15 10 -8 0 -15 -4 -15 -10z"/>
 <path d="M3260 870 c0 -5 5 -10 10 -10 6 0 10 5 10 10 0 6 -4 10 -10 10 -5 0 -10 -4 -10 -10z"/>
 <path d="M3045 860 c-3 -5 1 -10 10 -10 9 0 13 5 10 10 -3 6 -8 10 -10 10 -2 0 -7 -4 -10 -10z"/>
 <path d="M3090 860 c0 -5 7 -10 15 -10 8 0 15 5 15 10 0 6 -7 10 -15 10 -8 0 -15 -4 -15 -10z"/>
 <path d="M3150 860 c0 -5 5 -10 10 -10 6 0 10 5 10 10 0 6 -4 10 -10 10 -5 0 -10 -4 -10 -10z"/>
 <path d="M2980 850 c0 -5 7 -10 15 -10 8 0 15 5 15 10 0 6 -7 10 -15 10 -8 0 -15 -4 -15 -10z"/>
 <path d="M2540 1405 c0 -14 5 -25 10 -25 6 0 10 11 10 25 0 14 -4 25 -10 25 -5 0 -10 -11 -10 -25z"/>
 <path d="M1457 1396 c-11 -28 4 -47 32 -44 20 2 26 8 26 28 0 20 -6 26 -26 28 -17 2 -29 -3 -32 -12z"/>
 <path d="M923 1375 c-118 -32 -200 -91 -240 -173 -51 -103 -34 -237 42 -337 38 -49 135 -111 214 -135 75 -24 232 -28 303 -9 98 26 169 79 193 144 34 87 -5 158 -110 206 -76 34 -89 49 -81 91 19 89 18 112 -6 148 -36 54 -97 80 -188 79 -41 0 -99 -7 -127 -14z m247 -25 c66 -34 78 -74 55 -186 -10 -48 9 -72 83 -105 81 -37 98 -51 113 -96 56 -171 -221 -294 -483 -213 -155 48 -253 158 -265 299 -13 141 65 243 226 298 89 30 215 32 271 3z"/>
 <path d="M1005 1323 c-53 -13 -73 -74 -35 -108 28 -26 103 -32 135 -11 66 44 -14 138 -100 119z m70 -27 c26 -11 35 -21 35 -38 0 -35 -19 -48 -66 -48 -34 0 -47 5 -63 26 -23 29 -19 47 12 62 30 15 42 14 82 -2z"/>
 <path d="M757 1162 c-37 -41 -11 -102 43 -102 16 0 36 7 44 16 20 20 20 68 0 88 -21 22 -67 20 -87 -2z m62 -2 c36 -19 36 -61 0 -81 -46 -24 -86 54 -41 80 21 13 20 13 41 1z"/>
 <path d="M824 964 c-44 -43 -12 -108 51 -102 59 6 74 92 20 116 -36 17 -43 15 -71 -14z m67 -4 c37 -20 18 -80 -26 -80 -42 0 -59 44 -29 74 18 19 28 20 55 6z"/>
 <path d="M1233 938 c-19 -25 -23 -50 -11 -71 15 -29 27 -37 59 -37 50 0 79 69 43 104 -18 19 -78 21 -91 4z m71 -11 c25 -18 18 -67 -12 -78 -17 -6 -27 -4 -42 11 -25 25 -25 35 0 60 24 24 30 24 54 7z"/>
 <path d="M1017 892 c-37 -41 -7 -104 50 -104 55 0 80 75 36 110 -24 18 -67 15 -86 -6z m81 -14 c18 -18 15 -43 -8 -63 -17 -15 -24 -16 -45 -7 -43 20 -28 82 20 82 12 0 26 -5 33 -12z"/>
 <path d="M3920 1366 c-27 -33 18 -72 48 -42 13 13 14 20 6 34 -15 23 -38 26 -54 8z"/>
 <path d="M1829 1345 c-52 -17 -115 -73 -135 -121 -19 -44 -18 -138 1 -178 22 -47 71 -90 235 -206 145 -104 183 -120 203 -88 16 24 4 35 -180 165 -90 63 -171 126 -180 139 -24 38 -27 103 -6 144 40 77 143 105 214 57 114 -78 409 -290 418 -301 7 -8 15 -30 18 -50 5 -30 1 -40 -25 -66 -51 -51 -68 -45 -265 96 -174 123 -201 152 -161 168 19 7 14 10 151 -86 98 -69 115 -78 133 -68 42 23 21 51 -109 142 -103 74 -130 88 -161 88 -45 0 -94 -36 -104 -76 -16 -62 4 -84 201 -224 109 -78 201 -136 222 -141 99 -23 191 54 191 160 0 82 -21 104 -254 270 -119 84 -229 159 -245 167 -43 21 -111 25 -162 9z m152 -28 c76 -36 450 -308 471 -341 30 -48 21 -136 -17 -176 -42 -43 -94 -57 -143 -38 -56 22 -382 256 -394 283 -24 53 19 115 78 115 29 0 60 -16 155 -82 65 -46 119 -88 119 -95 0 -30 -26 -19 -122 50 -139 100 -144 102 -174 82 -14 -9 -24 -25 -24 -39 0 -19 32 -46 167 -142 205 -146 207 -148 251 -141 66 11 104 76 82 142 -10 30 -42 57 -218 182 -114 81 -223 155 -242 165 -76 40 -178 6 -217 -72 -28 -55 -29 -92 -3 -146 17 -35 49 -62 195 -165 161 -114 199 -149 160 -149 -25 0 -356 241 -376 274 -54 88 -45 181 25 251 66 66 147 81 227 42z"/>
 <path d="M4034 1084 c-79 -124 -127 -190 -140 -192 -27 -5 -45 -31 -38 -58 3 -12 -1 -33 -11 -47 l-16 -25 68 -44 c107 -69 140 -88 150 -88 5 0 16 11 23 25 7 14 21 25 30 25 24 0 42 24 39 52 -2 13 2 33 9 45 7 12 12 30 12 40 0 13 -6 8 -20 -14 -21 -36 -21 -36 -44 -27 -23 9 -21 17 25 89 22 36 39 70 37 77 -2 6 -26 -23 -52 -65 -51 -81 -51 -81 -100 -44 -19 14 -16 20 67 150 48 75 87 144 87 154 0 9 -42 -49 -92 -130 -51 -80 -96 -147 -99 -147 -3 0 -13 6 -22 13 -15 11 -5 30 99 194 64 101 114 188 112 194 -2 7 -58 -73 -124 -177z m-6 -287 c63 -40 92 -65 92 -78 0 -11 -7 -19 -16 -19 -17 0 -220 125 -230 142 -3 5 0 15 6 23 14 17 16 16 148 -68z m29 -101 c9 -9 9 -15 -2 -30 -13 -17 -19 -15 -104 39 -50 32 -91 60 -91 62 0 2 5 13 10 23 10 18 16 16 93 -32 45 -28 87 -56 94 -62z"/>
 <path d="M3610 1105 c0 -14 5 -25 10 -25 6 0 10 11 10 25 0 14 -4 25 -10 25 -5 0 -10 -11 -10 -25z"/>
 <path d="M365 1046 c-27 -20 -15 -51 20 -51 23 0 31 5 33 22 4 29 -28 47 -53 29z"/>
 <path d="M3530 1050 c0 -5 11 -10 25 -10 14 0 25 5 25 10 0 6 -11 10 -25 10 -14 0 -25 -4 -25 -10z"/>
 <path d="M3650 1050 c0 -5 14 -10 30 -10 17 0 30 5 30 10 0 6 -13 10 -30 10 -16 0 -30 -4 -30 -10z"/>
 <path d="M3610 995 c0 -14 5 -25 10 -25 6 0 10 11 10 25 0 14 -4 25 -10 25 -5 0 -10 -11 -10 -25z"/>
 <path d="M210 717 c0 -31 -6 -49 -20 -62 -27 -24 -25 -35 5 -35 25 0 52 -21 74 -56 11 -18 12 -18 24 0 24 38 47 56 72 56 31 0 32 20 4 46 -16 14 -20 28 -17 56 4 42 0 45 -42 23 -27 -14 -33 -14 -60 0 -16 8 -31 15 -35 15 -3 0 -5 -20 -5 -43z m70 0 c8 0 23 3 33 8 14 6 17 2 17 -23 0 -16 7 -35 15 -42 18 -15 10 -30 -16 -30 -11 0 -24 -11 -31 -25 -14 -30 -24 -32 -33 -4 -4 11 -20 25 -36 31 -28 9 -29 12 -15 27 9 10 16 30 16 45 0 23 3 27 18 21 9 -5 24 -8 32 -8z"/>
 <path d="M1754 695 c-18 -19 -23 -31 -19 -48 15 -50 74 -63 101 -22 21 32 12 68 -21 83 -34 16 -32 16 -61 -13z m60 -8 c36 -26 -4 -84 -41 -61 -24 15 -27 38 -8 58 20 19 26 20 49 3z"/>
 <path d="M2561 616 c-17 -20 -4 -56 18 -56 28 0 47 28 34 48 -14 23 -37 26 -52 8z"/>
 <path d="M650 545 c0 -14 5 -25 10 -25 6 0 10 11 10 25 0 14 -4 25 -10 25 -5 0 -10 -11 -10 -25z"/>
 <path d="M1310 545 c-18 -22 -8 -50 19 -50 32 0 49 28 32 49 -17 20 -35 20 -51 1z"/>
 <path d="M575 490 c3 -5 17 -10 31 -10 13 0 24 5 24 10 0 6 -14 10 -31 10 -17 0 -28 -4 -24 -10z"/>
 <path d="M700 490 c0 -5 11 -10 25 -10 14 0 25 5 25 10 0 6 -11 10 -25 10 -14 0 -25 -4 -25 -10z"/>
 <path d="M3177 483 c-12 -11 -8 -40 7 -52 28 -23 68 17 45 45 -12 15 -41 19 -52 7z"/>
 <path d="M650 435 c0 -14 5 -25 10 -25 6 0 10 11 10 25 0 14 -4 25 -10 25 -5 0 -10 -11 -10 -25z"/>
 <path d="M2800 416 c0 -45 52 -149 119 -239 41 -54 72 -99 70 -101 -2 -1 -26 -19 -53 -39 -27 -20 -42 -37 -34 -37 8 0 84 52 168 115 84 63 157 115 162 115 12 0 10 -98 -3 -123 -6 -12 -20 -32 -31 -44 -16 -17 -18 -25 -9 -42 7 -12 16 -21 21 -21 13 0 13 17 -1 25 -7 5 -5 13 5 24 41 46 60 157 33 195 -11 15 -19 12 -86 -39 -41 -30 -78 -55 -82 -55 -4 0 -40 44 -80 99 -41 54 -90 109 -109 122 -91 62 -90 62 -90 45z m185 -179 c71 -95 74 -102 58 -119 -9 -10 -22 -18 -28 -18 -31 0 -185 235 -185 281 0 27 89 -57 155 -144z"/>
 <path d="M1876 374 c-3 -16 -10 -81 -16 -144 -6 -63 -13 -127 -16 -142 -4 -21 -2 -28 10 -28 19 0 19 -1 6 -34 -6 -17 -6 -26 0 -26 6 0 15 11 20 25 6 16 17 25 31 25 18 0 20 -4 15 -25 -4 -14 -2 -25 3 -25 5 0 12 11 15 24 4 18 11 23 26 19 11 -3 20 -14 20 -24 0 -11 5 -19 10 -19 6 0 10 10 10 21 0 19 4 21 31 15 17 -3 38 -6 45 -6 8 0 14 -7 14 -15 0 -8 5 -15 10 -15 6 0 10 7 10 15 0 20 10 19 26 -2 8 -11 13 -13 14 -5 0 15 81 17 96 2 14 -14 44 -2 44 19 0 9 7 74 15 146 8 72 15 142 15 156 l0 25 -172 18 c-95 9 -196 20 -224 23 -51 5 -52 5 -58 -23z m234 -14 c102 -11 188 -20 193 -20 4 0 7 -13 7 -30 0 -36 -2 -37 -198 -15 -239 26 -222 22 -222 56 0 35 -16 34 220 9z m-25 -80 c99 -11 188 -20 198 -20 13 0 17 -8 17 -35 0 -31 -3 -35 -22 -31 -13 3 -97 12 -188 21 -211 20 -210 20 -210 49 0 22 7 36 19 36 3 0 87 -9 186 -20z m55 -89 l155 -16 -3 -30 c-2 -16 -5 -31 -6 -32 -4 -4 -405 43 -411 48 -3 4 -3 18 1 33 6 25 8 26 58 20 28 -3 121 -14 206 -23z m-60 -76 c217 -21 212 -19 204 -53 -4 -15 -8 -28 -9 -29 -1 -3 -409 39 -413 42 -1 1 1 16 4 33 5 26 10 31 28 27 11 -2 95 -11 186 -20z"/>
 <path d="M4056 387 c-12 -9 -30 -64 -57 -183 -39 -171 -46 -216 -31 -199 5 6 26 86 47 180 20 94 42 176 48 184 8 9 25 12 54 8 45 -5 59 6 21 17 -36 9 -63 7 -82 -7z"/>
 <path d="M0 381 c0 -11 4 -13 132 -41 53 -12 102 -28 109 -36 12 -14 8 -36 -48 -282 -3 -12 -1 -22 4 -22 5 0 24 65 42 145 42 189 47 180 -113 216 -50 11 -99 22 -108 25 -10 3 -18 1 -18 -5z"/>
 <path d="M3548 355 c3 -28 -1 -42 -18 -60 -26 -27 -19 -45 16 -45 18 0 31 -10 45 -35 12 -19 24 -35 28 -35 4 0 15 16 24 35 14 28 22 35 46 35 41 0 48 17 20 46 -17 19 -23 34 -20 61 3 34 1 35 -21 28 -28 -9 -64 -9 -99 0 -24 6 -25 5 -21 -30z m138 -67 c14 -15 13 -17 -14 -23 -18 -4 -34 -16 -42 -33 l-12 -27 -14 27 c-8 15 -26 31 -40 34 -23 6 -24 8 -9 23 8 10 15 29 15 44 0 24 3 26 29 21 16 -3 37 -1 48 4 16 9 18 7 21 -21 2 -18 10 -39 18 -49z"/>
 <path d="M839 189 c-66 -99 -118 -183 -115 -187 9 -8 12 -4 135 181 100 150 114 167 129 156 9 -8 18 -14 20 -15 2 -1 -41 -69 -95 -151 -119 -178 -116 -173 -106 -173 5 0 63 79 128 175 65 96 120 175 122 175 2 0 35 -21 73 -46 41 -28 67 -51 63 -58 -4 -6 -42 -64 -85 -129 -43 -64 -74 -117 -68 -117 5 0 25 22 42 50 34 51 48 61 48 35 0 -21 59 -85 79 -85 12 0 11 4 -7 18 -30 23 -62 72 -62 95 0 10 18 45 40 77 22 32 40 63 40 67 -1 11 -152 113 -167 113 -7 0 -16 -7 -21 -16 -9 -16 -11 -16 -33 0 -13 9 -27 16 -31 16 -4 0 -62 -81 -129 -181z"/>
 <path d="M4081 313 c-30 -115 -60 -268 -54 -274 9 -8 95 -29 118 -29 32 0 3 19 -39 25 -23 4 -48 10 -54 14 -8 4 -2 47 20 142 l31 135 31 -4 c37 -5 25 12 -16 22 -25 6 -28 3 -37 -31z"/>
 <path d="M0 321 c0 -4 41 -17 91 -27 50 -10 93 -23 95 -29 2 -5 -9 -66 -25 -135 -27 -117 -30 -142 -15 -127 7 7 63 242 64 267 0 12 -25 22 -98 38 -110 25 -112 25 -112 13z"/>
 <path d="M1550 305 c0 -14 5 -25 10 -25 6 0 10 11 10 25 0 14 -4 25 -10 25 -5 0 -10 -11 -10 -25z"/>
 <path d="M1470 250 c0 -5 14 -10 31 -10 17 0 28 4 24 10 -3 6 -17 10 -31 10 -13 0 -24 -4 -24 -10z"/>
 <path d="M1595 250 c-4 -6 7 -10 24 -10 17 0 31 5 31 10 0 6 -11 10 -24 10 -14 0 -28 -4 -31 -10z"/>
 <path d="M0 241 c0 -6 12 -13 28 -17 15 -3 42 -10 61 -15 34 -8 51 -5 38 7 -3 3 -25 10 -49 15 -24 5 -51 12 -60 15 -10 3 -18 1 -18 -5z"/>
 <path d="M2530 230 c-27 -27 -25 -46 5 -76 19 -18 31 -23 48 -19 27 8 47 33 47 57 0 24 -35 58 -60 58 -11 0 -29 -9 -40 -20z m68 -12 c32 -32 -2 -79 -43 -60 -39 18 -27 72 15 72 9 0 21 -5 28 -12z"/>
 <path d="M4135 240 c3 -5 10 -10 16 -10 5 0 9 5 9 10 0 6 -7 10 -16 10 -8 0 -12 -4 -9 -10z"/>
 <path d="M1550 195 c0 -14 5 -25 10 -25 6 0 10 11 10 25 0 14 -4 25 -10 25 -5 0 -10 -11 -10 -25z"/>
 <path d="M4114 179 c-3 -5 -1 -9 5 -9 5 0 16 -3 25 -6 9 -3 16 -2 16 4 0 13 -38 23 -46 11z"/>
 <path d="M0 170 c0 -5 17 -14 38 -19 41 -12 89 -15 79 -5 -11 11 -117 32 -117 24z"/>
 <path d="M467 153 c-13 -13 -7 -42 12 -52 27 -15 56 9 47 37 -7 21 -44 31 -59 15z"/>
 <path d="M4100 112 c0 -11 49 -26 58 -17 8 7 0 12 -31 20 -16 4 -27 3 -27 -3z"/>
 <path d="M0 99 c0 -8 63 -29 88 -29 6 0 12 4 12 9 0 4 -22 13 -50 18 -27 6 -50 6 -50 2z"/>
 <path d="M1322 20 c-7 -11 -8 -20 -3 -20 6 0 13 5 17 11 4 8 9 8 17 0 6 -6 20 -11 32 -11 17 0 16 3 -10 20 -37 25 -37 25 -53 0z"/>
 <path d="M0 10 c0 -5 19 -10 43 -9 36 1 38 2 17 9 -36 12 -60 12 -60 0z"/>
 </g>

</svg>