<svg xmlns="http://www.w3.org/2000/svg" width="626" height="626" viewBox="0 0 6260 6260" preserveAspectRatio="xMidYMid meet"  xmlns:v="https://vecta.io/nano"><path d="M2066 6198c186-202 489-518 496-518 4 0 8 4 8 8s76 135 170 290c97 161 164 282 156 282s-84-118-170-262l-156-262v262c0 164-4 262-10 262s-11-66-12-165l-3-165-115 126-145 165c-16 22-33 39-38 39-14 0 29-54 131-166l135-149 38-43-6-194-260 276c-143 152-264 276-269 276-4 0 18-28 50-62zm275 58c19-19 112-77 120-74 12 4-38 78-53 78-6 0-4-8 5-18 28-31 19-34-20-7-31 21-67 35-52 21zm-1219-231c-92-20-179-72-217-126-48-70-74-218-75-419 0-242 64-386 213-480l55-34-41-61c-64-93-125-148-211-185-42-19-75-39-73-44 8-23 153-4 304 40 21 6 20 3-12-72-19-44-35-84-35-91 0-32 23-14 99 78 46 54 87 99 91 99s9-52 12-115c3-72 9-120 17-128 16-16 23-4 61 103l38 103c6 15 16 6 54-50 52-75 94-120 105-110 3 4-10 50-29 102-20 52-34 95-33 95 2 0 22-16 45-35s58-39 78-44c60-15 152-22 152-12 0 5-35 34-77 64-97 67-148 118-179 179l-24 46 45 22c146 71 208 259 184 563-23 286-86 430-216 493-51 25-71 29-163 31-63 2-130-3-168-12zm286-12c27-6 28-24 3-47-19-17-22-16-75 18-31 20-56 39-56 42 0 6 84-2 128-13zm-220-5c-8-24-35-33-54-17-16 13-15 14 12 20 44 10 46 10 42-3zm126-25l65-39c6-6-29-55-44-60-8-3-45 13-84 36l-71 42 23 29c12 15 28 28 36 28 7 1 41-16 75-36zm-194 2c17-9 30-18 30-21 0-11-53-74-62-74-13 0-88 53-88 63 0 6 67 41 88 46 2 1 16-6 32-14zm398-40c13-11 30-32 38-48 12-23 13-28 1-33-13-5-137 62-137 74 0 3 10 16 22 29 23 24 24 24 76-22zm-231-61c18-10 33-21 33-24s-17-22-36-44c-41-43-40-43-127 20l-47 35 31 39 32 40 41-24c23-12 56-31 73-42zm-256 25l48-35c2-2-16-27-40-56l-46-57c-3-5-82 49-89 61-10 16 5 52 35 86 16 17 34 32 39 32s29-14 53-31zm446-26c34-20 63-40 63-43 0-4-12-18-28-33l-28-26-68 40-68 41 28 29c15 16 30 29 32 29 3 0 34-17 69-37zm-258-109c15-14 10-23-47-89-38-43-45-42-120 23l-42 37 46 58 46 57 51-37c29-20 58-42 66-49zm214 22l47-28-41-49-41-50-27 18c-86 58-101 69-101 74 0 3 16 24 36 48 34 39 38 41 58 28 11-8 42-26 69-41zm152 44c3-5 4-10 1-10s-8 5-11 10c-3 6-4 10-1 10s8-4 11-10zm23-62c16-51 21-78 15-78-3 0-30 14-59 31-56 32-57 36-21 76 25 28 51 16 65-29zm-655-10l27-23-50-65c-28-36-55-66-60-68-6-2-10 12-10 30 0 36 19 147 27 161 5 8 28-3 66-35zm379-71l58-40-30-36-52-64-23-28-60 46c-33 26-60 51-60 56 0 18 89 118 100 112 5-4 36-24 67-46zm233 18c30-19 55-38 55-42-1-5-20-29-44-55l-43-47-57 41c-34 24-53 44-49 51 15 26 68 87 76 87 4 0 32-16 62-35zm-504-31c32-25 59-48 59-52s-25-38-56-75l-57-67-47 40c-76 63-75 58-17 132 29 37 53 67 55 68 2 0 30-21 63-46zm588-157l1-38-45 32c-25 18-45 35-45 37 0 3 17 26 38 51l37 46 7-45c3-25 7-62 7-83zm-182 76c29-20 53-39 53-42s-24-34-54-68l-54-62-51 40c-28 22-51 43-51 46 0 7 92 123 98 123 3 0 29-16 59-37zm-229-53c17-13 32-27 32-31 0-12-111-144-122-144-13 0-117 87-117 99-1 4 25 39 56 76l58 69 30-23 63-46zm-248-74c0-6-16-28-36-49l-35-37-34 26c-32 24-35 31-35 77 0 33 6 57 16 68 16 18 19 16 70-28 30-25 54-51 54-57zm663-17c3-10-16-43-45-78l-50-60-62 47c-71 53-72 39 8 134l39 47 53-37c29-20 55-44 57-53zm-309 9l50-39c5-4-22-44-59-88l-67-80-49 42c-27 23-49 45-49 48 0 8 120 149 127 149 3 0 24-14 47-32zm-260-62l59-54-80-86-26 21c-84 66-99 83-86 101 23 31 63 72 68 72 3-1 32-25 65-54zm-196-8l21-23-24-27c-26-31-35-22-35 38 0 40 9 42 38 12zm597-39c30-23 55-45 55-50s-28-41-62-81l-67-80c-4-4-33 16-66 46l-59 53 64 76c35 43 68 77 73 77 4 0 32-19 62-41zm171-6c-3-21-6-50-6-65 0-34-7-35-44-5l-29 24 33 41c42 52 54 53 46 5zm-662-47l59-53-22-32c-12-17-27-31-32-31-6 0-37 23-69 52l-58 52 27 33c14 18 28 33 31 33 3-1 32-25 64-54zm216-12c22-20 40-40 40-45 0-11-60-79-69-79-19 0-92 74-87 87 10 26 50 72 63 72 7 1 31-15 53-35zm398-30c30-24 34-31 29-61-7-39-47-128-74-161l-19-23-56 48c-31 26-57 53-57 59-1 11 126 164 136 164 3 0 22-12 41-26zm-668-47l53-48-23-24c-13-14-27-25-32-25-10 0-68 118-68 138 0 19 10 13 70-41zm190-27l45-39-29-30c-17-17-35-31-41-31s-28 18-49 39l-38 39 23 31c12 17 28 31 33 31 6 0 31-18 56-40zm209-9l55-48-33-42c-18-22-36-41-40-41-5 0-83 62-120 96-6 5 63 82 74 83 6 0 34-21 64-48zm-279-71l45-40-30-30-31-30-42 36c-23 19-42 41-42 47 0 11 40 57 49 57 3-1 26-19 51-40zm199-30l55-48-30-35c-16-20-31-36-34-36s-31 23-64 52l-58 53 27 32c15 18 32 32 38 32 7-1 36-23 66-50zm217-17c29-27 54-51 54-55s-20-19-45-33c-49-29-52-28-109 23l-38 33 34 39c18 21 37 39 41 39 5 1 33-20 63-46zm-294-64c32-29 56-54 54-57-9-9-148 41-153 55-5 12 22 53 35 53 2 0 31-23 64-51zm197-23l32-33-57-6c-78-8-90 0-58 41 14 17 31 32 38 32s27-15 45-34zm-43-54l92 3 11-32c17-46 103-137 186-195l70-50-59 7c-81 9-101 18-164 72-29 25-55 44-57 42s12-44 31-92c19-49 34-94 34-100-1-16-44 37-86 106-20 32-41 56-47 54-5-1-25-47-42-101-46-138-55-142-55-19 0 56-3 108-6 117-12 31-42 15-103-55-33-39-61-66-61-61s11 35 25 66c31 69 22 76-56 45-48-19-180-48-219-48-8 0 12 13 45 29 83 40 128 80 191 170l54 78 63-20c47-15 84-19 153-16zm3583 537c-75-10-119-24-119-38 0-5 9-47 20-93s20-109 20-142c0-67-31-225-93-476l-43-175-40-5c-80-11-194-104-229-186-24-57-37-157-26-205 15-68 96-134 194-160 38-11 51-10 91 5 55 21 137 108 163 173 17 41 20 44 47 39 16-3 108-6 205-6h177l27-82c45-137 40-133 271-249 148-75 209-100 216-93 13 13 3 79-14 93-6 5-63 31-126 59-63 27-145 64-181 81l-66 31-50 174 31 21c17 12 30 28 29 36s-31 169-67 359c-89 471-88 465-87 641 1 188 2 187-116 200-94 10-147 9-234-2zm312-29c27-15 24-24-18-44-75-36-320-33-365 4-13 10-19 22-15 26 30 30 347 41 398 14zm-236-86c100-6 165 0 231 21 20 6 20 3 21-137 0-125 5-171 42-363l41-220c0-1-25 3-56 9-46 8-58 14-66 35-6 14-41 108-78 208l-67 183 26-6c14-3 31-7 37-9 25-7 52 26 68 86 21 72 18 78-58 103-58 19-102 21-112 5-4-7-15 6-28 32-21 44-56 63-78 41-5-5 13-75 47-179l55-174c0-2-34-4-76-5-102-1-110-9-98-106 8-63 12-74 34-86 29-15 146-10 163 7 6 6 10 28 9 48-2 21 0 35 3 32 6-7 65-179 65-191 0-4-33-8-72-8-40-1-120-5-177-10-58-5-106-8-108-6s12 68 31 147c75 315 82 401 41 551-7 27-7 27 22 13 16-8 76-17 138-21zm-11-73c9-30 12-61 7-78-9-32-14-26-35 46-20 67-20 81-1 81 8 0 20-19 29-49zm160-37c26-9 45-21 43-28l-21-63c-18-54-22-57-66-53-29 2-100 37-100 49 0 18 24 77 38 94 19 21 45 22 106 1zm-76-221c61-161 124-344 120-348-2-2-13-2-24 1-16 4-33 46-88 212l-74 221c-4 11-1 11 16 2 12-6 32-41 50-88zm-54-68c3-8 8-44 12-79 6-60 5-63-17-69-33-9-127-9-132 1-3 4-7 38-8 76-4 67-3 70 21 77 48 13 117 10 124-6zm221-305c49-6 94-15 99-20 15-15-7-31-52-37-34-5-42-2-51 16-7 11-15 21-19 21-5 0 15-70 44-155 48-141 51-155 34-155-24 0-29 10-74 145-49 146-57 165-67 165-5 0-6-12-3-26l7-27-149 6c-154 5-268 27-247 48 24 24 331 35 478 19zm-425-66c30-8 122-18 204-22l149-7 38-110 39-112c0-2-83-3-184-3h-184l-21 35c-27 46-55 45-109-1-40-34-42-35-42-12 0 59 37 248 48 248 4 0 32-7 62-16zm562-141l24-139c0-1-15 1-33 3-31 5-33 8-73 127-22 66-40 124-40 128 0 6 22 10 80 16 12 2 21-27 42-135zm-680 40c-3-21-6-72-6-113-1-68-8-89-28-90-4 0-2 13 3 29 5 15 9 59 7 97-3 62-5 69-25 72-35 5-46-28-32-96 21-102 46-140 117-177 69-36 99-36 108 1 8 31-2 85-20 109-12 17-18 18-52 7l-39-11 37 34c21 19 44 35 52 35 19 0 39-64 38-121-1-66-23-111-84-175-59-63-94-84-136-84-40 0-146 55-178 93-25 30-26 36-22 117 5 105 37 181 100 234 48 41 114 76 144 76 19 0 21-4 16-37zm-42-85c-1-77-12-77-25 0-5 28-3 48 5 57 7 8 14 15 16 15s4-33 4-72zm164-137c7-34 6-45-7-58-14-14-21-12-76 18-33 18-58 35-55 38 11 11 110 50 119 47 6-1 14-22 19-45zm447 9c7-22 10-43 6-46-8-9-370-5-378 4-3 4-9 24-12 45l-6 37h378l12-40zm95-102l39-133 80-40c44-22 100-49 125-59 173-73 178-76 182-112 2-19 3-34 1-34-9 0-250 118-319 157-93 51-89 46-150 226-42 126-42 127-20 127 20 0 26-13 62-132zm41 106c3-9-36-39-42-32-2 2-6 15-10 30-6 25-5 26 21 19 15-4 29-11 31-17zm-881 112c-29-45-21-72 27-95 49-24 77-27 77-8-1 25-56 122-71 125-9 2-24-8-33-22zm64-42c11-25 20-48 20-50 0-8-21-4-55 11l-35 14 17 36c9 19 21 35 25 35 5 0 18-21 28-46zm-64-138c-47-44-48-79-5-102 37-19 49-10 68 45 30 91 1 118-63 57zm44-45c-12-45-21-54-44-45-26 10-18 44 16 76 37 34 44 27 28-31zm68 53c-12-11-10-132 2-155 6-10 21-19 34-19 27 0 76 35 76 55 0 19-103 129-112 119zm90-116c-7-19-55-51-67-44-6 4-11 36-11 74l1 67 40-43c22-23 39-48 37-54zm-3345-928c-65-14-151-60-188-101-45-50-65-122-65-228 1-106 20-199 50-240 27-39 134-129 167-142 13-5 39-9 58-9h34l-56-95c-31-52-61-95-68-95s-38 9-70 20c-78 27-91 26-103-9-14-39-4-46 79-60 89-15 165-14 181 2 7 8 38 67 68 131l55 117 294-10 86 72c127 106 171 187 163 301-5 77-41 155-105 226-54 60-101 86-192 106-81 17-331 27-388 14zm361-25c108-19 177-55 221-114 90-124 110-233 60-334-15-28-30-56-34-60s-48 6-97 22-124 34-167 40c-106 15-314 13-412-3-44-8-83-12-86-10s-12 37-19 78c-14 82-6 135 30 207 22 41 25 59 11 59-11 0-58-106-66-151-6-31 4-112 22-187 5-20 2-23-18-20-30 4-37 30-38 149-2 188 55 276 212 324 56 18 281 18 381 0zm43-471c83-17 183-51 182-62 0-4-39-40-86-80l-85-73-47 8c-25 4-128 7-228 5l-182-2-59 49c-65 54-102 97-102 117 0 14 102 40 210 54 89 12 305 3 397-16zm-287-221c-1-20-117-228-132-237-25-15-202 14-205 34-7 38 11 41 87 15 41-14 79-24 85-21 6 2 39 51 73 110 35 59 69 106 77 106s15-3 15-7zm327 545c38-41 47-59 63-126 6-28 16-55 21-58s9-2 9 3c0 18-28 110-40 133-16 32-61 80-74 80-5 0 4-15 21-32zm130-80c35-81 46-147 33-205-3-12-1-23 5-25 5-2 14 17 19 41 11 52-1 105-46 204-44 96-53 83-11-15zm-641 34c-19-36-32-122-18-122 5 0 13 20 16 44 4 25 16 56 27 69 23 30 24 37 4 37-8 0-21-12-29-28zm519-107c4-11 10-35 14-54 8-45 28-52 23-8-2 18-13 44-24 57-16 20-18 21-13 5zm530-2107c-11-6-30-20-42-31-19-17-23-18-28-4-9 22-60 40-92 32-15-3-40-16-55-27-28-19-30-19-48-3-28 25-121 17-153-13-29-27-40-27-77-1-32 24-74 21-117-7-36-23-17-36 20-14 40 25 75 25 107 0s52-25 75 0c19 21 91 47 101 37 7-7-9-35-107-185-69-106-91-159-70-172 7-4 44-1 84 6 46 8 166 13 335 13l262 1v-87l-222-7c-488-14-528-17-528-40 0-16 197-226 213-226 6 0-35 47-91 104s-102 108-102 113c0 15 99 21 433 29l297 7V127c0-78 4-127 10-127s10 48 10 124c0 96 3 125 14 129 8 3 111 6 230 7l217 1-12-23c-6-13-39-70-71-126-33-57-57-107-53-110 9-10 34 26 99 143 32 57 55 109 51 115s-88 10-241 10h-234v92l178-6 266-12c64-5 91-3 96 6 4 7-7 49-26 94-43 106-73 254-54 266 16 10 68-14 77-36 8-22 27-17 51 16 28 37 73 41 96 8 13-18 16-19 16-5 0 48-97 60-131 16l-15-21-35 21c-44 27-99 27-133 0l-27-21-25 22c-30 29-100 32-139 6-25-16-27-16-52 4-19 15-40 20-86 20-57 0-62-2-95-39l-36-38-36 38c-38 40-68 48-105 27zm329-8c15-5 31-21 38-35 11-25 12-25 32-6 28 25 61 41 85 41 31 0 70-21 76-42 8-25 19-23 52 10l28 27 13-65c7-36 22-94 32-129l19-64-112 6c-238 14-640 18-817 9-102-5-187-8-189-6s5 16 15 31 41 65 70 110c44 69 54 80 64 68 17-21 31-19 70 10 19 14 46 25 62 25 27 0 35-6 63-45 13-19 15-19 52 18 53 50 81 49 127-5l37-43 33 37c47 54 95 69 150 48zm338-276c39-5 48-11 58-35 7-16 10-36 6-45-6-17-41-16-214 7-112 14-811 11-905-5-43-7-80-10-82-6s5 25 16 48l21 41 101 4c144 6 943-2 999-9zm-587-285c9-17 14-34 11-37-4-3-38 2-77 12-38 10-72 16-75 13-8-7 105-147 118-147 5 0-13 28-41 61-29 34-50 63-48 66 3 2 32-4 66-13 76-21 90-13 65 40-10 20-21 36-26 36s-1-14 7-31zM2230 31c0-11 5-23 10-26 6-3 10 1 10 9 0 20 17 20 50 1 14-8 32-14 40-14 17 1-79 49-97 49-7 0-13-9-13-19z" fill="#a54a73"/><path d="M1156 4374c-11-28-6-139 10-258 9-64 14-123 11-130-5-11-36-15-136-18-206-5-201-32 28-146 111-56 156-83 162-100 5-13 14-89 20-169 11-148 20-193 39-193 14 0 64 72 127 183 77 137 77 137 127 137 24 0 94-11 156-25s119-24 127-21c37 15-8 88-130 213l-70 72 60 88c85 123 117 191 102 209-15 19-72 18-112-2-18-9-71-43-120-76-48-33-102-62-121-65-33-5-34-4-65 62-40 86-96 178-134 222-31 35-71 44-81 17zm111-86c24-37 59-99 77-138 44-92 52-100 92-100 25 0 58 17 127 64 51 35 107 71 125 80 36 19 82 21 82 4 0-16-75-141-122-204-21-28-38-56-38-63s30-45 66-85c106-113 164-196 138-196-3 0-55 11-116 25-133 30-201 32-224 8-8-10-52-80-97-156-63-107-83-135-89-120-3 10-11 83-17 162-7 98-16 151-26 168-9 12-64 48-123 78-115 60-105 64 22 9 44-18 82-32 84-30 7 8-84 54-158 81-46 16-76 22-78 16-4-13-52 10-71 33-18 22 10 26 141 23 149-3 147-6 125 161-27 208-20 294 21 259 9-6 35-42 59-79zm-73-23c18-48 110-271 113-274 1-2 6-2 9 2 8 8-107 287-119 287-5 0-7-7-3-15zm394-219c-60-57-108-106-108-110 0-21 35 6 127 96 95 95 115 119 96 118-5-1-56-47-115-104zm-568-125c0-6 2-11 5-11 2 0 54-13 115-30 114-31 151-37 135-21-6 5-57 21-115 35l-122 32c-10 3-18 1-18-5zm317-28c-15-14-6-74 13-93 26-26 76-26 90-1 26 50-6 101-63 101-19 0-37-3-40-7zm83-33c14-26-3-60-31-60-22 0-45 40-36 64 9 23 54 20 67-4zm146-38c26-25 187-122 192-118 7 7 14 2-91 69-48 32-93 57-99 57-8 0-8-3-2-8zm-211-103c-39-157-61-270-53-275 5-3 11-4 12-3 2 2 18 67 35 143 21 92 29 142 22 149s-12 2-16-14zm2741 562c-28-31-63-35-103-11-39 23-43 24-43 11 0-5 15-19 34-30 38-24 94-27 120-8 15 11 24 11 55-5 26-12 48-16 70-12 43 9 24 30-24 25-26-2-41 4-60 23-31 31-28 31-49 7zm-499-127c-32-27-78-32-97-9-7 8-19 15-28 15-12 0-10-6 8-24 32-35 74-42 120-21 35 16 40 16 61 1 30-21 99-22 99-1 0 11-11 14-40 13-31-1-47 5-68 25l-27 26-28-25zM0 2095c0-13 78-45 244-100l99-33 3-113c2-101 42-382 75-528 11-49 3-61-41-61-41 0-136 28-191 55l-50 26-46-41c-26-22-57-43-70-46-13-4-23-13-23-21 0-11 11-9 47 12 27 15 55 34 65 42 15 13 19 10 41-34 59-118 115-180 252-278l80-57-60 7c-128 15-234 37-327 69-67 23-98 29-98 21 0-17 167-71 281-91 122-21 280-31 352-22 110 14 328 137 431 242 48 49 95 117 131 185l17 34-39-23-58-37c-40-27-99-12-148 39-16 15-21 15-78-15-87-45-155-44-225 1-28 17-54 32-59 32s-30-14-57-31c-28-18-53-28-57-23-13 14-49 207-61 329-6 61-10 155-8 210l3 100 30 3c27 3 214 60 224 68 2 2 2 7-2 10-3 3-49-8-103-26-82-28-106-32-158-27-59 6-182 44-338 105-55 21-78 26-78 17zm397-312c0-192-12-171-23 40-6 110-5 127 8 127s15-24 15-167zm10-220c-3-10-5-4-5 12 0 17 2 24 5 18 2-7 2-21 0-30zm10-55c-3-8-6-5-6 6-1 11 2 17 5 13 3-3 4-12 1-19zm20-115c-4-3-7 0-7 7s3 10 7 7c3-4 3-10 0-14zm10-55c-3-7-5-2-5 12s2 19 5 13c2-7 2-19 0-25zm159-44c1-26-8-124-21-231-10-77-23-135-32-144s-179 101-244 158c-39 35-114 139-134 187-8 20-14 36-12 36s32-11 67-25c123-48 212-41 310 25 25 16 49 29 55 27 5-2 10-17 11-33zm-149-6c-3-7-5-2-5 12s2 19 5 13c2-7 2-19 0-25zm279-14c37-5 104 7 170 33 32 12-55-133-126-211-117-128-190-194-190-171 0 2 7 51 15 107 22 159 24 179 25 235v53l32-20c18-11 51-22 74-26zm321-4c19 0 48 7 64 16l30 15-16-31c-30-59-106-138-191-201-29-21-55-39-58-39s-29-14-58-31c-29-18-82-42-117-56l-63-24 83 93 97 106c23 26 69 97 96 149l26 52 36-24c22-15 51-25 71-25zm5188 830c-3-5-1-10 4-10 6 0 11 5 11 10 0 6-2 10-4 10-3 0-8-4-11-10zm-265-862c0-30 160-167 248-212 60-31 33 0-45 51-43 28-100 73-126 101l-48 49 125-5c71-3 126-1 126 4s-35 9-77 9c-43 0-106 4-140 8-52 7-63 6-63-5z" fill="#8348ae"/><path d="M43 5553c-22-4-50-30-41-38 3-3 21 2 41 10 81 34 126 14 129-57 2-80-13-101-97-133l-74-29 1-103c2-89 5-102 18-98 10 3 28-8 46-26 40-42 100-72 130-65 46 12 20 71-28 64-14-2-23-9-22-20 2-16-1-16-25-4-31 17-99 86-85 87 5 0 43 3 84 5 101 7 145 20 169 51 23 28 27 79 10 117-13 27-64 56-99 56-18 0-20 4-14 18 5 9 9 41 9 70 0 47-4 57-28 78-27 23-64 29-124 17zm218-222c33-26 33-90 0-125-25-26-56-34-166-38l-59-3-11 60-10 60 80 32c93 37 134 40 166 14zm-71-280c0-12-20-25-27-18s6 27 18 27a8.96 8.96 0 0 0 9-9zm6027 448c-21-21-37-45-37-55 0-16-1-16-19 0-23 21-41 14-41-15 0-16-3-18-19-9-61 32-189-6-224-67-29-50-4-94 92-160 2-1-8-15-22-29-41-40-38-95 7-140 57-57 128-43 229 46 26 23 50 40 53 37s2-31-3-63c-8-56-10-59-34-56-14 2-31-4-38-12-15-18-7-52 14-60 43-16 74 37 82 139 5 69 4 74-21 101-57 61-94 168-87 258 1 19 2 19 21 1 27-24 60-78 76-124l13-36 1 31c0 17-13 51-30 78-34 54-33 75 7 118 41 43 22 59-20 17zm-115-101c17-14 44-125 33-136-4-4-37-19-73-33-62-25-69-26-96-12-72 37-96 101-53 140 54 49 151 70 189 41zm86-210l33-51-33-29c-112-97-174-118-222-73-24 22-28 32-23 63 7 45 33 66 130 109 39 17 74 31 77 32 3 0 20-23 38-51zm13-241c-13-13-26-3-16 12 3 6 11 8 17 5 6-4 6-10-1-17zm-4085 535c-4-10 5-51 19-92 14-40 25-83 25-96 0-20-4-21-46-16-41 4-46 3-42-14 2-11 13-20 28-22 14-2 29-7 34-12 10-10-140-468-163-494-12-13-16-38-16-95 0-66 4-85 33-143 63-129 191-226 327-248 102-16 199 4 304 63 98 55 164 140 196 252 22 73 16 220-12 305l-18 55-259 172-268 181c-7 7-5 23 3 47 11 30 11 37 0 45-10 5-20 1-32-13l-18-22-2 35 1 78c1 36-1 42-19 42-15 0-21-7-21-22-1-22-2-21-16 5-17 31-30 35-38 9zm78-143c5-19 12-36 15-39 11-10 29-70 23-74-9-5-53 30-46 37 3 3-1 30-10 61-10 41-11 56-3 53 7-2 16-19 21-38zm394-303c174-116 183-126 137-171-47-48-95-25-207 98l-144 157c-34 36-76 83-95 104-34 39-33 39 56-20l253-168zm-409-39l2-223-33-49c-32-47-73-71-95-56-5 3-18 20-28 37l-18 31 68 204c64 192 95 279 99 279 1 0 3-100 5-223zm59 158c12-27 46-113 77-190 49-127 54-144 44-177-20-74-84-95-136-46-23 21-23 26-23 252 0 126 4 226 8 221 4-6 18-32 30-60zm72 8c24-27 71-77 104-113 161-171 155-164 146-204-4-20-13-43-19-50-19-22-70-27-106-10-27 13-39 29-69 102-82 201-124 311-118 316 11 11 20 5 62-41zm495-417l7-66-46-21c-46-20-48-20-83-2-34 17-38 23-58 106-12 48-19 87-16 87s15-7 25-15c30-23 79-19 110 10 14 13 26 30 27 37 2 28 28-74 34-136zm-185-62c0-36-35-58-104-62l-62-4-32 82c-34 86-35 104-5 78 45-40 126-32 152 13l16 29 17-58c10-31 18-66 18-78zm-216 9c9-26 16-54 16-63 0-28-39-69-73-78-31-8-127 5-127 17 0 3-6 43-14 88l-13 82 31-22c44-31 102-29 130 4 11 15 24 25 28 23 3-2 13-25 22-51zm-355-43c27-14 64-4 97 27 14 13 28 23 29 21 2-2 6-21 9-43l12-70c7-43-43-75-130-82l-64-6-10 34c-19 58-24 132-12 163l11 30 19-31c10-18 28-37 39-43zm690-25c14 3 34 8 44 11 13 4 17-1 17-21 0-40-46-143-84-190-33-39-132-113-141-104-2 2 12 49 31 104s38 128 41 162l6 62 29-15c18-9 41-13 57-9zm-128-97c-27-99-81-238-92-238-5 0-9 26-9 58 0 31-11 99-25 150s-25 95-25 97 24 4 54 4c30-1 66 6 82 14 39 21 41 8 15-85zm-134-87c18-88 11-161-16-161-28 0-152 91-187 137-28 37-52 108-41 120 3 2 27 0 53-5 62-11 109 1 131 34l17 26 13-38c8-22 21-72 30-113zm-232-19c22-34 77-83 133-119 36-23 40-29 25-35-43-17-172 14-243 58-37 23-111 98-129 131-10 19-7 21 56 26 43 3 74 12 92 25l26 19 12-39c6-21 19-51 28-66zm2545-980c-238-68-401-248-417-462-17-227 120-418 396-548 99-47 201-55 308-23 142 42 292 171 352 301 31 68 39 204 16 290-34 129-133 274-245 358-120 90-275 122-410 84zm202-54c31-63 51-130 40-139-4-4-28-9-54-11l-46-5-22 61c-12 33-31 76-42 95-23 42-14 51 52 51 45 0 46-1 72-52zm60 32c34-10 39-16 52-63 31-112 31-107-13-107-37 0-39 2-46 38-3 20-17 58-31 84-13 26-24 50-24 53 0 8 21 6 62-5zm-205-32c29-51 64-151 56-159-4-4-23-10-40-14l-32-6-43 88-46 96c-5 9 35 26 65 26 14 1 28-10 40-31zm-108-34c12-20 32-62 45-93 27-61 28-59-35-74-24-6-28-2-54 58-15 35-33 69-41 76-8 6-14 15-14 20 0 9 59 49 72 49 3 0 16-16 27-36zm439-1c28-21 32-30 32-70 0-37-3-44-16-39-9 3-22 6-29 6-8 0-18 20-24 48l-17 71c-8 27-3 25 54-16zm-529-57c35-56 54-118 39-128-23-14-35-4-81 64-45 67-45 67-23 82 31 22 42 19 65-18zm631-54c-36-6-50 5-50 40v32l36-35c33-32 34-34 14-37zm-685-23c40-65 39-75-10-84-27-5-32-2-55 37l-29 51c-4 9 38 57 50 57 4 0 24-27 44-61zm702-3c2-2-1-15-6-30-10-25-14-26-82-26-112 0-270-27-446-76-90-24-181-51-202-59-40-14-41-14-61 16l-21 29 23 9c13 5 86 29 162 55 245 82 335 97 516 90 63-3 116-6 117-8zm-780-56l22-40-36-15c-20-9-37-14-37-13-1 2-7 13-14 26-10 18-10 27 3 52 21 40 36 38 62-10zm831 14c31-67-65-311-182-463-78-101-315-298-341-284-15 9-17 7 109 144 112 121 202 223 224 253 47 62 91 154 127 264 20 61 40 112 44 112s13-12 19-26zm-78-43c0-4-5-22-11-40l-11-31-94-1-101-3-48-9c-57-11-275-71-375-104-45-14-45-14-67 14-13 15-23 31-23 34 0 4 17 11 38 17 20 5 93 26 162 46 119 36 276 71 350 79 71 8 180 7 180-2zm-742-161c69-87 168-177 267-242 55-37 112-72 128-79 33-15 33-20 4-47l-24-22-48 21c-184 82-342 238-421 416-20 43-22 58-13 75 11 20 13 18 42-28 16-27 46-69 65-94zm871 102c9-21 9-46 1-96-26-163-83-253-303-478l-85-88h-68c-40 0-64 4-58 9 5 5 50 42 99 83 109 91 164 145 222 221 54 70 137 242 154 320 7 31 15 57 19 57s13-13 19-28zm-170-62c-6-16-18-31-27-34-22-7-182-33-247-41-106-13-182-27-243-47-60-19-64-19-83-2-26 24-24 31 14 39 17 4 66 18 107 30 115 35 262 74 295 78 17 2 67 5 112 6l82 1-10-30zm-723-150c86-114 178-191 299-252 44-22 82-42 84-44 7-6-41-54-54-54-22 0-221 145-281 205-58 58-128 146-153 193-8 15-10 39-5 69l7 45 30-53c17-30 50-79 73-109zm930-3c-6-110-43-185-138-279-67-67-191-148-205-134-3 3 35 47 84 98 48 51 103 111 120 133 51 66 102 168 115 229 15 78 28 52 24-47zm-236 87c0-16-43-73-58-78-46-14-229-46-320-57-102-11-104-11-128 12-21 20-22 24-8 32 26 15 137 44 193 51 122 15 276 38 280 42 7 6 41 5 41-2zm-758-127c50-78 247-248 367-317 14-8 14-11-5-31-27-27-40-23-141 43-133 86-207 169-244 275-10 31-19 60-19 65 0 19 17 5 42-35zm679 6c-29-49-53-66-114-79-101-22-182-18-223 9l-34 24 118 17c64 9 146 23 182 30 36 8 69 14 73 15 4 0 3-7-2-16zm-123-139l-36-37-49 29-48 29 50 6c28 3 66 7 85 7l35 2-37-36zm-446-559c-220-62-491-259-610-444-20-31-67-118-105-194-46-95-95-174-153-250-46-62-94-132-105-155-83-169 89-322 287-256 92 31 228 146 298 250l27 42 45-25c89-50 202-46 297 10 52 31 123 100 145 141 26 49 21 164-12 260l-27 78 119 117c129 127 139 139 165 194 30 65 18 114-40 169-70 67-218 95-331 63zm220-35c72-27 125-72 139-119 10-33 8-43-11-82-24-46-127-159-194-212l-39-31 5 65c3 41 17 90 36 134 33 74 29 97-10 71-25-16-41-11-51 17-4 10-13 17-20 14-9-3-11-36-10-125 1-67-1-122-5-122-4 1-16 14-27 30-89 131-131 189-139 190-4 0-6-13-4-30 4-26 2-29-18-24-41 10-34-14 24-76 60-65 102-126 102-148 0-10-11-12-42-8-107 15-275-50-353-136-57-64-115-179-115-229 0-32 6-43 41-71l67-54 26-21-34-44c-115-150-248-239-359-239-49 0-119 25-150 53-39 36-61 96-52 139 9 40 21 58 127 198 46 59 100 149 145 240 39 80 90 172 112 205 96 146 305 310 496 390 117 49 226 58 313 25zm-89-213l26 12-24-51c-13-29-27-77-30-107-10-98-15-119-29-124-10-4-10 6 1 56 11 44 13 88 8 152-6 80-5 88 8 70 13-16 19-18 40-8zm-141-133c42-50 73-134 49-134-5 0-14 22-21 48-7 31-27 68-56 103-24 29-44 58-44 64 1 5 9 0 18-13s34-43 54-68zm19-158c61-30 70-42 95-133 38-141 31-180-51-264-99-102-230-129-348-70-82 40-186 119-193 145-12 48 72 199 139 250 108 82 270 115 358 72zm-121-15c-70-10-138-50-215-126-74-74-104-123-112-186-8-53 13-50 21 2 9 58 49 121 112 178 102 90 184 117 307 97 38-6 47-4 47 8 0 9-15 17-42 21-24 3-50 8-58 9-8 2-35 0-60-3z" fill="#ce8f45"/><g fill="#4aadbd"><path d="M70 6234c41-14 107-30 147-36l72-11-28-36c-38-49-91-144-91-164 0-33 37-57 89-57 83 0 200 75 376 241 39 36 84 71 100 77l30 10-33 1c-18 1-70-9-115-21-70-20-107-23-252-23-147 0-181 3-248 23-104 30-142 26-47-4zm549-40c-55-60-218-187-275-215-75-37-137-38-142-2-4 27 26 85 77 150l39 51 94 7c52 3 121 12 154 19 32 8 63 14 68 15 5 0-1-11-15-25zm4160-71c40-80 75-167 84-206 17-77 22-85 42-72 157 111 265 150 580 211 84 16 133 33 162 56 9 7 4 26-20 76-17 37-33 69-34 71-1 1-7 1-13-1-7-2 2-29 22-70l34-67-25-6c-31-8-44 8-67 79-17 53-30 74-39 64-5-4 23-88 49-149 6-14-2-18-41-24-88-13-327-73-410-103-84-31-126-55-175-100-31-28-29-30-48 58-15 66-139 320-157 320-8 0 14-54 56-137zm61 129c0-5 19-35 42-68 49-71 68-113 68-154 0-16 4-30 9-30 11 0 2 75-15 115-7 17-26 47-43 68-16 21-33 47-36 58-6 19-25 27-25 11zm140 1c1-5 7-19 15-33s14-35 15-47c0-13 5-23 10-23 15 0 12 47-5 80-14 27-36 41-35 23zm80-4c0-5 5-7 10-4 6 3 10 8 10 11 0 2-4 4-10 4-5 0-10-5-10-11zm110 4c0-5 12-26 25-48 17-28 25-55 25-88 0-30 4-46 10-42 29 18-13 185-46 185-8 0-14-3-14-7zm140-10c1-23 35-99 49-107 17-11 13 10-9 54-11 22-20 46-20 55 0 8-4 15-10 15-5 0-10-8-10-17zm-1676-322c-6-27-9-29-69-34-131-12-213-64-311-194-32-43-63-82-68-86-6-5-48-6-94-3-60 5-92 2-117-8-45-19-38-36 25-65 61-27 110-72 110-99 0-12-11-42-25-68-46-87-30-176 58-312l46-71-35-11c-22-8-34-17-32-27 4-19 154-97 172-90 17 7 83 108 88 134 2 14-5 19-37 23-35 4-43 10-62 48-44 87-38 222 11 278 21 25 21 25 75 8 65-19 453-174 606-241l110-49 27-56c30-63 54-83 110-93 73-14 162 55 188 145 12 42-6 86-49 123-43 36-89 43-147 23-80-27-114-21-278 48l-291 121c-234 95-258 111-245 154 31 110 98 187 182 213 49 14 62 8 78-42 16-48 38-62 54-36 6 10 30 43 54 74 23 30 42 65 42 76 0 26-124 146-151 146-13 0-21-9-25-29zm95-52c33-33 61-67 61-74s-15-31-32-53c-18-22-39-48-46-58-7-11-15-14-17-9-45 94-57 99-139 62-79-36-127-90-159-175-15-39-24-79-20-87 7-20 92-63 247-125l291-120c182-77 201-81 306-50 58 17 93 8 136-35s45-93 7-152c-68-103-176-97-230 14-15 30-37 61-48 68-45 30-636 270-721 294-34 9-44 8-65-7-104-76-80-372 31-372 17 0 29-5 29-12 0-17-58-108-68-108-4 0-41 18-82 40l-75 39 33 7c19 4 36 13 39 21 3 7-13 41-35 76-96 146-110 215-67 313 14 31 25 66 25 78 0 29-41 67-108 100-75 38-59 49 57 41 73-5 100-4 112 7 8 7 45 52 81 99 102 132 157 166 293 177 78 7 80 8 83 35 2 15 7 27 11 27s36-27 70-61zm454-764c-39-17-49-45-29-84 43-82 111-79 156 7 34 68-42 114-127 77zm99-22c24-21 22-42-6-77-31-37-66-30-97 20l-22 37 22 18c29 23 78 24 103 2zM0 4638c0-10 15-15 45-17 63-3 180-34 245-65 131-62 206-147 256-291 24-66 29-96 29-175 0-57-5-103-12-115-9-14-13-16-13-5-6 165-24 249-74 355-63 132-156 208-300 245-84 21-176 27-176 10 0-5 20-10 43-10 61 0 189-34 241-65 129-75 219-247 233-442 3-46 3-83 0-83s-79 29-169 64c-159 62-334 114-345 102-11-10 3-17 68-32 35-8 75-19 89-24 284-107 377-144 389-153 20-17 37 12 51 87 14 73 3 164-29 257-67 195-245 327-476 354-33 4-68 9-77 11-11 3-18 0-18-8zm6140 5c-199-23-340-116-416-278-59-123-90-291-62-328 13-18 17-17 93 16 174 77 196 82 358 82 81 0 147 3 147 6 0 13-47 19-150 19-117 0-181-13-307-64-94-38-94-38-62 57 33 99 105 228 159 285 74 79 202 132 321 132 22 0 39 5 39 10 0 16-98 11-171-8-174-46-304-192-375-423l-29-94c-2-5-4 13-4 41-2 114 66 296 144 382 83 92 229 147 403 151 17 1 32 6 32 11 0 10-47 11-120 3zm-2789-49c-23-6-23-8-17-71 9-86 26-117 76-137s71-20 115-2c35 15 35 15 35-10 0-96 150-165 215-99 14 13 25 33 25 43 0 28 8 31 40 16 36-19 76-9 97 23 13 20 14 30 4 62-14 50-14 51 8 51 25 0 61 45 61 76 0 13-9 28-20 34-21 11-595 23-639 14zm624-36c4-3 1-19-7-35-10-21-21-29-46-31-21-2-31-8-28-15 26-64 29-87 11-107-25-28-59-25-79 6-23 34-37 27-53-29-19-64-50-84-104-68-63 19-81 43-79 104 2 29 2 58 1 65-1 14-31 17-31 2 0-17-63-50-97-50-41 0-79 15-86 34-3 8-9 42-13 76l-7 62 306-4c168-2 308-6 312-10zm2230-8c-11-18 16-60 37-60 30 0 21 64-9 68-11 2-24-2-28-8zM2 4515c0-16 2-22 5-12 2 9 2 23 0 30-3 6-5-1-5-18zm6028-94c-14-27-13-41 5-48 20-7 55 24 55 49s-46 24-60-1zm27-18c-4-3-7 0-7 7s3 10 7 7c3-4 3-10 0-14zm-6005 8c-22-14-11-65 15-69s39 28 23 58c-12 22-18 24-38 11zm245-18c-13-13-7-61 9-67 24-9 34 2 34 40 0 26-4 34-18 34-10 0-22-3-25-7zm2956-62c-17-28-63-33-99-10-35 21-44 23-44 10 0-16 66-51 94-51 15 0 40 7 55 14 24 13 31 13 47 1 21-14 42-18 89-16 23 1 26 4 17 13-7 7-27 11-46 10-24-3-39 3-57 22-29 31-40 32-56 7zm2877-10c-14-27-13-41 5-48 20-7 55 24 55 49s-46 24-60-1zm27-18c-4-3-7 0-7 7s3 10 7 7c3-4 3-10 0-14zm-265 5c-28-28 3-83 33-58 22 18 20 70-3 70-10 0-23-5-30-12zm-1797-31c-27-29-60-32-102-7-39 23-43 24-43 11 0-17 67-51 102-51 19 0 43 6 53 14 16 12 22 12 42-1 12-8 26-12 32-9 5 3 11 1 13-4 2-6 17-8 36-4 44 9 25 30-23 25-26-2-41 4-60 23-14 14-27 26-28 26s-11-10-22-23zM46 4255c-20-20-21-51-2-58 18-7 58 30 54 51-4 23-32 26-52 7zm295-14c-25-25-27-49-4-58 10-4 23 2 35 17 34 43 7 79-31 41zm16-28c-4-3-7 0-7 7s3 10 7 7c3-4 3-10 0-14zm-150-10c-12-12-7-50 8-63 31-26 56 9 39 54-6 16-35 22-47 9zm3390-49c-30-26-75-32-95-12-6 6-19 13-28 14-13 2-11-3 6-21 32-34 74-41 120-20 35 16 40 16 61 1 30-21 99-22 99-1 0 11-11 14-40 13-31-1-47 5-68 25l-27 26-28-25zm-3175-16c-17-17-15-58 4-65 24-9 48 21 40 51-7 28-25 33-44 14zm2082-67c-58-36-86-102-105-252-9-77-12-85-50-122-61-58-80-111-78-210 1-67-2-88-19-117-32-55-62-155-62-208 0-84 26-140 101-214 111-113 222-147 300-94 44 30 91 117 120 221 11 44 36 107 54 140s43 93 56 134c26 87 23 174-10 262l-21 55 20 79c24 93 25 125 5 191-17 58-60 104-125 133-59 27-144 28-186 2zm197-29c72-37 99-84 99-170 0-87-26-189-51-195-24-6-24-33-3-124 20-84 14-174-14-229-11-22-54-78-96-124s-76-87-76-92c0-27-26 5-83 100-149 248-159 302-68 367 26 19 56 50 67 70 17 32 18 38 4 63-9 15-26 29-39 30-23 4-23 6-17 73 8 80 30 161 54 197 44 67 134 81 223 34zm-241-353c0-31-8-40-94-115-33-29-36-36-36-85 0-66 16-101 121-275 71-118 79-138 71-162-9-27-9-26-60 43-103 141-172 301-172 401 0 80 45 169 104 205 47 28 66 25 66-12zm330-86c55-148 0-347-140-505-44-51-98-93-106-85-12 11 39 87 111 167 123 135 148 205 121 339-15 75-21 141-12 141 3 0 14-26 26-57zm-357-498c101-141 87-129 133-110 21 9 58 35 82 58l42 42-14-48c-21-70-69-149-106-174-43-30-94-29-157 2-105 53-182 147-198 242-7 47 12 135 46 208l22 46 46-94c25-51 72-129 104-172zm-924 868c-13-16-12-17 4-4s21 21 13 21c-2 0-10-8-17-17zm-5-35c-4-7-3-8 4-4s12 9 12 12c0 8-9 4-16-8zm1598-106c-69-22-120-64-144-120-17-37-20-59-15-116 3-39 13-93 22-119 17-46 16-49-5-99-13-31-24-82-27-128-7-92 11-162 66-266 21-38 44-95 51-125 65-279 201-349 392-201 87 68 138 156 138 241 0 49-24 133-55 198-23 46-27 69-29 146-1 80-4 98-27 137-15 25-42 59-61 76-33 30-35 37-41 112-11 142-58 236-134 268-41 18-65 17-131-4zm148-27c39-20 69-81 86-174 20-116 19-141-9-141-75 0-54-98 32-156 85-56 76-124-45-329-42-71-82-135-88-142-8-10-28 7-86 72-102 115-130 169-130 251 0 34 7 93 16 130 16 72 13 114-11 114-38 0-63 216-32 275 21 40 64 81 107 99 45 20 123 20 160 1zm149-367c108-105 102-261-16-463-51-88-121-185-133-185-25 0-10 40 52 141 105 172 130 225 136 292l5 59-65 61c-71 67-80 82-66 110 14 26 51 20 87-15zm-404-144c-20-87-15-156 16-220 10-22 59-86 108-142 116-133 146-202 67-153-97 60-212 259-230 396-8 56 5 135 30 192 25 56 29 19 9-73zm553-366c4-69 2-84-22-133-49-99-177-190-268-190-38 0-52 5-78 30-37 35-71 99-94 175l-16 55 52-52c29-28 68-59 87-68l35-18 23 29c60 73 163 238 189 302l29 72 29-62c22-47 31-81 34-140zm-473-456c-16-11-36-26-44-35-12-15-15-15-33 8-27 35-94 35-135 1-28-24-29-24-52-5-40 32-121 21-168-23l-23-21-24 22c-16 15-37 23-59 23-37 0-97-26-97-42 0-14 21-12 50 5 36 21 84 19 105-5 24-26 32-25 84 10 24 17 55 30 68 30h25l-28-47c-15-27-53-87-84-134-32-47-64-103-71-123-20-55-8-61 95-46 90 13 200 16 439 12l147-2v-78l-112-6c-62-3-221-9-353-12-132-4-250-11-263-15-42-16-64 11 317-389l272-285c48-49 99-105 114-123 32-38 36-39 51-9 6 12 104 176 218 365 227 377 260 437 252 458-4 11-48 14-236 14h-230v82l183-6 257-11c107-8 111-3 72 92-28 68-71 232-72 272 0 20 50 4 83-27l28-27 25 33c31 39 88 46 99 12 3-11 11-20 16-20 13 0 11 12-7 38-23 33-95 31-122-3l-20-25-28 23c-35 27-100 28-139 3-24-16-27-16-52 4-31 24-91 27-132 5-26-13-32-12-67 5-43 22-104 26-136 9-12-6-33-25-47-41l-25-30-19 26c-18 25-65 56-84 56-4 0-21-8-38-18zm84-24c11-13 30-34 41-48l20-25 39 43c30 34 46 45 79 49 46 6 102-12 102-33 0-25 20-25 53 0 42 32 98 35 127 6 11-11 20-24 20-30 0-18 21-10 45 18 13 15 25 25 27 22s14-48 26-100c11-52 24-106 28-119l7-23-239 8c-293 11-443 11-686 2l-187-7 67 107 70 112c2 3 8-3 13-13 13-23 23-22 67 8 21 14 51 25 70 25 25 0 35-6 44-25 10-23 42-34 50-17 6 14 70 62 83 62 7 0 22-10 34-22zm399-254l223-7 15-28c29-56 23-62-63-55-43 3-260 11-483 17-382 9-526 6-617-17-29-8-31 15-6 57 16 27 22 29 78 30l220 8c175 8 294 7 633-5zm-288-485l-3-289c-8 0-253 274-275 307-13 19-21 37-18 41 9 8 105-40 157-78 80-57 79-38-3 71l-76 100c-12 16-9 16 49-2 67-21 89-19 89 7 0 18-40 78-47 71-2-3 3-19 11-36 9-16 12-32 8-35-5-3-37 4-72 15-38 11-67 16-72 11-6-6 8-31 34-63l73-94 30-40-30 20c-66 43-131 75-152 75-62 0-1-86 229-326l68-72v-197l-68 70-546 574c-141 144-142 137 34 141 63 1 194 5 290 9l290 10v-290zm470 286c0-15-419-731-447-764-2-3-3 167-3 376l7 387c8 7 443 8 443 1zm-1852 66c-175-56-358-215-358-312 0-37-12-49-48-49-31 0-117-46-150-81-29-29-62-108-62-146 0-7 9-22 20-33 25-25 36-20 116 50 71 62 104 66 134 18 11-18 20-45 20-60s7-34 16-43c14-14 19-14 38-2 11 8 27 26 34 41 18 36 2 107-39 171-16 25-29 47-29 49s23 7 50 11c74 10 102-5 151-84 95-152 153-207 244-232 34-10 35-12 35-57 0-108-35-156-107-150-34 3-38 6-41 34-2 19 3 38 13 48 15 15 15 17 0 22-19 7-31-7-42-45-9-34 16-73 52-83 39-10 100 7 119 33l14 21 21-21c61-61 141-16 112 62-15 40-30 33-24-12 5-33 2-41-16-50-27-15-58 1-72 36-5 14-6 53-3 88l7 62 61 5c116 10 210 71 253 165 25 56 24 221-1 290-28 75-82 142-154 190-116 78-247 101-364 64zm217-16c142-37 251-137 284-261 11-40 18-151 10-159-6-5-212 33-244 45-14 5-47 33-73 61-50 55-75 71-135 87-59 16-41-6 23-28 41-14 64-31 102-73 55-63 87-77 232-101 49-9 91-18 93-20 3-3 0-21-7-40-8-25-22-41-47-53-33-15-36-15-48 0-15 21-25 22-25 3 0-20 39-46 59-39 11 4 9-2-7-20-58-63-202-93-306-63-71 21-131 77-194 182-23 39-56 84-73 100-29 27-35 29-110 29-75-1-80 0-85 22-14 55 35 128 139 207 81 61 137 91 217 117 69 22 119 23 195 4zm-532-409c59-94 73-168 38-200-18-16-19-15-29 27-15 58-52 97-92 97s-63-13-124-67c-55-49-66-52-66-19 0 72 45 137 124 176 85 43 114 40 149-14z"/><path d="M2120 1522c0-5 9-17 20-27 14-13 29-16 56-12 41 7 49 12 40 25-4 7-19 6-42-1-31-9-37-8-45 6-10 18-29 23-29 9zm2995-337c-22-6-94-42-159-80-217-123-373-185-470-186-62-1-86-7-86-22 0-6 18-47 39-92 22-45 51-128 66-190 37-158 60-221 109-308 25-43 47-96 51-120 11-75 37-177 47-183 19-12 19 5-1 67-11 35-21 80-23 99-3 34-3 34 72 63 112 42 298 122 436 187l123 58 20-31c60-97 125-266 151-389 6-32 16-58 21-58 12 0 12 7-11 103-24 103-49 171-106 287-48 99-51 110-29 110 15 0 127-181 145-234 5-17 21-82 34-144s26-116 30-119c15-16 16 10 2 69l-31 137c-17 81-24 95-100 226-48 82-55 101-74 210-22 132-33 162-115 309-31 57-62 129-71 168-10 37-20 70-24 72-3 2-24-2-46-9zm45-57c6-24 14-52 17-63s34-74 69-141c77-145 89-179 110-297 14-85 14-92-2-104-15-11-20-1-50 120-28 108-48 159-109 280-78 154-100 218-82 236 21 21 36 11 47-31zm-70-12c0-23 26-87 80-193 62-123 87-185 111-280 18-66 29-128 26-135-6-17-261-136-467-220l-145-58-21 25c-30 37-99 181-118 245l-46 170c-17 63-44 139-61 168l-29 52h39c114 0 323 85 561 226 30 18 58 33 63 34 4 0 7-15 7-34zm-90-172c0-4 13-34 30-68 16-33 37-97 46-141 17-85 51-175 65-175 13 0 11 13-11 63-11 24-27 80-35 123-15 78-68 204-86 204-5 0-9-3-9-6zm-120-40c0-20 55-243 77-309 19-60 70-138 84-129 6 4 4 14-6 27-37 51-70 139-104 278-20 82-39 149-43 149-5 0-8-7-8-16zm-210-80c0-3 17-42 39-87 21-45 46-113 56-152 21-87 41-135 54-135 15 0 14 16-4 49-8 16-22 59-31 97-19 79-88 234-103 234-6 0-11-3-11-6zm-135-24c-3-5 5-26 18-47 35-55 72-155 98-258 31-126 63-186 89-170 6 4 0 18-15 37-14 16-28 42-31 56-29 122-80 275-110 328-38 68-39 70-49 54zm255-8c0-13 81-216 89-225 5-5 11-5 14 0 7 11-83 233-94 233-5 0-9-4-9-8zm-2713 311c-27-26 19-97 50-77 25 16 26 28 3 57-21 26-40 34-53 20zm43-39c0-9-5-14-12-12-18 6-21 28-4 28 9 0 16-7 16-16zm-136 22c-7-19 3-36 22-36 10 0 14 8 12 22-4 26-26 36-34 14zm-956-321c-84-31-203-120-340-254l-87-85-163 12-297 27C12 479-12 478 4 463c7-8 168-25 419-44l158-13-56-56c-30-30-55-59-55-63 0-24 41 10 184 151 169 166 244 228 337 281 58 33 121 43 141 23 18-18 13-65-12-118-45-93-331-357-402-371-36-7-36-23 1-23 30 0 76 28 154 93l48 40 132-21c73-12 144-18 158-15 13 3 53 23 89 44 62 36 83 43 123 40 26-2 21-15-28-64-64-65-65-81-16-184 23-47 39-89 35-92-3-3-34-6-69-5-74 1-103 16-143 74-15 22-33 39-39 40-7 0-73-26-145-57-73-31-173-71-223-89-82-30-86-33-51-34 38 0 152 41 341 124l79 34 29-39c16-22 42-46 58-54 37-20 108-29 153-21 46 9 46 26 1 112-47 89-46 113 10 173 51 54 55 73 23 95-33 24-49 20-145-30-87-46-89-46-163-41-41 4-99 11-128 18l-53 11 69 71c157 163 195 283 99 317-37 12-43 12-89-5zm5101-295c-52-9-116-39-141-67-22-24-48-86-48-115 0-50 47-125 107-173 63-50 199-122 210-112 8 9 12 6-78 50-82 40-170 112-194 158-19 36-19 102 0 139 31 60 98 93 213 105 34 4 62 11 62 16 0 11-65 10-131-1zm-909-170c0-6 14-38 31-71 17-34 35-89 40-123 15-93 19-106 28-106 12 0 3 69-20 158-22 83-79 185-79 142zm-4143-53c-8-22 16-50 39-45 13 2 19 12 19 28 0 20-6 26-26 28-16 2-29-3-32-11zm43-11c0-3-4-8-10-11-5-3-10-1-10 4 0 6 5 11 10 11 6 0 10-2 10-4zM18 233c-10-2-18-10-18-16 0-8 27-12 86-13 90 0 104-7 104-49 0-11-7-31-16-43-22-32-89-30-138 3-25 17-36 20-36 11 0-25 67-58 120-59 65-1 90 21 90 79 0 54-17 71-78 79-26 3-58 8-72 10-14 1-33 1-42-2zm936-3c-44-10-54-18-54-45 0-37 37-57 82-45 47 14 61 31 49 62-11 29-33 37-77 28zm56-39c0-21-19-31-61-31-19 0-29 5-29 15 0 18 28 34 63 35 20 0 27-5 27-19zm4060 31c0-45 84-222 106-222 11 0 7 15-19 63-19 34-42 86-52 115-9 28-21 52-26 52s-9-4-9-8z"/><path d="M6237 213c-12-11-7-57 7-76 12-16 14-12 13 33-1 48-6 58-20 43zM348 179c-26-15-22-54 8-78 51-40 144-38 152 2 7 33-7 63-33 75-32 15-104 15-127 1zm126-25c40-40-7-75-73-56-71 22-61 72 15 72 25 0 49-6 58-16zm212 25c-49-12-66-25-66-54 0-35 31-55 84-55 65 0 106 23 106 58 0 15-4 33-8 40-12 17-69 23-116 11zm92-18c20-12 10-44-18-58-37-19-106-17-114 3-9 24 10 42 57 53 56 12 60 12 75 2zm4118 20c-11-18 69-181 89-181 13 0 9 13-18 63-18 34-40 77-48 96-11 24-18 31-23 22zm101-38c-8-13 49-143 63-143 17 0 11 22-24 89-18 35-36 59-39 54zm-207-29c0-6 41-106 47-113 2-2 5-2 8 1 6 6-42 118-50 118-3 0-5-3-5-6zM8 3c7-3 16-2 19 1 4 3-2 6-13 5C3 9 0 6 8 3z"/></g><g fill="#f74a73"><path d="M3797 6193c241-344 324-423 442-423 37 0 49 5 76 34 65 70 88 160 65 258-18 75-76 198-93 198-39 0-106-58-92-80 11-18-16-50-63-74-26-13-56-33-66-45-11-12-26-21-35-21-21 0-47-17-39-25 3-4 16-1 29 5l22 12-19-32c-11-19-24-35-29-36-6-2-57 64-115 146s-111 149-118 150c-7 0 8-30 35-67zm522-23c18-39 38-100 44-135 14-84-7-157-63-216-38-40-42-41-82-35-57 9-114 44-167 101l-42 46 27 47c36 64 61 89 114 118 30 17 58 45 85 84 22 33 43 60 46 60s21-32 38-70zm-509 83c0-5 4-15 10-23 11-18 25-7 17 15-6 15-27 21-27 8zm334-19c15-14 31-22 35-19 7 8-36 45-53 45-6 0 2-12 18-26zm69 19c4-3 10-3 14 0 3 4 0 7-7 7s-10-3-7-7zm-303-38c-30-32-14-32 25 0 20 16 25 24 14 25-8 0-26-11-39-25zm143-8c4-11 10-30 13-43s12-24 20-24c17 0 0 53-24 72-14 11-15 10-9-5zm-73-7c-8-5-11-12-8-15 4-4 17 0 30 9 24 17 5 23-22 6zm-130-18c0-17 30-62 41-62 15 0 10 13-16 45-13 17-24 24-25 17zm284-17c-10-8-14-15-7-15 19 0 43 11 43 21 0 13-14 11-36-6zm-129-45c16-16 33-30 39-30 5 0-3 14-19 30-16 17-33 30-39 30-5 0 3-13 19-30zm-65 5c0-19 25-75 33-75 13 0-1 52-19 70-8 8-14 10-14 5zm70-2194c-43-23-90-69-90-87 0-16-16-19-25-4-12 20-35 10-35-15 0-23-2-25-21-14-13 6-48 9-84 7-74-5-141-42-151-85-10-37 21-92 69-122 37-24 37-25 18-45-34-36-43-73-27-111 16-37 67-75 101-75 29 0 92 36 152 88l53 44v-48c0-75-8-93-37-91-33 3-52-25-34-47 38-46 82 6 89 105 6 85 20 90 85 32 67-59 137-70 137-22 0 21-35 40-57 32-15-6-17-33-3-33 6 0 10 5 10 10 0 6 7 10 15 10s15-7 15-15c0-10-10-15-30-15-22 0-44 14-87 55l-58 54 67 1c154 0 218 34 218 114 0 60-30 95-87 103-39 5-41 7-32 30 21 56 1 142-36 157-32 12-100 5-135-13zm148-18c16-22 15-85-2-126-11-27-25-37-87-62-45-17-74-24-76-18s-17 31-34 56c-23 36-28 49-20 68 31 82 178 136 219 82zm-191-193c18-39 28-77 31-130l5-75-26 23c-14 13-40 51-58 85-26 49-33 76-37 136l-4 76 31-30c17-16 43-54 58-85zm-138 77c19-9 27-26 37-76 8-36 12-66 11-67-2-2-35-16-74-32-67-27-73-28-103-14-40 19-80 67-80 95 1 37 37 71 97 93 48 17 81 17 112 1zm436-77c9-10 17-31 17-47 2-80-36-105-169-111l-93-4v30c0 16-3 43-6 60-6 28-3 31 42 52 65 29 141 48 170 42 12-2 30-12 39-22zm-338-140l31-50-46-39c-113-94-156-109-205-71s-40 106 18 144c28 19 143 65 160 65 6 0 24-22 42-49zm13-235c0-8-7-15-15-15-16 0-20 12-8 23 11 12 23 8 23-8zM0 3721c0-6 15-11 33-11 49 0 215-47 284-81 41-20 72-43 92-71 17-23 29-43 27-45s-27 10-56 27c-106 62-168 82-277 87-62 4-103 2-103-4 0-5 41-10 93-10 105 0 166-19 280-85l69-40-28-31c-16-18-48-53-72-78l-44-47-66 31c-68 32-156 46-207 33-44-11-27-24 20-14 116 25 296-67 351-178 25-51 26-61 22-153-4-73-10-110-26-143-26-52-104-120-180-155-46-22-65-25-133-21-92 4-106-7-22-18 72-9 148 6 202 40l40 26 58-58c32-32 69-65 83-74l25-16-25-20c-38-33-149-88-209-106-31-9-94-16-145-17-105-1-92-17 14-18 105-1 222 35 316 99 25 16 49 30 53 30 15 0-6-70-32-103-30-39-100-79-181-102-45-13-84-16-158-13-115 6-119-9-6-18 208-18 385 78 400 216 4 29 8 34 25 32 25-3 66 48 61 77-2 11 21 44 63 89 39 40 80 97 98 134 32 66 61 164 61 208 0 87-61 167-183 240-63 37-75 49-71 66 6 25-40 84-66 84-10 0-30 16-45 35-60 80-118 113-258 150-123 32-177 40-177 26zm519-255c17-31 9-45-77-129l-69-69-28 25-29 24 80 87c43 47 86 86 95 86s21-11 28-24zm45-121c43-57 75-135 87-218 17-113 5-192-42-286-54-109-58-111-116-68-27 19-59 47-72 60l-23 26 18 48c14 36 19 75 19 153 0 90-3 112-23 150l-23 45 68 62c37 34 71 63 74 63 4 0 19-16 33-35zm74-14c96-66 142-130 142-199 0-89-66-244-136-319l-44-48 30 62c17 33 35 87 41 119 21 116-12 291-71 372-47 66-42 68 38 13zm-131-586c24-17 45-38 48-47 7-21-22-68-41-68-34 0-136 78-176 133l-20 29 33 28 34 28 40-37c22-20 59-50 82-66zm5638 966c-51-23-86-64-131-153-19-38-39-66-45-62-35 21-100-38-80-74 8-15 0-29-46-83-120-137-166-235-167-354-1-115 51-195 183-285 37-25 51-41 51-58 0-34 55-86 83-78 18 4 26-1 42-30 29-53 95-109 160-133 32-12 60-19 63-17 3 3-4 8-14 12-59 20-123 55-148 80-24 25-66 93-66 109 0 2 22-9 48-25 83-51 182-89 182-71 0 6-8 11-19 11-27 0-181 79-188 96-4 12 36 67 112 152 9 10 19 10 49-3 53-23 57-11 4 13-55 24-123 98-156 170-37 80-37 184 0 263 34 75 85 130 147 159 28 13 51 27 51 32 0 10-32 2-72-18-15-8-31-14-37-14-5 0-40 29-78 64-66 63-67 65-48 81 51 42 114 77 165 92 61 19 85 33 54 33-33 0-130-36-170-64-21-14-40-24-42-22-6 6 28 68 59 107 34 43 83 69 133 69 20 0 36 5 36 10 0 16-72 11-115-9zm-133-258c18-15 54-48 81-72l47-45-27-28c-15-15-29-28-32-28s-32 22-63 49-72 60-90 74l-32 26 24 25c30 33 50 33 92-1zm11-145l47-43-27-65c-22-50-28-81-28-136 0-61 5-80 39-149 27-54 35-80 27-83-22-7-130-102-142-124s-13-21-50 21c-47 52-74 121-89 230-22 149 4 261 90 386l31 45 27-19c15-11 48-40 75-63zm-228-99c-24-66-29-148-16-240 16-103 43-177 88-235 38-51 33-50-45 10-125 97-159 218-103 366 20 52 80 154 87 147 2-2-3-24-11-48zm342-411l21-23-75-90c-41-49-84-94-94-99-24-12-59 18-59 50 0 34 77 121 145 165 37 24 37 24 62-3zm-897-618c-36-4-76-13-91-19-52-25-54-37-57-308-3-243-3-252 17-272 12-12 30-21 41-21 16 0 20-7 20-35 0-22 8-43 21-56 18-18 28-20 72-14 83 10 87 13 87 50v33l188-5c202-6 381 8 418 32 30 19 42 61 53 185 14 155-6 345-41 393-8 10-37 21-68 26-69 12-572 20-660 11zm692-28c33-13 44-49 59-184 12-109-2-296-26-354-18-44-38-51-181-62-173-14-588 5-652 29l-23 9 6 510 25 25c14 14 46 30 70 35 61 13 687 5 722-8zm-624-608c18-5 22-13 20-32-3-29-45-46-102-40-28 3-31 7-34 41l-3 37h48c26 0 58-3 71-6zm275 528c-110-39-173-124-173-231 1-73 25-125 87-182 72-67 104-82 186-81 93 0 203 52 245 114 33 51 43 161 19 218-62 145-218 214-364 162zm198-13c153-46 215-279 102-385-40-38-125-73-193-81-71-7-127 16-191 80-52 52-69 91-69 157 0 167 176 281 351 229zm-155-64c-76-27-135-110-136-189 0-32 6-45 38-75 43-41 125-74 182-73 52 1 136 45 155 82 33 63 7 183-49 224-61 46-122 56-190 31zm154-23c68-33 102-156 63-223-19-32-105-79-145-79-41 0-112 29-151 61-31 26-37 37-37 70 0 68 58 153 120 178 40 16 112 13 150-7zm-547-192c-40-17-47-92-12-122 25-21 111-33 138-18 28 14 29 87 3 120-20 25-92 36-129 20zm116-24c7-8 11-34 9-58-3-42-4-43-42-46-80-7-116 21-95 75 5 15 16 31 22 35 21 13 94 9 106-6zM3602 718c-51-25-41-70 48-230 33-59 60-111 60-116s-12-17-26-27c-34-22-57-78-49-119 8-36 93-202 112-217 9-8 23-5 49 12 21 13 33 24 26 27-6 2-22-4-35-13-25-16-25-16-61 43-74 123-85 188-40 241 31 38 40 39 48 6 10-39 28-31 21 9-6 32-4 36 47 74 114 85 145 88 201 19 37-45 169-248 233-359 21-37 45-68 52-68s11 3 9 8c-48 81-164 267-210 334-96 141-144 171-216 133l-28-14-56 107c-31 59-67 117-79 130-29 26-75 35-106 20zm98-35c21-27 120-217 120-230-1-13-79-65-89-59-11 7-67 106-112 197-34 68-34 98-1 115 31 15 58 7 82-23zm144-257c-10-8-16-17-13-20s14 1 25 8c10 8 16 17 13 20s-14-1-25-8zm123-16c16-28 33-39 33-22 0 13-31 52-41 52-6 0-2-13 8-30zm-63-22c3-17 8-34 11-36 11-11 16 9 10 37-9 42-29 41-21-1zm-114-5c1-15 49-67 55-61 8 7-35 68-47 68-4 0-8-3-8-7zm237-68c18-24 33-32 33-17-1 13-27 42-39 42-8 0-5-9 6-25zm-57 7c0-10 22-32 32-32 5 0 3 9-4 20-13 20-28 27-28 12zm-65-33c-4-11-4-23 0-27 7-7 25 17 25 36 0 20-18 14-25-9zm-203-24c22-33 38-45 38-26 0 13-40 61-51 61-5 0 1-16 13-35zm73 5c-8-13 15-13 35 0 12 8 11 10-7 10-12 0-25-4-28-10zm75-25c0-18 19-40 26-32 4 4 0 15-9 24-9 10-17 13-17 8zm180-19c0-14 5-26 10-26 6 0 10 9 10 19 0 11-4 23-10 26-6 4-10-5-10-19zm44 10c11-9 23-16 28-16 4 0 8-9 8-20s5-20 10-20c18 0 11 47-7 53-10 2-27 8-38 12-20 7-20 6-1-9zm-404-11c0-14 31-65 40-65 12 0-15 63-29 68-6 2-11 1-11-3z"/><path d="M3945 210c-15-16-15-20-3-20 8 0 23 9 33 20 15 16 15 20 3 20-8 0-23-9-33-20zm-185-6l-35-14 40 6c22 3 44 10 50 15 13 13-14 10-55-7zm50-54c-19-16-31-30-26-30 14 0 76 41 76 51 0 15-14 10-50-21zm185 4c-9-14-14-29-10-32 6-7 44 36 45 51 0 16-19 6-35-19zm75 11c14-7 27-11 30-9 6 7-22 24-40 23-9 0-5-6 10-14zm-175-5c-18-8-18-9 5-9 14 0 34 4 45 9 18 8 18 9-5 9-14 0-34-4-45-9zm250-32c9-27 22-44 30-36 8 7-16 58-27 58-5 0-6-10-3-22zm-415-18c11-20 30-28 30-12 0 11-22 32-32 32-5 0-4-9 2-20zm155-20c9-17 20-28 25-25 11 7-17 55-31 55-5 0-2-14 6-30zm125 20c-24-15-7-19 25-5 23 10 25 14 10 14-11 0-27-3-35-9zm-70-9c0-5 9-19 20-32 22-28 28-6 6 24-14 18-26 22-26 8zm-130-11c0-11 48-25 56-17 3 2-9 9-25 15-18 7-31 7-31 2zm300 2c0-5 7-17 15-28 15-19 20-8 9 20-6 17-24 22-24 8zm84-27c11-8 25-15 30-15 6 0 2 7-8 15-11 8-25 15-30 15-6 0-2-7 8-15zm-296-32c-21-8-38-19-38-24 0-10 69 16 85 32 13 13-3 11-47-8zm237 2c-23-10-25-13-10-13 28-1 61 13 49 20-5 3-22 0-39-7z"/><path d="M4190 38c0-17 18-44 24-37 8 7-5 49-15 49-5 0-9-6-9-12zm-210-18c13-24 35-27 26-4-3 9-6 18-6 20s-7 4-15 4c-13 0-14-4-5-20zm70 10c8-5 24-9 35-9h20l-20 9c-11 5-27 9-35 9-13 1-13 0 0-9z"/></g></svg>