<!DOCTYPE svg PUBLIC "-//W3C//DTD SVG 20010904//EN" "http://www.w3.org/TR/2001/REC-SVG-20010904/DTD/svg10.dtd">
<svg version="1.0" xmlns="http://www.w3.org/2000/svg" width="509px" height="720px" viewBox="0 0 5090 7200" preserveAspectRatio="xMidYMid meet">
 <g id="layer101" fill="none" stroke-width="5" stroke="black">
  <path d="M1.76 3.52L3773.11 3.52L4745.39 3.52L4996.81 3.52L5061.87 3.52L5085.43 5.32L5088.24 26.37L5088.24 89.67L5088.24 344.61L5088.24 1388.98L5088.24 5652.63L5088.24 6820.07L5088.24 7104.9L5088.24 7175.23L5085.43 7199.79L5061.87 7201.6L4996.81 7201.6L4745.39 7201.6L3773.11 7201.6L1.76 7201.6M2371.82 5482.08L2399.95 5510.21L2398.19 5511.97C2377.92 5491.7 2363.55 5461.12 2333.14 5455.13C2324.66 5453.47 2317.01 5457.5 2308.52 5457.43C2299.96 5457.36 2281.64 5452.51 2275.17 5460.52C2271.3 5465.32 2273.36 5476.31 2273.36 5482.08C2273.36 5501.37 2274.13 5520.83 2273.29 5540.1C2270.02 5614.96 2268.96 5690.18 2268.08 5765.15C2266.87 5866.67 2247.88 5969.7 2252.33 6071.08C2254.11 6111.83 2263.46 6151.85 2267.78 6192.39C2278.88 6296.02 2289.16 6404.71 2281.99 6508.87C2279.97 6538.29 2268.79 6567.75 2263.55 6596.78C2253.26 6653.87 2242.24 6711.29 2236.73 6769.08C2234.4 6793.73 2237.45 6818.1 2234.18 6842.93C2231.16 6865.89 2226.5 6888.57 2223.39 6911.5C2221.97 6921.92 2221.88 6936.2 2229.89 6944.24C2239.44 6953.8 2251.22 6950.41 2262.81 6953.7L2262.81 6955.45L2235.73 6964.26L2225.89 7015.23C2185.75 7000.5 2137.73 7009.15 2095.78 7006.28C1981.13 6998.42 1864.45 7002.93 1749.41 7002.93C1402 7002.93 1054.35 7001.17 706.8 7001.17L328.78 7001.17L235.6 7001.17C228.41 7001.17 208.93 7004.58 204 6998.35C199.69 6992.9 202.19 6979.59 202.19 6973.04L202.19 6906.22L202.19 6646.01L202.19 5638.56L202.19 1730.07L202.19 562.63L202.19 288.35L202.19 223.29C202.19 217.01 199.87 205.09 207.73 202.75C217.42 199.87 230.8 202.19 240.87 202.19L309.44 202.19L538.01 202.19L1283.49 202.19C2100.42 202.19 2917.39 203.95 3734.42 203.95L4578.36 203.95L4801.65 203.95C4821.56 203.95 4841.53 203.49 4861.43 203.98C4868.24 204.14 4881.51 203.69 4887.24 207.52C4897.23 214.18 4891.32 252.6 4891.32 263.73L4891.32 432.52L4891.32 1134.04L4891.32 2753.35C4891.32 2987.05 4887.33 3221.36 4893.06 3454.87C4894.63 3519.36 4892.1 3583.87 4894.91 3648.27C4896.19 3677.49 4894.35 3713.26 4902.51 3741.46C4909.26 3764.84 4928.81 3784.6 4936.67 3808.27C4945.53 3834.92 4946.2 3863.67 4952.65 3890.9C4958.79 3916.79 4970.49 3940.54 4976.3 3966.51C4997.55 4061.5 4993.3 4163.9 4993.3 4260.13C4993.3 4316.92 4990.19 4372.76 4972.8 4427.16C4968.75 4439.83 4970.2 4465.06 4961.65 4472.87L4965.17 4458.8M2964.33 1803.92L2964.33 1795.13L2966.09 1793.37L2967.85 1793.37L2969.61 1795.13C2968.45 1802.83 2963.42 1808.63 2961.85 1816.22C2954.98 1849.95 2952.32 1884.48 2945.03 1918.2C2941.11 1936.38 2939.66 1958.76 2929.17 1974.46L2927.41 1972.7C2912.34 1919.08 2928.08 1861.3 2914.68 1807.43C2912.17 1797.32 2905.12 1789.48 2902.62 1779.3C2899.21 1765.38 2900.95 1750.5 2895.16 1737.11C2889.8 1724.67 2878.9 1716.11 2873.54 1703.7C2869.9 1695.25 2870.36 1685.73 2866.7 1677.33C2860.42 1662.93 2845.69 1654.55 2841.71 1638.65C2836.91 1619.39 2860.77 1634.39 2860.18 1619.27C2859.38 1599.23 2838.13 1586.77 2834.73 1566.56C2828.42 1529.19 2833.26 1489.73 2835.82 1452.28C2837.92 1421.73 2837.78 1389.13 2844.19 1359.09C2851.21 1326.25 2881.5 1306.16 2892.25 1274.7L2906.31 1287.01L2908.07 1285.25C2908.07 1266.39 2905.27 1245.25 2911.74 1227.23C2922.05 1198.53 2948 1179.17 2963.22 1153.38C2967.85 1145.56 2968.27 1136.68 2972.37 1128.87C2976.01 1121.91 2984.18 1119.72 2988.31 1112.91C2994.59 1102.53 2996.35 1090.04 3002.59 1079.54C3018.13 1053.34 3040.53 1031.01 3064.55 1012.53C3093.54 990.21 3128.09 982.89 3157.73 962.86C3171.36 953.65 3180.06 939.38 3192.9 929.12C3220.5 907.05 3255.72 889.23 3289.6 879.17C3309.7 873.2 3320.51 885.11 3338.83 882.38C3368.49 877.97 3396.66 869.95 3426.74 867.09C3445.24 865.34 3462.68 870.73 3481.24 865.95C3495.8 862.21 3504.26 849.85 3518.17 845.32C3554.07 833.61 3584.66 863.12 3616.63 873.64C3628.83 877.66 3638.09 869.22 3650.03 868.62C3682.87 866.99 3759.99 879.79 3752.01 924.82L3753.76 926.57L3795.96 893.17L3797.72 894.93C3790.51 923.42 3824.18 909.88 3839.92 913.44C3850.15 915.75 3856.69 924.08 3866.29 927.48C3888.95 935.5 3914.92 932.41 3938.38 938.68C3989.15 952.26 4035.17 981.17 4072 1018L4066.73 1023.27C4052.41 1012.87 4035.76 1002.3 4019.25 995.76C4009.72 991.99 4002.22 996.6 4003.85 1007.45C4005.96 1021.33 4018.94 1019.6 4028.04 1025.93C4052.13 1042.69 4077.1 1056.78 4101.89 1072.6C4120.4 1084.42 4123.13 1103.02 4138.81 1115.55C4158.22 1131.04 4189.03 1134.83 4204.22 1155.3C4213.82 1168.26 4208.35 1186 4218.62 1199.09C4231.12 1215.01 4258.16 1218.66 4267.16 1236.02L4249.58 1236.02L4247.82 1237.78L4247.82 1239.53C4269.22 1254.77 4290.53 1264.28 4307.6 1285.25C4299.92 1290 4294.8 1287.21 4286.5 1285.25L4284.74 1287.01L4313.28 1322.17L4316.9 1336.12L4298.81 1334.48L4297.05 1336.23C4306.7 1358.6 4325.95 1374.9 4337.7 1396.01C4344.17 1407.63 4336.15 1414.3 4338.4 1425.9C4342.5 1447.06 4358.22 1467.1 4356.65 1489.2C4354.42 1520.9 4318.89 1536.3 4323.95 1571.83C4330.19 1615.63 4335.63 1660.07 4343.2 1703.7C4347.35 1727.54 4357.69 1749.59 4350.8 1774.03C4344.28 1797.22 4331.32 1817.86 4320.36 1839.08C4302.94 1872.82 4285.9 1906.88 4269.38 1941.06C4247.68 1985.89 4237.27 2032.75 4211.92 2076.44C4202.83 2092.09 4193.42 2108.12 4181.96 2122.15C4173.2 2132.84 4160.46 2142.78 4154.71 2155.56C4148.5 2169.36 4163.58 2177.99 4173.98 2183.25C4192.93 2192.87 4194.42 2206.65 4207.96 2220.01C4213.03 2225.01 4223.21 2227.08 4225.03 2234.75C4227.27 2244.08 4215.77 2251.1 4209.14 2254.97C4187.83 2267.34 4163.06 2266.68 4140.57 2275.12L4140.57 2276.87C4156.06 2291.7 4197.83 2315.73 4191 2341.86C4188.18 2352.63 4173.36 2351.54 4165.18 2355.85C4146.5 2365.68 4129.21 2381.82 4114.2 2396.45C4110.15 2400.39 4092.9 2413.29 4097.93 2419.99C4101.98 2425.34 4116.71 2422.96 4122.99 2426.32C4112.1 2443.62 4119.17 2466.5 4091.34 2468.52M4073.76 1021.52L4068.48 1023.27M4073.76 1025.03L4082.55 1032.07M4239.03 1236.02L4247.82 1237.78M4309.36 1288.76L4304.08 1290.52M3301.91 1378.43L3298.39 1373.16L3300.15 1373.16C3315.99 1381.42 3350.05 1387.58 3365.2 1376.67L3366.96 1376.67L3368.72 1381.95L3370.48 1381.95L3372.23 1381.95L3373.99 1380.19L3370.48 1374.92L3372.23 1373.16C3381.9 1370.98 3388.67 1357.71 3398.61 1357.64C3404.66 1357.61 3411.94 1363.84 3417.95 1365.6C3436.2 1370.96 3456.33 1376.31 3474.21 1378.63C3479.05 1379.26 3483.3 1375.82 3488.28 1376.27C3504.36 1377.73 3519.78 1382.5 3535.75 1383.61C3600.1 1388.11 3661.04 1388.21 3718.6 1422.39L3720.36 1422.39L3720.36 1420.63L3715.08 1415.35M3402.12 1359.09L3393.33 1360.85M3402.12 1364.37L3405.64 1362.61M3120.81 1374.92L3117.3 1369.64L3115.54 1371.4L3113.78 1373.16C3122.32 1377.71 3135.55 1386.39 3145.43 1386.04C3156.8 1385.65 3169.44 1375.2 3182.35 1373.66C3197.63 1371.83 3215.02 1374.18 3229.82 1370.12C3244.59 1366.08 3283.73 1361.2 3294.87 1374.92M3280.81 1369.64C3274.27 1379.72 3242.11 1374.51 3231.58 1371.4M3449.6 1369.64L3474.21 1374.98L3493.55 1380.19M2967.85 1793.37C2968.16 1681.72 2998.95 1574.59 3043.7 1473.37C3055.35 1446.99 3068.98 1422.63 3086.3 1399.53C3094.23 1388.97 3101.08 1378.14 3113.78 1373.16M3134.88 1383.71L3154.22 1376.67M3282.57 1376.67L3293.12 1376.67M3375.75 1376.67L3373.99 1378.43M3131.36 1378.43L3136.64 1378.43M3497.07 1380.19L3509.37 1381.95M3516.41 1381.95L3526.96 1383.71M3363.44 1383.71L3366.96 1383.71M3722.12 1417.11C3751.11 1427.36 3780.68 1438.7 3810.03 1447.83C3844.14 1458.43 3871.71 1451 3890.9 1489.2L3892.66 1490.96L3894.42 1489.2L3896.18 1487.44L3890.9 1485.68M3727.39 1420.63L3722.12 1424.15M3734.42 1422.39L3729.15 1425.9M3741.46 1422.39L3732.67 1425.9M3746.73 1424.15L3737.94 1427.66M3744.97 1431.18C3765.02 1435.93 3785.13 1454.64 3806.51 1448.76M3897.94 1490.96L3899.7 1499.75L3896.18 1492.71M3892.66 1492.71L3894.42 1494.47M3903.21 1497.99L3901.45 1503.26L3903.21 1505.02L3904.97 1506.78L3903.21 1501.51M3897.94 1501.51L3899.7 1503.26M3908.49 1505.02L3910.25 1510.3L3904.97 1508.54M3910.25 1510.3C3927.42 1529.44 3934.65 1557.6 3939.11 1582.38C3949.89 1641.95 3947.43 1704.55 3926.6 1761.72C3921.15 1776.7 3909.66 1786.56 3903.21 1800.4L3904.97 1802.16C3937.39 1788.99 3941.88 1753.69 3941.89 1723.04M3460.15 1587.66L3500.58 1587.66M3474.21 1589.42L3488.28 1587.66M3901.45 1802.16L3906.73 1803.92M3903.21 1807.43L3919.04 1858.42L3917.28 1860.18L3903.21 1854.9C3889.22 1881.59 3902.98 1915.07 3904.88 1942.82C3908.19 1991.32 3909.81 2040.03 3911.93 2088.75C3913.18 2117.23 3912.57 2150.13 3924.31 2176.66L3940.13 2178.41L3941.89 2178.41L3936.62 2171.38M2967.85 1809.19C2960.97 1877.04 2944.71 1943.52 2938.26 2011.39C2928.27 2116.4 2932.68 2224.07 2932.68 2329.62L2932.68 2457.97C2932.68 2477.94 2929.15 2501.73 2933.37 2521.26C2937.73 2541.47 2952.92 2562.6 2962.13 2581.04C2982.88 2622.52 3004.26 2663.71 3023.57 2705.88C3029.86 2719.61 3036.29 2733.73 3041.08 2748.07C3043.1 2754.17 3042.52 2763.05 3045.53 2768.45C3050.64 2777.59 3062.49 2783.66 3068.29 2793.79C3081.2 2816.34 3089.81 2840.68 3104.55 2862.36C3137.46 2910.85 3193.78 2954.64 3254.44 2958.9C3294.17 2961.68 3329.99 2949.25 3363.44 2928.41C3381.01 2917.49 3398.13 2900.32 3417.95 2894L3419.71 2895.76C3412.18 2915.31 3393.4 2931.08 3380.02 2946.75C3376.05 2951.39 3366.03 2960.27 3368.26 2967.29C3370.71 2974.99 3386.35 2969.94 3391.57 2968.9C3415.93 2964.03 3440.1 2957.53 3463.66 2949.69C3565.39 2915.77 3642.56 2842.42 3723.88 2776.2L3725.63 2777.96C3705.2 2818.65 3657.59 2851.96 3621.9 2878.83C3578.05 2911.87 3531.18 2944.08 3479.49 2963.58C3401.6 2992.97 3305.51 2995.21 3224.55 2978.75C3158.86 2965.39 3102.21 2914.82 3072.92 2855.32C3066.25 2841.82 3064.94 2826.61 3058.66 2813.13C3056.95 2809.47 3051.66 2800.64 3047.28 2806.76C3042.54 2813.37 3048.46 2823.39 3048.18 2830.62C3048 2834.79 3044.77 2837.69 3044.54 2841.71C3043.61 2858.91 3052.12 2880.06 3054.09 2897.52C3059.03 2941.53 3067.43 2989.6 3083.1 3031.14C3087.3 3042.26 3095.72 3050.55 3101.03 3061.03C3113.5 3085.58 3124.75 3110.97 3138.39 3134.88C3150.82 3156.64 3168.42 3198.61 3194.66 3206.58C3203.87 3209.37 3214.4 3198.61 3221.03 3193.51C3242.2 3177.23 3265.02 3163.15 3287.84 3149.29C3342.71 3115.98 3396.8 3081.52 3451.35 3047.71C3469.32 3036.58 3492.58 3029.65 3509.22 3017.61C3516.25 3012.49 3520.47 3004.07 3526.97 2998.25C3540.16 2986.47 3555.77 2977.75 3567.45 2964.31C3575.24 2955.33 3575.87 2942.27 3586.74 2935.78C3597.04 2929.64 3596.05 2940.3 3593.77 2946.75L3593.77 2948.51L3595.53 2948.51C3607.76 2942.04 3605.88 2928.87 3615.38 2919.37C3639.64 2895.08 3685.02 2859.96 3720.36 2857.08C3724.26 2843.53 3752.59 2845.64 3739.7 2828.95C3735.29 2834.63 3734.34 2836.72 3737.94 2843.02M2990.7 1853.15C3025.34 1808.63 3070.72 1809.77 3120.51 1817.67C3128.35 1818.91 3133.38 1814.66 3141.91 1818.14C3157.8 1824.66 3170.31 1840.08 3184.11 1850.07C3199.3 1861.08 3213.36 1872.73 3226.15 1886.55C3230.59 1891.37 3237.84 1898.61 3236.69 1905.89C3234.66 1918.97 3221.91 1917.88 3214 1911.82C3171.11 1878.92 3129.67 1869.02 3076.86 1863.99C3051.4 1861.57 3012.81 1867.62 2990.7 1853.15M3119.05 1812.71L3126.09 1816.22M3126.09 1821.5C3135.9 1824.17 3144.6 1830.27 3154.22 1825.02M3155.98 1828.53L3150.7 1830.29M3157.73 1830.29L3154.22 1832.05M2960.82 1832.05L2964.33 1832.05M3159.49 1835.56L3161.25 1835.56M2959.06 1844.36L2962.57 1844.36M3003.01 1844.36L3004.77 1854.9M2997.74 1846.11L3001.25 1849.63M3912 1847.87L3913.76 1854.9M2957.3 1856.66L2960.82 1860.18M3910.25 1858.42L3904.97 1934.02M2955.54 1868.97L2959.06 1872.49M2953.78 1879.52L2957.3 1883.04M3449.6 1900.62L3442.56 1900.62L3442.56 1898.86L3444.32 1897.1C3457.19 1898 3468.2 1887.48 3481.24 1885.3C3520.4 1878.75 3561.22 1881.28 3600.8 1881.28C3614.34 1881.28 3635.97 1877.2 3648.27 1883.35C3684.93 1901.66 3706.35 1946.37 3737.94 1970.95L3736.18 1972.7L3730.91 1969.19M2952.02 1890.07L2955.54 1893.59M3453.11 1895.34L3458.39 1891.83M3449.6 1893.59L3449.6 1895.34M3061.03 1995.56L3066.31 1997.32L3066.31 1999.08L3064.55 2000.84C3053.74 1989.79 3034.17 1970 3033.85 1953.36C3033.68 1943.94 3042.76 1935.03 3048.8 1928.75C3064.8 1912.06 3083.36 1898.9 3106.75 1895.85C3156.87 1889.33 3208.72 1931.09 3240.07 1965.67C3248.84 1975.34 3265.76 1989.27 3268.71 2002.49C3271.21 2013.6 3255.09 2002.01 3252.04 2008.5C3248.02 2017.15 3256.9 2029.76 3254.44 2039.52C3236.59 2031.83 3216.04 2022.43 3196.41 2020.37C3153.73 2015.89 3115.84 2024.82 3078.61 1996.44C3069.88 1989.78 3059.06 1981.32 3058.76 1969.19C3058.1 1942.08 3109.38 1924.99 3129.6 1935.78C3119.49 1947.39 3107.64 1961.19 3110.91 1977.98C3114.06 1994.17 3144.78 2017.43 3161.25 2009.06C3173.89 2002.65 3184.37 1986.86 3185.48 1972.7C3186.25 1962.63 3181.73 1955.53 3187.62 1946.33L3180.59 1948.09M2950.27 1900.62L2953.78 1904.13M3442.56 1900.62L3442.56 1907.65L3440.8 1909.41L3437.29 1909.41L3435.53 1909.41L3437.29 1904.13M3444.32 1902.38L3440.8 1905.89M2948.51 1909.41L2952.02 1912.93M3435.53 1909.41L3403.88 1944.57L3405.64 1946.33C3420.27 1943.48 3436.76 1954.72 3449.6 1960.4L3451.35 1958.64L3453.11 1956.88C3437.8 1950.6 3424.17 1963.26 3409.16 1948.09M3240.37 1911.17C3237.89 1916.99 3236.24 1919.18 3229.82 1918.2M3235.09 1912.93L3238.61 1916.44M3131.36 1935.78C3147.4 1924.18 3168.86 1921.87 3178.83 1942.82M3410.92 1937.54L3410.92 1946.33M3189.38 1946.33L3222 1977.06L3215.75 2020.18C3235.87 2014.66 3245.5 1989.79 3224.55 1977.98M3416.19 1946.33L3410.92 1951.61M3220.15 1949.85L3219.57 1951.61L3220.15 1949.85M3419.71 1948.09L3414.43 1953.36M3454.87 1956.88C3483.07 1965.21 3508.57 1950.11 3535.75 1948.25C3555.12 1946.91 3575.45 1955.54 3593.77 1953.36L3595.53 1955.12L3588.49 1955.12M3208.72 1956.88L3215.75 1955.12L3214 1965.67M3514.65 1955.12C3530.56 1959.82 3567.29 1959.83 3583.22 1955.12M3597.28 1955.12L3667.61 1973.3L3713.33 1993.8L3715.08 1995.56L3713.33 1997.32L3709.81 1997.32L3709.81 1999.08L3711.57 2000.84L3715.08 2000.84L3716.84 1999.08L3718.6 1997.32L3716.84 1995.56M3108.5 1976.22C3101.1 1971.39 3104.46 1965.23 3110.26 1960.4M3212.24 1970.95L3210.48 1977.98L3219.27 1977.98M3484.76 2055.34C3497.17 2072.96 3516.94 2090.75 3537.51 2098.06C3542.06 2099.68 3561.75 2105.24 3561.75 2095.59C3561.75 2084.86 3538.65 2073.4 3535.26 2060.61C3532.18 2049.01 3551.94 2016.87 3539.05 2012.62C3513.47 2004.14 3496.8 2045.85 3479.12 2052.46C3467.64 2056.73 3445.8 2041.64 3448.82 2028.97C3453.5 2009.26 3487.33 1992.52 3504.1 1984.63C3558.71 1958.96 3611.97 1976.89 3653.55 2016.73C3673.2 2035.56 3688.71 2055.59 3688.71 2083.47L3686.95 2085.23L3685.2 2085.23L3660.58 2074.68L3658.82 2074.68L3660.58 2079.96M3737.94 1972.7C3744.04 1980.12 3761.55 2014.2 3742.99 2018.73C3733.77 2020.98 3721.13 2008.11 3715.08 2002.59M3739.7 1974.46L3734.42 1976.22M3736.18 1977.98C3738.87 1992.45 3738.1 2005.5 3720.36 1999.08M3064.55 1988.53L3064.55 1993.8M3903.21 1990.29C3903.21 2036.37 3896.2 2085.19 3902.19 2130.94C3904.48 2148.35 3902.09 2167.87 3920.79 2176.66M3577.94 2009.63L3600.8 2018.42C3599.17 1996.76 3572.04 2013.9 3572.04 2000.84C3572.04 1986.33 3594.1 1994.86 3600.8 1997.43C3628.86 2008.19 3686.06 2039.85 3658.82 2074.68M3713.33 1993.8L3713.33 1997.32M3706.29 1995.56L3709.81 1999.08M3574.43 2009.63L3546.3 2023.69M3604.32 2020.18C3618.66 2014.78 3630.2 2025.06 3635.97 2037.76L3634.21 2039.52L3600.8 2018.42M3222.79 2018.42L3226.3 2027.21M3548.06 2018.42L3551.57 2021.93M3217.51 2021.93L3217.51 2025.45M3613.11 2034.24C3621.39 2070.37 3599.71 2090.5 3563.88 2090.5M4066.73 2060.61L4059.69 2062.37C4077.75 2044.62 4116.9 2031.62 4140.57 2041.24C4147.04 2043.88 4155.16 2042.05 4157.52 2050.15C4167.52 2084.58 4146.78 2119.22 4135.75 2150.13C4133.92 2155.29 4136.05 2160.67 4134.17 2166.11C4126.52 2188.23 4112.65 2205.54 4102.33 2225.89C4068.22 2293.08 4028.19 2358.93 3978.31 2415.77C3957.68 2439.28 3920.57 2448.33 3905.67 2475.55C3894.32 2496.37 3896.79 2522.81 3893.91 2545.88C3892.01 2561.25 3887.27 2572.96 3890.4 2588.08C3892.1 2596.34 3890.01 2613.25 3898.43 2618.28C3909.79 2625.07 3920.07 2600.19 3932.91 2603.78C3944.06 2606.89 3935.9 2629.09 3947.4 2628.95C3960.79 2628.8 3974.84 2606.94 3985.85 2600.26C3997.7 2593.05 4011.27 2595.07 4022.7 2589.03C4030.38 2584.96 4033.39 2576.44 4042.11 2573.66C4058.55 2568.44 4071.61 2569.09 4086.07 2557.36C4102.21 2544.26 4118.01 2523.34 4125.26 2503.68C4127.98 2496.26 4130.78 2484.64 4125.45 2477.71C4120.25 2470.96 4109.38 2471.05 4101.89 2468.52M4142.33 2037.76L4149.36 2041.27M4145.84 2039.52L4145.84 2043.03M3637.72 2041.27L3662.34 2067.65M4147.6 2046.55L4156.39 2055.34M4133.54 2113.36C4128.02 2094.69 4133.57 2065.34 4103.65 2075.63C4098.83 2077.3 4094.19 2079.53 4089.58 2081.71L4086.07 2078.2C4097.83 2061.85 4137.58 2037.18 4146.85 2071.16C4151.51 2088.29 4137.44 2104.85 4133.54 2120.39M3263.23 2055.34L3264.98 2055.34L3266.74 2057.1C3266.74 2086.64 3255.77 2122.91 3231.58 2141.49C3215.77 2119.51 3238.03 2099.84 3249.21 2083.4C3255.16 2074.65 3257.05 2064.08 3263.23 2055.34M3655.31 2062.37C3641.56 2079.67 3613.46 2106.15 3588.49 2099.3L3590.25 2090.5M4057.93 2065.89L4052.66 2069.41L4050.9 2067.65L4057.93 2064.13M4049.14 2071.16L4043.87 2074.68L4042.11 2072.92L4049.14 2069.41M4042.11 2072.92L4010.46 2090.5C4015.81 2099.52 4021.06 2109.56 4027.11 2118C4029.4 2121.2 4034.44 2121.03 4035.02 2116.47C4036.13 2107.58 4022.75 2096.59 4021.01 2086.99M4084.31 2076.44L4079.03 2083.47L4080.79 2085.23L4082.55 2079.96M3653.55 2079.96L3655.31 2079.96M3475.97 2081.71C3491.42 2085.39 3509.46 2095.01 3516.41 2109.84C3502.39 2112.55 3476.62 2096.5 3475.97 2081.71M4079.03 2083.47L4073.76 2088.75M3453.11 2097.54C3474.53 2106.79 3488.24 2125.3 3504.1 2141.49L3498.83 2146.77L3451.35 2101.05L3453.11 2097.54M3458.39 2099.3L3454.87 2102.81M4003.43 2123.91L3984.09 2139.73L3982.33 2139.73C3986.62 2118 4006.16 2122.54 4024.53 2122.15M3194.66 2132.7L3196.41 2132.7C3201.27 2149.25 3188.7 2169.2 3195.96 2185.18C3201.72 2197.84 3220.31 2180.21 3228.01 2191.48C3232.84 2198.56 3226.76 2211.86 3224.14 2218.85C3215.24 2242.68 3201.41 2266.2 3185.09 2285.66C3173.36 2299.68 3160.3 2312.35 3145.43 2323.03C3141.47 2325.88 3134.02 2332.35 3128.74 2329.37C3116.77 2322.66 3129.66 2288.2 3132.38 2278.63C3146.62 2228.72 3168.49 2177.54 3194.66 2132.7M3982.33 2139.73C3974.95 2148.77 3965.94 2159.94 3954.2 2162.59L3952.44 2164.35L3955.96 2169.62L3954.2 2171.38L3945.41 2167.87L3943.65 2169.62L3943.65 2171.38L3945.41 2173.14L3947.17 2174.9L3945.41 2176.66M3505.86 2145.01L3500.58 2146.77M4140.57 2146.77L4137.05 2155.56M4131.78 2157.32L4135.3 2164.35M4130.02 2162.59L4133.54 2167.87M4130.02 2164.35L4131.78 2173.14M3948.93 2166.11L3948.93 2174.9M3957.72 2166.11L3955.96 2167.87M4124.75 2171.38L4130.02 2176.66M4124.75 2174.9L4128.26 2180.17M3926.07 2176.66L3936.62 2178.41M4124.75 2176.66L4126.5 2185.45M4003.43 2273.36C3986.81 2254.84 3980.27 2226.03 3991.79 2203.03C3995.17 2196.26 4003.18 2182.86 4012.22 2184.06C4022.37 2185.39 4032.46 2202.4 4037.82 2210.06C4060.91 2243.01 4041.21 2274.78 4012.22 2295.93C4003.78 2302.09 3983.07 2316.94 3972.12 2310.23C3965.96 2306.45 3969 2299.26 3972.01 2294.46C3980.66 2280.67 3992.93 2282.62 4003.43 2273.36M4119.47 2185.45L4124.75 2188.96M4117.71 2188.96L4122.99 2192.48M4115.96 2190.72L4121.23 2196M4115.96 2194.24L4119.47 2199.51M4114.2 2197.75L4117.71 2203.03M4112.44 2201.27L4115.96 2206.55M4110.68 2204.79L4114.2 2210.06M4110.68 2206.55L4107.16 2211.82M4131.78 2273.36L4140.57 2275.12M4005.19 2276.87L4001.67 2280.39M3407.4 2368.3C3393.84 2390.72 3371.18 2408.18 3344.1 2408.74M3407.4 2373.57C3407.33 2398.28 3391.07 2414.61 3365.2 2406.98M3098.15 2378.46C3114.17 2372.4 3141.66 2392.28 3115.54 2402.66C3109.79 2404.92 3102.12 2407.68 3096.46 2403.85C3088.67 2398.56 3088.65 2382.07 3098.15 2378.46M3226.3 2417.53L3226.3 2419.29C3193.62 2442.55 3149.26 2450.06 3110.26 2454.73C3096.57 2456.37 3078.86 2459.39 3066.31 2452.69C3078.58 2438.65 3102.3 2443.02 3119.05 2438.8C3157.51 2429.15 3187.41 2385.57 3226.3 2417.53M3899.7 2482.58C3895.93 2465.21 3906.29 2454.35 3922.55 2450.94M3064.04 2519.56C3068.05 2515.78 3078.83 2517.75 3083.89 2517.75C3104.51 2517.75 3125.08 2520.79 3145.43 2524.06C3223.91 2536.67 3302.17 2545.74 3381.03 2555.18C3403.21 2557.83 3425.91 2559.01 3447.84 2563.46C3454.34 2564.8 3470.43 2567.42 3462.99 2577.23C3450.74 2593.44 3423.4 2604.25 3405.64 2613.13C3329.41 2651.25 3226.18 2649.1 3147.18 2617.17C3116.19 2604.64 3095.42 2576.31 3077.44 2549.4C3074.15 2544.45 3057.76 2525.43 3064.04 2519.56M3892.66 2572.25L3890.9 2582.8M3885.63 2582.8C3883.36 2600.91 3886.53 2628.88 3895.46 2645.2C3897.92 2649.7 3904.55 2651.44 3908.12 2655.12C3914.01 2661.18 3917.72 2670.06 3921.02 2677.74C3928.28 2694.71 3930.76 2713.1 3936.62 2730.49C3946.69 2760.31 3961.46 2790.41 3978.82 2816.64C3987.52 2813.23 3992.04 2820.74 3997.26 2827.35C4008.41 2841.49 4011.36 2859.86 4021.19 2874.66C4034.13 2894.13 4056.97 2905.38 4077.27 2915.54C4112.1 2932.97 4147.94 2948.24 4182.77 2965.65C4230.27 2989.42 4280 3012.47 4318.08 3050.55C4350.57 3083.05 4371.14 3124.73 4406.06 3155.47C4455.78 3199.25 4511.83 3235.34 4562.54 3278.07C4629.84 3334.77 4689.22 3400.88 4740.28 3472.45C4800.34 3556.65 4830.74 3660.35 4898.36 3739.7M3788.93 2626.76C3748.31 2676.83 3707.38 2721.1 3655.31 2760.15C3641.4 2770.58 3617.49 2795.19 3599.04 2790.27L3595.53 2793.79L3595.53 2795.54L3597.28 2797.3L3600.8 2792.03M3628.93 2632.03L3611.35 2646.1C3613.07 2662.73 3589.37 2680.7 3576.19 2688.29L3574.43 2686.54C3581.72 2672.49 3596.72 2658.67 3609.59 2649.61M3778.38 2635.55L3783.65 2632.03M3778.38 2635.55L3773.11 2640.82M3602.56 2788.51L3706.29 2705.58L3773.11 2640.82M3616.63 2647.85L3614.87 2649.61M3894.42 2647.85C3878.05 2662.31 3877.54 2684.83 3867.59 2704.12C3851.29 2735.71 3830.39 2763.63 3807 2790.27C3797.05 2801.63 3775.53 2827.09 3759.04 2823.68L3757.28 2825.43C3756.77 2832.18 3755.66 2835.31 3748.49 2834.22M3574.43 2688.29L3562.12 2700.6M3753.76 2748.07L3727.39 2777.96M3723.88 2774.45L3729.15 2772.69M3887.39 2781.48L3889.15 2783.24C3883.49 2803.42 3856.74 2824.94 3844.61 2843.02C3813.19 2889.85 3776.48 2931.93 3738.1 2973.12C3719.87 2992.71 3701.63 3015.83 3678.16 3029.39L3676.4 3029.39C3678.76 3002.87 3691.56 2965.49 3708.63 2944.99C3732.3 2916.58 3766.04 2895.46 3792.45 2869.39C3821.79 2840.38 3851.4 2802.28 3887.39 2781.48M3767.83 2823.68C3767.37 2817.84 3769.04 2816.52 3774.86 2816.64M3759.04 2823.68L3764.31 2820.16M3989.36 2820.16C3912.25 2876.65 3877.3 2962.43 3823.85 3038.18C3805.56 3064.06 3786.03 3088.97 3764.24 3112.02C3752.57 3124.4 3736.45 3134.82 3727.39 3148.94L3718.6 3150.7C3722.03 3164.26 3696.04 3183.1 3685.2 3189.38L3683.44 3189.38L3683.44 3187.62L3690.47 3185.87M3741.46 2828.95L3755.52 2827.19M3764.31 2828.95L3759.04 2830.71M3748.49 2830.71L3748.49 2834.22M2901.04 3971.78L2902.79 3982.33L2904.55 3984.09L2906.31 3982.33C2907.45 3974.86 2903.15 3968.81 2902.83 3961.23C2901.9 3938.64 2901.88 3915.26 2902.86 3892.66C2903.29 3882.8 2901.77 3863.35 2915.1 3864.53C2919.29 3850.36 2912.32 3839.5 2912.55 3825.85C2913.03 3799.18 2918.25 3772.81 2923.54 3746.73C2935.67 3687.02 2953.69 3628.63 2966.83 3569.15C2972.61 3543.01 2983.87 3511.55 2978.75 3484.76C2953.85 3354.71 2848.36 3227.02 2878.2 3089.16C2885.35 3056.11 2905.06 3029.1 2922.7 3001.25C2946.27 2964 2969.1 2926.32 2992.13 2888.73C3001.5 2873.43 3020.05 2820.99 3043.45 2837.74M3732.67 2837.74L3729.15 2844.77M3730.91 2846.53C3727.11 2864.92 3703.67 2870.72 3690.47 2880.82C3683.1 2886.46 3678.95 2895.09 3669.37 2890.49L3667.61 2892.25C3669.58 2905.75 3640.91 2924.21 3628.93 2918.62L3627.17 2920.38L3627.17 2922.13L3630.69 2925.65L3632.45 2918.62M3678.16 2886.97L3683.44 2883.45M3672.89 2897.52L3672.89 2888.73L3674.65 2886.97L3676.4 2888.73L3678.16 2890.49M3664.1 2902.79L3662.34 2895.76L3664.1 2894L3669.37 2899.28L3669.37 2897.52L3669.37 2895.76M3658.82 2897.52L3658.82 2906.31M3653.55 2901.04L3653.55 2909.83M3648.27 2904.55L3648.27 2913.34M3643 2908.07L3641.24 2918.62M3635.97 2913.34L3632.45 2916.86M3627.17 2925.65L3621.9 2929.17L3621.9 2925.65L3625.42 2923.89M3620.14 2930.93L3609.59 2939.72M3593.77 2948.51L3572.67 2960.82M3409.16 3011.8C3448.29 3002.71 3489 2981.95 3526.96 2967.76C3538.56 2963.42 3560.26 2947.87 3569.15 2960.82M2491.37 3148.94C2516.85 3130.99 2557.38 3124.82 2588.08 3126.16C2609.09 3127.07 2628.88 3133.05 2649.61 3125.95C2685.69 3113.59 2715.53 3086.91 2748.07 3067.82C2799.59 3037.6 2851.96 3015.2 2909.83 3001.25L2909.83 3013.56M3175.88 3003.75C3182.52 3001.31 3190.07 3010.99 3193.46 3015.32C3202.36 3026.73 3226 3065.39 3201.67 3073.48C3186.57 3078.51 3178.69 3030.88 3175.32 3020.59C3173.94 3016.41 3169.48 3006.11 3175.88 3003.75M3055.76 3308.94C3037.12 3300.22 3027.75 3275.81 3020.1 3257.95C2995.17 3199.7 3006.97 3136.49 2989.95 3076.86C2983.44 3054.07 2973.53 3037.46 2957.51 3020.3C2953.76 3016.29 2950.3 3010.15 2956.02 3006C2962.24 3001.48 2970.38 3007.83 2974.81 3012C2987.77 3024.16 2996.21 3042.27 3000.59 3059.27C3015.25 3116.21 3005.75 3177.25 3022.42 3233.34C3029.03 3255.65 3060.44 3286.42 3055.76 3308.94M3424.98 3008.29L3512.89 3008.29M3678.16 3024.11L3681.68 3027.63M3089.16 3048.73C3093.26 3100.65 3095.6 3156.2 3108.28 3206.96C3114.61 3232.28 3136.57 3255.65 3136.64 3280.81L3138.39 3282.57L3158.31 3256.26L3196.41 3208.72M2939.72 3065.71C2975.13 3054.91 3008.2 3125.07 2962.57 3138.75C2924.35 3150.21 2904.34 3076.49 2939.72 3065.71M3199.93 3637.72C3208.53 3610.56 3234.9 3584.31 3252.31 3562.12C3299.96 3501.36 3332.04 3444.29 3349.17 3368.72C3354.78 3343.96 3368.05 3298.97 3354.25 3275.53C3346.79 3262.87 3331.18 3254.05 3319.49 3245.64L3319.49 3243.89C3341.91 3231.46 3369.81 3236.48 3386.12 3212.24C3401.6 3189.21 3397.83 3162.46 3395.39 3136.64C3394.88 3131.24 3393.61 3115.91 3402.3 3115.91C3415.1 3115.91 3422.89 3143.12 3426.19 3152.46C3443.11 3200.25 3433.49 3235.96 3417.95 3282.57C3405.78 3319.07 3395.71 3356.71 3391.87 3395.09C3389.61 3417.81 3395.83 3449.72 3386.32 3470.62C3380.74 3482.84 3365.59 3483.02 3354.65 3487.33C3342.08 3492.3 3331.3 3501.06 3321.25 3509.88C3275.85 3549.69 3245.84 3608.13 3198.17 3644.76L3196.41 3643L3196.41 3641.24L3199.93 3637.72L3203.45 3641.24M3236.92 3129.85C3250.97 3123.94 3254.73 3154.9 3242.02 3159.93C3223.28 3167.37 3222.93 3135.72 3236.92 3129.85M2508.96 3129.6L2494.89 3133.12L2493.13 3134.88L2494.89 3136.64L2498.41 3136.64M2266.32 3678.16L2266.32 3688.71C2278.88 3682.65 2274.66 3656.78 2275.19 3644.76C2276.63 3611.91 2280.35 3579.12 2281.99 3546.3C2282.39 3538.09 2275.03 3531.25 2275.94 3523.83C2276.56 3518.66 2283.63 3516.51 2285.12 3511.1C2291.29 3488.54 2291.13 3463.75 2296.88 3440.8C2301.24 3423.31 2312.07 3404.06 2313.51 3386.3C2315.89 3357.18 2283.77 3329.56 2286.25 3298.39C2288.39 3271.09 2306.89 3247.38 2322.82 3226.3C2341.15 3202.04 2359.93 3173.73 2385.88 3156.94C2414.63 3138.32 2457.99 3135.76 2491.37 3133.12M2496.65 3138.39L2491.37 3143.67M3723.88 3143.67L3730.91 3141.91M2491.37 3150.7C2487.44 3150.81 2487.01 3150.26 2489.62 3147.18M3725.63 3147.18L3720.36 3152.46M2486.1 3150.7C2446.35 3185.43 2405.54 3217.34 2375.39 3261.47C2350.26 3298.25 2336.32 3340.31 2315.55 3379.27M3686.95 3180.59L3718.6 3150.7M1946.33 3618.38L1944.57 3627.17L1942.82 3627.17C1943.29 3616.59 1953.5 3610.17 1957.92 3600.8C1973.04 3568.61 1994.73 3538.53 2010.95 3505.86C2027.05 3473.4 2034.75 3434.88 2052.63 3403.88C2070.97 3372.13 2098.21 3345.19 2123.91 3319.49C2171.68 3271.72 2221.72 3229.63 2283.91 3201.94C2307.85 3191.26 2333.24 3177.09 2359.51 3173.56M3683.44 3189.38L3621.9 3254.44C3611.28 3253.7 3611.93 3265.23 3605.94 3272.02C3593.42 3286.19 3579.03 3299.09 3565.64 3312.46C3559.71 3318.38 3555 3325.2 3546.3 3323.01L3542.78 3326.52L3541.02 3328.28L3548.06 3321.25M3618.38 3249.16L3625.42 3247.4M3620.14 3252.68L3611.35 3261.47M3548.06 3319.49L3609.59 3259.71M3140.15 3282.57C3111.21 3324.92 3104.5 3382.96 3086.65 3430.26C3052.61 3520.52 3005.16 3603.95 2979.14 3697.5C2960.16 3765.77 2949.28 3835.26 2929.91 3903.21C2923.4 3926.03 2918.72 3952.34 2908.07 3973.54M3152.46 3286.08C3172.19 3275.55 3205.77 3294.96 3222.79 3305.55C3228.47 3309.08 3241.16 3316.13 3239.05 3324.5C3236.41 3334.94 3219.71 3327.1 3214 3324.75C3191.53 3315.52 3167.6 3305.9 3152.46 3286.08M3546.3 3330.04L3539.26 3337.07L3541.02 3328.28M3537.51 3337.07C3524.27 3350.35 3514.72 3366.29 3503.22 3381.03C3485.29 3403.97 3464.63 3425 3446.43 3447.84C3430.01 3468.44 3412.83 3493.29 3388.06 3504.1L3386.3 3504.1L3393.33 3498.83M2153.8 3349.38C2140.24 3367.08 2137.75 3393.39 2144.02 3414.43C2148.24 3428.6 2156.65 3439.36 2155.4 3454.87C2153.99 3472.26 2140.02 3487.33 2135.22 3504.1C2124.97 3539.86 2123.4 3579.86 2127.94 3616.63C2132.03 3649.96 2146.8 3681.63 2161.29 3711.57C2170.68 3731 2183.55 3753.04 2185.45 3774.86L2183.69 3776.62C2164.1 3753.64 2152.73 3723.86 2138.38 3697.5C2132.12 3685.99 2125.53 3670.04 2113.36 3664.1L2115.12 3727.39L2113.36 3729.15C2095.41 3712.57 2086.55 3678.81 2083.24 3655.31C2073.41 3585.42 2103.16 3518.66 2116.53 3451.35C2122.42 3421.66 2115.7 3370 2148.52 3354.65M3516.41 3363.44C3514.4 3358.31 3515.3 3357.69 3519.92 3354.65M2143.25 3358.17L2146.77 3361.69M3514.65 3361.69L3505.86 3370.48M4063.21 3699.26L4054.42 3706.29L4054.42 3708.05C4063.56 3703.32 4069.96 3692.53 4077.27 3685.2C4094.26 3668.19 4111.23 3651.16 4128.26 3634.21C4185.58 3577.17 4242.58 3516.74 4305.84 3466.21C4373.87 3411.88 4483.23 3371.55 4571.33 3387.11C4597.32 3391.7 4621.81 3404.08 4645.17 3415.75C4663.74 3425.03 4686.07 3433.68 4701.28 3448.17C4729.01 3474.56 4746.06 3521.42 4763.43 3555.09C4787.48 3601.68 4810.92 3648.54 4833.76 3695.74C4843.18 3715.23 4856 3735.37 4863.39 3755.52C4881.21 3804.1 4901.71 3852.44 4914.41 3903.21C4918.19 3918.33 4922.41 3933.56 4925.06 3948.93C4925.75 3952.9 4925.45 3965.52 4919.45 3959.47M4362.1 3465.42L4363.86 3465.42C4375.75 3476.32 4381.8 3493.41 4388.92 3507.62C4404.34 3538.47 4418.54 3569.33 4448.26 3588.49L4448.26 3590.25C4431.92 3600.98 4419.65 3585.63 4410.33 3572.67C4391.75 3546.84 4359.13 3498.7 4362.1 3465.42M2275.12 3484.76L2276.87 3518.17M3393.33 3495.31L3400.37 3497.07M2904.55 3985.85C2899.23 4003.85 2904.27 4023.91 2906.01 4042.11C2908.63 4069.45 2907.54 4095.63 2912.27 4122.99C2913.71 4131.23 2925.09 4160.44 2936.22 4157.54C2950.83 4153.76 2963.72 4121.26 2970.03 4108.92C2995.03 4060.06 3019.33 4011.1 3045.75 3962.99C3110.12 3845.79 3182.77 3730.86 3266.92 3627.17C3301.89 3584.1 3337.35 3537.07 3384.54 3505.86M2283.91 3521.68L2282.15 3533.99M3064.55 3533.37C3110.24 3519.03 3125.73 3585.63 3080.37 3599.39C3044.59 3610.24 3028.45 3544.71 3064.55 3533.37M4534.41 3576.19C4547.4 3576.59 4560.32 3583.15 4573.09 3586C4607.18 3593.58 4641.15 3601.93 4675.06 3610.24C4693.23 3614.71 4718.23 3623.82 4736.6 3618.38C4728.5 3603.61 4704.23 3599.04 4689.13 3594.79C4643.17 3581.83 4595.8 3578.44 4548.47 3576.19M3284.32 3604.32L3286.08 3597.28M3282.57 3602.56L3270.26 3614.87M4768.42 3623.97C4780.77 3619.1 4784.23 3645.32 4773.29 3649.71C4760.88 3654.73 4756.82 3628.55 4768.42 3623.97M1941.06 3625.42L1942.82 3635.97L1946.33 3628.93M1935.78 3632.45L1942.82 3637.72M1935.78 3634.21C1925.8 3645.06 1918.96 3657.98 1909.73 3668.81C1906.23 3672.92 1900.46 3673.13 1896.68 3676.97C1880.15 3693.7 1868.99 3718.58 1859.79 3739.7C1857.23 3745.59 1852.37 3750.64 1851.72 3757.28C1850.88 3766.07 1859.25 3770.54 1863.85 3776.78C1870.94 3786.36 1872.87 3797.76 1877.87 3808.27C1879.7 3812.12 1882.93 3817.96 1888.15 3816.44C1899.53 3813.19 1903.54 3784.62 1906.1 3774.86C1917.9 3729.99 1930.61 3684.61 1941.06 3639.48M1911.17 3667.61L1905.89 3658.82L1909.41 3657.06L1911.17 3657.06L1912.93 3657.06L1914.68 3657.06M1904.13 3664.1C1904.06 3689.45 1885.8 3728.57 1861.94 3739.7M4344.52 3678.16L4342.76 3671.13L4344.52 3671.13L4346.28 3671.13L4348.04 3672.89L4348.04 3674.65C4327.29 3691.82 4299.81 3703.22 4275.95 3715.54C4235.93 3736.18 4196.15 3756.81 4154.64 3774.37C4127.86 3785.69 4099.89 3793.4 4073.76 3806.46C3996.1 3845.28 3932.17 3904.02 3874.78 3968.27C3843.84 4002.92 3793.48 4049.62 3783.65 4096.61L3785.41 4098.37C3803.86 4091.23 3820.37 4069.84 3832.13 4054.42C3837.03 4047.98 3841.02 4033.21 3850.45 4032.53C3871.88 4030.96 3847.02 4068.45 3843.17 4073.76C3815.02 4112.53 3769.82 4145.21 3748.49 4188.04L3750.25 4189.8C3931.17 4119.61 4099.43 4008.6 4260.13 3901.45C4300.5 3874.54 4339.09 3844.12 4381.44 3820.33C4391.25 3814.83 4414.76 3797.81 4426.59 3805.14C4431.57 3808.22 4429.76 3814.55 4426.4 3818.08C4417.96 3826.94 4403.44 3832.55 4393.75 3840.69C4354.16 3873.9 4313.63 3905.36 4268.92 3931.59C4194.85 3975.05 4128.03 4028.66 4052.66 4070.49C3974.49 4113.86 3893.49 4154.39 3810.03 4186.62C3775.29 4200.03 3739.28 4208.81 3704.54 4221.45L3702.78 4221.45C3712.45 4192.75 3746.5 4175.26 3760.32 4147.6C3774.28 4119.68 3770.31 4087.1 3780.14 4057.93C3794.98 4013.98 3825.13 3976.2 3853.38 3940.13C3863.37 3927.39 3882.76 3889.16 3899.7 3887.39L3901.45 3885.63L3896.18 3883.87M3903.21 3885.63C3955.84 3854.91 4006.49 3821.24 4061.45 3794.66C4109.06 3771.61 4159.29 3754.2 4207.38 3732.12C4249.49 3712.8 4294.54 3679.85 4341 3672.89M2268.08 3690.47L2264.41 3896.18L2257.6 3934.86L2257.46 4043.87L2247.05 4163.43L2244.93 4246.06L2237.7 4282.53L2217.76 4311.12L2204.14 4420.12L2190.72 4465.84L2187.33 4488.22L2215.34 4499.65L2252.26 4539.68L2254.02 4537.92L2255.78 4536.17L2238.19 4518.58M4054.42 3708.05C4020.92 3741.55 3991.67 3778.8 3959.32 3813.54C3939.61 3834.71 3912.09 3855.37 3899.7 3882.11M4857.92 3746.73C4845.26 3761.11 4821.21 3744.18 4812.77 3759.27C4801.34 3779.66 4821.43 3780.16 4831.32 3789.33C4835.17 3792.92 4839.07 3804.65 4845.5 3803.65C4855.37 3802.12 4861.54 3778.68 4866.71 3771.35M1287.01 4914.18L1287.01 4930L1285.25 4931.76C1279.6 4920.76 1287.15 4915.81 1290.04 4905.39C1294.39 4889.69 1295.04 4872.23 1298.26 4856.16C1315.46 4770.18 1348.88 4692.08 1406.28 4625.83C1435.34 4592.31 1436.1 4540.49 1460.22 4504.52C1485.06 4467.47 1507.86 4428.88 1532.71 4391.99C1538.7 4383.1 1551.01 4376.92 1555.8 4368.42C1558.92 4362.86 1555.98 4355.84 1559.54 4349.8C1568.51 4334.57 1580.92 4321.58 1589.66 4305.84C1616.66 4257.19 1638.2 4205.83 1663.71 4156.39C1684.32 4116.48 1707.8 4078.12 1725.81 4036.84C1755.85 3968 1786.93 3901.72 1807.68 3829.37C1813.8 3808.01 1824.56 3767.62 1849.63 3762.56M4522.1 3811.79C4536.11 3817.69 4556.68 3818.89 4571.31 3814.16C4576.22 3812.56 4580.33 3807.14 4585.55 3806.93C4591.69 3806.69 4597.47 3812.59 4602.98 3814.7C4612.84 3818.47 4623.44 3816.95 4632.87 3812.63C4652.77 3803.5 4648.23 3757.83 4675.06 3771.59C4695.55 3782.09 4711.12 3819.79 4685.61 3834.24C4669.7 3843.26 4649.62 3837.61 4634.63 3849.39C4623.76 3857.94 4618.12 3870.62 4615.32 3883.87C4613.07 3894.46 4618.08 3905.85 4604.74 3909.31C4588.14 3913.62 4548.23 3918.1 4535.16 3904.28C4529.64 3898.43 4530.59 3889.16 4527.43 3882.11C4523.51 3873.36 4515.47 3865.99 4508.03 3860.17C4500.54 3854.3 4466.68 3847.18 4466.68 3838.09C4466.68 3820.88 4498.08 3822.88 4504.01 3809.69C4509.04 3798.55 4486.5 3788.09 4499.51 3778.36C4508.58 3771.59 4533.16 3769.33 4533.95 3785.41C4534.43 3794.84 4525.3 3803.33 4522.1 3811.79M2948.51 3834.64C2965.18 3842.62 2978.03 3815.18 2997.67 3827.63C3021.49 3842.73 3005.83 3891.22 2978.4 3891.8C2954.15 3892.33 2959.06 3864.6 2944.99 3855.74M2909.83 3832.88L2906.31 3861.02M3919.04 3857.5C3917.14 3852.66 3917.47 3851.86 3922.55 3850.47M3915.52 3853.98L3912 3859.26M2575.77 5710.65L2575.77 5705.37L2579.28 5705.37L2581.04 5707.13C2579.83 5725.1 2601.98 5727.19 2612.69 5735.3C2647.13 5761.37 2681.21 5784.89 2719.94 5804.27C2766.43 5827.51 2815.13 5845.99 2862.36 5867.67C2919.13 5893.73 2974.85 5925.85 3034.66 5944.43C3090.54 5961.81 3150.68 5965.92 3208.72 5967.36C3218.88 5967.62 3227.06 5972.65 3236.85 5974.06C3270.68 5978.91 3304.9 5982.01 3338.83 5986.19C3394.18 5993 3448.54 5994.88 3504.1 5997.3C3548.67 5999.25 3593.22 6004.13 3637.72 5996.78C3666.31 5992.05 3692.88 5979.44 3720.36 5970.91C3736.87 5965.78 3755.63 5964.64 3771.35 5957.66C3859.73 5918.38 3930.89 5839.91 4008.7 5784.24C4075.8 5736.25 4149.36 5701.38 4197.82 5631.53C4212.88 5609.81 4224.1 5585.43 4238.01 5562.96C4265.31 5518.91 4294.68 5476.75 4319.36 5431.09C4363.48 5349.55 4397.57 5262.6 4439.02 5179.67C4459.96 5137.79 4481.19 5096.17 4503.15 5054.84C4516.47 5029.75 4529.66 5000.51 4548.79 4979.25C4559.18 4967.73 4573.23 4960.46 4585.4 4951.1C4579.72 4947.5 4573 4945 4568.18 4940.18C4545.85 4917.78 4580.19 4892.43 4588.91 4873.74C4579.21 4870.95 4567.69 4876.71 4560.15 4868.06C4551.5 4858.16 4550.2 4842.18 4548.03 4829.79C4543.25 4802.27 4539.07 4774.95 4536.46 4747.15C4535.5 4736.74 4535.95 4716.35 4545.34 4709.56C4560.62 4698.52 4566.62 4727.46 4567.51 4736.6C4569.99 4762.09 4563.73 4843.38 4609.83 4823.21C4626.55 4815.9 4616.85 4786.9 4626.98 4774.03C4663.18 4727.97 4683.33 4668.19 4703.93 4613.53C4709.89 4597.72 4724.89 4565.44 4717.72 4548.67C4711.32 4533.7 4685.28 4541.19 4673.31 4541.12C4659.35 4541.05 4644.49 4531.98 4635.4 4521.94C4630.97 4517.05 4624.39 4509.95 4625.69 4502.76C4631.14 4472.55 4675.59 4472.5 4697.92 4470.95C4731.64 4468.63 4753 4452.19 4762.92 4420.12C4804.94 4284.39 4823.25 4137 4839.83 3996.4C4843.8 3962.78 4826.08 3936.81 4803.41 3913.76C4797.38 3907.63 4780.26 3894.19 4788.43 3884.56C4806.58 3863.2 4843.54 3881.39 4857.34 3897.94C4869.4 3912.41 4867.76 3926.65 4871.4 3943.65C4872.48 3948.68 4874.41 3958.6 4880.7 3959.62C4889.81 3961.07 4880.37 3937.88 4894.84 3944.07C4905.63 3948.68 4906.92 3969.76 4919.45 3964.75C4929.99 3984.48 4924.22 4018.29 4924.75 4040.35C4925.08 4053.49 4929.53 4066.13 4929.97 4079.03C4931.43 4121.16 4927.75 4165.5 4924.89 4207.38C4923.41 4228.9 4930.46 4267 4917.7 4284.74L4915.94 4277.71M3889.15 3899.7L3875.08 3917.28M2255.78 3901.45L2259.29 3913.76M4928.25 3962.99L4933.52 4036.84L4930 4068.48M4639.9 4007.76C4655.21 4004.99 4671.3 4007.98 4679.16 4022.77C4693.17 4049.18 4675.54 4083.96 4690.91 4108.89C4698.75 4121.62 4713.5 4119.17 4724.06 4127.65C4731.1 4133.29 4733.61 4143.81 4738.73 4151.12C4748.57 4165.2 4770.92 4179.76 4774.51 4196.83C4777.69 4211.92 4756.01 4228.78 4750.79 4242.55C4744.42 4259.3 4748.5 4274.63 4748.89 4291.78C4749.03 4298.25 4749.61 4306.84 4741.77 4308.78C4723.84 4313.21 4703.95 4298.72 4701.77 4281.23C4698.03 4251.32 4711.23 4222.99 4719.51 4195.07C4722.22 4185.93 4726.84 4172.02 4719.88 4163.83C4705.52 4146.95 4673.25 4164.39 4661.74 4176.03C4656.78 4181.04 4648.5 4192.05 4640.09 4189.15C4623.48 4183.45 4633.94 4150.49 4624.94 4139.01C4615.99 4127.59 4598.93 4131.94 4590.65 4119.4C4579.63 4102.68 4575.22 4053.89 4586.63 4036.84C4597.05 4021.29 4621.98 4010.99 4639.9 4007.76M2913.34 4117.71C2928.45 4117.71 2949.04 4114 2962.57 4121.23M4863.37 4132.83C4873.37 4130.46 4879.81 4147.73 4882.41 4154.64C4888.95 4171.92 4880.65 4210.9 4859.6 4217.05C4851.11 4219.55 4850.95 4205.29 4850.88 4200.35C4850.69 4183.45 4849.55 4165.91 4853.4 4149.36C4854.68 4143.82 4856.79 4134.4 4863.37 4132.83M2245.23 4145.84L2248.74 4154.64M4914.18 4166.94L4922.97 4181.01M4912.42 4172.22C4912.42 4193.79 4912.47 4217.91 4907.73 4239.03C4905.67 4248.21 4897.83 4254.38 4896.79 4263.64C4894.38 4285.09 4899.45 4308.02 4904.74 4328.7C4909.63 4347.76 4916.41 4375.62 4938.79 4379.69L4927.72 4351.55L4921.42 4323.42L4912.7 4304.06L4917.7 4284.74M3748.49 4188.04L3744.97 4191.56M3704.54 4214.41L3709.81 4219.69M3702.78 4221.45C3689.52 4234.81 3675.54 4254.45 3684.09 4274.19C3689.08 4285.74 3724.19 4301.01 3709.55 4313.51C3693.7 4327.06 3667.3 4330.58 3648.27 4338.19C3599.31 4357.78 3551.52 4385.14 3507.62 4414.27C3487.27 4427.77 3464.93 4441.75 3456.4 4465.84C3444.85 4498.42 3452.83 4530.86 3462.31 4562.54C3466.54 4576.73 3463.19 4590.48 3468.78 4604.74C3474.18 4618.52 3484.99 4629.09 3492.5 4641.66C3503.8 4660.61 3512.42 4681.13 3520.94 4701.44C3577.1 4835.31 3623.04 4973.1 3693.74 5100.55C3713.34 5135.91 3734.34 5172 3761.08 5202.52C3778.75 5222.71 3809.04 5244.11 3818.82 5269.34C3804.54 5272.08 3787.63 5255.97 3776.62 5247.97C3740.07 5221.43 3704.2 5193.35 3677.07 5156.81C3636.26 5101.85 3613 5034.48 3586 4972.2C3558.83 4909.59 3526.31 4849.72 3498.28 4787.59C3483.69 4755.19 3470.18 4722.38 3457.65 4689.13C3450.28 4669.6 3440.98 4648.71 3440.8 4627.59L3439.05 4625.83L3347.46 4750.65L3303.66 4780.56C3311.01 4795.8 3290.04 4824.49 3283.01 4838.58C3276.1 4852.4 3269.26 4866.06 3264.4 4880.77C3261.36 4890.02 3260.73 4901.24 3254.03 4908.75C3243.2 4920.88 3225.09 4925.56 3210.48 4931.41C3199.72 4935.73 3188.89 4943.52 3177.07 4940.55L3175.32 4942.31L3175.32 4944.07L3177.07 4945.83L3180.59 4944.07M4627.77 4235.65C4640.22 4229.78 4651.47 4253.82 4655.97 4261.89C4669.17 4285.62 4663.06 4297.84 4639.9 4310.57C4613.88 4324.86 4580.19 4338.91 4550.23 4340.85C4534.65 4341.85 4518.44 4328.12 4522.87 4311.12C4530.73 4280.93 4586.12 4291.05 4606.32 4273.51C4617.1 4264.14 4614.83 4241.77 4627.77 4235.65M4917.7 4291.78C4921.76 4299.39 4921.76 4305.26 4917.7 4312.87M4915.94 4321.67L4915.94 4325.18M4938.79 4379.69L4938.79 4441.22L4937.04 4441.22C4928.16 4432.04 4925.77 4413.2 4927.26 4400.78C4928.1 4393.77 4928.81 4386.14 4937.04 4388.48M4942.31 4386.72C4948.97 4397.55 4955.16 4425.61 4942.31 4434.19M4944.07 4435.95C4938.3 4469.42 4911.47 4505.64 4889.78 4530.71C4874.32 4548.54 4848 4548.91 4859.68 4580.12C4869.24 4571.91 4876.38 4557.51 4873.74 4544.96M4938.79 4441.22L4942.31 4444.74M4829.79 4639.9L4836.82 4643.42L4838.58 4636.38L4838.58 4634.63L4836.82 4634.63C4831.12 4639.3 4829.86 4642.06 4833.3 4648.69L4833.3 4650.45L4831.54 4652.21L4828.03 4648.69C4814.86 4667.98 4795.78 4664.23 4778.8 4676.45C4764.86 4686.49 4758.24 4703.78 4745.39 4715.17C4734.26 4725.03 4725.82 4722.04 4714.27 4726.75C4707.36 4729.59 4700.58 4742.46 4692.65 4747.15C4682.57 4727.99 4704.14 4690.34 4711.25 4671.55C4729.13 4624.11 4747.22 4576.75 4764.64 4529.13C4773.35 4505.33 4779.48 4476.83 4792.86 4455.29C4809.16 4473.78 4807.58 4511.25 4808.69 4534.41M4930 4469.35L4924.73 4457.05L4935.28 4460.56M1647.44 4493.97C1671.13 4477.25 1714.19 4476.3 1742.38 4472.13C1804.32 4462.95 1866.19 4458.8 1928.75 4458.8C1962.08 4458.8 1999.17 4458.08 2030.73 4470.69C2067.79 4485.51 2043.6 4519.5 2034.33 4544.96C2031.99 4551.39 2030.2 4571.65 2023.02 4574.23C2014.13 4577.45 2011.77 4555.17 2011.42 4550.23C2009.57 4523.73 2015.22 4490.96 1981.5 4485.71C1919.1 4475.96 1850.81 4484.12 1788.09 4486.87C1737.23 4489.1 1681.3 4486.13 1631.61 4497.49M2162.59 4486.94C2132.56 4493.83 2116.7 4498.98 2094.69 4521.01C2085.74 4529.94 2076.97 4534.95 2073.85 4548.47C2070.18 4564.38 2076.44 4581.56 2076.44 4597.7C2055.25 4591.76 2052.76 4570.33 2055.85 4551.99C2061.41 4518.97 2083.56 4485.74 2116.88 4476.67C2127.87 4473.68 2172.63 4464.76 2162.59 4486.94L2185.45 4493.97M4958.13 4474.63C4951.01 4493.11 4945.39 4511.85 4935.51 4529.13C4926.7 4544.52 4914 4558.49 4907.06 4574.85C4890.3 4614.37 4884.85 4654.97 4861.77 4692.65C4838.68 4730.32 4808.58 4763.84 4783.05 4799.9C4726.02 4880.49 4667.22 4966.52 4622.76 5054.84C4598.53 5102.96 4583.83 5151.73 4566.9 5202.52C4558.86 5226.68 4546.12 5248.82 4537.92 5272.85C4526.53 5306.31 4520.46 5340.93 4510.79 5374.83C4498.47 5418.1 4478.18 5459.29 4468.35 5503.18C4458.29 5548.03 4460.56 5593.76 4449.35 5638.56C4425.54 5733.82 4377.82 5824.74 4361.15 5921.63C4355.74 5953.23 4385.42 5987.67 4397.51 6014.81C4422.11 6070.06 4441.42 6128.69 4456.84 6187.12C4463.25 6211.4 4473.26 6239.02 4468.77 6264.48C4461.85 6303.93 4407.82 6329.53 4377.93 6349.45C4362.74 6359.58 4346.31 6370.27 4341.94 6389.31C4331.35 6435.38 4360.17 6490.74 4373.81 6533.49C4397.55 6607.86 4415.62 6688.03 4424.89 6765.57C4428.88 6798.78 4404.09 6798.27 4385.49 6818.47C4372.25 6832.87 4372.72 6842.86 4373.44 6860.51C4375.08 6899.96 4371.81 6941.14 4379.33 6980.07C4382.01 6993.85 4383.87 7011.82 4395.51 7020.51L4399.03 7016.99L4399.03 7015.23L4399.03 7013.47L4397.27 7013.47L4393.75 7013.47L4390.23 7016.99M4921.21 4488.69L4914.18 4478.15L4924.73 4479.9M4915.94 4486.94L4915.94 4490.45M2129.18 4493.97C2134.92 4505.91 2107.07 4516.88 2097.54 4520.34M2136.22 4495.73L2134.46 4497.49M4792.86 4502.76L4806.93 4527.37M4847.37 4518.58L4849.13 4518.58L4856.16 4506.28L4857.92 4506.28C4862.54 4522.08 4843.61 4543.43 4828.96 4528.15C4824.42 4523.42 4827.29 4508.54 4835.1 4508.65C4839.95 4508.7 4844.41 4515.45 4847.37 4518.58M4791.1 4508.03C4791.1 4517.97 4791.46 4528.82 4786.8 4537.92C4781.28 4548.72 4769.25 4555.73 4771.98 4569.57C4772.78 4573.76 4774.96 4577.34 4778.99 4579.07C4788.45 4583.11 4822.1 4592.48 4831.37 4589.04C4837.31 4586.8 4840.37 4579.72 4843.85 4574.85C4863.75 4589.54 4850.3 4617.45 4838.58 4634.63M2099.3 4515.07L2102.81 4518.58M2090.5 4520.34L2095.78 4516.83M4868.47 4541.44L4877.26 4539.68M2257.53 4541.44L2252.26 4541.44M2257.53 4541.44L2262.81 4548.47L2262.81 4550.23L2259.29 4551.99L2257.53 4550.23L2259.29 4544.96M4879.02 4543.2L4877.26 4550.23M2254.02 4544.96L2255.78 4546.71M2264.57 4553.75L2259.29 4553.75M2266.32 4555.51C2269.89 4578.93 2293.37 4585.68 2313.8 4592.43C2363.1 4608.71 2415.42 4618.92 2466.76 4626.06C2492.61 4629.67 2518.26 4630.11 2544.12 4632.57C2554.78 4633.59 2565.83 4631.81 2575.77 4636.91C2596.36 4647.5 2593.63 4689.32 2619.72 4690.99C2654.75 4693.23 2694.24 4682.03 2728.73 4676.38C2798.06 4665.06 2867.31 4653.33 2936.2 4639.55C2958.56 4635.08 2981 4629.95 3003.01 4624.02C3013.21 4621.28 3021.79 4615.28 3032.9 4617.73C3043.63 4620.1 3051.8 4628.96 3059.27 4636.38L3054 4641.66C3034.8 4632.83 3010.15 4648.88 3002.54 4666.27C2999.99 4672.13 2991.5 4683.34 2998.79 4689.08C3003.12 4692.49 3011.94 4690.89 3017.08 4690.89C3034.64 4690.89 3050.78 4689.99 3068.07 4687.63C3073.45 4686.91 3085.35 4689.78 3087.92 4682.98C3093.03 4669.42 3065.13 4649.76 3057.52 4641.66M2261.05 4557.26L2266.32 4562.54M1774.03 4574.85C1746.81 4597.21 1705.24 4608.3 1673.81 4624.53C1619.6 4652.51 1571.55 4688.27 1533.9 4736.6C1521.2 4752.9 1508.66 4769.46 1492.71 4782.75C1489.46 4785.46 1479.5 4795.85 1474.67 4791.4C1469.38 4786.53 1482.54 4773.52 1485.33 4770.01C1501.08 4750.24 1517.09 4729.9 1534.91 4711.99C1588.73 4657.89 1645.93 4600.2 1721.28 4577.87C1742.73 4571.51 1763.41 4576.85 1784.58 4573.09M2273.36 4576.6C2273.97 4583.67 2278.03 4592.8 2271.18 4597.95C2261.05 4605.56 2241.34 4600.3 2229.4 4601.73C2199.28 4605.28 2173.49 4609.89 2145.01 4620.89C2137.11 4623.94 2125 4625.97 2118.64 4631.11M4896.6 4595.94C4894.31 4587.31 4897.53 4580.81 4905.39 4576.6M4861.43 4580.12L4856.16 4585.4M4900.11 4581.88L4903.63 4585.4M3463.66 4590.67L3460.15 4597.7L3465.42 4597.7M3460.15 4597.7L3440.8 4624.08M2078.2 4599.46L2118.64 4632.87M2104.57 4617.04L2115.12 4627.59M2104.57 4620.56C2101.58 4627.8 2105.59 4630.51 2111.6 4634.63M3006.53 4624.08L3027.63 4639.9M2108.09 4625.83L2104.57 4629.35M3003.01 4625.83L3006.53 4652.21M2101.05 4627.59L2030.73 4678.37L1904.13 4787.61L1705.16 5012.64L1534.91 5186.54L1475.13 5235.93L1475.13 5237.69C1491.49 5240.08 1512.7 5223.48 1526.12 5215.17C1572.33 5186.51 1611.04 5143.98 1649.2 5105.82C1732.05 5022.98 1798.68 4926.72 1879.59 4842.09C1925.85 4793.71 1974.34 4746.9 2025.45 4703.67C2053.49 4679.97 2085.49 4660.52 2111.6 4634.63M4894.84 4629.35C4894.84 5208.47 4893.08 5787.41 4893.08 6366.46L4893.08 6828.86L4893.08 6950.18C4893.08 6961.84 4897.86 6987.23 4891.27 6997.09C4886.4 7004.4 4869.01 7001.17 4861.43 7001.17C4830.95 7001.17 4800.37 7002.93 4770.01 7002.93L4508.03 7002.93C4486.83 7002.93 4465.84 7004.14 4444.74 7004.67C4429.3 7005.04 4412.04 7004 4399.03 7013.47M3036.42 4639.9L3041.69 4636.38M4833.3 4638.14L4836.82 4641.66M3061.03 4639.9L3062.79 4645.17M3043.45 4645.17C3058.29 4652.88 3067.68 4669 3068.07 4685.61M4828.03 4646.93L4828.03 4648.69M4835.06 4646.93L4833.3 4648.69M4831.54 4652.21L4826.27 4653.97M2995.98 4673.31C2991.64 4661.24 2989.16 4653.53 3004.77 4657.48M4829.79 4659.24C4822.74 4671.32 4817.13 4685.45 4807.77 4696C4800.49 4704.21 4790.42 4707.89 4783.7 4717.26C4778.27 4724.82 4771.85 4733.95 4778.8 4741.88C4788.19 4731.45 4798.49 4717.01 4801.65 4703.19M2990.7 4662.76C2978.45 4682.91 2977.11 4710.21 2974.37 4733.08C2967.23 4792.81 2966.72 4861.98 2978.05 4921.21C2982 4941.84 2985.71 4970.51 3002.31 4985.44C3019.26 5000.68 3050.54 4987.43 3066.31 4977.47C3075.27 4991.68 3052.75 5023.7 3036.42 5024.88C3022.74 5025.86 3008.83 5000.51 3004.77 4989.78M2987.19 4676.82L2992.46 4678.58M3089.16 4685.61C3110.02 4706.03 3138.53 4718.07 3164.77 4730.11C3207.39 4749.68 3256.12 4776.78 3303.66 4780.56M2985.43 4687.37L2994.22 4690.89M3080.37 4690.89C3092.54 4702.79 3108.45 4710.61 3120.04 4722.83C3132.1 4735.58 3141.56 4751.32 3150.21 4766.49C3177.85 4815 3224.56 4892.92 3177.07 4940.55M2371.82 4711.99C2381.36 4734.6 2373.87 4765.63 2371.98 4789.35C2366.7 4854.98 2351.33 4919.31 2342.67 4984.51C2338.9 5012.87 2345.2 5047.79 2327.86 5072.42C2316.4 5052.53 2322.59 5019.23 2322.59 4996.81C2322.59 4928.42 2328.37 4860.38 2339.73 4792.86C2343.54 4770.22 2349 4723.13 2371.82 4711.99M2438.63 4764.73L2436.87 4770.01L2435.11 4768.25L2435.11 4766.49C2458.74 4743.9 2490.78 4723.84 2521.26 4711.99C2525.99 4729.23 2511.93 4750.9 2505.46 4766.49C2489.77 4804.33 2493.1 4847.17 2472.03 4882.53M4778.8 4741.88L4752.99 4782.31L4741.88 4794.62M2440.39 4768.25C2452.17 4766.49 2469.15 4751.7 2480.63 4755.41C2491.66 4758.97 2486.1 4777.71 2484.78 4785.83C2480.23 4813.63 2464.35 4851.08 2472.03 4879.02M4761.22 4768.25L4768.25 4757.7M4762.97 4761.22L4766.49 4764.73M4706.71 4847.37C4702.86 4824.63 4701.86 4811.64 4685.61 4792.86C4678.19 4800.12 4680.64 4811.55 4676.95 4820.99C4671.72 4834.34 4659.2 4844.57 4655.11 4857.92C4648.04 4880.97 4673.76 4880.04 4687.35 4872.51C4705.62 4862.42 4724.86 4830.24 4735.14 4812.22C4739.77 4804.12 4740.59 4792.18 4748.91 4787.59M1471.62 4791.1C1469.65 4795.15 1469.08 4795.34 1473.37 4794.62M4738.36 4803.41L4740.12 4796.38M4734.84 4803.41L4736.6 4805.17M2503.68 5028.46C2497.9 5008.95 2500.99 4988.55 2501.85 4968.68C2503.35 4934.43 2500.25 4896.28 2510.71 4863.19L2512.47 4861.43C2520.65 4876.75 2514.67 4897.6 2514.25 4914.18C2513.14 4959.75 2506.34 5004.6 2503.68 5049.56M3307.36 4865.18C3323.53 4858 3337.62 4895.61 3343.4 4905.39C3367.82 4946.65 3395.99 4985.44 3420.41 5026.7C3427.21 5038.2 3446.18 5063.57 3428.46 5072.56C3374.82 5099.79 3327.15 5045.15 3294.57 5009.12C3281.95 4995.18 3263.37 4978.35 3261.87 4958.13C3260.61 4941.2 3279.7 4928.54 3286.47 4914.18C3292.22 4901.96 3293.94 4871.16 3307.36 4865.18M4685.61 4875.5C4683.31 4883.69 4676.36 4892.71 4668.03 4895.75C4663.99 4897.23 4658.5 4895.03 4655.04 4897.97C4650.84 4901.5 4652.24 4909.05 4648.27 4913.42C4635.68 4927.31 4603.91 4948.31 4585.4 4951.1M4666.27 4900.11L4653.97 4908.9M4595.94 4944.07C4594.75 4923.01 4626.01 4910.8 4643.42 4915.94M1285.25 4931.76C1285.25 4972.29 1281.52 5014.92 1289.55 5054.84C1292.45 5069.22 1305.88 5079.31 1307.84 5091.76C1312.97 5124.25 1300.04 5152.19 1312.37 5184.94C1355.05 5298.4 1465.46 5374.78 1566.56 5430.85C1589.14 5443.38 1612.12 5455.81 1633.37 5470.55C1646.35 5479.55 1662.12 5494.7 1677.33 5499.27C1696.42 5505.02 1729.68 5494.7 1749.41 5492.14C1880.89 5475.01 2016.01 5451.89 2148.52 5448.66C2179.56 5447.88 2210.57 5446.92 2241.71 5446.92C2253.09 5446.92 2270.44 5442.52 2271.6 5457.46M3175.32 4944.07C3142.88 4968.81 3104.21 4963.88 3068.07 4977.47M3080.37 4970.44L3087.41 4965.17M3073.34 4979.23L3071.58 4980.99M3013.56 5040.77L3011.8 5033.74L3013.56 5033.74L3015.32 5035.5C3004.89 5054.75 2977.82 5068.25 2960.82 5081.58C2919.71 5113.81 2877.37 5144.49 2835.98 5176.36C2814.97 5192.54 2788.28 5210 2775.89 5234.17C2758.64 5267.81 2785.84 5297.2 2799.25 5325.6C2812.92 5354.52 2816.94 5406.53 2804.33 5436.37C2789.06 5430.44 2778.08 5413.95 2768.52 5401.2C2745.95 5371.17 2723.42 5339.12 2708.37 5304.5C2703.31 5292.84 2703.98 5263.89 2694.76 5256.34C2688.03 5250.82 2678.43 5256.89 2672.47 5260.7C2655.84 5271.34 2651.32 5281.19 2659.78 5299.23C2677.46 5336.94 2702.32 5368.18 2729.47 5399.44C2742.94 5414.95 2763.35 5429.1 2770.93 5448.67C2757.23 5451.24 2745.08 5436.15 2735.77 5427.7C2708.37 5402.87 2682 5376.94 2654.89 5351.81C2647.34 5344.83 2626.86 5320.4 2615.01 5323.54C2604.53 5326.32 2616.44 5348.86 2619.14 5353.73C2630.4 5374.06 2647.96 5388.6 2662.25 5406.48C2667.27 5412.75 2675.78 5422.34 2669.64 5430.51C2659.42 5444.15 2645.75 5440.64 2636.36 5429.33C2619.46 5408.94 2604.94 5385.5 2591.86 5362.52C2588.06 5355.84 2582.19 5332.03 2572.22 5337.56C2533.43 5359.06 2568.16 5400.99 2570.34 5432.85C2571.74 5453.23 2573.01 5471.95 2581.9 5490.87C2594.83 5518.37 2617.95 5538.54 2640.82 5557.54C2685.36 5594.55 2735.41 5626.34 2784.99 5656.14C2806.53 5669.1 2831.39 5679.56 2850.05 5696.58L2850.05 5698.34C2824.94 5699.82 2787.14 5674.27 2765.65 5662.15C2693.95 5621.75 2615.54 5580.52 2568.3 5510.21C2553.56 5488.29 2541.61 5461.77 2534.33 5436.37C2530.55 5423.18 2531.5 5405.74 2517.71 5398.48C2471.3 5373.98 2429.03 5437.12 2452.03 5476.8C2477.26 5520.39 2526.38 5545.87 2566.98 5572.93C2589.41 5587.87 2609.72 5606.51 2632.03 5620.98M2617.97 5608.67C2602.81 5617.3 2576.65 5595.83 2563.46 5587.92C2514.21 5558.37 2471.4 5522.92 2428.08 5485.6C2414.89 5474.24 2401.3 5464.23 2385.88 5456.13C2380.98 5453.54 2374.07 5450.19 2377.3 5443.52C2384.11 5429.54 2409.85 5418.92 2422.8 5411.49C2461.06 5389.53 2499.37 5368.13 2535.33 5342.43C2573.8 5314.94 2606.01 5280.75 2646.1 5255.36C2709.51 5215.2 2779.44 5186.49 2843.02 5146.17C2898.8 5110.78 2949.72 5066.25 3008.29 5035.5M2319.07 5457.46L2370.06 5487.35M2401.71 5510.21L2396.43 5515.49L2396.43 5517.24L2396.43 5519L2403.46 5520.76L2405.22 5522.52L2403.46 5524.28L2401.71 5522.52L2399.95 5520.76M2394.67 5511.97L2394.67 5513.73M2405.22 5517.24L2405.22 5519M2403.46 5526.03L2574.01 5705.37M2616.21 5615.7L2619.72 5615.7M2846.53 5694.82L2843.02 5698.34M2579.28 5708.89L2595.11 5724.71M2596.87 5724.71L2600.38 5728.23M3365.2 5984.93C3376.74 5982.18 3388.5 5981.76 3398.61 5988.44M4369.14 6846.45C4345.65 6872.34 4292.76 6874.72 4260.13 6880.59C4198.5 6891.72 4136.09 6901.46 4073.76 6907.68C4039.84 6911.08 3999.16 6906.59 3966.6 6917.07C3944.25 6924.28 3933.44 6964.47 3924.72 6983.59C3902.77 7031.67 3877.23 7078.65 3850.45 7124.24C3837.44 7146.4 3814.12 7175.6 3811.79 7201.6M4367.38 6855.24L4372.65 6858.75M3776.62 7201.6C3784.92 7185.37 3805.3 7171.75 3816.29 7155.89C3838.84 7123.38 3855.35 7085.79 3868.59 7048.64C3875.94 7027.98 3892.24 7001.47 3894.23 6980.07C3895.69 6964.53 3880.78 6946.26 3890.82 6932.69C3904.18 6914.59 3937.46 6918.37 3957.72 6916.77M3890.9 6932.6L3883.87 6925.56L3892.66 6923.81M3746.73 7201.6C3734.58 7184.07 3755.58 7151.81 3763.89 7134.79C3788.05 7085.3 3812.72 7036.77 3839.92 6988.86C3849.71 6971.61 3864.8 6947.03 3850.47 6929.08L3883.87 6925.56M3903.21 6927.32L3906.73 6927.32M3669.37 7036.33C3630.94 7013.56 3588.21 6998.25 3546.3 6982.57C3534.04 6977.99 3519.36 6976.01 3507.81 6970.14C3498.42 6965.35 3489.1 6954.54 3479.49 6948.42L3479.49 6946.66L3481.24 6944.9L3613.11 6948.42L3674.65 6944.9L3671.13 6937.87C3686.5 6929.68 3710.25 6933.28 3727.39 6932.53C3768.39 6930.73 3809.36 6929.08 3850.47 6929.08M3825.85 6932.6L3762.01 7099.63L3733.69 7157.65L3711.57 7201.6M3551.57 6944.9L3597.28 6939.61L3669.37 6936.11M3658.82 7034.57C3592.77 7025.68 3526.08 6998.65 3461.9 6980.81C3421.08 6969.47 3377.09 6967.3 3337.07 6955.45L3335.31 6953.7L3384.54 6950.02L3479.49 6946.66M2264.57 6951.94C2375.56 6966.02 2486.82 6957.65 2598.63 6958.97C2716.67 6960.38 2837.42 6970.42 2955.54 6962.33C3022.33 6957.76 3089.23 6960.06 3155.98 6957.14C3189.63 6955.67 3228.73 6947.75 3257.95 6967.76C3229.87 6994.93 3170.25 6966.57 3136.64 6966C3121.85 6965.76 3098.64 6967.66 3085.65 6960.73M3242.13 6953.7L3335.31 6953.7M2250.5 6953.7L2250.5 6957.21M2282.15 6955.45L2262.81 6960.73M2280.39 6960.73L2313.8 6958.97M2227.64 7016.99L2222.53 7152.37L2231.16 7201.6M3383.94 7018.8C3391.68 7011.77 3416.91 7019.05 3424.95 7022.88C3430.75 7025.66 3435.9 7031.27 3429.69 7036.86C3419 7046.46 3401.63 7038.35 3391.57 7031.99C3388.29 7029.91 3378.81 7023.48 3383.94 7018.8M4393.75 7020.51C4396.3 7079.9 4397.65 7142.69 4386.72 7201.6M3725.63 7042.38C3737.66 7040.43 3756.95 7041.18 3764.56 7052.49C3774.97 7067.96 3752.24 7088.69 3737.94 7090.43C3712.87 7093.47 3691.77 7047.88 3725.63 7042.38M3584.98 7066.22L3558.6 7069.74L3556.85 7067.98C3566.94 7059.21 3578.96 7064.3 3590.25 7067.98M3549.81 7067.98L3556.85 7066.22M0 7201.6L1.76 7201.6"/>
</g>

</svg>