<!DOCTYPE svg PUBLIC "-//W3C//DTD SVG 20010904//EN" "http://www.w3.org/TR/2001/REC-SVG-20010904/DTD/svg10.dtd">
<svg version="1.0" xmlns="http://www.w3.org/2000/svg" width="509px" height="720px" viewBox="0 0 5090 7200" preserveAspectRatio="xMidYMid meet">
<g id="layer101" fill="#1b110e" stroke="none">
<path d="M0 3600 l0 -3600 2545 0 2545 0 0 3600 0 3600 -2545 0 -2545 0 0 -3600z"/>
</g>
<g id="layer102" fill="#d4b264" stroke="none">
<path d="M0 3600 l0 -3600 2545 0 2545 0 0 3600 0 3600 -2545 0 -2545 0 0 -3600z m4419 3191 c12 -8 12 -14 4 -33 l-12 -23 0 27 c-1 14 -7 29 -13 31 -7 3 -8 6 -3 6 6 0 16 -3 24 -8z m-2021 -273 c16 -16 15 -60 -1 -82 -19 -25 -59 -17 -70 14 -13 37 7 80 36 80 13 0 28 -5 35 -12z m2072 -248 c0 -5 -4 -12 -10 -15 -5 -3 -10 -1 -10 6 0 7 -10 24 -22 38 l-23 25 33 -23 c17 -12 32 -26 32 -31z m-1995 -426 c39 -40 -16 -114 -57 -77 -23 21 -23 69 0 82 24 15 38 13 57 -5z m-185 -316 c0 -16 -3 -19 -11 -11 -6 6 -8 16 -5 22 11 17 16 13 16 -11z m-4 -65 c-11 -11 -19 6 -11 24 8 17 8 17 12 0 3 -10 2 -21 -1 -24z m2274 -242 c6 -11 6 -22 1 -25 -5 -3 -11 5 -13 19 -6 30 -2 32 12 6z m321 -563 c6 -11 5 -19 -1 -23 -5 -3 -10 1 -10 10 0 10 -14 36 -31 59 l-31 41 32 -35 c17 -19 36 -43 41 -52z m109 -382 c-7 -7 -10 4 -9 30 1 39 1 39 10 9 5 -18 5 -33 -1 -39z m1 -147 l-9 -54 -1 65 c-1 43 2 61 9 54 7 -7 7 -29 1 -65z m-149 -463 c-15 -24 -29 -42 -31 -40 -4 4 47 84 54 84 2 0 -8 -20 -23 -44z m-52 -107 c-9 -30 -39 -73 -47 -66 -4 4 46 97 52 97 2 0 0 -14 -5 -31z m-820 -949 c11 -11 29 -20 40 -20 11 0 20 -4 20 -10 0 -5 8 -10 18 -10 27 0 84 -63 76 -84 -4 -9 -13 -15 -20 -12 -8 3 -14 1 -14 -3 0 -5 7 -12 16 -15 8 -3 13 -10 10 -15 -4 -5 0 -12 6 -14 7 -3 3 -6 -9 -6 -13 -1 -23 -3 -23 -6 0 -9 65 -64 76 -65 5 0 15 -5 21 -11 8 -8 3 -19 -20 -39 l-31 -27 36 -7 c46 -8 68 -32 39 -41 -11 -3 -18 -12 -15 -19 3 -7 -7 -18 -21 -24 -32 -15 -32 -32 0 -60 27 -24 75 -112 75 -139 1 -17 10 -37 78 -167 22 -42 28 -65 22 -80 -4 -12 -10 -50 -13 -85 -4 -34 -11 -69 -17 -76 -11 -14 0 -42 28 -73 15 -17 15 -17 -3 -53 -9 -16 -14 -35 -13 -42 2 -7 -7 -26 -20 -44 -15 -21 -18 -33 -10 -35 7 -3 2 -13 -13 -27 l-24 -24 23 6 c32 8 17 -10 -29 -33 -43 -23 -51 -34 -16 -26 14 4 11 1 -8 -8 -22 -10 -29 -21 -30 -42 0 -26 -6 -31 -48 -44 -32 -10 -45 -19 -42 -29 6 -16 -13 -32 -70 -61 -42 -21 -76 -60 -52 -60 7 0 30 12 52 26 l40 25 -40 -35 c-43 -38 -73 -51 -147 -61 -27 -3 -48 -11 -48 -16 0 -6 -8 -8 -17 -5 -10 3 -25 1 -33 -4 -10 -6 -21 -3 -37 12 -13 12 -23 16 -23 10 0 -6 5 -14 11 -18 16 -9 -39 -43 -61 -37 -10 3 -21 0 -24 -6 -5 -8 -13 -8 -28 0 -12 6 -23 7 -27 2 -3 -5 -25 -15 -48 -22 -38 -13 -43 -12 -69 8 -15 12 -30 17 -33 12 -6 -8 -119 4 -130 14 -2 3 -9 1 -15 -4 -18 -15 -83 14 -131 58 -24 22 -54 41 -65 41 -26 0 -118 85 -126 117 -4 12 -11 23 -16 23 -6 0 -7 7 -4 15 3 9 -1 18 -9 21 -23 9 -57 71 -50 93 4 13 -5 29 -30 54 -35 35 -36 38 -47 152 -10 112 -10 117 11 139 25 26 27 41 6 32 -19 -7 -19 5 0 30 8 10 15 26 15 35 0 9 9 24 20 34 11 10 20 26 19 34 -1 9 3 28 9 43 6 15 9 54 7 87 -2 33 1 63 6 66 5 4 9 -5 9 -19 0 -13 5 -37 10 -51 6 -15 13 -70 16 -123 6 -105 21 -189 35 -198 5 -3 9 -16 9 -29 0 -13 5 -27 10 -30 6 -4 17 -22 25 -41 8 -19 26 -50 41 -69 21 -28 30 -33 40 -24 8 6 21 8 31 3 30 -13 105 -14 155 -2 39 10 49 9 63 -5 19 -20 17 -20 52 -6 15 6 73 13 127 16 58 2 108 10 120 18 12 7 38 17 58 20 21 4 42 13 48 20 6 7 19 11 30 8 27 -7 70 5 70 19 0 7 12 24 26 39 34 35 47 107 38 212 -5 54 -11 77 -20 77 -23 0 -26 20 -9 47 13 19 14 25 4 21 -11 -4 -14 6 -12 46 1 28 2 97 2 154 0 81 4 104 15 108 19 7 64 -27 58 -44 -3 -10 4 -11 25 -6 25 7 27 6 14 -10 -8 -9 -12 -18 -10 -19 2 -2 22 -15 45 -30 71 -48 124 -27 105 41 -15 52 -58 144 -95 206 -39 64 -126 156 -147 156 -15 0 -19 7 -20 33 0 17 -3 51 -5 75 -4 33 -2 42 10 42 9 0 16 -4 16 -10 0 -5 5 -10 10 -10 6 0 10 9 10 20 0 11 2 20 5 20 3 0 14 -9 25 -20z m-377 -565 c1 -5 -6 -11 -15 -13 -11 -2 -18 3 -18 13 0 17 30 18 33 0z m110 -111 c-54 -51 -60 -53 -149 -50 -84 3 -117 14 -133 45 -9 16 -5 19 31 24 23 3 49 2 58 -3 19 -10 112 -4 156 10 17 6 40 20 50 32 l19 20 3 -21 c2 -14 -9 -33 -35 -57z m-543 30 c0 -17 -22 -14 -28 4 -2 7 3 12 12 12 9 0 16 -7 16 -16z m70 -63 c0 -5 -21 -27 -46 -47 -38 -32 -54 -38 -95 -40 -49 -1 -95 19 -83 37 3 5 9 7 13 5 16 -10 146 15 175 34 36 23 36 23 36 11z"/>
</g>
<g id="layer103" fill="#39393b" stroke="none">
<path d="M0 3600 l0 -3600 2545 0 2545 0 0 3600 0 3600 -2545 0 -2545 0 0 -3600z m2222 3342 c-2 -37 1 -52 8 -47 8 5 9 -5 5 -32 -5 -28 -4 -34 4 -23 13 19 14 14 2 -28 -6 -20 -6 -30 0 -27 5 4 9 -1 9 -10 0 -9 -4 -14 -8 -11 -5 3 -5 -18 -1 -47 4 -29 10 -73 14 -100 3 -26 10 -45 15 -42 13 8 5 -359 -10 -438 -9 -52 -10 -103 -1 -230 6 -89 11 -209 11 -265 0 -66 4 -101 10 -97 6 3 10 -3 10 -15 0 -12 -4 -18 -10 -15 -5 3 -10 -1 -10 -10 0 -9 5 -13 10 -10 6 3 10 -3 10 -13 0 -41 -63 -42 -382 -5 l-236 27 -34 -26 c-18 -14 -62 -40 -98 -58 -88 -44 -140 -88 -193 -163 -52 -75 -62 -125 -61 -298 1 -138 20 -203 94 -314 26 -38 54 -90 64 -115 10 -25 26 -54 36 -65 10 -11 26 -36 35 -55 10 -19 30 -51 44 -70 43 -56 230 -441 240 -492 9 -51 45 -112 128 -223 53 -70 106 -167 118 -216 6 -24 72 -96 145 -160 14 -12 67 -42 118 -66 95 -45 170 -59 294 -55 39 2 57 -5 107 -38 33 -22 65 -40 71 -40 5 0 10 -4 10 -9 0 -12 86 -35 101 -26 8 5 10 4 5 -3 -4 -7 -1 -12 7 -12 13 0 97 -120 97 -137 0 -3 11 -21 25 -39 32 -42 27 -68 -40 -199 l-52 -102 -1 -130 c0 -78 -5 -139 -12 -152 -13 -25 -30 -429 -19 -451 14 -27 28 34 24 99 -2 33 1 63 6 66 5 4 9 -5 9 -19 0 -13 5 -37 10 -51 6 -15 13 -70 16 -123 6 -105 21 -189 35 -198 5 -3 9 -16 9 -29 0 -13 5 -27 10 -30 6 -4 17 -22 25 -41 8 -19 26 -50 41 -69 21 -28 30 -33 40 -24 8 6 21 8 31 3 30 -13 105 -14 155 -2 39 10 49 9 63 -5 19 -20 17 -20 52 -6 15 6 73 13 127 16 58 2 108 10 120 18 12 7 38 17 58 20 21 4 42 13 48 20 6 7 19 11 30 8 27 -7 70 5 70 19 0 7 12 24 26 39 34 35 47 107 38 212 -5 54 -11 77 -20 77 -23 0 -26 20 -9 47 13 19 14 25 4 21 -11 -4 -14 6 -12 46 1 28 2 97 2 154 0 81 4 104 15 108 19 7 64 -27 58 -44 -3 -10 4 -11 25 -6 25 7 27 6 14 -10 -8 -9 -12 -18 -10 -19 2 -2 22 -15 45 -30 73 -49 124 -27 104 44 -12 42 -12 42 2 33 7 -4 8 -3 4 5 -4 6 -11 9 -15 7 -4 -3 -13 10 -20 27 -36 90 -75 154 -141 228 -29 34 -59 59 -71 59 -15 0 -19 7 -20 33 0 17 -3 51 -5 75 -3 27 -1 42 6 42 6 0 8 5 5 10 -4 6 -2 17 4 24 6 7 20 38 30 69 11 30 26 66 35 79 9 14 13 28 9 32 -5 4 -2 6 6 4 9 -2 17 9 23 29 6 23 18 37 41 47 56 24 152 70 157 76 3 3 11 6 18 8 20 4 62 33 62 43 0 5 4 8 9 6 4 -1 29 26 55 60 26 34 64 72 84 84 20 12 50 36 65 53 16 17 26 24 22 16 -3 -8 12 5 35 30 23 25 39 38 35 30 -5 -8 8 0 28 19 20 19 34 37 32 41 -3 4 5 16 18 26 l22 19 -20 -25 c-17 -20 -17 -22 -2 -11 24 19 45 56 25 46 -7 -3 1 5 17 19 17 14 26 26 21 26 -6 0 -1 7 10 16 10 8 13 13 7 9 -18 -9 -17 -4 13 49 27 48 37 59 28 29 -5 -17 -5 -17 6 0 6 9 8 22 5 27 -3 6 -1 10 5 10 6 0 8 5 5 11 -10 14 40 86 59 86 15 0 16 -155 16 -1754 l0 -1753 -2344 0 -2344 0 0 3400 0 3400 1012 -3 1011 -2 -3 -53z m2668 -739 c1 -1495 0 -1557 -11 -1568 -8 -7 -10 -2 -7 17 4 20 -2 36 -24 60 l-29 33 27 -40 26 -40 -30 35 c-16 19 -28 39 -25 45 2 7 -4 18 -14 26 -17 13 -17 13 -3 -6 14 -18 14 -19 -2 -7 -9 8 -14 20 -12 27 3 8 -6 21 -21 31 -14 9 -23 19 -20 22 2 3 -3 11 -13 19 -10 9 -11 12 -2 7 8 -4 3 4 -12 19 -17 16 -25 32 -22 41 4 9 0 18 -10 22 -9 3 -14 9 -12 13 2 3 -14 33 -35 65 -22 33 -39 68 -39 78 0 10 -4 18 -10 18 -5 0 -7 6 -4 14 3 8 1 17 -5 21 -6 3 -11 15 -11 26 0 11 -4 17 -10 14 -5 -3 -10 2 -11 12 0 10 -2 25 -4 33 -2 8 -9 35 -15 60 -7 25 -14 52 -17 60 -4 8 -5 21 -4 28 1 6 -3 12 -9 12 -6 0 -8 5 -5 10 3 6 2 10 -4 10 -6 0 -8 7 -5 15 4 8 2 15 -3 15 -11 0 -12 2 -19 103 -4 42 -10 77 -14 77 -4 0 -7 11 -7 24 0 27 -44 146 -55 146 -3 0 -4 8 -1 19 2 10 -1 24 -9 32 -16 17 -16 102 0 122 7 7 9 17 5 20 -3 4 -2 7 4 7 11 0 26 38 62 156 22 75 27 109 12 100 -7 -5 -19 17 -25 46 0 3 -5 10 -10 15 -6 5 -6 2 -1 -7 5 -8 -3 -3 -16 11 -14 14 -33 30 -43 36 -20 11 -40 93 -24 93 6 0 8 7 4 15 -3 8 -1 15 5 15 6 0 9 6 6 14 -3 8 1 17 9 20 10 4 13 13 8 32 -5 19 -4 25 4 20 8 -5 10 2 5 25 -4 23 -3 30 5 25 8 -5 13 1 14 16 1 13 2 30 3 38 0 8 3 20 6 25 4 6 9 24 13 40 5 23 4 27 -4 15 -9 -12 -11 -8 -8 16 3 25 1 31 -11 26 -9 -3 -12 -1 -7 6 3 6 2 13 -4 17 -11 7 -14 168 -3 178 3 4 118 7 255 7 l248 0 0 -797z m-2492 315 c16 -16 15 -60 -1 -82 -19 -25 -59 -17 -70 14 -13 37 7 80 36 80 13 0 28 -5 35 -12z m77 -674 c39 -40 -16 -114 -57 -77 -23 21 -23 69 0 82 24 15 38 13 57 -5z m2515 -1568 c-7 -7 -10 4 -9 30 1 39 1 39 10 9 5 -18 5 -33 -1 -39z m1 -147 l-9 -54 -1 65 c-1 43 2 61 9 54 7 -7 7 -29 1 -65z m-1398 -2084 c1 -5 -6 -11 -15 -13 -11 -2 -18 3 -18 13 0 17 30 18 33 0z m110 -111 c-54 -51 -60 -53 -149 -50 -84 3 -117 14 -133 45 -9 16 -5 19 31 24 23 3 49 2 58 -3 19 -10 112 -4 156 10 17 6 40 20 50 32 l19 20 3 -21 c2 -14 -9 -33 -35 -57z m-543 30 c0 -17 -22 -14 -28 4 -2 7 3 12 12 12 9 0 16 -7 16 -16z m70 -63 c0 -5 -21 -27 -46 -47 -38 -32 -54 -38 -95 -40 -49 -1 -95 19 -83 37 3 5 9 7 13 5 16 -10 146 15 175 34 36 23 36 23 36 11z"/>
<path d="M4120 2481 c0 -8 -7 -11 -15 -7 -8 3 -15 1 -15 -3 0 -17 28 -20 34 -4 4 9 4 18 1 21 -3 3 -5 0 -5 -7z"/>
<path d="M2833 1445 c0 -27 2 -38 4 -22 2 15 2 37 0 50 -2 12 -4 0 -4 -28z"/>
<path d="M4296 1341 c-4 -6 -2 -11 4 -11 6 0 8 -6 4 -12 -6 -10 -4 -10 7 0 9 9 10 15 2 23 -8 8 -13 8 -17 0z"/>
<path d="M2882 1284 c2 -8 7 -14 12 -14 5 1 13 -4 17 -12 6 -9 9 -9 9 -1 0 11 -27 43 -36 43 -3 0 -4 -7 -2 -16z"/>
<path d="M4234 1234 c-17 -14 -17 -15 -1 -10 10 3 23 6 28 6 5 0 9 5 9 10 0 14 -13 12 -36 -6z"/>
<path d="M4114 1103 c4 -9 1 -20 -6 -25 -10 -7 -9 -9 2 -5 16 4 23 47 8 47 -6 0 -7 -8 -4 -17z"/>
<path d="M3740 933 c0 -7 5 -15 10 -18 6 -4 8 -10 5 -14 -2 -5 7 -8 21 -8 14 0 23 4 21 11 -3 6 -11 10 -18 8 -7 -2 -19 5 -26 14 -7 10 -13 13 -13 7z"/>
<path d="M3903 933 c9 -2 25 -2 35 0 9 3 1 5 -18 5 -19 0 -27 -2 -17 -5z"/>
<path d="M3665 870 c-4 -6 -11 -7 -17 -4 -7 4 -8 2 -4 -5 5 -8 12 -9 19 -3 7 5 19 12 27 15 12 4 12 6 -2 6 -9 1 -20 -4 -23 -9z"/>
</g>
<g id="layer104" fill="#c9c9c9" stroke="none">
<path d="M0 3600 l0 -3600 2545 0 2545 0 0 3600 0 3600 -2545 0 -2545 0 0 -3600z m2230 3375 c5 -20 13 -20 515 -20 460 0 791 -7 915 -20 25 -3 81 -7 125 -10 217 -13 280 -18 402 -36 132 -19 181 -33 185 -53 1 -6 4 27 7 74 l6 85 253 3 252 2 0 -797 c0 -439 0 -977 0 -1195 l0 -397 39 -78 c43 -87 56 -134 66 -238 8 -88 -10 -321 -29 -372 -8 -21 -17 -58 -21 -82 -3 -28 -19 -64 -41 -94 -20 -27 -31 -46 -25 -42 8 4 11 -502 11 -1749 l0 -1756 -2344 0 -2344 0 0 3400 0 3400 1011 -3 c1002 -2 1011 -2 1017 -22z"/>
<path d="M3380 5989 c-36 -5 -128 -15 -205 -24 -134 -14 -145 -17 -240 -64 -55 -27 -129 -61 -164 -75 -35 -14 -87 -40 -115 -58 -47 -29 -171 -150 -271 -263 l-40 -45 -92 -6 c-69 -5 -150 0 -336 22 l-245 28 -34 -26 c-18 -14 -62 -40 -98 -58 -88 -44 -140 -88 -193 -163 -52 -75 -62 -125 -61 -298 1 -138 20 -203 94 -314 26 -38 54 -90 64 -115 10 -25 26 -54 36 -65 10 -11 26 -36 35 -55 10 -19 30 -51 44 -70 43 -56 230 -441 240 -492 9 -51 45 -112 128 -223 53 -70 106 -167 118 -216 6 -24 72 -96 145 -160 14 -12 68 -42 120 -66 88 -42 150 -57 167 -39 4 4 -16 28 -45 54 -51 46 -86 104 -133 226 -18 43 -32 189 -30 287 1 15 -6 149 -14 300 -12 224 -17 274 -30 281 -10 6 -15 26 -16 66 0 31 -6 73 -13 92 -13 34 -12 35 18 50 17 8 39 31 48 50 17 33 23 36 110 57 51 12 119 22 151 23 56 0 59 1 70 30 13 33 17 34 102 19 33 -5 103 -16 155 -24 52 -8 116 -21 142 -29 l48 -14 25 30 c14 16 25 35 25 43 0 12 140 77 197 91 28 7 61 -19 96 -76 11 -19 34 -51 49 -71 27 -34 28 -40 22 -101 -6 -60 -5 -67 17 -87 37 -35 166 -108 204 -115 42 -8 52 -22 25 -36 -32 -17 -24 -52 24 -99 38 -38 44 -49 48 -94 7 -82 94 -199 319 -429 227 -231 282 -268 424 -284 41 -5 62 0 120 24 l70 29 95 189 c114 226 135 295 131 439 -1 55 -5 136 -10 179 -6 67 -4 85 11 115 10 19 18 43 18 54 0 23 -32 86 -63 123 -13 16 -32 52 -41 81 -10 29 -53 106 -97 172 -72 108 -85 122 -133 146 -30 15 -61 34 -69 43 -25 28 -105 183 -172 332 -35 78 -81 167 -103 198 -22 32 -49 75 -60 97 -25 50 -82 104 -147 140 -27 16 -72 47 -100 70 -100 83 -188 145 -206 145 -10 0 -41 9 -69 20 -55 22 -183 25 -310 9z"/>
<path d="M2919 4133 c-10 -20 -14 -65 -13 -182 1 -145 4 -166 38 -297 20 -77 36 -150 36 -162 0 -12 -24 -81 -52 -154 -45 -113 -53 -143 -53 -198 0 -62 3 -71 60 -165 33 -55 66 -111 73 -125 7 -14 20 -32 28 -41 21 -23 9 -67 -51 -184 l-52 -102 -1 -130 c0 -78 -5 -139 -12 -152 -10 -20 -31 -427 -23 -444 13 -24 23 15 23 89 0 46 4 84 8 84 12 0 33 -118 42 -240 8 -102 21 -151 71 -259 28 -61 70 -115 79 -101 5 8 26 8 76 0 52 -8 79 -8 112 1 33 9 48 9 65 0 17 -9 39 -9 87 -2 36 6 95 11 131 11 46 0 70 5 79 15 6 7 31 17 55 21 25 3 49 12 55 19 6 7 19 11 28 8 28 -7 58 10 94 54 28 33 37 53 42 101 9 84 -3 170 -27 193 -19 18 -19 19 -2 45 14 21 14 26 3 21 -13 -4 -14 15 -11 141 2 81 6 153 8 160 7 19 28 14 57 -13 15 -14 35 -25 44 -25 14 0 14 -3 4 -15 -7 -9 -11 -16 -9 -18 2 -1 13 -8 24 -15 90 -56 120 -53 119 14 -1 88 -150 332 -221 363 -30 13 -32 17 -38 87 -6 63 -4 78 13 106 11 18 27 57 37 85 9 29 21 55 26 58 18 12 8 36 -29 73 -20 20 -60 77 -87 126 -42 76 -72 111 -205 242 -85 84 -175 180 -200 213 -25 33 -50 60 -55 61 -16 0 -128 115 -169 172 -72 100 -211 333 -246 411 -19 42 -37 77 -40 77 -4 0 -13 -12 -21 -27z m695 -2065 c23 -37 -35 -76 -70 -48 -19 17 -18 47 4 59 24 15 53 9 66 -11z m-440 -74 c35 -35 -2 -88 -44 -62 -25 16 -26 53 -2 67 23 14 28 14 46 -5z m529 -60 c-54 -51 -62 -54 -152 -54 -71 0 -83 3 -110 26 -17 14 -31 29 -31 34 0 11 82 20 100 10 27 -15 151 8 190 34 33 22 35 22 38 5 2 -12 -11 -33 -35 -55z m-493 -65 c-67 -58 -143 -75 -188 -43 -36 25 -26 34 41 34 62 0 136 25 152 50 5 9 10 9 19 0 8 -8 2 -19 -24 -41z"/>
</g>
<g id="layer105" fill="#7885a6" stroke="none">
<path d="M2227 7193 c-9 -8 -7 -191 1 -218 7 -20 16 -20 517 -20 460 0 791 -7 915 -20 25 -3 81 -7 125 -10 218 -13 280 -18 403 -36 129 -18 169 -30 184 -53 4 -6 8 25 8 69 0 46 5 86 11 92 8 8 9 41 4 107 l-7 96 -1078 0 c-592 0 -1080 -3 -1083 -7z"/>
<path d="M3380 5989 c-36 -5 -128 -15 -205 -24 -134 -14 -145 -17 -240 -64 -55 -27 -129 -61 -164 -75 -35 -14 -87 -40 -115 -58 -48 -30 -181 -160 -271 -264 l-41 -47 -134 -3 c-74 -2 -153 1 -175 5 -22 5 -72 12 -111 15 -39 3 -77 8 -85 10 -8 3 -50 7 -93 10 -73 5 -83 3 -110 -18 -17 -13 -64 -40 -104 -60 -124 -62 -223 -179 -238 -281 -12 -82 -7 -304 7 -321 6 -8 8 -14 4 -14 -4 0 -2 -6 4 -14 7 -8 14 -27 17 -42 3 -16 9 -31 13 -34 15 -9 88 -138 107 -185 9 -26 23 -49 31 -52 7 -3 22 -25 33 -50 11 -24 33 -61 48 -81 16 -20 32 -47 36 -59 4 -13 12 -23 18 -23 6 0 8 -3 5 -7 -4 -3 0 -14 9 -24 8 -9 16 -23 18 -31 1 -7 34 -79 74 -160 40 -80 76 -164 79 -185 5 -39 61 -143 76 -143 4 0 6 -4 2 -9 -3 -6 4 -15 15 -21 11 -6 18 -15 15 -20 -3 -5 -1 -11 5 -15 11 -7 111 -151 110 -160 0 -3 7 -21 15 -41 8 -20 15 -41 15 -46 0 -9 37 -53 67 -82 7 -6 31 -28 53 -49 41 -37 140 -94 140 -80 0 5 4 3 8 -2 21 -31 139 -61 159 -41 4 4 -16 28 -45 54 -51 46 -86 104 -133 226 -18 43 -32 189 -30 287 1 15 -6 149 -14 300 -12 224 -17 274 -30 281 -10 6 -15 26 -16 66 0 31 -6 73 -13 92 -13 34 -12 35 18 50 37 18 72 79 53 93 -7 5 -4 6 10 2 12 -3 61 3 108 14 48 12 111 21 142 21 52 0 55 2 66 30 13 33 17 34 102 19 33 -5 103 -16 155 -24 52 -8 110 -19 128 -24 18 -6 40 -7 49 -4 12 5 14 3 8 -8 -5 -8 2 -5 14 6 34 30 46 56 30 66 -12 7 -12 9 0 9 8 0 61 19 118 42 117 48 118 48 170 -23 103 -139 94 -121 87 -191 -6 -60 -5 -67 17 -87 37 -35 166 -108 204 -115 42 -8 52 -22 25 -36 -32 -17 -24 -52 24 -99 38 -38 44 -49 48 -94 7 -82 94 -199 319 -429 227 -231 282 -268 424 -284 41 -5 62 0 120 24 l70 29 95 189 c114 226 135 295 131 439 -1 55 -5 136 -10 179 -6 67 -4 85 11 115 10 19 18 43 18 54 0 23 -32 86 -63 123 -13 16 -32 52 -41 81 -10 29 -53 106 -97 172 -72 108 -85 122 -133 146 -30 15 -61 34 -69 43 -25 28 -105 183 -172 332 -35 78 -81 167 -103 198 -22 32 -49 75 -60 97 -25 50 -82 104 -147 140 -27 16 -72 47 -100 70 -100 83 -188 145 -206 145 -10 0 -41 9 -69 20 -55 22 -183 25 -310 9z m-403 -1231 c-2 -29 -3 -6 -3 52 0 58 1 81 3 53 2 -29 2 -77 0 -105z"/>
<path d="M2904 4082 c-14 -96 4 -289 41 -432 19 -74 35 -145 35 -157 0 -13 -24 -82 -52 -155 -45 -113 -53 -143 -53 -198 0 -62 3 -71 60 -165 33 -55 66 -111 73 -125 7 -14 20 -32 28 -41 21 -23 9 -67 -51 -184 l-52 -102 -1 -130 c0 -78 -5 -139 -12 -152 -10 -20 -31 -427 -23 -444 13 -24 23 15 23 89 0 46 4 84 8 84 12 0 33 -118 42 -240 8 -102 21 -151 71 -259 28 -61 70 -115 79 -101 5 8 26 8 76 0 52 -8 79 -8 112 1 33 9 48 9 65 0 17 -9 39 -9 87 -2 36 6 95 11 131 11 46 0 70 5 79 15 6 7 31 17 55 21 25 3 49 12 55 19 6 7 19 11 28 8 28 -7 58 10 94 54 28 33 37 53 42 101 9 84 -3 170 -27 193 -19 18 -19 19 -2 45 14 21 14 26 3 21 -13 -4 -14 15 -11 141 2 81 6 153 8 160 7 19 28 14 57 -13 15 -14 35 -25 44 -25 14 0 14 -3 4 -15 -7 -9 -11 -16 -9 -18 2 -1 13 -8 24 -15 90 -56 120 -53 119 14 -1 88 -150 332 -221 363 -30 13 -32 17 -38 87 -6 63 -4 78 13 106 11 18 27 57 37 85 9 29 20 55 25 58 16 10 1 48 -33 79 -18 17 -55 71 -82 120 -42 76 -72 111 -205 242 -85 84 -175 180 -200 213 -25 33 -50 60 -55 61 -16 0 -128 115 -169 172 -64 91 -168 259 -216 353 -36 69 -53 91 -73 96 -25 7 -26 5 -33 -39z m104 -223 c4 -30 -22 -46 -44 -28 -15 12 -19 41 -7 53 16 16 48 1 51 -25z m86 -275 c18 -18 19 -24 7 -42 -11 -18 -41 -12 -54 10 -8 12 -7 21 2 32 17 20 26 20 45 0z m-116 -475 c5 -29 -25 -54 -45 -38 -15 13 -17 45 -3 54 6 4 8 11 5 16 -4 5 3 5 17 0 13 -5 24 -18 26 -32z m620 -1019 c15 0 38 -9 52 -20 l25 -19 -22 -21 c-13 -11 -18 -15 -13 -8 20 24 9 29 -19 9 -49 -35 -131 -23 -131 19 0 21 47 52 68 45 8 -3 26 -5 40 -5z m-368 -90 c-1 -35 -73 -89 -95 -70 -10 8 -14 8 -17 -1 -3 -9 -13 -7 -36 6 -38 23 -39 29 -9 59 20 19 33 23 90 22 53 0 67 -4 67 -16z m473 -66 c-54 -51 -62 -54 -152 -54 -71 0 -83 3 -110 26 -17 14 -31 29 -31 34 0 11 82 20 100 10 27 -15 151 8 190 34 33 22 35 22 38 5 2 -12 -11 -33 -35 -55z m-493 -65 c-67 -58 -143 -75 -188 -43 -36 25 -26 34 41 34 62 0 136 25 152 50 5 9 10 9 19 0 8 -8 2 -19 -24 -41z"/>
</g>
<g id="layer106" fill="#687a98" stroke="none">
<path d="M2224 7164 c-4 -25 0 -209 6 -209 0 0 107 0 238 0 130 0 356 1 502 2 146 1 292 0 325 -3 56 -5 116 4 215 35 32 9 33 9 16 -4 -11 -8 -25 -15 -32 -15 -6 0 -17 -6 -23 -13 -9 -12 16 -15 142 -22 83 -4 166 -8 184 -9 18 -2 30 1 27 6 -3 4 2 8 11 8 9 0 13 -4 10 -10 -4 -6 11 -10 37 -9 24 0 37 3 31 6 -7 2 -13 15 -13 28 0 14 -9 48 -20 76 -12 28 -19 53 -17 55 5 6 67 -123 67 -139 0 -25 24 -37 71 -37 66 0 316 -38 342 -52 12 -6 25 -16 29 -22 4 -6 8 25 8 69 0 45 5 86 11 92 7 7 8 43 3 107 l-7 96 -288 0 c-159 0 -289 -3 -289 -8 0 -4 7 -18 16 -30 9 -13 14 -26 10 -29 -3 -3 -13 11 -22 31 -15 31 -23 36 -50 36 l-33 0 19 -45 c11 -25 17 -45 14 -45 -3 0 -14 20 -25 45 l-20 45 -744 0 -744 0 -7 -36z m1604 -167 c15 -20 22 -47 11 -47 -5 0 -19 21 -30 48 -11 26 -27 55 -36 64 -8 9 -12 22 -7 29 5 8 15 -4 30 -35 13 -26 27 -53 32 -59z m-138 44 c0 -5 -11 -11 -25 -13 -14 -3 -25 -3 -25 -1 0 3 34 19 48 22 1 1 2 -3 2 -8z"/>
<path d="M3468 5993 c12 -2 30 -2 40 0 9 3 -1 5 -23 4 -22 0 -30 -2 -17 -4z"/>
<path d="M3603 5993 c9 -2 25 -2 35 0 9 3 1 5 -18 5 -19 0 -27 -2 -17 -5z"/>
<path d="M3273 5973 c9 -2 25 -2 35 0 9 3 1 5 -18 5 -19 0 -27 -2 -17 -5z"/>
<path d="M2574 5708 l-29 -33 33 29 c30 28 37 36 29 36 -2 0 -16 -15 -33 -32z"/>
<path d="M2770 5663 c-152 -81 -216 -144 -234 -230 -12 -54 -78 -53 -92 2 -9 37 18 70 99 122 94 60 107 73 32 34 -34 -17 -89 -56 -124 -86 -34 -30 -70 -55 -79 -55 -16 0 65 -52 142 -92 21 -11 57 -39 81 -63 27 -28 69 -55 116 -76 41 -18 125 -68 187 -112 63 -43 115 -77 117 -75 2 1 -53 45 -121 97 -112 85 -124 97 -124 125 0 17 9 45 20 61 20 30 30 132 11 121 -29 -18 -96 -123 -100 -158 l-6 -40 -24 19 -23 19 22 45 c13 24 39 59 58 76 20 18 33 35 30 39 -3 3 -38 -25 -77 -61 -58 -55 -71 -64 -71 -46 0 11 16 38 35 60 31 33 33 40 18 45 -19 8 -41 -15 -71 -72 -16 -29 -20 -32 -31 -18 -10 11 -10 23 -2 48 6 18 13 51 17 73 8 51 63 103 185 176 81 48 97 59 85 59 -3 0 -37 -17 -76 -37z"/>
<path d="M2360 5476 c-6 -8 -28 -17 -48 -19 l-37 -4 36 -1 c25 -1 42 4 54 18 10 11 16 20 13 20 -3 0 -11 -6 -18 -14z"/>
<path d="M1399 5324 c-23 -25 -27 -33 -13 -26 18 9 61 62 51 62 -2 0 -19 -16 -38 -36z"/>
<path d="M3760 5233 c-49 -39 -130 -138 -130 -159 0 -8 -4 -22 -9 -32 -16 -29 -102 -213 -133 -287 -34 -79 -50 -143 -37 -151 5 -3 10 -15 10 -27 1 -18 2 -18 6 -4 3 10 -1 24 -7 32 -10 12 -10 15 1 15 19 1 44 37 62 90 34 98 57 151 123 294 54 118 80 162 122 208 61 66 58 73 -8 21z"/>
<path d="M1520 5203 c24 -21 65 -58 90 -83 47 -48 56 -59 182 -212 80 -98 167 -180 253 -238 28 -19 53 -38 57 -44 4 -6 10 -8 13 -4 3 3 -17 22 -44 42 -116 85 -185 156 -349 358 -57 69 -167 172 -217 201 -20 12 -15 5 15 -20z"/>
<path d="M1297 5123 c-11 -10 -8 -43 3 -43 6 0 10 11 10 25 0 26 -2 29 -13 18z"/>
<path d="M3326 5039 c-59 -52 -72 -75 -54 -96 7 -9 18 -32 23 -52 l11 -36 55 85 c79 121 82 127 63 134 -32 12 -52 5 -98 -35z"/>
<path d="M2326 4950 c2 -83 10 -143 21 -180 l18 -55 3 59 c2 32 -4 86 -12 120 -9 34 -16 80 -17 102 0 21 -4 48 -8 59 -5 11 -7 -36 -5 -105z"/>
<path d="M3015 5006 c-27 -40 -35 -87 -35 -196 0 -91 3 -108 19 -122 10 -8 20 -21 23 -28 6 -18 48 5 48 25 0 8 5 15 12 15 11 0 208 78 217 86 2 1 -7 31 -20 65 -17 44 -31 64 -49 71 -14 6 -34 15 -44 20 -11 6 -40 13 -65 17 -38 5 -47 10 -49 29 -2 12 -12 27 -22 32 -16 8 -22 6 -35 -14z"/>
<path d="M2503 4960 c0 -25 2 -35 4 -22 2 12 2 32 0 45 -2 12 -4 2 -4 -23z"/>
<path d="M4637 4916 c18 -15 44 -41 58 -59 15 -18 22 -23 16 -12 -17 33 -44 62 -76 80 l-30 18 32 -27z"/>
<path d="M4570 4919 c0 -6 24 -61 54 -122 70 -143 98 -220 100 -269 0 -21 3 -38 6 -38 18 0 72 -191 84 -300 7 -60 35 -252 40 -265 1 -5 6 7 10 28 4 20 10 37 15 37 4 0 13 12 19 26 7 15 8 23 2 19 -6 -3 -18 1 -27 11 -12 12 -19 42 -24 108 -3 50 -11 104 -18 119 -14 35 -14 37 -1 37 6 0 10 -7 10 -15 0 -8 4 -15 10 -15 6 0 8 17 5 40 -3 22 -1 40 4 40 14 0 21 -14 25 -50 5 -44 16 -50 16 -7 0 19 3 42 6 51 6 15 1 19 -43 32 -7 2 -10 10 -7 19 3 8 9 13 13 10 4 -2 18 3 30 12 16 11 19 18 11 23 -9 5 -9 13 -2 27 9 16 6 25 -16 50 -15 16 -21 22 -14 13 15 -20 16 -34 2 -25 -6 4 -10 3 -9 -2 1 -4 1 -25 0 -46 -1 -35 -3 -37 -27 -31 -26 7 -26 6 -21 -32 2 -22 8 -49 12 -61 4 -14 3 -23 -3 -23 -5 0 -15 21 -22 48 -19 72 -64 208 -99 295 -35 86 -38 106 -18 88 8 -6 17 -8 20 -5 3 4 14 3 24 -2 26 -11 53 -13 47 -2 -3 4 -10 5 -16 2 -7 -5 -9 -1 -5 9 4 10 2 16 -6 14 -7 -1 -12 6 -12 15 0 10 -6 23 -14 30 -10 10 -12 10 -7 1 4 -8 1 -13 -8 -13 -8 0 -19 -8 -25 -17 -9 -16 -11 -15 -20 8 -5 15 -21 39 -35 54 -14 15 -23 31 -21 36 6 9 -25 49 -37 49 -5 0 -8 -5 -8 -11z"/>
<path d="M2485 4793 c5 -45 -7 -57 -33 -31 -7 7 -12 8 -12 3 0 -6 19 -20 41 -32 35 -19 40 -20 34 -5 -5 9 -14 37 -22 62 l-13 45 5 -42z"/>
<path d="M4546 4800 c-11 -35 -14 -60 -7 -60 14 0 29 46 21 61 -8 11 -10 11 -14 -1z"/>
<path d="M1492 4775 c9 -28 56 -84 102 -121 60 -49 98 -69 146 -77 32 -5 33 -5 10 5 -33 15 -74 35 -107 53 -30 15 -93 74 -131 121 -13 16 -22 25 -20 19z"/>
<path d="M2094 4606 c-18 -8 -35 -19 -39 -25 -10 -17 14 -79 38 -96 23 -16 82 -21 73 -6 -3 5 9 12 28 15 37 7 59 27 75 68 12 31 19 27 -87 48 -29 5 -54 10 -55 10 -1 -1 -16 -7 -33 -14z"/>
<path d="M2018 4564 c-5 -4 -8 -22 -8 -40 0 -40 -10 -44 -119 -50 -47 -3 -87 -7 -90 -9 -7 -7 182 -6 218 1 31 7 41 29 22 50 -5 5 -11 20 -13 32 -1 13 -6 20 -10 16z"/>
<path d="M4815 4560 c-3 -6 1 -13 10 -16 19 -8 30 0 20 15 -8 14 -22 14 -30 1z"/>
<path d="M1733 4473 c9 -2 25 -2 35 0 9 3 1 5 -18 5 -19 0 -27 -2 -17 -5z"/>
<path d="M4892 4234 c-15 -16 -10 -44 8 -44 5 0 10 14 10 30 0 34 0 35 -18 14z"/>
<path d="M3721 4195 c40 -43 47 -57 51 -100 5 -53 53 -136 106 -184 15 -13 21 -20 13 -16 -9 6 -12 4 -7 -4 4 -6 11 -9 15 -6 5 2 27 -9 49 -25 48 -34 142 -82 196 -100 22 -7 73 -31 113 -52 41 -22 76 -38 78 -36 8 8 -125 78 -204 107 -45 16 -96 40 -113 52 -48 32 -198 181 -198 196 0 7 -9 18 -20 25 -20 13 -28 48 -11 48 5 0 21 -14 36 -31 14 -17 29 -29 32 -25 4 3 -7 21 -24 39 -62 67 -92 101 -90 104 6 5 126 -48 202 -90 44 -24 125 -72 180 -107 94 -60 121 -78 237 -160 26 -19 50 -31 54 -27 6 6 -49 58 -91 87 -280 189 -329 218 -485 280 -56 23 -104 39 -108 36 -3 -4 -17 4 -31 16 -14 13 -5 0 20 -27z"/>
<path d="M4922 4168 c-1 -17 -8 -28 -16 -28 -8 0 -18 -5 -21 -10 -10 -16 5 -50 20 -50 18 0 28 36 22 81 -3 29 -4 30 -5 7z"/>
<path d="M2242 4150 c0 -19 2 -27 5 -17 2 9 2 25 0 35 -3 9 -5 1 -5 -18z"/>
<path d="M4636 4114 c-9 -23 -7 -36 3 -30 12 8 21 46 11 46 -4 0 -11 -7 -14 -16z"/>
<path d="M2902 4050 c0 -19 2 -27 5 -17 2 9 2 25 0 35 -3 9 -5 1 -5 -18z"/>
<path d="M2901 3925 c-1 -51 2 -66 10 -55 7 11 8 2 4 -30 -5 -34 2 -80 29 -186 20 -77 36 -150 36 -162 0 -12 -24 -81 -52 -154 -45 -113 -53 -143 -53 -198 0 -62 3 -71 60 -165 33 -55 66 -111 73 -125 7 -14 20 -32 28 -41 21 -23 9 -67 -51 -184 l-52 -102 -1 -130 c0 -78 -5 -139 -12 -152 -10 -20 -31 -427 -23 -444 13 -24 23 15 23 89 0 46 4 84 8 84 12 0 33 -118 42 -240 8 -102 21 -151 71 -259 28 -61 70 -115 79 -101 5 8 26 8 76 0 52 -8 79 -8 112 1 33 9 48 9 65 0 17 -9 39 -9 87 -2 36 6 95 11 131 11 46 0 70 5 79 15 6 7 31 17 55 21 25 3 49 12 55 19 6 7 19 11 28 8 28 -7 58 10 94 54 28 33 37 53 42 101 9 84 -3 170 -27 193 -19 18 -19 19 -2 45 14 21 14 26 3 21 -13 -4 -14 15 -11 141 2 81 6 153 8 160 7 19 28 14 57 -13 15 -14 35 -25 44 -25 14 0 14 -3 4 -15 -7 -9 -11 -16 -9 -18 2 -1 13 -8 24 -15 90 -56 120 -53 119 14 -1 88 -150 332 -221 363 -29 13 -32 18 -38 82 -4 37 -4 77 0 88 4 12 2 21 -4 21 -6 0 -11 6 -11 14 0 36 -100 176 -126 176 -3 0 -21 12 -39 28 -18 15 -69 52 -115 82 -45 30 -88 61 -95 68 -8 6 -16 12 -18 12 -2 0 -34 19 -69 43 -36 23 -78 50 -94 59 -77 47 -127 80 -140 93 -29 29 -82 134 -89 177 -4 23 -29 88 -55 143 -29 60 -57 138 -70 195 -12 52 -32 133 -45 180 l-24 85 0 -70z m149 -640 c-7 -9 -15 -13 -18 -10 -3 2 1 11 8 20 7 9 15 13 18 10 3 -2 -1 -11 -8 -20z m-26 -37 c-4 -6 -9 -45 -10 -86 -2 -42 -8 -90 -14 -108 -12 -35 -36 -61 -47 -50 -4 4 -3 10 3 14 25 16 44 73 44 131 0 56 12 111 25 111 4 0 3 -5 -1 -12z m-41 -129 c7 -26 -25 -64 -46 -56 -19 7 -23 52 -7 62 6 4 8 10 5 14 -2 5 6 6 19 4 13 -3 26 -14 29 -24z m615 -1029 c15 0 38 -9 52 -20 l25 -19 -22 -21 c-13 -11 -18 -15 -13 -8 20 24 9 29 -19 9 -49 -35 -131 -23 -131 19 0 21 47 52 68 45 8 -3 26 -5 40 -5z m-368 -90 c-1 -35 -73 -89 -95 -70 -10 8 -14 8 -17 -1 -3 -9 -13 -7 -36 6 -38 23 -39 29 -9 59 20 19 33 23 90 22 53 0 67 -4 67 -16z m473 -66 c-54 -51 -62 -54 -152 -54 -71 0 -83 3 -110 26 -17 14 -31 29 -31 34 0 11 82 20 100 10 27 -15 151 8 190 34 33 22 35 22 38 5 2 -12 -11 -33 -35 -55z m-493 -65 c-67 -58 -143 -75 -188 -43 -36 25 -26 34 41 34 62 0 136 25 152 50 5 9 10 9 19 0 8 -8 2 -19 -24 -41z"/>
<path d="M4550 3870 c0 -18 39 -36 42 -19 4 28 1 34 -19 35 -16 1 -23 -4 -23 -16z"/>
<path d="M3910 3857 c0 -2 15 -16 33 -33 l32 -29 -29 33 c-28 30 -36 37 -36 29z"/>
<path d="M1874 3795 c-3 -13 -12 -29 -20 -36 -14 -12 -9 -33 6 -24 11 7 43 -40 45 -65 1 -20 23 -50 35 -50 6 0 -1 30 -30 126 -6 17 -10 40 -10 52 0 30 -18 28 -26 -3z"/>
<path d="M2149 3712 c-24 -56 -56 -73 -45 -24 4 23 3 22 -10 -8 -18 -40 -15 -84 15 -190 11 -41 21 -88 22 -105 1 -23 4 -18 11 20 6 30 6 57 0 70 -5 11 -14 41 -21 67 -10 44 -8 53 24 129 19 46 33 85 30 87 -3 3 -14 -18 -26 -46z"/>
<path d="M3219 3605 c5 -11 30 -45 55 -75 47 -56 70 -114 83 -206 5 -41 3 -49 -17 -64 l-23 -18 32 -7 c38 -8 55 -43 47 -93 -8 -51 16 -34 32 22 13 45 12 53 -12 120 -18 48 -26 91 -26 134 0 59 -1 62 -24 62 -17 0 -43 21 -91 73 -36 39 -62 63 -56 52z"/>
<path d="M4565 3580 c-4 -6 6 -7 27 -3 44 8 48 13 10 13 -17 0 -34 -4 -37 -10z"/>
<path d="M4757 3555 c-24 -50 -20 -58 4 -12 11 22 19 41 17 43 -3 2 -12 -12 -21 -31z"/>
<path d="M3354 3523 c17 -18 37 -33 45 -32 14 0 14 1 1 6 -8 3 -28 17 -45 32 l-30 26 29 -32z"/>
<path d="M4518 3383 c12 -2 32 -2 45 0 12 2 2 4 -23 4 -25 0 -35 -2 -22 -4z"/>
<path d="M2301 3342 c-17 -49 -10 -78 29 -127 16 -20 28 -41 25 -45 -12 -20 104 -44 122 -26 4 4 -16 28 -45 54 -35 32 -63 69 -85 116 l-33 68 -13 -40z"/>
<path d="M3555 3310 c27 -27 51 -50 54 -50 3 0 -17 23 -44 50 -27 28 -51 50 -54 50 -3 0 17 -22 44 -50z"/>
<path d="M3184 3310 c-25 -10 -41 -30 -24 -30 15 0 80 28 80 34 0 9 -32 6 -56 -4z"/>
<path d="M3724 2936 c24 -19 36 -20 36 -4 0 6 -3 8 -6 5 -4 -3 -16 -2 -28 4 -20 10 -20 10 -2 -5z"/>
<path d="M3770 2895 c7 -8 17 -12 22 -9 6 4 5 10 -3 15 -22 14 -33 10 -19 -6z"/>
<path d="M3937 2743 c-4 -3 -7 -16 -6 -27 0 -19 1 -19 10 3 10 24 8 36 -4 24z"/>
</g>
<g id="layer107" fill="#d0a78b" stroke="none">
<path d="M203 6875 c0 -33 2 -45 4 -27 2 18 2 45 0 60 -2 15 -4 0 -4 -33z"/>
<path d="M203 6505 c0 -33 2 -45 4 -27 2 18 2 45 0 60 -2 15 -4 0 -4 -33z"/>
<path d="M202 5980 c0 -19 2 -27 5 -17 2 9 2 25 0 35 -3 9 -5 1 -5 -18z"/>
<path d="M1793 5483 c9 -2 25 -2 35 0 9 3 1 5 -18 5 -19 0 -27 -2 -17 -5z"/>
<path d="M1963 5463 c9 -2 25 -2 35 0 9 3 1 5 -18 5 -19 0 -27 -2 -17 -5z"/>
<path d="M3015 5006 c-27 -41 -35 -87 -35 -198 0 -152 0 -152 215 -66 55 22 102 42 104 44 2 1 -7 31 -20 65 -17 44 -31 64 -49 71 -14 6 -34 15 -44 20 -11 6 -40 13 -65 17 -38 5 -47 10 -49 29 -2 12 -12 27 -22 32 -16 8 -22 6 -35 -14z"/>
<path d="M2110 4613 c-72 -26 -35 -123 47 -123 52 0 85 19 105 60 10 18 16 36 13 38 -3 3 -150 34 -150 31 0 0 -7 -3 -15 -6z"/>
<path d="M3120 3228 c-11 -25 -24 -77 -30 -117 -5 -39 -14 -90 -20 -114 -5 -23 -10 -55 -10 -72 0 -49 -20 -106 -33 -99 -7 4 -4 -2 6 -13 24 -28 15 -66 -48 -188 l-52 -102 -1 -130 c0 -78 -5 -139 -12 -152 -10 -20 -31 -427 -23 -444 13 -24 23 15 23 89 0 46 4 84 8 84 12 0 33 -118 42 -240 8 -102 21 -151 71 -259 28 -61 70 -115 79 -101 5 8 26 8 76 0 52 -8 79 -8 112 1 33 9 48 9 65 0 17 -9 39 -9 87 -2 36 6 95 11 131 11 46 0 70 5 79 15 6 7 31 17 55 21 25 3 49 12 55 19 6 7 19 11 28 8 28 -7 58 10 94 54 28 33 37 53 42 101 9 84 -3 170 -27 193 -19 18 -19 19 -2 45 14 21 14 26 3 21 -13 -4 -14 15 -11 141 2 81 6 153 8 160 7 19 28 14 57 -13 15 -14 35 -25 44 -25 14 0 14 -3 4 -15 -7 -9 -11 -16 -9 -18 2 -1 13 -8 24 -15 90 -56 120 -53 119 14 -1 88 -150 332 -221 363 -29 13 -32 18 -38 82 -4 37 -4 77 0 88 4 12 2 21 -4 21 -6 0 -11 6 -11 14 0 7 -12 36 -27 64 -31 55 -116 130 -253 222 -45 30 -88 61 -95 68 -8 6 -16 12 -18 12 -2 0 -34 19 -69 43 -36 23 -78 50 -94 59 -124 75 -138 86 -167 127 l-16 25 -21 -46z m478 -1138 c15 0 38 -9 52 -20 l25 -19 -22 -21 c-13 -11 -18 -15 -13 -8 20 24 9 29 -19 9 -49 -35 -131 -23 -131 19 0 21 47 52 68 45 8 -3 26 -5 40 -5z m-368 -90 c-1 -35 -73 -89 -95 -70 -10 8 -14 8 -17 -1 -3 -9 -13 -7 -36 6 -38 23 -39 29 -9 59 20 19 33 23 90 22 53 0 67 -4 67 -16z m473 -66 c-54 -51 -62 -54 -152 -54 -71 0 -83 3 -110 26 -17 14 -31 29 -31 34 0 11 82 20 100 10 27 -15 151 8 190 34 33 22 35 22 38 5 2 -12 -11 -33 -35 -55z m-493 -65 c-67 -58 -143 -75 -188 -43 -36 25 -26 34 41 34 62 0 136 25 152 50 5 9 10 9 19 0 8 -8 2 -19 -24 -41z"/>
<path d="M3753 905 c0 -13 32 -16 39 -4 2 2 1 3 -1 2 -2 -1 -11 2 -21 7 -12 6 -17 5 -17 -5z"/>
<path d="M202 800 c0 -19 2 -27 5 -17 2 9 2 25 0 35 -3 9 -5 1 -5 -18z"/>
<path d="M202 310 c0 -19 2 -27 5 -17 2 9 2 25 0 35 -3 9 -5 1 -5 -18z"/>
</g>
<g id="layer108" fill="#bd9178" stroke="none">
<path d="M3717 7082 c-23 -26 -21 -42 6 -42 37 0 51 14 38 39 -14 26 -23 26 -44 3z"/>
<path d="M2158 5443 c23 -2 59 -2 80 0 20 2 1 4 -43 4 -44 0 -61 -2 -37 -4z"/>
<path d="M1399 5323 l-34 -38 38 34 c20 19 37 36 37 38 0 8 -8 0 -41 -34z"/>
<path d="M3020 5015 c-7 -9 -11 -16 -9 -18 2 -1 18 -9 35 -18 30 -16 31 -16 26 8 -6 32 -36 48 -52 28z"/>
<path d="M3187 4922 c19 -34 6 -89 -37 -153 -16 -24 -30 -47 -30 -51 0 -5 169 58 179 67 2 2 -7 32 -20 66 -17 44 -31 64 -49 71 -14 6 -33 14 -42 19 -15 8 -16 6 -1 -19z"/>
<path d="M2071 4562 c-1 -23 39 -72 59 -72 6 0 -2 11 -19 25 -16 14 -32 36 -34 48 -4 22 -4 22 -6 -1z"/>
<path d="M3120 3228 c-11 -25 -24 -78 -30 -118 -6 -40 -13 -85 -16 -99 -3 -14 11 10 30 53 20 43 48 94 62 113 15 20 22 38 17 42 -5 3 -17 17 -26 30 l-16 25 -21 -46z"/>
<path d="M3234 3171 c4 -6 1 -11 -7 -11 -16 0 -65 -146 -53 -157 10 -10 33 21 53 70 12 28 23 39 44 44 34 7 29 27 -13 49 -17 9 -27 11 -24 5z"/>
<path d="M3471 2987 c40 -14 114 -55 190 -105 132 -88 110 -61 -28 36 -113 78 -142 92 -188 91 -39 0 -39 -1 26 -22z"/>
<path d="M3183 2965 c-54 -27 -94 -71 -119 -131 -26 -62 -10 -74 18 -14 31 67 69 104 127 125 73 25 116 16 185 -42 44 -37 45 -18 1 27 -43 44 -39 47 46 25 78 -21 172 -80 273 -174 l49 -46 -34 44 c-49 63 -193 167 -259 187 -30 10 -95 19 -145 21 -82 4 -95 2 -142 -22z"/>
<path d="M3615 2776 c57 -38 114 -91 169 -156 21 -25 33 -34 26 -21 -29 56 -200 211 -233 211 -7 0 11 -15 38 -34z"/>
<path d="M3600 2653 c30 -35 56 -63 58 -63 8 0 -39 58 -74 90 -26 25 -21 16 16 -27z"/>
<path d="M3193 2630 c-23 -5 -50 -13 -61 -19 -19 -10 -78 -89 -71 -95 2 -1 33 1 69 6 36 4 101 12 145 17 44 5 108 12 142 16 l61 8 -28 23 c-58 49 -151 65 -257 44z"/>
<path d="M3540 2634 c0 -6 7 -29 16 -49 l16 -38 -42 -61 -42 -61 41 45 c52 58 57 76 32 130 -11 25 -21 40 -21 34z"/>
<path d="M3270 2467 c-17 -37 -25 -38 -137 -15 -59 12 -73 12 -73 2 0 -7 5 -16 10 -19 6 -3 10 -14 10 -23 0 -10 25 -78 55 -152 30 -74 55 -146 55 -160 0 -14 7 -36 16 -48 9 -13 11 -22 4 -22 -6 0 -8 -5 -5 -10 4 -6 11 -8 16 -5 5 4 9 -2 9 -12 -1 -38 -71 -93 -95 -73 -10 8 -14 8 -17 -1 -3 -9 -13 -7 -36 6 -37 22 -37 23 -15 55 16 24 16 24 -1 11 -44 -36 -42 -72 5 -96 54 -29 97 -14 172 58 43 42 44 53 16 144 -40 131 -52 158 -86 196 -50 56 -45 65 45 103 32 13 49 28 63 56 11 21 16 38 12 38 -5 0 -15 -15 -23 -33z"/>
<path d="M3365 2401 c25 -6 30 -11 28 -35 -2 -26 -1 -27 11 -11 23 32 9 55 -33 54 -36 -1 -36 -1 -6 -8z"/>
<path d="M3960 2309 c0 -6 5 -20 12 -32 6 -12 11 -34 10 -48 -1 -15 5 -32 13 -39 13 -10 19 -10 35 5 33 30 26 70 -17 100 -41 27 -53 31 -53 14z"/>
<path d="M2920 2240 c-10 -19 -31 -426 -23 -443 13 -24 23 15 23 89 0 53 4 84 11 84 6 0 8 9 3 22 -9 28 -11 109 -3 114 7 4 12 154 5 154 -3 0 -10 -9 -16 -20z"/>
<path d="M3913 2173 c-7 -2 -12 -19 -12 -36 2 -31 2 -31 6 -4 6 36 28 44 56 21 l22 -19 -19 23 c-19 22 -30 25 -53 15z"/>
<path d="M3467 2118 c-30 -29 -30 -32 -12 -38 20 -8 35 -3 69 23 18 13 16 14 -15 9 l-34 -5 19 22 c30 33 8 25 -27 -11z"/>
<path d="M4133 2110 c-8 -41 -15 -43 -54 -17 -55 37 -63 41 -55 29 3 -6 2 -13 -4 -17 -5 -3 -10 -12 -10 -18 0 -7 5 -4 11 6 10 16 13 15 45 -13 43 -37 71 -39 84 -4 13 32 13 37 -1 28 -8 -4 -9 0 -4 15 3 11 4 21 0 21 -3 0 -8 -14 -12 -30z"/>
<path d="M3667 2082 c-15 -3 -16 -6 -6 -18 9 -11 9 -18 1 -26 -9 -9 -12 -9 -12 1 0 8 -10 5 -29 -8 -46 -33 -131 -23 -131 14 0 18 -10 19 -33 1 -17 -13 -17 -15 5 -35 12 -12 28 -19 35 -17 7 3 12 0 10 -7 -4 -20 84 -17 119 5 55 32 85 99 41 90z m-17 -57 c0 -7 -57 -35 -72 -35 -7 0 3 8 22 19 37 20 50 24 50 16z"/>
<path d="M3719 2002 c-13 -15 -12 -16 3 -4 14 11 17 10 21 -5 4 -16 5 -16 6 -1 2 25 -15 30 -30 10z"/>
<path d="M3406 1952 c-2 -4 11 -6 30 -4 19 2 34 6 34 8 0 8 -59 4 -64 -4z"/>
<path d="M3667 1865 c-15 -14 -24 -25 -19 -25 5 0 19 11 32 25 30 32 23 32 -13 0z"/>
<path d="M3083 1863 c9 -2 25 -2 35 0 9 3 1 5 -18 5 -19 0 -27 -2 -17 -5z"/>
<path d="M3550 1680 c-20 -6 -21 -8 -5 -8 11 0 29 3 40 8 25 11 -1 11 -35 0z"/>
<path d="M3408 1653 c12 -2 30 -2 40 0 9 3 -1 5 -23 4 -22 0 -30 -2 -17 -4z"/>
<path d="M3340 1570 c-30 -10 -50 -18 -44 -19 6 -1 24 4 41 9 16 6 65 14 109 19 l79 8 -65 1 c-38 0 -88 -7 -120 -18z"/>
<path d="M3775 1441 c-6 -5 -19 -11 -30 -14 -19 -4 -19 -5 1 -6 12 0 27 6 34 14 14 16 10 20 -5 6z"/>
<path d="M3453 1373 c9 -2 25 -2 35 0 9 3 1 5 -18 5 -19 0 -27 -2 -17 -5z"/>
</g>
<g id="layer109" fill="#b79077" stroke="none">
<path d="M2143 5443 c15 -2 37 -2 50 0 12 2 0 4 -28 4 -27 0 -38 -2 -22 -4z"/>
<path d="M3020 5015 c-15 -18 -14 -20 23 -29 20 -5 27 -3 27 8 0 24 -35 38 -50 21z"/>
<path d="M3183 4933 c9 -11 17 -29 17 -40 0 -29 -28 -104 -45 -123 -8 -9 -12 -20 -8 -23 3 -4 2 -7 -4 -7 -6 0 -14 -7 -17 -16 -6 -15 -4 -15 18 0 14 9 31 16 39 16 7 0 30 9 52 20 22 11 45 20 52 20 18 0 17 8 -11 76 -18 46 -30 61 -52 69 -16 6 -36 14 -44 19 -10 7 -10 3 3 -11z"/>
<path d="M2099 4511 c13 -12 28 -21 35 -21 12 0 -5 14 -39 31 -16 8 -15 6 4 -10z"/>
<path d="M3106 3104 c-17 -17 -21 -34 -8 -34 5 0 14 11 20 25 13 29 10 31 -12 9z"/>
<path d="M3450 2995 c46 -18 50 -18 44 0 -4 10 -19 15 -43 14 l-36 -1 35 -13z"/>
<path d="M3200 2972 c-25 -10 -45 -24 -45 -31 0 -8 -6 -16 -14 -19 -9 -3 -11 0 -6 9 5 8 4 11 -1 6 -5 -5 -10 -13 -10 -18 -1 -5 -2 -14 -3 -20 0 -5 -5 -8 -11 -4 -5 3 -17 -6 -26 -20 -13 -20 -14 -29 -5 -38 10 -9 11 -8 5 8 -4 11 -4 17 0 13 4 -3 23 11 43 32 19 22 44 42 55 46 17 5 18 8 7 16 -10 7 -5 8 14 3 21 -4 27 -3 21 6 -5 9 -2 10 10 6 10 -4 32 -7 50 -7 19 0 49 -11 69 -25 20 -13 39 -20 42 -15 6 9 -1 14 -17 11 -14 -2 -20 42 -7 50 27 17 -125 8 -171 -9z"/>
<path d="M3616 2915 c10 -8 24 -14 29 -14 6 0 1 6 -9 14 -11 8 -24 15 -30 15 -5 0 -1 -7 10 -15z"/>
<path d="M3056 2804 c-9 -35 -2 -40 12 -9 6 13 7 27 3 30 -5 2 -12 -7 -15 -21z"/>
<path d="M3650 2757 c0 -2 24 -24 53 -48 28 -24 46 -36 38 -26 -16 20 -91 81 -91 74z"/>
<path d="M3201 2629 c-25 -5 -48 -13 -51 -19 -4 -6 -13 -10 -21 -8 -8 2 -13 -3 -11 -11 1 -7 -3 -20 -10 -29 -11 -14 -10 -15 6 -9 39 15 105 29 117 25 7 -2 -23 -15 -67 -28 -85 -25 -78 -40 11 -22 27 6 77 13 110 17 33 3 74 9 90 13 25 6 19 8 -35 13 -59 6 -56 6 27 5 104 -1 108 9 17 44 -57 21 -109 24 -183 9z"/>
<path d="M2919 2233 c-3 -46 -1 -94 4 -99 7 -8 17 44 15 84 -1 33 -17 45 -19 15z"/>
<path d="M4008 2212 c-11 -4 -14 -12 -9 -20 6 -9 12 -8 26 8 18 20 13 24 -17 12z"/>
<path d="M4130 2085 c0 -18 -13 -19 -43 -4 -21 10 -21 9 1 -10 18 -16 28 -18 43 -11 10 6 16 17 13 25 -8 19 -14 19 -14 0z"/>
<path d="M3671 2081 c-10 -6 -11 -13 -3 -27 10 -18 11 -18 17 -2 10 25 3 39 -14 29z"/>
<path d="M3457 2041 c-17 -6 -16 -8 5 -27 13 -12 35 -20 50 -19 30 2 52 15 26 15 -8 0 -26 8 -39 19 -14 11 -31 16 -42 12z"/>
<path d="M3592 2016 c-32 -18 -33 -21 -7 -21 13 0 22 2 19 4 -2 2 4 10 14 17 21 17 5 16 -26 0z"/>
<path d="M2907 1987 c-3 -8 -2 -29 3 -48 8 -33 8 -33 9 14 1 48 -3 58 -12 34z"/>
<path d="M3044 1974 c-18 -27 -7 -53 16 -39 9 6 9 9 0 15 -9 6 -9 13 -1 29 16 29 5 26 -15 -5z"/>
<path d="M2903 1873 c0 -15 -3 -38 -6 -51 -4 -16 -2 -22 6 -19 15 4 22 76 9 89 -6 6 -9 -2 -9 -19z"/>
<path d="M2990 1851 c0 -10 39 -46 43 -40 2 2 -7 14 -20 26 -13 12 -23 19 -23 14z"/>
</g>


</svg>