<!DOCTYPE svg PUBLIC "-//W3C//DTD SVG 20010904//EN" "http://www.w3.org/TR/2001/REC-SVG-20010904/DTD/svg10.dtd">
<svg version="1.0" xmlns="http://www.w3.org/2000/svg" width="1280px" height="1280px" viewBox="0 0 12800 12800" preserveAspectRatio="xMidYMid meet">
<g id="layer101" fill="#262626" stroke="none">
 <path d="M2245 12785 c20 -16 79 -35 108 -35 9 0 17 -7 17 -15 0 -23 26 -29 61 -15 38 16 51 4 21 -21 -21 -16 -35 -18 -116 -12 -105 7 -162 -6 -177 -41 -8 -17 -4 -39 16 -97 15 -41 38 -113 50 -161 13 -49 32 -103 43 -120 21 -33 119 -118 202 -175 68 -47 89 -74 100 -132 12 -65 41 -114 76 -130 20 -9 30 -9 40 0 26 21 106 134 116 162 12 34 54 56 168 90 214 64 280 69 720 56 138 -4 147 -3 190 20 62 33 199 175 236 245 l31 58 5 -114 c11 -232 106 -406 263 -480 81 -37 163 -51 261 -45 182 13 318 71 435 187 191 189 242 481 126 720 l-32 65 -277 3 c-153 1 -278 0 -278 -4 0 -3 13 -24 29 -47 44 -65 58 -97 71 -163 28 -141 -64 -267 -122 -168 -20 34 -38 140 -38 226 0 31 -5 80 -11 108 l-11 50 -1171 0 c-1036 -1 -1170 -2 -1152 -15z"/>
 <path d="M6204 12784 c36 -93 201 -317 329 -445 153 -153 280 -237 434 -289 88 -30 113 -34 238 -37 90 -3 186 1 269 10 112 14 135 14 185 1 99 -26 464 -213 694 -356 80 -50 188 -84 230 -73 12 3 47 18 78 32 l57 26 188 -32 c383 -63 498 -69 639 -34 130 32 265 115 357 218 82 92 199 300 291 516 43 100 146 390 161 452 l6 27 -2081 0 c-1883 0 -2081 -1 -2075 -16z"/>
 <path d="M12025 12391 c-78 -36 -281 -217 -310 -276 -15 -32 -15 -46 -4 -125 31 -218 -65 -457 -218 -547 -24 -14 -46 -23 -49 -21 -2 3 11 46 31 96 l35 91 0 213 c0 180 -3 226 -21 298 -23 96 -20 129 17 203 14 27 23 52 19 55 -18 18 -172 -114 -176 -151 -1 -7 -5 6 -8 27 l-6 39 -45 -34 c-65 -50 -93 -103 -154 -295 -71 -222 -91 -321 -121 -578 -37 -322 -39 -380 -21 -465 38 -181 223 -412 401 -504 110 -55 266 -104 491 -151 300 -64 397 -88 477 -117 84 -30 274 -134 375 -206 l62 -44 0 650 c0 367 -4 652 -9 655 -5 3 -51 17 -102 32 -125 34 -321 44 -422 20 -38 -9 -70 -16 -73 -16 -2 0 -4 33 -4 74 0 100 -31 275 -76 426 -46 153 -53 272 -19 328 21 35 94 90 193 144 60 34 65 35 100 22 47 -17 103 -17 137 -2 32 14 28 28 -11 42 -19 7 -29 17 -26 27 2 13 -15 21 -80 38 -46 12 -123 33 -171 46 -104 30 -158 31 -212 6z"/>
 <path d="M858 11679 c-7 -13 -18 -33 -24 -44 -8 -14 -23 -21 -51 -23 -48 -4 -64 -19 -92 -90 -12 -30 -69 -127 -128 -215 -58 -89 -122 -195 -141 -234 -19 -40 -36 -73 -38 -73 -2 0 -35 21 -74 46 -65 41 -285 154 -302 154 -5 0 -8 -294 -8 -652 l0 -653 53 -46 c28 -25 122 -105 208 -177 201 -169 249 -222 249 -278 0 -23 -7 -61 -16 -85 -35 -98 -14 -199 42 -199 26 0 98 33 109 49 3 6 30 -2 63 -17 52 -25 68 -27 185 -28 127 -1 128 -1 160 -30 18 -16 45 -41 60 -54 l29 -25 -8 73 -7 73 40 42 c22 23 50 60 62 83 30 53 44 61 141 74 102 14 106 15 120 49 14 35 6 71 -32 141 -41 74 -66 100 -99 100 -52 0 -65 24 -114 210 -61 231 -79 283 -124 360 -21 36 -53 102 -71 148 -21 52 -42 89 -57 99 -19 13 -23 24 -23 68 0 61 -17 115 -55 175 -91 145 -87 298 15 566 23 60 48 134 56 164 26 95 83 131 152 96 65 -33 165 -27 204 11 18 19 14 21 -190 87 -260 83 -276 86 -294 55z"/>
 <path d="M3239 11603 c17 -34 13 -36 -25 -14 -19 12 -37 21 -40 21 -12 0 55 -72 104 -111 57 -46 87 -90 72 -105 -12 -12 57 -218 106 -321 19 -39 44 -80 57 -90 12 -10 33 -35 46 -56 34 -55 95 -97 142 -97 53 0 83 13 140 62 49 42 49 43 29 60 l-20 16 21 89 c28 116 23 220 -13 292 -14 28 -23 53 -20 56 11 10 118 5 130 -7 10 -10 18 -6 37 17 32 39 31 50 -2 28 -14 -10 -28 -13 -30 -8 -3 11 -126 11 -144 0 -6 -4 -15 -1 -20 6 -14 22 -11 29 14 29 21 1 21 1 3 12 -18 10 -18 11 5 24 21 11 18 12 -34 7 -54 -5 -60 -4 -87 22 -31 30 -38 28 -20 -6 13 -23 11 -23 -28 -4 -54 27 -120 29 -190 6 -73 -25 -97 -21 -158 25 -24 19 -47 34 -50 34 -4 0 -13 8 -21 18 -13 15 -13 15 -4 -5z"/>
 <path d="M5790 11385 c0 -2 11 -21 25 -41 28 -42 33 -82 9 -91 -8 -3 -33 2 -55 12 -21 10 -42 15 -45 12 -13 -13 84 -111 148 -149 94 -56 97 -60 60 -103 -17 -19 -36 -52 -42 -74 -7 -29 -20 -45 -46 -60 l-36 -22 -77 27 c-153 53 -328 41 -482 -36 -63 -31 -232 -170 -295 -244 -69 -80 -123 -209 -148 -355 -25 -141 -80 -227 -162 -250 -46 -13 -85 0 -148 47 -89 69 -141 87 -153 56 -3 -10 7 -29 30 -52 45 -48 63 -85 72 -147 22 -160 99 -225 268 -227 135 -2 197 75 257 318 32 129 53 162 134 202 73 37 90 33 210 -46 181 -119 399 -154 731 -117 71 8 213 19 315 25 102 5 264 21 360 35 96 13 194 25 218 25 66 0 41 16 -40 26 -58 7 -65 9 -33 11 97 7 105 11 105 48 0 31 -5 36 -52 59 -29 14 -78 29 -109 34 -46 7 -81 25 -194 96 -151 97 -194 118 -336 165 l-96 32 -92 100 c-71 78 -91 106 -91 129 0 42 90 271 117 297 23 22 32 63 13 63 -5 0 -10 9 -10 19 0 27 -46 78 -89 100 -30 16 -221 81 -236 81 -3 0 -5 -2 -5 -5z"/>
 <path d="M8320 10728 c-27 -57 -59 -138 -71 -182 l-23 -78 -16 59 c-31 113 -87 173 -163 173 -50 0 -93 -23 -113 -62 -38 -74 -71 -432 -59 -653 18 -360 102 -602 265 -766 65 -65 87 -80 165 -113 184 -77 369 -116 635 -136 121 -9 154 -15 196 -35 84 -41 85 -45 36 -135 -31 -57 -44 -94 -48 -139 -11 -99 22 -114 134 -61 76 36 132 39 223 10 88 -27 102 -39 149 -129 50 -95 74 -121 94 -100 8 8 26 52 41 99 21 66 27 109 29 195 3 104 4 113 38 177 62 115 74 288 33 449 -23 91 -93 232 -154 312 -61 81 -91 138 -123 233 -19 57 -23 90 -23 194 0 137 12 195 68 334 l33 81 59 5 c65 6 165 51 165 73 0 15 -10 21 -128 71 -46 20 -96 36 -111 36 -42 0 -78 -34 -117 -111 -43 -86 -60 -152 -74 -294 -14 -142 -43 -257 -95 -380 -15 -36 -23 85 -24 389 l-1 288 31 27 c17 14 47 41 67 59 35 33 35 34 16 51 -43 42 -209 76 -232 48 -7 -8 -35 -152 -62 -319 -27 -166 -58 -341 -69 -388 -12 -47 -21 -105 -21 -130 l0 -45 -108 0 c-79 0 -114 4 -126 14 -9 8 -32 47 -50 86 -19 40 -52 100 -75 134 -91 133 -100 190 -50 323 54 148 58 153 109 153 52 0 110 35 110 66 0 43 -176 123 -219 99 -31 -16 -96 -106 -130 -180 -17 -36 -40 -108 -51 -160 -29 -137 -29 -140 -40 -140 -6 0 -10 50 -10 124 0 197 23 252 143 340 l39 28 -28 29 c-37 38 -97 65 -162 73 l-53 7 -49 -103z"/>
 <path d="M2159 10271 c-51 -42 -87 -129 -91 -216 l-3 -68 41 -30 42 -29 58 20 c33 11 61 19 63 17 2 -2 -4 -22 -13 -45 -9 -23 -16 -69 -16 -105 0 -60 2 -65 28 -79 15 -7 42 -17 60 -21 19 -4 84 -41 145 -82 224 -151 351 -193 588 -193 163 0 209 6 209 26 0 16 16 19 25 4 3 -5 15 -10 26 -10 34 0 21 37 -36 104 -30 36 -71 90 -91 121 -19 31 -66 89 -104 128 -37 40 -77 91 -89 115 -25 49 -82 109 -141 148 -46 30 -54 27 -54 -20 l0 -32 -104 47 c-110 50 -141 73 -174 129 -47 78 -92 108 -115 78 -15 -21 -43 -102 -43 -127 0 -15 -5 -21 -16 -19 -10 2 -24 26 -35 65 -32 102 -92 130 -160 74z"/>
 <path d="M10940 9400 c0 -6 39 -50 86 -97 76 -77 85 -90 80 -115 -3 -17 8 -73 28 -146 49 -168 73 -226 115 -280 20 -26 47 -64 60 -84 63 -104 160 -115 264 -31 57 47 58 47 37 63 l-21 16 22 65 c33 92 34 264 2 327 l-21 44 61 -5 c34 -2 71 -7 82 -10 15 -5 26 2 44 24 28 36 22 47 -13 24 -17 -12 -26 -13 -26 -5 0 8 -10 9 -29 5 -17 -3 -39 -2 -49 4 -12 7 -31 7 -50 2 -22 -7 -34 -6 -41 3 -13 16 -4 26 23 26 17 0 18 2 6 10 -13 8 -12 11 5 24 18 13 14 14 -41 10 -60 -5 -63 -4 -89 28 -27 33 -27 33 -21 6 l6 -27 -42 19 c-53 24 -143 26 -197 4 -34 -13 -43 -14 -73 -1 -19 8 -52 29 -74 48 -81 68 -78 67 -65 42 17 -33 14 -36 -16 -15 -45 30 -53 34 -53 22z"/>
 <path d="M3040 8700 c-40 -43 -53 -106 -55 -275 -2 -114 -7 -160 -19 -190 -13 -30 -15 -56 -11 -100 3 -33 1 -94 -6 -135 -24 -161 -25 -159 22 -220 75 -98 94 -151 94 -260 0 -84 -4 -103 -31 -165 -16 -38 -62 -122 -100 -185 -85 -140 -98 -170 -98 -230 0 -62 40 -129 107 -179 76 -57 276 -158 328 -166 24 -3 190 -2 369 2 463 11 691 -1 745 -41 17 -12 17 -14 0 -39 -24 -38 -14 -68 50 -137 38 -41 58 -73 66 -104 6 -25 17 -51 25 -57 25 -20 15 -54 -27 -94 -77 -75 -102 -160 -55 -190 23 -15 23 -16 9 -83 -26 -121 -32 -136 -78 -214 -26 -43 -43 -82 -40 -88 11 -18 42 17 98 108 70 114 71 114 92 37 18 -68 65 -149 92 -159 25 -10 27 0 8 46 -10 24 -24 90 -31 148 -7 58 -20 127 -29 154 -30 87 -15 156 39 185 22 12 38 12 113 -3 48 -9 96 -25 107 -34 20 -18 183 -240 216 -294 26 -43 25 -77 -5 -165 -14 -41 -28 -104 -32 -141 -5 -63 -4 -66 12 -51 9 9 30 63 46 120 16 57 34 116 40 132 15 36 50 44 90 21 45 -27 69 -77 69 -146 0 -32 4 -58 9 -58 17 0 41 69 41 120 0 95 -42 148 -136 173 -63 16 -74 24 -105 73 -15 22 -52 69 -83 104 -54 63 -93 126 -83 137 8 7 124 -50 202 -101 39 -25 73 -46 78 -46 4 0 7 10 7 23 0 26 -37 72 -141 177 -41 42 -88 101 -104 132 l-30 57 35 98 35 98 0 196 0 196 -47 94 c-66 133 -234 384 -315 472 -98 105 -108 129 -108 257 1 70 8 142 23 215 18 86 21 122 15 165 -5 30 -5 79 -1 108 14 88 65 233 107 301 22 36 38 68 35 73 -7 11 -137 10 -168 -2 -34 -13 -46 -39 -59 -134 l-12 -81 -49 0 c-36 -1 -52 -6 -63 -20 -16 -22 -16 -16 12 -235 16 -127 16 -139 0 -195 -9 -33 -29 -113 -44 -177 -16 -64 -34 -131 -41 -148 -29 -69 -124 -83 -340 -50 -207 32 -288 21 -361 -46 l-26 -25 -61 131 c-79 165 -102 249 -102 363 0 134 57 267 178 413 57 69 62 94 22 105 -47 13 -135 10 -158 -6 -31 -23 -68 -90 -101 -186 -29 -84 -145 -346 -161 -363 -5 -4 -21 29 -36 75 -48 148 -41 378 17 569 24 81 20 131 -14 155 -32 22 -56 18 -87 -15z"/>
 <path d="M7035 8702 c-25 -15 -34 -32 -50 -93 -23 -82 -46 -99 -56 -39 -8 52 -46 120 -67 120 -27 0 -37 -11 -75 -76 -20 -33 -44 -70 -54 -81 -27 -32 -238 -141 -230 -119 8 21 -1 66 -14 66 -22 0 -131 -117 -157 -168 -15 -31 -58 -95 -96 -142 -37 -47 -78 -105 -91 -130 -12 -25 -43 -72 -68 -105 -24 -33 -50 -70 -56 -83 -21 -39 6 -56 41 -25 17 15 18 15 18 0 0 -30 67 -33 310 -13 147 13 300 86 480 229 41 33 107 74 147 93 81 37 80 34 63 138 -5 32 -17 67 -26 77 -27 30 -9 39 44 24 66 -21 77 -19 117 17 36 31 37 32 30 92 -9 79 -58 171 -111 208 -46 32 -59 34 -99 10z"/>
 <path d="M1815 8195 c-5 -2 -36 -9 -68 -15 -78 -16 -131 -62 -153 -134 -10 -32 -19 -118 -24 -231 -5 -117 -14 -198 -24 -232 -9 -29 -74 -162 -145 -295 -147 -279 -170 -318 -182 -318 -17 0 -93 106 -125 176 -18 39 -46 116 -62 171 -16 56 -36 110 -43 120 -8 11 -63 63 -123 117 -128 115 -183 176 -277 308 -38 54 -79 103 -91 109 -14 7 -42 9 -77 5 -31 -4 -78 -10 -106 -12 -27 -3 -56 -7 -63 -10 -7 -2 16 -29 55 -63 151 -131 379 -383 421 -467 26 -51 128 -378 147 -471 12 -62 18 -134 16 -203 l-1 -26 -76 37 c-42 21 -113 48 -158 61 -73 21 -100 23 -266 22 -157 -1 -200 -5 -285 -25 l-100 -24 -3 -613 -2 -614 37 23 c21 12 65 42 98 68 44 33 76 48 120 58 80 16 347 31 695 38 311 6 356 13 468 67 34 17 93 57 130 89 128 111 165 136 241 160 177 55 281 171 332 367 11 43 26 154 35 247 31 353 74 523 148 585 46 38 86 166 86 277 0 57 -4 62 -30 38 -16 -14 -17 -11 -18 52 0 69 -31 185 -56 211 -11 11 -14 6 -20 -30 -4 -24 -21 -88 -38 -143 -31 -99 -32 -100 -38 -60 -8 50 -40 113 -75 145 l-27 25 7 -25 c3 -14 7 -72 8 -130 l2 -106 -71 -139 c-132 -258 -148 -338 -139 -685 6 -230 5 -249 -14 -310 -18 -58 -79 -150 -99 -150 -4 0 -6 29 -4 64 5 89 -18 169 -89 316 -72 148 -95 210 -104 282 -12 95 33 237 117 365 l40 63 -6 77 c-4 43 -3 137 3 208 13 174 32 225 122 320 76 80 81 97 54 175 -8 23 -15 53 -15 66 0 21 -4 24 -37 23 -21 0 -42 -2 -48 -4z"/>
 <path d="M10539 7904 c-25 -30 -58 -88 -74 -130 -13 -37 -14 -35 -8 49 4 60 3 87 -5 87 -6 0 -27 -33 -46 -72 -20 -40 -36 -65 -36 -55 0 25 -27 21 -47 -9 -29 -41 -86 -100 -105 -107 -10 -3 -18 -11 -18 -17 0 -5 -9 -10 -20 -10 -11 0 -23 -7 -26 -15 -4 -8 -12 -15 -20 -15 -7 0 -20 -10 -28 -22 -9 -12 -18 -19 -21 -16 -9 9 -145 -50 -177 -77 -17 -14 -49 -35 -72 -47 -22 -11 -60 -34 -83 -49 -23 -16 -44 -29 -46 -29 -2 0 -7 17 -11 38 -7 50 -31 70 -90 78 l-47 7 -49 97 c-44 87 -103 160 -130 160 -4 0 -15 3 -24 6 -13 5 -14 1 -6 -28 12 -41 12 -41 0 -33 -20 12 -9 -7 33 -63 24 -31 55 -78 69 -103 l25 -47 -38 -15 c-28 -11 -40 -22 -44 -44 -4 -15 -10 -37 -15 -48 -5 -11 -9 -27 -9 -35 0 -30 -7 -65 -18 -83 -24 -45 17 -100 83 -113 38 -7 43 -18 17 -33 -19 -10 -78 -90 -175 -239 -54 -82 -74 -128 -82 -185 -1 -9 -14 -30 -29 -45 -15 -15 -27 -36 -27 -45 0 -10 -6 -20 -14 -23 -8 -3 -17 -17 -20 -30 -4 -14 -18 -30 -31 -36 -24 -11 -34 -28 -17 -28 5 0 17 -6 28 -14 17 -13 15 -14 -22 -9 -62 8 -63 -12 -2 -35 29 -11 60 -22 68 -25 8 -3 -13 -6 -47 -6 -100 -1 -77 -23 52 -47 l40 -8 -54 -7 c-91 -12 -97 -49 -8 -49 52 -1 52 -1 22 -14 -17 -7 -36 -21 -44 -30 -28 -33 11 -41 94 -19 13 3 7 -6 -17 -27 -69 -58 -33 -83 51 -35 23 14 45 25 48 25 3 0 -11 -18 -31 -40 -20 -23 -34 -45 -31 -50 10 -15 53 12 139 87 43 37 104 89 137 114 61 47 110 103 136 154 27 52 135 187 201 252 84 84 211 147 294 148 49 0 61 -4 88 -30 17 -16 42 -48 55 -71 14 -23 39 -54 57 -69 29 -25 37 -26 92 -21 34 3 113 0 176 -8 63 -7 116 -12 118 -11 1 1 -51 21 -115 45 -65 24 -134 54 -153 67 -19 13 -40 23 -47 23 -6 0 -35 27 -63 59 -60 69 -108 105 -175 130 l-47 18 69 62 c37 35 106 88 153 119 102 67 200 142 200 153 0 4 -8 9 -17 11 -15 3 -12 7 12 23 81 52 184 139 218 184 20 28 37 53 37 57 0 4 -15 4 -33 1 l-34 -5 33 61 c19 34 34 68 34 75 0 22 -26 13 -63 -23 -21 -20 -37 -33 -37 -29 0 4 14 38 32 76 23 51 28 72 20 80 -15 15 -44 -10 -85 -72 -20 -30 -27 -37 -22 -20 30 109 37 141 32 147 -14 13 -38 -10 -76 -74 -45 -76 -48 -75 -25 3 8 29 14 68 12 85 -3 30 -4 30 -19 13z"/>
 <path d="M12617 7856 c-81 -18 -101 -40 -103 -118 -3 -83 -36 -208 -79 -300 -42 -88 -58 -167 -80 -388 -26 -273 -38 -318 -90 -342 -32 -14 -63 9 -140 104 -37 47 -98 104 -163 154 -57 43 -128 105 -158 138 -61 68 -133 200 -175 323 -45 134 -119 233 -173 233 -28 0 -134 -36 -152 -51 -25 -21 -14 -48 45 -111 33 -36 64 -80 71 -103 7 -22 46 -87 86 -143 40 -57 98 -154 128 -215 33 -67 77 -138 110 -177 114 -134 208 -286 226 -365 9 -39 8 -64 -6 -127 -15 -70 -16 -94 -5 -206 11 -114 10 -133 -5 -177 -22 -67 -38 -98 -95 -181 -100 -145 -135 -157 -253 -86 -38 22 -116 60 -173 83 -72 29 -109 49 -123 69 -26 37 -113 74 -155 66 -39 -8 -57 -26 -84 -86 -11 -25 -26 -53 -33 -63 -11 -14 -10 -23 6 -50 11 -17 37 -68 59 -112 21 -44 55 -100 76 -125 59 -71 128 -176 156 -233 13 -29 37 -65 53 -80 26 -25 29 -34 25 -71 -4 -30 1 -54 15 -81 19 -39 19 -40 1 -94 -11 -30 -19 -56 -19 -58 0 -10 27 1 65 27 34 23 69 35 147 50 243 44 290 59 526 162 229 101 282 135 407 262 64 65 125 116 170 142 l70 41 3 611 c1 337 -1 612 -4 612 -3 0 -31 -7 -61 -16 -67 -19 -97 -13 -111 23 -6 16 -13 160 -15 343 -6 356 -11 331 79 432 89 102 114 151 114 231 l0 67 -62 -1 c-35 0 -89 -6 -121 -13z"/>
 <path d="M3 7810 c0 -25 2 -35 4 -22 2 12 2 32 0 45 -2 12 -4 2 -4 -23z"/>
 <path d="M7623 7103 c-32 -6 -29 -25 13 -88 l36 -54 -36 -31 c-35 -31 -48 -70 -23 -70 6 0 29 -5 49 -10 32 -9 52 -30 137 -143 225 -302 260 -392 213 -544 -23 -73 -189 -377 -230 -420 -35 -38 -69 -42 -167 -18 -79 19 -262 19 -344 0 -35 -9 -114 -38 -175 -65 -164 -72 -286 -120 -306 -120 -10 0 -33 14 -50 31 -69 70 -330 498 -440 724 -60 123 -108 184 -163 204 -48 19 -153 13 -197 -9 -22 -11 -40 -24 -40 -28 0 -4 20 -15 45 -25 34 -15 57 -35 98 -90 113 -151 179 -261 221 -365 57 -142 85 -195 139 -267 53 -72 113 -187 122 -238 7 -34 4 -40 -54 -104 -76 -84 -120 -169 -128 -249 -5 -47 -20 -86 -79 -199 -97 -186 -119 -260 -118 -395 1 -77 8 -135 27 -219 31 -130 33 -168 12 -198 -9 -12 -94 -63 -190 -113 -106 -56 -184 -102 -199 -121 -28 -33 -33 -73 -14 -113 23 -51 61 -63 304 -95 134 -18 142 -20 173 -51 30 -31 35 -32 89 -28 31 3 64 8 72 12 13 5 15 -11 15 -116 0 -119 8 -178 23 -178 9 0 168 450 183 519 15 71 7 118 -47 291 -68 219 -70 313 -6 372 43 40 84 48 247 48 167 0 185 4 286 62 88 51 205 93 326 117 134 27 438 61 550 61 111 0 161 15 258 78 167 107 379 314 391 380 10 53 -10 136 -56 229 -36 74 -51 92 -138 167 -109 94 -152 138 -206 210 -47 64 -47 97 3 254 l39 124 -97 151 c-157 247 -320 537 -329 587 -6 34 -12 44 -25 42 -10 -2 -30 16 -52 46 -43 60 -77 71 -162 55z"/>
 <path d="M2441 5405 c-16 -21 -24 -26 -30 -17 -4 8 -12 -8 -20 -40 -6 -29 -26 -83 -43 -120 l-31 -67 -27 19 c-16 11 -34 20 -42 20 -17 0 -70 -20 -128 -47 -25 -12 -54 -23 -64 -25 -10 -2 -28 -15 -39 -29 -18 -25 -18 -29 -4 -80 9 -29 15 -54 14 -55 -1 -1 -45 2 -98 6 -52 4 -117 4 -145 -1 -27 -4 -84 -8 -126 -8 -71 -1 -95 -6 -153 -33 -11 -5 -38 -8 -60 -8 -22 1 -64 -1 -94 -4 -43 -5 -59 -2 -74 12 -20 17 -20 16 -14 -28 5 -38 4 -42 -6 -26 -7 10 -22 31 -35 45 l-22 26 6 -30 c4 -16 13 -50 21 -73 19 -59 11 -62 -20 -9 -30 51 -57 77 -57 56 0 -8 14 -43 30 -77 17 -35 30 -66 30 -70 0 -3 -17 13 -38 36 -36 39 -72 55 -72 33 0 -5 16 -30 35 -55 44 -58 44 -64 2 -32 -39 30 -77 34 -77 10 0 -9 17 -32 38 -51 32 -31 34 -34 12 -27 -14 4 -38 8 -55 9 -51 0 -35 -27 35 -62 l65 -33 -62 6 c-45 5 -63 4 -63 -5 0 -15 34 -28 155 -58 55 -13 129 -33 165 -44 54 -16 101 -20 280 -23 234 -3 292 -12 385 -57 127 -63 185 -121 185 -186 0 -18 -11 -60 -25 -93 -36 -85 -33 -131 8 -177 19 -21 62 -87 97 -148 34 -60 59 -101 55 -90 -3 11 -19 67 -35 125 -37 138 -44 214 -25 293 19 79 19 141 0 203 -8 27 -15 50 -15 51 0 1 15 0 33 -3 77 -14 160 -39 282 -84 158 -59 205 -69 205 -46 0 20 2 20 46 1 75 -31 221 -65 279 -65 l60 1 -33 28 -33 28 78 9 c59 7 78 13 78 24 0 10 -17 18 -52 24 -29 5 -53 13 -53 16 0 4 37 13 83 21 60 10 82 18 82 29 0 12 -19 16 -90 20 l-90 5 50 13 c78 21 138 50 129 63 -7 12 -160 7 -199 -7 -14 -5 -17 -4 -10 3 6 6 35 18 65 28 30 10 73 27 95 39 l40 21 -54 3 c-29 2 -76 -2 -104 -8 -27 -6 -52 -8 -54 -6 -3 3 17 16 44 29 26 14 59 34 73 46 l25 20 -45 0 c-25 0 -62 -6 -82 -13 -38 -14 -48 -10 -27 11 17 17 -7 26 -80 29 -64 3 -111 16 -158 42 -13 7 -23 9 -23 5 0 -4 -5 -2 -12 5 -7 7 -25 12 -40 12 -15 0 -28 4 -28 9 0 15 -109 81 -172 102 -34 12 -75 30 -92 40 -17 9 -50 23 -73 30 -24 7 -43 14 -43 16 0 2 11 19 24 36 36 49 37 62 10 112 l-24 47 50 96 c53 100 67 156 52 206 l-8 29 -23 -28z"/>
 <path d="M4270 4892 c0 -6 5 -14 10 -17 6 -3 10 -11 10 -16 0 -5 -18 0 -40 11 -21 11 -42 20 -46 20 -17 0 46 -55 111 -97 82 -54 107 -81 99 -107 -4 -12 20 -71 67 -165 68 -135 81 -153 166 -238 94 -96 121 -113 177 -113 57 0 93 20 142 77 37 43 44 57 33 64 -8 5 -17 9 -21 9 -3 0 -4 53 -1 118 7 138 -4 198 -48 268 -17 25 -27 49 -24 53 4 3 40 6 80 6 57 0 75 3 79 15 3 8 11 23 18 32 19 26 2 33 -24 9 -12 -12 -24 -17 -26 -12 -2 7 -12 7 -30 0 -14 -6 -36 -8 -48 -5 -12 3 -34 -1 -50 -9 -30 -15 -44 -12 -44 11 0 8 9 14 20 14 25 0 27 20 3 20 -17 1 -17 1 0 14 9 7 17 17 17 21 0 4 -8 4 -17 0 -10 -4 -35 -11 -56 -16 -32 -8 -43 -6 -69 12 l-30 22 6 -21 c7 -19 5 -20 -26 -11 -70 20 -153 7 -209 -32 -20 -14 -36 -17 -60 -13 -36 7 -122 48 -151 73 -11 8 -18 10 -18 3z"/>
 <path d="M9180 4525 c-105 -13 -151 -32 -177 -73 -10 -15 -25 -32 -33 -39 -13 -10 -12 -17 7 -55 28 -55 61 -285 47 -324 -6 -18 -45 -52 -119 -102 l-109 -75 -126 -14 c-141 -15 -182 -25 -360 -90 -111 -40 -134 -45 -203 -44 -107 2 -154 -13 -163 -51 -7 -37 -2 -42 61 -62 l50 -16 -68 4 c-78 4 -77 -4 3 -29 30 -10 118 -41 195 -70 166 -63 290 -103 440 -144 61 -16 169 -50 240 -75 179 -62 284 -79 443 -74 113 4 137 8 217 37 155 57 195 53 265 -27 51 -57 60 -92 60 -227 0 -246 63 -335 241 -343 142 -7 198 31 249 170 20 55 52 91 125 144 17 12 26 25 21 32 -13 22 -77 13 -159 -23 -44 -19 -91 -35 -104 -35 -52 0 -110 47 -140 115 -14 32 -17 72 -18 200 -3 241 -26 317 -153 495 -84 118 -144 179 -230 229 -124 73 -280 106 -400 83 -52 -9 -55 -9 -88 20 -27 24 -34 37 -34 68 0 20 -11 58 -25 83 -14 27 -20 49 -15 52 6 4 42 17 81 30 89 31 199 96 199 119 0 3 -27 3 -60 -1 -60 -6 -60 -6 -60 21 0 17 13 39 41 66 l41 40 -43 -1 c-24 -1 -87 -7 -139 -14z"/>
 <path d="M12090 4033 c-25 -8 -84 -21 -132 -29 -49 -8 -125 -27 -170 -43 -46 -16 -111 -31 -145 -34 -63 -5 -191 -55 -215 -84 -10 -12 -8 -17 7 -26 11 -7 27 -14 36 -17 12 -4 -7 -26 -70 -81 -106 -93 -112 -96 -201 -109 -84 -12 -110 -24 -110 -50 0 -24 54 -86 91 -106 58 -30 31 -44 -61 -33 -56 6 -70 5 -97 -12 -39 -24 -43 -35 -33 -87 13 -75 81 -153 168 -195 l43 -22 47 25 c44 24 47 27 50 70 1 25 5 56 8 70 l6 25 26 -32 c26 -31 128 -93 152 -93 6 0 39 26 73 58 34 32 106 85 160 118 126 75 210 145 274 225 54 69 68 94 137 239 51 108 63 154 46 175 -9 11 -7 16 9 25 12 6 21 17 21 25 0 19 -59 18 -120 -2z"/>
 <path d="M12730 3641 c0 -10 7 -38 17 -62 12 -34 16 -81 17 -199 1 -154 1 -156 -31 -225 -25 -55 -33 -89 -38 -160 -9 -125 -30 -219 -65 -291 -31 -63 -62 -90 -180 -157 -91 -51 -390 -314 -454 -399 -35 -47 -90 -201 -115 -325 -16 -75 -19 -118 -14 -185 5 -70 3 -92 -10 -111 -24 -37 -129 -112 -228 -163 -87 -45 -129 -81 -129 -111 0 -9 6 -13 14 -10 78 30 261 71 290 66 29 -7 -6 -43 -102 -105 -48 -32 -104 -72 -125 -91 -34 -31 -42 -33 -106 -33 -39 0 -81 -4 -94 -9 -64 -25 -118 -133 -100 -201 11 -44 25 -45 34 -3 19 96 119 170 174 129 18 -13 20 -26 21 -153 0 -77 4 -145 9 -152 17 -29 29 27 34 168 l6 143 49 45 c28 25 104 85 170 135 l120 90 75 -6 c107 -9 136 -21 155 -60 27 -57 23 -70 -57 -199 -20 -32 -45 -85 -56 -117 -10 -33 -35 -80 -55 -106 -20 -25 -33 -50 -30 -55 15 -25 137 86 163 149 18 43 28 40 42 -10 44 -161 61 -208 74 -208 20 0 19 16 -5 109 -18 68 -20 93 -13 182 7 93 10 104 28 107 39 8 47 23 43 84 -3 38 -15 77 -36 118 l-31 61 34 35 c19 19 41 47 49 62 9 17 39 41 73 60 33 17 67 40 77 51 18 20 25 59 15 91 -9 33 152 21 334 -25 l27 -7 0 1030 0 1030 -22 6 c-38 10 -48 7 -48 -13z"/>
 <path d="M0 2614 c0 -897 2 -1034 15 -1034 7 0 155 -46 327 -102 427 -138 402 -134 575 -99 205 42 286 83 324 166 27 57 24 91 -22 270 -80 316 -50 454 128 585 69 51 79 69 87 160 3 36 17 103 31 150 14 47 27 117 29 155 2 44 15 104 35 163 39 115 50 222 28 275 -24 56 -75 68 -113 26 -14 -16 -19 -47 -25 -148 -16 -258 -74 -442 -182 -575 l-24 -30 -21 170 c-12 93 -25 216 -30 274 -15 166 -38 201 -142 217 -61 10 -90 7 -90 -9 0 -6 16 -51 36 -101 48 -119 78 -264 70 -342 -12 -136 -68 -239 -222 -415 -84 -95 -104 -112 -104 -90 0 18 -73 91 -109 109 -46 23 -107 37 -250 56 -62 8 -125 18 -140 22 -41 10 -114 49 -136 73 -22 25 -22 30 -12 285 6 163 8 172 82 335 58 128 64 149 54 177 -5 15 -20 24 -51 30 -49 10 -47 3 -33 140 7 68 7 72 -18 95 -14 14 -42 29 -61 35 l-36 11 0 -1034z"/>
 <path d="M3086 3572 c-19 -4 -19 -10 -3 -38 24 -43 63 -80 107 -105 43 -23 45 -27 48 -74 8 -126 -39 -321 -105 -435 -53 -91 -172 -206 -264 -254 -205 -108 -349 -258 -424 -443 -22 -55 -29 -91 -34 -188 -6 -110 -10 -127 -44 -201 -25 -56 -43 -115 -54 -183 -23 -144 -8 -152 114 -59 89 67 102 71 191 58 103 -14 152 -38 192 -94 40 -55 91 -90 120 -81 34 11 61 120 54 220 l-7 83 39 11 c75 21 74 21 356 -83 184 -67 377 -105 549 -107 168 -2 304 64 465 225 161 162 289 375 407 681 114 293 118 380 22 421 -76 31 -152 2 -228 -86 -20 -24 -37 -39 -37 -34 0 5 7 54 15 109 10 64 13 131 9 186 l-7 86 -58 17 c-69 19 -86 20 -145 5 -53 -14 -54 -23 -13 -96 30 -52 31 -59 27 -136 -4 -72 -10 -94 -50 -177 -25 -52 -53 -104 -61 -115 l-16 -20 -1 20 c0 11 10 56 21 100 28 110 34 208 19 305 -9 58 -19 90 -36 109 -21 25 -27 26 -123 26 -125 0 -135 -7 -102 -71 18 -33 32 -47 52 -51 48 -9 52 -23 46 -146 -9 -184 -26 -215 -167 -305 -47 -30 -115 -79 -151 -108 -75 -61 -99 -66 -149 -29 -28 21 -83 45 -138 61 -10 3 -10 8 2 26 18 29 41 106 56 183 7 33 50 191 96 352 46 160 81 298 78 307 -8 20 -70 43 -148 56 -108 17 -121 0 -71 -95 l35 -65 -24 -62 c-28 -74 -224 -475 -260 -533 l-25 -40 -1 51 c0 88 28 223 77 364 43 123 47 145 50 245 4 123 -10 170 -57 192 -23 11 -207 22 -244 15z"/>
 <path d="M6075 2539 c-9 -28 3 -107 30 -196 21 -66 23 -89 18 -177 -5 -93 -3 -106 20 -161 25 -59 65 -223 88 -360 10 -60 10 -83 -4 -153 -21 -104 -22 -317 -2 -467 8 -60 15 -127 15 -148 0 -45 -19 -127 -30 -127 -4 0 -10 125 -13 278 -8 306 -23 528 -40 600 -9 36 -17 48 -34 50 -32 5 -38 -32 -23 -126 11 -64 10 -126 -3 -362 -42 -726 -33 -884 65 -1116 l31 -74 2085 2 2086 3 26 99 26 99 109 48 c59 27 110 51 113 54 14 14 -14 14 -99 0 -123 -20 -119 -20 -110 12 6 22 31 42 116 93 l109 65 -115 3 -115 3 38 149 c48 192 75 349 88 524 23 283 -28 546 -133 688 -23 30 -54 37 -63 13 -7 -16 -74 -22 -74 -6 0 4 -18 28 -39 53 -96 109 -345 165 -417 93 -25 -25 -27 -31 -43 -153 -11 -89 -40 -170 -92 -260 -44 -75 -329 -358 -429 -425 -106 -71 -182 -130 -278 -215 l-83 -74 6 68 c24 253 27 702 6 834 -6 36 -11 97 -11 136 0 97 20 127 124 179 44 22 82 45 84 52 5 18 -46 40 -136 57 -105 20 -444 51 -466 43 -36 -14 -11 -107 55 -203 29 -43 31 -51 26 -103 -4 -31 -29 -139 -57 -241 -28 -102 -61 -246 -74 -320 -32 -182 -81 -301 -204 -498 -6 -10 -26 -1 -78 34 -79 54 -231 129 -484 239 -96 41 -187 88 -202 102 -57 55 -57 123 3 289 17 49 53 156 80 238 26 81 63 173 81 203 18 30 76 97 129 148 53 51 104 104 114 118 16 24 15 27 -4 46 -24 24 -93 46 -210 66 -126 22 -302 35 -322 25 -26 -14 -45 -73 -84 -261 -20 -96 -45 -209 -56 -252 -55 -216 -161 -421 -238 -462 -25 -13 -32 -11 -78 15 -68 39 -165 130 -218 204 -170 241 -229 608 -120 756 28 37 32 72 12 89 -21 17 -166 50 -312 72 -167 24 -182 24 -190 -2z m4209 -825 c25 -25 31 -61 30 -184 -1 -142 -27 -297 -98 -586 -70 -281 -136 -475 -243 -704 -64 -138 -66 -141 -103 -127 -23 9 -37 8 -62 -2 -18 -8 -52 -16 -75 -18 -41 -5 -42 -4 -45 28 -3 30 -8 35 -48 46 -25 7 -109 21 -188 30 -170 20 -163 -3 -63 213 122 264 196 386 393 648 169 225 236 350 257 482 9 57 15 69 47 98 38 33 147 92 170 92 7 0 20 -7 28 -16z"/>
 <path d="M3037 963 c-4 -3 -7 -14 -7 -23 0 -9 -9 -26 -20 -38 -31 -33 -25 -72 20 -138 22 -33 40 -62 40 -66 0 -14 -164 -8 -214 7 -104 32 -150 7 -86 -47 19 -15 40 -28 46 -28 6 0 14 -9 17 -19 8 -31 142 -23 217 12 58 27 180 47 180 30 0 -6 -6 -16 -14 -22 -20 -17 -83 -170 -106 -259 -11 -41 -25 -81 -32 -90 -24 -28 -94 -51 -187 -62 -52 -6 -141 -26 -204 -47 -103 -33 -115 -35 -157 -24 -56 15 -67 25 -92 78 -19 41 -40 54 -53 33 -10 -16 -55 -12 -55 5 0 29 -30 28 -57 -1 -24 -26 -35 -60 -35 -104 0 -8 -5 -25 -11 -38 -8 -16 -8 -25 0 -33 8 -8 8 -18 1 -35 -6 -12 -8 -30 -5 -38 6 -14 124 -16 1172 -16 830 0 1165 3 1165 11 0 6 -13 44 -30 86 -16 41 -30 77 -30 81 0 15 74 -68 108 -120 l37 -58 279 0 c264 0 278 1 265 18 -201 262 -474 479 -803 638 -211 102 -355 144 -562 163 -172 17 -191 21 -229 47 -43 29 -73 30 -185 4 -108 -25 -102 -25 -122 10 -21 37 -38 39 -38 5 0 -19 -8 -28 -32 -39 -41 -16 -46 -14 -54 29 -10 55 -99 116 -127 88z"/>
 <path d="M866 725 c-4 -14 -11 -23 -16 -20 -5 3 -14 -4 -20 -15 -6 -11 -17 -20 -24 -20 -8 0 -21 -11 -30 -25 -9 -14 -23 -25 -31 -25 -18 0 -19 12 -2 29 10 11 9 13 -6 8 -15 -6 -17 -3 -11 15 5 17 -2 13 -32 -16 -32 -31 -43 -36 -68 -31 -28 5 -29 5 -13 -9 17 -13 16 -15 -19 -26 -45 -15 -107 -70 -124 -109 -15 -36 -49 -52 -128 -59 -54 -4 -60 -6 -45 -18 16 -12 14 -13 -19 -14 -21 0 -38 -4 -38 -9 0 -11 113 -22 159 -15 33 5 42 2 78 -33 48 -45 237 -152 290 -163 21 -5 64 -14 95 -21 126 -27 186 14 202 139 6 49 6 52 -16 52 -18 0 -29 13 -52 62 -34 74 -111 158 -166 183 -22 10 -40 21 -40 25 0 12 55 58 75 62 15 2 20 12 22 41 4 42 -11 50 -21 12z"/>
 </g>

</svg>