<!DOCTYPE svg PUBLIC "-//W3C//DTD SVG 20010904//EN" "http://www.w3.org/TR/2001/REC-SVG-20010904/DTD/svg10.dtd">
<svg version="1.0" xmlns="http://www.w3.org/2000/svg" width="1600px" height="1600px" viewBox="0 0 16000 16000" preserveAspectRatio="xMidYMid meet">
<g id="layer101" fill="#000000" stroke="none">
</g>
<g id="layer102" fill="#531a1f" stroke="none">
<path d="M2 14879 c3 -1122 3 -1122 63 -1141 89 -30 145 -37 211 -28 91 13 132 26 186 59 27 17 56 31 64 31 8 0 14 3 14 8 0 4 15 16 34 26 19 10 47 31 63 46 62 59 95 68 263 74 166 5 220 16 315 62 70 34 169 129 203 195 36 69 60 91 152 138 47 24 92 48 100 55 8 6 28 18 45 26 59 30 148 131 192 220 64 131 112 328 100 407 -11 61 -27 111 -41 125 -19 20 -86 119 -86 128 0 5 -14 31 -30 58 -30 47 -31 50 -21 113 23 140 6 210 -82 347 -46 71 -88 109 -144 131 -20 8 -30 18 -26 27 4 12 -110 14 -786 14 -791 0 -791 0 -789 -1121z"/>
<path d="M6220 15980 c0 -11 -17 -35 -37 -53 -49 -43 -104 -130 -132 -208 -12 -35 -28 -75 -34 -88 -7 -13 -12 -62 -11 -110 0 -87 20 -167 67 -271 30 -67 32 -127 8 -227 -70 -295 -68 -463 10 -632 37 -79 89 -128 193 -180 108 -55 181 -79 285 -92 167 -22 282 -70 355 -148 83 -89 231 -177 331 -196 94 -19 210 -13 325 16 197 49 267 52 348 14 30 -14 66 -34 81 -45 74 -52 222 -69 326 -37 69 21 167 73 270 143 132 90 122 86 205 80 69 -4 216 11 300 32 113 28 248 135 298 235 23 46 88 117 107 117 5 0 24 7 40 16 17 9 44 24 60 32 69 36 167 107 200 145 37 43 85 122 85 139 0 6 8 22 18 36 24 34 70 212 78 300 8 82 -14 151 -72 232 -21 30 -49 74 -63 99 -13 26 -30 58 -38 73 -12 23 -12 37 -2 81 6 30 10 83 7 119 -8 131 -135 326 -232 358 -20 6 -36 18 -36 26 0 12 -233 14 -1670 14 -1670 0 -1670 0 -1670 -20z"/>
<path d="M14220 15989 c0 -6 -27 -41 -61 -77 -58 -64 -111 -151 -131 -217 -20 -66 -35 -132 -37 -165 -3 -54 28 -179 65 -265 39 -92 39 -130 -2 -315 -34 -149 -42 -257 -29 -353 14 -105 45 -202 81 -256 62 -94 261 -195 434 -220 113 -17 206 -39 256 -62 39 -18 65 -38 149 -117 82 -77 163 -127 240 -149 102 -29 125 -32 205 -29 88 4 127 11 295 55 92 24 226 7 276 -36 8 -7 21 -13 27 -13 9 0 12 270 12 1115 0 1115 0 1115 -890 1115 -639 0 -890 -3 -890 -11z"/>
<path d="M3175 14274 c-82 -21 -86 -29 -60 -143 20 -86 73 -353 92 -461 24 -136 27 -283 9 -371 -37 -181 -159 -453 -248 -555 -83 -96 -228 -221 -292 -254 -43 -22 -164 -129 -229 -202 -32 -36 -88 -115 -124 -174 -37 -60 -93 -137 -127 -172 -88 -91 -113 -134 -162 -276 -40 -115 -27 -240 41 -409 31 -75 32 -147 5 -254 -53 -213 -61 -316 -34 -449 17 -89 20 -97 58 -176 36 -75 105 -131 220 -181 104 -45 173 -65 266 -78 125 -18 145 -21 155 -29 6 -4 27 -13 48 -20 35 -11 89 -52 192 -144 100 -91 229 -149 360 -162 58 -6 249 23 300 46 40 18 133 26 207 19 66 -6 85 -13 140 -48 111 -73 220 -89 350 -52 71 21 81 25 183 86 36 22 74 45 84 50 9 6 38 28 65 50 48 39 48 39 196 42 81 1 165 7 186 12 22 5 56 14 76 19 101 26 216 119 275 222 42 73 82 108 173 152 47 23 87 45 90 48 3 4 20 15 39 25 57 29 142 115 136 137 -4 12 -2 16 7 13 13 -5 38 36 38 62 0 7 4 13 8 13 29 0 102 263 102 367 0 78 -17 124 -78 215 -27 40 -62 99 -78 130 -28 57 -28 58 -16 142 13 86 6 149 -20 200 -43 85 -107 182 -138 210 -34 30 -144 76 -185 76 -8 0 -15 4 -15 8 0 5 -11 14 -25 20 -14 6 -25 16 -25 22 0 22 -77 127 -129 177 -105 100 -253 153 -434 155 -99 1 -247 -24 -312 -52 -108 -47 -169 -60 -190 -41 -13 11 -147 54 -255 81 -98 25 -179 23 -295 -10 -97 -27 -138 -25 -196 8 -27 15 -49 30 -49 35 0 4 -7 7 -16 7 -18 0 -44 23 -44 39 0 6 19 57 41 113 82 203 97 263 114 437 10 111 10 166 0 298 -7 89 -16 171 -20 182 -3 11 -10 42 -15 68 -43 238 -190 624 -265 691 -30 28 -44 33 -98 37 -34 2 -71 2 -82 -1z"/>
<path d="M11155 14274 c-51 -13 -67 -27 -62 -59 6 -39 45 -239 57 -290 5 -22 14 -67 20 -100 6 -33 15 -76 20 -95 16 -63 30 -189 30 -270 0 -89 -18 -230 -31 -245 -5 -5 -9 -17 -9 -27 0 -10 -4 -26 -9 -36 -16 -29 -41 -90 -41 -97 0 -16 -122 -252 -152 -295 -18 -25 -63 -72 -100 -105 -38 -33 -78 -69 -91 -81 -21 -19 -89 -68 -125 -89 -60 -35 -196 -154 -233 -202 -58 -77 -141 -204 -143 -220 -2 -15 -23 -40 -118 -142 -37 -40 -68 -78 -68 -83 0 -5 -8 -22 -18 -36 -11 -15 -32 -63 -48 -107 -38 -106 -40 -223 -4 -335 13 -41 27 -80 31 -85 13 -18 39 -99 39 -125 0 -14 -11 -74 -25 -135 -14 -60 -31 -132 -37 -159 -6 -26 -11 -98 -11 -160 0 -239 71 -385 235 -476 31 -17 58 -30 60 -29 2 1 25 -8 52 -19 27 -12 57 -22 68 -22 11 0 28 -5 39 -11 11 -5 52 -14 92 -19 201 -27 242 -45 373 -171 81 -77 166 -127 281 -164 71 -23 191 -31 236 -16 20 7 50 14 67 16 16 2 47 9 67 15 74 21 189 37 238 33 28 -2 73 -15 100 -29 28 -14 77 -40 110 -57 82 -42 190 -49 289 -18 38 12 75 26 83 32 7 6 13 9 13 5 0 -7 177 105 268 170 18 13 52 17 165 19 164 3 244 20 345 72 67 34 152 107 152 129 0 7 6 14 13 17 8 3 20 18 28 34 27 52 64 102 84 112 60 28 92 44 110 54 11 7 49 29 85 49 36 20 88 61 117 90 61 64 134 203 158 303 9 39 21 84 26 101 13 44 11 173 -4 214 -6 20 -33 67 -58 105 -116 177 -118 181 -97 291 21 118 -24 238 -146 381 -28 33 -99 73 -130 73 -8 0 -18 5 -21 10 -3 6 -17 10 -30 10 -30 0 -87 49 -109 93 -45 90 -141 183 -233 227 -118 56 -319 78 -453 51 -30 -6 -75 -15 -100 -20 -25 -6 -75 -23 -112 -40 -63 -29 -126 -40 -141 -24 -25 24 -318 103 -385 103 -26 0 -92 -11 -147 -25 -55 -14 -113 -25 -129 -25 -31 0 -196 87 -196 103 0 5 23 66 50 136 28 70 50 133 50 140 0 7 6 27 14 44 33 77 41 151 41 397 -1 199 -4 261 -19 330 -10 47 -21 101 -25 120 -10 47 -50 187 -66 230 -54 147 -73 195 -106 265 -20 44 -55 100 -76 124 -39 42 -42 44 -109 47 -38 1 -78 1 -89 -2z"/>
<path d="M7131 10265 c-38 -17 -38 -18 -3 -185 26 -120 51 -252 67 -357 7 -45 16 -87 19 -92 4 -5 7 -75 7 -155 0 -140 -18 -274 -42 -301 -5 -5 -9 -17 -9 -27 0 -10 -4 -26 -10 -36 -18 -30 -80 -186 -80 -199 0 -7 -4 -13 -9 -13 -5 0 -17 -17 -26 -37 -20 -43 -56 -96 -67 -101 -5 -2 -8 -10 -8 -18 0 -8 -4 -14 -9 -14 -5 0 -13 -9 -16 -20 -3 -11 -11 -20 -17 -20 -9 0 -23 -11 -81 -65 -12 -11 -40 -34 -62 -50 -22 -17 -51 -40 -65 -52 -14 -13 -30 -23 -36 -23 -6 0 -25 -13 -42 -30 -18 -16 -36 -30 -42 -30 -15 0 -171 -151 -165 -160 3 -4 -2 -10 -10 -14 -8 -3 -15 -10 -15 -16 0 -6 -14 -25 -30 -43 -17 -18 -36 -47 -42 -64 -7 -18 -15 -33 -19 -33 -4 0 -13 -14 -20 -32 -7 -18 -20 -39 -29 -48 -39 -42 -60 -71 -60 -86 0 -9 -5 -14 -12 -12 -12 4 -78 -59 -78 -75 0 -5 -9 -22 -20 -37 -21 -29 -61 -135 -87 -230 -13 -44 -13 -63 -4 -98 6 -23 11 -51 11 -61 0 -17 7 -38 65 -201 29 -81 28 -96 -12 -250 -22 -87 -43 -220 -43 -281 0 -114 41 -273 89 -344 81 -119 269 -201 559 -244 92 -14 169 -53 246 -126 71 -68 140 -125 150 -125 5 0 21 -9 37 -21 16 -11 39 -21 51 -21 13 -1 30 -7 38 -13 39 -31 236 -38 345 -13 39 9 99 24 135 32 79 19 183 20 230 3 32 -11 61 -28 145 -82 26 -17 47 -20 162 -20 92 0 136 4 145 13 6 6 17 12 24 12 11 0 56 25 134 73 20 12 55 33 78 47 23 14 42 31 42 38 0 7 4 11 8 8 5 -3 20 5 33 17 22 20 37 23 194 29 93 3 185 9 204 13 46 10 179 77 219 111 31 26 122 147 122 162 0 16 79 92 96 92 11 0 33 9 49 21 17 11 39 25 50 30 46 23 65 36 58 42 -3 4 6 7 20 7 15 0 27 4 27 8 0 4 14 16 30 26 17 9 28 22 25 27 -4 5 0 9 8 9 22 0 65 62 120 173 39 78 55 126 74 221 13 67 22 135 19 151 -16 104 -35 145 -108 226 -10 10 -18 23 -18 28 0 5 -14 37 -31 70 -31 60 -31 60 -20 145 8 61 9 98 1 133 -13 59 -51 140 -79 170 -12 12 -21 27 -21 33 0 14 -51 70 -64 70 -6 0 -16 8 -23 19 -6 10 -33 24 -59 30 -72 18 -154 59 -154 76 0 8 -3 15 -8 15 -4 0 -13 13 -19 28 -18 40 -108 147 -122 144 -6 -1 -11 4 -11 11 0 7 -16 21 -35 31 -19 11 -35 23 -35 28 0 4 -8 8 -18 8 -10 0 -22 4 -27 9 -22 22 -174 53 -270 56 -135 5 -284 -24 -372 -71 -25 -13 -49 -21 -54 -18 -5 3 -9 1 -9 -5 0 -15 -76 -6 -104 13 -14 9 -36 16 -49 16 -12 0 -27 4 -32 9 -6 4 -58 20 -117 36 -91 23 -120 26 -190 21 -46 -3 -101 -11 -123 -17 -22 -6 -68 -16 -102 -22 -62 -10 -63 -10 -115 25 -30 19 -63 38 -75 42 -49 16 -48 52 7 171 19 42 60 163 78 230 34 126 47 316 32 480 -12 137 -34 281 -47 315 -8 19 -7 17 -17 65 -8 46 -60 205 -81 252 -8 17 -15 36 -15 42 0 6 -4 19 -9 29 -5 9 -13 28 -19 42 -33 83 -88 182 -114 207 -26 25 -37 28 -106 31 -52 1 -88 -3 -111 -13z"/>
<path d="M15122 10269 c-18 -6 -36 -16 -39 -25 -3 -8 2 -45 11 -82 9 -37 32 -150 51 -252 20 -102 40 -198 46 -215 15 -44 23 -342 11 -390 -6 -22 -16 -59 -22 -83 -12 -48 -58 -166 -99 -252 -14 -30 -26 -57 -26 -60 -2 -16 -90 -153 -115 -178 -16 -17 -30 -35 -30 -41 0 -6 -4 -11 -10 -11 -5 0 -22 -12 -38 -27 -55 -53 -114 -103 -120 -103 -4 0 -19 -11 -34 -25 -15 -14 -30 -25 -34 -25 -8 0 -105 -69 -119 -84 -5 -6 -29 -26 -52 -44 -42 -33 -143 -159 -170 -213 -8 -16 -18 -31 -23 -34 -4 -3 -6 -14 -3 -25 4 -14 0 -20 -11 -20 -9 0 -16 -8 -16 -21 0 -11 -4 -17 -10 -14 -5 3 -10 2 -10 -4 0 -5 -13 -25 -30 -43 -16 -18 -30 -38 -30 -44 0 -6 -12 -20 -27 -29 -60 -39 -122 -140 -152 -245 -7 -25 -17 -55 -22 -68 -11 -29 -12 -110 0 -148 5 -16 14 -54 21 -84 7 -29 23 -77 35 -105 39 -88 39 -140 0 -310 -33 -150 -43 -264 -30 -360 21 -153 61 -246 137 -315 40 -37 126 -87 183 -106 28 -9 59 -21 70 -25 26 -11 105 -28 180 -39 167 -24 216 -47 344 -164 96 -88 138 -114 246 -154 62 -23 85 -26 190 -26 100 0 137 5 220 28 140 39 273 40 341 2 26 -14 50 -26 55 -26 5 0 9 568 9 1308 0 1308 0 1308 -77 1300 -43 -4 -112 -16 -153 -27 -41 -12 -86 -21 -98 -21 -22 0 -139 64 -153 83 -3 5 -10 9 -15 10 -13 3 -7 72 9 109 8 18 23 56 33 83 9 28 20 55 24 60 9 13 34 102 56 200 26 113 26 419 1 560 -40 221 -104 435 -192 634 -51 118 -82 164 -125 186 -32 17 -136 19 -188 4z"/>
<path d="M2 7078 c3 -1312 3 -1312 88 -1339 47 -15 102 -28 122 -28 64 -2 216 36 238 59 3 3 14 10 25 16 93 51 127 72 188 120 69 54 69 54 216 54 139 1 231 13 276 38 11 6 34 16 52 22 77 29 173 122 221 215 28 55 50 72 186 146 206 111 303 232 356 449 12 47 25 99 31 116 25 83 -4 209 -70 298 -21 28 -51 76 -67 106 -16 30 -33 58 -37 61 -5 4 -4 38 2 77 23 151 12 202 -75 338 -66 103 -97 128 -209 165 -90 30 -90 30 -144 112 -79 120 -115 155 -221 214 -85 48 -225 76 -345 70 -152 -8 -218 -24 -355 -85 -50 -22 -84 -19 -180 15 -47 17 -105 36 -130 43 -25 6 -59 16 -76 21 -17 5 -45 9 -62 9 -32 0 -32 0 -30 -1312z"/>
<path d="M3123 6270 c-25 -10 -27 -27 -13 -100 14 -77 39 -203 50 -250 6 -25 24 -121 41 -215 26 -142 30 -187 26 -275 -4 -94 -30 -227 -56 -285 -25 -57 -81 -195 -81 -199 0 -13 -89 -158 -124 -201 -52 -64 -150 -150 -251 -219 -44 -30 -84 -59 -90 -63 -5 -5 -30 -24 -55 -42 -65 -49 -130 -113 -130 -127 0 -7 -4 -14 -9 -16 -5 -1 -34 -41 -65 -88 -31 -47 -60 -89 -64 -95 -4 -5 -14 -23 -22 -38 -7 -16 -49 -67 -92 -113 -80 -88 -119 -155 -157 -273 -23 -70 -28 -182 -11 -238 6 -18 15 -50 21 -70 6 -21 17 -51 24 -68 7 -16 17 -43 24 -58 15 -38 13 -130 -5 -202 -29 -119 -54 -270 -54 -331 0 -108 38 -258 87 -341 61 -104 269 -207 472 -233 187 -25 248 -55 402 -202 148 -141 357 -184 596 -122 86 22 131 28 219 29 110 0 111 0 165 -35 98 -64 132 -75 243 -75 73 0 116 6 156 19 61 21 192 98 290 169 64 47 64 47 176 47 150 0 271 22 363 67 69 33 171 114 171 135 0 5 8 17 18 28 9 10 26 36 37 57 27 51 48 70 125 106 36 17 67 34 68 39 2 4 7 8 12 8 5 0 36 16 69 36 86 51 160 135 208 235 39 83 46 102 77 226 30 118 14 264 -35 318 -10 11 -45 64 -77 118 -59 98 -59 98 -46 185 17 107 12 136 -36 237 -60 124 -135 209 -195 221 -19 3 -38 10 -41 15 -3 5 -17 9 -30 9 -34 0 -99 47 -118 85 -104 209 -311 315 -592 302 -133 -5 -232 -28 -336 -76 -70 -33 -88 -37 -103 -22 -11 10 -178 67 -222 76 -10 2 -31 8 -46 14 -54 21 -220 13 -319 -15 -51 -14 -100 -23 -109 -21 -10 3 -55 26 -99 53 -75 44 -81 50 -75 73 6 27 57 163 80 216 7 17 15 39 18 50 3 11 13 45 21 75 9 30 23 121 32 202 14 135 14 161 0 308 -17 164 -30 239 -67 370 -11 41 -27 98 -35 127 -37 136 -151 387 -194 428 -30 28 -36 30 -123 32 -51 2 -102 -2 -114 -7z"/>
<path d="M11111 6264 c-17 -12 -22 -23 -18 -43 11 -62 48 -249 56 -286 6 -22 15 -69 21 -105 7 -36 16 -78 21 -95 25 -83 35 -299 20 -406 -11 -75 -46 -185 -89 -277 -8 -18 -12 -35 -9 -38 3 -3 -2 -14 -11 -25 -9 -11 -15 -22 -14 -26 2 -3 0 -9 -5 -12 -4 -3 -25 -40 -47 -81 -21 -41 -57 -94 -79 -117 -23 -24 -38 -43 -35 -43 9 0 -45 -52 -67 -65 -10 -6 -16 -14 -14 -18 2 -4 -16 -19 -41 -34 -25 -15 -50 -32 -57 -39 -6 -6 -50 -37 -97 -68 -47 -32 -86 -64 -86 -72 0 -8 -6 -14 -14 -14 -28 0 -186 -177 -186 -208 0 -6 -7 -12 -15 -16 -8 -3 -15 -10 -15 -16 0 -7 -19 -42 -43 -78 -24 -37 -43 -69 -43 -72 1 -3 -24 -31 -54 -61 -70 -69 -110 -121 -110 -142 0 -10 -4 -17 -9 -17 -5 0 -23 -44 -41 -97 -30 -90 -32 -105 -27 -183 7 -91 17 -131 66 -252 32 -79 37 -115 22 -164 -9 -30 -30 -125 -52 -229 -19 -93 -14 -267 9 -351 30 -108 55 -156 105 -205 93 -93 232 -146 501 -194 111 -20 181 -54 260 -126 94 -86 133 -119 141 -119 4 0 19 -8 33 -19 15 -10 65 -31 112 -46 78 -25 95 -27 205 -23 80 3 136 10 169 22 71 26 231 44 290 33 51 -9 113 -36 137 -59 75 -70 288 -74 420 -7 69 34 184 107 248 155 43 34 45 34 150 34 292 0 474 80 578 254 46 78 70 104 113 124 37 17 203 111 246 139 37 24 106 118 144 196 49 103 83 237 88 346 4 102 -3 129 -53 199 -40 58 -103 161 -116 192 -10 24 -9 41 7 149 12 84 -20 172 -116 317 -42 62 -74 84 -168 113 -86 27 -120 53 -160 124 -17 28 -48 72 -69 96 -41 47 -146 119 -203 138 -187 63 -420 57 -595 -17 -11 -5 -42 -18 -69 -30 -48 -22 -48 -22 -96 -1 -27 12 -58 21 -69 21 -11 0 -22 4 -25 9 -3 4 -18 11 -33 15 -16 3 -59 15 -98 26 -101 28 -221 26 -345 -5 -104 -26 -140 -24 -185 15 -11 9 -38 27 -60 40 -22 13 -41 25 -43 26 -5 3 19 72 58 169 18 44 37 96 42 115 5 19 13 44 18 55 34 80 53 460 31 626 -18 131 -91 408 -141 534 -4 11 -14 36 -21 55 -38 106 -98 217 -134 248 -37 31 -42 32 -124 32 -64 0 -93 -4 -110 -16z"/>
<path d="M7151 2280 c-53 -13 -67 -32 -53 -77 6 -21 20 -87 31 -148 12 -60 34 -175 51 -255 35 -171 48 -358 31 -473 -9 -64 -37 -156 -81 -262 -34 -85 -116 -239 -149 -282 -22 -28 -37 -54 -34 -57 4 -3 0 -6 -8 -6 -8 0 -35 -21 -59 -46 -43 -43 -242 -194 -258 -194 -15 -1 -161 -137 -199 -185 -41 -52 -133 -190 -133 -199 0 -3 -11 -22 -25 -42 -14 -20 -25 -41 -25 -45 0 -5 728 -9 1635 -9 899 0 1635 4 1635 8 0 4 -15 12 -32 17 -26 8 -45 28 -88 93 -112 167 -210 235 -390 272 -186 38 -304 22 -562 -76 -36 -14 -51 -16 -70 -7 -34 16 -190 65 -294 92 -50 13 -184 14 -216 2 -114 -45 -187 -51 -238 -19 -19 11 -57 32 -83 45 -40 20 -47 28 -41 45 3 11 7 26 8 32 1 6 7 21 14 33 7 12 12 35 12 51 0 18 6 32 16 36 8 3 12 11 8 17 -3 6 -2 14 4 18 11 7 45 95 67 176 8 28 20 116 26 197 19 222 -2 443 -62 653 -12 38 -24 84 -29 100 -44 159 -160 424 -201 462 -42 38 -129 52 -208 33z"/>
<path d="M15132 2278 c-24 -5 -45 -15 -48 -23 -3 -7 1 -42 10 -77 8 -34 22 -103 31 -153 8 -49 20 -108 25 -130 4 -22 14 -67 20 -100 6 -33 17 -80 23 -105 7 -26 12 -117 12 -215 0 -150 -3 -178 -23 -240 -45 -136 -127 -321 -180 -404 -54 -84 -187 -209 -333 -314 -74 -52 -162 -124 -196 -159 -55 -55 -183 -228 -183 -247 0 -3 -10 -22 -23 -41 -13 -19 -26 -43 -30 -52 -6 -17 40 -18 878 -18 885 0 885 0 885 206 0 206 0 206 -67 201 -38 -3 -86 -9 -108 -15 -190 -49 -166 -49 -233 -3 -34 22 -65 41 -70 41 -4 0 -16 6 -25 13 -16 11 -15 17 9 92 14 44 29 85 33 90 10 13 56 149 69 205 6 25 17 70 24 100 17 74 17 402 0 495 -42 222 -89 402 -131 500 -5 11 -26 63 -47 115 -42 107 -77 175 -106 207 -35 38 -126 51 -216 31z"/>
<path d="M0 205 c0 -205 0 -205 760 -205 418 0 760 4 760 8 0 4 -15 13 -33 20 -24 8 -44 30 -77 83 -111 177 -215 249 -414 284 -96 17 -209 19 -274 5 -26 -6 -69 -15 -97 -21 -27 -6 -63 -17 -80 -24 -105 -44 -146 -57 -158 -48 -26 22 -318 103 -367 103 -19 0 -20 -7 -20 -205z"/>
</g>
<g id="layer103" fill="#fcb3c2" stroke="none">
<path d="M50 15989 c0 -7 20 -31 43 -55 44 -43 44 -43 143 -37 89 5 104 3 141 -15 67 -35 89 -80 84 -175 -1 -9 -12 -22 -26 -29 -32 -14 -55 4 -55 43 0 46 -20 77 -64 98 -35 17 -47 19 -81 10 -103 -28 -149 -24 -186 16 -49 51 -49 50 -49 -317 0 -343 0 -343 73 -377 64 -31 83 -35 172 -39 83 -3 110 0 159 17 74 26 103 53 146 136 41 79 46 84 140 131 100 50 148 86 272 203 87 83 98 113 68 194 -17 44 -35 69 -81 109 -39 35 -59 60 -59 75 0 23 0 23 -420 23 -306 0 -420 -3 -420 -11z m748 -226 c5 -49 -13 -73 -52 -73 -19 0 -38 6 -44 13 -35 42 -1 100 57 95 32 -3 36 -6 39 -35z"/>
<path d="M1020 15984 c0 -8 13 -26 29 -39 41 -35 75 -118 75 -185 1 -79 -31 -136 -128 -231 -100 -100 -189 -165 -258 -189 -69 -24 -107 -64 -141 -148 -27 -67 -30 -70 -85 -95 -81 -37 -164 -57 -257 -63 -77 -5 -106 0 -237 43 -17 5 -18 -20 -18 -441 0 -446 0 -446 100 -446 115 0 153 12 194 61 53 62 53 62 14 277 -9 45 -9 68 -1 80 13 22 106 68 152 77 20 4 63 18 96 33 75 33 151 35 211 4 23 -12 73 -46 110 -76 100 -80 164 -109 244 -109 146 -1 271 108 360 313 46 104 47 190 5 275 -16 33 -33 62 -36 65 -17 13 -79 128 -79 146 0 26 23 47 46 42 9 -2 27 -23 41 -48 14 -25 47 -82 74 -127 53 -88 76 -169 64 -232 -21 -113 -87 -247 -172 -348 -95 -114 -256 -179 -380 -154 -74 14 -164 58 -281 138 -103 69 -129 75 -190 44 -20 -10 -69 -28 -109 -40 -48 -14 -74 -27 -78 -40 -3 -10 4 -64 15 -121 30 -151 11 -199 -116 -286 -57 -39 -57 -39 -170 -39 -114 0 -114 0 -114 -137 0 -126 2 -138 18 -138 10 0 27 -6 38 -14 35 -25 141 -56 189 -56 91 0 242 70 350 161 31 28 72 56 89 63 18 7 97 16 186 20 177 8 259 20 310 46 47 24 118 101 159 172 47 84 83 110 260 192 75 35 184 146 229 234 55 105 92 238 92 327 0 84 -18 125 -114 269 -36 55 -69 115 -72 133 -3 18 -1 62 6 98 7 37 9 85 5 113 -10 69 -68 184 -119 235 -46 45 -51 48 -176 88 -61 20 -76 28 -78 47 -3 22 -5 22 -178 22 -151 0 -174 -2 -174 -16z m418 -290 c24 -7 29 -33 12 -65 -8 -14 -21 -19 -50 -19 -22 0 -40 3 -40 8 0 4 -3 17 -6 29 -5 16 1 25 23 37 33 18 31 18 61 10z m-195 -586 c6 -22 -25 -186 -40 -212 -18 -32 -117 -128 -141 -137 -14 -5 -45 -7 -69 -3 -36 5 -43 10 -43 29 0 28 39 55 79 55 22 0 36 9 58 38 40 52 51 79 57 137 7 71 15 91 39 103 35 17 54 14 60 -10z m-1087 -299 c3 -6 -2 -28 -11 -50 -17 -37 -21 -39 -62 -39 -32 0 -43 4 -43 15 0 22 27 72 42 78 23 10 67 7 74 -4z m685 -500 c45 -45 0 -121 -64 -106 -31 8 -41 35 -27 73 20 54 56 68 91 33z"/>
<path d="M6330 15987 c0 -8 -35 -56 -78 -108 -166 -202 -191 -340 -102 -560 57 -143 59 -168 20 -324 -36 -149 -50 -331 -31 -429 25 -136 93 -228 218 -297 77 -43 217 -82 333 -94 129 -13 195 -46 319 -159 128 -115 261 -176 385 -176 34 0 114 13 178 29 225 56 308 50 482 -35 108 -52 168 -63 242 -45 95 24 235 102 314 176 48 45 81 53 260 60 271 11 337 40 438 190 74 111 90 125 205 185 156 80 195 108 244 174 119 163 177 374 141 511 -7 25 -38 82 -70 128 -31 45 -71 109 -87 143 -30 61 -30 61 -15 125 19 79 13 149 -20 224 -56 126 -128 191 -236 214 -64 13 -120 44 -120 66 0 13 -25 15 -170 15 -187 0 -194 -3 -140 -55 45 -43 73 -111 74 -180 1 -100 -30 -147 -208 -307 -76 -69 -113 -93 -178 -119 -84 -32 -96 -45 -138 -134 -22 -46 -50 -91 -62 -99 -57 -38 -220 -76 -321 -76 -79 0 -138 16 -225 63 -40 21 -74 37 -75 35 -1 -1 -11 -21 -22 -43 -26 -52 -127 -177 -160 -199 -45 -30 -130 -41 -199 -27 -87 18 -145 53 -197 119 -114 147 -243 260 -362 318 -44 22 -57 33 -57 50 0 29 23 34 85 16 100 -28 296 -182 401 -314 69 -86 110 -107 209 -108 69 0 69 0 121 55 34 36 62 79 82 126 16 39 37 80 46 90 24 28 64 23 129 -16 130 -78 212 -100 324 -84 118 16 176 54 221 145 35 68 71 104 147 140 138 68 338 243 350 307 14 71 -29 159 -101 210 -29 21 -47 42 -51 59 -5 28 -5 28 -419 28 -301 0 -414 -3 -414 -11 0 -7 20 -31 43 -55 44 -43 44 -43 143 -38 90 5 103 4 144 -18 53 -27 80 -73 80 -135 0 -34 -5 -46 -24 -58 -31 -21 -56 -10 -56 25 0 79 -54 124 -135 115 -175 -20 -156 -24 -231 48 -95 92 -105 96 -148 64 -19 -15 -44 -41 -56 -57 -26 -36 -75 -62 -152 -80 -53 -12 -62 -11 -115 9 -32 12 -77 35 -100 52 -23 16 -70 46 -105 66 -57 33 -70 36 -138 37 -120 0 -163 -17 -249 -101 -74 -74 -101 -88 -101 -55 0 31 63 105 128 149 12 8 22 22 22 29 0 12 -56 14 -330 14 -268 0 -330 -3 -330 -13z m307 -174 c-3 -21 -13 -69 -22 -108 -26 -118 -19 -167 37 -254 18 -29 28 -58 28 -83 0 -32 -4 -39 -27 -44 -39 -10 -54 4 -98 92 -36 72 -40 86 -39 154 1 93 44 242 77 265 37 26 50 20 44 -22z m2146 -27 c4 -6 6 -27 5 -46 -5 -64 -84 -77 -109 -18 -12 29 -11 33 20 60 33 29 65 31 84 4z m660 -108 c8 -12 7 -24 -1 -42 -22 -50 -113 -27 -97 24 12 39 78 51 98 18z m-1889 -173 c26 -24 26 -26 11 -55 -8 -16 -23 -34 -33 -39 -21 -11 -63 -4 -74 13 -13 19 -9 60 8 84 20 29 55 28 88 -3z m1892 -172 c15 -27 49 -84 76 -128 84 -141 87 -228 11 -391 -75 -165 -190 -285 -309 -324 -164 -55 -267 -30 -481 116 -51 35 -104 64 -116 64 -12 0 -40 -9 -62 -19 -22 -10 -73 -28 -112 -40 -88 -26 -94 -38 -70 -156 21 -98 21 -126 3 -170 -19 -44 -93 -115 -152 -145 -45 -22 -54 -23 -193 -17 -162 7 -278 31 -316 67 -14 13 -30 49 -41 91 -18 68 -34 85 -60 60 -22 -22 -137 -81 -187 -95 -112 -33 -236 -12 -386 64 -98 49 -131 105 -131 225 0 67 -10 87 -77 154 -22 23 -47 54 -55 69 -25 50 -91 142 -102 143 -6 1 -43 0 -82 -1 -82 -2 -146 22 -200 76 -36 36 -45 74 -48 188 -1 74 18 106 66 106 28 0 28 0 28 -97 0 -88 2 -99 26 -130 14 -18 44 -43 66 -54 43 -22 67 -22 147 3 43 13 43 13 73 -22 16 -19 54 -73 85 -120 31 -47 80 -111 109 -142 54 -56 54 -56 53 -151 0 -72 3 -101 16 -120 42 -64 182 -126 307 -134 69 -5 82 -3 130 20 29 15 85 54 123 87 67 57 102 71 131 52 21 -13 47 -77 63 -152 16 -75 16 -75 81 -94 49 -14 99 -19 205 -20 131 -1 142 0 172 22 18 13 45 44 59 68 27 45 27 45 10 132 -8 48 -19 110 -22 138 -6 49 -5 52 25 73 33 24 129 61 156 61 9 0 46 14 83 31 57 27 74 31 124 26 67 -6 114 -31 203 -107 81 -69 151 -101 224 -102 58 -1 124 16 152 39 8 7 20 13 25 13 28 0 132 137 177 234 74 158 69 228 -28 381 -71 111 -77 128 -59 154 25 34 50 26 80 -26z m-219 -275 c-10 -111 -28 -159 -87 -226 -29 -33 -64 -65 -77 -71 -35 -16 -108 -14 -122 3 -24 29 21 76 71 76 30 0 81 52 102 102 9 20 19 62 22 93 8 63 32 95 72 95 25 0 25 0 19 -72z m-1087 -257 c0 -62 -41 -101 -91 -86 -26 9 -25 53 3 82 28 30 88 33 88 4z m-777 -149 c24 -21 22 -67 -5 -92 -12 -11 -24 -20 -27 -20 -25 1 -51 51 -51 96 0 16 8 27 23 33 23 9 32 7 60 -17z m-845 -98 c43 -30 14 -94 -44 -94 -20 0 -54 37 -54 59 0 15 42 51 60 51 8 0 26 -7 38 -16z m2311 -238 c7 -8 14 -30 18 -49 4 -28 1 -37 -18 -51 -51 -35 -106 -8 -95 47 12 58 66 88 95 53z m-1334 -246 c23 -9 26 -14 20 -43 -7 -33 -46 -77 -70 -77 -16 0 -55 47 -55 67 0 18 45 63 64 63 8 0 27 -5 41 -10z"/>
<path d="M7440 15988 c0 -7 30 -33 67 -57 58 -39 73 -44 124 -45 55 -1 61 2 99 39 22 21 40 47 40 57 0 17 -13 18 -165 18 -125 0 -165 -3 -165 -12z"/>
<path d="M14310 15982 c0 -10 -28 -52 -62 -93 -90 -106 -128 -177 -153 -284 -18 -77 -1 -182 49 -305 51 -126 53 -154 16 -300 -36 -144 -50 -334 -31 -435 12 -62 57 -166 88 -200 31 -35 96 -81 151 -109 65 -33 214 -73 307 -82 90 -8 209 -54 260 -100 22 -20 64 -58 93 -85 59 -54 169 -114 247 -135 80 -22 159 -17 290 17 152 40 269 43 360 10 32 -11 63 -21 67 -21 4 0 8 58 8 129 0 129 0 129 -65 136 -90 10 -185 36 -217 60 -20 15 -32 38 -46 93 -10 40 -22 73 -26 74 -4 0 -44 -20 -89 -45 -169 -94 -268 -101 -442 -31 -156 62 -205 124 -205 258 0 67 -14 97 -69 150 -22 22 -57 69 -78 104 -21 36 -49 77 -63 92 -24 26 -29 27 -102 22 -73 -4 -79 -3 -141 31 -35 20 -71 47 -79 59 -9 13 -21 62 -27 109 -11 74 -10 91 3 123 15 36 49 58 74 49 8 -4 12 -33 12 -100 0 -114 12 -140 82 -178 53 -29 93 -30 156 -4 24 10 37 11 50 3 9 -6 50 -60 89 -120 40 -59 98 -134 129 -165 57 -58 57 -58 50 -139 -7 -91 6 -135 53 -170 14 -11 31 -23 36 -28 26 -20 127 -56 192 -67 118 -20 179 1 296 104 63 56 94 68 125 52 22 -12 55 -91 67 -158 3 -22 12 -49 19 -58 11 -16 151 -54 199 -55 16 0 17 28 17 448 0 447 0 447 -47 468 -55 24 -66 23 -82 -14 -18 -39 -116 -166 -150 -195 -43 -36 -117 -50 -199 -37 -97 16 -150 49 -222 140 -83 106 -202 218 -278 260 -118 66 -122 69 -122 90 0 16 7 20 34 20 18 0 48 -5 67 -11 91 -31 303 -204 381 -309 31 -43 63 -75 85 -85 40 -19 147 -31 187 -21 33 8 100 96 151 199 48 97 63 105 131 72 27 -14 52 -25 57 -25 4 0 7 158 7 350 0 253 -3 350 -11 350 -6 0 -29 16 -50 35 -22 19 -43 35 -49 35 -21 0 -73 -40 -96 -74 -28 -41 -64 -62 -141 -82 -63 -16 -87 -17 -111 -5 -9 5 -35 17 -56 27 -22 9 -60 31 -85 49 -113 80 -139 90 -234 89 -53 0 -92 -5 -99 -12 -7 -7 -23 -12 -36 -12 -17 0 -47 -24 -103 -81 -75 -77 -100 -91 -107 -57 -4 20 69 109 117 143 79 54 74 55 -294 55 -317 0 -335 -1 -335 -18z m330 -140 c0 -4 -11 -52 -25 -106 -14 -54 -25 -113 -25 -130 0 -44 20 -103 54 -160 45 -75 37 -125 -21 -126 -27 0 -69 59 -103 143 -19 48 -22 69 -17 120 9 91 45 219 69 245 20 21 68 31 68 14z m911 -344 c13 -20 11 -33 -12 -62 -22 -28 -66 -35 -87 -14 -16 16 -15 59 3 85 13 18 20 20 51 13 20 -5 41 -15 45 -22z m-192 -862 c12 -26 12 -33 0 -55 -28 -50 -73 -36 -85 25 -8 42 10 66 45 62 17 -2 31 -13 40 -32z m-848 -86 c43 -24 7 -90 -49 -90 -33 0 -57 57 -35 83 18 19 55 22 84 7z m987 -509 c3 -26 -3 -40 -24 -62 -15 -16 -33 -29 -39 -29 -16 0 -41 30 -49 57 -11 34 34 75 77 71 28 -3 32 -7 35 -37z"/>
<path d="M15430 15991 c0 -5 24 -27 53 -49 97 -75 179 -77 243 -5 19 21 34 44 34 51 0 9 -40 12 -165 12 -91 0 -165 -4 -165 -9z"/>
<path d="M3195 14190 c-9 -15 1 -73 50 -270 24 -96 51 -222 60 -279 38 -223 -4 -434 -140 -718 -101 -211 -169 -289 -398 -456 -181 -132 -265 -216 -352 -356 -38 -62 -77 -123 -85 -136 -17 -25 -82 -106 -118 -145 -27 -29 -65 -100 -89 -167 -27 -73 -22 -201 10 -283 87 -225 85 -210 48 -362 -46 -188 -54 -252 -47 -353 13 -192 63 -290 187 -367 98 -61 187 -90 359 -117 69 -10 138 -24 153 -30 43 -17 103 -61 191 -140 92 -82 206 -142 306 -161 72 -14 97 -11 295 35 188 43 277 33 449 -52 88 -43 94 -44 172 -41 73 3 89 7 175 51 52 27 124 72 160 102 37 29 77 58 89 65 14 7 100 16 212 21 282 13 341 42 456 224 47 75 76 98 199 160 69 35 134 75 167 106 171 156 260 475 175 626 -35 61 -66 108 -83 122 -9 7 -16 17 -16 22 0 4 -13 31 -30 59 -34 58 -37 87 -14 157 13 42 14 59 5 105 -18 83 -74 192 -125 241 -43 42 -75 56 -187 81 -42 9 -76 43 -111 109 -41 79 -144 182 -212 212 -75 33 -184 55 -275 55 -77 0 -193 -19 -242 -39 -131 -54 -212 -82 -227 -78 -9 3 -46 18 -82 33 -36 15 -78 31 -95 35 -16 4 -65 17 -109 28 -107 28 -188 27 -274 -4 -45 -16 -91 -25 -129 -25 -53 0 -67 5 -121 40 -60 38 -103 55 -205 79 -124 29 -281 -2 -391 -76 -56 -38 -89 -40 -94 -5 -6 43 46 81 164 121 94 31 165 42 279 42 123 0 105 -18 176 184 72 202 98 343 99 525 0 107 -20 299 -41 387 -32 138 -138 429 -199 545 -36 68 -45 78 -78 88 -47 13 -59 13 -67 0z m270 -1010 c8 -25 0 -65 -30 -155 -13 -38 -31 -95 -40 -125 -20 -67 -120 -246 -142 -254 -36 -14 -29 19 30 164 20 47 47 139 62 205 14 66 28 128 31 137 14 47 77 66 89 28z m-780 -1085 c0 -47 -1 -50 -28 -53 -31 -4 -67 21 -67 46 0 27 42 63 70 60 23 -3 25 -7 25 -53z m644 -65 c35 -10 104 -45 154 -76 78 -50 99 -59 149 -62 58 -4 58 -4 116 54 69 70 129 104 182 104 42 0 63 -15 149 -101 53 -53 58 -55 141 -37 141 29 267 -77 233 -195 -7 -25 -15 -33 -37 -35 -34 -4 -46 10 -46 56 0 64 -77 109 -157 91 -123 -27 -146 -21 -210 57 -80 96 -125 97 -196 2 -35 -45 -100 -76 -176 -84 -49 -6 -67 -3 -113 18 -29 14 -76 41 -104 61 -28 20 -77 49 -109 63 -51 24 -66 26 -134 21 -119 -8 -147 -20 -231 -103 -42 -41 -82 -74 -88 -74 -36 0 11 86 81 147 117 103 256 136 396 93z m1674 -46 c79 -51 124 -146 114 -242 -9 -87 -35 -121 -207 -280 -61 -56 -164 -122 -190 -122 -10 0 -34 -12 -55 -28 -29 -20 -46 -45 -69 -101 -17 -41 -42 -82 -56 -93 -39 -29 -157 -66 -250 -78 -113 -15 -185 -3 -288 49 -45 23 -84 41 -87 41 -2 0 -16 -21 -29 -47 -37 -70 -126 -174 -171 -201 -35 -20 -51 -23 -131 -20 -130 5 -182 33 -268 141 -103 131 -215 231 -318 283 -68 34 -91 59 -78 83 9 18 13 18 61 6 85 -23 189 -92 331 -221 15 -14 54 -58 86 -97 70 -88 104 -106 204 -109 69 -3 79 -1 103 22 36 33 111 148 119 182 9 37 54 88 78 88 11 0 60 -22 107 -50 138 -78 222 -94 353 -64 59 14 78 23 112 58 23 22 57 70 77 106 33 61 40 68 120 110 118 62 167 99 262 193 109 108 114 119 92 194 -15 48 -29 68 -81 119 -68 64 -78 89 -41 104 28 11 52 5 100 -26z m-2351 -140 c3 -3 -4 -35 -15 -72 -14 -46 -21 -95 -21 -157 0 -87 1 -92 37 -149 52 -84 49 -146 -8 -146 -30 0 -47 22 -89 110 -30 62 -36 85 -36 140 0 75 40 232 66 261 16 18 54 26 66 13z m2125 -46 c37 -34 27 -80 -22 -106 -32 -17 -75 14 -75 55 0 27 6 37 33 53 39 24 36 25 64 -2z m661 -104 c27 -19 28 -38 2 -64 -25 -25 -62 -26 -84 -1 -20 22 -10 52 22 70 24 14 34 13 60 -5z m-1887 -175 c36 -25 37 -45 2 -81 -33 -35 -67 -36 -89 -3 -17 26 -12 58 14 88 20 22 37 22 73 -4z m1895 -171 c142 -239 144 -244 144 -335 0 -49 -8 -84 -30 -140 -95 -236 -232 -371 -412 -404 -55 -10 -74 -9 -133 6 -84 21 -118 37 -234 115 -49 33 -105 67 -123 76 -33 15 -37 15 -76 -5 -42 -22 -104 -44 -157 -56 -59 -13 -60 -18 -30 -175 23 -126 -2 -183 -116 -259 -61 -41 -61 -41 -210 -41 -266 0 -365 42 -383 162 -11 74 -15 75 -92 29 -89 -54 -163 -81 -241 -88 -71 -7 -105 1 -233 54 -154 64 -189 108 -198 253 -5 85 -5 85 -62 145 -32 33 -66 76 -76 95 -11 19 -34 57 -53 84 -33 48 -33 48 -88 41 -79 -10 -126 2 -193 47 -70 46 -80 70 -83 202 -2 70 1 87 17 105 11 12 27 21 36 21 32 0 41 -25 39 -112 -3 -94 4 -113 58 -154 32 -24 47 -29 93 -29 30 1 70 7 89 15 33 15 34 15 63 -20 17 -19 59 -78 93 -130 35 -52 79 -111 100 -130 57 -54 65 -76 58 -161 -7 -90 7 -125 69 -169 50 -36 180 -79 263 -87 54 -5 67 -2 122 26 34 17 90 55 123 85 73 65 92 73 126 51 29 -19 48 -60 64 -132 6 -26 12 -58 15 -69 9 -39 134 -69 290 -69 139 0 170 15 220 102 17 30 18 40 6 130 -7 54 -17 113 -23 131 -18 60 27 98 157 132 28 7 81 26 119 42 57 25 76 29 115 23 68 -10 97 -26 192 -103 104 -83 160 -107 249 -106 54 0 76 6 129 34 100 53 190 177 237 325 39 122 28 172 -71 325 -51 80 -59 109 -39 138 23 33 42 27 70 -20z m-214 -278 c-6 -125 -32 -181 -135 -283 -25 -25 -33 -28 -90 -25 -57 3 -62 5 -65 27 -5 30 21 51 61 51 63 0 137 118 137 217 0 40 42 86 74 81 19 -3 21 -9 18 -68z m-1085 -256 c16 -42 -42 -109 -84 -98 -12 3 -24 13 -27 21 -7 18 18 69 41 82 27 16 63 13 70 -5z m-796 -145 c27 -14 38 -48 27 -81 -18 -52 -67 -48 -87 8 -11 30 -10 39 3 59 18 28 28 30 57 14z m-827 -110 c32 -25 33 -49 2 -78 -32 -30 -65 -24 -89 16 -18 32 -18 32 7 58 31 30 45 31 80 4z m2318 -250 c30 -40 17 -84 -27 -99 -64 -21 -99 22 -70 84 25 52 65 58 97 15z m-1324 -257 c4 -29 -24 -79 -48 -87 -35 -11 -59 4 -66 40 -7 41 -1 53 39 70 38 16 71 6 75 -23z"/>
<path d="M11190 14159 c0 -23 20 -123 45 -223 56 -224 75 -335 75 -449 0 -132 -43 -320 -105 -462 -135 -306 -193 -377 -478 -581 -153 -110 -234 -196 -336 -358 -49 -78 -113 -168 -141 -200 -69 -79 -95 -119 -125 -196 -47 -120 -41 -233 20 -366 14 -30 32 -81 41 -113 17 -58 17 -58 -22 -217 -33 -137 -38 -175 -38 -274 0 -241 71 -372 247 -456 86 -41 151 -58 306 -83 149 -24 203 -49 311 -146 210 -188 342 -223 599 -157 203 52 295 44 475 -45 88 -43 94 -44 172 -41 71 3 90 8 166 45 77 38 142 82 235 158 30 26 38 27 217 35 215 10 245 15 306 45 56 29 105 80 163 170 57 91 83 112 221 180 97 47 124 66 178 123 108 115 178 285 178 432 0 108 -14 150 -83 249 -69 97 -107 169 -107 200 0 13 8 48 17 78 21 67 10 133 -39 232 -58 116 -103 150 -261 197 -63 18 -85 41 -127 124 -36 72 -126 159 -198 192 -189 86 -421 74 -662 -35 -61 -27 -93 -26 -175 10 -98 42 -264 83 -338 83 -40 0 -86 -9 -132 -25 -99 -35 -175 -33 -235 6 -133 86 -287 116 -437 84 -91 -19 -112 -28 -174 -72 -54 -38 -84 -42 -100 -12 -9 17 -7 25 13 46 65 70 241 123 425 126 62 1 116 7 122 12 5 6 17 33 26 60 10 28 27 75 37 105 51 143 79 261 89 375 11 122 6 324 -11 447 -20 142 -120 437 -211 625 -41 83 -75 113 -128 113 -18 0 -21 -6 -21 -41z m264 -975 c12 -31 6 -61 -41 -204 -59 -179 -146 -340 -185 -340 -18 0 -6 51 28 126 44 96 47 106 85 268 16 72 37 138 46 148 20 22 59 24 67 2z m-776 -1055 c24 -64 -23 -118 -72 -83 -31 23 -33 50 -4 81 27 29 66 30 76 2z m1302 -94 c14 -7 51 -41 83 -74 33 -34 66 -61 75 -61 9 0 41 5 72 12 112 23 221 -38 235 -132 9 -64 -6 -100 -44 -100 -32 0 -41 14 -41 61 0 36 -47 84 -92 93 -17 3 -61 -1 -99 -11 -84 -20 -109 -12 -172 57 -89 97 -120 99 -192 14 -40 -46 -56 -56 -112 -74 -36 -11 -80 -20 -99 -20 -42 0 -125 36 -190 83 -117 84 -189 101 -313 76 -70 -14 -87 -25 -166 -105 -34 -35 -68 -64 -74 -64 -6 0 -11 15 -11 32 0 27 11 43 63 93 132 125 270 163 418 114 79 -26 108 -41 182 -93 54 -38 63 -41 124 -41 65 0 66 0 107 45 50 55 92 86 143 105 39 14 60 12 103 -10z m978 -31 c84 -34 142 -120 150 -220 7 -91 -22 -147 -134 -256 -110 -108 -155 -140 -259 -188 -83 -38 -83 -38 -126 -127 -37 -74 -50 -92 -85 -111 -66 -36 -189 -64 -289 -65 -98 -2 -151 11 -226 54 -80 47 -85 46 -113 -8 -39 -77 -139 -188 -186 -207 -83 -33 -237 -12 -306 43 -14 11 -54 56 -89 98 -82 102 -187 200 -261 242 -95 55 -134 81 -134 89 0 5 6 16 13 26 12 17 18 17 53 6 59 -18 122 -50 173 -89 113 -85 202 -167 241 -222 58 -82 93 -107 170 -117 35 -5 79 -6 99 -1 49 11 101 73 156 185 59 124 71 127 188 58 79 -47 191 -84 254 -84 19 0 65 7 103 16 86 19 127 53 183 154 41 73 45 76 125 118 142 72 313 217 356 301 16 30 16 36 1 87 -15 52 -46 91 -124 157 -25 20 -27 40 -5 61 19 20 26 20 72 0z m-2320 -153 c11 -7 11 -16 -1 -52 -50 -152 -48 -239 8 -330 46 -75 47 -128 1 -144 -25 -9 -31 -6 -53 20 -84 103 -103 231 -58 381 17 59 34 97 51 112 28 24 33 26 52 13z m2126 -52 c40 -31 34 -79 -14 -104 -25 -13 -30 -13 -54 6 -33 26 -34 62 -1 94 29 30 35 31 69 4z m676 -114 c17 -20 3 -53 -29 -70 -25 -12 -31 -12 -50 1 -25 18 -28 59 -3 73 25 15 68 13 82 -4z m-1891 -176 c29 -27 26 -43 -10 -73 -34 -29 -42 -31 -70 -16 -26 14 -26 73 0 99 22 22 49 19 80 -10z m1921 -220 c30 -53 60 -103 67 -110 6 -8 21 -43 33 -79 20 -59 21 -71 10 -130 -7 -39 -33 -109 -65 -175 -69 -143 -145 -229 -248 -280 -169 -83 -287 -65 -497 75 -128 85 -142 92 -182 78 -18 -6 -38 -15 -44 -20 -6 -4 -36 -15 -65 -24 -113 -32 -111 -30 -106 -93 2 -31 10 -83 16 -117 18 -88 3 -135 -61 -197 -27 -27 -73 -60 -101 -73 -49 -23 -60 -24 -177 -19 -119 5 -190 15 -272 36 -47 12 -82 57 -99 124 -18 75 -26 80 -79 44 -93 -62 -199 -99 -286 -99 -89 0 -276 71 -337 129 -43 39 -60 87 -62 175 -2 78 -2 78 -58 138 -32 32 -67 78 -78 101 -12 23 -37 64 -57 90 -35 49 -35 49 -89 42 -78 -10 -126 2 -193 46 -71 48 -83 76 -84 200 -1 99 16 133 63 127 26 -3 26 -4 27 -99 2 -112 13 -136 81 -175 47 -29 98 -29 162 -3 33 14 34 14 68 -26 19 -22 59 -77 88 -121 29 -45 72 -101 95 -125 70 -73 73 -79 65 -162 -6 -63 -4 -79 13 -114 47 -92 274 -175 392 -143 48 13 135 66 178 110 44 43 80 63 105 56 31 -7 65 -70 82 -151 7 -36 18 -72 24 -79 37 -44 351 -70 416 -34 37 20 67 53 90 97 16 31 16 38 1 97 -9 35 -16 76 -16 92 0 16 -5 43 -11 61 -21 59 29 99 169 136 31 8 77 25 102 37 33 17 61 23 105 22 70 -1 108 -20 201 -99 164 -139 315 -148 449 -27 86 77 166 218 187 330 10 54 9 68 -9 124 -12 35 -46 103 -77 152 -60 95 -63 105 -43 136 24 39 49 20 107 -81z m-248 -190 c7 -45 -18 -156 -46 -204 -14 -22 -47 -62 -75 -88 -47 -44 -53 -47 -106 -47 -42 0 -57 4 -62 16 -10 27 11 48 63 61 75 19 124 91 138 204 7 55 22 80 56 91 22 8 27 2 32 -33z m-1085 -285 c9 -25 -9 -65 -39 -87 -24 -18 -31 -19 -53 -7 -33 18 -32 45 4 81 33 32 78 39 88 13z m-781 -159 c19 -19 23 -31 18 -48 -8 -28 -33 -57 -49 -57 -16 0 -41 29 -50 58 -8 27 17 72 41 72 8 0 26 -11 40 -25z m-842 -96 c35 -27 33 -52 -6 -83 -37 -29 -59 -23 -83 23 -14 27 -13 30 12 55 31 31 42 32 77 5z m2303 -227 c18 -11 35 -63 29 -88 -8 -30 -59 -50 -91 -36 -37 17 -36 82 1 111 28 22 42 25 61 13z m-1309 -285 c4 -36 -32 -87 -62 -87 -29 0 -44 17 -52 57 -8 39 25 65 76 61 30 -3 35 -7 38 -31z"/>
<path d="M7186 10191 c-8 -12 9 -100 55 -278 110 -432 91 -625 -97 -1008 -57 -116 -87 -165 -134 -217 -62 -69 -199 -182 -330 -273 -105 -73 -195 -173 -285 -318 -44 -70 -111 -164 -148 -208 -76 -89 -127 -188 -146 -284 -16 -77 -3 -158 45 -274 57 -136 59 -162 24 -314 -49 -211 -57 -301 -38 -414 45 -263 185 -367 576 -427 126 -19 167 -40 282 -142 202 -179 358 -221 585 -160 119 32 250 43 324 27 29 -6 95 -32 147 -57 158 -78 246 -73 419 23 37 21 90 57 118 82 88 75 80 72 282 82 189 9 243 17 305 49 44 23 129 115 183 200 41 64 45 66 172 131 167 85 241 153 302 279 61 125 84 211 85 305 0 95 -17 142 -96 254 -76 110 -100 163 -92 209 18 104 18 171 0 219 -41 109 -106 197 -168 228 -15 8 -58 22 -95 31 -82 21 -105 35 -126 82 -10 20 -37 65 -61 98 -82 116 -175 168 -344 195 -78 12 -230 6 -272 -10 -12 -5 -48 -17 -78 -26 -30 -9 -71 -23 -90 -32 -19 -8 -50 -21 -68 -29 -37 -16 -88 -19 -96 -5 -8 13 -151 67 -231 87 -104 27 -236 25 -302 -4 -105 -45 -158 -40 -264 29 -55 35 -151 64 -241 74 -99 10 -243 -23 -322 -74 -69 -45 -101 -51 -109 -21 -12 46 72 100 223 142 54 15 110 21 200 23 112 2 125 4 138 23 19 30 79 201 113 325 57 209 60 494 9 731 -26 119 -96 326 -158 466 -60 137 -80 170 -109 181 -31 11 -80 12 -87 0z m274 -1033 c0 -16 -11 -62 -24 -101 -13 -40 -31 -98 -40 -129 -30 -103 -131 -278 -162 -278 -20 0 -18 17 12 80 52 111 84 213 114 370 14 71 24 88 55 100 27 10 45 -6 45 -42z m-772 -1047 c4 -26 -23 -71 -42 -71 -16 0 -66 38 -66 50 0 4 14 22 30 40 28 30 32 31 53 18 12 -9 23 -25 25 -37z m1364 -139 c77 -76 77 -76 142 -63 70 14 122 9 175 -17 50 -25 74 -63 79 -126 4 -50 2 -55 -22 -71 -35 -23 -56 -6 -56 45 0 32 -6 44 -37 70 -48 39 -73 45 -126 30 -23 -7 -61 -14 -85 -17 -43 -5 -45 -4 -122 71 -55 54 -85 76 -103 76 -18 0 -45 -20 -94 -69 -60 -59 -77 -70 -122 -80 -101 -21 -150 -11 -244 54 -36 24 -93 59 -128 76 -58 30 -66 31 -138 26 -117 -9 -157 -28 -236 -107 -38 -39 -75 -70 -82 -70 -47 0 53 130 145 188 150 95 336 79 500 -45 46 -35 95 -53 143 -53 36 0 48 7 102 59 55 52 113 91 156 103 43 12 78 -6 153 -80z m938 18 c48 -31 90 -82 109 -133 19 -50 13 -137 -13 -192 -24 -49 -116 -146 -221 -232 -53 -43 -144 -93 -169 -93 -24 0 -75 -49 -92 -88 -50 -111 -55 -119 -94 -141 -48 -27 -80 -37 -180 -56 -141 -28 -229 -15 -344 49 -35 20 -68 36 -73 36 -5 0 -18 -19 -30 -42 -21 -44 -101 -148 -138 -181 -59 -51 -147 -67 -243 -42 -81 21 -105 39 -193 142 -125 147 -210 223 -309 275 -75 40 -90 52 -90 72 0 33 86 17 167 -32 106 -63 253 -191 310 -269 65 -89 112 -115 212 -115 52 -1 75 4 93 18 38 28 104 124 128 184 38 97 63 108 140 65 160 -91 261 -117 368 -94 110 22 163 62 212 159 34 67 57 88 135 125 87 42 179 112 273 208 78 80 82 87 82 129 0 65 -39 136 -100 181 -99 74 -44 134 60 67z m-2348 -141 c2 -6 -5 -44 -15 -83 -11 -39 -20 -105 -21 -146 -1 -69 2 -80 37 -143 43 -78 47 -119 15 -141 -21 -15 -24 -14 -51 12 -49 45 -90 146 -91 222 -1 75 37 229 66 266 20 25 54 32 60 13z m2130 -46 c25 -23 23 -65 -6 -92 -29 -27 -58 -22 -82 14 -18 27 -8 54 28 79 28 20 37 20 60 -1z m659 -103 c26 -14 24 -42 -4 -69 -20 -17 -29 -20 -49 -12 -39 15 -44 42 -13 68 29 26 38 27 66 13z m-1874 -181 c22 -19 15 -53 -16 -83 -34 -33 -60 -31 -80 6 -14 24 -14 30 2 63 16 34 21 37 49 31 17 -3 37 -11 45 -17z m1890 -181 c50 -89 75 -132 94 -159 10 -15 26 -56 35 -90 21 -82 9 -149 -50 -274 -79 -165 -170 -262 -295 -315 -149 -62 -272 -30 -494 125 -90 63 -110 66 -194 30 -32 -14 -78 -30 -102 -36 -25 -6 -51 -15 -58 -21 -17 -14 -16 -68 2 -143 34 -142 9 -200 -119 -283 -27 -17 -65 -35 -84 -38 -55 -11 -266 3 -345 22 -104 25 -121 40 -149 131 -13 42 -29 78 -34 80 -6 2 -21 -6 -34 -17 -14 -12 -62 -40 -108 -62 -73 -37 -93 -42 -167 -46 -74 -4 -95 -1 -161 22 -211 75 -264 134 -264 294 0 63 0 64 -54 120 -30 31 -70 85 -90 119 -20 34 -48 75 -61 92 -25 29 -27 29 -99 24 -66 -5 -79 -3 -130 22 -31 15 -69 42 -85 60 -25 29 -30 44 -36 119 -10 121 4 166 51 166 30 0 39 -31 31 -108 -8 -80 16 -131 78 -168 53 -30 91 -33 149 -9 60 25 58 27 167 -135 27 -41 69 -95 92 -120 73 -77 72 -75 72 -174 0 -72 4 -98 19 -122 40 -67 213 -138 336 -139 55 0 73 5 121 33 31 17 84 57 118 87 34 30 68 55 76 55 45 0 75 -46 100 -158 9 -39 22 -75 28 -80 25 -21 174 -44 278 -44 121 0 170 17 211 74 20 29 23 43 21 116 -1 46 -6 98 -12 115 -5 18 -12 47 -15 65 -9 53 29 83 154 122 57 18 113 38 124 45 63 41 173 21 253 -45 124 -102 215 -150 288 -150 40 0 119 27 165 55 83 52 174 183 215 309 41 128 30 177 -81 351 -45 71 -53 102 -32 123 24 24 46 12 75 -40z m-225 -268 c-4 -117 -25 -166 -103 -244 -68 -68 -68 -69 -114 -63 -26 2 -51 9 -57 15 -17 17 1 52 30 58 93 20 137 73 157 192 14 79 39 117 74 110 13 -3 16 -16 13 -68z m-1086 -255 c8 -21 -15 -74 -37 -86 -31 -16 -69 -1 -69 28 0 50 90 100 106 58z m-776 -157 c24 -26 26 -55 3 -80 -32 -35 -68 -18 -79 39 -4 21 -1 35 11 46 22 23 40 21 65 -5z m-820 -132 c0 -24 -36 -56 -64 -56 -8 0 -24 12 -35 26 -24 30 -15 59 22 73 32 12 77 -13 77 -43z m2284 -199 c12 -9 19 -28 20 -52 1 -33 -3 -41 -26 -52 -34 -17 -74 -7 -81 19 -10 37 26 97 59 98 5 0 18 -6 28 -13z m-1323 -247 c5 0 9 -14 9 -32 0 -33 -41 -88 -66 -88 -15 0 -44 44 -44 68 0 30 49 65 78 56 8 -2 18 -4 23 -4z"/>
<path d="M15180 10162 c0 -20 23 -130 50 -242 60 -246 74 -351 66 -490 -12 -223 -128 -528 -272 -716 -62 -82 -89 -106 -232 -213 -165 -122 -174 -128 -245 -199 -42 -41 -97 -113 -144 -187 -42 -66 -111 -163 -152 -215 -98 -122 -108 -138 -137 -223 -40 -118 -30 -225 36 -377 43 -99 44 -166 4 -320 -26 -102 -29 -132 -29 -265 0 -131 3 -159 23 -217 42 -121 120 -193 279 -257 37 -15 100 -33 138 -39 202 -34 243 -44 290 -67 27 -14 75 -48 105 -76 102 -94 137 -119 226 -161 124 -58 199 -62 377 -19 158 38 277 42 364 11 32 -11 61 -20 65 -20 4 0 8 58 8 129 0 128 0 128 -57 134 -94 9 -196 36 -225 60 -21 16 -32 41 -45 94 -11 43 -23 73 -31 73 -7 0 -31 -11 -53 -26 -189 -119 -315 -125 -529 -26 -108 50 -150 112 -150 221 0 78 -8 96 -68 157 -27 28 -57 66 -67 85 -9 19 -33 57 -53 86 -35 52 -35 52 -116 51 -69 -1 -88 2 -132 24 -90 47 -108 72 -123 165 -14 97 -4 154 33 178 45 30 56 12 56 -89 0 -109 9 -130 74 -173 53 -36 95 -41 136 -18 14 8 37 14 52 15 26 0 51 -29 158 -185 18 -27 58 -77 88 -109 54 -59 54 -59 48 -139 -7 -98 7 -135 73 -182 58 -42 197 -85 275 -85 72 0 142 35 235 115 97 85 146 70 171 -53 23 -113 30 -125 85 -144 28 -9 76 -19 108 -23 57 -7 57 -7 57 441 0 449 0 449 -49 470 -54 24 -61 22 -79 -20 -25 -57 -140 -193 -178 -211 -61 -29 -141 -31 -219 -6 -85 28 -113 48 -180 136 -95 125 -215 226 -364 307 -35 19 -42 53 -12 63 33 10 128 -31 214 -92 84 -60 217 -186 276 -262 45 -57 98 -81 182 -81 67 0 67 0 116 54 29 31 67 91 93 144 49 104 66 115 130 82 75 -38 70 -59 70 321 0 384 7 345 -79 401 -32 20 -35 21 -65 4 -17 -9 -42 -32 -55 -51 -31 -45 -71 -69 -149 -89 -58 -15 -69 -15 -117 -1 -29 9 -77 33 -107 55 -30 21 -83 53 -119 72 -56 29 -72 33 -136 31 -115 -2 -166 -24 -251 -110 -40 -40 -78 -71 -83 -68 -45 29 61 154 183 215 76 38 86 40 169 40 106 0 159 -17 274 -90 141 -89 189 -89 275 2 31 32 60 58 64 58 5 0 18 7 28 16 20 19 96 24 141 10 27 -8 27 -8 27 134 0 143 0 143 -82 137 -52 -4 -111 -16 -158 -32 -96 -35 -138 -31 -229 24 -182 110 -448 108 -597 -5 -17 -13 -44 -24 -61 -24 -28 0 -30 2 -27 31 6 53 83 96 235 135 83 21 121 25 207 23 101 -3 105 -2 118 22 27 47 123 358 138 445 19 104 21 363 5 481 -15 117 -85 369 -129 468 -5 11 -21 52 -36 90 -38 100 -83 183 -112 206 -14 10 -40 19 -58 19 -33 0 -34 -2 -34 -38z m268 -1002 c2 -30 -5 -66 -21 -110 -14 -36 -36 -101 -50 -145 -37 -118 -133 -275 -159 -259 -14 9 -8 34 28 122 20 48 40 96 44 107 12 29 37 131 50 200 15 83 30 115 54 125 39 16 51 8 54 -40z m-784 -1016 c31 -30 13 -104 -25 -104 -28 0 -69 29 -69 49 1 28 39 66 72 70 4 1 14 -6 22 -15z m-27 -306 c-40 -169 -48 -223 -37 -272 6 -28 22 -69 37 -90 33 -50 44 -91 33 -120 -28 -75 -104 -14 -152 123 -24 69 -18 158 17 269 27 84 47 112 83 112 20 0 23 -4 19 -22z m901 -314 c12 -8 22 -25 22 -37 0 -26 -44 -77 -67 -77 -44 0 -68 66 -41 110 15 24 55 26 86 4z m-184 -866 c24 -33 19 -64 -11 -88 -28 -22 -28 -22 -50 5 -25 28 -29 55 -13 86 14 26 55 24 74 -3z m-836 -101 c20 -16 10 -58 -19 -80 -30 -22 -60 -13 -79 24 -30 56 45 99 98 56z m968 -475 c32 -22 13 -88 -31 -112 -21 -11 -28 -11 -44 4 -23 21 -31 58 -19 81 16 27 71 43 94 27z"/>
<path d="M0 8165 c0 -113 3 -145 13 -145 7 0 40 -27 72 -61 53 -55 62 -60 89 -54 100 20 145 18 200 -9 44 -22 59 -35 77 -72 29 -61 18 -123 -23 -138 -34 -12 -39 -7 -45 41 -6 48 -29 82 -76 106 -34 18 -39 18 -91 3 -89 -26 -132 -20 -177 25 -10 10 -23 19 -29 19 -6 0 -10 -121 -10 -342 0 -343 0 -343 77 -377 60 -26 94 -35 160 -39 155 -9 251 35 304 141 39 76 68 106 141 142 131 65 297 201 345 282 24 41 25 47 13 86 -21 72 -44 107 -95 145 -52 40 -65 63 -45 87 42 51 178 -47 214 -153 43 -124 -1 -215 -176 -368 -104 -90 -172 -134 -229 -147 -36 -9 -83 -64 -104 -123 -23 -65 -71 -106 -150 -133 -138 -45 -280 -51 -376 -16 -24 9 -52 19 -61 22 -17 5 -18 -20 -18 -441 0 -446 0 -446 105 -446 112 0 142 8 182 52 40 42 56 95 44 147 -5 25 -15 84 -22 130 -13 84 -13 84 20 111 18 15 60 35 94 45 34 9 96 30 137 47 122 49 196 30 326 -82 164 -142 333 -136 475 17 94 103 171 292 154 381 -8 46 -47 122 -96 191 -59 82 -62 151 -8 151 23 0 157 -224 176 -295 18 -66 9 -139 -29 -238 -61 -159 -170 -287 -296 -349 -61 -30 -74 -33 -157 -32 -115 1 -168 21 -315 120 -61 41 -124 77 -139 80 -19 4 -51 -4 -97 -24 -38 -16 -86 -33 -106 -36 -68 -12 -75 -44 -41 -180 25 -100 -3 -177 -84 -237 -86 -64 -102 -69 -218 -69 -105 0 -105 0 -105 -128 0 -128 0 -128 78 -166 137 -68 234 -60 403 35 41 22 97 63 124 89 61 58 95 70 197 70 44 0 134 5 201 11 99 9 131 16 170 37 58 31 133 110 175 184 41 73 62 90 182 149 175 86 234 140 302 274 52 102 79 194 85 287 7 110 -4 142 -101 287 -93 138 -98 153 -79 233 9 37 13 85 10 116 -6 59 -51 162 -94 217 -30 39 -113 95 -140 95 -9 0 -42 10 -75 21 -61 23 -78 40 -116 116 -29 57 -126 160 -176 186 -92 49 -136 59 -282 64 -124 5 -149 3 -220 -17 -43 -12 -97 -31 -119 -41 -109 -49 -175 -63 -190 -40 -12 20 -262 101 -312 101 -23 0 -23 -1 -23 -145z m784 -361 c19 -18 21 -78 4 -91 -21 -16 -54 -21 -72 -11 -24 14 -36 49 -23 73 23 44 64 57 91 29z m670 -107 c24 -17 18 -45 -15 -69 -33 -25 -65 -17 -82 19 -10 22 -8 28 12 44 27 22 60 24 85 6z m-217 -631 c-9 -117 -29 -167 -101 -242 -64 -67 -64 -67 -121 -62 -34 3 -60 11 -66 19 -14 23 14 53 59 64 75 19 124 85 137 185 4 30 13 65 22 78 15 24 52 43 67 34 5 -2 6 -37 3 -76z m-1087 -251 c10 -12 8 -21 -6 -46 -27 -45 -47 -56 -78 -41 -33 15 -33 32 0 71 28 34 64 40 84 16z m689 -489 c7 -8 14 -30 18 -49 4 -28 1 -37 -18 -51 -48 -33 -107 -7 -94 41 16 63 65 94 94 59z"/>
<path d="M3197 6203 c-10 -15 9 -118 47 -268 57 -224 79 -373 72 -486 -10 -158 -69 -356 -162 -540 -100 -201 -176 -284 -409 -449 -184 -131 -238 -188 -353 -376 -34 -55 -90 -134 -124 -175 -177 -210 -206 -352 -118 -570 65 -161 65 -166 24 -326 -78 -307 -50 -530 83 -654 96 -90 207 -135 413 -169 166 -26 216 -48 311 -136 130 -119 200 -160 324 -189 93 -21 127 -19 267 15 229 57 305 52 483 -33 98 -46 117 -52 175 -52 100 1 240 64 359 163 34 28 70 56 80 62 10 5 108 14 217 20 208 11 244 18 309 61 52 35 83 69 138 154 54 85 74 103 152 142 33 17 86 43 118 59 123 61 226 197 280 369 34 109 40 161 26 240 -9 55 -22 83 -80 170 -38 57 -79 125 -91 150 -22 45 -22 45 -3 120 18 72 18 77 1 137 -31 113 -83 198 -150 245 -17 13 -69 34 -114 47 -97 28 -114 41 -153 118 -90 178 -260 268 -506 268 -106 0 -158 -13 -345 -86 -97 -37 -97 -37 -167 -6 -38 17 -120 45 -183 62 -143 38 -221 39 -312 5 -44 -17 -87 -25 -127 -25 -55 0 -69 5 -133 44 -124 77 -264 100 -417 68 -76 -16 -110 -29 -164 -63 -71 -45 -97 -45 -103 -1 -6 42 73 89 218 127 77 20 119 25 217 25 117 0 122 1 128 23 4 12 27 76 50 142 97 270 126 499 95 755 -16 125 -61 312 -100 405 -4 11 -24 64 -44 118 -47 126 -103 241 -131 267 -24 23 -89 38 -98 23z m261 -1005 c19 -19 15 -49 -24 -170 -58 -181 -62 -192 -119 -285 -36 -59 -59 -88 -72 -88 -13 0 -17 6 -15 25 2 14 7 30 12 35 4 6 11 21 15 35 4 14 16 43 26 65 22 49 44 118 54 165 24 124 48 207 63 218 20 15 45 15 60 0z m-770 -1072 c8 -70 -20 -98 -69 -69 -35 21 -37 48 -7 80 32 34 72 28 76 -11z m682 -101 c36 -15 87 -43 114 -62 66 -47 106 -63 162 -63 43 0 50 4 112 64 78 74 116 96 168 96 47 0 87 -25 148 -94 49 -56 49 -56 150 -50 93 5 105 4 145 -18 64 -33 86 -68 86 -134 0 -60 -12 -76 -55 -72 -21 3 -25 9 -28 38 -4 53 -21 78 -69 101 -42 20 -44 20 -111 3 -42 -11 -79 -15 -96 -10 -16 4 -61 39 -100 77 -65 65 -74 70 -105 65 -18 -3 -34 -6 -35 -8 -1 -2 -19 -24 -40 -50 -45 -57 -102 -86 -182 -94 -68 -7 -117 10 -212 74 -133 91 -188 106 -299 85 -94 -17 -111 -27 -189 -109 -66 -70 -99 -83 -88 -36 18 75 127 167 259 217 62 23 184 14 265 -20z m1607 -16 c52 -29 79 -55 111 -108 23 -39 27 -57 27 -121 -1 -98 -19 -131 -132 -241 -104 -101 -183 -161 -238 -180 -59 -20 -108 -53 -122 -80 -7 -13 -23 -50 -37 -81 -20 -44 -34 -62 -68 -82 -70 -41 -186 -66 -304 -67 -104 -1 -104 -1 -201 46 -61 30 -99 43 -101 36 -7 -21 -75 -116 -124 -173 -63 -73 -108 -91 -215 -87 -118 6 -173 36 -261 147 -108 136 -223 234 -345 297 -48 25 -59 38 -51 60 16 42 160 -14 274 -107 76 -62 191 -176 238 -236 48 -60 82 -76 176 -76 78 -1 78 -1 126 52 26 29 59 78 74 110 15 31 35 73 44 92 26 53 55 51 156 -9 130 -77 250 -99 357 -67 99 30 126 54 187 160 37 67 42 71 130 117 134 70 298 210 347 295 17 30 17 34 1 85 -21 63 -54 108 -106 144 -47 32 -54 70 -17 85 31 12 32 12 74 -11z m-2322 -149 c3 -5 -4 -42 -16 -82 -15 -49 -23 -100 -23 -154 -1 -76 1 -84 37 -141 47 -77 52 -139 12 -149 -35 -9 -50 -1 -85 47 -45 63 -74 166 -65 237 11 91 53 219 78 237 25 17 53 20 62 5z m2130 -57 c18 -17 15 -64 -6 -90 -29 -34 -99 -2 -99 45 0 54 68 83 105 45z m668 -114 c16 -60 -73 -95 -102 -41 -17 31 12 62 58 62 31 0 40 -4 44 -21z m-1899 -160 c32 -25 33 -41 4 -79 -23 -32 -64 -40 -86 -18 -21 21 -15 85 10 102 29 21 40 20 72 -5z m1910 -197 c22 -37 52 -87 67 -112 48 -78 59 -114 59 -198 0 -65 -5 -92 -30 -153 -49 -118 -95 -190 -162 -255 -76 -74 -111 -98 -169 -118 -142 -50 -270 -21 -452 103 -132 89 -152 94 -220 60 -23 -12 -68 -29 -101 -38 -83 -23 -88 -34 -64 -150 29 -137 21 -170 -52 -241 -31 -32 -79 -67 -105 -80 -44 -21 -55 -22 -188 -17 -170 7 -290 34 -324 72 -23 26 -43 83 -43 122 0 12 -5 25 -10 28 -10 6 -19 3 -120 -52 -94 -51 -153 -66 -244 -61 -82 4 -94 8 -240 76 -115 54 -146 105 -146 242 0 64 0 64 -59 125 -33 33 -71 83 -85 110 -14 28 -39 66 -54 85 -29 34 -29 34 -113 31 -83 -2 -85 -2 -146 38 -34 22 -68 50 -77 63 -9 14 -17 63 -21 124 -6 87 -5 105 10 128 18 27 67 37 80 15 4 -6 7 -49 6 -96 -1 -98 7 -117 71 -163 46 -33 96 -39 138 -15 60 34 80 20 177 -125 31 -47 82 -113 114 -147 58 -63 58 -63 56 -160 -2 -79 1 -103 15 -123 40 -56 155 -111 278 -132 58 -10 75 -9 119 5 43 14 112 55 131 78 3 3 27 25 53 48 86 74 131 48 167 -99 12 -49 27 -93 34 -99 28 -23 155 -44 266 -45 125 -1 150 7 195 63 47 58 53 85 35 163 -20 91 -31 174 -25 189 9 24 90 65 164 84 36 9 87 28 115 42 89 45 196 18 301 -77 121 -110 257 -141 368 -86 28 14 63 36 78 49 73 66 163 224 188 333 17 69 -3 142 -62 231 -78 119 -93 163 -65 191 28 28 52 13 92 -56z m-229 -202 c10 -33 -24 -191 -50 -230 -43 -63 -112 -130 -136 -131 -43 -3 -94 3 -103 11 -5 5 -6 20 -2 34 5 21 14 27 49 32 77 12 147 115 147 215 0 29 7 43 31 63 37 31 55 33 64 6z m-1092 -329 c-2 -56 -65 -98 -97 -66 -22 22 -20 39 9 73 18 22 32 29 57 28 31 -1 33 -3 31 -35z m-767 -150 c16 -32 -1 -79 -31 -87 -32 -8 -42 0 -56 46 -10 31 -9 43 1 55 20 24 72 15 86 -14z m-840 -92 c17 -19 17 -23 3 -47 -8 -15 -27 -31 -41 -36 -23 -8 -30 -6 -47 15 -25 30 -26 47 -4 71 22 24 65 23 89 -3z m2292 -225 c16 -11 22 -25 22 -53 0 -47 -14 -61 -62 -61 -48 0 -66 27 -47 71 10 26 43 59 59 59 3 0 16 -7 28 -16z m-1320 -256 c7 -7 12 -20 12 -29 0 -25 -48 -79 -71 -79 -24 0 -52 42 -47 72 5 38 79 63 106 36z"/>
<path d="M11196 6203 c-14 -15 -3 -88 43 -277 28 -110 55 -241 62 -291 23 -174 -2 -355 -75 -548 -34 -89 -128 -277 -168 -336 -53 -77 -156 -172 -298 -274 -166 -120 -256 -207 -326 -314 -30 -45 -54 -84 -54 -87 0 -10 -71 -108 -135 -186 -76 -92 -106 -145 -135 -234 -28 -86 -24 -170 15 -271 87 -228 83 -188 39 -379 -35 -154 -39 -183 -38 -296 3 -240 65 -345 260 -443 73 -36 149 -57 304 -82 161 -26 170 -31 312 -156 139 -122 258 -174 393 -173 33 1 124 15 202 32 148 33 231 39 298 21 22 -6 90 -34 150 -62 97 -46 118 -52 175 -52 46 0 83 7 125 25 82 33 193 101 254 156 59 53 82 58 333 68 150 6 161 8 218 38 67 34 133 101 178 181 40 71 78 101 191 154 196 92 284 193 357 409 21 63 25 95 25 171 -1 104 -20 159 -84 244 -47 63 -95 144 -103 174 -3 14 2 57 12 95 16 61 16 76 5 122 -8 29 -27 80 -43 113 -55 113 -96 151 -193 180 -27 9 -66 20 -85 27 -49 15 -68 34 -102 103 -41 80 -140 178 -215 211 -81 36 -192 56 -298 53 -103 -3 -143 -13 -312 -76 -122 -46 -122 -46 -180 -20 -68 30 -159 60 -250 83 -86 21 -199 15 -268 -16 -40 -17 -64 -21 -120 -18 -60 3 -78 9 -125 39 -67 43 -75 46 -173 70 -96 23 -136 23 -253 1 -72 -14 -102 -26 -141 -54 -66 -47 -90 -54 -113 -33 -16 14 -17 21 -7 42 10 23 81 68 137 86 116 38 171 47 290 47 125 0 125 0 162 98 89 235 114 346 123 532 9 186 -6 361 -44 501 -63 235 -183 531 -235 577 -22 20 -79 36 -90 25z m258 -1009 c11 -28 6 -68 -15 -124 -11 -30 -29 -86 -39 -123 -23 -81 -49 -137 -107 -229 -41 -66 -73 -87 -73 -50 0 10 15 53 33 97 43 101 58 151 92 298 15 65 34 125 42 133 19 19 59 18 67 -2z m-776 -1086 c3 -42 0 -49 -21 -59 -31 -14 -77 13 -77 44 0 31 40 68 70 65 22 -3 25 -8 28 -50z m617 -59 c57 -15 152 -63 208 -103 50 -37 114 -53 165 -41 18 3 50 28 81 61 81 86 173 117 231 77 14 -9 50 -43 80 -75 55 -59 55 -59 148 -52 107 8 165 -8 206 -57 48 -57 43 -161 -8 -171 -33 -7 -44 7 -48 62 -3 41 -7 47 -51 74 -47 29 -47 29 -122 11 -43 -10 -86 -14 -102 -10 -15 3 -58 38 -95 76 -88 89 -103 90 -178 9 -60 -65 -101 -87 -182 -96 -65 -7 -134 17 -223 80 -33 24 -91 55 -128 70 -68 27 -68 27 -154 11 -102 -19 -120 -29 -199 -112 -33 -34 -66 -63 -72 -63 -7 0 -12 12 -12 28 0 67 161 195 285 225 38 9 130 7 170 -4z m1671 -39 c71 -27 134 -121 141 -214 10 -117 -47 -198 -250 -361 -48 -39 -98 -69 -134 -81 -66 -22 -115 -67 -131 -121 -7 -21 -21 -53 -32 -71 -39 -64 -201 -115 -360 -115 -86 0 -128 11 -224 60 -66 34 -70 35 -83 17 -7 -10 -13 -22 -13 -27 0 -16 -98 -143 -140 -181 -46 -41 -84 -50 -185 -44 -103 7 -170 41 -226 116 -57 75 -201 219 -263 262 -27 18 -72 45 -100 60 -62 34 -78 56 -53 75 16 11 27 10 77 -7 125 -42 295 -176 400 -315 22 -28 52 -60 67 -71 61 -43 167 -54 219 -23 39 24 119 133 139 190 34 97 69 111 148 61 156 -99 286 -124 407 -80 75 28 119 66 160 143 40 74 58 90 148 136 88 44 164 101 252 190 102 103 108 116 86 187 -16 52 -49 92 -125 157 -25 20 -27 40 -5 62 16 15 26 15 80 -5z m-2320 -165 c-3 -9 -15 -55 -27 -103 -29 -121 -24 -181 25 -262 46 -78 47 -129 4 -144 -37 -13 -58 7 -104 102 -32 66 -37 85 -36 142 1 73 44 235 69 262 21 23 78 25 69 3z m2126 -42 c25 -22 23 -55 -6 -86 -22 -23 -28 -25 -54 -16 -43 15 -55 49 -31 88 21 35 60 42 91 14z m659 -102 c20 -16 22 -22 11 -45 -6 -14 -22 -28 -36 -32 -60 -15 -92 51 -38 80 35 19 36 19 63 -3z m-1893 -171 c36 -22 40 -45 14 -76 -27 -33 -52 -43 -79 -31 -18 8 -23 18 -23 50 0 40 21 77 44 77 6 0 26 -9 44 -20z m1947 -257 c42 -71 83 -154 92 -185 15 -53 15 -63 0 -123 -46 -188 -160 -355 -293 -432 -67 -39 -119 -53 -200 -53 -93 0 -181 33 -291 107 -153 104 -168 108 -256 70 -29 -13 -70 -27 -92 -31 -22 -4 -47 -12 -56 -17 -25 -13 -29 -57 -12 -124 23 -91 21 -165 -7 -209 -21 -35 -95 -97 -150 -127 -34 -18 -275 -14 -371 6 -130 28 -148 44 -177 165 -4 19 -15 36 -24 38 -8 2 -47 -16 -86 -38 -150 -87 -238 -99 -382 -53 -202 64 -262 127 -266 278 -2 80 -2 80 -63 147 -34 36 -61 69 -61 73 0 5 -26 44 -91 139 -4 5 -47 9 -96 10 -85 1 -93 3 -149 37 -37 23 -65 49 -76 70 -22 43 -34 184 -19 222 14 36 54 55 77 36 13 -11 15 -25 10 -79 -8 -86 6 -132 50 -168 52 -43 98 -54 148 -36 81 30 80 31 128 -33 25 -32 62 -85 83 -118 21 -33 64 -86 94 -117 55 -58 55 -58 56 -162 0 -101 2 -106 28 -134 59 -62 186 -111 303 -119 80 -6 149 25 242 108 72 65 99 77 130 60 23 -12 57 -94 67 -163 8 -55 30 -78 82 -88 21 -5 62 -13 92 -19 68 -14 185 -14 234 0 51 14 111 69 125 114 11 36 5 86 -29 234 -7 34 -6 48 4 65 19 28 87 61 167 82 36 9 82 25 102 35 24 12 58 19 95 19 72 0 133 -29 223 -105 95 -80 138 -98 235 -98 64 -1 89 4 123 22 95 49 177 151 238 296 51 122 38 221 -43 338 -18 26 -33 51 -33 56 0 5 -6 14 -14 20 -35 29 -21 111 19 111 8 0 48 -57 90 -127z m-265 -133 c22 -14 -11 -201 -44 -244 -85 -111 -125 -136 -203 -128 -37 4 -43 7 -43 27 0 26 33 55 62 55 75 0 145 122 148 255 0 9 47 44 60 45 3 0 12 -5 20 -10z m-1087 -321 c14 -23 -18 -86 -49 -93 -26 -7 -64 12 -64 32 0 21 32 63 54 72 28 12 47 8 59 -11z m-785 -145 c43 -30 22 -113 -28 -114 -16 0 -50 48 -50 71 0 13 39 59 50 59 3 0 16 -7 28 -16z m-826 -111 c25 -23 22 -48 -8 -72 -36 -29 -59 -26 -84 9 -20 28 -20 31 -4 55 19 30 67 34 96 8z m2323 -269 c7 -40 -5 -61 -44 -76 -35 -13 -71 8 -71 41 0 67 31 96 82 79 19 -7 28 -18 33 -44z m-1342 -225 c26 -41 -28 -107 -77 -95 -19 5 -27 15 -32 43 -6 31 -3 39 16 55 28 22 78 21 93 -3z"/>
<path d="M7198 2204 c-16 -15 -7 -77 37 -249 87 -344 97 -486 50 -678 -42 -171 -126 -365 -227 -522 -29 -45 -140 -153 -208 -203 -266 -195 -313 -236 -382 -332 -57 -81 -128 -197 -128 -210 0 -6 126 -10 345 -10 275 0 343 3 339 13 -7 19 110 52 186 51 77 0 190 -30 190 -50 0 -11 38 -14 206 -14 169 0 205 2 201 14 -6 15 42 41 95 51 44 8 108 -17 115 -45 5 -20 13 -20 439 -20 379 0 434 2 434 15 0 11 11 15 40 15 29 0 40 -4 40 -15 0 -13 27 -15 186 -15 185 0 185 0 178 23 -14 44 -44 91 -99 153 -98 111 -218 154 -430 154 -116 0 -177 -14 -320 -71 -112 -45 -126 -46 -225 -4 -127 54 -287 89 -365 79 -27 -3 -82 -17 -122 -30 -90 -30 -136 -30 -193 1 -156 86 -246 110 -380 102 -105 -7 -169 -26 -234 -70 -73 -50 -93 -54 -107 -23 -15 31 -5 45 55 80 103 60 295 100 432 89 60 -5 60 -5 83 53 38 96 98 275 117 349 16 60 19 108 19 325 0 246 -1 259 -28 359 -66 248 -193 568 -246 615 -21 19 -82 32 -93 20z m260 -1039 c2 -37 -4 -66 -23 -108 -14 -32 -25 -65 -25 -75 0 -23 -50 -151 -70 -182 -10 -14 -29 -46 -43 -71 -31 -54 -51 -73 -72 -65 -13 5 -11 14 11 63 49 108 81 208 109 333 29 131 48 164 89 158 18 -3 21 -11 24 -53z m-780 -1007 c19 -19 14 -66 -8 -88 -25 -25 -31 -25 -64 1 -32 25 -33 41 -4 74 23 27 56 33 76 13z"/>
<path d="M15187 2203 c-16 -16 9 -157 62 -348 90 -325 58 -606 -106 -930 -14 -27 -33 -63 -41 -80 -62 -122 -141 -202 -362 -367 -171 -128 -246 -200 -313 -304 -48 -74 -97 -159 -97 -168 0 -3 153 -6 339 -6 281 0 340 2 344 14 7 18 86 44 158 52 44 5 74 1 134 -17 42 -12 79 -28 82 -36 4 -10 49 -13 209 -13 173 0 204 2 204 15 0 35 107 61 173 41 27 -8 27 -8 27 133 0 141 0 141 -72 141 -49 0 -99 -8 -153 -25 -121 -38 -161 -34 -250 26 -90 60 -255 89 -388 69 -88 -13 -134 -30 -192 -70 -22 -15 -53 -31 -68 -34 -27 -7 -28 -6 -25 31 3 32 9 41 48 65 104 64 223 91 405 92 89 1 90 1 104 30 37 78 121 351 135 442 29 185 19 438 -25 624 -54 230 -190 566 -247 611 -24 19 -72 26 -85 12z m261 -1034 c2 -29 -5 -65 -18 -100 -12 -30 -35 -93 -51 -142 -38 -116 -125 -267 -154 -267 -22 0 -18 32 11 97 51 113 73 184 99 313 21 99 34 130 59 140 39 16 51 8 54 -41z m-772 -1025 c11 -42 -7 -78 -40 -82 -29 -4 -66 21 -66 43 0 27 42 65 71 65 23 0 30 -5 35 -26z"/>
<path d="M720 324 c-62 -11 -149 -38 -223 -70 -87 -36 -144 -43 -180 -20 -45 28 -237 86 -286 86 -31 0 -31 0 -31 -145 0 -122 2 -145 15 -145 8 0 15 -7 15 -15 0 -13 56 -15 440 -15 384 0 440 2 440 15 0 10 11 15 35 15 24 0 35 -5 35 -15 0 -13 27 -15 180 -15 206 0 201 -3 151 85 -65 113 -162 189 -285 221 -52 14 -261 26 -306 18z"/>
</g>


</svg>