<!DOCTYPE svg PUBLIC "-//W3C//DTD SVG 20010904//EN" "http://www.w3.org/TR/2001/REC-SVG-20010904/DTD/svg10.dtd">
<svg version="1.0" xmlns="http://www.w3.org/2000/svg" width="626px" height="626px" viewBox="0 0 6260 6260" preserveAspectRatio="xMidYMid meet">
<g id="layer101" fill="#a54a73" stroke="none">
<path d="M2066 6198 c186 -202 489 -518 496 -518 4 0 8 4 8 8 0 4 76 135 170 290 97 161 164 282 156 282 -8 0 -84 -118 -170 -262 l-156 -262 0 262 c0 164 -4 262 -10 262 -6 0 -11 -66 -12 -165 l-3 -165 -115 126 c-63 70 -128 144 -145 165 -16 22 -33 39 -38 39 -14 0 29 -54 131 -166 53 -58 114 -125 135 -149 l38 -43 -3 -97 -3 -97 -260 276 c-143 152 -264 276 -269 276 -4 0 18 -28 50 -62z"/>
<path d="M2341 6256 c19 -19 112 -77 120 -74 12 4 -38 78 -53 78 -6 0 -4 -8 5 -18 28 -31 19 -34 -20 -7 -31 21 -67 35 -52 21z"/>
<path d="M1122 6025 c-92 -20 -179 -72 -217 -126 -48 -70 -74 -218 -75 -419 0 -242 64 -386 213 -480 l55 -34 -41 -61 c-64 -93 -125 -148 -211 -185 -42 -19 -75 -39 -73 -44 8 -23 153 -4 304 40 21 6 20 3 -12 -72 -19 -44 -35 -84 -35 -91 0 -32 23 -14 99 78 46 54 87 99 91 99 4 0 9 -52 12 -115 3 -72 9 -120 17 -128 16 -16 23 -4 61 103 17 47 34 93 38 103 6 15 16 6 54 -50 52 -75 94 -120 105 -110 3 4 -10 50 -29 102 -20 52 -34 95 -33 95 2 0 22 -16 45 -35 23 -19 58 -39 78 -44 60 -15 152 -22 152 -12 0 5 -35 34 -77 64 -97 67 -148 118 -179 179 l-24 46 45 22 c146 71 208 259 184 563 -23 286 -86 430 -216 493 -51 25 -71 29 -163 31 -63 2 -130 -3 -168 -12z m286 -12 c27 -6 28 -24 3 -47 -19 -17 -22 -16 -75 18 -31 20 -56 39 -56 42 0 6 84 -2 128 -13z m-220 -5 c-8 -24 -35 -33 -54 -17 -16 13 -15 14 12 20 44 10 46 10 42 -3z m126 -25 c33 -20 63 -38 65 -39 6 -6 -29 -55 -44 -60 -8 -3 -45 13 -84 36 l-71 42 23 29 c12 15 28 28 36 28 7 1 41 -16 75 -36z m-194 2 c17 -9 30 -18 30 -21 0 -11 -53 -74 -62 -74 -13 0 -88 53 -88 63 0 6 67 41 88 46 2 1 16 -6 32 -14z m398 -40 c13 -11 30 -32 38 -48 12 -23 13 -28 1 -33 -13 -5 -137 62 -137 74 0 3 10 16 22 29 23 24 24 24 76 -22z m-231 -61 c18 -10 33 -21 33 -24 0 -3 -17 -22 -36 -44 -41 -43 -40 -43 -127 20 l-47 35 31 39 32 40 41 -24 c23 -12 56 -31 73 -42z m-256 25 c24 -18 46 -33 48 -35 2 -2 -16 -27 -40 -56 -24 -29 -44 -55 -46 -57 -3 -5 -82 49 -89 61 -10 16 5 52 35 86 16 17 34 32 39 32 5 0 29 -14 53 -31z m446 -26 c34 -20 63 -40 63 -43 0 -4 -12 -18 -28 -33 l-28 -26 -68 40 -68 41 28 29 c15 16 30 29 32 29 3 0 34 -17 69 -37z m-258 -109 c15 -14 10 -23 -47 -89 -38 -43 -45 -42 -120 23 l-42 37 46 58 46 57 51 -37 c29 -20 58 -42 66 -49z m214 22 l47 -28 -41 -49 -41 -50 -27 18 c-86 58 -101 69 -101 74 0 3 16 24 36 48 34 39 38 41 58 28 11 -8 42 -26 69 -41z m152 44 c3 -5 4 -10 1 -10 -3 0 -8 5 -11 10 -3 6 -4 10 -1 10 3 0 8 -4 11 -10z m23 -62 c16 -51 21 -78 15 -78 -3 0 -30 14 -59 31 -56 32 -57 36 -21 76 25 28 51 16 65 -29z m-655 -10 l27 -23 -50 -65 c-28 -36 -55 -66 -60 -68 -6 -2 -10 12 -10 30 0 36 19 147 27 161 5 8 28 -3 66 -35z m379 -71 l58 -40 -30 -36 c-16 -20 -39 -49 -52 -64 l-23 -28 -60 46 c-33 26 -60 51 -60 56 0 18 89 118 100 112 5 -4 36 -24 67 -46z m233 18 c30 -19 55 -38 55 -42 -1 -5 -20 -29 -44 -55 l-43 -47 -57 41 c-34 24 -53 44 -49 51 15 26 68 87 76 87 4 0 32 -16 62 -35z m-504 -31 c32 -25 59 -48 59 -52 0 -4 -25 -38 -56 -75 l-57 -67 -47 40 c-76 63 -75 58 -17 132 29 37 53 67 55 68 2 0 30 -21 63 -46z m588 -157 l1 -38 -45 32 c-25 18 -45 35 -45 37 0 3 17 26 38 51 l37 46 7 -45 c3 -25 7 -62 7 -83z m-182 76 c29 -20 53 -39 53 -42 0 -3 -24 -34 -54 -68 l-54 -62 -51 40 c-28 22 -51 43 -51 46 0 7 92 123 98 123 3 0 29 -16 59 -37z m-229 -53 c17 -13 32 -27 32 -31 0 -12 -111 -144 -122 -144 -13 0 -117 87 -117 99 -1 4 25 39 56 76 l58 69 30 -23 c16 -12 45 -33 63 -46z m-248 -74 c0 -6 -16 -28 -36 -49 l-35 -37 -34 26 c-32 24 -35 31 -35 77 0 33 6 57 16 68 16 18 19 16 70 -28 30 -25 54 -51 54 -57z m663 -17 c3 -10 -16 -43 -45 -78 l-50 -60 -62 47 c-71 53 -72 39 8 134 l39 47 53 -37 c29 -20 55 -44 57 -53z m-309 9 c22 -17 45 -35 50 -39 5 -4 -22 -44 -59 -88 l-67 -80 -49 42 c-27 23 -49 45 -49 48 0 8 120 149 127 149 3 0 24 -14 47 -32z m-260 -62 l59 -54 -40 -43 -40 -43 -26 21 c-84 66 -99 83 -86 101 23 31 63 72 68 72 3 -1 32 -25 65 -54z m-196 -8 l21 -23 -24 -27 c-26 -31 -35 -22 -35 38 0 40 9 42 38 12z m597 -39 c30 -23 55 -45 55 -50 0 -5 -28 -41 -62 -81 -34 -40 -64 -76 -67 -80 -4 -4 -33 16 -66 46 l-59 53 64 76 c35 43 68 77 73 77 4 0 32 -19 62 -41z m171 -6 c-3 -21 -6 -50 -6 -65 0 -34 -7 -35 -44 -5 l-29 24 33 41 c42 52 54 53 46 5z m-662 -47 l59 -53 -22 -32 c-12 -17 -27 -31 -32 -31 -6 0 -37 23 -69 52 l-58 52 27 33 c14 18 28 33 31 33 3 -1 32 -25 64 -54z m216 -12 c22 -20 40 -40 40 -45 0 -11 -60 -79 -69 -79 -19 0 -92 74 -87 87 10 26 50 72 63 72 7 1 31 -15 53 -35z m398 -30 c30 -24 34 -31 29 -61 -7 -39 -47 -128 -74 -161 l-19 -23 -56 48 c-31 26 -57 53 -57 59 -1 11 126 164 136 164 3 0 22 -12 41 -26z m-668 -47 l53 -48 -23 -24 c-13 -14 -27 -25 -32 -25 -10 0 -68 118 -68 138 0 19 10 13 70 -41z m190 -27 l45 -39 -29 -30 c-17 -17 -35 -31 -41 -31 -6 0 -28 18 -49 39 l-38 39 23 31 c12 17 28 31 33 31 6 0 31 -18 56 -40z m209 -9 l55 -48 -33 -42 c-18 -22 -36 -41 -40 -41 -5 0 -83 62 -120 96 -6 5 63 82 74 83 6 0 34 -21 64 -48z m-279 -71 l45 -40 -30 -30 -31 -30 -42 36 c-23 19 -42 41 -42 47 0 11 40 57 49 57 3 -1 26 -19 51 -40z m199 -30 l55 -48 -30 -35 c-16 -20 -31 -36 -34 -36 -3 0 -31 23 -64 52 l-58 53 27 32 c15 18 32 32 38 32 7 -1 36 -23 66 -50z m217 -17 c29 -27 54 -51 54 -55 0 -4 -20 -19 -45 -33 -49 -29 -52 -28 -109 23 l-38 33 34 39 c18 21 37 39 41 39 5 1 33 -20 63 -46z m-294 -64 c32 -29 56 -54 54 -57 -9 -9 -148 41 -153 55 -5 12 22 53 35 53 2 0 31 -23 64 -51z m197 -23 l32 -33 -57 -6 c-78 -8 -90 0 -58 41 14 17 31 32 38 32 7 0 27 -15 45 -34z m-43 -54 l92 3 11 -32 c17 -46 103 -137 186 -195 l70 -50 -59 7 c-81 9 -101 18 -164 72 -29 25 -55 44 -57 42 -2 -2 12 -44 31 -92 19 -49 34 -94 34 -100 -1 -16 -44 37 -86 106 -20 32 -41 56 -47 54 -5 -1 -25 -47 -42 -101 -46 -138 -55 -142 -55 -19 0 56 -3 108 -6 117 -12 31 -42 15 -103 -55 -33 -39 -61 -66 -61 -61 0 5 11 35 25 66 31 69 22 76 -56 45 -48 -19 -180 -48 -219 -48 -8 0 12 13 45 29 83 40 128 80 191 170 l54 78 63 -20 c47 -15 84 -19 153 -16z"/>
<path d="M4919 5459 c-75 -10 -119 -24 -119 -38 0 -5 9 -47 20 -93 11 -46 20 -109 20 -142 0 -67 -31 -225 -93 -476 l-43 -175 -40 -5 c-80 -11 -194 -104 -229 -186 -24 -57 -37 -157 -26 -205 15 -68 96 -134 194 -160 38 -11 51 -10 91 5 55 21 137 108 163 173 17 41 20 44 47 39 16 -3 108 -6 205 -6 l177 0 27 -82 c45 -137 40 -133 271 -249 148 -75 209 -100 216 -93 13 13 3 79 -14 93 -6 5 -63 31 -126 59 -63 27 -145 64 -181 81 l-66 31 -25 87 -25 87 31 21 c17 12 30 28 29 36 -1 8 -31 169 -67 359 -89 471 -88 465 -87 641 1 188 2 187 -116 200 -94 10 -147 9 -234 -2z m312 -29 c27 -15 24 -24 -18 -44 -75 -36 -320 -33 -365 4 -13 10 -19 22 -15 26 30 30 347 41 398 14z m-236 -86 c100 -6 165 0 231 21 20 6 20 3 21 -137 0 -125 5 -171 42 -363 22 -120 41 -220 41 -220 0 -1 -25 3 -56 9 -46 8 -58 14 -66 35 -6 14 -41 108 -78 208 l-67 183 26 -6 c14 -3 31 -7 37 -9 25 -7 52 26 68 86 21 72 18 78 -58 103 -58 19 -102 21 -112 5 -4 -7 -15 6 -28 32 -21 44 -56 63 -78 41 -5 -5 13 -75 47 -179 30 -94 55 -172 55 -174 0 -2 -34 -4 -76 -5 -102 -1 -110 -9 -98 -106 8 -63 12 -74 34 -86 29 -15 146 -10 163 7 6 6 10 28 9 48 -2 21 0 35 3 32 6 -7 65 -179 65 -191 0 -4 -33 -8 -72 -8 -40 -1 -120 -5 -177 -10 -58 -5 -106 -8 -108 -6 -2 2 12 68 31 147 75 315 82 401 41 551 -7 27 -7 27 22 13 16 -8 76 -17 138 -21z m-11 -73 c9 -30 12 -61 7 -78 -9 -32 -14 -26 -35 46 -20 67 -20 81 -1 81 8 0 20 -19 29 -49z m160 -37 c26 -9 45 -21 43 -28 -2 -6 -12 -35 -21 -63 -18 -54 -22 -57 -66 -53 -29 2 -100 37 -100 49 0 18 24 77 38 94 19 21 45 22 106 1z m-76 -221 c61 -161 124 -344 120 -348 -2 -2 -13 -2 -24 1 -16 4 -33 46 -88 212 -38 114 -71 213 -74 221 -4 11 -1 11 16 2 12 -6 32 -41 50 -88z m-54 -68 c3 -8 8 -44 12 -79 6 -60 5 -63 -17 -69 -33 -9 -127 -9 -132 1 -3 4 -7 38 -8 76 -4 67 -3 70 21 77 48 13 117 10 124 -6z m221 -305 c49 -6 94 -15 99 -20 15 -15 -7 -31 -52 -37 -34 -5 -42 -2 -51 16 -7 11 -15 21 -19 21 -5 0 15 -70 44 -155 48 -141 51 -155 34 -155 -24 0 -29 10 -74 145 -49 146 -57 165 -67 165 -5 0 -6 -12 -3 -26 l7 -27 -149 6 c-154 5 -268 27 -247 48 24 24 331 35 478 19z m-425 -66 c30 -8 122 -18 204 -22 l149 -7 38 -110 c21 -60 39 -111 39 -112 0 -2 -83 -3 -184 -3 l-184 0 -21 35 c-27 46 -55 45 -109 -1 -40 -34 -42 -35 -42 -12 0 59 37 248 48 248 4 0 32 -7 62 -16z m562 -141 c14 -76 25 -139 24 -139 0 -1 -15 1 -33 3 -31 5 -33 8 -73 127 -22 66 -40 124 -40 128 0 6 22 10 80 16 12 2 21 -27 42 -135z m-680 40 c-3 -21 -6 -72 -6 -113 -1 -68 -8 -89 -28 -90 -4 0 -2 13 3 29 5 15 9 59 7 97 -3 62 -5 69 -25 72 -35 5 -46 -28 -32 -96 21 -102 46 -140 117 -177 69 -36 99 -36 108 1 8 31 -2 85 -20 109 -12 17 -18 18 -52 7 l-39 -11 37 34 c21 19 44 35 52 35 19 0 39 -64 38 -121 -1 -66 -23 -111 -84 -175 -59 -63 -94 -84 -136 -84 -40 0 -146 55 -178 93 -25 30 -26 36 -22 117 5 105 37 181 100 234 48 41 114 76 144 76 19 0 21 -4 16 -37z m-42 -85 c-1 -77 -12 -77 -25 0 -5 28 -3 48 5 57 7 8 14 15 16 15 2 0 4 -33 4 -72z m164 -137 c7 -34 6 -45 -7 -58 -14 -14 -21 -12 -76 18 -33 18 -58 35 -55 38 11 11 110 50 119 47 6 -1 14 -22 19 -45z m447 9 c7 -22 10 -43 6 -46 -8 -9 -370 -5 -378 4 -3 4 -9 24 -12 45 l-6 37 189 0 189 0 12 -40z m95 -102 l39 -133 80 -40 c44 -22 100 -49 125 -59 173 -73 178 -76 182 -112 2 -19 3 -34 1 -34 -9 0 -250 118 -319 157 -93 51 -89 46 -150 226 -42 126 -42 127 -20 127 20 0 26 -13 62 -132z m41 106 c3 -9 -36 -39 -42 -32 -2 2 -6 15 -10 30 -6 25 -5 26 21 19 15 -4 29 -11 31 -17z"/>
<path d="M4516 4376 c-29 -45 -21 -72 27 -95 49 -24 77 -27 77 -8 -1 25 -56 122 -71 125 -9 2 -24 -8 -33 -22z m64 -42 c11 -25 20 -48 20 -50 0 -8 -21 -4 -55 11 l-35 14 17 36 c9 19 21 35 25 35 5 0 18 -21 28 -46z"/>
<path d="M4516 4196 c-47 -44 -48 -79 -5 -102 37 -19 49 -10 68 45 30 91 1 118 -63 57z m44 -45 c-12 -45 -21 -54 -44 -45 -26 10 -18 44 16 76 37 34 44 27 28 -31z"/>
<path d="M4628 4204 c-12 -11 -10 -132 2 -155 6 -10 21 -19 34 -19 27 0 76 35 76 55 0 19 -103 129 -112 119z m90 -116 c-7 -19 -55 -51 -67 -44 -6 4 -11 36 -11 74 l1 67 40 -43 c22 -23 39 -48 37 -54z"/>
<path d="M1373 3160 c-65 -14 -151 -60 -188 -101 -45 -50 -65 -122 -65 -228 1 -106 20 -199 50 -240 27 -39 134 -129 167 -142 13 -5 39 -9 58 -9 l34 0 -56 -95 c-31 -52 -61 -95 -68 -95 -7 0 -38 9 -70 20 -78 27 -91 26 -103 -9 -14 -39 -4 -46 79 -60 89 -15 165 -14 181 2 7 8 38 67 68 131 l55 117 147 -5 147 -5 86 72 c127 106 171 187 163 301 -5 77 -41 155 -105 226 -54 60 -101 86 -192 106 -81 17 -331 27 -388 14z m361 -25 c108 -19 177 -55 221 -114 90 -124 110 -233 60 -334 -15 -28 -30 -56 -34 -60 -4 -4 -48 6 -97 22 -49 16 -124 34 -167 40 -106 15 -314 13 -412 -3 -44 -8 -83 -12 -86 -10 -3 2 -12 37 -19 78 -14 82 -6 135 30 207 22 41 25 59 11 59 -11 0 -58 -106 -66 -151 -6 -31 4 -112 22 -187 5 -20 2 -23 -18 -20 -30 4 -37 30 -38 149 -2 188 55 276 212 324 56 18 281 18 381 0z m43 -471 c83 -17 183 -51 182 -62 0 -4 -39 -40 -86 -80 l-85 -73 -47 8 c-25 4 -128 7 -228 5 l-182 -2 -59 49 c-65 54 -102 97 -102 117 0 14 102 40 210 54 89 12 305 3 397 -16z m-287 -221 c-1 -20 -117 -228 -132 -237 -25 -15 -202 14 -205 34 -7 38 11 41 87 15 41 -14 79 -24 85 -21 6 2 39 51 73 110 35 59 69 106 77 106 8 0 15 -3 15 -7z"/>
<path d="M1817 2988 c38 -41 47 -59 63 -126 6 -28 16 -55 21 -58 5 -3 9 -2 9 3 0 18 -28 110 -40 133 -16 32 -61 80 -74 80 -5 0 4 -15 21 -32z"/>
<path d="M1947 2908 c35 -81 46 -147 33 -205 -3 -12 -1 -23 5 -25 5 -2 14 17 19 41 11 52 -1 105 -46 204 -44 96 -53 83 -11 -15z"/>
<path d="M1306 2942 c-19 -36 -32 -122 -18 -122 5 0 13 20 16 44 4 25 16 56 27 69 23 30 24 37 4 37 -8 0 -21 -12 -29 -28z"/>
<path d="M1825 2835 c4 -11 10 -35 14 -54 8 -45 28 -52 23 -8 -2 18 -13 44 -24 57 -16 20 -18 21 -13 5z"/>
<path d="M2355 728 c-11 -6 -30 -20 -42 -31 -19 -17 -23 -18 -28 -4 -9 22 -60 40 -92 32 -15 -3 -40 -16 -55 -27 -28 -19 -30 -19 -48 -3 -28 25 -121 17 -153 -13 -29 -27 -40 -27 -77 -1 -32 24 -74 21 -117 -7 -36 -23 -17 -36 20 -14 40 25 75 25 107 0 32 -25 52 -25 75 0 19 21 91 47 101 37 7 -7 -9 -35 -107 -185 -69 -106 -91 -159 -70 -172 7 -4 44 -1 84 6 46 8 166 13 335 13 l262 1 0 -44 0 -43 -222 -7 c-488 -14 -528 -17 -528 -40 0 -16 197 -226 213 -226 6 0 -35 47 -91 104 -56 57 -102 108 -102 113 0 15 99 21 433 29 l297 7 0 -126 c0 -78 4 -127 10 -127 6 0 10 48 10 124 0 96 3 125 14 129 8 3 111 6 230 7 l217 1 -12 -23 c-6 -13 -39 -70 -71 -126 -33 -57 -57 -107 -53 -110 9 -10 34 26 99 143 32 57 55 109 51 115 -4 6 -88 10 -241 10 l-234 0 0 46 0 46 178 -6 c97 -3 217 -9 266 -12 64 -5 91 -3 96 6 4 7 -7 49 -26 94 -43 106 -73 254 -54 266 16 10 68 -14 77 -36 8 -22 27 -17 51 16 28 37 73 41 96 8 13 -18 16 -19 16 -5 0 48 -97 60 -131 16 l-15 -21 -35 21 c-44 27 -99 27 -133 0 l-27 -21 -25 22 c-30 29 -100 32 -139 6 -25 -16 -27 -16 -52 4 -19 15 -40 20 -86 20 -57 0 -62 -2 -95 -39 l-36 -38 -36 38 c-38 40 -68 48 -105 27z m329 -8 c15 -5 31 -21 38 -35 11 -25 12 -25 32 -6 28 25 61 41 85 41 31 0 70 -21 76 -42 8 -25 19 -23 52 10 l28 27 13 -65 c7 -36 22 -94 32 -129 l19 -64 -112 6 c-238 14 -640 18 -817 9 -102 -5 -187 -8 -189 -6 -2 2 5 16 15 31 10 15 41 65 70 110 44 69 54 80 64 68 17 -21 31 -19 70 10 19 14 46 25 62 25 27 0 35 -6 63 -45 13 -19 15 -19 52 18 53 50 81 49 127 -5 l37 -43 33 37 c47 54 95 69 150 48z m338 -276 c39 -5 48 -11 58 -35 7 -16 10 -36 6 -45 -6 -17 -41 -16 -214 7 -112 14 -811 11 -905 -5 -43 -7 -80 -10 -82 -6 -2 4 5 25 16 48 l21 41 101 4 c144 6 943 -2 999 -9z"/>
<path d="M2435 159 c9 -17 14 -34 11 -37 -4 -3 -38 2 -77 12 -38 10 -72 16 -75 13 -8 -7 105 -147 118 -147 5 0 -13 28 -41 61 -29 34 -50 63 -48 66 3 2 32 -4 66 -13 76 -21 90 -13 65 40 -10 20 -21 36 -26 36 -5 0 -1 -14 7 -31z"/>
<path d="M2230 31 c0 -11 5 -23 10 -26 6 -3 10 1 10 9 0 20 17 20 50 1 14 -8 32 -14 40 -14 17 1 -79 49 -97 49 -7 0 -13 -9 -13 -19z"/>
</g>
<g id="layer102" fill="#8348ae" stroke="none">
<path d="M1156 4374 c-11 -28 -6 -139 10 -258 9 -64 14 -123 11 -130 -5 -11 -36 -15 -136 -18 -206 -5 -201 -32 28 -146 111 -56 156 -83 162 -100 5 -13 14 -89 20 -169 11 -148 20 -193 39 -193 14 0 64 72 127 183 77 137 77 137 127 137 24 0 94 -11 156 -25 62 -14 119 -24 127 -21 37 15 -8 88 -130 213 l-70 72 60 88 c85 123 117 191 102 209 -15 19 -72 18 -112 -2 -18 -9 -71 -43 -120 -76 -48 -33 -102 -62 -121 -65 -33 -5 -34 -4 -65 62 -40 86 -96 178 -134 222 -31 35 -71 44 -81 17z m111 -86 c24 -37 59 -99 77 -138 44 -92 52 -100 92 -100 25 0 58 17 127 64 51 35 107 71 125 80 36 19 82 21 82 4 0 -16 -75 -141 -122 -204 -21 -28 -38 -56 -38 -63 0 -7 30 -45 66 -85 106 -113 164 -196 138 -196 -3 0 -55 11 -116 25 -133 30 -201 32 -224 8 -8 -10 -52 -80 -97 -156 -63 -107 -83 -135 -89 -120 -3 10 -11 83 -17 162 -7 98 -16 151 -26 168 -9 12 -64 48 -123 78 -115 60 -105 64 22 9 44 -18 82 -32 84 -30 7 8 -84 54 -158 81 -46 16 -76 22 -78 16 -4 -13 -52 10 -71 33 -18 22 10 26 141 23 149 -3 147 -6 125 161 -27 208 -20 294 21 259 9 -6 35 -42 59 -79z"/>
<path d="M1194 4265 c18 -48 110 -271 113 -274 1 -2 6 -2 9 2 8 8 -107 287 -119 287 -5 0 -7 -7 -3 -15z"/>
<path d="M1588 4046 c-60 -57 -108 -106 -108 -110 0 -21 35 6 127 96 95 95 115 119 96 118 -5 -1 -56 -47 -115 -104z"/>
<path d="M1020 3921 c0 -6 2 -11 5 -11 2 0 54 -13 115 -30 114 -31 151 -37 135 -21 -6 5 -57 21 -115 35 -58 15 -113 30 -122 32 -10 3 -18 1 -18 -5z"/>
<path d="M1337 3893 c-15 -14 -6 -74 13 -93 26 -26 76 -26 90 -1 26 50 -6 101 -63 101 -19 0 -37 -3 -40 -7z m83 -33 c14 -26 -3 -60 -31 -60 -22 0 -45 40 -36 64 9 23 54 20 67 -4z"/>
<path d="M1566 3822 c26 -25 187 -122 192 -118 7 7 14 2 -91 69 -48 32 -93 57 -99 57 -8 0 -8 -3 -2 -8z"/>
<path d="M1355 3719 c-39 -157 -61 -270 -53 -275 5 -3 11 -4 12 -3 2 2 18 67 35 143 21 92 29 142 22 149 -7 7 -12 2 -16 -14z"/>
<path d="M4096 4281 c-28 -31 -63 -35 -103 -11 -39 23 -43 24 -43 11 0 -5 15 -19 34 -30 38 -24 94 -27 120 -8 15 11 24 11 55 -5 26 -12 48 -16 70 -12 43 9 24 30 -24 25 -26 -2 -41 4 -60 23 -31 31 -28 31 -49 7z"/>
<path d="M3597 4154 c-32 -27 -78 -32 -97 -9 -7 8 -19 15 -28 15 -12 0 -10 -6 8 -24 32 -35 74 -42 120 -21 35 16 40 16 61 1 30 -21 99 -22 99 -1 0 11 -11 14 -40 13 -31 -1 -47 5 -68 25 l-27 26 -28 -25z"/>
<path d="M0 2095 c0 -13 78 -45 244 -100 l99 -33 3 -113 c2 -101 42 -382 75 -528 11 -49 3 -61 -41 -61 -41 0 -136 28 -191 55 l-50 26 -46 -41 c-26 -22 -57 -43 -70 -46 -13 -4 -23 -13 -23 -21 0 -11 11 -9 47 12 27 15 55 34 65 42 15 13 19 10 41 -34 59 -118 115 -180 252 -278 l80 -57 -60 7 c-128 15 -234 37 -327 69 -67 23 -98 29 -98 21 0 -17 167 -71 281 -91 122 -21 280 -31 352 -22 110 14 328 137 431 242 48 49 95 117 131 185 l17 34 -39 -23 c-21 -13 -47 -30 -58 -37 -40 -27 -99 -12 -148 39 -16 15 -21 15 -78 -15 -87 -45 -155 -44 -225 1 -28 17 -54 32 -59 32 -5 0 -30 -14 -57 -31 -28 -18 -53 -28 -57 -23 -13 14 -49 207 -61 329 -6 61 -10 155 -8 210 l3 100 30 3 c27 3 214 60 224 68 2 2 2 7 -2 10 -3 3 -49 -8 -103 -26 -82 -28 -106 -32 -158 -27 -59 6 -182 44 -338 105 -55 21 -78 26 -78 17z m397 -312 c0 -192 -12 -171 -23 40 -6 110 -5 127 8 127 13 0 15 -24 15 -167z m10 -220 c-3 -10 -5 -4 -5 12 0 17 2 24 5 18 2 -7 2 -21 0 -30z m10 -55 c-3 -8 -6 -5 -6 6 -1 11 2 17 5 13 3 -3 4 -12 1 -19z m20 -115 c-4 -3 -7 0 -7 7 0 7 3 10 7 7 3 -4 3 -10 0 -14z m10 -55 c-3 -7 -5 -2 -5 12 0 14 2 19 5 13 2 -7 2 -19 0 -25z m159 -44 c1 -26 -8 -124 -21 -231 -10 -77 -23 -135 -32 -144 -9 -9 -179 101 -244 158 -39 35 -114 139 -134 187 -8 20 -14 36 -12 36 2 0 32 -11 67 -25 123 -48 212 -41 310 25 25 16 49 29 55 27 5 -2 10 -17 11 -33z m-149 -6 c-3 -7 -5 -2 -5 12 0 14 2 19 5 13 2 -7 2 -19 0 -25z m279 -14 c37 -5 104 7 170 33 32 12 -55 -133 -126 -211 -117 -128 -190 -194 -190 -171 0 2 7 51 15 107 22 159 24 179 25 235 l0 53 32 -20 c18 -11 51 -22 74 -26z m321 -4 c19 0 48 7 64 16 l30 15 -16 -31 c-30 -59 -106 -138 -191 -201 -29 -21 -55 -39 -58 -39 -3 0 -29 -14 -58 -31 -29 -18 -82 -42 -117 -56 l-63 -24 83 93 c46 51 90 99 97 106 23 26 69 97 96 149 l26 52 36 -24 c22 -15 51 -25 71 -25z"/>
<path d="M6245 2100 c-3 -5 -1 -10 4 -10 6 0 11 5 11 10 0 6 -2 10 -4 10 -3 0 -8 -4 -11 -10z"/>
<path d="M5980 1238 c0 -30 160 -167 248 -212 60 -31 33 0 -45 51 -43 28 -100 73 -126 101 l-48 49 125 -5 c71 -3 126 -1 126 4 0 5 -35 9 -77 9 -43 0 -106 4 -140 8 -52 7 -63 6 -63 -5z"/>
</g>
<g id="layer103" fill="#ce8f45" stroke="none">
<path d="M43 5553 c-22 -4 -50 -30 -41 -38 3 -3 21 2 41 10 81 34 126 14 129 -57 2 -80 -13 -101 -97 -133 l-74 -29 1 -103 c2 -89 5 -102 18 -98 10 3 28 -8 46 -26 40 -42 100 -72 130 -65 46 12 20 71 -28 64 -14 -2 -23 -9 -22 -20 2 -16 -1 -16 -25 -4 -31 17 -99 86 -85 87 5 0 43 3 84 5 101 7 145 20 169 51 23 28 27 79 10 117 -13 27 -64 56 -99 56 -18 0 -20 4 -14 18 5 9 9 41 9 70 0 47 -4 57 -28 78 -27 23 -64 29 -124 17z m218 -222 c33 -26 33 -90 0 -125 -25 -26 -56 -34 -166 -38 l-59 -3 -11 60 -10 60 80 32 c93 37 134 40 166 14z m-71 -280 c0 -12 -20 -25 -27 -18 -7 7 6 27 18 27 5 0 9 -4 9 -9z"/>
<path d="M6217 5499 c-21 -21 -37 -45 -37 -55 0 -16 -1 -16 -19 0 -23 21 -41 14 -41 -15 0 -16 -3 -18 -19 -9 -61 32 -189 -6 -224 -67 -29 -50 -4 -94 92 -160 2 -1 -8 -15 -22 -29 -41 -40 -38 -95 7 -140 57 -57 128 -43 229 46 26 23 50 40 53 37 3 -3 2 -31 -3 -63 -8 -56 -10 -59 -34 -56 -14 2 -31 -4 -38 -12 -15 -18 -7 -52 14 -60 43 -16 74 37 82 139 5 69 4 74 -21 101 -57 61 -94 168 -87 258 1 19 2 19 21 1 27 -24 60 -78 76 -124 l13 -36 1 31 c0 17 -13 51 -30 78 -34 54 -33 75 7 118 41 43 22 59 -20 17z m-115 -101 c17 -14 44 -125 33 -136 -4 -4 -37 -19 -73 -33 -62 -25 -69 -26 -96 -12 -72 37 -96 101 -53 140 54 49 151 70 189 41z m86 -210 l33 -51 -33 -29 c-112 -97 -174 -118 -222 -73 -24 22 -28 32 -23 63 7 45 33 66 130 109 39 17 74 31 77 32 3 0 20 -23 38 -51z m13 -241 c-13 -13 -26 -3 -16 12 3 6 11 8 17 5 6 -4 6 -10 -1 -17z"/>
<path d="M2116 5482 c-4 -10 5 -51 19 -92 14 -40 25 -83 25 -96 0 -20 -4 -21 -46 -16 -41 4 -46 3 -42 -14 2 -11 13 -20 28 -22 14 -2 29 -7 34 -12 10 -10 -140 -468 -163 -494 -12 -13 -16 -38 -16 -95 0 -66 4 -85 33 -143 63 -129 191 -226 327 -248 102 -16 199 4 304 63 98 55 164 140 196 252 22 73 16 220 -12 305 l-18 55 -259 172 c-142 94 -263 176 -268 181 -7 7 -5 23 3 47 11 30 11 37 0 45 -10 5 -20 1 -32 -13 l-18 -22 -2 35 c0 19 0 54 1 78 1 36 -1 42 -19 42 -15 0 -21 -7 -21 -22 -1 -22 -2 -21 -16 5 -17 31 -30 35 -38 9z m78 -143 c5 -19 12 -36 15 -39 11 -10 29 -70 23 -74 -9 -5 -53 30 -46 37 3 3 -1 30 -10 61 -10 41 -11 56 -3 53 7 -2 16 -19 21 -38z m394 -303 c174 -116 183 -126 137 -171 -47 -48 -95 -25 -207 98 -46 50 -110 121 -144 157 -34 36 -76 83 -95 104 -34 39 -33 39 56 -20 50 -33 163 -109 253 -168z m-409 -39 l2 -223 -33 -49 c-32 -47 -73 -71 -95 -56 -5 3 -18 20 -28 37 l-18 31 68 204 c64 192 95 279 99 279 1 0 3 -100 5 -223z m59 158 c12 -27 46 -113 77 -190 49 -127 54 -144 44 -177 -20 -74 -84 -95 -136 -46 -23 21 -23 26 -23 252 0 126 4 226 8 221 4 -6 18 -32 30 -60z m72 8 c24 -27 71 -77 104 -113 161 -171 155 -164 146 -204 -4 -20 -13 -43 -19 -50 -19 -22 -70 -27 -106 -10 -27 13 -39 29 -69 102 -82 201 -124 311 -118 316 11 11 20 5 62 -41z m495 -417 l7 -66 -46 -21 c-46 -20 -48 -20 -83 -2 -34 17 -38 23 -58 106 -12 48 -19 87 -16 87 3 0 15 -7 25 -15 30 -23 79 -19 110 10 14 13 26 30 27 37 2 28 28 -74 34 -136z m-185 -62 c0 -36 -35 -58 -104 -62 l-62 -4 -32 82 c-34 86 -35 104 -5 78 45 -40 126 -32 152 13 l16 29 17 -58 c10 -31 18 -66 18 -78z m-216 9 c9 -26 16 -54 16 -63 0 -28 -39 -69 -73 -78 -31 -8 -127 5 -127 17 0 3 -6 43 -14 88 l-13 82 31 -22 c44 -31 102 -29 130 4 11 15 24 25 28 23 3 -2 13 -25 22 -51z m-355 -43 c27 -14 64 -4 97 27 14 13 28 23 29 21 2 -2 6 -21 9 -43 4 -22 9 -53 12 -70 7 -43 -43 -75 -130 -82 l-64 -6 -10 34 c-19 58 -24 132 -12 163 l11 30 19 -31 c10 -18 28 -37 39 -43z m690 -25 c14 3 34 8 44 11 13 4 17 -1 17 -21 0 -40 -46 -143 -84 -190 -33 -39 -132 -113 -141 -104 -2 2 12 49 31 104 19 55 38 128 41 162 l6 62 29 -15 c18 -9 41 -13 57 -9z m-128 -97 c-27 -99 -81 -238 -92 -238 -5 0 -9 26 -9 58 0 31 -11 99 -25 150 -14 51 -25 95 -25 97 0 2 24 4 54 4 30 -1 66 6 82 14 39 21 41 8 15 -85z m-134 -87 c18 -88 11 -161 -16 -161 -28 0 -152 91 -187 137 -28 37 -52 108 -41 120 3 2 27 0 53 -5 62 -11 109 1 131 34 l17 26 13 -38 c8 -22 21 -72 30 -113z m-232 -19 c22 -34 77 -83 133 -119 36 -23 40 -29 25 -35 -43 -17 -172 14 -243 58 -37 23 -111 98 -129 131 -10 19 -7 21 56 26 43 3 74 12 92 25 l26 19 12 -39 c6 -21 19 -51 28 -66z"/>
<path d="M4790 3442 c-238 -68 -401 -248 -417 -462 -17 -227 120 -418 396 -548 99 -47 201 -55 308 -23 142 42 292 171 352 301 31 68 39 204 16 290 -34 129 -133 274 -245 358 -120 90 -275 122 -410 84z m202 -54 c31 -63 51 -130 40 -139 -4 -4 -28 -9 -54 -11 l-46 -5 -22 61 c-12 33 -31 76 -42 95 -23 42 -14 51 52 51 45 0 46 -1 72 -52z m60 32 c34 -10 39 -16 52 -63 31 -112 31 -107 -13 -107 -37 0 -39 2 -46 38 -3 20 -17 58 -31 84 -13 26 -24 50 -24 53 0 8 21 6 62 -5z m-205 -32 c29 -51 64 -151 56 -159 -4 -4 -23 -10 -40 -14 l-32 -6 -43 88 c-23 48 -44 91 -46 96 -5 9 35 26 65 26 14 1 28 -10 40 -31z m-108 -34 c12 -20 32 -62 45 -93 27 -61 28 -59 -35 -74 -24 -6 -28 -2 -54 58 -15 35 -33 69 -41 76 -8 6 -14 15 -14 20 0 9 59 49 72 49 3 0 16 -16 27 -36z m439 -1 c28 -21 32 -30 32 -70 0 -37 -3 -44 -16 -39 -9 3 -22 6 -29 6 -8 0 -18 20 -24 48 -6 26 -14 58 -17 71 -8 27 -3 25 54 -16z m-529 -57 c35 -56 54 -118 39 -128 -23 -14 -35 -4 -81 64 -45 67 -45 67 -23 82 31 22 42 19 65 -18z m631 -54 c-36 -6 -50 5 -50 40 l0 32 36 -35 c33 -32 34 -34 14 -37z m-685 -23 c40 -65 39 -75 -10 -84 -27 -5 -32 -2 -55 37 -14 24 -27 47 -29 51 -4 9 38 57 50 57 4 0 24 -27 44 -61z m702 -3 c2 -2 -1 -15 -6 -30 -10 -25 -14 -26 -82 -26 -112 0 -270 -27 -446 -76 -90 -24 -181 -51 -202 -59 -40 -14 -41 -14 -61 16 l-21 29 23 9 c13 5 86 29 162 55 245 82 335 97 516 90 63 -3 116 -6 117 -8z m-780 -56 l22 -40 -36 -15 c-20 -9 -37 -14 -37 -13 -1 2 -7 13 -14 26 -10 18 -10 27 3 52 21 40 36 38 62 -10z m831 14 c31 -67 -65 -311 -182 -463 -78 -101 -315 -298 -341 -284 -15 9 -17 7 109 144 112 121 202 223 224 253 47 62 91 154 127 264 20 61 40 112 44 112 4 0 13 -12 19 -26z m-78 -43 c0 -4 -5 -22 -11 -40 l-11 -31 -94 -1 c-52 -1 -97 -2 -101 -3 -5 -1 -26 -5 -48 -9 -57 -11 -275 -71 -375 -104 -45 -14 -45 -14 -67 14 -13 15 -23 31 -23 34 0 4 17 11 38 17 20 5 93 26 162 46 119 36 276 71 350 79 71 8 180 7 180 -2z m-742 -161 c69 -87 168 -177 267 -242 55 -37 112 -72 128 -79 33 -15 33 -20 4 -47 l-24 -22 -48 21 c-184 82 -342 238 -421 416 -20 43 -22 58 -13 75 11 20 13 18 42 -28 16 -27 46 -69 65 -94z m871 102 c9 -21 9 -46 1 -96 -26 -163 -83 -253 -303 -478 l-85 -88 -68 0 c-40 0 -64 4 -58 9 5 5 50 42 99 83 109 91 164 145 222 221 54 70 137 242 154 320 7 31 15 57 19 57 4 0 13 -13 19 -28z m-170 -62 c-6 -16 -18 -31 -27 -34 -22 -7 -182 -33 -247 -41 -106 -13 -182 -27 -243 -47 -60 -19 -64 -19 -83 -2 -26 24 -24 31 14 39 17 4 66 18 107 30 115 35 262 74 295 78 17 2 67 5 112 6 l82 1 -10 -30z m-723 -150 c86 -114 178 -191 299 -252 44 -22 82 -42 84 -44 7 -6 -41 -54 -54 -54 -22 0 -221 145 -281 205 -58 58 -128 146 -153 193 -8 15 -10 39 -5 69 l7 45 30 -53 c17 -30 50 -79 73 -109z m930 -3 c-6 -110 -43 -185 -138 -279 -67 -67 -191 -148 -205 -134 -3 3 35 47 84 98 48 51 103 111 120 133 51 66 102 168 115 229 15 78 28 52 24 -47z m-236 87 c0 -16 -43 -73 -58 -78 -46 -14 -229 -46 -320 -57 -102 -11 -104 -11 -128 12 -21 20 -22 24 -8 32 26 15 137 44 193 51 122 15 276 38 280 42 7 6 41 5 41 -2z m-758 -127 c50 -78 247 -248 367 -317 14 -8 14 -11 -5 -31 -27 -27 -40 -23 -141 43 -133 86 -207 169 -244 275 -10 31 -19 60 -19 65 0 19 17 5 42 -35z m679 6 c-29 -49 -53 -66 -114 -79 -101 -22 -182 -18 -223 9 l-34 24 118 17 c64 9 146 23 182 30 36 8 69 14 73 15 4 0 3 -7 -2 -16z m-123 -139 l-36 -37 -49 29 -48 29 50 6 c28 3 66 7 85 7 l35 2 -37 -36z"/>
<path d="M4552 2125 c-220 -62 -491 -259 -610 -444 -20 -31 -67 -118 -105 -194 -46 -95 -95 -174 -153 -250 -46 -62 -94 -132 -105 -155 -83 -169 89 -322 287 -256 92 31 228 146 298 250 l27 42 45 -25 c89 -50 202 -46 297 10 52 31 123 100 145 141 26 49 21 164 -12 260 l-27 78 119 117 c129 127 139 139 165 194 30 65 18 114 -40 169 -70 67 -218 95 -331 63z m220 -35 c72 -27 125 -72 139 -119 10 -33 8 -43 -11 -82 -24 -46 -127 -159 -194 -212 l-39 -31 5 65 c3 41 17 90 36 134 33 74 29 97 -10 71 -25 -16 -41 -11 -51 17 -4 10 -13 17 -20 14 -9 -3 -11 -36 -10 -125 1 -67 -1 -122 -5 -122 -4 1 -16 14 -27 30 -89 131 -131 189 -139 190 -4 0 -6 -13 -4 -30 4 -26 2 -29 -18 -24 -41 10 -34 -14 24 -76 60 -65 102 -126 102 -148 0 -10 -11 -12 -42 -8 -107 15 -275 -50 -353 -136 -57 -64 -115 -179 -115 -229 0 -32 6 -43 41 -71 22 -18 52 -43 67 -54 l26 -21 -34 -44 c-115 -150 -248 -239 -359 -239 -49 0 -119 25 -150 53 -39 36 -61 96 -52 139 9 40 21 58 127 198 46 59 100 149 145 240 39 80 90 172 112 205 96 146 305 310 496 390 117 49 226 58 313 25z m-89 -213 l26 12 -24 -51 c-13 -29 -27 -77 -30 -107 -10 -98 -15 -119 -29 -124 -10 -4 -10 6 1 56 11 44 13 88 8 152 -6 80 -5 88 8 70 13 -16 19 -18 40 -8z m-141 -133 c42 -50 73 -134 49 -134 -5 0 -14 22 -21 48 -7 31 -27 68 -56 103 -24 29 -44 58 -44 64 1 5 9 0 18 -13 9 -13 34 -43 54 -68z m19 -158 c61 -30 70 -42 95 -133 38 -141 31 -180 -51 -264 -99 -102 -230 -129 -348 -70 -82 40 -186 119 -193 145 -12 48 72 199 139 250 108 82 270 115 358 72z"/>
<path d="M4440 1571 c-70 -10 -138 -50 -215 -126 -74 -74 -104 -123 -112 -186 -8 -53 13 -50 21 2 9 58 49 121 112 178 102 90 184 117 307 97 38 -6 47 -4 47 8 0 9 -15 17 -42 21 -24 3 -50 8 -58 9 -8 2 -35 0 -60 -3z"/>
</g>
<g id="layer104" fill="#4aadbd" stroke="none">
<path d="M70 6234 c41 -14 107 -30 147 -36 l72 -11 -28 -36 c-38 -49 -91 -144 -91 -164 0 -33 37 -57 89 -57 83 0 200 75 376 241 39 36 84 71 100 77 l30 10 -33 1 c-18 1 -70 -9 -115 -21 -70 -20 -107 -23 -252 -23 -147 0 -181 3 -248 23 -104 30 -142 26 -47 -4z m549 -40 c-55 -60 -218 -187 -275 -215 -75 -37 -137 -38 -142 -2 -4 27 26 85 77 150 l39 51 94 7 c52 3 121 12 154 19 32 8 63 14 68 15 5 0 -1 -11 -15 -25z"/>
<path d="M4779 6123 c40 -80 75 -167 84 -206 17 -77 22 -85 42 -72 157 111 265 150 580 211 84 16 133 33 162 56 9 7 4 26 -20 76 -17 37 -33 69 -34 71 -1 1 -7 1 -13 -1 -7 -2 2 -29 22 -70 l34 -67 -25 -6 c-31 -8 -44 8 -67 79 -17 53 -30 74 -39 64 -5 -4 23 -88 49 -149 6 -14 -2 -18 -41 -24 -88 -13 -327 -73 -410 -103 -84 -31 -126 -55 -175 -100 -31 -28 -29 -30 -48 58 -15 66 -139 320 -157 320 -8 0 14 -54 56 -137z"/>
<path d="M4840 6252 c0 -5 19 -35 42 -68 49 -71 68 -113 68 -154 0 -16 4 -30 9 -30 11 0 2 75 -15 115 -7 17 -26 47 -43 68 -16 21 -33 47 -36 58 -6 19 -25 27 -25 11z"/>
<path d="M4980 6253 c1 -5 7 -19 15 -33 8 -14 14 -35 15 -47 0 -13 5 -23 10 -23 15 0 12 47 -5 80 -14 27 -36 41 -35 23z"/>
<path d="M5060 6249 c0 -5 5 -7 10 -4 6 3 10 8 10 11 0 2 -4 4 -10 4 -5 0 -10 -5 -10 -11z"/>
<path d="M5170 6253 c0 -5 12 -26 25 -48 17 -28 25 -55 25 -88 0 -30 4 -46 10 -42 29 18 -13 185 -46 185 -8 0 -14 -3 -14 -7z"/>
<path d="M5310 6243 c1 -23 35 -99 49 -107 17 -11 13 10 -9 54 -11 22 -20 46 -20 55 0 8 -4 15 -10 15 -5 0 -10 -8 -10 -17z"/>
<path d="M3634 5921 c-6 -27 -9 -29 -69 -34 -131 -12 -213 -64 -311 -194 -32 -43 -63 -82 -68 -86 -6 -5 -48 -6 -94 -3 -60 5 -92 2 -117 -8 -45 -19 -38 -36 25 -65 61 -27 110 -72 110 -99 0 -12 -11 -42 -25 -68 -46 -87 -30 -176 58 -312 l46 -71 -35 -11 c-22 -8 -34 -17 -32 -27 4 -19 154 -97 172 -90 17 7 83 108 88 134 2 14 -5 19 -37 23 -35 4 -43 10 -62 48 -44 87 -38 222 11 278 21 25 21 25 75 8 65 -19 453 -174 606 -241 l110 -49 27 -56 c30 -63 54 -83 110 -93 73 -14 162 55 188 145 12 42 -6 86 -49 123 -43 36 -89 43 -147 23 -80 -27 -114 -21 -278 48 -83 35 -214 90 -291 121 -234 95 -258 111 -245 154 31 110 98 187 182 213 49 14 62 8 78 -42 16 -48 38 -62 54 -36 6 10 30 43 54 74 23 30 42 65 42 76 0 26 -124 146 -151 146 -13 0 -21 -9 -25 -29z m95 -52 c33 -33 61 -67 61 -74 0 -7 -15 -31 -32 -53 -18 -22 -39 -48 -46 -58 -7 -11 -15 -14 -17 -9 -45 94 -57 99 -139 62 -79 -36 -127 -90 -159 -175 -15 -39 -24 -79 -20 -87 7 -20 92 -63 247 -125 68 -27 199 -81 291 -120 182 -77 201 -81 306 -50 58 17 93 8 136 -35 43 -43 45 -93 7 -152 -68 -103 -176 -97 -230 14 -15 30 -37 61 -48 68 -45 30 -636 270 -721 294 -34 9 -44 8 -65 -7 -104 -76 -80 -372 31 -372 17 0 29 -5 29 -12 0 -17 -58 -108 -68 -108 -4 0 -41 18 -82 40 l-75 39 33 7 c19 4 36 13 39 21 3 7 -13 41 -35 76 -96 146 -110 215 -67 313 14 31 25 66 25 78 0 29 -41 67 -108 100 -75 38 -59 49 57 41 73 -5 100 -4 112 7 8 7 45 52 81 99 102 132 157 166 293 177 78 7 80 8 83 35 2 15 7 27 11 27 4 0 36 -27 70 -61z"/>
<path d="M4183 5105 c-39 -17 -49 -45 -29 -84 43 -82 111 -79 156 7 34 68 -42 114 -127 77z m99 -22 c24 -21 22 -42 -6 -77 -31 -37 -66 -30 -97 20 l-22 37 22 18 c29 23 78 24 103 2z"/>
<path d="M0 4638 c0 -10 15 -15 45 -17 63 -3 180 -34 245 -65 131 -62 206 -147 256 -291 24 -66 29 -96 29 -175 0 -57 -5 -103 -12 -115 -9 -14 -13 -16 -13 -5 -6 165 -24 249 -74 355 -63 132 -156 208 -300 245 -84 21 -176 27 -176 10 0 -5 20 -10 43 -10 61 0 189 -34 241 -65 129 -75 219 -247 233 -442 3 -46 3 -83 0 -83 -3 0 -79 29 -169 64 -159 62 -334 114 -345 102 -11 -10 3 -17 68 -32 35 -8 75 -19 89 -24 284 -107 377 -144 389 -153 20 -17 37 12 51 87 14 73 3 164 -29 257 -67 195 -245 327 -476 354 -33 4 -68 9 -77 11 -11 3 -18 0 -18 -8z"/>
<path d="M6140 4643 c-199 -23 -340 -116 -416 -278 -59 -123 -90 -291 -62 -328 13 -18 17 -17 93 16 174 77 196 82 358 82 81 0 147 3 147 6 0 13 -47 19 -150 19 -117 0 -181 -13 -307 -64 -94 -38 -94 -38 -62 57 33 99 105 228 159 285 74 79 202 132 321 132 22 0 39 5 39 10 0 16 -98 11 -171 -8 -174 -46 -304 -192 -375 -423 -14 -46 -27 -88 -29 -94 -2 -5 -4 13 -4 41 -2 114 66 296 144 382 83 92 229 147 403 151 17 1 32 6 32 11 0 10 -47 11 -120 3z"/>
<path d="M3351 4594 c-23 -6 -23 -8 -17 -71 9 -86 26 -117 76 -137 50 -20 71 -20 115 -2 35 15 35 15 35 -10 0 -96 150 -165 215 -99 14 13 25 33 25 43 0 28 8 31 40 16 36 -19 76 -9 97 23 13 20 14 30 4 62 -14 50 -14 51 8 51 25 0 61 45 61 76 0 13 -9 28 -20 34 -21 11 -595 23 -639 14z m624 -36 c4 -3 1 -19 -7 -35 -10 -21 -21 -29 -46 -31 -21 -2 -31 -8 -28 -15 26 -64 29 -87 11 -107 -25 -28 -59 -25 -79 6 -23 34 -37 27 -53 -29 -19 -64 -50 -84 -104 -68 -63 19 -81 43 -79 104 2 29 2 58 1 65 -1 14 -31 17 -31 2 0 -17 -63 -50 -97 -50 -41 0 -79 15 -86 34 -3 8 -9 42 -13 76 l-7 62 306 -4 c168 -2 308 -6 312 -10z"/>
<path d="M6205 4550 c-11 -18 16 -60 37 -60 30 0 21 64 -9 68 -11 2 -24 -2 -28 -8z"/>
<path d="M2 4515 c0 -16 2 -22 5 -12 2 9 2 23 0 30 -3 6 -5 -1 -5 -18z"/>
<path d="M6030 4421 c-14 -27 -13 -41 5 -48 20 -7 55 24 55 49 0 25 -46 24 -60 -1z m27 -18 c-4 -3 -7 0 -7 7 0 7 3 10 7 7 3 -4 3 -10 0 -14z"/>
<path d="M52 4411 c-22 -14 -11 -65 15 -69 26 -4 39 28 23 58 -12 22 -18 24 -38 11z"/>
<path d="M297 4393 c-13 -13 -7 -61 9 -67 24 -9 34 2 34 40 0 26 -4 34 -18 34 -10 0 -22 -3 -25 -7z"/>
<path d="M3253 4331 c-17 -28 -63 -33 -99 -10 -35 21 -44 23 -44 10 0 -16 66 -51 94 -51 15 0 40 7 55 14 24 13 31 13 47 1 21 -14 42 -18 89 -16 23 1 26 4 17 13 -7 7 -27 11 -46 10 -24 -3 -39 3 -57 22 -29 31 -40 32 -56 7z"/>
<path d="M6130 4321 c-14 -27 -13 -41 5 -48 20 -7 55 24 55 49 0 25 -46 24 -60 -1z m27 -18 c-4 -3 -7 0 -7 7 0 7 3 10 7 7 3 -4 3 -10 0 -14z"/>
<path d="M5892 4308 c-28 -28 3 -83 33 -58 22 18 20 70 -3 70 -10 0 -23 -5 -30 -12z"/>
<path d="M4095 4277 c-27 -29 -60 -32 -102 -7 -39 23 -43 24 -43 11 0 -17 67 -51 102 -51 19 0 43 6 53 14 16 12 22 12 42 -1 12 -8 26 -12 32 -9 5 3 11 1 13 -4 2 -6 17 -8 36 -4 44 9 25 30 -23 25 -26 -2 -41 4 -60 23 -14 14 -27 26 -28 26 -1 0 -11 -10 -22 -23z"/>
<path d="M46 4255 c-20 -20 -21 -51 -2 -58 18 -7 58 30 54 51 -4 23 -32 26 -52 7z"/>
<path d="M341 4241 c-25 -25 -27 -49 -4 -58 10 -4 23 2 35 17 34 43 7 79 -31 41z m16 -28 c-4 -3 -7 0 -7 7 0 7 3 10 7 7 3 -4 3 -10 0 -14z"/>
<path d="M207 4203 c-12 -12 -7 -50 8 -63 31 -26 56 9 39 54 -6 16 -35 22 -47 9z"/>
<path d="M3597 4154 c-30 -26 -75 -32 -95 -12 -6 6 -19 13 -28 14 -13 2 -11 -3 6 -21 32 -34 74 -41 120 -20 35 16 40 16 61 1 30 -21 99 -22 99 -1 0 11 -11 14 -40 13 -31 -1 -47 5 -68 25 l-27 26 -28 -25z"/>
<path d="M422 4138 c-17 -17 -15 -58 4 -65 24 -9 48 21 40 51 -7 28 -25 33 -44 14z"/>
<path d="M2504 4071 c-58 -36 -86 -102 -105 -252 -9 -77 -12 -85 -50 -122 -61 -58 -80 -111 -78 -210 1 -67 -2 -88 -19 -117 -32 -55 -62 -155 -62 -208 0 -84 26 -140 101 -214 111 -113 222 -147 300 -94 44 30 91 117 120 221 11 44 36 107 54 140 18 33 43 93 56 134 26 87 23 174 -10 262 l-21 55 20 79 c24 93 25 125 5 191 -17 58 -60 104 -125 133 -59 27 -144 28 -186 2z m197 -29 c72 -37 99 -84 99 -170 0 -87 -26 -189 -51 -195 -24 -6 -24 -33 -3 -124 20 -84 14 -174 -14 -229 -11 -22 -54 -78 -96 -124 -42 -46 -76 -87 -76 -92 0 -27 -26 5 -83 100 -149 248 -159 302 -68 367 26 19 56 50 67 70 17 32 18 38 4 63 -9 15 -26 29 -39 30 -23 4 -23 6 -17 73 8 80 30 161 54 197 44 67 134 81 223 34z m-241 -353 c0 -31 -8 -40 -94 -115 -33 -29 -36 -36 -36 -85 0 -66 16 -101 121 -275 71 -118 79 -138 71 -162 -9 -27 -9 -26 -60 43 -103 141 -172 301 -172 401 0 80 45 169 104 205 47 28 66 25 66 -12z m330 -86 c55 -148 0 -347 -140 -505 -44 -51 -98 -93 -106 -85 -12 11 39 87 111 167 123 135 148 205 121 339 -15 75 -21 141 -12 141 3 0 14 -26 26 -57z m-357 -498 c101 -141 87 -129 133 -110 21 9 58 35 82 58 l42 42 -14 -48 c-21 -70 -69 -149 -106 -174 -43 -30 -94 -29 -157 2 -105 53 -182 147 -198 242 -7 47 12 135 46 208 l22 46 46 -94 c25 -51 72 -129 104 -172z"/>
<path d="M1509 3973 c-13 -16 -12 -17 4 -4 16 13 21 21 13 21 -2 0 -10 -8 -17 -17z"/>
<path d="M1504 3938 c-4 -7 -3 -8 4 -4 7 4 12 9 12 12 0 8 -9 4 -16 -8z"/>
<path d="M3102 3832 c-69 -22 -120 -64 -144 -120 -17 -37 -20 -59 -15 -116 3 -39 13 -93 22 -119 17 -46 16 -49 -5 -99 -13 -31 -24 -82 -27 -128 -7 -92 11 -162 66 -266 21 -38 44 -95 51 -125 65 -279 201 -349 392 -201 87 68 138 156 138 241 0 49 -24 133 -55 198 -23 46 -27 69 -29 146 -1 80 -4 98 -27 137 -15 25 -42 59 -61 76 -33 30 -35 37 -41 112 -11 142 -58 236 -134 268 -41 18 -65 17 -131 -4z m148 -27 c39 -20 69 -81 86 -174 20 -116 19 -141 -9 -141 -75 0 -54 -98 32 -156 85 -56 76 -124 -45 -329 -42 -71 -82 -135 -88 -142 -8 -10 -28 7 -86 72 -102 115 -130 169 -130 251 0 34 7 93 16 130 16 72 13 114 -11 114 -38 0 -63 216 -32 275 21 40 64 81 107 99 45 20 123 20 160 1z m149 -367 c108 -105 102 -261 -16 -463 -51 -88 -121 -185 -133 -185 -25 0 -10 40 52 141 105 172 130 225 136 292 l5 59 -65 61 c-71 67 -80 82 -66 110 14 26 51 20 87 -15z m-404 -144 c-20 -87 -15 -156 16 -220 10 -22 59 -86 108 -142 116 -133 146 -202 67 -153 -97 60 -212 259 -230 396 -8 56 5 135 30 192 25 56 29 19 9 -73z m553 -366 c4 -69 2 -84 -22 -133 -49 -99 -177 -190 -268 -190 -38 0 -52 5 -78 30 -37 35 -71 99 -94 175 l-16 55 52 -52 c29 -28 68 -59 87 -68 l35 -18 23 29 c60 73 163 238 189 302 l29 72 29 -62 c22 -47 31 -81 34 -140z"/>
<path d="M3075 2472 c-16 -11 -36 -26 -44 -35 -12 -15 -15 -15 -33 8 -27 35 -94 35 -135 1 -28 -24 -29 -24 -52 -5 -40 32 -121 21 -168 -23 l-23 -21 -24 22 c-16 15 -37 23 -59 23 -37 0 -97 -26 -97 -42 0 -14 21 -12 50 5 36 21 84 19 105 -5 24 -26 32 -25 84 10 24 17 55 30 68 30 l25 0 -28 -47 c-15 -27 -53 -87 -84 -134 -32 -47 -64 -103 -71 -123 -20 -55 -8 -61 95 -46 90 13 200 16 439 12 l147 -2 0 -39 0 -39 -112 -6 c-62 -3 -221 -9 -353 -12 -132 -4 -250 -11 -263 -15 -42 -16 -64 11 317 -389 102 -107 225 -235 272 -285 48 -49 99 -105 114 -123 32 -38 36 -39 51 -9 6 12 104 176 218 365 227 377 260 437 252 458 -4 11 -48 14 -236 14 l-230 0 0 41 0 41 183 -6 c100 -3 216 -8 257 -11 107 -8 111 -3 72 92 -28 68 -71 232 -72 272 0 20 50 4 83 -27 l28 -27 25 33 c31 39 88 46 99 12 3 -11 11 -20 16 -20 13 0 11 12 -7 38 -23 33 -95 31 -122 -3 l-20 -25 -28 23 c-35 27 -100 28 -139 3 -24 -16 -27 -16 -52 4 -31 24 -91 27 -132 5 -26 -13 -32 -12 -67 5 -43 22 -104 26 -136 9 -12 -6 -33 -25 -47 -41 l-25 -30 -19 26 c-18 25 -65 56 -84 56 -4 0 -21 -8 -38 -18z m84 -24 c11 -13 30 -34 41 -48 l20 -25 39 43 c30 34 46 45 79 49 46 6 102 -12 102 -33 0 -25 20 -25 53 0 42 32 98 35 127 6 11 -11 20 -24 20 -30 0 -18 21 -10 45 18 13 15 25 25 27 22 2 -3 14 -48 26 -100 11 -52 24 -106 28 -119 l7 -23 -239 8 c-293 11 -443 11 -686 2 l-187 -7 67 107 c36 59 68 109 70 112 2 3 8 -3 13 -13 13 -23 23 -22 67 8 21 14 51 25 70 25 25 0 35 -6 44 -25 10 -23 42 -34 50 -17 6 14 70 62 83 62 7 0 22 -10 34 -22z m399 -254 l223 -7 15 -28 c29 -56 23 -62 -63 -55 -43 3 -260 11 -483 17 -382 9 -526 6 -617 -17 -29 -8 -31 15 -6 57 16 27 22 29 78 30 33 1 132 5 220 8 175 8 294 7 633 -5z m-288 -485 c0 -159 -2 -289 -3 -289 -8 0 -253 274 -275 307 -13 19 -21 37 -18 41 9 8 105 -40 157 -78 80 -57 79 -38 -3 71 -35 45 -69 90 -76 100 -12 16 -9 16 49 -2 67 -21 89 -19 89 7 0 18 -40 78 -47 71 -2 -3 3 -19 11 -36 9 -16 12 -32 8 -35 -5 -3 -37 4 -72 15 -38 11 -67 16 -72 11 -6 -6 8 -31 34 -63 24 -30 57 -72 73 -94 l30 -40 -30 20 c-66 43 -131 75 -152 75 -62 0 -1 -86 229 -326 l68 -72 0 -98 0 -99 -68 70 c-37 39 -148 156 -247 260 -98 105 -233 246 -299 314 -141 144 -142 137 34 141 63 1 194 5 290 9 96 3 201 7 233 8 l57 2 0 -290z m470 286 c0 -15 -419 -731 -447 -764 -2 -3 -3 167 -3 376 1 209 4 383 7 387 8 7 443 8 443 1z"/>
<path d="M1888 2061 c-175 -56 -358 -215 -358 -312 0 -37 -12 -49 -48 -49 -31 0 -117 -46 -150 -81 -29 -29 -62 -108 -62 -146 0 -7 9 -22 20 -33 25 -25 36 -20 116 50 71 62 104 66 134 18 11 -18 20 -45 20 -60 0 -15 7 -34 16 -43 14 -14 19 -14 38 -2 11 8 27 26 34 41 18 36 2 107 -39 171 -16 25 -29 47 -29 49 0 2 23 7 50 11 74 10 102 -5 151 -84 95 -152 153 -207 244 -232 34 -10 35 -12 35 -57 0 -108 -35 -156 -107 -150 -34 3 -38 6 -41 34 -2 19 3 38 13 48 15 15 15 17 0 22 -19 7 -31 -7 -42 -45 -9 -34 16 -73 52 -83 39 -10 100 7 119 33 l14 21 21 -21 c61 -61 141 -16 112 62 -15 40 -30 33 -24 -12 5 -33 2 -41 -16 -50 -27 -15 -58 1 -72 36 -5 14 -6 53 -3 88 l7 62 61 5 c116 10 210 71 253 165 25 56 24 221 -1 290 -28 75 -82 142 -154 190 -116 78 -247 101 -364 64z m217 -16 c142 -37 251 -137 284 -261 11 -40 18 -151 10 -159 -6 -5 -212 33 -244 45 -14 5 -47 33 -73 61 -50 55 -75 71 -135 87 -59 16 -41 -6 23 -28 41 -14 64 -31 102 -73 55 -63 87 -77 232 -101 49 -9 91 -18 93 -20 3 -3 0 -21 -7 -40 -8 -25 -22 -41 -47 -53 -33 -15 -36 -15 -48 0 -15 21 -25 22 -25 3 0 -20 39 -46 59 -39 11 4 9 -2 -7 -20 -58 -63 -202 -93 -306 -63 -71 21 -131 77 -194 182 -23 39 -56 84 -73 100 -29 27 -35 29 -110 29 -75 -1 -80 0 -85 22 -14 55 35 128 139 207 81 61 137 91 217 117 69 22 119 23 195 4z m-532 -409 c59 -94 73 -168 38 -200 -18 -16 -19 -15 -29 27 -15 58 -52 97 -92 97 -40 0 -63 -13 -124 -67 -55 -49 -66 -52 -66 -19 0 72 45 137 124 176 85 43 114 40 149 -14z"/>
<path d="M2120 1522 c0 -5 9 -17 20 -27 14 -13 29 -16 56 -12 41 7 49 12 40 25 -4 7 -19 6 -42 -1 -31 -9 -37 -8 -45 6 -10 18 -29 23 -29 9z"/>
<path d="M5115 1185 c-22 -6 -94 -42 -159 -80 -217 -123 -373 -185 -470 -186 -62 -1 -86 -7 -86 -22 0 -6 18 -47 39 -92 22 -45 51 -128 66 -190 37 -158 60 -221 109 -308 25 -43 47 -96 51 -120 11 -75 37 -177 47 -183 19 -12 19 5 -1 67 -11 35 -21 80 -23 99 -3 34 -3 34 72 63 112 42 298 122 436 187 l123 58 20 -31 c60 -97 125 -266 151 -389 6 -32 16 -58 21 -58 12 0 12 7 -11 103 -24 103 -49 171 -106 287 -48 99 -51 110 -29 110 15 0 127 -181 145 -234 5 -17 21 -82 34 -144 13 -62 26 -116 30 -119 15 -16 16 10 2 69 -8 34 -22 96 -31 137 -17 81 -24 95 -100 226 -48 82 -55 101 -74 210 -22 132 -33 162 -115 309 -31 57 -62 129 -71 168 -10 37 -20 70 -24 72 -3 2 -24 -2 -46 -9z m45 -57 c6 -24 14 -52 17 -63 3 -11 34 -74 69 -141 77 -145 89 -179 110 -297 14 -85 14 -92 -2 -104 -15 -11 -20 -1 -50 120 -28 108 -48 159 -109 280 -78 154 -100 218 -82 236 21 21 36 11 47 -31z m-70 -12 c0 -23 26 -87 80 -193 62 -123 87 -185 111 -280 18 -66 29 -128 26 -135 -6 -17 -261 -136 -467 -220 l-145 -58 -21 25 c-30 37 -99 181 -118 245 -8 30 -29 107 -46 170 -17 63 -44 139 -61 168 l-29 52 39 0 c114 0 323 85 561 226 30 18 58 33 63 34 4 0 7 -15 7 -34z"/>
<path d="M5000 944 c0 -4 13 -34 30 -68 16 -33 37 -97 46 -141 17 -85 51 -175 65 -175 13 0 11 13 -11 63 -11 24 -27 80 -35 123 -15 78 -68 204 -86 204 -5 0 -9 -3 -9 -6z"/>
<path d="M4880 904 c0 -20 55 -243 77 -309 19 -60 70 -138 84 -129 6 4 4 14 -6 27 -37 51 -70 139 -104 278 -20 82 -39 149 -43 149 -5 0 -8 -7 -8 -16z"/>
<path d="M4670 824 c0 -3 17 -42 39 -87 21 -45 46 -113 56 -152 21 -87 41 -135 54 -135 15 0 14 16 -4 49 -8 16 -22 59 -31 97 -19 79 -88 234 -103 234 -6 0 -11 -3 -11 -6z"/>
<path d="M4535 800 c-3 -5 5 -26 18 -47 35 -55 72 -155 98 -258 31 -126 63 -186 89 -170 6 4 0 18 -15 37 -14 16 -28 42 -31 56 -29 122 -80 275 -110 328 -38 68 -39 70 -49 54z"/>
<path d="M4790 792 c0 -13 81 -216 89 -225 5 -5 11 -5 14 0 7 11 -83 233 -94 233 -5 0 -9 -4 -9 -8z"/>
<path d="M2077 1103 c-27 -26 19 -97 50 -77 25 16 26 28 3 57 -21 26 -40 34 -53 20z m43 -39 c0 -9 -5 -14 -12 -12 -18 6 -21 28 -4 28 9 0 16 -7 16 -16z"/>
<path d="M1984 1086 c-7 -19 3 -36 22 -36 10 0 14 8 12 22 -4 26 -26 36 -34 14z"/>
<path d="M1028 765 c-84 -31 -203 -120 -340 -254 l-87 -85 -163 12 c-90 7 -224 19 -297 27 -129 14 -153 13 -137 -2 7 -8 168 -25 419 -44 l158 -13 -56 -56 c-30 -30 -55 -59 -55 -63 0 -24 41 10 184 151 169 166 244 228 337 281 58 33 121 43 141 23 18 -18 13 -65 -12 -118 -45 -93 -331 -357 -402 -371 -36 -7 -36 -23 1 -23 30 0 76 28 154 93 l48 40 132 -21 c73 -12 144 -18 158 -15 13 3 53 23 89 44 62 36 83 43 123 40 26 -2 21 -15 -28 -64 -64 -65 -65 -81 -16 -184 23 -47 39 -89 35 -92 -3 -3 -34 -6 -69 -5 -74 1 -103 16 -143 74 -15 22 -33 39 -39 40 -7 0 -73 -26 -145 -57 -73 -31 -173 -71 -223 -89 -82 -30 -86 -33 -51 -34 38 0 152 41 341 124 l79 34 29 -39 c16 -22 42 -46 58 -54 37 -20 108 -29 153 -21 46 9 46 26 1 112 -47 89 -46 113 10 173 51 54 55 73 23 95 -33 24 -49 20 -145 -30 -87 -46 -89 -46 -163 -41 -41 4 -99 11 -128 18 l-53 11 69 71 c157 163 195 283 99 317 -37 12 -43 12 -89 -5z"/>
<path d="M6129 470 c-52 -9 -116 -39 -141 -67 -22 -24 -48 -86 -48 -115 0 -50 47 -125 107 -173 63 -50 199 -122 210 -112 8 9 12 6 -78 50 -82 40 -170 112 -194 158 -19 36 -19 102 0 139 31 60 98 93 213 105 34 4 62 11 62 16 0 11 -65 10 -131 -1z"/>
<path d="M5220 300 c0 -6 14 -38 31 -71 17 -34 35 -89 40 -123 15 -93 19 -106 28 -106 12 0 3 69 -20 158 -22 83 -79 185 -79 142z"/>
<path d="M1077 247 c-8 -22 16 -50 39 -45 13 2 19 12 19 28 0 20 -6 26 -26 28 -16 2 -29 -3 -32 -11z m43 -11 c0 -3 -4 -8 -10 -11 -5 -3 -10 -1 -10 4 0 6 5 11 10 11 6 0 10 -2 10 -4z"/>
<path d="M18 233 c-10 -2 -18 -10 -18 -16 0 -8 27 -12 86 -13 90 0 104 -7 104 -49 0 -11 -7 -31 -16 -43 -22 -32 -89 -30 -138 3 -25 17 -36 20 -36 11 0 -25 67 -58 120 -59 65 -1 90 21 90 79 0 54 -17 71 -78 79 -26 3 -58 8 -72 10 -14 1 -33 1 -42 -2z"/>
<path d="M954 230 c-44 -10 -54 -18 -54 -45 0 -37 37 -57 82 -45 47 14 61 31 49 62 -11 29 -33 37 -77 28z m56 -39 c0 -21 -19 -31 -61 -31 -19 0 -29 5 -29 15 0 18 28 34 63 35 20 0 27 -5 27 -19z"/>
<path d="M5070 222 c0 -45 84 -222 106 -222 11 0 7 15 -19 63 -19 34 -42 86 -52 115 -9 28 -21 52 -26 52 -5 0 -9 -4 -9 -8z"/>
<path d="M6237 213 c-12 -11 -7 -57 7 -76 12 -16 14 -12 13 33 -1 48 -6 58 -20 43z"/>
<path d="M348 179 c-26 -15 -22 -54 8 -78 51 -40 144 -38 152 2 7 33 -7 63 -33 75 -32 15 -104 15 -127 1z m126 -25 c40 -40 -7 -75 -73 -56 -71 22 -61 72 15 72 25 0 49 -6 58 -16z"/>
<path d="M686 179 c-49 -12 -66 -25 -66 -54 0 -35 31 -55 84 -55 65 0 106 23 106 58 0 15 -4 33 -8 40 -12 17 -69 23 -116 11z m92 -18 c20 -12 10 -44 -18 -58 -37 -19 -106 -17 -114 3 -9 24 10 42 57 53 56 12 60 12 75 2z"/>
<path d="M4896 181 c-11 -18 69 -181 89 -181 13 0 9 13 -18 63 -18 34 -40 77 -48 96 -11 24 -18 31 -23 22z"/>
<path d="M4997 143 c-8 -13 49 -143 63 -143 17 0 11 22 -24 89 -18 35 -36 59 -39 54z"/>
<path d="M4790 114 c0 -6 41 -106 47 -113 2 -2 5 -2 8 1 6 6 -42 118 -50 118 -3 0 -5 -3 -5 -6z"/>
<path d="M8 3 c7 -3 16 -2 19 1 4 3 -2 6 -13 5 -11 0 -14 -3 -6 -6z"/>
</g>
<g id="layer105" fill="#f74a73" stroke="none">
<path d="M3797 6193 c241 -344 324 -423 442 -423 37 0 49 5 76 34 65 70 88 160 65 258 -18 75 -76 198 -93 198 -39 0 -106 -58 -92 -80 11 -18 -16 -50 -63 -74 -26 -13 -56 -33 -66 -45 -11 -12 -26 -21 -35 -21 -21 0 -47 -17 -39 -25 3 -4 16 -1 29 5 l22 12 -19 -32 c-11 -19 -24 -35 -29 -36 -6 -2 -57 64 -115 146 -58 82 -111 149 -118 150 -7 0 8 -30 35 -67z m522 -23 c18 -39 38 -100 44 -135 14 -84 -7 -157 -63 -216 -38 -40 -42 -41 -82 -35 -57 9 -114 44 -167 101 l-42 46 27 47 c36 64 61 89 114 118 30 17 58 45 85 84 22 33 43 60 46 60 3 0 21 -32 38 -70z"/>
<path d="M3810 6253 c0 -5 4 -15 10 -23 11 -18 25 -7 17 15 -6 15 -27 21 -27 8z"/>
<path d="M4144 6234 c15 -14 31 -22 35 -19 7 8 -36 45 -53 45 -6 0 2 -12 18 -26z"/>
<path d="M4213 6253 c4 -3 10 -3 14 0 3 4 0 7 -7 7 -7 0 -10 -3 -7 -7z"/>
<path d="M3910 6215 c-30 -32 -14 -32 25 0 20 16 25 24 14 25 -8 0 -26 -11 -39 -25z"/>
<path d="M4053 6207 c4 -11 10 -30 13 -43 3 -13 12 -24 20 -24 17 0 0 53 -24 72 -14 11 -15 10 -9 -5z"/>
<path d="M3980 6200 c-8 -5 -11 -12 -8 -15 4 -4 17 0 30 9 24 17 5 23 -22 6z"/>
<path d="M3850 6182 c0 -17 30 -62 41 -62 15 0 10 13 -16 45 -13 17 -24 24 -25 17z"/>
<path d="M4134 6165 c-10 -8 -14 -15 -7 -15 19 0 43 11 43 21 0 13 -14 11 -36 -6z"/>
<path d="M4005 6120 c16 -16 33 -30 39 -30 5 0 -3 14 -19 30 -16 17 -33 30 -39 30 -5 0 3 -13 19 -30z"/>
<path d="M3940 6125 c0 -19 25 -75 33 -75 13 0 -1 52 -19 70 -8 8 -14 10 -14 5z"/>
<path d="M4010 3931 c-43 -23 -90 -69 -90 -87 0 -16 -16 -19 -25 -4 -12 20 -35 10 -35 -15 0 -23 -2 -25 -21 -14 -13 6 -48 9 -84 7 -74 -5 -141 -42 -151 -85 -10 -37 21 -92 69 -122 37 -24 37 -25 18 -45 -34 -36 -43 -73 -27 -111 16 -37 67 -75 101 -75 29 0 92 36 152 88 l53 44 0 -48 c0 -75 -8 -93 -37 -91 -33 3 -52 -25 -34 -47 38 -46 82 6 89 105 6 85 20 90 85 32 67 -59 137 -70 137 -22 0 21 -35 40 -57 32 -15 -6 -17 -33 -3 -33 6 0 10 5 10 10 0 6 7 10 15 10 8 0 15 -7 15 -15 0 -10 -10 -15 -30 -15 -22 0 -44 14 -87 55 l-58 54 67 1 c154 0 218 34 218 114 0 60 -30 95 -87 103 -39 5 -41 7 -32 30 21 56 1 142 -36 157 -32 12 -100 5 -135 -13z m148 -18 c16 -22 15 -85 -2 -126 -11 -27 -25 -37 -87 -62 -45 -17 -74 -24 -76 -18 -2 6 -17 31 -34 56 -23 36 -28 49 -20 68 31 82 178 136 219 82z m-191 -193 c18 -39 28 -77 31 -130 l5 -75 -26 23 c-14 13 -40 51 -58 85 -26 49 -33 76 -37 136 l-4 76 31 -30 c17 -16 43 -54 58 -85z m-138 77 c19 -9 27 -26 37 -76 8 -36 12 -66 11 -67 -2 -2 -35 -16 -74 -32 -67 -27 -73 -28 -103 -14 -40 19 -80 67 -80 95 1 37 37 71 97 93 48 17 81 17 112 1z m436 -77 c9 -10 17 -31 17 -47 2 -80 -36 -105 -169 -111 l-93 -4 0 30 c0 16 -3 43 -6 60 -6 28 -3 31 42 52 65 29 141 48 170 42 12 -2 30 -12 39 -22z m-338 -140 l31 -50 -46 -39 c-113 -94 -156 -109 -205 -71 -49 38 -40 106 18 144 28 19 143 65 160 65 6 0 24 -22 42 -49z m13 -235 c0 -8 -7 -15 -15 -15 -16 0 -20 12 -8 23 11 12 23 8 23 -8z"/>
<path d="M0 3721 c0 -6 15 -11 33 -11 49 0 215 -47 284 -81 41 -20 72 -43 92 -71 17 -23 29 -43 27 -45 -2 -2 -27 10 -56 27 -106 62 -168 82 -277 87 -62 4 -103 2 -103 -4 0 -5 41 -10 93 -10 105 0 166 -19 280 -85 l69 -40 -28 -31 c-16 -18 -48 -53 -72 -78 l-44 -47 -66 31 c-68 32 -156 46 -207 33 -44 -11 -27 -24 20 -14 116 25 296 -67 351 -178 25 -51 26 -61 22 -153 -4 -73 -10 -110 -26 -143 -26 -52 -104 -120 -180 -155 -46 -22 -65 -25 -133 -21 -92 4 -106 -7 -22 -18 72 -9 148 6 202 40 l40 26 58 -58 c32 -32 69 -65 83 -74 l25 -16 -25 -20 c-38 -33 -149 -88 -209 -106 -31 -9 -94 -16 -145 -17 -105 -1 -92 -17 14 -18 105 -1 222 35 316 99 25 16 49 30 53 30 15 0 -6 -70 -32 -103 -30 -39 -100 -79 -181 -102 -45 -13 -84 -16 -158 -13 -115 6 -119 -9 -6 -18 208 -18 385 78 400 216 4 29 8 34 25 32 25 -3 66 48 61 77 -2 11 21 44 63 89 39 40 80 97 98 134 32 66 61 164 61 208 0 87 -61 167 -183 240 -63 37 -75 49 -71 66 6 25 -40 84 -66 84 -10 0 -30 16 -45 35 -60 80 -118 113 -258 150 -123 32 -177 40 -177 26z m519 -255 c17 -31 9 -45 -77 -129 l-69 -69 -28 25 -29 24 80 87 c43 47 86 86 95 86 9 0 21 -11 28 -24z m45 -121 c43 -57 75 -135 87 -218 17 -113 5 -192 -42 -286 -54 -109 -58 -111 -116 -68 -27 19 -59 47 -72 60 l-23 26 18 48 c14 36 19 75 19 153 0 90 -3 112 -23 150 l-23 45 68 62 c37 34 71 63 74 63 4 0 19 -16 33 -35z m74 -14 c96 -66 142 -130 142 -199 0 -89 -66 -244 -136 -319 l-44 -48 30 62 c17 33 35 87 41 119 21 116 -12 291 -71 372 -47 66 -42 68 38 13z m-131 -586 c24 -17 45 -38 48 -47 7 -21 -22 -68 -41 -68 -34 0 -136 78 -176 133 l-20 29 33 28 34 28 40 -37 c22 -20 59 -50 82 -66z"/>
<path d="M6145 3711 c-51 -23 -86 -64 -131 -153 -19 -38 -39 -66 -45 -62 -35 21 -100 -38 -80 -74 8 -15 0 -29 -46 -83 -120 -137 -166 -235 -167 -354 -1 -115 51 -195 183 -285 37 -25 51 -41 51 -58 0 -34 55 -86 83 -78 18 4 26 -1 42 -30 29 -53 95 -109 160 -133 32 -12 60 -19 63 -17 3 3 -4 8 -14 12 -59 20 -123 55 -148 80 -24 25 -66 93 -66 109 0 2 22 -9 48 -25 83 -51 182 -89 182 -71 0 6 -8 11 -19 11 -27 0 -181 79 -188 96 -4 12 36 67 112 152 9 10 19 10 49 -3 53 -23 57 -11 4 13 -55 24 -123 98 -156 170 -37 80 -37 184 0 263 34 75 85 130 147 159 28 13 51 27 51 32 0 10 -32 2 -72 -18 -15 -8 -31 -14 -37 -14 -5 0 -40 29 -78 64 -66 63 -67 65 -48 81 51 42 114 77 165 92 61 19 85 33 54 33 -33 0 -130 -36 -170 -64 -21 -14 -40 -24 -42 -22 -6 6 28 68 59 107 34 43 83 69 133 69 20 0 36 5 36 10 0 16 -72 11 -115 -9z m-133 -258 c18 -15 54 -48 81 -72 l47 -45 -27 -28 c-15 -15 -29 -28 -32 -28 -3 0 -32 22 -63 49 -31 27 -72 60 -90 74 l-32 26 24 25 c30 33 50 33 92 -1z m11 -145 l47 -43 -27 -65 c-22 -50 -28 -81 -28 -136 0 -61 5 -80 39 -149 27 -54 35 -80 27 -83 -22 -7 -130 -102 -142 -124 -12 -22 -13 -21 -50 21 -47 52 -74 121 -89 230 -22 149 4 261 90 386 l31 45 27 -19 c15 -11 48 -40 75 -63z m-228 -99 c-24 -66 -29 -148 -16 -240 16 -103 43 -177 88 -235 38 -51 33 -50 -45 10 -125 97 -159 218 -103 366 20 52 80 154 87 147 2 -2 -3 -24 -11 -48z m342 -411 l21 -23 -75 -90 c-41 -49 -84 -94 -94 -99 -24 -12 -59 18 -59 50 0 34 77 121 145 165 37 24 37 24 62 -3z"/>
<path d="M5240 2180 c-36 -4 -76 -13 -91 -19 -52 -25 -54 -37 -57 -308 -3 -243 -3 -252 17 -272 12 -12 30 -21 41 -21 16 0 20 -7 20 -35 0 -22 8 -43 21 -56 18 -18 28 -20 72 -14 83 10 87 13 87 50 l0 33 188 -5 c202 -6 381 8 418 32 30 19 42 61 53 185 14 155 -6 345 -41 393 -8 10 -37 21 -68 26 -69 12 -572 20 -660 11z m692 -28 c33 -13 44 -49 59 -184 12 -109 -2 -296 -26 -354 -18 -44 -38 -51 -181 -62 -173 -14 -588 5 -652 29 l-23 9 3 255 3 255 25 25 c14 14 46 30 70 35 61 13 687 5 722 -8z m-624 -608 c18 -5 22 -13 20 -32 -3 -29 -45 -46 -102 -40 -28 3 -31 7 -34 41 l-3 37 48 0 c26 0 58 -3 71 -6z"/>
<path d="M5583 2072 c-110 -39 -173 -124 -173 -231 1 -73 25 -125 87 -182 72 -67 104 -82 186 -81 93 0 203 52 245 114 33 51 43 161 19 218 -62 145 -218 214 -364 162z m198 -13 c153 -46 215 -279 102 -385 -40 -38 -125 -73 -193 -81 -71 -7 -127 16 -191 80 -52 52 -69 91 -69 157 0 167 176 281 351 229z"/>
<path d="M5626 1995 c-76 -27 -135 -110 -136 -189 0 -32 6 -45 38 -75 43 -41 125 -74 182 -73 52 1 136 45 155 82 33 63 7 183 -49 224 -61 46 -122 56 -190 31z m154 -23 c68 -33 102 -156 63 -223 -19 -32 -105 -79 -145 -79 -41 0 -112 29 -151 61 -31 26 -37 37 -37 70 0 68 58 153 120 178 40 16 112 13 150 -7z"/>
<path d="M5233 1780 c-40 -17 -47 -92 -12 -122 25 -21 111 -33 138 -18 28 14 29 87 3 120 -20 25 -92 36 -129 20z m116 -24 c7 -8 11 -34 9 -58 -3 -42 -4 -43 -42 -46 -80 -7 -116 21 -95 75 5 15 16 31 22 35 21 13 94 9 106 -6z"/>
<path d="M3602 718 c-51 -25 -41 -70 48 -230 33 -59 60 -111 60 -116 0 -5 -12 -17 -26 -27 -34 -22 -57 -78 -49 -119 8 -36 93 -202 112 -217 9 -8 23 -5 49 12 21 13 33 24 26 27 -6 2 -22 -4 -35 -13 -25 -16 -25 -16 -61 43 -74 123 -85 188 -40 241 31 38 40 39 48 6 10 -39 28 -31 21 9 -6 32 -4 36 47 74 114 85 145 88 201 19 37 -45 169 -248 233 -359 21 -37 45 -68 52 -68 7 0 11 3 9 8 -48 81 -164 267 -210 334 -96 141 -144 171 -216 133 l-28 -14 -56 107 c-31 59 -67 117 -79 130 -29 26 -75 35 -106 20z m98 -35 c21 -27 120 -217 120 -230 -1 -13 -79 -65 -89 -59 -11 7 -67 106 -112 197 -34 68 -34 98 -1 115 31 15 58 7 82 -23z"/>
<path d="M3844 426 c-10 -8 -16 -17 -13 -20 3 -3 14 1 25 8 10 8 16 17 13 20 -3 3 -14 -1 -25 -8z"/>
<path d="M3967 410 c16 -28 33 -39 33 -22 0 13 -31 52 -41 52 -6 0 -2 -13 8 -30z"/>
<path d="M3904 388 c3 -17 8 -34 11 -36 11 -11 16 9 10 37 -9 42 -29 41 -21 -1z"/>
<path d="M3790 383 c1 -15 49 -67 55 -61 8 7 -35 68 -47 68 -4 0 -8 -3 -8 -7z"/>
<path d="M4027 315 c18 -24 33 -32 33 -17 -1 13 -27 42 -39 42 -8 0 -5 -9 6 -25z"/>
<path d="M3970 322 c0 -10 22 -32 32 -32 5 0 3 9 -4 20 -13 20 -28 27 -28 12z"/>
<path d="M3905 289 c-4 -11 -4 -23 0 -27 7 -7 25 17 25 36 0 20 -18 14 -25 -9z"/>
<path d="M3702 265 c22 -33 38 -45 38 -26 0 13 -40 61 -51 61 -5 0 1 -16 13 -35z"/>
<path d="M3775 270 c-8 -13 15 -13 35 0 12 8 11 10 -7 10 -12 0 -25 -4 -28 -10z"/>
<path d="M3850 245 c0 -18 19 -40 26 -32 4 4 0 15 -9 24 -9 10 -17 13 -17 8z"/>
<path d="M4030 226 c0 -14 5 -26 10 -26 6 0 10 9 10 19 0 11 -4 23 -10 26 -6 4 -10 -5 -10 -19z"/>
<path d="M4074 236 c11 -9 23 -16 28 -16 4 0 8 -9 8 -20 0 -11 5 -20 10 -20 18 0 11 47 -7 53 -10 2 -27 8 -38 12 -20 7 -20 6 -1 -9z"/>
<path d="M3670 225 c0 -14 31 -65 40 -65 12 0 -15 63 -29 68 -6 2 -11 1 -11 -3z"/>
<path d="M3945 210 c-15 -16 -15 -20 -3 -20 8 0 23 9 33 20 15 16 15 20 3 20 -8 0 -23 -9 -33 -20z"/>
<path d="M3760 204 l-35 -14 40 6 c22 3 44 10 50 15 13 13 -14 10 -55 -7z"/>
<path d="M3810 150 c-19 -16 -31 -30 -26 -30 14 0 76 41 76 51 0 15 -14 10 -50 -21z"/>
<path d="M3995 154 c-9 -14 -14 -29 -10 -32 6 -7 44 36 45 51 0 16 -19 6 -35 -19z"/>
<path d="M4070 165 c14 -7 27 -11 30 -9 6 7 -22 24 -40 23 -9 0 -5 -6 10 -14z"/>
<path d="M3895 160 c-18 -8 -18 -9 5 -9 14 0 34 4 45 9 18 8 18 9 -5 9 -14 0 -34 -4 -45 -9z"/>
<path d="M4145 128 c9 -27 22 -44 30 -36 8 7 -16 58 -27 58 -5 0 -6 -10 -3 -22z"/>
<path d="M3730 110 c11 -20 30 -28 30 -12 0 11 -22 32 -32 32 -5 0 -4 -9 2 -20z"/>
<path d="M3885 90 c9 -17 20 -28 25 -25 11 7 -17 55 -31 55 -5 0 -2 -14 6 -30z"/>
<path d="M4010 110 c-24 -15 -7 -19 25 -5 23 10 25 14 10 14 -11 0 -27 -3 -35 -9z"/>
<path d="M3940 101 c0 -5 9 -19 20 -32 22 -28 28 -6 6 24 -14 18 -26 22 -26 8z"/>
<path d="M3810 90 c0 -11 48 -25 56 -17 3 2 -9 9 -25 15 -18 7 -31 7 -31 2z"/>
<path d="M4110 92 c0 -5 7 -17 15 -28 15 -19 20 -8 9 20 -6 17 -24 22 -24 8z"/>
<path d="M4194 65 c11 -8 25 -15 30 -15 6 0 2 7 -8 15 -11 8 -25 15 -30 15 -6 0 -2 -7 8 -15z"/>
<path d="M3898 33 c-21 -8 -38 -19 -38 -24 0 -10 69 16 85 32 13 13 -3 11 -47 -8z"/>
<path d="M4135 35 c-23 -10 -25 -13 -10 -13 28 -1 61 13 49 20 -5 3 -22 0 -39 -7z"/>
<path d="M4190 38 c0 -17 18 -44 24 -37 8 7 -5 49 -15 49 -5 0 -9 -6 -9 -12z"/>
<path d="M3980 20 c13 -24 35 -27 26 -4 -3 9 -6 18 -6 20 0 2 -7 4 -15 4 -13 0 -14 -4 -5 -20z"/>
<path d="M4050 30 c8 -5 24 -9 35 -9 l20 0 -20 9 c-11 5 -27 9 -35 9 -13 1 -13 0 0 -9z"/>
</g>


</svg>