<svg xmlns="http://www.w3.org/2000/svg" width="96" height="96" viewBox="0 0 960 960" preserveAspectRatio="xMidYMid meet"  xmlns:v="https://vecta.io/nano"><path d="M523 878c-69-77-64-98 22-98 76 0 84 12 56 76-23 50-46 57-78 22zm-247-14c-3-9-6-40-6-70 0-67 14-76 76-46 33 17 44 27 44 45 0 24-28 56-67 76-29 15-40 14-47-5zm422-85c-34-25-34-30-2-68s74-43 74-8c0 12 3 39 6 60 6 36 6 37-22 37-16 0-41-10-56-21zm-263-70c-163-14-207-73-190-255 7-74 9-79 53-126 62-67 106-88 182-88 144 0 229 86 238 243 11 178-71 244-283 226zM94 696c-10-25 46-116 70-116 13 0 56 64 56 84 0 36-113 65-126 32zm749-44c-59-4-69-21-51-80 13-38 20-47 39-47 37 0 92 114 62 127-5 2-27 2-50 0zM100 475c-66-48-63-68 19-95 56-18 71-9 71 40 0 81-28 98-90 55zm658-100c-30-62-19-79 56-83 63-3 68 4 40 61-22 42-44 67-61 67-7 0-23-20-35-45zM220 258c-25-41-34-73-25-88 14-23 135 16 135 43 0 16-62 77-78 77-7 0-21-15-32-32zm403-46c-51-44-46-61 22-87 59-23 75-16 75 33 0 36-30 93-48 92-4 0-26-17-49-38zm-223-59c0-41 32-98 54-98 23 0 81 88 72 110-4 11-22 15-66 15-59 0-60-1-60-27z"/><path d="M522 837l-22-32 41-3c23-2 43-1 46 2 9 9-18 66-31 66-6 0-21-15-34-33zm-222-31c0-25 2-46 5-46 18 0 66 33 62 43-2 6-18 20-35 30l-32 19v-46zm418-47c-20-11-14-35 13-50 17-9 19-6 19 26 0 37-5 40-32 24zm-598-79c0-9 22-49 38-70 4-5 41 41 42 51 0 8-47 29-65 29-8 0-15-5-15-10zm257-4c-88-24-123-85-111-196 9-84 22-116 61-151 82-72 165-86 250-44 148 74 169 314 33 383-52 26-153 29-233 8zm167-88c21-30 7-46-14-17-16 20-20 21-34 10-21-17-33-7-16 14 18 21 46 19 64-7zM431 451c13-11 21-23 17-27s-14-1-22 5c-8 7-24 10-36 6-14-4-20-2-20 8 0 14 12 24 31 26 4 1 17-8 30-18zm167-13c15-15 16-38 2-38-5 0-10 7-10 15 0 18-12 19-28 3-17-17-28-2-12 17 15 18 32 19 48 3zm228 185c-14-4-17-11-12-36 3-17 9-33 12-36 9-9 44 39 44 60 0 19-8 21-44 12zM105 446l-30-24 43-13c23-6 44-10 47-7 9 9-7 68-19 68-6 0-24-11-41-24zm672-90l-16-34 37-5c20-2 39-3 41-1 5 5-32 74-39 74-4 0-14-15-23-34zM235 230c-8-16-15-31-15-35 0-9 34-5 57 8 21 12 21 13 3 35-23 28-26 28-45-8zm405-35c-27-29-20-41 28-51 32-7 33-6 27 22-15 64-19 67-55 29zm-207-77c18-44 30-44 50-3l17 35h-80l13-32z" fill="#febf10"/></svg>