<svg xmlns="http://www.w3.org/2000/svg" width="96" height="96" viewBox="0 0 960 960" preserveAspectRatio="xMidYMid meet"  xmlns:v="https://vecta.io/nano"><path d="M375 822c-83-31-111-49-154-99-57-66-83-140-83-233 0-224 186-384 407-348 276 44 385 387 186 589-93 95-243 133-356 91z" fill="#4b5158"/><path d="M371 778c-248-95-255-463-10-573 55-24 71-27 138-23 172 10 291 137 291 308 0 220-214 367-419 288z" fill="#dad7b3"/><path d="M371 778c-74-28-142-97-170-171-78-210 68-431 282-426 37 1 67 6 67 11s5 6 10 3c6-3 10-2 10 3 0 4 22 31 49 59 26 27 56 71 66 98 17 44 17 48 2 57-44 24-40 88 5 88 19 0 20 4 15 45-10 68-45 133-108 197-57 58-58 58-116 57-34 0-81-9-112-21zm87-184c42-29 18-104-35-104-28 0-63 33-63 60 0 25 34 60 58 60 10 0 28-7 40-16zm20-273c21-13 10-46-16-49-27-4-40 22-22 43 14 17 20 18 38 6z" fill="#fbf7cb"/></svg>