<!DOCTYPE svg PUBLIC "-//W3C//DTD SVG 20010904//EN" "http://www.w3.org/TR/2001/REC-SVG-20010904/DTD/svg10.dtd">
<svg version="1.0" xmlns="http://www.w3.org/2000/svg" width="1300px" height="1300px" viewBox="0 0 13000 13000" preserveAspectRatio="xMidYMid meet">
<g id="layer101" fill="#f1f1f1" stroke="none">
<path d="M567 12963 c9 -59 37 -116 77 -155 38 -37 97 -64 266 -124 52 -18 138 -49 190 -67 1181 -427 1158 -420 1257 -382 89 34 134 90 183 230 9 28 52 147 95 265 42 118 81 227 85 243 9 27 9 27 -1075 27 -1084 0 -1084 0 -1078 -37z"/>
<path d="M3302 12941 c-60 -58 -62 -60 -62 -111 0 -45 4 -56 31 -81 24 -23 40 -29 75 -29 49 0 65 11 201 144 45 44 89 83 97 88 9 5 20 18 26 28 10 19 6 20 -148 20 -158 0 -158 0 -220 -59z"/>
<path d="M7067 12963 c14 -95 71 -170 158 -208 49 -22 1194 -435 1389 -501 123 -42 189 -44 261 -10 94 44 113 73 192 296 24 69 67 188 95 265 27 77 54 152 58 168 9 27 9 27 -1075 27 -1084 0 -1084 0 -1078 -37z"/>
<path d="M9802 12941 c-60 -57 -62 -60 -62 -110 0 -42 5 -57 24 -76 50 -50 119 -45 181 12 110 101 221 209 228 220 6 10 -24 13 -151 13 -158 0 -158 0 -220 -59z"/>
<path d="M358 12179 c-22 -12 -34 -74 -20 -103 6 -14 32 -32 66 -46 31 -12 56 -27 55 -34 -2 -25 -36 -111 -45 -111 -5 1 -36 7 -69 14 -90 20 -189 10 -270 -29 -72 -34 -78 -42 -73 -89 3 -30 3 -30 36 -1 52 45 135 73 217 73 55 -1 91 -8 169 -37 120 -44 154 -64 205 -123 52 -58 83 -140 85 -220 1 -56 -2 -63 -26 -83 -33 -26 -36 -62 -8 -90 25 -25 62 -26 83 -2 17 18 23 63 11 75 -3 3 -7 48 -7 99 -2 87 -5 100 -40 170 -44 90 -108 153 -191 189 -31 13 -56 29 -56 34 0 6 9 33 19 60 14 37 24 49 38 48 10 -1 39 -5 65 -9 69 -10 93 -1 105 40 21 67 -7 90 -185 151 -107 37 -136 41 -164 24z m285 -166 c-7 -2 -19 -2 -25 0 -7 3 -2 5 12 5 14 0 19 -2 13 -5z"/>
<path d="M6858 12179 c-20 -11 -33 -68 -23 -99 4 -14 28 -31 63 -47 32 -15 58 -27 60 -28 5 -4 -29 -114 -36 -119 -4 -2 -32 2 -62 11 -139 37 -302 -7 -391 -105 -69 -77 -87 -96 -109 -114 -43 -37 -15 -98 44 -98 45 0 60 20 52 70 -6 38 -4 42 53 99 113 113 235 133 415 67 120 -44 154 -64 205 -123 51 -58 83 -140 85 -220 1 -56 -2 -63 -26 -83 -33 -26 -36 -62 -8 -90 44 -44 107 -9 97 52 -3 18 -7 74 -9 124 -3 81 -7 98 -41 166 -44 90 -108 153 -191 189 -31 13 -56 29 -56 34 0 6 8 33 18 60 20 54 15 53 110 39 64 -9 87 0 99 40 21 67 -7 90 -185 151 -107 37 -136 41 -164 24z m285 -166 c-7 -2 -19 -2 -25 0 -7 3 -2 5 12 5 14 0 19 -2 13 -5z"/>
<path d="M2899 11375 c-24 -25 -26 -25 -61 -10 -46 18 -60 13 -123 -44 -144 -130 -335 -316 -335 -325 0 -5 12 -23 27 -38 27 -29 27 -29 -102 -150 -236 -222 -235 -221 -235 -261 0 -49 28 -77 78 -77 34 0 48 10 157 113 269 254 236 230 272 195 22 -21 36 -28 46 -22 9 5 64 56 124 113 59 58 143 138 186 179 69 67 77 78 77 112 0 27 7 45 25 61 16 16 25 35 25 57 0 20 5 32 14 32 27 0 82 -47 104 -90 32 -62 25 -139 -23 -237 -55 -111 -112 -155 -342 -268 -256 -125 -311 -178 -328 -310 -19 -146 81 -255 236 -255 109 0 176 32 281 137 60 59 77 88 61 104 -6 6 -37 -18 -84 -67 -111 -115 -206 -155 -312 -133 -162 35 -198 234 -63 356 35 32 101 70 213 124 88 42 185 94 215 114 106 72 174 171 198 288 14 70 6 128 -26 184 -30 52 -78 82 -144 90 -36 4 -60 14 -76 30 -30 30 -53 29 -85 -2z"/>
<path d="M9399 11375 c-24 -25 -26 -25 -61 -10 -45 18 -60 13 -118 -39 -110 -98 -340 -322 -340 -330 0 -6 12 -23 27 -38 28 -29 28 -29 -102 -151 -236 -221 -235 -220 -235 -260 0 -49 28 -77 76 -77 39 0 49 8 299 244 100 95 100 95 132 64 22 -21 36 -28 46 -22 13 8 322 299 368 348 12 12 19 34 19 56 0 26 7 43 25 60 17 16 25 34 25 57 0 21 5 33 14 33 27 0 82 -47 104 -90 30 -58 24 -138 -17 -225 -56 -121 -120 -171 -372 -292 -181 -87 -243 -133 -278 -207 -61 -130 -24 -261 89 -319 49 -25 63 -28 135 -25 103 4 155 29 251 121 74 70 94 101 76 119 -7 7 -34 -15 -83 -67 -108 -113 -206 -156 -310 -134 -168 36 -200 240 -57 364 24 20 117 73 207 117 247 119 315 172 374 293 54 110 58 211 11 292 -30 52 -78 82 -144 90 -36 4 -60 14 -76 30 -30 30 -53 29 -85 -2z"/>
<path d="M4578 11050 c-42 -23 -72 -61 -94 -122 -9 -24 -37 -104 -64 -178 -26 -74 -71 -200 -100 -280 -112 -316 -108 -297 -89 -363 17 -62 61 -102 148 -136 87 -34 857 -310 970 -348 53 -18 88 -24 122 -21 57 6 122 45 143 86 34 65 286 791 286 823 -1 44 -30 107 -66 141 -22 20 -167 76 -575 222 -589 211 -605 216 -681 176z"/>
<path d="M11078 11050 c-20 -11 -46 -32 -57 -48 -19 -28 -28 -49 -75 -182 -13 -36 -58 -162 -101 -280 -118 -327 -127 -359 -120 -407 7 -46 37 -97 75 -125 23 -17 141 -62 425 -163 223 -79 439 -157 565 -202 147 -53 201 -55 270 -9 49 32 54 43 156 331 116 323 134 375 160 443 29 74 30 123 5 177 -37 79 -40 81 -622 289 -589 211 -605 216 -681 176z"/>
<path d="M1495 9869 c-219 -28 -417 -188 -485 -393 -77 -234 -24 -462 145 -631 362 -363 984 -125 1021 390 27 371 -308 683 -681 634z m164 -598 c-1 -24 -2 -23 -9 6 -4 18 -11 39 -16 46 -5 7 -1 4 9 -6 9 -11 17 -31 16 -46z m-66 -78 c-7 -2 -21 -2 -30 0 -10 3 -4 5 12 5 17 0 24 -2 18 -5z"/>
<path d="M7995 9869 c-244 -31 -448 -216 -505 -459 -18 -75 -16 -212 4 -289 42 -161 163 -313 307 -384 234 -115 498 -78 685 97 267 248 254 663 -29 903 -119 101 -302 153 -462 132z m164 -598 c-1 -24 -2 -23 -9 6 -4 18 -11 39 -16 46 -5 7 -1 4 9 -6 9 -11 17 -31 16 -46z m-66 -78 c-7 -2 -21 -2 -30 0 -10 3 -4 5 12 5 17 0 24 -2 18 -5z"/>
<path d="M5854 8931 c-258 -70 -450 -227 -556 -456 -61 -130 -73 -190 -73 -355 0 -169 13 -228 79 -365 100 -210 278 -361 511 -435 106 -34 310 -39 427 -11 481 115 754 606 598 1074 -45 134 -99 218 -209 327 -78 78 -113 105 -186 142 -146 74 -207 90 -375 94 -120 3 -157 1 -216 -15z m124 -740 c-13 -15 -25 -27 -27 -25 -4 4 39 54 47 54 2 0 -7 -13 -20 -29z m-31 -88 c-3 -10 -5 -2 -5 17 0 19 2 27 5 18 2 -10 2 -26 0 -35z m67 -79 c17 -7 23 -13 14 -14 -20 0 -78 47 -78 63 0 6 7 1 16 -12 9 -13 31 -29 48 -37z"/>
<path d="M12355 8931 c-250 -66 -435 -213 -547 -435 -206 -410 -40 -916 367 -1119 124 -61 195 -79 345 -84 163 -6 265 14 397 78 83 40 83 40 83 748 0 708 0 708 -87 749 -138 64 -181 74 -343 78 -118 3 -158 0 -215 -15z m123 -740 c-13 -15 -25 -27 -27 -25 -4 4 39 54 47 54 2 0 -7 -13 -20 -29z m-31 -88 c-3 -10 -5 -2 -5 17 0 19 2 27 5 18 2 -10 2 -26 0 -35z m67 -79 c17 -7 23 -13 14 -14 -20 0 -78 47 -78 63 0 6 7 1 16 -12 9 -13 31 -29 48 -37z"/>
<path d="M1092 7744 c-23 -9 -64 -37 -90 -62 -51 -51 -37 -16 -242 -592 -21 -58 -72 -202 -115 -320 -86 -241 -95 -298 -58 -381 39 -87 89 -121 279 -189 228 -82 345 -123 544 -195 118 -42 238 -85 265 -95 28 -9 154 -54 280 -100 259 -93 324 -105 402 -75 61 24 121 79 145 135 11 25 39 99 63 165 23 66 104 291 180 500 122 337 137 387 138 445 1 114 -62 203 -174 248 -30 12 -369 135 -754 273 -752 269 -774 276 -863 243z"/>
<path d="M7590 7742 c-25 -9 -65 -37 -90 -62 -41 -40 -52 -62 -99 -195 -30 -82 -71 -199 -93 -260 -238 -664 -240 -669 -240 -731 -1 -108 56 -195 158 -240 49 -21 88 -36 349 -129 66 -23 343 -123 615 -220 555 -200 581 -206 678 -165 96 41 117 76 216 350 48 135 98 274 111 310 13 36 33 90 43 120 11 30 48 132 82 225 52 142 63 181 63 235 1 114 -62 203 -174 248 -30 12 -369 135 -754 273 -757 271 -775 276 -865 241z"/>
<path d="M4383 7476 c-37 -33 -37 -33 -70 -13 -45 26 -93 18 -141 -24 -38 -33 -286 -265 -424 -398 -43 -41 -78 -81 -78 -90 0 -8 17 -32 38 -54 37 -38 37 -38 -13 -85 -146 -136 -384 -362 -417 -396 -32 -33 -38 -45 -38 -83 0 -55 12 -78 50 -98 65 -34 119 -12 210 83 24 25 219 208 348 327 53 48 53 48 96 6 30 -29 49 -41 58 -35 7 4 51 44 98 88 46 45 127 122 179 171 278 262 266 248 266 308 0 48 3 56 35 84 31 28 35 37 33 76 -1 45 -1 45 27 37 131 -38 189 -174 145 -340 -37 -139 -126 -256 -264 -345 -41 -27 -155 -86 -253 -131 -99 -46 -192 -93 -208 -104 -15 -11 -32 -20 -38 -20 -5 0 -39 -27 -75 -61 -47 -42 -76 -80 -99 -126 -29 -60 -32 -75 -32 -157 0 -71 4 -101 20 -137 31 -66 75 -111 141 -144 77 -38 211 -47 300 -19 82 26 189 101 272 192 74 80 94 118 70 133 -22 14 -24 12 -80 -57 -92 -113 -197 -189 -303 -219 -150 -43 -317 29 -354 154 -17 54 -14 147 6 203 39 111 131 182 386 301 238 110 317 159 406 247 192 192 234 477 90 617 -46 45 -95 66 -165 71 -51 4 -66 10 -98 38 -47 43 -77 43 -124 0z"/>
<path d="M10883 7477 c-36 -34 -36 -34 -72 -14 -72 40 -82 33 -376 -244 -146 -138 -265 -258 -265 -267 0 -9 17 -33 38 -55 37 -38 37 -38 -28 -99 -463 -433 -440 -408 -440 -466 0 -69 42 -112 112 -112 48 0 20 -24 506 434 43 41 43 41 82 -2 22 -23 44 -42 50 -42 7 0 51 38 98 83 48 46 130 124 182 173 52 49 136 128 185 176 90 87 90 87 90 140 0 49 3 57 35 85 31 28 35 37 33 76 -1 45 -1 45 27 37 167 -48 208 -242 98 -460 -68 -134 -187 -225 -458 -351 -92 -42 -193 -92 -226 -110 -79 -44 -178 -144 -208 -210 -68 -147 -28 -331 89 -410 104 -70 275 -80 395 -21 85 41 164 104 239 192 63 72 74 103 44 115 -13 5 -28 -6 -57 -42 -182 -222 -369 -298 -545 -222 -94 40 -141 119 -141 235 2 157 95 262 334 374 330 155 411 203 500 301 99 110 165 288 152 409 -12 105 -73 197 -155 236 -20 10 -63 20 -96 22 -51 4 -66 10 -98 38 -47 43 -77 43 -124 1z"/>
<path d="M358 5680 c-22 -13 -34 -75 -20 -104 6 -15 32 -32 66 -47 31 -12 56 -27 55 -33 -2 -26 -37 -111 -45 -111 -5 1 -36 7 -69 14 -83 19 -186 9 -255 -22 -78 -37 -90 -48 -90 -91 0 -37 0 -37 46 -2 105 80 219 90 378 32 120 -44 154 -64 205 -123 51 -58 83 -140 85 -220 1 -56 -2 -63 -26 -83 -33 -26 -36 -62 -8 -90 25 -25 51 -25 79 -2 20 16 20 22 12 145 -8 118 -11 133 -45 202 -43 87 -108 151 -191 186 -62 27 -64 34 -30 115 13 31 18 35 37 29 13 -4 48 -9 80 -12 52 -5 57 -3 73 21 26 39 22 76 -9 101 -31 25 -224 96 -276 102 -19 2 -43 -1 -52 -7z m285 -167 c-7 -2 -19 -2 -25 0 -7 3 -2 5 12 5 14 0 19 -2 13 -5z"/>
<path d="M6858 5679 c-22 -12 -34 -74 -20 -103 6 -14 32 -32 66 -46 31 -12 56 -27 55 -34 -2 -25 -36 -111 -45 -111 -5 1 -36 7 -69 14 -140 31 -290 -12 -377 -108 -67 -76 -86 -95 -108 -113 -43 -37 -15 -98 44 -98 42 0 60 21 53 62 -6 43 21 88 84 138 107 84 221 95 383 36 120 -44 154 -64 205 -123 52 -58 83 -140 85 -220 1 -56 -2 -63 -26 -83 -33 -26 -36 -62 -8 -90 44 -44 107 -9 97 52 -3 18 -7 74 -9 124 -3 81 -7 98 -41 166 -44 90 -108 153 -191 189 -31 13 -56 29 -56 34 0 6 9 33 19 60 14 37 24 49 38 48 10 -1 39 -5 65 -9 69 -10 93 -1 105 40 21 67 -7 90 -185 151 -107 37 -136 41 -164 24z m285 -166 c-7 -2 -19 -2 -25 0 -7 3 -2 5 12 5 14 0 19 -2 13 -5z"/>
<path d="M2899 4875 c-24 -25 -26 -25 -61 -10 -22 8 -45 12 -57 7 -18 -6 -118 -97 -328 -296 -40 -38 -73 -74 -73 -80 0 -5 12 -23 27 -38 27 -29 27 -29 -102 -150 -228 -214 -235 -222 -235 -262 0 -48 29 -76 76 -76 39 0 49 8 299 244 100 95 100 95 131 64 27 -25 35 -28 52 -19 11 6 22 14 24 18 2 5 41 44 88 88 249 232 270 256 270 295 0 26 7 43 25 60 17 16 25 34 25 57 0 31 2 34 23 28 40 -12 71 -40 95 -86 31 -58 24 -137 -19 -229 -54 -116 -119 -167 -372 -289 -226 -108 -285 -166 -302 -297 -20 -145 81 -254 236 -254 109 0 176 32 281 137 61 59 77 88 60 105 -7 7 -31 -11 -73 -57 -80 -85 -133 -121 -206 -140 -189 -49 -321 112 -234 284 33 63 96 108 270 193 90 43 189 96 220 117 170 116 246 329 165 468 -30 52 -78 82 -144 90 -36 4 -60 14 -76 30 -30 30 -53 29 -85 -2z"/>
<path d="M9399 4875 c-24 -25 -26 -25 -61 -10 -45 18 -60 13 -118 -39 -120 -107 -340 -321 -340 -330 0 -5 12 -23 27 -39 28 -28 28 -28 -27 -80 -273 -256 -310 -295 -310 -331 0 -48 29 -76 78 -76 34 0 50 12 217 169 180 170 180 170 212 139 22 -21 36 -28 46 -22 14 8 106 95 310 292 68 66 77 79 77 111 0 25 8 45 25 63 16 17 25 39 25 58 0 28 3 31 23 25 40 -12 71 -40 95 -86 20 -37 23 -54 18 -104 -7 -70 -49 -165 -96 -219 -50 -57 -128 -105 -311 -193 -228 -110 -288 -168 -304 -298 -19 -146 81 -255 236 -255 109 0 176 32 281 137 62 61 77 88 58 107 -8 8 -15 6 -26 -9 -71 -97 -196 -186 -278 -198 -100 -15 -204 43 -227 126 -18 68 4 157 53 218 25 30 112 82 231 139 233 110 325 180 380 294 54 111 58 212 11 293 -30 52 -78 82 -144 90 -36 4 -60 14 -76 30 -30 30 -53 29 -85 -2z"/>
<path d="M4585 4553 c-37 -19 -74 -59 -90 -98 -38 -90 -275 -769 -275 -788 0 -43 21 -98 51 -132 36 -41 36 -41 669 -267 431 -154 480 -170 527 -166 60 5 125 43 147 85 7 16 51 132 96 258 45 127 105 292 132 369 60 166 66 202 44 259 -34 89 -32 88 -627 301 -579 208 -606 215 -674 179z"/>
<path d="M11078 4550 c-51 -27 -72 -62 -119 -192 -254 -709 -242 -672 -235 -723 8 -48 38 -98 76 -127 23 -17 204 -85 550 -208 74 -26 231 -82 348 -124 237 -84 272 -90 342 -52 58 31 74 53 108 151 65 180 157 437 199 553 55 150 61 188 39 245 -34 89 -32 88 -627 301 -589 211 -605 215 -681 176z"/>
<path d="M1525 3374 c-295 -34 -509 -242 -545 -530 -24 -185 39 -364 175 -499 234 -234 610 -233 845 4 310 312 197 831 -215 986 -48 18 -228 52 -230 44 0 -1 -13 -4 -30 -5z m134 -603 c-1 -24 -2 -23 -9 6 -4 18 -11 39 -16 46 -5 7 -1 4 9 -6 9 -11 17 -31 16 -46z m-66 -78 c-7 -2 -21 -2 -30 0 -10 3 -4 5 12 5 17 0 24 -2 18 -5z"/>
<path d="M8000 3370 c-112 -14 -205 -53 -305 -130 -28 -22 -62 -54 -75 -72 -108 -145 -143 -243 -143 -398 1 -384 350 -665 728 -585 225 48 412 237 461 466 60 283 -105 580 -379 684 -56 21 -95 29 -192 39 -16 2 -59 0 -95 -4z m159 -599 c-1 -24 -2 -23 -9 6 -4 18 -11 39 -16 46 -5 7 -1 4 9 -6 9 -11 17 -31 16 -46z m-66 -78 c-7 -2 -21 -2 -30 0 -10 3 -4 5 12 5 17 0 24 -2 18 -5z"/>
<path d="M5855 2431 c-253 -66 -438 -216 -550 -445 -67 -137 -80 -196 -80 -366 0 -169 12 -225 79 -364 100 -211 278 -362 511 -436 107 -34 310 -39 430 -11 172 41 340 144 449 277 59 72 136 217 161 305 43 154 38 333 -15 492 -45 134 -99 218 -209 327 -78 78 -113 105 -186 142 -146 75 -207 90 -375 94 -117 3 -159 0 -215 -15z m123 -740 c-13 -15 -25 -27 -27 -25 -4 4 39 54 47 54 2 0 -7 -13 -20 -29z m-31 -88 c-3 -10 -5 -2 -5 17 0 19 2 27 5 18 2 -10 2 -26 0 -35z m67 -79 c17 -7 23 -13 14 -14 -20 0 -78 47 -78 63 0 6 7 1 16 -12 9 -13 31 -29 48 -37z"/>
<path d="M12355 2431 c-289 -75 -500 -270 -594 -548 -34 -100 -44 -176 -38 -300 6 -139 22 -207 81 -328 100 -210 278 -361 511 -435 53 -17 103 -24 205 -27 162 -6 266 14 398 78 82 40 82 40 82 748 0 708 0 708 -87 749 -138 64 -181 74 -343 78 -117 3 -159 0 -215 -15z m123 -740 c-13 -15 -25 -27 -27 -25 -4 4 39 54 47 54 2 0 -7 -13 -20 -29z m-31 -88 c-3 -10 -5 -2 -5 17 0 19 2 27 5 18 2 -10 2 -26 0 -35z m67 -79 c17 -7 23 -13 14 -14 -20 0 -78 47 -78 63 0 6 7 1 16 -12 9 -13 31 -29 48 -37z"/>
<path d="M1093 1243 c-85 -35 -126 -82 -164 -183 -124 -332 -359 -1007 -359 -1030 0 -30 0 -30 1081 -28 1082 3 1082 3 1095 38 138 381 147 412 138 470 -8 59 -45 130 -87 167 -43 38 -21 29 -842 324 -756 271 -778 277 -862 242z"/>
<path d="M7596 1245 c-54 -21 -102 -59 -130 -103 -12 -20 -43 -95 -69 -167 -49 -138 -67 -189 -226 -633 -55 -156 -101 -296 -101 -313 0 -29 0 -29 1081 -27 1082 3 1082 3 1132 143 27 77 61 169 75 205 65 166 6 316 -149 378 -30 12 -369 135 -754 273 -747 268 -776 276 -859 244z"/>
<path d="M4383 977 c-36 -34 -36 -34 -72 -14 -62 34 -95 20 -208 -87 -54 -51 -173 -163 -265 -250 -93 -87 -168 -165 -168 -174 0 -9 17 -33 37 -54 38 -39 38 -39 -91 -161 -285 -269 -274 -237 -84 -237 123 0 169 3 175 13 4 6 50 50 101 96 94 85 94 85 133 43 21 -23 43 -42 49 -42 6 0 52 39 103 88 50 48 134 128 187 177 279 264 265 248 265 308 0 48 3 56 35 84 31 28 35 37 33 76 -1 45 -1 45 27 37 162 -46 207 -237 106 -444 -77 -157 -206 -252 -561 -413 -40 -18 -40 -18 21 -21 57 -3 70 1 176 52 222 106 342 208 413 351 69 140 80 274 31 380 -43 94 -118 146 -221 153 -51 4 -66 10 -98 38 -47 43 -77 43 -124 1z"/>
<path d="M10914 1000 c-12 -4 -30 -20 -41 -34 -21 -26 -21 -26 -60 -4 -72 40 -88 30 -315 -184 -309 -291 -328 -310 -328 -327 0 -8 17 -32 38 -54 37 -38 37 -38 -18 -90 -358 -338 -342 -307 -159 -307 137 0 169 3 179 15 7 8 53 52 102 97 90 82 90 82 129 40 21 -23 43 -42 49 -42 10 0 267 239 475 442 80 78 80 78 80 131 0 47 3 56 34 83 34 31 44 68 27 107 -8 16 -5 17 20 11 172 -40 224 -235 119 -449 -75 -154 -185 -237 -515 -390 -85 -40 -85 -40 -24 -43 57 -3 71 1 176 52 205 98 328 197 397 321 79 140 99 301 50 405 -47 99 -119 150 -224 158 -51 4 -66 10 -98 38 -38 35 -56 39 -93 24z"/>
</g>
<g id="layer102" fill="#1d1a1a" stroke="none">
<path d="M567 12963 c9 -59 37 -116 77 -155 38 -37 97 -64 266 -124 52 -18 138 -49 190 -67 1181 -427 1158 -420 1257 -382 89 34 134 90 183 230 9 28 52 147 95 265 42 118 81 227 85 243 9 27 9 27 -83 27 -92 0 -92 0 -197 -297 -113 -321 -134 -360 -206 -383 -20 -7 -37 -10 -38 -8 -2 1 44 135 102 297 104 292 105 294 85 310 -15 12 -19 21 -13 36 15 36 11 45 -20 45 -24 0 -33 -6 -40 -26 -6 -16 -16 -24 -24 -21 -8 3 -20 0 -28 -6 -8 -7 -61 -142 -118 -302 -56 -159 -104 -292 -106 -294 -4 -4 -214 69 -214 74 0 2 45 129 100 283 55 154 100 283 100 287 0 3 -14 5 -32 3 -32 -3 -32 -3 -128 -270 -52 -147 -99 -270 -102 -274 -4 -3 -54 10 -111 31 -104 36 -104 36 -21 268 46 128 84 235 84 240 0 4 -37 7 -83 7 -83 0 -83 0 -157 -207 -40 -115 -74 -210 -76 -212 -7 -9 -164 52 -164 64 0 8 27 89 60 180 33 91 60 168 60 171 0 2 -38 4 -84 4 -84 0 -84 0 -131 -132 -26 -73 -51 -143 -56 -155 -8 -22 -8 -22 -111 14 -57 20 -105 38 -107 40 -2 1 15 54 37 118 41 115 41 115 8 115 -34 0 -34 0 -71 -105 -38 -106 -38 -106 -68 -78 -38 36 -57 81 -57 138 0 45 0 45 -74 45 -75 0 -75 0 -69 -37z"/>
<path d="M3302 12941 c-60 -58 -62 -60 -62 -111 0 -45 4 -56 31 -81 24 -23 40 -29 75 -29 53 0 54 0 313 250 26 25 26 25 -13 28 -29 3 -44 -2 -62 -19 -24 -22 -24 -22 -47 -1 -20 19 -35 22 -98 22 -75 0 -75 0 -137 -59z m176 6 c32 -33 32 -33 -37 -100 -70 -67 -103 -81 -129 -55 -29 29 -14 65 54 127 37 34 70 61 73 61 4 0 22 -15 39 -33z"/>
<path d="M4061 12963 c-96 -55 -175 -133 -213 -212 -29 -59 -32 -76 -32 -156 -1 -140 45 -220 158 -277 52 -27 75 -32 153 -36 109 -5 175 12 262 68 104 67 241 211 241 253 0 8 -8 18 -17 22 -13 5 -28 -6 -57 -42 -182 -221 -369 -298 -544 -223 -199 86 -189 370 16 513 26 17 88 53 137 79 90 47 90 47 25 47 -56 0 -74 -5 -129 -36z"/>
<path d="M7067 12963 c14 -95 71 -170 158 -208 49 -22 1194 -435 1389 -501 123 -42 189 -44 261 -10 94 44 113 73 192 296 24 69 67 188 95 265 79 220 82 195 -25 195 -92 0 -92 0 -197 -297 -113 -321 -134 -360 -206 -383 -20 -7 -37 -10 -38 -8 -2 1 41 127 95 278 55 151 102 283 105 292 3 10 -3 24 -15 34 -15 13 -17 22 -10 41 14 37 11 43 -21 43 -24 0 -33 -6 -40 -26 -6 -16 -16 -24 -24 -21 -8 3 -20 0 -28 -6 -8 -7 -61 -142 -118 -302 -56 -159 -104 -292 -106 -294 -3 -4 -214 70 -214 75 0 1 43 123 96 271 122 338 114 305 73 301 -33 -3 -33 -3 -129 -270 -52 -147 -99 -270 -102 -274 -4 -3 -54 10 -111 31 -104 37 -104 37 -21 268 46 128 84 235 84 240 0 4 -37 7 -83 7 -83 0 -83 0 -157 -207 -40 -115 -74 -210 -76 -212 -7 -9 -164 52 -164 64 0 8 27 89 60 180 33 91 60 168 60 171 0 2 -38 4 -84 4 -84 0 -84 0 -131 -132 -26 -73 -51 -143 -56 -155 -8 -22 -8 -22 -111 14 -57 20 -105 38 -107 40 -2 1 15 54 37 118 41 115 41 115 8 115 -34 0 -34 0 -71 -105 -38 -106 -38 -106 -68 -78 -38 36 -57 81 -57 138 0 45 0 45 -74 45 -75 0 -75 0 -69 -37z"/>
<path d="M9802 12941 c-60 -57 -62 -60 -62 -110 0 -58 26 -95 74 -107 66 -16 85 -4 276 180 95 91 95 91 56 94 -29 3 -44 -2 -62 -19 -24 -22 -24 -22 -47 -1 -20 19 -35 22 -98 22 -75 0 -75 0 -137 -59z m176 6 c32 -33 32 -33 -37 -100 -70 -67 -103 -81 -129 -55 -29 29 -14 65 54 127 37 34 70 61 73 61 4 0 22 -15 39 -33z"/>
<path d="M10561 12963 c-86 -49 -184 -146 -215 -213 -50 -108 -43 -244 17 -335 58 -89 157 -135 289 -135 142 0 267 66 399 209 73 79 92 117 68 132 -22 14 -25 12 -76 -52 -159 -203 -361 -282 -531 -209 -199 86 -189 370 16 513 26 17 88 53 137 79 90 47 90 47 25 47 -56 0 -74 -5 -129 -36z"/>
<path d="M4765 12930 c-26 -51 -19 -127 19 -205 56 -116 132 -187 149 -140 4 8 -9 32 -29 56 -83 100 -113 183 -90 250 11 31 12 47 4 56 -17 21 -36 15 -53 -17z"/>
<path d="M11265 12930 c-26 -51 -19 -127 19 -205 36 -74 99 -155 121 -155 7 0 18 6 24 14 9 11 4 23 -24 56 -84 101 -114 184 -91 251 11 31 12 47 4 56 -17 21 -36 15 -53 -17z"/>
<path d="M4641 12937 c-20 -25 -41 -86 -41 -122 0 -91 94 -215 125 -164 4 5 -5 28 -20 49 -15 21 -33 57 -41 80 -15 42 -7 73 28 122 23 31 -26 65 -51 35z"/>
<path d="M11142 12938 c-60 -76 -54 -175 14 -265 25 -33 57 -43 69 -22 4 5 -5 28 -20 49 -15 21 -33 57 -41 80 -15 42 -7 73 28 122 22 30 -26 65 -50 36z"/>
<path d="M3111 12905 c-35 -41 -44 -66 -39 -121 2 -27 8 -40 21 -42 19 -4 22 3 32 63 5 27 18 50 42 72 39 37 38 63 -1 63 -15 0 -35 -13 -55 -35z"/>
<path d="M9622 12915 c-38 -32 -54 -72 -50 -126 2 -32 8 -45 21 -47 19 -4 22 3 32 63 5 27 18 50 42 72 58 55 17 90 -45 38z"/>
<path d="M3737 12454 c-14 -15 -6 -61 19 -112 29 -59 102 -122 140 -122 40 0 30 35 -19 69 -54 37 -79 74 -87 126 -4 30 -10 41 -25 43 -12 2 -24 0 -28 -4z"/>
<path d="M10234 12436 c-7 -30 1 -58 32 -113 27 -46 100 -103 133 -103 37 0 25 36 -22 69 -54 37 -79 74 -87 126 -4 32 -10 41 -27 43 -17 3 -24 -3 -29 -22z"/>
<path d="M1430 12381 c0 -25 48 -50 113 -59 33 -4 37 -2 37 17 0 23 -49 49 -112 58 -34 5 -38 3 -38 -16z"/>
<path d="M7930 12379 c0 -24 56 -51 110 -53 28 -1 35 3 35 18 0 21 -71 54 -117 55 -22 1 -28 -4 -28 -20z"/>
<path d="M1773 12264 c-3 -8 -1 -20 5 -26 15 -15 391 -148 419 -148 20 0 24 4 21 22 -3 20 -30 32 -203 95 -110 39 -208 72 -218 72 -10 1 -20 -6 -24 -15z"/>
<path d="M8273 12264 c-3 -8 -1 -20 5 -26 15 -15 391 -148 419 -148 20 0 24 4 21 22 -3 20 -30 32 -203 95 -110 39 -208 72 -218 72 -10 1 -20 -6 -24 -15z"/>
<path d="M358 12179 c-22 -12 -34 -74 -20 -103 6 -14 32 -32 66 -46 31 -12 56 -27 55 -34 -2 -25 -36 -111 -45 -111 -5 1 -36 7 -69 14 -90 20 -189 10 -270 -29 -72 -34 -78 -42 -73 -89 3 -30 3 -30 36 -1 52 45 135 73 217 73 55 -1 91 -8 169 -37 120 -44 154 -64 205 -123 52 -58 83 -140 85 -220 1 -56 -2 -63 -26 -83 -33 -26 -36 -62 -8 -90 25 -25 62 -26 83 -2 17 18 23 63 11 75 -3 3 -7 48 -7 99 -2 87 -5 100 -40 170 -44 90 -108 153 -191 189 -31 13 -56 29 -56 34 0 6 9 33 19 60 14 37 24 49 38 48 10 -1 39 -5 65 -9 69 -10 93 -1 105 40 21 67 -7 90 -185 151 -107 37 -136 41 -164 24z m171 -85 c116 -42 134 -53 122 -73 -8 -13 -22 -11 -93 14 -128 44 -168 63 -168 80 0 23 29 19 139 -21z"/>
<path d="M6858 12179 c-20 -11 -33 -68 -23 -99 4 -14 28 -31 63 -47 32 -15 58 -27 60 -28 5 -4 -29 -114 -36 -119 -4 -2 -32 2 -62 11 -139 37 -302 -7 -391 -105 -69 -77 -87 -96 -109 -114 -43 -37 -15 -98 44 -98 45 0 60 20 52 70 -6 38 -4 42 53 99 113 113 235 133 415 67 120 -44 154 -64 205 -123 51 -58 83 -140 85 -220 1 -56 -2 -63 -26 -83 -33 -26 -36 -62 -8 -90 44 -44 107 -9 97 52 -3 18 -7 74 -9 124 -3 81 -7 98 -41 166 -44 90 -108 153 -191 189 -31 13 -56 29 -56 34 0 6 8 33 18 60 20 54 15 53 110 39 64 -9 87 0 99 40 21 67 -7 90 -185 151 -107 37 -136 41 -164 24z m171 -85 c116 -42 134 -53 122 -73 -8 -13 -22 -11 -93 14 -128 44 -168 63 -168 80 0 23 29 19 139 -21z"/>
<path d="M12955 11776 c-38 -46 -57 -66 -97 -101 -22 -19 -23 -58 -2 -79 20 -20 78 -21 94 -1 8 9 10 29 7 49 -4 26 1 43 19 70 18 26 24 47 22 74 -3 37 -3 37 -43 -12z"/>
<path d="M200 11779 c-75 -15 -131 -57 -165 -124 -30 -59 -30 -59 -33 -556 -3 -580 -17 -524 133 -524 74 0 98 4 131 22 59 31 96 84 133 188 18 50 44 120 57 156 13 36 28 79 33 95 5 16 39 110 75 209 79 215 83 235 61 310 -25 88 -94 152 -205 192 -100 36 -158 44 -220 32z"/>
<path d="M6701 11779 c-59 -12 -125 -52 -150 -93 -18 -28 -134 -342 -261 -704 -46 -132 -36 -199 42 -288 36 -40 92 -71 192 -104 150 -49 302 3 348 119 12 32 82 226 188 526 24 66 51 143 61 170 23 62 23 87 3 155 -24 83 -96 148 -204 187 -99 36 -158 44 -219 32z"/>
<path d="M12988 11535 c-3 -11 -43 -121 -88 -245 -142 -395 -143 -397 -137 -451 7 -54 41 -120 84 -161 28 -27 140 -84 149 -76 2 3 3 218 2 479 -2 261 -6 465 -10 454z"/>
<path d="M2899 11375 c-24 -25 -26 -25 -61 -10 -46 18 -60 13 -123 -44 -144 -130 -335 -316 -335 -325 0 -5 12 -23 27 -38 27 -29 27 -29 -102 -150 -236 -222 -235 -221 -235 -261 0 -49 28 -77 78 -77 34 0 48 10 157 113 269 254 236 230 272 195 22 -21 36 -28 46 -22 9 5 64 56 124 113 59 58 143 138 186 179 69 67 77 78 77 112 0 27 7 45 25 61 16 16 25 35 25 57 0 20 5 32 14 32 27 0 82 -47 104 -90 32 -62 25 -139 -23 -237 -55 -111 -112 -155 -342 -268 -256 -125 -311 -178 -328 -310 -19 -146 81 -255 236 -255 109 0 176 32 281 137 60 59 77 88 61 104 -6 6 -37 -18 -84 -67 -111 -115 -206 -155 -312 -133 -162 35 -198 234 -63 356 35 32 101 70 213 124 88 42 185 94 215 114 106 72 174 171 198 288 14 70 6 128 -26 184 -30 52 -78 82 -144 90 -36 4 -60 14 -76 30 -30 30 -53 29 -85 -2z m-409 -510 c21 -22 22 -27 9 -38 -8 -7 -56 -53 -107 -102 -92 -89 -92 -89 -120 -62 -27 27 -27 27 78 127 58 54 108 99 111 99 3 1 16 -10 29 -24z m-278 -307 c-47 -49 -69 -57 -90 -36 -21 21 -13 37 41 88 52 49 52 49 74 22 22 -27 22 -27 -25 -74z"/>
<path d="M9399 11375 c-24 -25 -26 -25 -61 -10 -45 18 -60 13 -118 -39 -110 -98 -340 -322 -340 -330 0 -6 12 -23 27 -38 28 -29 28 -29 -102 -151 -236 -221 -235 -220 -235 -260 0 -49 28 -77 76 -77 39 0 49 8 299 244 100 95 100 95 132 64 22 -21 36 -28 46 -22 13 8 322 299 368 348 12 12 19 34 19 56 0 26 7 43 25 60 17 16 25 34 25 57 0 21 5 33 14 33 27 0 82 -47 104 -90 30 -58 24 -138 -17 -225 -56 -121 -120 -171 -372 -292 -181 -87 -243 -133 -278 -207 -61 -130 -24 -261 89 -319 49 -25 63 -28 135 -25 103 4 155 29 251 121 74 70 94 101 76 119 -7 7 -34 -15 -83 -67 -108 -113 -206 -156 -310 -134 -168 36 -200 240 -57 364 24 20 117 73 207 117 247 119 315 172 374 293 54 110 58 211 11 292 -30 52 -78 82 -144 90 -36 4 -60 14 -76 30 -30 30 -53 29 -85 -2z m-409 -510 c21 -22 22 -27 9 -38 -8 -7 -56 -53 -107 -102 -92 -89 -92 -89 -120 -62 -27 27 -27 27 78 127 58 54 108 99 111 99 3 1 16 -10 29 -24z m-278 -307 c-47 -49 -69 -57 -90 -36 -21 21 -13 37 41 88 52 49 52 49 74 22 22 -27 22 -27 -25 -74z"/>
<path d="M6285 11295 c-29 -78 -28 -105 3 -105 15 0 26 17 46 76 29 81 28 104 -3 104 -15 0 -25 -17 -46 -75z"/>
<path d="M12790 11313 c-30 -79 -31 -117 -4 -121 18 -3 25 8 49 73 29 80 28 105 -4 105 -15 0 -25 -14 -41 -57z"/>
<path d="M4578 11050 c-42 -23 -72 -61 -94 -122 -9 -24 -37 -104 -64 -178 -26 -74 -71 -200 -100 -280 -112 -316 -108 -297 -89 -363 17 -62 61 -102 148 -136 87 -34 857 -310 970 -348 53 -18 88 -24 122 -21 57 6 122 45 143 86 34 65 286 791 286 823 -1 44 -30 107 -66 141 -22 20 -167 76 -575 222 -589 211 -605 216 -681 176z m106 -217 c-14 -38 -85 -234 -157 -438 -89 -248 -137 -370 -147 -370 -20 0 -52 60 -52 98 0 45 239 706 266 736 25 27 51 39 88 40 27 1 27 1 2 -66z m170 15 c69 -25 86 -34 81 -47 -4 -9 -39 -105 -78 -214 -56 -158 -75 -201 -92 -207 -18 -7 -38 -52 -99 -223 -78 -215 -78 -215 -152 -190 -41 14 -74 30 -74 36 0 8 236 679 301 855 5 12 13 22 18 22 5 0 48 -14 95 -32z m223 -79 c48 -17 89 -32 91 -34 1 -1 -32 -100 -74 -218 -63 -176 -81 -217 -97 -219 -16 -2 -34 -43 -96 -215 -42 -116 -79 -214 -82 -218 -10 -10 -121 36 -116 48 131 363 149 421 138 439 -10 17 0 53 65 234 42 118 78 214 80 214 1 0 42 -14 91 -31z m246 -87 c67 -23 78 -30 74 -47 -7 -28 -306 -858 -312 -863 -6 -6 -67 11 -119 33 -35 15 -35 15 10 142 109 304 109 303 96 323 -16 26 135 453 158 444 8 -3 50 -17 93 -32z m222 -81 c44 -16 81 -33 82 -38 2 -5 -30 -103 -72 -218 -41 -116 -75 -211 -75 -212 0 -2 -9 -3 -19 -3 -10 0 -22 -8 -26 -17 -4 -10 -38 -105 -76 -211 -38 -107 -71 -197 -74 -201 -3 -6 -136 32 -153 45 -7 5 314 884 323 884 6 0 47 -13 90 -29z m196 -134 c1 -12 1 -31 1 -42 -1 -29 -236 -679 -256 -710 -15 -23 -75 -59 -84 -50 -1 1 32 98 74 216 65 182 74 214 61 224 -12 9 -4 39 57 210 39 110 75 209 80 220 7 19 9 18 37 -13 16 -18 30 -42 30 -55z"/>
<path d="M11078 11050 c-20 -11 -46 -32 -57 -48 -19 -28 -28 -49 -75 -182 -13 -36 -58 -162 -101 -280 -118 -327 -127 -359 -120 -407 7 -46 37 -97 75 -125 23 -17 141 -62 425 -163 223 -79 439 -157 565 -202 147 -53 201 -55 270 -9 49 32 54 43 156 331 116 323 134 375 160 443 29 74 30 123 5 177 -37 79 -40 81 -622 289 -589 211 -605 216 -681 176z m106 -217 c-14 -38 -85 -234 -157 -438 -89 -249 -137 -370 -147 -370 -20 0 -52 60 -52 98 0 45 239 706 265 736 26 27 52 39 89 40 27 1 27 1 2 -66z m170 16 c48 -18 85 -35 84 -39 -2 -3 -36 -100 -77 -214 -60 -166 -79 -210 -96 -216 -17 -7 -37 -52 -99 -223 -78 -215 -78 -215 -152 -190 -41 14 -74 30 -74 36 0 8 236 679 301 855 5 12 13 22 18 22 5 0 48 -14 95 -31z m223 -80 c48 -17 89 -32 91 -34 1 -1 -32 -100 -74 -218 -63 -176 -81 -217 -97 -219 -16 -2 -34 -43 -96 -215 -42 -117 -79 -215 -83 -218 -10 -10 -120 36 -115 48 131 363 149 421 138 439 -10 17 0 53 65 234 42 118 78 214 80 214 1 0 42 -14 91 -31z m240 -85 c43 -15 80 -29 82 -31 4 -2 -85 -257 -184 -528 -18 -49 -54 -150 -80 -222 -35 -98 -52 -133 -64 -132 -34 1 -136 47 -133 60 1 8 34 102 72 210 73 205 76 219 60 235 -14 14 140 446 157 439 7 -2 47 -16 90 -31z m225 -81 c40 -14 77 -30 82 -34 5 -4 -12 -66 -38 -141 -97 -273 -108 -298 -126 -298 -10 0 -21 -8 -25 -17 -4 -10 -38 -105 -76 -211 -38 -107 -71 -197 -74 -201 -3 -6 -136 32 -153 45 -8 5 314 884 325 884 6 0 45 -12 85 -27z m198 -134 c9 -34 1 -64 -114 -383 -68 -190 -131 -358 -141 -372 -14 -22 -74 -58 -83 -49 -1 1 32 98 74 216 65 182 74 214 61 224 -12 9 -4 39 57 210 39 110 75 209 79 219 7 18 9 18 32 -4 14 -13 30 -40 35 -61z"/>
<path d="M4293 10702 c-14 -9 -103 -255 -103 -284 0 -13 6 -18 16 -16 11 2 33 48 65 138 27 74 49 140 49 147 0 16 -13 23 -27 15z"/>
<path d="M10786 10694 c-9 -8 -16 -20 -16 -26 0 -6 -18 -59 -40 -119 -44 -119 -49 -152 -24 -147 10 2 33 49 65 138 27 74 49 140 49 147 0 20 -18 24 -34 7z"/>
<path d="M384 10576 c-42 -42 -76 -67 -111 -79 -67 -24 -147 -31 -203 -18 -36 8 -48 7 -60 -4 -12 -13 -12 -17 3 -32 15 -15 36 -18 130 -18 101 0 118 3 169 27 55 26 150 104 169 139 12 23 1 49 -20 47 -9 -1 -43 -29 -77 -62z"/>
<path d="M6885 10576 c-43 -43 -75 -66 -112 -79 -67 -24 -147 -31 -203 -18 -36 8 -48 7 -60 -4 -12 -13 -12 -17 3 -32 15 -15 36 -18 130 -18 101 0 118 3 169 27 55 26 150 104 169 139 12 23 1 49 -20 48 -9 -1 -43 -29 -76 -63z"/>
<path d="M1980 10602 c-31 -31 -49 -97 -32 -114 15 -15 32 0 32 28 0 15 13 38 31 56 28 29 33 58 9 58 -7 0 -24 -13 -40 -28z"/>
<path d="M8494 10615 c-30 -21 -57 -82 -50 -112 9 -33 28 -24 38 18 5 19 20 44 34 57 15 13 23 29 20 37 -7 19 -16 19 -42 0z"/>
<path d="M2430 10239 c0 -34 7 -47 43 -84 23 -24 51 -45 62 -47 32 -5 28 26 -5 45 -35 21 -62 59 -66 90 -1 12 -3 25 -3 30 -1 4 -8 7 -16 7 -11 0 -15 -11 -15 -41z"/>
<path d="M8930 10239 c0 -37 6 -48 49 -90 26 -27 56 -49 65 -49 27 0 18 34 -14 54 -35 20 -62 58 -66 89 -1 12 -3 25 -3 30 -1 4 -8 7 -16 7 -11 0 -15 -11 -15 -41z"/>
<path d="M1495 9869 c-219 -28 -417 -188 -485 -393 -77 -234 -24 -462 145 -631 362 -363 984 -125 1021 390 27 371 -308 683 -681 634z m150 -552 c23 -33 18 -66 -14 -98 -46 -45 -101 -35 -126 24 -37 89 84 153 140 74z"/>
<path d="M7995 9869 c-244 -31 -448 -216 -505 -459 -18 -75 -16 -212 4 -289 42 -161 163 -313 307 -384 234 -115 498 -78 685 97 267 248 254 663 -29 903 -119 101 -302 153 -462 132z m150 -552 c23 -33 18 -66 -14 -98 -46 -45 -101 -35 -126 24 -37 89 84 153 140 74z"/>
<path d="M4850 9717 c0 -18 74 -51 94 -44 25 10 8 33 -33 46 -50 14 -61 14 -61 -2z"/>
<path d="M11352 9713 c3 -17 74 -47 95 -39 22 9 3 33 -36 45 -52 15 -63 14 -59 -6z"/>
<path d="M971 9615 c-18 -25 -45 -73 -59 -107 -30 -75 -52 -222 -35 -239 18 -18 33 -1 33 35 0 93 44 223 95 283 19 23 35 48 35 57 0 30 -35 15 -69 -29z"/>
<path d="M7483 9632 c-64 -83 -102 -186 -105 -292 -3 -64 -1 -75 15 -78 14 -3 17 4 17 36 0 99 42 227 95 289 19 23 35 48 35 57 0 25 -33 18 -57 -12z"/>
<path d="M5102 9624 c4 -23 296 -130 312 -114 17 17 -5 29 -149 81 -149 53 -168 57 -163 33z"/>
<path d="M11602 9624 c4 -23 296 -130 312 -114 17 17 -5 29 -149 81 -149 53 -168 57 -163 33z"/>
<path d="M830 9558 c-36 -76 -40 -138 -10 -138 16 0 20 7 20 34 0 18 13 59 29 91 17 33 28 62 25 67 -14 22 -38 2 -64 -54z"/>
<path d="M7335 9569 c-15 -28 -29 -73 -32 -100 -5 -44 -4 -49 14 -49 17 0 21 9 26 49 3 27 18 68 32 91 14 22 23 45 20 50 -14 22 -36 7 -60 -41z"/>
<path d="M3378 9565 c-89 -50 -71 -204 36 -309 58 -56 126 -88 199 -94 49 -4 57 -7 52 -21 -4 -9 -28 -77 -55 -151 -26 -74 -76 -213 -110 -308 -34 -95 -60 -179 -57 -186 3 -7 38 -35 79 -63 40 -27 172 -119 293 -203 121 -84 227 -155 236 -157 11 -3 20 5 26 24 129 368 235 656 250 678 34 51 3 162 -67 238 -156 170 -378 148 -357 -36 16 -131 168 -267 300 -267 26 0 47 -2 47 -5 0 -4 -106 -305 -121 -343 -5 -13 -13 -21 -18 -18 -13 8 -545 378 -550 382 -2 1 8 33 22 71 14 37 40 109 58 158 58 163 80 219 101 267 16 35 19 57 14 88 -14 89 -87 185 -177 234 -63 35 -159 45 -201 21z"/>
<path d="M9876 9561 c-40 -27 -55 -57 -56 -111 0 -93 84 -211 187 -261 27 -13 74 -25 106 -27 49 -4 57 -7 52 -21 -4 -9 -28 -77 -55 -151 -26 -74 -76 -213 -110 -307 -34 -95 -60 -179 -57 -186 3 -7 38 -36 79 -64 40 -27 172 -119 293 -203 195 -135 255 -173 255 -158 0 2 50 143 111 314 61 170 116 323 121 339 6 17 17 39 25 50 34 50 3 161 -67 238 -157 171 -382 146 -356 -39 17 -130 169 -264 299 -264 26 0 47 -2 47 -3 0 -5 -63 -185 -99 -282 -16 -44 -33 -79 -38 -78 -7 1 -535 364 -551 378 -1 1 16 53 39 116 22 63 51 143 64 179 49 141 63 178 80 210 45 88 -37 245 -166 314 -69 38 -161 46 -203 17z"/>
<path d="M3239 9438 c-15 -27 -6 -115 15 -157 23 -43 75 -101 92 -101 21 0 17 19 -15 59 -53 67 -64 99 -57 163 5 47 3 58 -9 58 -8 0 -20 -10 -26 -22z"/>
<path d="M9740 9441 c-27 -52 0 -157 60 -225 55 -62 83 -43 31 23 -53 67 -64 99 -57 163 5 47 3 58 -9 58 -8 0 -19 -9 -25 -19z"/>
<path d="M3135 9420 c-8 -16 -15 -43 -15 -61 0 -43 48 -129 72 -129 24 0 23 14 -7 58 -28 41 -32 89 -10 118 20 27 18 44 -5 44 -11 0 -26 -12 -35 -30z"/>
<path d="M9635 9420 c-20 -39 -19 -83 4 -129 25 -48 48 -68 62 -54 8 8 3 22 -15 49 -29 43 -33 90 -11 120 20 27 18 44 -5 44 -11 0 -26 -12 -35 -30z"/>
<path d="M2216 9218 c-3 -7 -6 -45 -9 -85 -5 -79 -43 -175 -98 -244 -30 -38 -31 -59 -5 -59 31 0 118 151 136 237 14 63 9 155 -7 161 -7 2 -15 -2 -17 -10z"/>
<path d="M8716 9218 c-3 -7 -6 -45 -9 -85 -5 -79 -43 -175 -98 -244 -30 -38 -31 -59 -4 -59 19 0 89 104 116 172 25 62 33 218 12 225 -7 3 -15 -1 -17 -9z"/>
<path d="M2307 9103 c-2 -4 -8 -26 -12 -48 -3 -22 -18 -61 -33 -88 -19 -36 -23 -50 -14 -59 28 -28 81 66 85 151 2 40 -13 66 -26 44z"/>
<path d="M8807 9103 c-2 -5 -8 -26 -11 -48 -4 -22 -18 -60 -32 -84 -13 -24 -24 -50 -24 -58 0 -24 33 -10 56 24 22 33 49 146 39 163 -7 12 -22 13 -28 3z"/>
<path d="M5854 8931 c-258 -70 -450 -227 -556 -456 -61 -130 -73 -190 -73 -355 0 -169 13 -228 79 -365 100 -210 278 -361 511 -435 106 -34 310 -39 427 -11 481 115 754 606 598 1074 -45 134 -99 218 -209 327 -78 78 -113 105 -186 142 -146 74 -207 90 -375 94 -120 3 -157 1 -216 -15z m256 -718 c34 -20 50 -52 50 -99 0 -28 -8 -44 -34 -70 -46 -46 -101 -48 -148 -5 -29 26 -33 35 -33 81 0 46 4 55 33 81 38 34 88 39 132 12z"/>
<path d="M12355 8931 c-250 -66 -435 -213 -547 -435 -206 -410 -40 -916 367 -1119 124 -61 195 -79 345 -84 163 -6 265 14 397 78 83 40 83 40 83 748 0 708 0 708 -87 749 -138 64 -181 74 -343 78 -118 3 -158 0 -215 -15z m255 -718 c34 -20 50 -52 50 -99 0 -28 -8 -44 -34 -70 -46 -46 -101 -48 -148 -5 -29 26 -33 35 -33 81 0 46 4 55 33 81 38 34 88 39 132 12z"/>
<path d="M0 8120 c0 -621 4 -733 22 -692 1 4 22 20 46 36 24 16 66 54 93 84 210 230 277 542 179 835 -44 131 -99 218 -204 323 -153 153 -136 226 -136 -586z"/>
<path d="M5233 8616 c-89 -101 -142 -241 -150 -397 -5 -94 -4 -107 12 -112 9 -4 20 -5 24 -2 5 2 11 44 14 93 11 144 61 281 139 375 67 80 30 122 -39 43z"/>
<path d="M11734 8617 c-90 -102 -143 -243 -151 -398 -5 -94 -4 -107 12 -112 9 -4 20 -5 24 -2 5 2 11 44 14 93 11 145 61 281 139 374 67 80 30 123 -38 45z"/>
<path d="M5061 8591 c-45 -45 -103 -216 -87 -258 4 -8 15 -13 28 -11 19 2 24 11 30 51 8 57 31 119 59 158 36 51 11 101 -30 60z"/>
<path d="M11569 8596 c-40 -31 -87 -145 -91 -222 -3 -46 -2 -49 22 -49 22 0 26 5 32 49 8 57 44 150 64 167 18 14 18 55 1 62 -7 3 -20 0 -28 -7z"/>
<path d="M437 8053 c-4 -3 -7 -36 -7 -72 -1 -94 -22 -181 -66 -269 -20 -42 -41 -81 -45 -87 -5 -5 -22 -26 -39 -46 -37 -45 -39 -69 -6 -69 45 0 139 140 180 270 29 92 43 227 27 258 -12 22 -31 28 -44 15z"/>
<path d="M6937 8053 c-4 -3 -7 -35 -7 -70 0 -134 -44 -258 -134 -381 -52 -71 -57 -92 -22 -92 46 0 144 150 184 281 26 85 38 218 23 247 -12 22 -31 28 -44 15z"/>
<path d="M556 7878 c-2 -7 -9 -38 -15 -68 -6 -30 -25 -83 -42 -117 -32 -62 -33 -93 -4 -93 16 0 58 60 81 117 20 48 33 150 20 163 -14 14 -36 13 -40 -2z"/>
<path d="M7056 7878 c-2 -7 -9 -38 -15 -68 -6 -30 -25 -83 -42 -117 -32 -62 -33 -93 -4 -93 47 0 131 230 101 278 -9 16 -36 16 -40 0z"/>
<path d="M1092 7744 c-23 -9 -64 -37 -90 -62 -51 -51 -37 -16 -242 -592 -21 -58 -72 -202 -115 -320 -86 -241 -95 -298 -58 -381 39 -87 89 -121 279 -189 228 -82 345 -123 544 -195 118 -42 238 -85 265 -95 28 -9 154 -54 280 -100 259 -93 324 -105 402 -75 61 24 121 79 145 135 11 25 39 99 63 165 23 66 104 291 180 500 122 337 137 387 138 445 1 114 -62 203 -174 248 -30 12 -369 135 -754 273 -752 269 -774 276 -863 243z m138 -234 c0 -6 -97 -281 -215 -611 -118 -331 -215 -604 -215 -607 0 -3 -14 7 -31 24 -38 35 -59 81 -59 130 0 47 324 958 357 1002 13 17 41 41 61 52 39 20 102 27 102 10z m297 -94 c31 -11 31 -11 -49 -236 -132 -373 -133 -375 -162 -378 -28 -4 -17 22 -146 -337 -45 -126 -86 -240 -91 -252 -8 -22 -8 -22 -113 15 -58 20 -106 40 -106 44 0 7 429 1209 436 1220 3 5 43 -8 231 -76z m224 -80 c82 -29 123 -49 122 -58 -2 -7 -50 -143 -107 -303 -91 -254 -106 -290 -125 -290 -11 0 -25 -5 -30 -10 -4 -6 -50 -127 -100 -270 -101 -285 -113 -318 -117 -324 -7 -9 -164 52 -164 64 0 11 114 335 190 543 20 52 20 52 0 72 -19 19 -18 22 88 319 59 166 110 301 113 301 4 0 62 -20 130 -44z m432 -153 c10 -3 16 -11 14 -17 -3 -7 -87 -241 -187 -521 -232 -651 -242 -678 -251 -689 -4 -5 -54 8 -112 28 -104 38 -104 38 -1 324 57 158 104 298 104 311 0 13 -6 29 -14 35 -12 9 2 56 90 301 57 160 106 295 108 302 4 9 38 0 118 -29 62 -22 121 -43 131 -45z m206 -74 c64 -23 119 -44 123 -48 3 -3 -42 -141 -101 -306 -99 -274 -110 -300 -131 -300 -12 0 -27 -7 -31 -15 -5 -8 -55 -143 -110 -300 -56 -157 -103 -287 -105 -289 -4 -4 -214 69 -214 74 0 6 432 1210 437 1218 6 10 6 11 132 -34z m244 -121 c21 -27 31 -51 35 -87 4 -44 -10 -90 -138 -448 -195 -547 -198 -554 -233 -590 -27 -28 -93 -62 -101 -51 -2 1 41 127 95 278 55 151 102 283 104 292 3 9 -3 25 -13 35 -19 18 -18 23 87 316 75 210 110 296 120 295 8 -2 27 -20 44 -40z"/>
<path d="M7590 7742 c-25 -9 -65 -37 -90 -62 -41 -40 -52 -62 -99 -195 -30 -82 -71 -199 -93 -260 -238 -664 -240 -669 -240 -731 -1 -108 56 -195 158 -240 49 -21 88 -36 349 -129 66 -23 343 -123 615 -220 555 -200 581 -206 678 -165 96 41 117 76 216 350 48 135 98 274 111 310 13 36 33 90 43 120 11 30 48 132 82 225 52 142 63 181 63 235 1 114 -62 203 -174 248 -30 12 -369 135 -754 273 -757 271 -775 276 -865 241z m140 -233 c0 -5 -97 -282 -217 -615 -216 -605 -216 -605 -246 -577 -36 35 -57 81 -57 129 0 50 333 981 363 1013 41 44 157 82 157 50z m297 -93 c31 -11 31 -11 -76 -311 -102 -284 -109 -300 -134 -303 -30 -4 -21 16 -149 -342 -44 -124 -84 -235 -89 -247 -8 -22 -8 -22 -113 15 -58 20 -106 40 -106 44 0 7 429 1209 436 1220 2 3 48 -10 102 -29 53 -19 111 -40 129 -47z m228 -80 c80 -29 119 -48 118 -57 -2 -8 -50 -144 -107 -304 -92 -257 -106 -290 -125 -291 -12 -1 -26 -5 -30 -10 -5 -5 -55 -139 -111 -299 -57 -159 -104 -292 -106 -294 -7 -8 -164 52 -164 63 0 7 45 138 100 292 55 153 100 289 100 301 0 12 -7 26 -15 30 -13 8 2 56 92 311 60 166 113 302 118 301 6 0 64 -20 130 -43z m428 -153 c12 -4 16 -11 12 -22 -4 -9 -54 -149 -112 -311 -58 -162 -143 -401 -190 -530 -46 -129 -94 -262 -105 -295 -12 -33 -25 -64 -29 -69 -9 -10 -199 54 -206 70 -2 6 41 138 96 292 56 155 101 291 101 303 0 12 -6 27 -14 33 -12 9 2 58 90 301 57 160 106 295 108 302 4 9 38 0 118 -29 62 -22 121 -43 131 -45z m212 -77 c96 -35 119 -47 117 -61 -4 -19 -73 -217 -157 -445 -47 -128 -56 -145 -75 -145 -13 0 -27 -7 -31 -15 -5 -8 -55 -143 -110 -300 -56 -157 -103 -287 -105 -289 -4 -4 -214 69 -214 74 0 6 432 1210 437 1217 6 12 8 11 138 -36z m227 -103 c59 -62 62 -120 12 -258 -20 -55 -51 -143 -69 -195 -165 -469 -237 -656 -267 -687 -27 -28 -94 -62 -102 -51 -2 1 41 127 95 278 55 151 102 283 104 292 3 9 -3 25 -13 35 -19 18 -18 23 87 315 58 164 111 298 117 298 5 0 22 -12 36 -27z"/>
<path d="M4383 7476 c-37 -33 -37 -33 -70 -13 -45 26 -93 18 -141 -24 -38 -33 -286 -265 -424 -398 -43 -41 -78 -81 -78 -90 0 -8 17 -32 38 -54 37 -38 37 -38 -13 -85 -146 -136 -384 -362 -417 -396 -32 -33 -38 -45 -38 -83 0 -55 12 -78 50 -98 65 -34 119 -12 210 83 24 25 219 208 348 327 53 48 53 48 96 6 30 -29 49 -41 58 -35 7 4 51 44 98 88 46 45 127 122 179 171 278 262 266 248 266 308 0 48 3 56 35 84 31 28 35 37 33 76 -1 45 -1 45 27 37 131 -38 189 -174 145 -340 -37 -139 -126 -256 -264 -345 -41 -27 -155 -86 -253 -131 -99 -46 -192 -93 -208 -104 -15 -11 -32 -20 -38 -20 -5 0 -39 -27 -75 -61 -47 -42 -76 -80 -99 -126 -29 -60 -32 -75 -32 -157 0 -71 4 -101 20 -137 31 -66 75 -111 141 -144 77 -38 211 -47 300 -19 82 26 189 101 272 192 74 80 94 118 70 133 -22 14 -24 12 -80 -57 -92 -113 -197 -189 -303 -219 -150 -43 -317 29 -354 154 -17 54 -14 147 6 203 39 111 131 182 386 301 238 110 317 159 406 247 192 192 234 477 90 617 -46 45 -95 66 -165 71 -51 4 -66 10 -98 38 -47 43 -77 43 -124 0z m-533 -737 c0 -3 -65 -68 -146 -144 -145 -138 -145 -138 -180 -104 -18 18 -34 36 -34 39 0 4 66 68 147 144 146 137 146 137 180 104 18 -17 33 -35 33 -39z m-372 -292 c32 -33 32 -33 -37 -100 -70 -67 -103 -81 -129 -55 -29 29 -14 65 54 127 37 34 70 61 73 61 4 0 22 -15 39 -33z"/>
<path d="M10883 7477 c-36 -34 -36 -34 -72 -14 -72 40 -82 33 -376 -244 -146 -138 -265 -258 -265 -267 0 -9 17 -33 38 -55 37 -38 37 -38 -28 -99 -463 -433 -440 -408 -440 -466 0 -69 42 -112 112 -112 48 0 20 -24 506 434 43 41 43 41 82 -2 22 -23 44 -42 50 -42 7 0 51 38 98 83 48 46 130 124 182 173 52 49 136 128 185 176 90 87 90 87 90 140 0 49 3 57 35 85 31 28 35 37 33 76 -1 45 -1 45 27 37 167 -48 208 -242 98 -460 -68 -134 -187 -225 -458 -351 -92 -42 -193 -92 -226 -110 -79 -44 -178 -144 -208 -210 -68 -147 -28 -331 89 -410 104 -70 275 -80 395 -21 85 41 164 104 239 192 63 72 74 103 44 115 -13 5 -28 -6 -57 -42 -182 -222 -369 -298 -545 -222 -94 40 -141 119 -141 235 2 157 95 262 334 374 330 155 411 203 500 301 99 110 165 288 152 409 -12 105 -73 197 -155 236 -20 10 -63 20 -96 22 -51 4 -66 10 -98 38 -47 43 -77 43 -124 1z m-533 -738 c0 -3 -65 -68 -146 -144 -145 -138 -145 -138 -180 -104 -18 18 -34 36 -34 39 0 4 66 68 147 144 146 137 146 137 180 104 18 -17 33 -35 33 -39z m-372 -292 c32 -33 32 -33 -37 -100 -70 -67 -103 -81 -129 -55 -29 29 -14 65 54 127 37 34 70 61 73 61 4 0 22 -15 39 -33z"/>
<path d="M654 7238 c-21 -33 -134 -357 -134 -384 0 -21 4 -25 23 -22 19 3 31 27 86 178 67 187 77 232 49 238 -9 2 -20 -3 -24 -10z"/>
<path d="M7132 7193 c-11 -32 -41 -116 -66 -187 -53 -150 -57 -179 -23 -174 19 3 31 27 86 178 71 196 78 233 45 238 -18 3 -25 -6 -42 -55z"/>
<path d="M4765 6430 c-26 -51 -19 -127 19 -205 56 -116 132 -187 149 -140 4 8 -9 32 -29 56 -83 100 -113 183 -90 250 11 31 12 47 4 56 -17 21 -36 15 -53 -17z"/>
<path d="M11265 6430 c-26 -51 -19 -127 19 -205 56 -116 132 -187 149 -140 4 8 -9 32 -29 56 -83 100 -113 183 -90 250 11 31 12 47 4 56 -17 21 -36 15 -53 -17z"/>
<path d="M4649 6437 c-46 -35 -62 -126 -34 -194 23 -54 63 -103 85 -103 32 0 33 19 5 60 -15 21 -33 57 -41 80 -15 42 -7 73 28 122 9 13 9 20 -1 32 -16 19 -21 19 -42 3z"/>
<path d="M11127 6408 c-44 -68 -34 -153 29 -235 25 -33 57 -43 69 -22 4 5 -5 28 -20 49 -15 21 -33 57 -41 80 -15 42 -7 73 28 122 9 13 9 20 -1 32 -21 25 -34 19 -64 -26z"/>
<path d="M3112 6405 c-36 -41 -45 -66 -40 -121 2 -27 8 -40 21 -42 19 -4 22 3 32 62 4 24 19 51 41 74 39 40 39 56 2 60 -18 2 -33 -6 -56 -33z"/>
<path d="M9626 6419 c-14 -11 -33 -34 -41 -49 -18 -36 -20 -116 -2 -122 22 -9 37 3 37 28 0 39 25 89 55 111 19 13 26 26 22 37 -9 22 -39 20 -71 -5z"/>
<path d="M3737 5954 c-14 -15 -6 -61 19 -112 29 -59 102 -122 140 -122 40 0 30 35 -19 69 -54 37 -79 74 -87 126 -4 30 -10 41 -25 43 -12 2 -24 0 -28 -4z"/>
<path d="M10237 5954 c-14 -15 -6 -61 19 -112 29 -59 102 -122 140 -122 40 0 30 35 -19 69 -54 37 -79 74 -87 126 -4 30 -10 41 -25 43 -12 2 -24 0 -28 -4z"/>
<path d="M1430 5881 c0 -25 48 -50 113 -59 33 -4 37 -2 37 17 0 23 -49 49 -112 58 -34 5 -38 3 -38 -16z"/>
<path d="M7930 5881 c0 -25 48 -50 113 -59 33 -4 37 -2 37 17 0 23 -49 49 -112 58 -34 5 -38 3 -38 -16z"/>
<path d="M1777 5773 c-15 -15 -5 -34 26 -48 17 -8 79 -31 137 -51 58 -20 133 -47 167 -60 81 -31 116 -32 111 -2 -3 20 -30 32 -203 95 -199 72 -226 79 -238 66z"/>
<path d="M8273 5764 c-3 -8 -1 -20 4 -25 15 -15 392 -149 420 -149 20 0 24 4 21 22 -3 20 -30 32 -203 95 -110 39 -208 72 -218 72 -10 1 -20 -6 -24 -15z"/>
<path d="M358 5680 c-22 -13 -34 -75 -20 -104 6 -15 32 -32 66 -47 31 -12 56 -27 55 -33 -2 -26 -37 -111 -45 -111 -5 1 -36 7 -69 14 -83 19 -186 9 -255 -22 -78 -37 -90 -48 -90 -91 0 -37 0 -37 46 -2 105 80 219 90 378 32 120 -44 154 -64 205 -123 51 -58 83 -140 85 -220 1 -56 -2 -63 -26 -83 -33 -26 -36 -62 -8 -90 25 -25 51 -25 79 -2 20 16 20 22 12 145 -8 118 -11 133 -45 202 -43 87 -108 151 -191 186 -62 27 -64 34 -30 115 13 31 18 35 37 29 13 -4 48 -9 80 -12 52 -5 57 -3 73 21 26 39 22 76 -9 101 -31 25 -224 96 -276 102 -19 2 -43 -1 -52 -7z m171 -86 c116 -42 134 -53 122 -73 -8 -13 -22 -11 -93 14 -128 44 -168 63 -168 80 0 23 29 19 139 -21z"/>
<path d="M6858 5679 c-22 -12 -34 -74 -20 -103 6 -14 32 -32 66 -46 31 -12 56 -27 55 -34 -2 -25 -36 -111 -45 -111 -5 1 -36 7 -69 14 -140 31 -290 -12 -377 -108 -67 -76 -86 -95 -108 -113 -43 -37 -15 -98 44 -98 42 0 60 21 53 62 -6 43 21 88 84 138 107 84 221 95 383 36 120 -44 154 -64 205 -123 52 -58 83 -140 85 -220 1 -56 -2 -63 -26 -83 -33 -26 -36 -62 -8 -90 44 -44 107 -9 97 52 -3 18 -7 74 -9 124 -3 81 -7 98 -41 166 -44 90 -108 153 -191 189 -31 13 -56 29 -56 34 0 6 9 33 19 60 14 37 24 49 38 48 10 -1 39 -5 65 -9 69 -10 93 -1 105 40 21 67 -7 90 -185 151 -107 37 -136 41 -164 24z m171 -85 c116 -42 134 -53 122 -73 -8 -13 -22 -11 -93 14 -128 44 -168 63 -168 80 0 23 29 19 139 -21z"/>
<path d="M12960 5283 c-47 -55 -75 -85 -100 -105 -41 -36 -16 -98 41 -98 43 0 63 23 56 64 -4 25 1 43 19 70 18 26 24 47 22 73 -3 36 -3 36 -38 -4z"/>
<path d="M209 5280 c-92 -16 -155 -68 -188 -155 -20 -54 -21 -75 -21 -540 0 -565 -15 -510 135 -510 94 0 132 12 183 59 36 32 52 68 167 391 59 165 115 321 126 346 47 117 30 209 -54 293 -42 43 -68 58 -137 83 -100 36 -148 43 -211 33z"/>
<path d="M6701 5279 c-60 -12 -125 -52 -151 -93 -11 -19 -38 -83 -59 -143 -22 -59 -83 -229 -136 -378 -87 -243 -96 -275 -92 -321 12 -123 87 -196 259 -254 121 -40 248 -15 313 61 30 37 31 38 90 204 23 66 79 222 124 347 45 125 85 243 88 261 10 63 -22 144 -80 201 -42 43 -68 58 -137 83 -99 36 -158 44 -219 32z"/>
<path d="M12923 4854 c-177 -492 -166 -455 -160 -512 6 -58 38 -121 84 -164 28 -27 140 -84 149 -76 2 3 3 218 2 478 -3 473 -3 473 -75 274z"/>
<path d="M2899 4875 c-24 -25 -26 -25 -61 -10 -22 8 -45 12 -57 7 -18 -6 -118 -97 -328 -296 -40 -38 -73 -74 -73 -80 0 -5 12 -23 27 -38 27 -29 27 -29 -102 -150 -228 -214 -235 -222 -235 -262 0 -48 29 -76 76 -76 39 0 49 8 299 244 100 95 100 95 131 64 27 -25 35 -28 52 -19 11 6 22 14 24 18 2 5 41 44 88 88 249 232 270 256 270 295 0 26 7 43 25 60 17 16 25 34 25 57 0 31 2 34 23 28 40 -12 71 -40 95 -86 31 -58 24 -137 -19 -229 -54 -116 -119 -167 -372 -289 -226 -108 -285 -166 -302 -297 -20 -145 81 -254 236 -254 109 0 176 32 281 137 61 59 77 88 60 105 -7 7 -31 -11 -73 -57 -80 -85 -133 -121 -206 -140 -189 -49 -321 112 -234 284 33 63 96 108 270 193 90 43 189 96 220 117 170 116 246 329 165 468 -30 52 -78 82 -144 90 -36 4 -60 14 -76 30 -30 30 -53 29 -85 -2z m-409 -510 c21 -22 22 -27 9 -38 -8 -7 -56 -53 -107 -102 -92 -89 -92 -89 -120 -62 -27 27 -27 27 78 127 58 54 108 99 111 99 3 1 16 -10 29 -24z m-278 -307 c-47 -49 -69 -57 -90 -36 -21 21 -13 37 41 88 52 49 52 49 74 22 22 -27 22 -27 -25 -74z"/>
<path d="M9399 4875 c-24 -25 -26 -25 -61 -10 -45 18 -60 13 -118 -39 -120 -107 -340 -321 -340 -330 0 -5 12 -23 27 -39 28 -28 28 -28 -27 -80 -273 -256 -310 -295 -310 -331 0 -48 29 -76 78 -76 34 0 50 12 217 169 180 170 180 170 212 139 22 -21 36 -28 46 -22 14 8 106 95 310 292 68 66 77 79 77 111 0 25 8 45 25 63 16 17 25 39 25 58 0 28 3 31 23 25 40 -12 71 -40 95 -86 20 -37 23 -54 18 -104 -7 -70 -49 -165 -96 -219 -50 -57 -128 -105 -311 -193 -228 -110 -288 -168 -304 -298 -19 -146 81 -255 236 -255 109 0 176 32 281 137 62 61 77 88 58 107 -8 8 -15 6 -26 -9 -71 -97 -196 -186 -278 -198 -100 -15 -204 43 -227 126 -18 68 4 157 53 218 25 30 112 82 231 139 233 110 325 180 380 294 54 111 58 212 11 293 -30 52 -78 82 -144 90 -36 4 -60 14 -76 30 -30 30 -53 29 -85 -2z m-409 -510 c21 -22 22 -27 9 -38 -8 -7 -56 -53 -107 -102 -92 -89 -92 -89 -120 -62 -27 27 -27 27 78 127 58 54 108 99 111 99 3 1 16 -10 29 -24z m-278 -307 c-47 -49 -69 -57 -90 -36 -21 21 -13 37 41 88 52 49 52 49 74 22 22 -27 22 -27 -25 -74z"/>
<path d="M6285 4795 c-29 -78 -28 -105 3 -105 15 0 26 18 47 75 29 79 28 105 -4 105 -15 0 -25 -17 -46 -75z"/>
<path d="M12790 4813 c-30 -80 -31 -117 -4 -121 19 -3 25 7 49 77 27 84 27 101 -5 101 -13 0 -25 -16 -40 -57z"/>
<path d="M4585 4553 c-37 -19 -74 -59 -90 -98 -38 -90 -275 -769 -275 -788 0 -43 21 -98 51 -132 36 -41 36 -41 669 -267 431 -154 480 -170 527 -166 60 5 125 43 147 85 7 16 51 132 96 258 45 127 105 292 132 369 60 166 66 202 44 259 -34 89 -32 88 -627 301 -579 208 -606 215 -674 179z m99 -220 c-14 -38 -84 -234 -157 -437 -73 -203 -137 -371 -144 -373 -19 -7 -53 57 -53 99 0 49 235 705 264 737 25 27 51 39 88 40 27 1 27 1 2 -66z m171 16 c70 -25 85 -34 80 -48 -10 -23 -92 -253 -122 -339 -18 -53 -31 -76 -48 -82 -18 -7 -36 -49 -99 -223 -78 -215 -78 -215 -152 -190 -41 14 -74 30 -74 36 0 8 236 679 301 855 5 12 13 22 18 22 6 0 49 -14 96 -31z m222 -80 c48 -17 89 -32 91 -34 1 -1 -32 -100 -74 -218 -63 -175 -81 -217 -97 -219 -16 -2 -34 -43 -96 -215 -42 -116 -79 -214 -82 -218 -10 -10 -121 36 -116 48 131 363 149 421 138 439 -10 17 0 53 65 234 42 118 78 214 80 214 1 0 42 -14 91 -31z m245 -87 c43 -15 78 -30 78 -34 0 -10 -310 -871 -316 -877 -4 -5 -50 9 -131 40 -22 8 -22 8 23 136 109 304 109 303 96 323 -16 26 135 453 158 444 8 -3 50 -17 92 -32z m220 -79 c40 -14 77 -29 82 -34 9 -8 -5 -50 -93 -294 -28 -76 -51 -140 -51 -142 0 -2 -9 -3 -19 -3 -10 0 -22 -8 -26 -17 -4 -10 -38 -105 -76 -211 -38 -107 -71 -197 -74 -201 -3 -6 -136 32 -153 45 -8 5 314 884 325 884 6 0 45 -12 85 -27z m197 -131 c12 -40 12 -40 -128 -430 -114 -319 -120 -332 -156 -356 -58 -38 -56 -19 22 198 64 179 73 211 60 221 -12 9 -4 39 57 210 39 110 75 209 79 219 7 18 9 18 32 -4 14 -13 29 -39 34 -58z"/>
<path d="M11078 4550 c-51 -27 -72 -62 -119 -192 -254 -709 -242 -672 -235 -723 8 -48 38 -98 76 -127 23 -17 204 -85 550 -208 74 -26 231 -82 348 -124 237 -84 272 -90 342 -52 58 31 74 53 108 151 65 180 157 437 199 553 55 150 61 188 39 245 -34 89 -32 88 -627 301 -589 211 -605 215 -681 176z m-27 -587 c-107 -300 -161 -438 -171 -438 -20 0 -52 60 -52 98 0 45 239 706 265 736 26 27 52 39 88 40 26 1 26 1 -130 -436z m303 385 c69 -25 86 -34 81 -47 -4 -9 -39 -105 -78 -214 -56 -158 -75 -201 -92 -207 -18 -7 -38 -52 -99 -223 -78 -215 -78 -215 -152 -190 -41 14 -74 30 -74 36 0 8 236 679 301 855 5 12 13 22 18 22 5 0 48 -14 95 -32z m234 -83 c45 -16 81 -34 79 -39 -124 -355 -152 -425 -170 -428 -16 -2 -34 -43 -96 -215 -42 -116 -79 -214 -82 -218 -10 -10 -121 36 -116 48 2 7 37 104 77 216 62 173 71 206 61 223 -10 17 -1 51 65 234 44 124 82 213 88 211 6 -2 48 -17 94 -32z m234 -83 c43 -15 78 -30 78 -34 0 -10 -310 -871 -316 -877 -5 -6 -143 39 -148 48 -2 3 29 98 70 211 76 212 81 229 64 246 -7 7 16 82 67 227 61 170 81 216 93 211 8 -3 50 -17 92 -32z m220 -79 c40 -14 77 -30 82 -34 7 -6 -76 -257 -141 -426 -3 -7 -13 -13 -23 -13 -20 0 -16 9 -80 -170 -81 -229 -95 -262 -105 -261 -37 5 -145 47 -142 56 70 213 315 875 324 875 6 0 45 -12 85 -27z m198 -134 c9 -34 0 -64 -110 -374 -133 -372 -140 -388 -175 -411 -59 -38 -56 -18 22 200 64 179 73 211 60 221 -12 9 -4 39 57 210 39 110 75 209 79 219 7 18 9 18 32 -4 14 -13 30 -40 35 -61z"/>
<path d="M4293 4202 c-13 -9 -103 -255 -103 -283 0 -14 6 -19 16 -17 11 2 33 48 65 138 27 74 49 140 49 147 0 16 -13 23 -27 15z"/>
<path d="M10793 4202 c-14 -9 -103 -255 -103 -284 0 -13 6 -18 16 -16 11 2 33 48 65 138 27 74 49 140 49 147 0 16 -13 23 -27 15z"/>
<path d="M402 4090 c-78 -90 -220 -137 -332 -111 -36 8 -48 7 -60 -4 -12 -13 -12 -17 3 -32 15 -15 36 -18 130 -18 101 0 118 3 169 27 55 26 150 104 169 139 12 23 1 49 -20 49 -9 -1 -35 -23 -59 -50z"/>
<path d="M6903 4091 c-80 -92 -219 -139 -333 -112 -36 8 -48 7 -60 -4 -12 -13 -12 -17 3 -32 15 -15 36 -18 130 -18 100 1 118 3 169 27 55 26 150 104 169 139 12 23 1 49 -20 49 -9 -1 -35 -22 -58 -49z"/>
<path d="M1981 4102 c-32 -31 -51 -96 -33 -114 13 -13 32 -2 32 19 0 27 32 83 47 83 17 0 14 31 -4 37 -7 3 -26 -9 -42 -25z"/>
<path d="M8480 4102 c-31 -31 -49 -97 -32 -114 16 -16 29 -2 36 36 4 20 18 44 33 55 15 13 23 27 19 36 -8 22 -24 18 -56 -13z"/>
<path d="M2433 3733 c4 -40 12 -54 50 -90 25 -24 53 -43 61 -43 27 0 18 35 -14 54 -35 20 -62 58 -66 89 -1 12 -3 25 -3 30 -1 4 -8 7 -17 7 -14 0 -16 -8 -11 -47z"/>
<path d="M8930 3739 c0 -37 6 -48 50 -91 27 -28 55 -48 62 -46 24 8 19 33 -12 51 -35 21 -62 59 -66 90 -1 12 -3 25 -3 30 -1 4 -8 7 -16 7 -11 0 -15 -11 -15 -41z"/>
<path d="M1525 3374 c-295 -34 -509 -242 -545 -530 -24 -185 39 -364 175 -499 234 -234 610 -233 845 4 310 312 197 831 -215 986 -48 18 -228 52 -230 44 0 -1 -13 -4 -30 -5z m120 -557 c23 -33 18 -66 -14 -98 -46 -45 -101 -35 -126 24 -37 89 84 153 140 74z"/>
<path d="M8000 3370 c-112 -14 -205 -53 -305 -130 -28 -22 -62 -54 -75 -72 -108 -145 -143 -243 -143 -398 1 -384 350 -665 728 -585 225 48 412 237 461 466 60 283 -105 580 -379 684 -56 21 -95 29 -192 39 -16 2 -59 0 -95 -4z m145 -553 c23 -33 18 -66 -14 -98 -46 -45 -101 -35 -126 24 -37 89 84 153 140 74z"/>
<path d="M4852 3214 c4 -19 72 -49 93 -40 24 9 7 32 -34 45 -51 15 -63 14 -59 -5z"/>
<path d="M11352 3214 c4 -19 72 -49 93 -40 24 9 7 32 -34 45 -51 15 -63 14 -59 -5z"/>
<path d="M971 3115 c-46 -62 -82 -156 -94 -246 -11 -82 -7 -109 18 -109 11 0 15 11 15 39 0 99 45 234 96 291 19 21 34 45 34 54 0 30 -35 15 -69 -29z"/>
<path d="M7471 3115 c-46 -62 -82 -156 -94 -246 -11 -82 -7 -109 18 -109 11 0 15 11 15 39 0 98 42 227 95 288 19 23 35 48 35 57 0 30 -35 15 -69 -29z"/>
<path d="M5100 3126 c0 -15 28 -28 194 -87 75 -27 113 -36 120 -29 17 17 -5 30 -149 81 -147 53 -165 57 -165 35z"/>
<path d="M11602 3124 c4 -23 296 -130 312 -114 17 17 -5 29 -149 81 -149 53 -168 57 -163 33z"/>
<path d="M829 3055 c-27 -59 -37 -123 -23 -138 14 -14 34 7 34 38 0 18 13 58 29 90 17 33 28 62 25 67 -14 23 -38 2 -65 -57z"/>
<path d="M7335 3071 c-40 -81 -46 -169 -10 -155 9 4 15 19 15 38 0 17 13 59 29 93 16 34 27 64 24 67 -16 16 -35 2 -58 -43z"/>
<path d="M3378 3065 c-89 -50 -71 -204 36 -309 59 -57 126 -89 198 -94 32 -3 58 -5 58 -6 0 0 -14 -39 -31 -86 -17 -47 -35 -96 -39 -110 -4 -14 -42 -119 -84 -233 -42 -115 -76 -214 -76 -221 0 -15 42 -46 310 -231 118 -82 233 -161 254 -177 49 -35 62 -35 74 0 90 260 238 662 248 677 8 11 14 36 14 55 0 133 -143 282 -284 297 -225 23 -196 -277 38 -388 41 -19 77 -29 109 -29 45 0 48 -1 41 -22 -34 -107 -125 -343 -132 -341 -6 1 -535 365 -550 378 -5 4 144 418 180 497 16 35 19 57 14 88 -14 89 -87 185 -177 234 -63 35 -159 45 -201 21z"/>
<path d="M9876 3061 c-40 -27 -55 -57 -56 -111 0 -93 84 -211 187 -261 26 -13 74 -25 105 -27 32 -3 58 -5 58 -6 -1 -2 -48 -135 -140 -388 -51 -142 -90 -263 -87 -270 5 -15 583 -419 608 -425 11 -3 20 5 26 24 70 197 198 557 210 588 9 22 25 59 35 82 34 80 13 164 -62 246 -157 171 -382 146 -356 -39 17 -131 169 -264 299 -264 45 0 48 -1 41 -22 -34 -107 -125 -343 -132 -341 -6 1 -535 365 -550 378 -1 1 27 85 63 186 88 247 101 278 120 317 45 89 -37 247 -166 316 -69 38 -161 46 -203 17z"/>
<path d="M3240 2941 c-28 -53 -1 -155 60 -224 55 -63 83 -44 31 22 -53 67 -64 99 -57 163 5 47 3 58 -9 58 -8 0 -19 -9 -25 -19z"/>
<path d="M9740 2941 c-18 -34 -11 -104 15 -157 32 -64 81 -112 96 -97 9 9 4 22 -18 50 -55 69 -66 101 -59 165 5 47 3 58 -9 58 -8 0 -19 -9 -25 -19z"/>
<path d="M3154 2942 c-19 -12 -34 -49 -34 -82 0 -44 48 -130 72 -130 24 0 23 14 -7 58 -28 41 -32 89 -10 118 26 34 12 58 -21 36z"/>
<path d="M9637 2921 c-9 -16 -17 -44 -17 -61 0 -43 48 -130 72 -130 24 0 23 14 -7 58 -28 41 -32 89 -10 118 20 26 19 44 -3 44 -10 0 -25 -13 -35 -29z"/>
<path d="M2217 2724 c-4 -4 -7 -33 -7 -64 0 -94 -34 -183 -103 -273 -30 -39 -27 -64 6 -51 23 8 79 97 107 169 36 90 34 255 -3 219z"/>
<path d="M8716 2718 c-3 -7 -6 -44 -9 -83 -5 -82 -34 -158 -89 -233 -37 -50 -42 -72 -15 -72 32 0 119 150 137 237 14 64 9 155 -7 161 -7 2 -15 -2 -17 -10z"/>
<path d="M2307 2603 c-2 -5 -8 -26 -11 -48 -4 -22 -18 -60 -32 -84 -28 -51 -31 -74 -7 -69 51 10 112 208 64 208 -5 0 -12 -3 -14 -7z"/>
<path d="M8807 2603 c-2 -4 -8 -26 -12 -48 -3 -22 -18 -61 -33 -88 -19 -36 -23 -50 -14 -59 28 -28 81 66 85 151 2 40 -13 66 -26 44z"/>
<path d="M5855 2431 c-253 -66 -438 -216 -550 -445 -67 -137 -80 -196 -80 -366 0 -169 12 -225 79 -364 100 -211 278 -362 511 -436 107 -34 310 -39 430 -11 172 41 340 144 449 277 59 72 136 217 161 305 43 154 38 333 -15 492 -45 134 -99 218 -209 327 -78 78 -113 105 -186 142 -146 75 -207 90 -375 94 -117 3 -159 0 -215 -15z m255 -718 c34 -20 50 -52 50 -99 0 -28 -8 -44 -34 -70 -46 -46 -101 -48 -148 -5 -29 26 -33 35 -33 81 0 46 4 55 33 81 38 34 88 39 132 12z"/>
<path d="M12355 2431 c-289 -75 -500 -270 -594 -548 -34 -100 -44 -176 -38 -300 6 -139 22 -207 81 -328 100 -210 278 -361 511 -435 53 -17 103 -24 205 -27 162 -6 266 14 398 78 82 40 82 40 82 748 0 708 0 708 -87 749 -138 64 -181 74 -343 78 -117 3 -159 0 -215 -15z m255 -718 c34 -20 50 -52 50 -99 0 -28 -8 -44 -34 -70 -46 -46 -101 -48 -148 -5 -29 26 -33 35 -33 81 0 46 4 55 33 81 38 34 88 39 132 12z"/>
<path d="M0 1620 c0 -417 4 -700 9 -698 28 10 136 105 179 157 188 225 245 526 152 804 -44 131 -99 218 -204 323 -153 153 -136 226 -136 -586z"/>
<path d="M5231 2113 c-44 -49 -100 -156 -127 -239 -21 -69 -31 -253 -14 -264 26 -16 40 1 40 49 0 139 48 287 128 393 29 39 52 78 50 87 -6 31 -36 22 -77 -26z"/>
<path d="M11732 2114 c-90 -104 -141 -238 -149 -395 -5 -94 -4 -107 12 -112 9 -4 20 -5 24 -2 5 2 11 44 14 92 11 149 50 256 130 362 26 35 47 71 45 80 -6 31 -35 22 -76 -25z"/>
<path d="M5061 2091 c-45 -45 -103 -216 -87 -258 4 -8 15 -13 28 -11 19 2 24 11 30 51 8 57 31 119 59 158 36 51 11 101 -30 60z"/>
<path d="M11567 2097 c-43 -34 -109 -221 -93 -264 4 -8 15 -13 28 -11 19 2 24 11 30 51 8 57 31 119 59 158 33 47 15 96 -24 66z"/>
<path d="M437 1553 c-4 -3 -7 -36 -7 -73 0 -78 -28 -198 -63 -267 -14 -26 -46 -77 -72 -111 -47 -65 -52 -92 -16 -92 40 0 142 160 179 281 26 85 38 218 23 247 -12 22 -31 28 -44 15z"/>
<path d="M6937 1553 c-4 -3 -7 -36 -7 -73 0 -74 -30 -204 -60 -262 -28 -53 -44 -82 -50 -88 -30 -28 -71 -93 -66 -105 26 -69 158 108 209 282 22 74 32 205 18 231 -12 22 -31 28 -44 15z"/>
<path d="M557 1383 c-3 -5 -8 -30 -11 -58 -4 -27 -23 -83 -43 -122 -35 -72 -38 -103 -8 -103 16 0 58 60 81 117 20 48 33 150 20 163 -12 12 -33 13 -39 3z"/>
<path d="M7056 1378 c-2 -7 -9 -39 -16 -71 -6 -32 -25 -83 -41 -114 -33 -62 -36 -81 -14 -89 23 -9 41 11 74 80 34 68 54 179 37 196 -14 14 -36 13 -40 -2z"/>
<path d="M1093 1243 c-85 -35 -126 -82 -164 -183 -123 -331 -359 -1007 -359 -1030 0 -30 0 -30 73 -30 74 0 74 0 241 467 103 288 175 477 189 492 39 42 157 82 157 52 0 -11 -61 -186 -223 -636 -133 -370 -133 -370 -104 -373 16 -2 31 -1 34 2 3 3 81 218 174 478 93 260 174 483 179 495 9 22 9 22 72 -1 35 -12 91 -33 126 -46 42 -15 62 -28 61 -39 0 -9 -46 -144 -103 -301 -97 -268 -104 -285 -129 -288 -27 -3 -35 -19 -105 -220 -29 -83 -29 -83 57 -80 86 3 86 3 122 103 41 110 47 150 24 163 -13 7 1 54 92 308 58 164 108 301 109 303 4 4 246 -79 255 -88 4 -3 -42 -141 -101 -306 -94 -263 -110 -300 -129 -300 -11 0 -24 -5 -29 -10 -10 -11 -62 -151 -62 -166 0 -5 37 -9 83 -9 83 0 83 0 102 57 21 62 21 81 0 98 -11 8 8 69 95 310 75 210 112 299 121 297 15 -3 242 -83 246 -86 2 -2 -11 -40 -28 -87 -17 -46 -53 -145 -79 -219 -26 -74 -66 -186 -89 -249 -22 -63 -41 -116 -41 -118 0 -2 15 -3 33 -3 32 0 32 0 147 321 62 177 119 323 124 325 6 2 65 -16 131 -40 95 -35 119 -47 117 -61 -3 -14 -166 -474 -187 -528 -6 -14 -1 -17 27 -17 35 0 35 0 129 265 52 146 99 265 105 265 16 0 61 -51 73 -83 19 -48 12 -98 -25 -202 -49 -136 -84 -238 -84 -242 0 -2 41 -2 92 -1 91 3 91 3 104 38 139 386 147 412 138 470 -8 59 -45 130 -87 167 -43 38 -21 29 -842 324 -756 271 -778 277 -862 242z"/>
<path d="M7596 1245 c-54 -21 -102 -59 -130 -103 -12 -20 -43 -95 -69 -167 -49 -138 -67 -189 -226 -633 -55 -156 -101 -296 -101 -312 0 -30 0 -30 73 -30 73 0 73 0 240 467 104 290 176 476 190 491 42 47 158 83 157 50 0 -7 -81 -236 -178 -508 -178 -495 -178 -495 -149 -498 16 -2 31 -1 34 2 3 3 81 218 174 478 93 260 173 483 179 495 10 24 -10 29 237 -61 31 -11 31 -11 -76 -311 -101 -282 -109 -300 -133 -303 -29 -4 -27 1 -92 -180 -44 -123 -44 -123 42 -120 87 3 87 3 123 103 41 110 47 150 24 162 -13 8 1 56 92 308 59 165 108 302 110 304 1 2 60 -17 130 -42 87 -30 127 -49 125 -58 -3 -15 -110 -319 -172 -489 -32 -88 -42 -105 -60 -106 -12 -1 -25 -5 -29 -10 -9 -10 -61 -150 -61 -165 0 -5 37 -9 83 -9 83 0 83 0 102 57 21 62 21 81 0 98 -11 8 7 67 95 310 75 209 112 299 121 297 15 -3 242 -83 246 -86 2 -2 -12 -45 -31 -97 -115 -318 -206 -573 -206 -576 0 -1 15 -3 33 -3 32 0 32 0 146 320 63 177 118 323 123 326 6 4 108 -29 235 -77 23 -8 23 -8 -28 -151 -83 -234 -136 -382 -144 -401 -6 -14 -2 -17 27 -17 35 0 35 0 129 265 52 146 99 265 105 265 14 0 48 -38 68 -77 26 -52 19 -100 -38 -258 -29 -83 -57 -160 -61 -173 -7 -23 -6 -23 86 -20 92 3 92 3 142 143 27 77 61 169 75 205 65 166 6 316 -149 378 -30 12 -369 135 -754 273 -747 268 -776 276 -859 244z"/>
<path d="M4383 977 c-36 -34 -36 -34 -72 -14 -62 34 -95 20 -208 -87 -54 -51 -173 -163 -265 -250 -93 -87 -168 -165 -168 -174 0 -9 17 -33 37 -54 38 -39 38 -39 -91 -161 -285 -269 -261 -237 -177 -237 65 0 72 2 60 16 -14 17 -21 9 170 189 114 107 114 107 150 70 36 -36 36 -36 -89 -155 -125 -119 -125 -119 -78 -120 27 0 50 5 55 13 4 6 50 50 101 96 94 85 94 85 133 43 21 -23 43 -42 49 -42 6 0 52 39 103 88 50 48 134 128 187 177 279 264 265 248 265 308 0 48 3 56 35 84 31 28 35 37 33 76 -1 45 -1 45 27 37 162 -46 207 -237 106 -444 -77 -157 -206 -252 -561 -413 -40 -18 -40 -18 21 -21 57 -3 70 1 176 52 222 106 342 208 413 351 69 140 80 274 31 380 -43 94 -118 146 -221 153 -51 4 -66 10 -98 38 -47 43 -77 43 -124 1z"/>
<path d="M10914 1000 c-12 -4 -30 -20 -41 -34 -21 -26 -21 -26 -60 -4 -72 40 -88 30 -315 -184 -309 -291 -328 -310 -328 -327 0 -8 17 -32 38 -54 37 -38 37 -38 -18 -90 -357 -337 -332 -307 -251 -307 65 0 72 2 60 16 -14 17 -21 9 170 189 114 107 114 107 150 70 36 -36 36 -36 -89 -155 -125 -119 -125 -119 -79 -120 30 0 51 6 59 15 7 8 53 52 102 97 90 82 90 82 129 40 21 -23 43 -42 49 -42 10 0 267 239 475 442 80 78 80 78 80 131 0 47 3 56 34 83 34 31 44 68 27 107 -8 16 -5 17 20 11 172 -40 224 -235 119 -449 -75 -154 -185 -237 -515 -390 -85 -40 -85 -40 -24 -43 57 -3 71 1 176 52 205 98 328 197 397 321 79 140 99 301 50 405 -47 99 -119 150 -224 158 -51 4 -66 10 -98 38 -38 35 -56 39 -93 24z"/>
<path d="M586 564 c-37 -103 -66 -197 -64 -208 2 -13 10 -21 23 -21 15 0 25 17 48 80 16 44 45 123 64 175 43 115 47 154 17 158 -19 3 -28 -17 -88 -184z"/>
<path d="M7153 738 c-17 -22 -133 -357 -133 -384 0 -21 4 -25 23 -22 19 3 31 28 89 188 37 102 67 194 65 205 -2 23 -30 31 -44 13z"/>
</g>
<g id="layer103" fill="#b42d2c" stroke="none">
<path d="M1473 9489 c-48 -24 -99 -77 -119 -125 -19 -44 -18 -136 2 -182 19 -46 68 -98 116 -123 56 -29 108 -33 173 -15 142 42 213 204 146 334 -25 48 -77 97 -123 116 -54 23 -144 20 -195 -5z m152 -103 c19 -8 44 -30 55 -48 68 -111 -57 -236 -168 -168 -104 64 -61 215 66 229 7 0 28 -5 47 -13z"/>
<path d="M7973 9489 c-48 -24 -99 -77 -119 -125 -19 -44 -18 -136 2 -182 30 -73 110 -135 192 -148 143 -23 291 125 268 268 -13 82 -75 162 -148 192 -54 23 -144 20 -195 -5z m152 -103 c19 -8 44 -30 55 -48 68 -111 -57 -236 -168 -168 -42 26 -66 81 -57 128 7 39 53 88 88 95 40 8 47 7 82 -7z"/>
<path d="M5960 8441 c-98 -32 -184 -113 -220 -207 -27 -73 -24 -174 7 -246 28 -62 96 -134 158 -166 44 -24 62 -27 145 -27 85 0 101 3 148 28 204 107 248 372 88 532 -63 62 -126 89 -221 92 -44 1 -91 -1 -105 -6z m193 -184 c48 -37 70 -88 65 -152 -10 -125 -136 -191 -248 -132 -51 27 -90 90 -90 147 0 134 167 218 273 137z"/>
<path d="M12460 8441 c-185 -60 -285 -259 -219 -435 25 -69 96 -149 163 -184 45 -24 62 -27 146 -27 85 0 101 3 148 28 248 130 245 476 -5 599 -51 24 -183 35 -233 19z m193 -184 c70 -53 88 -165 38 -236 -71 -100 -231 -90 -288 19 -29 55 -29 105 0 160 47 89 171 117 250 57z"/>
<path d="M1473 2989 c-48 -24 -99 -77 -119 -125 -19 -44 -18 -136 2 -182 30 -73 110 -135 192 -148 143 -23 291 125 268 268 -13 82 -75 162 -148 192 -54 23 -144 20 -195 -5z m152 -103 c19 -8 44 -30 55 -48 68 -111 -57 -236 -168 -168 -104 64 -61 215 66 229 7 0 28 -5 47 -13z"/>
<path d="M7995 2999 c-45 -12 -110 -72 -134 -122 -25 -52 -28 -141 -5 -195 31 -75 113 -137 198 -148 141 -20 284 127 262 268 -13 82 -75 162 -148 192 -40 17 -124 20 -173 5z m130 -113 c65 -27 91 -103 60 -170 -43 -91 -182 -84 -221 11 -34 81 20 162 114 172 7 0 28 -5 47 -13z"/>
<path d="M5925 1926 c-121 -51 -205 -176 -205 -306 0 -121 74 -240 185 -298 44 -24 62 -27 145 -27 85 0 101 3 148 28 247 130 245 476 -3 597 -75 37 -189 39 -270 6z m228 -169 c48 -37 70 -88 65 -152 -10 -125 -136 -191 -248 -132 -51 27 -90 90 -90 147 0 134 167 218 273 137z"/>
<path d="M12460 1941 c-141 -46 -240 -178 -240 -321 0 -89 32 -162 99 -231 75 -76 145 -103 251 -97 287 17 418 360 215 563 -63 64 -125 89 -220 92 -44 1 -91 -1 -105 -6z m193 -184 c70 -53 88 -165 38 -236 -73 -102 -236 -90 -290 22 -27 56 -27 103 2 157 47 89 171 117 250 57z"/>
</g>
<g id="layer104" fill="#5e5e5e" stroke="none">
<path d="M202 11718 c-44 -10 -122 -74 -122 -100 0 -7 32 -24 72 -38 80 -28 104 -53 75 -75 -16 -12 -28 -10 -83 11 -35 13 -71 24 -78 24 -13 0 -36 -48 -36 -75 0 -7 34 -25 75 -40 64 -23 75 -31 75 -50 0 -35 -24 -37 -96 -10 -37 14 -71 25 -76 25 -5 0 -8 -23 -6 -51 3 -52 3 -52 63 -73 47 -16 61 -26 63 -44 5 -31 -19 -37 -75 -18 -25 9 -48 16 -50 16 -2 0 -3 -23 -3 -51 0 -47 2 -51 34 -64 18 -8 36 -21 39 -29 8 -21 -19 -39 -48 -32 -24 6 -25 5 -25 -47 0 -29 6 -59 12 -65 10 -10 10 -17 0 -32 -7 -12 -12 -60 -12 -129 0 -109 0 -109 51 -126 100 -34 211 -4 253 66 26 44 20 53 -56 79 -59 20 -74 29 -76 48 -5 34 20 36 102 9 75 -25 75 -25 90 21 9 25 15 46 13 47 -1 1 -33 13 -72 27 -78 29 -101 51 -72 73 16 12 28 10 83 -11 35 -13 71 -24 79 -24 8 0 19 18 26 41 15 48 14 49 -78 79 -66 23 -79 38 -59 66 13 17 17 16 89 -9 41 -15 77 -27 80 -27 9 0 38 82 32 89 -4 3 -39 17 -78 31 -58 20 -73 29 -75 48 -5 34 20 36 103 8 76 -25 76 -25 91 9 8 19 14 40 14 47 0 7 -30 24 -67 37 -75 26 -99 46 -82 68 16 18 32 17 110 -12 68 -24 68 -24 74 5 15 66 -27 152 -93 193 -46 29 -144 64 -197 70 -22 3 -59 1 -83 -5z"/>
<path d="M6706 11719 c-49 -12 -92 -43 -112 -81 -8 -16 -14 -31 -12 -33 2 -1 33 -12 70 -24 71 -24 94 -41 84 -66 -7 -20 -41 -19 -104 5 -29 11 -58 20 -66 20 -13 0 -36 -48 -36 -75 0 -7 34 -25 75 -40 63 -23 75 -31 75 -50 0 -35 -23 -37 -96 -9 -37 14 -72 23 -79 21 -6 -3 -16 -22 -23 -43 -14 -45 -14 -45 76 -75 68 -23 84 -41 59 -66 -14 -15 -22 -14 -90 10 -42 15 -77 27 -80 27 -6 0 -31 -90 -26 -94 2 -1 36 -14 74 -27 56 -19 71 -28 73 -47 5 -34 -20 -36 -102 -9 -75 25 -75 25 -90 -21 -9 -25 -15 -46 -13 -47 1 -1 33 -13 71 -26 78 -28 100 -50 75 -74 -14 -14 -22 -13 -82 10 -88 33 -95 32 -103 -11 -18 -98 60 -194 196 -239 134 -45 237 -24 284 56 26 44 20 53 -56 79 -59 20 -74 29 -76 48 -5 34 20 36 102 9 75 -25 75 -25 90 21 9 25 15 46 13 47 -1 1 -33 13 -72 27 -78 29 -101 51 -72 73 16 12 28 10 83 -11 35 -13 70 -24 78 -24 15 0 42 73 32 89 -4 6 -12 11 -18 11 -6 0 -37 10 -69 21 -50 18 -59 26 -59 46 0 35 19 37 97 8 39 -14 73 -25 76 -25 10 0 38 83 30 90 -4 4 -38 17 -75 30 -74 24 -82 30 -73 60 8 26 28 25 105 -5 35 -14 65 -25 67 -25 6 0 33 68 33 82 0 8 -31 24 -71 37 -68 24 -91 43 -82 69 7 18 30 15 111 -12 71 -24 71 -24 77 4 15 70 -33 163 -104 199 -110 56 -198 77 -265 60z"/>
<path d="M12982 11341 c-10 -28 -10 -36 0 -43 14 -8 22 17 16 55 -3 19 -5 17 -16 -12z"/>
<path d="M2609 11162 c-176 -166 -176 -166 -91 -259 47 -51 89 -93 93 -93 16 0 359 333 359 349 0 27 -138 171 -163 171 -14 -1 -85 -60 -198 -168z m134 -186 c7 -17 -115 -136 -138 -136 -37 0 -25 27 40 87 71 65 89 74 98 49z"/>
<path d="M9109 11162 c-176 -166 -176 -166 -91 -259 47 -51 89 -93 93 -93 15 0 359 334 359 349 0 27 -138 171 -163 171 -14 -1 -85 -60 -198 -168z m134 -186 c7 -17 -115 -136 -138 -136 -37 0 -25 27 40 87 71 65 89 74 98 49z"/>
<path d="M12935 11206 c-21 -49 -19 -63 9 -70 13 -3 31 -9 40 -12 13 -5 16 3 16 50 0 31 -4 56 -9 56 -5 0 -17 3 -25 6 -12 4 -20 -4 -31 -30z"/>
<path d="M12876 11042 c-9 -25 -15 -46 -13 -47 7 -4 125 -45 131 -45 4 0 6 23 4 52 -3 51 -3 51 -55 69 -52 17 -52 17 -67 -29z"/>
<path d="M12826 10908 c-11 -41 -6 -78 14 -117 22 -45 89 -105 131 -120 29 -10 29 -10 29 98 0 108 0 108 -72 135 -88 32 -94 32 -102 4z"/>
<path d="M2404 10738 c-19 -23 -19 -23 4 -4 12 11 22 21 22 23 0 8 -8 2 -26 -19z"/>
<path d="M1436 9815 c-95 -26 -178 -75 -251 -149 -123 -124 -171 -248 -162 -421 7 -155 61 -273 175 -382 90 -87 252 -153 377 -153 69 0 177 28 255 67 149 72 260 220 296 393 59 279 -128 571 -412 645 -70 18 -211 18 -278 0z m263 -285 c60 -30 104 -72 131 -127 32 -62 36 -197 6 -253 -26 -49 -84 -108 -131 -132 -92 -48 -233 -31 -311 36 -171 146 -116 422 98 492 56 18 155 11 207 -16z m391 -130 c0 -14 -10 -22 -37 -29 -21 -6 -60 -17 -86 -25 -54 -16 -80 -12 -75 12 2 11 30 24 78 38 97 29 120 30 120 4z m-977 -172 c3 -29 6 -62 8 -73 7 -33 -28 -30 -45 4 -26 49 -17 121 14 121 15 0 19 -11 23 -52z"/>
<path d="M7936 9815 c-95 -26 -178 -75 -251 -149 -123 -124 -171 -248 -162 -421 7 -155 61 -273 175 -382 90 -87 252 -153 377 -153 69 0 177 28 255 67 149 72 260 220 296 393 59 279 -128 571 -412 645 -70 18 -211 18 -278 0z m263 -285 c60 -30 104 -72 131 -127 32 -62 36 -197 6 -253 -26 -49 -84 -108 -131 -132 -92 -48 -233 -31 -311 36 -171 146 -116 422 98 492 56 18 155 11 207 -16z m391 -130 c0 -14 -10 -22 -37 -29 -21 -6 -60 -17 -86 -25 -54 -16 -80 -12 -75 12 2 11 30 24 78 38 97 29 120 30 120 4z m-977 -172 c3 -29 6 -62 8 -73 7 -33 -28 -30 -45 4 -26 49 -17 121 14 121 15 0 19 -11 23 -52z"/>
<path d="M5959 8891 c-394 -55 -679 -378 -679 -771 0 -432 341 -772 775 -772 167 0 309 47 450 147 236 167 360 463 311 744 -64 368 -354 631 -722 654 -43 3 -104 2 -135 -2z m265 -417 c155 -76 242 -245 215 -416 -20 -127 -96 -230 -213 -291 -58 -30 -67 -32 -171 -32 -98 0 -116 3 -167 27 -80 37 -152 107 -191 187 -30 61 -32 72 -32 171 0 93 3 112 26 161 45 96 116 163 218 206 49 21 69 23 156 20 87 -3 108 -7 159 -33z m535 -162 c5 -10 6 -24 2 -31 -5 -7 -62 -28 -127 -47 -105 -29 -121 -31 -134 -18 -27 26 1 46 116 80 132 39 131 39 143 16z m-1361 -181 c9 -6 11 -22 6 -58 -4 -37 -2 -58 10 -81 20 -39 20 -58 1 -66 -24 -9 -42 3 -60 41 -20 41 -17 132 4 157 15 18 21 19 39 7z"/>
<path d="M12459 8891 c-394 -55 -679 -378 -679 -771 0 -357 236 -660 585 -751 119 -31 272 -29 388 5 88 26 168 62 219 98 28 19 28 19 28 651 0 632 0 632 -22 646 -153 96 -359 144 -519 122z m265 -417 c155 -76 242 -245 215 -416 -20 -127 -96 -230 -213 -291 -58 -30 -67 -32 -171 -32 -98 0 -116 3 -167 27 -80 37 -152 107 -191 187 -30 61 -32 72 -32 171 0 93 3 112 26 161 45 96 116 163 218 206 49 21 69 23 156 20 87 -3 108 -7 159 -33z m-826 -343 c9 -6 11 -22 6 -58 -4 -37 -2 -58 10 -81 20 -39 20 -58 1 -66 -24 -9 -42 3 -60 41 -20 41 -17 132 4 157 15 18 21 19 39 7z"/>
<path d="M0 8506 c0 -192 3 -244 12 -241 28 9 226 65 232 65 12 0 24 -37 17 -49 -9 -14 -240 -83 -253 -75 -4 3 -8 -157 -8 -356 0 -362 0 -362 38 -332 164 130 268 330 288 552 12 143 -38 336 -122 467 -38 60 -131 162 -176 195 -28 19 -28 19 -28 -226z"/>
<path d="M4087 7278 c-83 -79 -194 -184 -246 -234 -111 -106 -116 -77 48 -250 102 -108 102 -108 149 -62 26 25 135 127 242 228 107 101 199 190 203 197 16 27 -4 58 -102 161 -66 69 -105 102 -120 102 -15 0 -73 -48 -174 -142z m87 -354 c3 -9 4 -20 1 -25 -15 -24 -188 -170 -197 -167 -7 3 -16 12 -22 22 -9 15 3 30 79 101 89 84 126 102 139 69z"/>
<path d="M10677 7363 c-255 -239 -427 -406 -427 -414 0 -10 230 -254 240 -254 9 0 27 17 300 274 102 96 189 181 193 189 16 26 -4 57 -102 160 -67 69 -105 102 -120 102 -14 0 -47 -23 -84 -57z m-3 -439 c3 -9 4 -20 1 -25 -15 -24 -188 -170 -197 -167 -7 3 -16 12 -22 22 -9 15 3 30 79 101 89 84 126 102 139 69z"/>
<path d="M10129 6673 c-24 -28 -24 -28 4 -4 15 14 27 26 27 28 0 8 -8 1 -31 -24z"/>
<path d="M192 5216 c-24 -8 -53 -23 -64 -33 -20 -18 -53 -73 -46 -77 2 -1 34 -14 72 -27 78 -28 102 -52 73 -73 -15 -11 -27 -10 -83 10 -36 13 -71 24 -78 24 -13 0 -36 -48 -36 -75 0 -7 34 -25 75 -40 64 -23 75 -31 75 -50 0 -35 -24 -37 -96 -10 -37 14 -71 25 -76 25 -5 0 -8 -23 -6 -51 3 -52 3 -52 63 -73 47 -16 61 -26 63 -44 5 -31 -19 -37 -75 -18 -25 9 -48 16 -50 16 -2 0 -3 -23 -3 -51 0 -47 2 -51 30 -61 60 -20 55 -79 -5 -64 -24 6 -25 5 -25 -47 0 -29 6 -59 12 -65 10 -10 10 -17 0 -32 -7 -12 -12 -60 -12 -129 0 -109 0 -109 51 -126 102 -34 211 -5 253 66 26 44 20 53 -56 79 -59 20 -74 29 -76 48 -2 13 3 24 12 28 13 5 84 -14 147 -41 13 -5 20 4 33 41 9 26 15 48 13 49 -1 1 -33 13 -71 26 -78 28 -102 52 -73 74 16 12 28 10 83 -11 35 -13 70 -24 78 -24 15 0 42 73 32 89 -4 6 -12 11 -18 11 -6 0 -37 10 -69 21 -50 18 -59 26 -59 46 0 35 17 36 99 8 41 -14 75 -25 77 -25 8 0 33 84 27 90 -4 4 -38 17 -75 30 -74 24 -82 30 -73 60 8 26 23 25 107 -5 69 -25 69 -25 84 10 7 19 14 40 14 47 0 8 -31 24 -71 37 -68 24 -91 43 -82 69 7 18 38 15 114 -13 68 -24 68 -24 74 5 9 41 -2 88 -31 132 -57 88 -251 156 -352 124z"/>
<path d="M6697 5216 c-26 -7 -56 -21 -68 -32 -21 -19 -54 -73 -47 -78 2 -2 34 -14 72 -27 78 -27 102 -52 73 -74 -16 -12 -28 -10 -83 11 -35 13 -71 24 -78 24 -13 0 -36 -48 -36 -75 0 -7 34 -25 75 -40 63 -23 75 -31 75 -50 0 -35 -24 -37 -101 -8 -40 15 -74 22 -78 17 -11 -12 -32 -76 -27 -81 2 -3 37 -17 78 -32 58 -21 74 -31 76 -49 5 -35 -22 -37 -102 -8 -41 14 -76 26 -79 26 -6 0 -31 -90 -26 -94 2 -1 36 -14 74 -28 55 -19 71 -29 73 -46 5 -34 -21 -36 -102 -9 -75 25 -75 25 -90 -21 -9 -25 -15 -46 -13 -47 1 -1 33 -13 71 -26 78 -28 102 -52 73 -74 -16 -12 -28 -10 -83 11 -85 32 -92 31 -100 -11 -18 -100 58 -194 194 -239 122 -41 204 -32 265 30 24 24 46 70 36 78 -2 1 -35 14 -74 28 -55 19 -71 29 -73 46 -5 34 21 36 102 9 74 -25 74 -25 85 1 25 67 26 65 -51 92 -80 28 -104 53 -75 75 16 12 28 10 83 -11 35 -13 70 -24 78 -24 7 0 19 18 26 41 16 48 16 48 -77 80 -54 18 -63 24 -63 45 0 36 17 37 95 9 39 -14 73 -25 76 -25 10 0 41 82 34 89 -4 3 -39 17 -78 31 -58 20 -73 29 -75 48 -5 34 20 36 103 8 76 -25 76 -25 91 9 8 19 14 40 14 47 0 8 -31 24 -71 37 -68 24 -91 43 -82 69 7 18 38 15 114 -13 68 -24 68 -24 75 10 8 44 -1 80 -32 127 -29 45 -76 76 -159 106 -82 29 -131 34 -188 18z"/>
<path d="M12982 4841 c-10 -28 -10 -36 0 -43 14 -8 22 17 16 55 -3 19 -5 17 -16 -12z"/>
<path d="M2609 4662 c-176 -166 -176 -166 -91 -259 47 -51 89 -93 93 -93 16 0 359 334 359 349 0 27 -138 171 -163 171 -14 -1 -85 -60 -198 -168z m137 -183 c7 -12 -84 -109 -122 -130 -20 -10 -27 -10 -37 0 -10 10 2 26 58 77 69 64 88 74 101 53z"/>
<path d="M9109 4662 c-176 -166 -176 -166 -91 -259 47 -51 89 -93 93 -93 16 0 359 334 359 350 0 27 -138 170 -164 170 -13 -1 -85 -61 -197 -168z m134 -186 c7 -17 -115 -136 -138 -136 -37 0 -25 27 40 87 71 65 89 74 98 49z"/>
<path d="M12932 4701 c-16 -53 -15 -58 12 -65 13 -3 31 -9 40 -12 26 -10 23 92 -3 106 -31 16 -37 12 -49 -29z"/>
<path d="M12876 4543 c-9 -25 -15 -47 -13 -48 7 -4 125 -45 131 -45 4 0 6 23 4 51 -3 51 -3 51 -53 70 -27 10 -51 19 -52 19 0 0 -8 -21 -17 -47z"/>
<path d="M12824 4395 c-11 -61 13 -120 67 -169 27 -24 62 -49 79 -54 30 -11 30 -11 30 99 0 60 -1 109 -3 109 -1 0 -33 11 -71 25 -38 14 -75 25 -82 25 -7 0 -16 -16 -20 -35z"/>
<path d="M1436 3315 c-95 -26 -178 -75 -251 -149 -78 -79 -125 -158 -150 -256 -24 -90 -16 -242 15 -325 71 -186 225 -320 415 -360 88 -18 132 -18 220 0 224 47 393 218 441 445 59 279 -128 571 -412 645 -70 18 -211 18 -278 0z m263 -285 c60 -30 104 -72 131 -127 32 -62 36 -197 6 -253 -26 -49 -84 -108 -131 -132 -92 -48 -233 -31 -311 36 -171 146 -116 422 98 492 56 18 155 11 207 -16z m391 -130 c0 -14 -10 -22 -37 -29 -21 -6 -60 -17 -86 -25 -54 -16 -80 -12 -75 12 2 11 30 24 78 38 97 29 120 30 120 4z m-977 -172 c3 -29 6 -62 8 -73 7 -33 -28 -30 -45 4 -26 49 -17 121 14 121 15 0 19 -11 23 -52z"/>
<path d="M7936 3315 c-95 -26 -178 -75 -251 -149 -123 -124 -171 -248 -162 -421 5 -112 27 -184 85 -274 77 -122 214 -216 357 -246 88 -18 132 -18 220 0 224 47 393 218 441 445 59 279 -128 571 -412 645 -70 18 -211 18 -278 0z m263 -285 c60 -30 104 -72 131 -127 32 -62 36 -197 6 -253 -26 -49 -84 -108 -131 -132 -92 -48 -233 -31 -311 36 -171 146 -116 422 98 492 56 18 155 11 207 -16z m391 -130 c0 -14 -10 -22 -37 -29 -21 -6 -60 -17 -86 -25 -54 -16 -80 -12 -75 12 2 11 30 24 78 38 97 29 120 30 120 4z m-977 -172 c3 -29 6 -62 8 -73 7 -33 -28 -30 -45 4 -26 49 -17 121 14 121 15 0 19 -11 23 -52z"/>
<path d="M5959 2391 c-394 -55 -679 -378 -679 -771 0 -432 341 -772 775 -772 167 0 309 47 450 147 236 167 360 463 311 744 -64 368 -354 631 -722 654 -43 3 -104 2 -135 -2z m265 -417 c155 -76 242 -245 215 -416 -20 -127 -96 -230 -213 -291 -58 -30 -67 -32 -171 -32 -98 0 -116 3 -167 27 -80 37 -152 107 -191 187 -30 61 -32 72 -32 171 0 93 3 112 26 161 45 96 116 163 218 206 49 21 69 23 156 20 87 -3 108 -7 159 -33z m535 -162 c5 -10 6 -24 2 -31 -5 -7 -62 -28 -127 -47 -105 -29 -121 -31 -134 -18 -27 26 1 46 116 80 132 39 131 39 143 16z m-1361 -181 c9 -6 11 -22 6 -58 -4 -37 -2 -58 10 -81 20 -39 20 -58 1 -66 -24 -9 -42 3 -60 41 -20 41 -17 132 4 157 15 18 21 19 39 7z"/>
<path d="M12459 2391 c-394 -55 -679 -378 -679 -771 0 -357 236 -660 585 -751 119 -31 272 -29 388 5 88 26 168 62 219 98 28 19 28 19 28 651 0 632 0 632 -22 646 -153 96 -359 144 -519 122z m265 -417 c155 -76 242 -245 215 -416 -20 -127 -96 -230 -213 -291 -58 -30 -67 -32 -171 -32 -98 0 -116 3 -167 27 -80 37 -152 107 -191 187 -30 61 -32 72 -32 171 0 93 3 112 26 161 45 96 116 163 218 206 49 21 69 23 156 20 87 -3 108 -7 159 -33z m-826 -343 c9 -6 11 -22 6 -58 -4 -37 -2 -58 10 -81 20 -39 20 -58 1 -66 -24 -9 -42 3 -60 41 -20 41 -17 132 4 157 15 18 21 19 39 7z"/>
<path d="M0 2006 c0 -192 3 -244 12 -241 28 9 226 65 232 65 12 0 24 -37 17 -49 -9 -14 -240 -83 -253 -75 -4 3 -8 -157 -8 -356 0 -362 0 -362 38 -332 213 169 324 456 278 721 -28 162 -93 294 -198 407 -34 36 -74 74 -90 85 -28 20 -28 20 -28 -225z"/>
<path d="M4087 778 c-83 -79 -194 -184 -246 -234 -111 -106 -116 -77 48 -250 102 -108 102 -108 149 -62 26 25 135 127 242 228 107 101 199 190 203 197 16 27 -4 58 -102 161 -66 69 -105 102 -120 102 -15 0 -73 -48 -174 -142z m87 -354 c3 -9 4 -20 1 -25 -15 -24 -188 -170 -197 -167 -7 3 -16 12 -22 22 -9 15 3 30 79 101 89 84 126 102 139 69z"/>
<path d="M10661 848 c-42 -40 -117 -111 -166 -158 -199 -187 -245 -233 -245 -240 0 -11 230 -255 240 -255 10 0 468 428 489 456 7 11 11 28 7 41 -10 37 -199 228 -226 228 -14 0 -50 -27 -99 -72z m13 -424 c3 -9 4 -20 1 -25 -15 -24 -188 -170 -197 -167 -7 3 -16 12 -22 22 -9 15 3 30 79 101 89 84 126 102 139 69z"/>
<path d="M10324 208 c-19 -23 -19 -23 4 -4 21 18 27 26 19 26 -2 0 -12 -10 -23 -22z"/>
<path d="M3629 173 c-24 -28 -24 -28 4 -4 15 14 27 26 27 28 0 8 -8 1 -31 -24z"/>
</g>
<g id="layer105" fill="#337ca8" stroke="none">
<path d="M3391 9512 c-52 -52 -36 -125 47 -214 73 -79 161 -113 223 -88 83 35 67 154 -34 247 -57 53 -96 73 -157 80 -45 5 -51 3 -79 -25z m73 -101 c29 -56 70 -94 121 -111 37 -12 46 -36 19 -47 -9 -3 -40 6 -70 20 -60 30 -124 112 -124 159 0 44 27 34 54 -21z"/>
<path d="M9889 9511 c-50 -51 -33 -125 49 -213 60 -64 112 -91 179 -92 71 -1 99 25 96 90 -4 112 -147 244 -266 244 -18 0 -39 -10 -58 -29z m75 -100 c29 -56 70 -94 121 -111 19 -6 35 -18 35 -26 0 -51 -122 1 -171 73 -37 53 -50 113 -25 113 9 0 26 -21 40 -49z"/>
<path d="M3970 9062 c-37 -37 -38 -69 -6 -137 42 -92 161 -175 249 -175 35 0 87 48 87 81 0 48 -26 104 -74 156 -57 63 -110 93 -177 100 -44 5 -51 2 -79 -25z m92 -99 c5 -18 24 -45 43 -60 35 -28 43 -47 25 -58 -12 -7 -60 17 -83 43 -20 22 -37 79 -29 100 8 24 36 8 44 -25z"/>
<path d="M10471 9062 c-39 -38 -40 -71 -5 -140 47 -94 160 -172 249 -172 34 0 74 37 81 74 12 69 -70 191 -159 237 -21 11 -60 23 -87 26 -45 5 -51 3 -79 -25z m91 -99 c5 -18 24 -45 43 -60 35 -28 43 -47 25 -58 -14 -9 -65 21 -89 51 -27 34 -30 107 -4 102 9 -2 20 -18 25 -35z"/>
<path d="M3515 8596 c-16 -47 -27 -87 -25 -89 3 -2 25 -17 50 -34 25 -16 146 -100 269 -186 124 -86 226 -155 228 -153 10 10 62 160 57 167 -5 9 -521 368 -538 375 -7 3 -23 -27 -41 -80z m440 -312 c23 -15 25 -15 31 0 7 19 33 21 40 3 8 -21 -14 -67 -31 -67 -32 0 -95 40 -95 60 0 24 22 26 55 4z"/>
<path d="M10015 8596 c-16 -47 -27 -87 -25 -89 3 -2 25 -17 50 -34 25 -16 143 -98 262 -181 120 -84 222 -153 229 -154 9 -3 75 160 67 166 -70 51 -535 369 -543 372 -6 3 -24 -33 -40 -80z m440 -312 c21 -14 24 -14 33 2 16 28 46 10 37 -24 -3 -15 -10 -31 -15 -36 -20 -20 -124 33 -114 59 8 19 28 19 59 -1z"/>
<path d="M3391 3012 c-52 -52 -36 -125 47 -214 60 -64 112 -91 179 -92 69 -1 96 24 96 86 0 56 -30 114 -86 165 -57 53 -96 73 -157 80 -45 5 -51 3 -79 -25z m68 -91 c32 -62 68 -98 116 -117 25 -9 45 -23 45 -31 0 -53 -124 4 -176 81 -36 53 -45 106 -19 106 8 0 23 -17 34 -39z"/>
<path d="M9914 3031 c-30 -13 -54 -50 -54 -82 0 -67 84 -180 165 -222 57 -30 137 -29 167 1 29 29 29 91 0 147 -23 45 -93 115 -141 139 -38 20 -109 29 -137 17z m45 -110 c32 -62 68 -98 117 -117 53 -20 58 -50 8 -48 -67 3 -159 95 -171 170 -8 48 21 46 46 -5z"/>
<path d="M3971 2562 c-39 -38 -40 -71 -5 -140 46 -93 159 -172 247 -172 35 0 87 48 87 81 0 46 -26 103 -68 150 -56 63 -116 98 -180 106 -47 5 -53 3 -81 -25z m91 -99 c5 -18 24 -45 43 -60 35 -28 43 -47 25 -58 -15 -9 -66 22 -89 54 -27 37 -29 104 -4 99 9 -2 20 -18 25 -35z"/>
<path d="M10469 2561 c-28 -29 -31 -36 -25 -72 10 -61 39 -111 96 -162 87 -78 181 -98 231 -48 48 49 32 124 -45 208 -57 63 -108 92 -176 100 -45 5 -51 3 -81 -26z m91 -93 c0 -12 18 -38 40 -59 22 -21 40 -43 40 -48 0 -34 -65 -10 -98 36 -20 28 -25 49 -23 91 1 20 4 21 21 12 11 -6 20 -20 20 -32z"/>
<path d="M3515 2095 c-15 -47 -27 -86 -24 -88 2 -2 54 -38 114 -79 61 -41 182 -125 270 -186 87 -62 162 -109 165 -104 10 11 63 162 59 166 -32 24 -536 369 -544 372 -6 3 -23 -33 -40 -81z m440 -311 c21 -14 24 -14 33 2 6 11 16 15 27 10 20 -7 13 -54 -11 -72 -21 -16 -104 30 -104 57 0 23 22 24 55 3z"/>
<path d="M10015 2096 c-16 -47 -27 -87 -25 -89 3 -2 55 -38 115 -79 61 -41 182 -125 270 -187 87 -61 162 -108 165 -103 15 17 63 166 54 169 -5 2 -46 29 -90 61 -45 31 -134 93 -198 137 -64 44 -146 101 -182 128 -37 26 -70 47 -73 47 -4 0 -20 -38 -36 -84z m440 -312 c23 -15 25 -15 31 0 7 19 33 21 40 3 8 -21 -14 -67 -31 -67 -32 0 -95 40 -95 60 0 24 22 26 55 4z"/>
</g>


</svg>