<!DOCTYPE svg PUBLIC "-//W3C//DTD SVG 20010904//EN" "http://www.w3.org/TR/2001/REC-SVG-20010904/DTD/svg10.dtd">
<svg version="1.0" xmlns="http://www.w3.org/2000/svg" width="347px" height="308px" viewBox="0 0 3470 3080" preserveAspectRatio="xMidYMid meet">
<g id="layer101" fill="#000000" stroke="none">
<path d="M175 2938 c-7 -19 -21 -40 -29 -47 -23 -19 -37 -80 -38 -164 0 -67 2 -78 31 -117 17 -24 31 -49 31 -55 0 -19 39 -41 100 -55 96 -22 90 2 90 -364 0 -251 -3 -333 -15 -376 -15 -57 -18 -127 -6 -169 6 -24 6 -24 146 -23 l140 2 -52 -32 c-29 -18 -53 -40 -53 -49 0 -22 -32 -49 -37 -31 -3 6 -9 12 -14 12 -6 0 -7 -4 -4 -10 3 -5 0 -10 -8 -10 -8 0 -17 -7 -21 -15 -3 -8 -9 -15 -13 -14 -21 3 -31 -3 -41 -26 -17 -37 -15 -75 4 -75 18 0 11 -35 -14 -62 -24 -29 -23 -75 4 -108 30 -35 30 -41 -2 -75 -32 -35 -43 -64 -46 -121 -1 -25 -5 -47 -10 -50 -4 -3 -15 -19 -24 -35 -11 -23 -12 -34 -4 -44 8 -9 8 -15 0 -20 -15 -9 -12 -48 5 -71 8 -10 15 -28 15 -39 0 -11 7 -29 15 -39 8 -10 11 -24 8 -30 -14 -22 -10 -52 13 -108 28 -68 75 -138 103 -156 12 -7 21 -19 21 -27 0 -8 11 -17 24 -21 14 -3 32 -14 42 -25 9 -10 23 -19 31 -19 15 0 34 -14 61 -43 24 -26 61 -44 105 -51 32 -5 44 -1 73 21 l35 26 36 -41 c32 -37 42 -42 77 -42 44 1 135 28 160 49 8 7 20 10 26 6 19 -12 138 66 149 97 6 15 17 28 25 28 9 0 19 12 22 28 4 15 16 33 26 41 27 19 46 73 51 146 1 12 9 32 19 46 33 51 6 273 -39 317 -8 8 -13 36 -13 68 0 30 -7 71 -15 91 -8 19 -15 49 -15 65 0 16 -12 55 -26 86 -39 85 -45 102 -34 102 26 0 2 74 -30 97 -16 12 -120 158 -120 169 0 8 213 -7 315 -21 50 -8 93 -10 97 -7 4 4 8 45 10 92 l3 84 40 9 c62 13 476 4 500 -10 11 -7 59 -26 107 -42 169 -58 160 -46 245 -333 3 -10 0 -18 -6 -18 -20 0 -51 -82 -51 -137 0 -44 4 -54 23 -64 12 -7 39 -26 60 -42 32 -27 37 -36 37 -73 0 -33 -3 -42 -14 -38 -18 7 -29 -11 -21 -36 8 -27 58 -48 125 -53 141 -12 262 -27 330 -42 41 -9 86 -19 100 -22 14 -2 34 -8 45 -13 11 -4 46 -14 78 -21 71 -15 97 -5 122 48 9 21 25 47 35 58 30 35 79 203 65 225 -4 6 -100 10 -281 10 l-274 0 0 35 c0 29 -5 36 -34 50 -19 9 -42 15 -53 13 -15 -2 -18 3 -15 32 1 19 9 54 18 77 8 23 14 55 12 70 -3 25 -7 28 -38 26 -19 0 -56 -4 -82 -8 -47 -7 -48 -7 -48 18 0 30 -44 118 -65 130 -8 4 -15 12 -15 17 0 12 -62 100 -71 100 -3 0 -18 17 -33 39 -21 30 -37 41 -74 51 -26 6 -55 16 -64 21 -10 5 -51 9 -91 9 -74 0 -132 13 -154 36 -8 7 -29 10 -57 7 -25 -3 -65 -1 -88 5 -24 6 -105 12 -181 13 l-137 1 0 249 0 249 60 0 c41 0 61 4 67 14 4 8 17 14 28 13 14 -1 20 4 20 19 1 11 11 33 23 49 31 39 44 90 40 160 -3 57 -5 60 -45 89 -43 30 -96 44 -196 53 -63 5 -97 -12 -97 -49 0 -10 -7 -18 -16 -18 -9 0 -18 -8 -21 -18 -4 -18 -7 -18 -91 0 -48 10 -154 23 -237 28 -82 5 -197 18 -255 29 -58 10 -149 22 -202 26 -67 5 -98 11 -98 20 0 6 -10 20 -21 31 -12 10 -28 34 -36 52 -7 17 -18 32 -24 32 -6 0 -22 9 -36 20 -16 13 -41 20 -67 20 -23 0 -48 6 -55 13 -10 10 -15 8 -29 -10 -9 -12 -30 -27 -46 -33 -25 -9 -28 -8 -21 7 12 29 11 46 -3 50 -7 3 -18 -10 -27 -29z m2596 -1768 c12 0 19 -7 19 -20 0 -16 -7 -20 -35 -20 -31 0 -35 3 -35 26 0 20 4 25 16 20 9 -3 24 -6 35 -6z"/>
</g>
<g id="layer102" fill="#352417" stroke="none">
<path d="M175 2938 c-7 -19 -21 -40 -29 -47 -23 -19 -37 -80 -38 -164 0 -67 2 -78 31 -117 17 -24 31 -49 31 -55 0 -19 39 -41 100 -55 96 -22 90 2 90 -364 0 -251 -3 -333 -15 -376 -15 -57 -18 -127 -6 -169 6 -24 6 -24 146 -23 l140 2 -52 -32 c-29 -18 -53 -40 -53 -49 0 -22 -32 -49 -37 -31 -3 6 -9 12 -14 12 -6 0 -7 -4 -4 -10 3 -5 0 -10 -8 -10 -8 0 -17 -7 -21 -15 -3 -8 -9 -15 -13 -14 -21 3 -31 -3 -41 -26 -17 -37 -15 -75 4 -75 18 0 11 -35 -14 -62 -24 -29 -23 -75 4 -108 30 -35 30 -41 -2 -75 -32 -35 -43 -64 -46 -121 -1 -25 -5 -47 -10 -50 -4 -3 -15 -19 -24 -35 -11 -23 -12 -34 -4 -44 8 -9 8 -15 0 -20 -15 -9 -12 -48 5 -71 8 -10 15 -28 15 -39 0 -11 7 -29 15 -39 8 -10 11 -24 8 -30 -14 -22 -10 -52 13 -108 28 -68 75 -138 103 -156 12 -7 21 -19 21 -27 0 -8 11 -17 24 -21 14 -3 32 -14 42 -25 9 -10 23 -19 31 -19 15 0 34 -14 61 -43 24 -26 61 -44 105 -51 32 -5 44 -1 73 21 l35 26 36 -41 c32 -37 42 -42 77 -42 44 1 135 28 160 49 8 7 20 10 26 6 19 -12 138 66 149 97 6 15 17 28 25 28 9 0 19 12 22 28 4 15 16 33 26 41 27 19 46 73 51 146 1 12 9 32 19 46 33 51 6 273 -39 317 -8 8 -13 36 -13 68 0 30 -7 71 -15 91 -8 19 -15 49 -15 65 0 16 -12 55 -26 86 -39 85 -45 102 -34 102 26 0 2 74 -30 97 -16 12 -120 158 -120 169 0 8 213 -7 315 -21 50 -8 93 -10 97 -7 4 4 8 45 10 92 l3 84 40 9 c62 13 476 4 500 -10 11 -7 59 -26 107 -42 169 -58 160 -46 245 -333 3 -10 0 -18 -6 -18 -20 0 -51 -82 -51 -137 0 -44 4 -54 23 -64 12 -7 39 -26 60 -42 32 -27 37 -36 37 -73 0 -33 -3 -42 -14 -38 -18 7 -29 -11 -21 -36 8 -27 58 -48 125 -53 141 -12 262 -27 330 -42 41 -9 86 -19 100 -22 14 -2 34 -8 45 -13 11 -4 46 -14 78 -21 71 -15 97 -5 122 48 9 21 25 47 35 58 30 35 79 203 65 225 -4 6 -100 10 -281 10 l-274 0 0 35 c0 29 -5 36 -34 50 -19 9 -42 15 -53 13 -15 -2 -18 3 -15 32 1 19 9 54 18 77 8 23 14 55 12 70 -3 25 -7 28 -38 26 -19 0 -56 -4 -82 -8 -47 -7 -48 -7 -48 18 0 30 -44 118 -65 130 -8 4 -15 12 -15 17 0 12 -62 100 -71 100 -3 0 -18 17 -33 39 -21 30 -37 41 -74 51 -26 6 -55 16 -64 21 -10 5 -51 9 -91 9 -74 0 -132 13 -154 36 -8 7 -29 10 -57 7 -25 -3 -65 -1 -88 5 -24 6 -105 12 -181 13 l-137 1 0 249 0 249 60 0 c41 0 61 4 67 14 4 8 17 14 28 13 14 -1 20 4 20 19 1 11 11 33 23 49 31 39 44 90 40 160 -3 57 -5 60 -45 89 -43 30 -96 44 -196 53 -63 5 -97 -12 -97 -49 0 -10 -7 -18 -16 -18 -9 0 -18 -8 -21 -18 -4 -18 -7 -18 -91 0 -48 10 -154 23 -237 28 -82 5 -197 18 -255 29 -58 10 -149 22 -202 26 -67 5 -98 11 -98 20 0 6 -10 20 -21 31 -12 10 -28 34 -36 52 -7 17 -18 32 -24 32 -6 0 -22 9 -36 20 -16 13 -41 20 -67 20 -23 0 -48 6 -55 13 -10 10 -15 8 -29 -10 -9 -12 -30 -27 -46 -33 -25 -9 -28 -8 -21 7 12 29 11 46 -3 50 -7 3 -18 -10 -27 -29z m2596 -1768 c12 0 19 -7 19 -20 0 -16 -7 -20 -35 -20 -31 0 -35 3 -35 26 0 20 4 25 16 20 9 -3 24 -6 35 -6z m-2105 -241 c1 -8 2 -22 3 -32 1 -12 5 -16 14 -11 8 5 7 2 -2 -9 -8 -10 -14 -16 -15 -15 -1 2 -8 12 -16 22 -10 13 -10 17 -2 12 14 -8 12 19 -2 43 -6 9 -5 12 5 9 8 -3 15 -11 15 -19z m418 -71 c-4 -13 -13 -32 -21 -43 -13 -19 -14 -18 -9 8 5 26 22 57 33 57 2 0 1 -10 -3 -22z m-549 -37 c-15 -15 -16 -15 -9 2 3 10 1 17 -5 17 -6 0 -11 4 -11 10 0 5 7 7 15 4 9 -4 15 0 16 7 1 8 3 6 6 -5 3 -10 -3 -26 -12 -35z m-64 -17 c5 -6 3 -18 -7 -30 -14 -18 -14 -18 -3 5 9 20 9 23 -3 19 -15 -6 -44 29 -33 40 3 4 10 0 15 -8 8 -12 10 -11 11 5 l1 20 5 -20 c3 -11 9 -25 14 -31z m-94 1 c1 -19 -3 -33 -7 -30 -5 3 -11 -1 -13 -7 -3 -8 -6 -6 -6 5 -1 9 -5 17 -10 17 -5 0 -11 10 -14 21 -4 17 -3 19 6 10 15 -15 27 -14 27 4 0 32 16 13 17 -20z m463 -33 c0 -4 16 -7 35 -6 32 2 35 0 29 -18 -4 -14 -2 -18 5 -14 7 5 9 1 5 -8 -8 -20 -23 -20 -30 -1 -4 8 -9 13 -13 11 -13 -7 -51 14 -51 29 0 8 5 15 10 15 6 0 10 -3 10 -8z m193 -20 c-4 -10 -8 -12 -11 -4 -2 7 -8 12 -13 12 -6 0 -7 -4 -4 -10 3 -5 -1 -10 -9 -10 -21 0 -20 10 1 25 22 16 44 8 36 -13z m-669 -3 c14 11 16 11 16 -4 0 -10 -3 -15 -7 -12 -3 4 -13 1 -22 -7 -14 -13 -16 -12 -18 11 -1 18 2 22 7 13 7 -11 11 -11 24 -1z m206 1 c5 9 9 9 14 1 4 -6 2 -11 -5 -11 -7 0 -9 -3 -6 -6 3 -4 2 -15 -4 -26 -8 -14 -7 -24 2 -36 11 -14 11 -15 -1 -5 -11 10 -17 10 -29 0 -12 -9 -12 -6 2 16 10 15 14 27 10 27 -5 0 -13 11 -19 25 -11 23 -11 24 8 14 15 -8 22 -8 28 1z m-97 -41 c-6 -21 12 -27 20 -6 3 6 4 2 4 -10 -1 -13 -5 -23 -10 -23 -4 0 -5 -4 -2 -10 3 -5 1 -10 -5 -10 -6 0 -2 -13 10 -30 12 -16 17 -30 11 -30 -6 0 -11 5 -11 10 0 6 -8 10 -17 8 -15 -3 -17 4 -16 42 1 25 2 59 2 75 1 21 4 26 10 16 5 -7 6 -22 4 -32z m693 -2 c-11 -32 -16 -37 -36 -37 -14 0 15 57 32 63 7 3 14 6 14 6 1 1 -3 -14 -10 -32z m-779 -23 c-1 -24 3 -39 12 -42 8 -3 11 0 7 7 -4 6 -2 11 3 11 18 0 12 -18 -11 -34 -12 -9 -17 -16 -10 -16 6 0 12 -4 12 -10 0 -5 -7 -7 -15 -4 -11 5 -15 22 -15 65 0 32 4 59 10 59 5 0 8 -16 7 -36z m552 -13 c-15 -5 -22 6 -14 19 6 9 10 9 16 -1 5 -8 4 -15 -2 -18z m-231 -47 c1 -1 -5 -4 -16 -6 -12 -4 -18 1 -19 14 -2 17 0 18 15 7 9 -8 18 -14 20 -15z m387 -54 c3 -5 1 -10 -5 -10 -6 0 -8 -4 -5 -10 3 -5 2 -10 -3 -10 -10 0 -21 19 -18 32 0 4 -8 14 -19 23 -18 15 -17 15 12 1 17 -9 35 -20 38 -26z m-699 -19 c-4 -5 -13 -8 -21 -4 -8 3 -15 -1 -15 -8 0 -7 -2 -10 -5 -7 -3 3 0 17 6 32 11 23 14 25 27 12 8 -8 11 -19 8 -25z m414 30 c0 -5 9 -7 20 -4 11 3 28 2 37 -2 10 -5 26 -7 36 -6 21 3 23 -15 2 -23 -12 -4 -14 -10 -5 -25 15 -28 13 -31 -16 -29 -18 2 -24 7 -21 19 3 12 0 16 -9 12 -8 -3 -14 0 -14 7 0 10 -3 10 -14 1 -25 -21 -49 17 -37 57 2 7 21 1 21 -7z m245 -30 c3 -5 1 -12 -5 -16 -5 -3 -10 -2 -10 4 0 6 -7 8 -15 5 -8 -4 -15 -1 -15 5 0 13 36 15 45 2z m-100 -102 c-5 -16 -4 -19 5 -14 9 5 11 4 6 -3 -5 -9 -13 -9 -27 -2 -16 9 -17 13 -7 25 19 21 30 18 23 -6z m-56 -49 c6 0 11 -5 11 -11 0 -7 -10 -9 -27 -4 -35 8 -37 10 -29 32 7 17 8 17 20 1 7 -10 18 -18 25 -18z m66 -70 c-4 -11 -2 -20 4 -20 6 0 11 -4 11 -9 0 -5 -14 -2 -32 6 -29 15 -30 17 -13 30 27 19 37 16 30 -7z m-100 -42 c-19 -11 -30 -5 -21 11 4 6 14 7 22 4 15 -5 14 -7 -1 -15z m111 -74 c-6 -21 -4 -25 8 -21 9 4 16 2 16 -3 0 -13 -26 -13 -52 1 -19 10 -19 11 -1 29 26 27 36 24 29 -6z"/>
</g>
<g id="layer103" fill="#5e4f40" stroke="none">
<path d="M175 2938 c-7 -19 -21 -40 -29 -47 -23 -19 -37 -80 -38 -164 0 -67 2 -78 31 -117 17 -24 31 -49 31 -55 0 -19 39 -41 100 -55 96 -22 90 2 90 -364 0 -251 -3 -333 -15 -376 -15 -57 -18 -127 -6 -169 6 -24 6 -24 146 -23 l140 2 -52 -32 c-29 -18 -53 -40 -53 -49 0 -22 -32 -49 -37 -31 -3 6 -9 12 -14 12 -6 0 -7 -4 -4 -10 3 -5 0 -10 -8 -10 -8 0 -17 -7 -21 -15 -3 -8 -9 -15 -13 -14 -21 3 -31 -3 -41 -26 -17 -37 -15 -75 4 -75 18 0 11 -35 -14 -62 -24 -29 -23 -75 4 -108 28 -33 30 -43 7 -66 -21 -20 -27 -95 -10 -119 18 -24 67 -11 67 19 0 11 5 28 11 36 8 11 9 8 4 -15 -8 -42 14 -72 42 -57 11 6 22 9 25 7 2 -2 5 5 5 17 1 12 6 25 11 30 5 5 7 -4 4 -21 -5 -39 14 -48 49 -22 24 18 29 19 29 6 0 -9 4 -13 10 -10 6 4 5 13 -2 25 -7 11 -9 23 -5 27 5 4 12 1 17 -7 7 -11 10 -6 11 20 1 19 3 27 6 18 2 -10 8 -18 13 -18 20 0 40 13 40 27 0 8 4 12 9 9 8 -6 20 -75 27 -165 2 -24 10 -51 19 -61 18 -20 110 -44 145 -37 14 3 39 9 56 12 38 8 94 57 95 82 0 10 3 27 5 38 3 11 7 46 11 78 l6 58 24 -41 c14 -23 22 -44 19 -47 -3 -4 -1 -12 5 -20 9 -10 8 -17 -2 -30 -10 -11 -10 -14 -1 -9 25 15 13 -56 -15 -86 -15 -15 -22 -28 -15 -28 6 0 9 -7 6 -15 -4 -8 -10 -12 -15 -9 -5 3 -9 -2 -9 -11 0 -8 -7 -18 -15 -21 -18 -7 -20 -34 -2 -34 6 -1 -1 -8 -16 -16 -16 -9 -35 -13 -43 -10 -8 3 -14 2 -14 -3 0 -5 -8 -11 -17 -15 -10 -3 -23 -9 -30 -12 -6 -3 -26 8 -43 25 -31 29 -33 29 -56 14 -22 -14 -26 -14 -43 1 -9 9 -23 16 -29 16 -7 0 -12 9 -12 20 0 18 -15 25 -42 21 -4 0 -10 8 -13 19 -4 12 -17 28 -31 36 -16 11 -24 26 -25 48 l-1 31 -9 -30 c-7 -24 -5 -33 10 -45 12 -10 20 -34 23 -69 6 -64 24 -84 100 -111 114 -40 260 -11 334 66 22 23 51 166 57 279 l2 50 16 -36 c10 -20 22 -40 28 -43 6 -4 11 -19 11 -33 0 -14 8 -32 18 -40 9 -8 11 -12 5 -8 -16 8 -16 0 -2 -26 8 -15 7 -24 -2 -35 -10 -12 -9 -13 4 -8 13 4 15 0 12 -23 -2 -15 -4 -38 -4 -50 -1 -12 -13 -34 -28 -47 -19 -18 -28 -37 -30 -62 -1 -21 -7 -42 -13 -48 -8 -8 -9 -6 -4 8 5 13 4 17 -4 12 -7 -4 -12 -13 -12 -21 0 -8 -10 -21 -21 -29 -13 -9 -19 -21 -16 -30 7 -17 37 -22 37 -6 0 6 6 10 14 10 19 0 66 75 66 105 0 14 6 40 13 58 19 46 16 193 -5 237 -9 19 -19 58 -22 85 -5 49 -5 49 9 20 8 -16 14 -35 15 -41 0 -6 9 -19 20 -29 11 -10 20 -24 20 -30 0 -7 7 -18 15 -25 20 -16 20 -44 0 -36 -13 5 -13 1 0 -30 8 -19 11 -42 8 -51 -4 -10 -2 -14 4 -10 8 5 11 -13 11 -53 -1 -56 -4 -63 -39 -101 -22 -23 -39 -44 -39 -46 0 -3 10 -13 23 -23 l22 -19 -23 6 c-16 4 -21 2 -17 -9 3 -7 -1 -22 -9 -33 -14 -19 -15 -19 -10 5 4 25 4 25 -7 2 -7 -12 -16 -22 -21 -22 -4 0 -8 -7 -8 -15 0 -8 -9 -19 -20 -25 -11 -6 -20 -17 -20 -24 0 -18 31 -30 40 -15 6 8 9 7 13 -2 4 -10 6 -10 6 2 1 9 10 19 21 22 11 3 28 19 37 36 25 44 52 42 49 -4 -3 -38 -16 -61 -16 -29 0 16 -2 15 -16 -6 -10 -14 -24 -31 -32 -37 -13 -11 -13 -13 -1 -13 8 0 4 -9 -13 -23 -15 -12 -28 -33 -30 -46 -3 -20 2 -24 29 -26 27 -2 33 2 42 26 5 16 17 29 25 29 9 0 19 12 22 28 4 15 16 33 26 41 27 19 46 73 51 146 1 12 9 32 19 46 33 51 6 273 -39 317 -8 8 -13 36 -13 68 0 30 -7 71 -15 91 -8 19 -15 49 -15 65 0 16 -12 55 -26 86 -39 85 -45 102 -34 102 26 0 2 74 -30 97 -16 12 -120 158 -120 169 0 8 213 -7 315 -21 50 -8 93 -10 97 -7 4 4 8 45 10 92 l3 84 40 9 c62 13 476 4 500 -10 11 -7 59 -26 107 -42 169 -58 160 -46 245 -333 3 -10 0 -18 -6 -18 -20 0 -51 -82 -51 -137 0 -44 4 -54 23 -64 12 -7 39 -26 60 -42 32 -27 37 -36 37 -73 0 -33 -3 -42 -14 -38 -18 7 -29 -11 -21 -36 8 -27 58 -48 125 -53 141 -12 262 -27 330 -42 41 -9 86 -19 100 -22 14 -2 34 -8 45 -13 11 -4 46 -14 78 -21 71 -15 97 -5 122 48 9 21 25 47 35 58 30 35 79 203 65 225 -4 6 -100 10 -281 10 l-274 0 0 35 c0 29 -5 36 -34 50 -19 9 -42 15 -53 13 -15 -2 -18 3 -15 32 1 19 9 54 18 77 8 23 14 55 12 70 -3 25 -7 28 -38 26 -19 0 -56 -4 -82 -8 -47 -7 -48 -7 -48 18 0 30 -44 118 -65 130 -8 4 -15 12 -15 17 0 12 -62 100 -71 100 -3 0 -18 17 -33 39 -21 30 -37 41 -74 51 -26 6 -55 16 -64 21 -10 5 -51 9 -91 9 -74 0 -132 13 -154 36 -8 7 -29 10 -57 7 -25 -3 -65 -1 -88 5 -24 6 -105 12 -181 13 l-137 1 0 249 0 249 60 0 c41 0 61 4 67 14 4 8 17 14 28 13 14 -1 20 4 20 19 1 11 11 33 23 49 31 39 44 90 40 160 -3 57 -5 60 -45 89 -43 30 -96 44 -196 53 -63 5 -97 -12 -97 -49 0 -10 -7 -18 -16 -18 -9 0 -18 -8 -21 -18 -4 -18 -7 -18 -91 0 -48 10 -154 23 -237 28 -82 5 -197 18 -255 29 -58 10 -149 22 -202 26 -67 5 -98 11 -98 20 0 6 -10 20 -21 31 -12 10 -28 34 -36 52 -7 17 -18 32 -24 32 -6 0 -22 9 -36 20 -16 13 -41 20 -67 20 -23 0 -48 6 -55 13 -10 10 -15 8 -29 -10 -9 -12 -30 -27 -46 -33 -25 -9 -28 -8 -21 7 12 29 11 46 -3 50 -7 3 -18 -10 -27 -29z m337 -1548 c-2 -21 -13 -41 -28 -52 -13 -11 -24 -25 -24 -31 0 -7 8 -3 16 8 11 14 18 16 21 8 3 -7 18 -13 35 -13 25 0 29 3 25 20 -3 13 0 20 10 20 12 0 14 -11 11 -52 -3 -52 -2 -53 26 -56 23 -3 28 0 23 12 -4 9 -2 16 3 16 6 0 10 -22 10 -49 0 -39 -4 -51 -18 -55 -10 -4 -28 -25 -39 -49 -18 -35 -22 -39 -28 -23 -5 11 -3 21 5 26 7 4 10 12 7 17 -4 6 0 19 8 29 20 27 18 34 -7 34 -19 0 -20 2 -8 11 12 8 12 10 -5 7 -12 -2 -29 -22 -45 -53 -14 -28 -26 -52 -27 -54 -4 -7 -10 2 -17 27 -6 16 -3 22 9 22 11 0 14 6 10 23 -4 15 1 32 14 49 18 22 18 27 6 32 -31 11 -62 -12 -84 -63 -22 -53 -41 -59 -41 -15 0 15 6 24 15 24 12 0 14 7 9 26 -5 18 0 34 16 56 23 32 17 47 -20 48 -13 0 -13 2 -1 9 8 5 12 15 9 22 -4 10 5 14 34 15 38 0 63 18 51 37 -3 5 0 7 8 5 9 -3 13 -16 11 -38z m764 -30 c8 -18 7 -32 -3 -50 -14 -24 -14 -24 -8 13 4 27 3 37 -4 32 -6 -3 -11 0 -11 9 0 8 -3 23 -6 33 -6 16 -5 16 8 3 8 -8 19 -26 24 -40z m-63 -68 c11 -21 11 -32 2 -50 -12 -22 -12 -21 -18 15 -3 21 -8 47 -13 57 -11 29 13 10 29 -22z m-43 -94 c0 -21 -24 0 -31 28 l-8 29 19 -24 c11 -13 20 -28 20 -33z m-468 -44 c-18 -26 -33 -40 -37 -34 -4 6 1 23 11 37 12 19 13 28 6 31 -7 2 -12 10 -12 18 0 9 4 12 10 9 5 -3 18 -2 27 4 30 17 27 -15 -5 -65z m627 -4 c10 -24 10 -34 1 -45 -20 -24 -25 -18 -26 30 -2 53 6 57 25 15z m1442 20 c12 0 19 -7 19 -20 0 -16 -7 -20 -35 -20 -31 0 -35 3 -35 26 0 20 4 25 16 20 9 -3 24 -6 35 -6z m-1513 -89 c-6 -30 -23 -19 -24 15 -1 33 1 35 13 18 7 -10 12 -25 11 -33z m-62 -30 c-12 -18 -21 -12 -21 14 0 20 2 22 14 11 7 -8 10 -19 7 -25z m119 -34 c4 -17 16 -42 27 -54 12 -12 18 -29 15 -37 -4 -9 -2 -16 3 -16 6 0 10 -8 10 -17 0 -9 7 -25 17 -35 10 -11 12 -18 4 -18 -9 0 -9 -5 1 -22 7 -13 11 -26 10 -30 -1 -5 3 -8 8 -8 6 0 3 -15 -6 -32 -14 -28 -15 -31 -2 -20 13 10 17 10 22 -3 3 -8 2 -15 -3 -15 -5 0 -11 -9 -14 -20 -3 -11 0 -20 5 -20 6 0 6 -5 -1 -14 -7 -8 -11 -20 -10 -28 1 -7 -1 -21 -6 -32 -10 -24 -73 -92 -79 -86 -2 3 2 37 11 75 9 39 16 117 17 175 0 88 -3 112 -21 150 -23 48 -41 156 -24 146 5 -4 13 -21 16 -39z"/>
<path d="M340 1026 c-5 -15 -11 -47 -12 -72 -1 -25 -5 -47 -10 -50 -4 -3 -15 -19 -24 -35 -11 -23 -12 -34 -4 -44 8 -9 8 -15 0 -20 -15 -9 -12 -48 5 -71 8 -10 15 -28 15 -39 0 -11 7 -29 15 -39 8 -10 11 -24 8 -30 -14 -22 -10 -52 13 -108 28 -68 75 -138 103 -156 12 -7 21 -19 21 -27 0 -8 11 -17 24 -21 14 -3 32 -14 42 -25 9 -10 23 -19 31 -19 15 0 34 -14 61 -43 24 -26 61 -44 105 -51 32 -5 44 -1 73 21 l35 26 36 -41 c32 -37 42 -42 77 -42 44 1 135 28 160 49 8 7 20 10 26 6 11 -7 125 54 117 62 -3 2 -28 -7 -56 -22 -40 -20 -56 -23 -71 -15 -27 15 -34 13 -45 -12 -6 -13 -21 -25 -35 -27 -14 -1 -27 -7 -30 -12 -7 -10 -31 -13 -75 -10 -22 1 -36 11 -52 37 -13 20 -23 40 -23 45 0 6 -5 7 -10 4 -6 -4 -18 -1 -26 6 -11 9 -20 9 -41 0 -21 -10 -28 -9 -34 1 -6 9 -9 6 -9 -9 0 -28 -37 -51 -46 -29 -3 8 -14 18 -25 21 -10 4 -19 13 -19 20 0 8 -13 15 -32 17 -29 3 -33 7 -34 35 -3 55 -11 66 -44 59 -18 -3 -30 -1 -30 5 0 6 -9 8 -20 4 -17 -5 -23 1 -36 31 -9 21 -39 60 -68 87 -49 48 -51 51 -52 106 0 31 -6 66 -12 78 -7 12 -12 31 -12 42 0 12 -4 21 -9 21 -12 0 -3 98 12 124 12 22 13 29 26 121 10 67 7 81 -9 41z"/>
<path d="M395 880 c-4 -6 -8 -30 -9 -53 l-3 -42 13 30 c7 17 10 38 7 49 -4 13 -2 16 7 11 9 -5 11 -4 6 3 -9 15 -13 15 -21 2z"/>
<path d="M489 883 c0 -5 -2 -22 -5 -40 -2 -18 0 -34 4 -36 4 -3 8 15 10 39 1 24 0 44 -3 44 -3 0 -5 -3 -6 -7z"/>
<path d="M510 725 c1 -26 2 -28 11 -12 8 14 8 22 0 30 -8 8 -11 3 -11 -18z"/>
<path d="M414 717 c3 -10 6 -37 7 -60 l1 -42 8 35 c6 25 4 42 -6 60 -9 14 -13 17 -10 7z"/>
<path d="M518 665 c-3 -3 -3 -16 -1 -29 3 -16 11 -23 22 -21 9 2 25 -3 36 -11 10 -8 14 -14 9 -14 -6 0 -15 5 -22 12 -9 9 -12 8 -12 -5 0 -9 5 -17 11 -17 6 0 9 -7 5 -15 -4 -10 1 -15 14 -15 11 0 24 -8 29 -19 7 -13 18 -17 38 -14 20 3 24 2 14 -5 -11 -8 -6 -15 22 -33 20 -13 37 -29 37 -35 0 -6 6 -11 13 -12 6 0 27 -3 45 -6 19 -2 45 -1 58 4 28 11 54 3 54 -16 0 -9 10 -14 28 -13 26 0 26 1 5 9 -13 5 -23 14 -23 19 0 5 -14 20 -32 32 -17 13 -28 18 -24 11 9 -15 1 -15 -24 -2 -14 7 -19 5 -23 -10 -7 -26 -18 -25 -48 3 -14 12 -30 22 -37 23 -44 4 -47 5 -35 12 20 13 8 46 -20 53 -15 4 -27 5 -27 2 0 -4 -9 2 -20 12 -11 10 -18 21 -15 25 5 9 -69 82 -77 75z"/>
<path d="M433 582 c1 -16 13 -33 32 -45 16 -10 22 -17 12 -13 -15 5 -16 3 -7 -14 6 -11 9 -20 7 -20 -3 0 13 -18 35 -40 22 -22 46 -40 54 -40 7 0 16 -4 19 -10 3 -5 17 -10 31 -10 21 0 24 4 20 28 -2 15 -5 31 -5 35 -1 4 -16 5 -34 2 -28 -5 -39 -2 -65 23 -30 29 -43 50 -22 37 24 -15 6 10 -35 49 -42 40 -44 41 -42 18z"/>
<path d="M1034 433 c-10 -7 -13 -13 -7 -13 7 0 14 4 18 10 3 5 12 7 19 4 8 -3 16 -2 19 3 8 14 -30 10 -49 -4z"/>
<path d="M615 371 c3 -6 11 -11 17 -11 5 0 31 -17 57 -39 25 -21 51 -37 56 -35 6 1 23 5 38 8 15 4 26 10 23 14 -6 10 62 8 71 -2 5 -4 8 -13 8 -19 0 -7 14 -13 30 -14 25 -2 27 -1 10 6 -11 5 -29 23 -40 40 -16 25 -25 30 -43 26 -12 -3 -30 -1 -40 4 -14 7 -21 5 -30 -10 -16 -26 -28 -24 -60 9 -18 18 -40 28 -66 30 -25 2 -36 -1 -31 -7z"/>
<path d="M1062 335 c3 -17 -1 -21 -54 -46 -16 -7 -26 -14 -24 -16 2 -3 12 0 23 5 10 6 38 16 63 23 44 12 83 33 43 23 -12 -3 -27 2 -37 12 -17 16 -17 16 -14 -1z"/>
</g>
<g id="layer104" fill="#b7462f" stroke="none">
<path d="M175 2938 c-7 -19 -21 -40 -29 -47 -23 -19 -37 -80 -38 -164 0 -67 2 -78 31 -117 17 -24 31 -49 31 -55 0 -19 39 -41 100 -55 96 -22 90 2 90 -364 0 -251 -3 -333 -15 -376 -15 -57 -18 -127 -6 -169 6 -24 6 -24 146 -23 l140 2 -52 -32 c-29 -18 -53 -40 -53 -49 0 -22 -32 -49 -37 -31 -3 6 -9 12 -14 12 -6 0 -7 -4 -4 -10 3 -5 0 -10 -8 -10 -8 0 -17 -7 -21 -15 -3 -8 -9 -15 -13 -14 -22 4 -32 -4 -43 -30 -7 -17 -10 -36 -7 -43 3 -7 6 -4 6 8 1 27 30 64 37 47 8 -19 37 -16 30 2 -4 13 -2 14 14 5 17 -9 20 -8 20 8 0 12 9 22 21 25 20 5 21 3 17 -48 -3 -40 -1 -56 9 -59 8 -3 11 -1 8 4 -3 6 -3 10 2 11 4 0 16 2 26 4 16 3 18 -3 16 -51 -1 -30 1 -57 4 -61 4 -3 7 -1 7 6 0 8 6 11 16 7 8 -3 13 -2 10 3 -3 5 3 11 14 14 19 5 20 2 14 -46 -5 -35 -14 -57 -27 -66 -10 -7 -27 -31 -37 -53 -11 -24 -20 -35 -25 -28 -10 16 -14 60 -5 60 6 0 30 44 30 55 0 3 -7 5 -15 5 -8 0 -15 6 -15 12 0 16 -45 -50 -54 -80 -4 -13 -13 -21 -19 -19 -21 6 -19 63 2 98 27 43 26 49 -3 49 -19 0 -28 -10 -47 -55 -25 -58 -45 -70 -54 -32 -9 34 -1 63 27 106 29 44 27 52 -11 50 -18 -1 -20 -3 -8 -6 20 -5 15 -36 -11 -65 -24 -29 -23 -75 4 -108 30 -35 30 -41 -2 -75 -32 -34 -42 -62 -46 -117 -1 -25 -12 -57 -25 -77 -25 -36 -26 -52 -4 -59 9 -3 11 2 6 17 -4 14 0 32 12 49 10 15 18 34 19 42 7 93 33 158 32 79 0 -48 9 -61 40 -52 15 4 25 16 29 35 9 44 23 44 23 -1 0 -34 3 -41 20 -41 19 0 28 7 55 45 13 19 14 19 12 -10 -1 -21 3 -30 16 -33 18 -4 57 31 57 51 0 5 7 7 15 3 11 -4 15 3 16 27 1 23 3 26 6 9 5 -27 29 -29 45 -2 7 11 16 20 19 20 7 0 16 -52 27 -157 4 -34 10 -64 12 -66 38 -34 145 -48 206 -27 51 18 97 111 88 177 -4 25 -3 34 4 25 13 -19 22 7 22 64 0 24 5 44 10 44 6 0 10 -3 11 -7 0 -5 2 -16 4 -25 2 -10 0 -18 -4 -18 -5 0 -6 -12 -3 -27 5 -25 6 -25 13 -8 7 18 8 17 8 -6 1 -28 22 -79 34 -79 4 0 7 27 7 61 0 45 3 58 13 53 9 -6 9 -4 -1 8 -10 12 -10 18 -1 23 14 9 29 -12 29 -42 0 -12 3 -30 6 -40 6 -16 5 -16 -10 2 -16 19 -16 19 -10 -10 17 -78 28 -52 37 89 3 48 17 56 34 19 16 -34 16 -38 -1 -56 -11 -11 -12 -24 -6 -52 12 -54 30 -68 32 -24 1 18 3 45 4 59 1 14 2 43 3 65 1 30 4 36 11 25 5 -8 10 -12 10 -7 0 4 -6 16 -12 27 -16 25 4 52 23 33 14 -14 26 -118 12 -110 -5 3 -15 2 -23 -3 -12 -7 -12 -10 3 -16 11 -4 17 -17 17 -40 0 -23 6 -38 20 -46 11 -7 20 -22 20 -33 0 -11 4 -26 8 -32 13 -21 1 120 -14 156 -8 18 -14 47 -14 63 0 16 -12 55 -26 86 -40 86 -44 100 -33 106 5 2 4 3 -3 2 -7 -2 -12 -11 -12 -20 1 -9 -2 -16 -6 -16 -11 0 -20 27 -20 61 0 17 -5 40 -11 51 -18 34 12 17 39 -22 23 -35 30 -33 10 3 -6 12 -19 27 -28 34 -16 12 -120 158 -120 169 0 8 213 -7 315 -21 50 -8 93 -10 97 -7 4 4 8 45 10 92 l3 84 40 9 c62 13 476 4 500 -10 11 -7 59 -26 107 -42 169 -58 160 -46 245 -333 3 -10 0 -18 -6 -18 -20 0 -51 -82 -51 -137 0 -44 4 -54 23 -64 12 -7 39 -26 60 -42 32 -27 37 -36 37 -73 0 -33 -3 -42 -14 -38 -18 7 -29 -11 -21 -36 8 -27 58 -48 125 -53 141 -12 262 -27 330 -42 41 -9 86 -19 100 -22 14 -2 34 -8 45 -13 11 -4 46 -14 78 -21 71 -15 97 -5 122 48 9 21 25 47 35 58 30 35 79 203 65 225 -4 6 -100 10 -281 10 l-274 0 0 35 c0 29 -5 36 -34 50 -19 9 -42 15 -53 13 -15 -2 -18 3 -15 32 1 19 9 54 18 77 8 23 14 55 12 70 -3 25 -7 28 -38 26 -19 0 -56 -4 -82 -8 -47 -7 -48 -7 -48 18 0 30 -44 118 -65 130 -8 4 -15 12 -15 17 0 12 -62 100 -71 100 -3 0 -18 17 -33 39 -21 30 -37 41 -74 51 -26 6 -55 16 -64 21 -10 5 -51 9 -91 9 -74 0 -132 13 -154 36 -8 7 -29 10 -57 7 -25 -3 -65 -1 -88 5 -24 6 -105 12 -181 13 l-137 1 0 249 0 249 60 0 c41 0 61 4 67 14 4 8 17 14 28 13 14 -1 20 4 20 19 1 11 11 33 23 49 31 39 44 90 40 160 -3 57 -5 60 -45 89 -43 30 -96 44 -196 53 -63 5 -97 -12 -97 -49 0 -10 -7 -18 -16 -18 -9 0 -18 -8 -21 -18 -4 -18 -7 -18 -91 0 -48 10 -154 23 -237 28 -82 5 -197 18 -255 29 -58 10 -149 22 -202 26 -67 5 -98 11 -98 20 0 6 -10 20 -21 31 -12 10 -28 34 -36 52 -7 17 -18 32 -24 32 -6 0 -22 9 -36 20 -16 13 -41 20 -67 20 -23 0 -48 6 -55 13 -10 10 -15 8 -29 -10 -9 -12 -30 -27 -46 -33 -25 -9 -28 -8 -21 7 12 29 11 46 -3 50 -7 3 -18 -10 -27 -29z m892 -1317 c63 -64 136 -151 131 -157 -3 -2 -13 7 -22 21 -9 14 -21 25 -27 25 -13 0 -2 -39 17 -61 8 -9 11 -19 7 -22 -3 -4 -1 -7 7 -7 9 0 11 -9 6 -30 -3 -17 -2 -29 3 -26 5 3 11 -3 14 -14 3 -11 0 -20 -6 -20 -6 0 -7 -3 -4 -6 4 -4 12 -2 20 4 10 8 13 6 14 -9 1 -11 -2 -17 -7 -14 -6 3 -7 -1 -4 -9 3 -9 10 -14 14 -11 5 3 6 -4 3 -15 -3 -11 -10 -20 -15 -20 -6 0 -8 -7 -4 -15 3 -8 1 -15 -5 -15 -10 0 -11 1 -26 67 -7 30 -7 44 1 47 7 3 7 7 -2 14 -7 5 -14 20 -16 33 -2 24 -25 80 -37 89 -12 10 -56 86 -64 110 -4 14 -19 37 -33 53 -40 42 -8 32 35 -12z m-6 -146 c27 -34 46 -65 43 -67 -3 -3 4 -25 15 -49 10 -24 22 -55 25 -69 3 -14 3 -19 0 -11 -5 11 -8 11 -15 0 -7 -11 -9 -9 -10 6 -1 37 -7 56 -26 82 -10 14 -34 56 -54 92 -19 36 -46 72 -60 78 -16 9 -19 13 -8 13 9 0 20 10 24 23 7 21 8 21 12 -7 3 -15 27 -56 54 -91z m-39 -85 c14 -19 33 -55 41 -78 15 -44 15 -44 -4 -23 -10 11 -19 24 -19 29 0 5 -7 15 -15 22 -8 7 -15 20 -15 29 0 10 -9 27 -19 38 -11 11 -18 29 -16 39 2 11 4 24 6 29 1 6 4 -4 8 -20 3 -17 18 -46 33 -65z m-42 -54 c0 -12 8 -31 18 -42 19 -23 26 -44 13 -44 -5 0 -14 13 -21 30 -7 16 -18 34 -25 40 -14 12 -8 53 6 44 5 -3 9 -15 9 -28z m320 -103 c0 -24 -25 -9 -28 17 -3 21 -2 22 12 11 9 -7 16 -20 16 -28z m-204 9 c-3 -3 -1 -11 5 -19 9 -9 8 -13 0 -13 -6 0 -11 -7 -11 -15 0 -8 -5 -15 -10 -15 -7 0 -7 -6 0 -20 6 -11 7 -20 2 -20 -10 0 -22 33 -22 63 0 10 5 15 10 12 9 -5 15 16 11 38 -1 5 3 5 9 2 6 -4 9 -10 6 -13z m72 -42 c-5 -13 -7 -35 -3 -47 3 -13 1 -23 -4 -23 -5 0 -12 19 -16 43 -3 23 -9 50 -11 59 -6 21 29 29 37 8 4 -8 2 -26 -3 -40z m-438 6 c0 -19 -6 -36 -13 -39 -8 -3 -21 -20 -30 -38 -14 -29 -17 -31 -23 -15 -4 11 0 30 9 46 16 26 16 28 -1 35 -16 6 -16 7 2 20 10 8 23 12 27 9 5 -3 9 0 9 5 0 6 5 11 10 11 6 0 10 -15 10 -34z m498 -20 c3 -12 -1 -17 -10 -14 -7 3 -15 13 -16 22 -3 12 1 17 10 14 7 -3 15 -13 16 -22z m-98 -11 c0 -8 -4 -16 -9 -19 -5 -3 -8 5 -7 18 1 25 16 26 16 1z m1641 -5 c12 0 19 -7 19 -20 0 -16 -7 -20 -35 -20 -31 0 -35 3 -35 26 0 20 4 25 16 20 9 -3 24 -6 35 -6z m-1801 -54 c-5 -5 -10 -22 -10 -37 0 -15 -4 -31 -10 -34 -6 -4 -10 8 -10 29 0 19 5 38 11 41 6 4 8 14 4 22 -5 13 -3 14 10 3 11 -9 13 -16 5 -24z m399 -120 c1 -42 -5 -29 -12 24 -4 30 -3 38 3 25 5 -11 9 -33 9 -49z"/>
</g>
<g id="layer105" fill="#9a6b54" stroke="none">
<path d="M175 2938 c-7 -19 -21 -40 -29 -47 -23 -19 -37 -80 -38 -164 0 -67 2 -78 31 -117 17 -24 31 -49 31 -55 0 -19 39 -41 100 -55 96 -22 90 2 90 -364 0 -251 -3 -333 -15 -376 -15 -57 -18 -127 -6 -169 6 -24 6 -24 146 -23 l140 2 -52 -32 c-29 -18 -53 -40 -53 -49 0 -22 -32 -49 -37 -31 -3 6 -9 12 -14 12 -6 0 -7 -4 -4 -10 3 -5 0 -10 -8 -10 -8 0 -17 -7 -21 -15 -3 -8 -9 -15 -13 -14 -22 4 -32 -4 -43 -30 -7 -17 -10 -36 -7 -43 3 -7 6 -4 6 8 1 27 30 64 37 47 8 -19 37 -16 30 2 -4 13 -2 14 14 5 17 -9 20 -8 20 8 0 12 9 22 21 25 20 5 21 3 17 -48 -3 -40 -1 -56 9 -59 8 -3 11 -1 8 4 -3 6 -3 10 2 11 4 0 16 2 26 4 16 3 18 -3 16 -51 -1 -30 1 -57 4 -61 4 -3 7 -1 7 6 0 8 6 11 16 7 8 -3 13 -2 10 3 -3 5 3 11 14 14 19 5 20 2 14 -46 -5 -35 -14 -57 -27 -66 -10 -7 -27 -31 -37 -53 -11 -24 -20 -35 -25 -28 -10 16 -14 60 -5 60 6 0 30 44 30 55 0 3 -7 5 -15 5 -8 0 -15 6 -15 12 0 16 -45 -50 -54 -80 -4 -13 -13 -21 -19 -19 -21 6 -19 63 2 98 27 43 26 49 -3 49 -19 0 -28 -10 -47 -55 -25 -58 -45 -70 -54 -32 -9 34 -1 63 27 106 29 44 27 52 -11 50 -18 -1 -20 -3 -8 -6 20 -5 15 -36 -11 -65 -24 -29 -23 -75 4 -108 30 -35 30 -41 -2 -75 -32 -34 -42 -62 -46 -117 -1 -25 -12 -57 -25 -77 -25 -36 -26 -52 -4 -59 9 -3 11 2 6 17 -4 14 0 32 12 49 10 15 18 34 19 42 7 93 33 158 32 79 0 -48 9 -61 40 -52 15 4 25 16 29 35 9 44 23 44 23 -1 0 -34 3 -41 20 -41 19 0 28 7 55 45 13 19 14 19 12 -10 -1 -21 3 -30 16 -33 18 -4 57 31 57 51 0 5 7 7 15 3 11 -4 15 3 16 27 1 23 3 26 6 9 5 -27 29 -29 45 -2 7 11 16 20 19 20 7 0 16 -52 27 -157 4 -34 10 -64 12 -66 38 -34 145 -48 207 -27 29 11 57 48 80 105 17 45 16 60 -3 41 -14 -14 -19 -14 -54 4 -22 11 -44 28 -49 38 -14 26 -11 83 5 109 18 28 18 34 -1 27 -8 -4 -15 -1 -15 4 0 19 16 22 36 7 16 -12 17 -17 7 -44 -8 -22 -8 -33 -1 -38 7 -3 8 -1 4 5 -11 18 3 14 35 -9 16 -11 29 -27 29 -35 0 -8 5 -12 10 -9 6 3 10 0 10 -7 0 -9 3 -9 10 2 5 8 10 36 10 63 0 26 5 47 10 47 6 0 10 -3 11 -7 0 -5 2 -16 4 -25 2 -10 0 -18 -4 -18 -5 0 -6 -12 -3 -27 5 -25 6 -25 13 -8 7 18 8 17 8 -6 1 -28 22 -79 34 -79 4 0 7 27 7 61 0 45 3 58 13 53 9 -6 9 -4 -1 8 -10 12 -10 18 -1 23 14 9 29 -12 29 -42 0 -12 3 -30 6 -40 6 -16 5 -16 -10 2 -16 19 -16 19 -10 -10 17 -78 28 -52 37 89 3 48 17 56 34 19 16 -34 16 -38 -1 -56 -11 -11 -12 -24 -6 -52 12 -54 30 -68 32 -24 1 18 3 45 4 59 1 14 2 43 3 65 1 30 4 36 11 25 5 -8 10 -12 10 -7 0 4 -6 16 -12 27 -16 25 4 52 23 33 14 -14 26 -118 12 -110 -5 3 -15 2 -23 -3 -12 -7 -12 -10 3 -16 11 -4 17 -17 17 -40 0 -23 6 -38 20 -46 11 -7 20 -22 20 -33 0 -11 4 -26 8 -32 13 -21 1 120 -14 156 -8 18 -14 47 -14 63 0 16 -12 55 -26 86 -40 86 -44 100 -33 106 5 2 4 3 -3 2 -7 -2 -12 -11 -12 -20 1 -9 -2 -16 -6 -16 -11 0 -20 27 -20 61 0 17 -5 40 -11 51 -18 34 12 17 39 -22 23 -35 30 -33 10 3 -6 12 -19 27 -28 34 -16 12 -120 158 -120 169 0 8 213 -7 315 -21 50 -8 93 -10 97 -7 4 4 8 45 10 92 l3 84 40 9 c62 13 476 4 500 -10 11 -7 59 -26 107 -42 169 -58 160 -46 245 -333 3 -10 0 -18 -6 -18 -20 0 -51 -82 -51 -137 0 -44 4 -54 23 -64 12 -7 39 -26 60 -42 32 -27 37 -36 37 -73 0 -33 -3 -42 -14 -38 -18 7 -29 -11 -21 -36 8 -27 58 -48 125 -53 141 -12 262 -27 330 -42 41 -9 86 -19 100 -22 14 -2 34 -8 45 -13 11 -4 46 -14 78 -21 71 -15 97 -5 122 48 9 21 25 47 35 58 30 35 79 203 65 225 -4 6 -100 10 -281 10 l-274 0 0 35 c0 29 -5 36 -34 50 -19 9 -42 15 -53 13 -15 -2 -18 3 -15 32 1 19 9 54 18 77 8 23 14 55 12 70 -3 25 -7 28 -38 26 -19 0 -56 -4 -82 -8 -47 -7 -48 -7 -48 18 0 30 -44 118 -65 130 -8 4 -15 12 -15 17 0 12 -62 100 -71 100 -3 0 -18 17 -33 39 -21 30 -37 41 -74 51 -26 6 -55 16 -64 21 -10 5 -51 9 -91 9 -74 0 -132 13 -154 36 -8 7 -29 10 -57 7 -25 -3 -65 -1 -88 5 -24 6 -105 12 -181 13 l-137 1 0 249 0 249 60 0 c41 0 61 4 67 14 4 8 17 14 28 13 14 -1 20 4 20 19 1 11 11 33 23 49 31 39 44 90 40 160 -3 57 -5 60 -45 89 -43 30 -96 44 -196 53 -63 5 -97 -12 -97 -49 0 -10 -7 -18 -16 -18 -9 0 -18 -8 -21 -18 -4 -18 -7 -18 -91 0 -48 10 -154 23 -237 28 -82 5 -197 18 -255 29 -58 10 -149 22 -202 26 -67 5 -98 11 -98 20 0 6 -10 20 -21 31 -12 10 -28 34 -36 52 -7 17 -18 32 -24 32 -6 0 -22 9 -36 20 -16 13 -41 20 -67 20 -23 0 -48 6 -55 13 -10 10 -15 8 -29 -10 -9 -12 -30 -27 -46 -33 -25 -9 -28 -8 -21 7 12 29 11 46 -3 50 -7 3 -18 -10 -27 -29z m892 -1317 c63 -64 136 -151 131 -157 -3 -2 -13 7 -22 21 -9 14 -21 25 -27 25 -13 0 -2 -39 17 -61 8 -9 11 -19 7 -22 -3 -4 -1 -7 7 -7 9 0 11 -9 6 -30 -3 -17 -2 -29 3 -26 5 3 11 -3 14 -14 3 -11 0 -20 -6 -20 -6 0 -7 -3 -4 -6 4 -4 12 -2 20 4 10 8 13 6 14 -9 1 -11 -2 -17 -7 -14 -6 3 -7 -1 -4 -9 3 -9 10 -14 14 -11 5 3 6 -4 3 -15 -3 -11 -10 -20 -15 -20 -6 0 -8 -7 -4 -15 3 -8 1 -15 -5 -15 -10 0 -11 1 -26 67 -7 30 -7 44 1 47 7 3 7 7 -2 14 -7 5 -14 20 -16 33 -2 24 -25 80 -37 89 -12 10 -56 86 -64 110 -4 14 -19 37 -33 53 -40 42 -8 32 35 -12z m-57 -56 c0 -15 20 -51 50 -89 27 -35 47 -66 44 -68 -3 -3 4 -25 15 -49 10 -24 22 -55 25 -69 3 -14 3 -19 0 -11 -5 11 -8 11 -15 0 -7 -11 -9 -9 -10 6 -1 37 -7 56 -26 82 -10 14 -34 56 -54 92 -19 36 -46 72 -60 78 -18 10 -20 13 -6 13 10 0 17 8 17 20 0 11 5 20 10 20 6 0 10 -11 10 -25z m12 -175 c14 -19 33 -55 41 -78 15 -44 15 -44 -4 -23 -10 11 -19 24 -19 29 0 5 -7 15 -15 22 -8 7 -15 20 -15 29 0 10 -9 27 -19 38 -11 11 -18 29 -16 39 2 11 4 24 6 29 1 6 4 -4 8 -20 3 -17 18 -46 33 -65z m-42 -48 c0 -16 8 -37 18 -48 19 -23 26 -44 13 -44 -5 0 -14 13 -21 30 -7 16 -18 34 -25 40 -14 11 -9 50 6 50 5 0 9 -13 9 -28z m320 -109 c0 -24 -25 -9 -28 17 -3 21 -2 22 12 11 9 -7 16 -20 16 -28z m-204 9 c-3 -3 -1 -11 5 -19 9 -9 8 -13 0 -13 -6 0 -11 -7 -11 -15 0 -8 -5 -15 -10 -15 -7 0 -7 -6 0 -20 6 -11 7 -20 2 -20 -10 0 -22 33 -22 63 0 10 5 15 10 12 9 -5 15 16 11 38 -1 5 3 5 9 2 6 -4 9 -10 6 -13z m72 -42 c-5 -13 -7 -35 -3 -47 3 -13 1 -23 -4 -23 -5 0 -12 19 -16 43 -3 23 -9 50 -11 59 -6 21 29 29 37 8 4 -8 2 -26 -3 -40z m-438 6 c0 -19 -6 -36 -13 -39 -8 -3 -21 -20 -30 -38 -14 -29 -17 -31 -23 -15 -4 11 0 30 9 46 16 26 16 28 -1 35 -16 6 -16 7 2 20 10 8 23 12 27 9 5 -3 9 0 9 5 0 6 5 11 10 11 6 0 10 -15 10 -34z m255 4 c4 -6 -9 -10 -32 -9 -34 1 -35 2 -13 9 35 11 38 11 45 0z m243 -24 c3 -12 -1 -17 -10 -14 -7 3 -15 13 -16 22 -3 12 1 17 10 14 7 -3 15 -13 16 -22z m-98 -11 c0 -8 -4 -16 -9 -19 -5 -3 -8 5 -7 18 1 25 16 26 16 1z m1641 -5 c12 0 19 -7 19 -20 0 -16 -7 -20 -35 -20 -31 0 -35 3 -35 26 0 20 4 25 16 20 9 -3 24 -6 35 -6z m-1901 -119 c20 -38 12 -76 -21 -100 -38 -28 -52 -23 -67 25 -9 31 -9 41 1 49 7 6 16 18 20 28 9 23 54 22 67 -2z m499 -55 c1 -42 -5 -29 -12 24 -4 30 -3 38 3 25 5 -11 9 -33 9 -49z"/>
<path d="M1113 783 c-7 -3 -13 -13 -13 -23 0 -10 -9 -22 -20 -25 -11 -3 -20 -11 -20 -16 0 -16 38 9 56 37 18 26 17 34 -3 27z"/>
<path d="M674 740 c4 -25 16 -54 27 -66 21 -22 82 -45 137 -52 56 -6 175 17 196 38 11 11 18 21 15 24 -2 2 -33 -5 -68 -17 l-63 -21 -17 23 c-16 21 -52 24 -81 6 -5 -3 -10 -2 -10 3 0 5 -13 15 -30 22 -16 7 -29 15 -28 19 2 20 -4 31 -17 31 -9 0 -28 8 -42 17 l-26 17 7 -44z"/>
</g>
<g id="layer106" fill="#848581" stroke="none">
<path d="M175 2938 c-7 -19 -21 -40 -29 -47 -23 -19 -37 -80 -38 -164 0 -67 2 -78 31 -117 17 -24 31 -49 31 -55 0 -19 39 -41 100 -55 96 -22 90 2 90 -364 0 -251 -3 -333 -15 -376 -15 -57 -18 -127 -6 -169 6 -24 6 -24 146 -23 l140 2 -52 -32 c-29 -18 -53 -40 -53 -49 0 -22 -32 -49 -37 -31 -3 6 -9 12 -14 12 -6 0 -7 -4 -4 -10 3 -5 0 -10 -8 -10 -8 0 -17 -7 -21 -15 -3 -8 -9 -15 -13 -14 -22 4 -32 -4 -43 -30 -7 -17 -10 -36 -7 -43 3 -7 6 -4 6 8 1 27 30 64 37 47 8 -19 37 -16 30 2 -4 13 -2 14 14 5 17 -9 20 -8 20 10 0 11 6 20 14 20 8 0 17 6 19 13 3 6 6 -17 7 -53 0 -56 3 -63 14 -48 10 13 15 15 24 6 9 -9 12 -9 12 0 0 7 5 12 11 12 8 0 10 -19 6 -62 -6 -63 -6 -63 13 -40 11 13 21 18 25 12 3 -6 11 -7 17 -4 8 5 9 -9 5 -45 -5 -39 -13 -59 -32 -77 -14 -13 -31 -38 -37 -54 -8 -25 -13 -28 -24 -19 -17 14 -14 43 10 88 16 30 16 33 2 28 -9 -4 -16 -2 -16 4 0 21 -23 -5 -45 -52 -19 -42 -24 -47 -35 -34 -12 15 -21 75 -10 75 6 0 40 54 40 64 0 12 -38 6 -50 -8 -6 -8 -19 -36 -29 -61 -17 -44 -19 -46 -35 -30 -24 24 -17 76 15 123 30 44 28 53 -10 51 -18 -1 -20 -3 -8 -6 20 -5 15 -36 -11 -65 -24 -29 -23 -75 4 -108 30 -35 30 -41 -2 -75 -32 -34 -42 -62 -46 -117 -1 -25 -12 -57 -25 -77 -25 -36 -26 -52 -4 -59 9 -3 11 2 6 17 -4 14 0 32 12 49 10 15 18 34 19 42 3 49 16 110 24 115 5 3 10 -14 12 -37 2 -36 7 -44 26 -46 18 -3 26 4 39 35 l17 38 6 -40 c5 -37 9 -41 40 -37 6 1 20 17 31 34 17 27 20 29 16 10 -13 -58 18 -68 59 -19 15 17 31 31 36 29 4 -1 8 9 8 22 0 14 4 27 9 30 4 3 6 -6 3 -19 -6 -31 22 -35 40 -5 7 11 16 20 19 20 6 0 33 -127 35 -165 1 -11 2 -28 3 -37 0 -10 21 -24 54 -36 48 -18 87 -20 127 -5 8 4 20 5 26 5 11 -2 43 82 41 111 0 10 -13 25 -28 33 -16 8 -33 23 -39 34 -12 23 -16 92 -6 109 4 6 2 18 -4 26 -7 9 -8 15 -2 15 5 0 12 11 14 25 5 23 2 25 -36 26 l-41 2 40 6 c30 4 40 10 39 23 -1 10 3 15 8 12 6 -4 8 -1 6 7 -3 8 -11 13 -17 11 -7 -1 -9 2 -6 8 12 19 -5 61 -28 70 -20 8 -19 9 10 9 17 1 33 7 36 14 6 17 -22 57 -47 67 -17 7 -14 9 17 9 32 1 37 4 37 26 0 40 -20 72 -54 83 -29 9 -28 10 22 11 49 1 52 3 52 26 0 14 -4 25 -10 25 -5 0 -10 7 -10 15 0 9 -12 27 -26 40 l-27 25 24 0 c40 0 122 -45 165 -91 85 -92 130 -163 125 -201 -1 -9 3 -19 10 -23 8 -5 9 -1 4 15 -10 33 15 21 43 -20 23 -35 30 -33 10 3 -6 12 -19 27 -28 34 -16 12 -120 158 -120 169 0 8 213 -7 315 -21 50 -8 93 -10 97 -7 4 4 8 45 10 92 l3 84 40 9 c62 13 476 4 500 -10 11 -7 59 -26 107 -42 169 -58 160 -46 245 -333 3 -10 0 -18 -6 -18 -20 0 -51 -82 -51 -137 0 -44 4 -54 23 -64 12 -7 39 -26 60 -42 32 -27 37 -36 37 -73 0 -33 -3 -42 -14 -38 -18 7 -29 -11 -21 -36 8 -27 58 -48 125 -53 141 -12 262 -27 330 -42 41 -9 86 -19 100 -22 14 -2 34 -8 45 -13 11 -4 46 -14 78 -21 71 -15 97 -5 122 48 9 21 25 47 35 58 30 35 79 203 65 225 -4 6 -100 10 -281 10 l-274 0 0 35 c0 29 -5 36 -34 50 -19 9 -42 15 -53 13 -15 -2 -18 3 -15 32 1 19 9 54 18 77 8 23 14 55 12 70 -3 25 -7 28 -38 26 -19 0 -56 -4 -82 -8 -47 -7 -48 -7 -48 18 0 30 -44 118 -65 130 -8 4 -15 12 -15 17 0 12 -62 100 -71 100 -3 0 -18 17 -33 39 -21 30 -37 41 -74 51 -26 6 -55 16 -64 21 -10 5 -51 9 -91 9 -74 0 -132 13 -154 36 -8 7 -29 10 -57 7 -25 -3 -65 -1 -88 5 -24 6 -105 12 -181 13 l-137 1 0 249 0 249 60 0 c41 0 61 4 67 14 4 8 17 14 28 13 14 -1 20 4 20 19 1 11 11 33 23 49 31 39 44 90 40 160 -3 57 -5 60 -45 89 -43 30 -96 44 -196 53 -63 5 -97 -12 -97 -49 0 -10 -7 -18 -16 -18 -9 0 -18 -8 -21 -18 -4 -18 -7 -18 -91 0 -48 10 -154 23 -237 28 -82 5 -197 18 -255 29 -58 10 -149 22 -202 26 -67 5 -98 11 -98 20 0 6 -10 20 -21 31 -12 10 -28 34 -36 52 -7 17 -18 32 -24 32 -6 0 -22 9 -36 20 -16 13 -41 20 -67 20 -23 0 -48 6 -55 13 -10 10 -15 8 -29 -10 -9 -12 -30 -27 -46 -33 -25 -9 -28 -8 -21 7 12 29 11 46 -3 50 -7 3 -18 -10 -27 -29z m555 -1733 c0 -21 -6 -38 -14 -41 -8 -3 -20 -19 -26 -35 -7 -16 -17 -26 -22 -23 -10 6 -7 33 7 68 6 14 5 17 -3 12 -7 -4 -12 -2 -12 6 0 18 12 34 30 41 32 12 40 7 40 -28z m2041 -35 c12 0 19 -7 19 -20 0 -16 -7 -20 -35 -20 -31 0 -35 3 -35 26 0 20 4 25 16 20 9 -3 24 -6 35 -6z m-1901 -119 c20 -38 12 -76 -21 -100 -38 -28 -52 -23 -67 25 -9 31 -9 41 1 49 7 6 16 18 20 28 9 23 54 22 67 -2z"/>
<path d="M1277 1314 c-7 -7 -2 -23 31 -94 14 -30 27 -74 30 -98 2 -23 8 -44 12 -47 13 -8 -9 101 -30 143 -35 71 -40 90 -27 96 7 2 8 5 1 5 -6 1 -13 -2 -17 -5z"/>
<path d="M1371 975 c0 -33 3 -66 7 -73 5 -7 7 16 4 50 -5 85 -10 96 -11 23z"/>
<path d="M1424 820 c3 -14 6 -69 7 -123 l2 -99 -37 -35 c-26 -26 -35 -41 -30 -55 5 -17 3 -19 -18 -13 -23 8 -23 7 -4 -13 10 -12 23 -19 27 -16 5 3 9 -2 9 -10 0 -9 -9 -16 -20 -16 -13 0 -22 -9 -26 -27 -13 -59 -16 -65 -32 -58 -10 4 -24 -4 -39 -21 -30 -36 -31 -58 -1 -48 20 6 21 5 9 -9 -25 -31 -116 -77 -139 -70 -14 3 -24 0 -28 -10 -3 -9 -23 -18 -45 -22 -21 -4 -39 -10 -39 -15 0 -11 71 10 92 28 9 8 22 11 28 7 19 -12 138 66 149 97 6 15 17 28 25 28 9 0 19 12 22 28 4 15 16 33 26 41 27 19 46 73 51 146 1 12 9 32 18 46 14 20 16 44 12 123 -2 53 -8 107 -14 119 -9 21 -9 21 -5 -3z"/>
<path d="M287 803 c-12 -12 -7 -49 9 -69 14 -18 15 -18 4 4 -7 13 -9 35 -6 48 7 25 4 29 -7 17z"/>
<path d="M310 690 c0 -8 7 -24 15 -34 8 -10 11 -24 8 -30 -14 -22 -10 -52 13 -108 28 -68 75 -138 103 -156 12 -7 21 -19 21 -27 0 -8 11 -17 24 -21 14 -3 32 -14 42 -25 9 -10 23 -19 31 -19 15 0 34 -14 61 -43 9 -10 28 -25 42 -32 50 -26 145 -29 109 -3 -11 8 -10 9 2 5 9 -3 27 1 39 10 21 15 23 13 58 -26 25 -30 42 -41 61 -40 23 2 24 2 4 6 -12 2 -36 22 -54 44 -29 36 -34 39 -76 36 -25 -1 -50 -9 -57 -17 -14 -19 -56 -21 -56 -3 0 7 -11 19 -25 25 -14 6 -25 14 -25 17 0 4 -9 7 -21 8 -30 3 -48 21 -42 43 3 11 1 20 -5 20 -5 0 -9 8 -8 17 1 15 -7 18 -43 19 -35 0 -48 6 -65 27 -12 15 -26 27 -32 27 -12 0 -54 42 -54 55 0 4 8 1 18 -7 37 -32 44 -30 18 5 -16 20 -34 37 -41 37 -21 0 -45 74 -36 107 6 21 3 38 -10 63 -11 19 -19 28 -19 20z"/>
</g>
<g id="layer107" fill="#a98872" stroke="none">
<path d="M564 2729 c-4 -7 -8 -23 -10 -36 -3 -26 22 -37 72 -31 20 2 29 -1 29 -12 0 -12 -12 -15 -52 -13 -38 1 -53 -3 -53 -12 0 -8 9 -17 20 -20 28 -9 26 -35 -3 -35 -22 0 -57 -20 -85 -47 -7 -7 -25 -16 -40 -19 -15 -3 -32 -7 -39 -9 -9 -3 -12 -82 -12 -324 l-1 -319 88 3 c261 8 473 16 515 20 26 2 47 1 48 -3 6 -80 5 -202 -2 -202 -5 0 -9 -4 -9 -10 0 -5 5 -10 11 -10 12 0 34 -21 87 -85 17 -22 32 -35 32 -29 0 6 -9 20 -21 33 -12 12 -18 25 -15 29 8 7 90 8 201 3 l80 -4 1 182 c2 170 5 203 20 188 3 -3 6 -89 6 -190 -1 -182 0 -185 21 -191 12 -3 34 -6 50 -6 l27 0 0 323 c0 242 -3 326 -12 335 -10 10 -10 17 0 32 6 10 11 46 11 78 -1 33 4 69 10 80 6 11 11 31 10 44 0 13 2 44 4 71 4 37 1 49 -12 56 -47 26 -316 73 -460 82 -85 5 -170 13 -190 18 -42 11 -157 27 -253 36 -46 4 -68 2 -74 -6z m471 -84 c71 -1 90 -4 90 -15 0 -18 -145 -17 -272 0 -114 16 -110 36 5 24 48 -4 128 -8 177 -9z m275 -35 c0 -5 -7 -10 -15 -10 -8 0 -15 5 -15 10 0 6 7 10 15 10 8 0 15 -4 15 -10z m230 -95 c0 -8 -4 -15 -10 -15 -5 0 -10 7 -10 15 0 8 5 15 10 15 6 0 10 -7 10 -15z m-273 -79 c6 -6 6 -386 0 -392 -1 -2 -129 -6 -282 -9 -246 -5 -282 -7 -292 -22 -12 -16 -14 -15 -27 2 -9 13 -12 34 -9 60 7 63 21 183 31 271 5 45 12 85 15 90 6 10 555 9 564 0z m-816 -221 c2 -162 0 -205 -11 -205 -6 0 -10 48 -10 125 0 77 4 125 10 125 6 0 10 -20 11 -45z m1019 -345 c0 -16 -4 -30 -10 -30 -5 0 -10 14 -10 30 0 17 5 30 10 30 6 0 10 -13 10 -30z"/>
<path d="M788 1845 c-4 -3 -229 -15 -325 -16 l-72 -2 -16 -68 c-18 -80 -19 -113 -5 -140 10 -17 22 -19 145 -17 74 1 137 -1 141 -4 3 -3 -26 -26 -65 -49 -39 -24 -71 -50 -71 -58 0 -8 -8 -24 -17 -35 -17 -20 -17 -20 0 -7 16 12 17 9 17 -50 1 -55 3 -62 14 -47 10 13 15 15 24 6 9 -9 12 -9 12 0 0 7 5 12 11 12 8 0 10 -19 6 -62 -6 -63 -6 -63 13 -40 11 13 21 18 25 12 3 -6 11 -7 17 -4 8 5 9 -9 5 -45 -5 -39 -13 -59 -32 -77 -14 -13 -31 -38 -37 -54 -8 -25 -13 -28 -24 -19 -17 14 -14 43 10 88 16 30 16 33 2 28 -9 -4 -16 -2 -16 4 0 21 -23 -5 -45 -52 -19 -42 -24 -47 -35 -34 -12 15 -21 75 -10 75 6 0 40 54 40 64 0 3 -9 6 -20 6 -22 0 -56 -47 -65 -92 -8 -33 -11 -34 -39 -11 -17 14 -16 12 2 -9 25 -27 24 -61 -1 -71 -9 -3 -11 -21 -7 -58 4 -47 8 -54 28 -57 18 -3 26 4 39 35 l17 38 6 -40 c5 -37 9 -41 40 -36 6 0 20 16 31 34 17 26 20 28 16 9 -13 -58 18 -68 59 -19 15 17 31 31 36 30 4 -2 8 8 8 21 0 14 4 27 9 30 4 3 6 -6 3 -19 -6 -31 22 -35 40 -5 7 11 16 20 19 20 6 0 33 -127 35 -165 1 -11 2 -28 3 -37 0 -10 21 -24 54 -36 48 -18 87 -20 127 -5 8 4 20 5 26 5 11 -2 43 82 41 111 0 10 -13 25 -28 33 -16 8 -33 23 -39 34 -12 23 -16 92 -6 109 4 6 2 18 -4 26 -7 9 -8 15 -2 15 5 0 12 11 14 25 5 23 2 25 -36 26 l-41 2 40 6 c30 4 40 10 39 23 -1 10 3 15 8 12 6 -4 8 -1 6 7 -3 8 -11 13 -17 11 -7 -1 -9 2 -6 8 12 19 -5 61 -28 70 -20 8 -19 9 10 9 17 1 33 7 36 14 6 17 -22 57 -47 67 -17 7 -14 9 17 9 32 1 37 4 37 26 0 40 -20 72 -54 83 -29 9 -28 10 22 11 49 1 52 3 52 26 0 14 -4 25 -10 25 -5 0 -10 7 -10 15 0 9 -12 28 -27 42 l-28 26 35 -6 c52 -8 64 -11 71 -20 3 -4 6 29 7 73 1 65 -1 80 -13 80 -8 0 -15 7 -15 15 0 13 -16 16 -99 14 -55 -1 -101 -3 -103 -4z m22 -37 c0 -4 -13 -8 -30 -8 -16 0 -30 4 -30 9 0 5 14 9 30 9 17 -1 30 -5 30 -10z m-270 -18 c0 -5 -7 -10 -15 -10 -8 0 -15 5 -15 10 0 6 7 10 15 10 8 0 15 -4 15 -10z m190 -585 c0 -21 -6 -38 -14 -41 -8 -3 -20 -19 -26 -35 -7 -16 -17 -26 -22 -23 -10 6 -7 33 7 68 6 14 5 17 -3 12 -7 -4 -12 -2 -12 6 0 18 12 34 30 41 32 12 40 7 40 -28z m140 -154 c20 -38 12 -76 -21 -100 -38 -28 -52 -23 -67 25 -9 31 -9 41 1 49 7 6 16 18 20 28 9 23 54 22 67 -2z"/>
<path d="M977 1635 c-5 -10 0 -15 14 -15 12 0 19 5 17 12 -6 18 -25 20 -31 3z"/>
<path d="M966 1523 c-11 -11 -6 -23 9 -23 8 0 15 4 15 9 0 13 -16 22 -24 14z"/>
<path d="M1100 1465 c0 -14 51 -97 57 -92 2 3 -1 16 -8 29 -16 31 -49 73 -49 63z"/>
<path d="M1217 1433 c8 -3 11 -14 7 -28 -3 -13 0 -26 6 -30 9 -5 10 -1 5 14 -4 13 -2 21 6 21 9 0 8 4 -1 15 -7 8 -18 15 -24 14 -7 0 -6 -2 1 -6z"/>
<path d="M1081 1330 c12 -22 25 -38 27 -35 8 8 -19 63 -35 69 -10 4 -8 -5 8 -34z"/>
<path d="M1240 1320 c4 -23 11 -44 15 -48 5 -4 5 1 2 11 -4 10 -7 32 -7 48 0 16 -4 29 -9 29 -4 0 -5 -18 -1 -40z"/>
<path d="M1037 1267 c3 -15 9 -30 14 -32 4 -3 6 -13 3 -23 -5 -14 -4 -15 5 -2 15 21 14 35 -8 61 l-19 24 5 -28z"/>
<path d="M996 1232 c-9 -16 -12 -145 -3 -160 5 -6 17 -12 27 -12 10 0 21 -8 23 -17 3 -10 5 -4 6 14 0 17 -3 35 -9 38 -5 3 -10 17 -10 31 0 13 -4 24 -10 24 -5 0 -7 13 -4 29 7 31 -9 71 -20 53z"/>
<path d="M1318 1195 c9 -25 20 -45 25 -45 4 0 6 3 4 8 -2 4 -11 24 -21 45 -23 51 -29 47 -8 -8z"/>
<path d="M1240 1169 c0 -8 5 -20 10 -25 6 -6 15 -30 20 -55 l9 -44 -3 53 c-2 33 -10 60 -20 70 -14 14 -16 14 -16 1z"/>
<path d="M1185 1113 c4 -10 11 -34 15 -53 l8 -35 1 37 c1 42 -7 68 -21 68 -6 0 -7 -8 -3 -17z"/>
<path d="M1373 975 c0 -33 2 -45 4 -27 2 18 2 45 0 60 -2 15 -4 0 -4 -33z"/>
<path d="M684 757 c-14 -36 5 -68 54 -90 26 -11 54 -23 62 -25 28 -8 153 -3 162 6 6 6 -1 8 -17 4 -18 -3 -34 2 -52 19 -18 17 -27 20 -30 12 -5 -15 -53 -18 -53 -4 0 5 -12 13 -27 19 -16 5 -42 24 -60 42 -27 28 -33 31 -39 17z"/>
<path d="M989 663 c-6 -7 -7 -13 -2 -13 5 0 17 6 27 13 16 12 17 14 2 14 -9 0 -21 -6 -27 -14z"/>
</g>
<g id="layer108" fill="#dda178" stroke="none">
<path d="M788 1845 c-4 -3 -229 -15 -325 -16 l-72 -2 -16 -68 c-18 -80 -19 -113 -5 -140 10 -17 22 -19 143 -17 73 1 139 -2 145 -6 7 -4 32 4 57 18 70 41 66 30 -7 -19 -36 -24 -69 -49 -73 -55 -3 -5 -11 -10 -17 -10 -7 0 -6 5 2 15 20 25 1 35 -63 33 l-62 -1 63 -6 64 -6 -51 -30 c-28 -16 -51 -36 -51 -44 0 -8 -8 -24 -17 -35 -10 -12 -11 -15 -3 -8 26 23 33 13 27 -38 -4 -31 -2 -50 4 -50 6 0 7 5 4 10 -3 6 -2 10 4 10 5 0 12 -4 16 -10 3 -5 12 -7 20 -3 12 4 15 -5 15 -41 0 -45 1 -46 30 -42 30 3 30 3 30 -45 0 -39 -5 -54 -28 -77 -16 -16 -34 -43 -41 -60 -14 -33 -25 -40 -36 -21 -10 15 -13 59 -5 59 4 0 12 11 18 24 9 20 8 25 -5 30 -18 7 -38 -15 -53 -61 -13 -38 -25 -41 -40 -14 -14 27 -13 61 4 80 7 9 17 26 20 38 6 17 3 20 -12 16 -11 -3 -29 -27 -43 -56 -13 -29 -24 -54 -26 -56 -2 -2 -13 4 -25 15 l-23 19 23 -26 c28 -32 28 -43 0 -70 -13 -12 -17 -18 -9 -14 11 6 12 -2 6 -43 -4 -32 -3 -52 4 -57 21 -12 47 5 60 40 17 47 30 45 24 -4 -8 -62 27 -67 63 -8 l19 32 3 -37 c2 -24 8 -38 17 -38 14 0 75 71 75 88 0 5 6 15 14 21 11 9 12 6 8 -14 -6 -34 22 -33 45 1 l17 27 17 -79 c10 -44 18 -94 18 -111 1 -41 30 -61 97 -69 68 -8 119 14 138 60 21 50 16 75 -16 92 -15 8 -32 23 -38 34 -16 30 -18 141 -3 170 13 24 12 25 -30 31 l-42 6 37 1 c41 2 60 20 35 33 -12 7 -14 16 -7 38 9 34 3 47 -30 60 -23 9 -22 10 13 10 26 1 37 5 37 16 0 26 -38 55 -72 56 -28 0 -30 2 -13 9 11 5 34 9 52 9 42 1 48 14 29 56 -18 37 -60 53 -108 41 -16 -4 -14 -2 7 9 17 8 51 14 78 15 33 0 47 4 47 14 0 17 -28 72 -35 69 -2 -1 -16 4 -31 12 -18 9 -35 10 -57 4 -45 -13 -44 -4 3 15 45 18 90 20 135 7 l31 -8 2 73 c2 60 -1 74 -13 74 -8 0 -15 7 -15 15 0 13 -16 16 -99 14 -55 -1 -101 -3 -103 -4z m22 -37 c0 -4 -13 -8 -30 -8 -16 0 -30 4 -30 9 0 5 14 9 30 9 17 -1 30 -5 30 -10z m-270 -18 c0 -5 -7 -10 -15 -10 -8 0 -15 5 -15 10 0 6 7 10 15 10 8 0 15 -4 15 -10z m260 -264 c0 -3 -104 -77 -130 -91 -9 -5 -7 1 5 14 11 13 43 36 70 52 52 30 55 31 55 25z m5 -124 c-42 -36 -95 -72 -95 -64 0 5 21 24 48 41 45 30 66 40 47 23z m-73 -203 c-2 -17 -10 -33 -17 -36 -7 -2 -19 -18 -25 -34 -11 -27 -29 -39 -31 -21 0 4 -2 15 -4 25 -2 9 1 17 7 17 5 0 7 12 4 28 -7 32 0 44 34 58 30 13 38 4 32 -37z m138 -148 c20 -38 12 -76 -21 -100 -38 -28 -52 -23 -67 25 -9 31 -9 41 1 49 7 6 16 18 20 28 9 23 54 22 67 -2z"/>
<path d="M1040 1263 c0 -5 7 -18 15 -29 12 -16 14 -16 15 -3 0 9 -7 22 -15 29 -8 7 -15 8 -15 3z"/>
<path d="M995 1218 c-4 -15 -4 -31 -1 -37 4 -5 3 -12 -2 -15 -9 -5 -8 -78 2 -94 8 -13 56 -22 56 -10 0 8 -3 15 -31 69 -5 11 -7 34 -4 49 4 16 2 37 -4 47 -8 16 -10 15 -16 -9z"/>
<path d="M689 723 c5 -21 21 -35 61 -55 53 -27 81 -32 144 -29 l29 1 -23 25 c-16 17 -27 22 -34 15 -13 -13 -69 -13 -61 0 3 6 0 10 -7 10 -8 0 -35 14 -61 30 -26 17 -49 30 -51 30 -3 0 -1 -12 3 -27z"/>
</g>
<g id="layer109" fill="#c0c0c3" stroke="none">
<path d="M186 2885 c-15 -14 -23 -25 -18 -25 5 0 19 11 32 25 13 14 21 25 18 25 -3 0 -17 -11 -32 -25z"/>
<path d="M338 2904 c-4 -3 3 -26 15 -50 l21 -44 23 22 c24 22 28 35 15 54 -8 14 -65 27 -74 18z"/>
<path d="M250 2888 c-25 -11 -25 -11 -2 -15 12 -3 22 -10 22 -17 0 -17 38 -66 51 -66 13 0 11 19 -7 67 -18 45 -24 48 -64 31z"/>
<path d="M186 2827 c-15 -15 -32 -25 -37 -21 -6 3 -8 -10 -6 -33 2 -33 6 -38 27 -36 50 3 111 16 116 24 3 5 -13 28 -34 51 l-39 42 -27 -27z"/>
<path d="M427 2805 c-15 -19 -27 -36 -27 -39 0 -4 25 -6 55 -6 30 0 55 4 55 9 0 6 -12 23 -28 40 l-27 30 -28 -34z"/>
<path d="M113 2775 c0 -27 2 -38 4 -22 2 15 2 37 0 50 -2 12 -4 0 -4 -28z"/>
<path d="M563 2763 c15 -2 39 -2 55 0 15 2 2 4 -28 4 -30 0 -43 -2 -27 -4z"/>
<path d="M1548 2763 c12 -2 32 -2 45 0 12 2 2 4 -23 4 -25 0 -35 -2 -22 -4z"/>
<path d="M564 2729 c-4 -7 -8 -23 -10 -36 -3 -26 22 -37 72 -31 20 2 29 -1 29 -12 0 -12 -12 -15 -52 -13 -38 1 -53 -3 -53 -12 0 -8 9 -17 20 -20 28 -9 26 -35 -3 -35 -22 0 -57 -20 -85 -47 -7 -7 -25 -16 -40 -19 -15 -3 -32 -7 -39 -9 -9 -3 -12 -82 -12 -324 l-1 -319 88 3 c261 8 473 16 515 20 26 2 47 1 48 -3 6 -89 5 -202 -3 -202 -6 0 9 -17 33 -39 39 -34 47 -37 74 -30 17 5 82 5 144 1 62 -4 115 -4 117 0 3 4 4 87 3 183 -2 163 2 198 17 182 3 -3 6 -89 6 -190 -1 -182 0 -185 21 -191 12 -3 34 -6 50 -6 l27 0 0 323 c0 242 -3 326 -12 335 -10 10 -10 17 0 32 6 10 11 46 11 78 -1 33 4 69 10 80 6 11 11 31 10 44 0 13 2 44 4 71 4 37 1 49 -12 56 -47 26 -316 73 -460 82 -85 5 -170 13 -190 18 -42 11 -157 27 -253 36 -46 4 -68 2 -74 -6z m471 -84 c71 -1 90 -4 90 -15 0 -18 -145 -17 -272 0 -114 16 -110 36 5 24 48 -4 128 -8 177 -9z m275 -35 c0 -5 -7 -10 -15 -10 -8 0 -15 5 -15 10 0 6 7 10 15 10 8 0 15 -4 15 -10z m230 -95 c0 -8 -4 -15 -10 -15 -5 0 -10 7 -10 15 0 8 5 15 10 15 6 0 10 -7 10 -15z m-273 -79 c6 -6 6 -386 0 -392 -1 -2 -129 -6 -282 -9 -246 -5 -282 -7 -292 -22 -12 -16 -14 -15 -27 2 -9 13 -12 34 -9 60 7 63 21 183 31 271 5 45 12 85 15 90 6 10 555 9 564 0z m-816 -221 c2 -162 0 -205 -11 -205 -6 0 -10 48 -10 125 0 77 4 125 10 125 6 0 10 -20 11 -45z m1019 -345 c0 -16 -4 -30 -10 -30 -5 0 -10 14 -10 30 0 17 5 30 10 30 6 0 10 -13 10 -30z"/>
<path d="M726 2397 c-9 -13 -14 -40 -13 -62 2 -22 -1 -51 -6 -65 -5 -14 -11 -54 -14 -90 -2 -36 -4 -78 -6 -95 l-2 -30 275 4 c151 2 279 7 283 11 5 4 7 83 5 176 -3 142 -5 169 -18 169 -23 0 -24 -115 -1 -132 27 -20 3 -28 -87 -29 -94 -2 -279 -17 -351 -29 -35 -7 -43 -5 -39 6 6 19 46 26 153 28 52 1 103 8 120 16 l30 13 -38 1 c-22 1 -50 10 -66 22 -30 22 -68 22 -63 -1 2 -7 0 -20 -3 -28 -4 -12 -8 -12 -21 -2 -8 7 -13 19 -10 25 7 19 -10 39 -28 32 -9 -4 -16 -18 -16 -32 0 -14 -4 -25 -10 -25 -5 0 -10 10 -10 23 0 13 -5 28 -12 35 -9 9 -8 16 4 29 8 10 18 26 21 36 10 28 -58 24 -77 -6z"/>
<path d="M830 2406 c0 -8 -3 -21 -6 -30 -8 -20 26 -22 44 -4 10 10 15 10 20 1 4 -6 20 -14 36 -17 16 -3 34 -10 40 -16 15 -15 29 -12 22 5 -8 21 3 45 20 45 8 0 14 -10 14 -21 0 -18 4 -20 23 -14 37 11 60 11 64 -2 3 -7 -7 -17 -21 -23 -34 -13 -33 -20 2 -20 21 0 32 7 40 25 14 31 47 35 39 5 -3 -11 -1 -20 3 -20 11 0 24 65 17 84 -8 21 -357 23 -357 2z"/>
<path d="M1513 2730 c-30 -12 -30 -46 -1 -53 26 -7 24 -10 31 31 7 34 5 36 -30 22z"/>
<path d="M1578 2693 c2 -27 6 -49 7 -51 8 -9 64 24 73 43 7 14 16 25 21 25 38 0 6 -73 -39 -88 -16 -6 -30 -13 -30 -15 0 -1 18 -4 40 -5 52 -4 89 -18 96 -37 13 -32 24 -13 24 39 0 48 -3 57 -31 80 -17 14 -43 28 -57 31 -15 3 -43 10 -63 15 -20 6 -39 10 -41 10 -3 0 -3 -21 0 -47z"/>
<path d="M420 2699 c13 -23 68 -59 90 -59 12 1 11 4 -4 15 -20 15 -13 37 9 28 10 -3 15 2 15 16 0 19 -6 21 -60 21 -58 0 -60 -1 -50 -21z"/>
<path d="M208 2705 c-3 -3 -19 -7 -34 -8 -40 -3 -40 -23 -1 -84 l33 -52 33 54 c37 61 37 89 1 93 -14 2 -28 0 -32 -3z"/>
<path d="M295 2697 c-4 -10 -5 -21 -1 -24 10 -10 18 4 13 24 -4 17 -4 17 -12 0z"/>
<path d="M1097 2703 c18 -2 50 -2 70 0 21 2 7 4 -32 4 -38 0 -55 -2 -38 -4z"/>
<path d="M361 2601 c-1 -38 3 -72 8 -76 19 -11 92 13 118 39 30 31 26 36 -39 61 -26 9 -49 23 -52 31 -3 8 -12 14 -19 14 -11 0 -15 -17 -16 -69z"/>
<path d="M1793 2610 c0 -30 2 -43 4 -27 2 15 2 39 0 55 -2 15 -4 2 -4 -28z"/>
<path d="M281 2623 c-7 -18 -17 -33 -21 -33 -4 0 -12 -11 -18 -24 -10 -23 -8 -25 34 -35 25 -6 49 -9 55 -6 16 11 10 42 -10 48 -14 3 -21 15 -23 43 l-3 39 -14 -32z"/>
<path d="M1589 2573 c-7 -77 -6 -84 11 -93 31 -17 40 -12 31 13 -13 34 -2 45 49 49 44 3 44 3 21 17 -27 15 -111 26 -112 14z"/>
<path d="M1660 2508 c0 -19 21 -48 35 -48 17 0 55 35 55 50 0 6 -20 9 -45 8 -25 0 -45 -5 -45 -10z"/>
<path d="M364 2150 c0 -173 2 -244 3 -157 2 86 2 228 0 315 -1 86 -3 15 -3 -158z"/>
<path d="M1600 2443 c0 -20 27 -45 45 -42 25 5 30 25 8 32 -10 2 -26 8 -35 12 -10 4 -18 3 -18 -2z"/>
<path d="M1655 2380 l-30 -8 27 -1 c15 0 30 4 33 9 3 6 5 9 3 9 -2 -1 -16 -5 -33 -9z"/>
<path d="M1553 2320 c0 -25 2 -35 4 -22 2 12 2 32 0 45 -2 12 -4 2 -4 -23z"/>
<path d="M1552 2240 c0 -19 2 -27 5 -17 2 9 2 25 0 35 -3 9 -5 1 -5 -18z"/>
<path d="M1554 2110 c0 -52 1 -74 3 -47 2 26 2 68 0 95 -2 26 -3 4 -3 -48z"/>
<path d="M1553 1935 c0 -44 2 -61 4 -37 2 23 2 59 0 80 -2 20 -4 1 -4 -43z"/>
<path d="M1683 1863 c26 -2 67 -2 90 0 23 2 2 3 -48 3 -49 0 -68 -1 -42 -3z"/>
<path d="M788 1845 c-4 -3 -229 -15 -325 -16 l-72 -2 -16 -68 c-18 -80 -19 -113 -5 -140 10 -17 22 -19 145 -17 74 1 138 -1 141 -5 4 -4 21 2 38 12 56 35 183 81 223 81 21 0 52 -4 68 -9 l31 -8 2 73 c2 60 -1 74 -13 74 -8 0 -15 7 -15 15 0 13 -16 16 -99 14 -55 -1 -101 -3 -103 -4z m22 -37 c0 -4 -13 -8 -30 -8 -16 0 -30 4 -30 9 0 5 14 9 30 9 17 -1 30 -5 30 -10z m-270 -18 c0 -5 -7 -10 -15 -10 -8 0 -15 5 -15 10 0 6 7 10 15 10 8 0 15 -4 15 -10z"/>
<path d="M1550 1805 c0 -43 13 -51 61 -35 33 11 38 17 33 34 -9 28 -6 27 -53 31 -41 4 -41 3 -41 -30z"/>
<path d="M1682 1808 c3 -32 4 -33 56 -36 37 -2 52 1 52 10 0 7 3 23 6 36 6 21 4 22 -55 22 l-62 0 3 -32z"/>
<path d="M1829 1829 c-1 -2 -3 -16 -5 -31 l-3 -28 70 0 c46 0 68 4 64 10 -4 6 -1 17 5 25 11 13 7 15 -21 15 -19 0 -51 3 -71 6 -21 4 -39 5 -39 3z"/>
<path d="M1991 1789 l-23 -19 38 -2 c69 -2 91 -5 101 -11 6 -4 17 1 24 11 7 9 10 14 6 11 -5 -4 -34 1 -66 11 -55 16 -58 16 -80 -1z"/>
<path d="M2198 1803 c12 -2 32 -2 45 0 12 2 2 4 -23 4 -25 0 -35 -2 -22 -4z"/>
<path d="M2174 1759 c-16 -17 -16 -22 -4 -29 27 -18 83 -23 102 -11 20 12 58 6 58 -9 0 -5 -10 -12 -22 -16 -20 -6 -16 -10 31 -30 29 -13 62 -24 72 -24 25 0 35 -21 16 -35 -14 -10 -14 -15 1 -58 9 -26 22 -47 29 -47 24 0 83 -34 83 -48 0 -14 -3 -14 -62 5 -21 6 -23 -12 -8 -52 9 -25 11 -25 40 -10 16 9 30 12 30 8 0 -5 5 0 11 9 11 20 -22 111 -53 141 -10 10 -18 24 -18 31 0 7 -21 35 -46 62 -25 27 -52 59 -60 70 -9 13 -39 29 -77 40 -86 25 -103 25 -123 3z"/>
<path d="M1728 1743 c39 -2 105 -2 145 0 39 1 7 3 -73 3 -80 0 -112 -2 -72 -3z"/>
<path d="M333 1665 c0 -33 2 -45 4 -27 2 18 2 45 0 60 -2 15 -4 0 -4 -33z"/>
<path d="M1553 1640 c0 -41 2 -58 4 -37 2 20 2 54 0 75 -2 20 -4 3 -4 -38z"/>
<path d="M443 1573 c9 -2 25 -2 35 0 9 3 1 5 -18 5 -19 0 -27 -2 -17 -5z"/>
<path d="M528 1573 c17 -2 47 -2 65 0 17 2 3 4 -33 4 -36 0 -50 -2 -32 -4z"/>
<path d="M1258 1573 c18 -2 45 -2 60 0 15 2 0 4 -33 4 -33 0 -45 -2 -27 -4z"/>
<path d="M2583 1430 c2 -8 14 -16 28 -17 19 -1 20 -1 4 4 -11 3 -24 10 -28 17 -6 7 -7 6 -4 -4z"/>
<path d="M2690 1399 c-14 -4 -39 -7 -57 -8 -38 -1 -65 -26 -61 -56 1 -12 -4 -30 -11 -39 -12 -14 -12 -19 -2 -26 7 -4 22 -5 32 -3 27 7 23 -5 -11 -37 -42 -39 -39 -71 10 -117 22 -21 40 -41 40 -45 0 -15 -27 -8 -50 12 -29 25 -39 26 -17 2 21 -23 21 -32 2 -32 -12 0 -15 -12 -13 -62 3 -60 4 -61 33 -65 17 -2 46 -5 65 -8 19 -3 78 -10 130 -15 107 -10 169 -22 352 -68 20 -5 39 -7 42 -4 3 2 12 -1 21 -8 12 -10 20 -9 40 4 28 18 24 40 -5 31 -27 -9 -32 9 -13 49 19 41 26 43 52 17 15 -15 22 -17 29 -8 16 22 40 92 47 141 l7 47 -328 -2 -329 -3 -7 60 c-7 60 2 115 30 192 17 48 9 63 -28 51z"/>
<path d="M2535 1350 c2 -29 10 -33 13 -5 1 14 -2 25 -6 25 -5 0 -8 -9 -7 -20z"/>
<path d="M2495 1308 c3 -7 0 -20 -5 -28 -8 -13 -11 -13 -19 -1 -12 19 -36 -30 -40 -81 -2 -29 2 -39 20 -49 13 -6 32 -20 43 -30 34 -32 48 -19 25 24 -7 11 -11 56 -10 99 1 48 -2 78 -8 78 -6 0 -8 -6 -6 -12z"/>
<path d="M367 1252 c-12 -13 -13 -22 -6 -32 9 -13 10 -13 6 0 -2 8 2 23 11 33 20 22 10 22 -11 -1z"/>
<path d="M432 1192 l-29 -61 -23 22 c-19 18 -18 16 3 -11 15 -19 27 -38 27 -43 0 -5 0 -11 0 -14 0 -3 -3 -5 -7 -4 -19 2 -21 -42 -3 -78 l18 -37 16 38 c9 22 24 45 34 52 11 9 13 16 7 21 -6 5 -21 22 -33 40 -22 31 -22 34 -6 58 9 14 20 25 24 25 13 0 21 33 11 43 -7 7 -20 -10 -39 -51z"/>
<path d="M2401 1183 c-1 -23 3 -44 7 -47 4 -2 6 12 4 32 -5 56 -10 62 -11 15z"/>
<path d="M2790 1147 c0 -11 -11 -17 -37 -20 l-38 -4 38 -1 c26 -1 39 3 44 13 3 9 3 19 -1 22 -3 4 -6 -1 -6 -10z"/>
<path d="M2827 1128 c2 -5 127 -8 278 -8 l274 0 4 -22 c5 -20 5 -20 4 2 l-2 25 -282 5 c-154 3 -279 2 -276 -2z"/>
<path d="M2518 1019 c3 -40 1 -48 -11 -43 -8 3 -18 0 -23 -7 -4 -8 -3 -10 5 -5 6 4 18 2 26 -4 13 -11 15 -4 15 43 0 31 -3 58 -7 60 -5 3 -6 -17 -5 -44z"/>
<path d="M332 980 c0 -19 2 -27 5 -17 2 9 2 25 0 35 -3 9 -5 1 -5 -18z"/>
<path d="M2733 873 c9 -2 25 -2 35 0 9 3 1 5 -18 5 -19 0 -27 -2 -17 -5z"/>
<path d="M1439 622 c-3 -20 -2 -29 4 -23 5 5 7 19 5 32 -3 20 -5 19 -9 -9z"/>
<path d="M1382 440 c-12 -16 -22 -35 -22 -42 0 -10 -3 -9 -9 1 -7 11 -11 5 -16 -22 -6 -29 -12 -37 -29 -37 -17 0 -21 -7 -23 -33 -1 -28 0 -29 7 -9 5 12 16 22 24 22 9 0 19 12 22 27 4 15 17 36 29 47 18 18 51 76 42 76 -2 0 -13 -13 -25 -30z"/>
<path d="M463 345 c11 -23 35 -40 44 -32 5 6 -37 57 -47 57 -4 0 -3 -11 3 -25z"/>
<path d="M537 288 c17 -19 28 -24 18 -9 -3 5 3 11 12 13 11 3 5 6 -14 9 -31 5 -32 5 -16 -13z"/>
<path d="M632 235 c1 -10 14 -25 28 -34 13 -9 21 -11 17 -4 -4 6 -2 13 3 15 6 2 -3 12 -21 22 -29 17 -31 17 -27 1z"/>
</g>
<g id="layer110" fill="#f0cda7" stroke="none">
<path d="M567 2723 c-4 -3 -7 -17 -7 -29 0 -20 6 -23 48 -26 34 -2 47 -7 47 -18 0 -11 -14 -16 -54 -18 l-55 -3 29 -23 c31 -25 27 -51 -7 -40 -14 4 -32 -4 -60 -27 -22 -17 -55 -35 -72 -38 l-31 -7 -3 -318 -2 -319 177 8 c98 4 239 11 313 14 89 5 139 3 147 -4 7 -6 13 -50 15 -115 3 -102 4 -106 33 -130 16 -14 34 -23 40 -21 15 6 194 2 237 -5 l38 -6 2 189 c3 159 5 188 18 188 10 0 17 -13 20 -35 3 -22 10 -35 20 -35 10 0 15 -11 15 -35 0 -27 -4 -35 -17 -34 -15 2 -18 -7 -18 -50 0 -36 3 -47 10 -36 7 11 12 12 21 3 15 -15 3 -34 -16 -26 -12 4 -15 -7 -15 -65 l0 -69 31 -7 c46 -9 49 -8 49 15 0 11 -5 17 -10 14 -15 -9 -30 4 -23 21 3 8 12 13 19 10 19 -7 21 573 2 592 -10 10 -10 17 0 32 6 11 12 34 12 51 0 18 5 60 12 95 10 59 10 65 -7 78 -22 16 -13 51 10 42 11 -4 15 3 15 28 l0 34 -92 21 c-188 43 -235 51 -313 51 -44 0 -165 14 -270 30 -184 29 -295 37 -308 23z m443 -72 c102 -5 125 -9 125 -21 0 -12 -18 -15 -105 -15 -123 1 -258 14 -266 26 -14 23 10 31 65 24 31 -4 112 -11 181 -14z m308 -38 c5 -17 -26 -29 -40 -15 -6 6 -7 15 -3 22 9 14 37 9 43 -7z m-43 -373 l0 -205 -283 -6 c-261 -6 -284 -8 -297 -25 -14 -18 -15 -18 -34 6 -11 14 -18 34 -15 45 4 20 19 142 33 280 3 39 12 80 19 93 l13 22 282 -2 282 -3 0 -205z m-820 -106 c0 -108 -2 -129 -15 -129 -12 0 -16 21 -18 119 -3 127 0 150 21 143 9 -3 12 -38 12 -133z m1030 -154 c9 -15 -3 -30 -20 -24 -7 3 -11 12 -8 20 6 16 19 18 28 4z"/>
<path d="M595 1828 c-60 -5 -131 -7 -156 -6 l-46 3 -12 -56 c-6 -30 -11 -79 -11 -108 l0 -52 142 2 c103 1 143 -1 146 -10 3 -9 11 -8 29 4 13 9 61 32 106 52 74 31 89 34 150 30 l67 -4 0 62 c0 48 -4 64 -16 69 -8 3 -12 10 -9 16 3 5 -3 10 -15 10 -12 0 -18 -4 -15 -10 9 -15 -3 -30 -20 -24 -7 3 -11 12 -8 20 4 12 -14 14 -108 13 -63 -1 -163 -6 -224 -11z m220 -17 c0 -16 -61 -26 -70 -11 -11 18 5 30 38 27 19 -1 32 -8 32 -16z m-339 -12 c8 -14 -11 -33 -25 -25 -11 7 -4 36 9 36 5 0 12 -5 16 -11z m72 -6 c5 -17 -26 -29 -40 -15 -6 6 -7 15 -3 22 9 14 37 9 43 -7z m127 7 c9 -15 -3 -30 -20 -24 -7 3 -11 12 -8 20 6 16 19 18 28 4z m320 -40 c9 -15 -3 -30 -20 -24 -7 3 -11 12 -8 20 6 16 19 18 28 4z m-160 -20 c9 -15 -3 -30 -20 -24 -7 3 -11 12 -8 20 6 16 19 18 28 4z"/>
<path d="M430 1187 c-25 -52 -29 -70 -21 -86 7 -13 8 -22 1 -26 -5 -3 -10 -3 -11 2 0 4 -4 -2 -9 -14 -6 -15 -3 -33 10 -60 l18 -37 16 38 c9 22 24 45 34 52 11 9 13 16 7 21 -6 5 -21 22 -33 40 -22 31 -22 34 -6 58 9 14 20 25 24 25 13 0 21 33 11 43 -7 7 -21 -11 -41 -56z"/>
<path d="M525 1180 c-2 -4 -9 -20 -15 -36 -9 -27 -9 -28 5 -10 8 11 15 16 15 12 0 -5 7 -3 15 4 8 7 15 18 15 25 0 12 -28 16 -35 5z"/>
<path d="M701 1146 c-9 -10 -11 -20 -5 -24 5 -4 10 -18 12 -32 l2 -25 -13 24 -14 23 -7 -33 c-8 -44 7 -58 29 -26 10 16 15 41 13 68 -3 38 -4 41 -17 25z"/>
<path d="M591 1118 c-15 -24 -14 -27 9 -21 21 6 29 -12 9 -19 -9 -3 -9 -10 0 -26 6 -12 8 -22 3 -22 -5 0 -15 12 -22 28 -8 16 -14 22 -17 14 -4 -10 -8 -10 -19 -1 -12 10 -13 9 -8 -5 3 -9 1 -16 -5 -16 -6 0 -11 5 -11 11 0 6 -7 17 -15 25 -17 17 -41 9 -27 -9 14 -18 11 -46 -5 -40 -7 3 -13 0 -13 -5 0 -16 22 -62 29 -62 3 0 19 19 35 41 15 22 31 38 34 34 10 -10 11 -35 1 -29 -10 6 -12 -17 -3 -41 6 -14 12 -11 35 17 24 28 29 42 29 89 0 59 -16 74 -39 37z"/>
<path d="M837 906 c-7 -18 1 -26 28 -26 14 0 21 6 21 20 0 24 -41 28 -49 6z"/>
</g>
<g id="layer111" fill="#fafafa" stroke="none">
<path d="M266 2891 c-18 -7 -18 -8 -2 -14 10 -4 16 -13 13 -21 -6 -14 38 -75 47 -65 6 6 -25 109 -33 108 -3 0 -15 -4 -25 -8z"/>
<path d="M340 2888 c0 -7 8 -26 19 -41 l18 -28 24 20 c20 16 22 23 13 38 -13 22 -74 31 -74 11z"/>
<path d="M180 2815 c-5 -14 -14 -25 -20 -25 -5 0 -10 -11 -10 -25 0 -29 18 -32 94 -12 l49 13 -35 37 c-41 43 -65 47 -78 12z"/>
<path d="M444 2824 c-4 -10 -16 -27 -28 -36 -20 -17 -19 -18 38 -18 l60 0 -30 32 c-16 18 -30 35 -31 37 -2 2 -6 -5 -9 -15z"/>
<path d="M567 2723 c-4 -3 -7 -17 -7 -29 0 -20 6 -23 48 -26 34 -2 47 -7 47 -18 0 -11 -14 -16 -54 -18 l-55 -3 29 -23 c31 -25 27 -51 -7 -40 -14 4 -32 -4 -60 -27 -22 -17 -55 -35 -72 -38 l-31 -7 -3 -318 -2 -319 177 8 c98 4 239 11 313 14 89 5 139 3 147 -4 7 -6 13 -51 15 -112 4 -96 6 -104 32 -132 24 -25 32 -28 62 -21 19 5 51 6 72 4 20 -2 70 -5 109 -8 l73 -5 2 187 c3 158 5 187 18 187 10 0 17 -13 20 -35 3 -22 10 -35 20 -35 10 0 15 -11 15 -35 0 -27 -4 -35 -17 -34 -15 2 -18 -7 -18 -50 0 -36 3 -47 10 -36 7 11 12 12 21 3 15 -15 3 -34 -16 -26 -12 4 -15 -7 -15 -65 l0 -69 31 -7 c46 -9 49 -8 49 15 0 11 -5 17 -10 14 -15 -9 -30 4 -23 21 3 8 12 13 19 10 19 -7 21 573 2 592 -10 10 -10 17 0 32 6 11 12 34 12 51 0 18 5 60 12 95 10 59 10 65 -7 78 -22 16 -13 51 10 42 11 -4 15 3 15 28 l0 34 -92 21 c-188 43 -235 51 -313 51 -44 0 -165 14 -270 30 -184 29 -295 37 -308 23z m443 -72 c102 -5 125 -9 125 -21 0 -12 -18 -15 -105 -15 -123 1 -258 14 -266 26 -14 23 10 31 65 24 31 -4 112 -11 181 -14z m308 -38 c5 -17 -26 -29 -40 -15 -6 6 -7 15 -3 22 9 14 37 9 43 -7z m-43 -373 l0 -205 -283 -6 c-261 -6 -284 -8 -297 -25 -14 -18 -15 -18 -34 6 -11 14 -18 34 -15 45 4 20 19 142 33 280 3 39 12 80 19 93 l13 22 282 -2 282 -3 0 -205z m-820 -106 c0 -108 -2 -129 -15 -129 -12 0 -16 21 -18 119 -3 127 0 150 21 143 9 -3 12 -38 12 -133z m1030 -154 c9 -15 -3 -30 -20 -24 -7 3 -11 12 -8 20 6 16 19 18 28 4z"/>
<path d="M725 2398 c-2 -7 -6 -38 -9 -68 -2 -30 -9 -102 -15 -159 -6 -57 -9 -106 -7 -108 2 -3 126 -1 275 3 l271 7 0 89 0 89 -102 -5 c-98 -4 -330 -22 -373 -28 -12 -2 -20 3 -20 11 0 14 11 18 86 35 22 5 25 10 21 36 -5 38 -30 39 -34 3 -4 -35 -32 -37 -36 -3 -2 14 -9 31 -14 38 -8 9 -5 18 10 33 12 11 22 24 22 29 0 15 -70 12 -75 -2z m431 -219 c8 -14 -11 -33 -25 -25 -11 7 -4 36 9 36 5 0 12 -5 16 -11z m-308 -27 c2 -7 -5 -12 -17 -12 -14 0 -19 5 -14 15 6 17 25 15 31 -3z m188 7 c8 -14 -11 -33 -25 -25 -11 7 -4 36 9 36 5 0 12 -5 16 -11z"/>
<path d="M833 2395 c-8 -24 5 -31 29 -16 18 11 23 11 33 -3 7 -9 22 -16 33 -16 11 0 24 -4 27 -10 10 -16 25 -11 25 9 0 23 25 45 40 36 6 -4 8 -15 5 -26 -7 -21 5 -25 22 -8 15 15 68 7 68 -11 0 -8 -11 -17 -25 -21 l-25 -7 24 -1 c14 -1 31 9 43 25 11 14 27 23 34 20 10 -4 14 2 14 19 l0 25 -170 0 c-145 0 -172 -2 -177 -15z"/>
<path d="M1220 2350 c0 -33 4 -60 10 -60 6 0 10 27 10 60 0 33 -4 60 -10 60 -6 0 -10 -27 -10 -60z"/>
<path d="M888 2300 l-5 -30 69 0 c39 0 68 4 68 10 0 6 -9 10 -20 10 -11 0 -34 9 -52 20 -45 27 -55 25 -60 -10z"/>
<path d="M1500 2706 c0 -15 7 -26 20 -29 17 -4 20 0 20 24 0 22 -5 29 -20 29 -14 0 -20 -7 -20 -24z"/>
<path d="M1580 2690 c0 -35 3 -40 23 -40 27 0 40 9 55 35 9 17 6 21 -20 32 -50 21 -58 17 -58 -27z"/>
<path d="M458 2713 c-21 -2 -38 -8 -38 -13 0 -13 72 -60 90 -59 9 0 6 4 -7 9 -28 12 -30 30 -3 37 21 6 28 34 8 31 -7 -1 -30 -3 -50 -5z"/>
<path d="M1696 2696 c7 -18 -18 -56 -47 -71 -18 -10 -14 -13 35 -24 31 -7 60 -20 66 -29 7 -13 9 -1 8 42 -3 56 -5 61 -36 79 -26 16 -31 16 -26 3z"/>
<path d="M173 2693 c-31 -6 -29 -35 6 -83 l28 -39 22 30 c12 17 25 46 28 65 6 33 5 34 -28 33 -19 -1 -44 -4 -56 -6z"/>
<path d="M370 2602 l0 -72 34 0 c22 0 46 10 70 29 l37 30 -23 14 c-13 8 -34 18 -48 22 -14 4 -35 17 -47 28 l-23 20 0 -71z"/>
<path d="M266 2593 c-15 -24 -26 -46 -23 -49 3 -3 24 -8 46 -11 32 -4 41 -2 41 10 0 8 -6 17 -14 20 -8 3 -16 21 -18 40 l-3 34 -29 -44z"/>
<path d="M1588 2531 c-3 -34 0 -41 20 -51 23 -10 24 -9 18 16 -9 34 9 54 46 54 17 0 27 4 23 10 -3 6 -28 10 -55 10 l-48 0 -4 -39z"/>
<path d="M1660 2502 c0 -5 9 -17 20 -27 19 -17 21 -17 40 0 29 27 25 35 -20 35 -22 0 -40 -4 -40 -8z"/>
<path d="M1607 2429 c4 -14 14 -19 36 -19 33 0 28 9 -14 27 -24 10 -26 10 -22 -8z"/>
<path d="M595 1828 c-60 -5 -131 -7 -156 -6 l-46 3 -12 -56 c-6 -30 -11 -79 -11 -108 l0 -52 139 2 c76 1 142 -1 147 -4 5 -3 47 14 94 36 80 40 90 42 172 42 l88 0 0 61 c0 47 -4 63 -16 68 -8 3 -12 10 -9 16 3 5 -3 10 -15 10 -12 0 -18 -4 -15 -10 9 -15 -3 -30 -20 -24 -7 3 -11 12 -8 20 4 12 -14 14 -108 13 -63 -1 -163 -6 -224 -11z m220 -17 c0 -16 -61 -26 -70 -11 -11 18 5 30 38 27 19 -1 32 -8 32 -16z m-339 -12 c8 -14 -11 -33 -25 -25 -11 7 -4 36 9 36 5 0 12 -5 16 -11z m72 -6 c5 -17 -26 -29 -40 -15 -6 6 -7 15 -3 22 9 14 37 9 43 -7z m127 7 c9 -15 -3 -30 -20 -24 -7 3 -11 12 -8 20 6 16 19 18 28 4z m320 -40 c9 -15 -3 -30 -20 -24 -7 3 -11 12 -8 20 6 16 19 18 28 4z m-160 -20 c9 -15 -3 -30 -20 -24 -7 3 -11 12 -8 20 6 16 19 18 28 4z"/>
<path d="M1560 1800 c0 -32 6 -34 57 -24 25 5 29 10 25 30 -4 20 -10 24 -43 24 -37 0 -39 -2 -39 -30z"/>
<path d="M1680 1821 c0 -5 3 -16 6 -25 9 -22 89 -22 98 0 12 30 6 34 -49 34 -30 0 -55 -4 -55 -9z"/>
<path d="M1830 1800 c0 -18 7 -20 54 -20 66 0 86 24 28 34 -66 10 -82 8 -82 -14z"/>
<path d="M1991 1786 c-10 -11 1 -14 61 -18 40 -3 74 -4 76 -2 4 3 -102 34 -116 34 -5 0 -15 -6 -21 -14z"/>
<path d="M2170 1755 c-10 -13 -7 -17 23 -30 43 -18 59 -19 74 -4 14 14 65 8 71 -9 2 -7 -5 -16 -16 -19 -18 -4 -14 -9 24 -29 25 -13 56 -24 70 -24 24 0 23 3 -23 49 -36 37 -62 53 -102 65 -68 20 -105 20 -121 1z"/>
<path d="M2434 1606 c-21 -9 -21 -11 -7 -50 13 -34 24 -45 64 -63 l48 -21 -12 26 c-6 15 -19 36 -29 48 -10 11 -18 25 -18 30 0 24 -25 40 -46 30z"/>
<path d="M2463 1443 c19 -68 14 -64 52 -45 19 9 35 23 35 30 0 7 -4 11 -9 8 -5 -3 -25 1 -46 10 -34 14 -36 14 -32 -3z"/>
<path d="M2645 1388 c-22 -6 -46 -12 -52 -14 -7 -2 -13 -19 -13 -38 0 -19 -4 -38 -10 -41 -20 -12 -10 -26 17 -23 34 4 41 -17 11 -33 -31 -16 -38 -28 -38 -66 0 -25 9 -39 41 -67 23 -19 38 -40 34 -45 -3 -6 -11 -8 -17 -5 -5 4 -21 1 -34 -7 -21 -11 -24 -20 -24 -65 0 -61 -9 -57 175 -74 97 -9 207 -29 340 -61 128 -31 175 -32 175 -3 0 11 -6 13 -19 9 -28 -9 -35 11 -16 51 18 39 51 46 64 13 7 -19 10 -16 31 27 13 27 25 70 28 96 l5 48 -329 2 -329 3 -6 65 c-4 35 -3 71 2 80 11 20 39 124 39 144 0 18 -15 18 -75 4z"/>
<path d="M2446 1253 c-3 -8 -6 -31 -6 -51 0 -31 7 -43 40 -70 36 -29 40 -31 40 -13 0 11 -4 23 -10 26 -5 3 -10 32 -10 63 0 53 -2 57 -24 58 -14 1 -27 -5 -30 -13z"/>
</g>


</svg>