<!DOCTYPE svg PUBLIC "-//W3C//DTD SVG 20010904//EN" "http://www.w3.org/TR/2001/REC-SVG-20010904/DTD/svg10.dtd">
<svg version="1.0" xmlns="http://www.w3.org/2000/svg" width="1600px" height="1600px" viewBox="0 0 16000 16000" preserveAspectRatio="xMidYMid meet">
<g id="layer101" fill="#000000" stroke="none">
<path d="M119 15965 c16 -19 152 -156 301 -305 l271 -270 -17 -32 c-9 -18 -34 -58 -55 -89 l-38 -56 -291 290 -290 291 0 -645 0 -644 326 325 c179 179 345 352 368 385 76 106 118 216 136 354 16 119 -6 283 -51 388 -18 43 -19 43 -69 43 -27 0 -50 -2 -50 -5 0 -3 10 -25 22 -48 36 -71 58 -174 58 -277 0 -107 -8 -170 -22 -170 -5 0 -122 113 -259 250 l-250 250 -60 0 -61 0 31 -35z"/>
<path d="M1489 15974 c-5 -15 -8 -29 -6 -31 3 -2 51 10 108 26 l104 29 -98 1 c-96 1 -98 1 -108 -25z"/>
<path d="M3614 15668 c-183 -184 -341 -351 -353 -373 -11 -22 -39 -110 -60 -195 -42 -165 -178 -701 -342 -1349 -55 -216 -98 -395 -96 -397 2 -2 59 11 128 30 141 38 334 89 654 171 121 31 258 67 305 80 47 12 159 42 250 65 91 24 228 60 305 80 77 21 165 43 195 50 30 7 78 27 105 45 68 43 1289 1264 1346 1346 98 139 134 260 133 444 0 130 -7 170 -46 278 l-20 57 -54 0 -54 0 21 -42 c55 -109 80 -274 59 -397 l-12 -74 -257 257 -256 256 -65 0 -65 0 303 -303 c166 -166 302 -307 302 -313 0 -15 -98 -164 -107 -164 -5 0 -184 176 -398 390 l-390 390 -600 0 -600 0 -331 -332z m-279 -818 c21 -22 37 -40 34 -40 -3 0 -23 18 -44 40 -21 22 -37 40 -34 40 3 0 23 -18 44 -40z m273 -107 c-10 -2 -26 -2 -35 0 -10 3 -2 5 17 5 19 0 27 -2 18 -5z m187 -353 c21 -22 37 -40 34 -40 -3 0 -23 18 -44 40 -21 22 -37 40 -34 40 3 0 23 -18 44 -40z m326 -127 l24 -28 -30 25 c-16 14 -32 26 -34 28 -2 1 0 2 6 2 5 0 20 -12 34 -27z m-921 -468 l185 -190 -187 185 c-104 102 -188 189 -188 194 0 5 1 7 3 5 1 -3 85 -90 187 -194z m1055 135 c21 -22 37 -40 34 -40 -3 0 -23 18 -44 40 -21 22 -37 40 -34 40 3 0 23 -18 44 -40z m-1120 -202 l140 -143 -140 138 c-78 76 -144 135 -148 131 -4 -4 -7 -2 -7 4 0 7 3 12 8 12 4 0 70 -64 147 -142z"/>
<path d="M6844 15975 c-4 -14 -5 -28 -2 -30 2 -2 51 9 108 25 l105 29 -102 0 c-102 1 -103 1 -109 -24z"/>
<path d="M8973 15678 c-176 -178 -334 -343 -349 -368 -16 -26 -39 -92 -55 -155 -15 -60 -64 -254 -109 -430 -379 -1487 -352 -1373 -326 -1368 28 7 522 134 706 183 80 21 226 59 325 85 873 228 855 223 904 254 59 39 1298 1280 1341 1344 48 73 100 190 116 265 30 143 12 350 -40 475 -16 36 -18 37 -66 37 -28 0 -50 -2 -50 -5 0 -3 8 -22 19 -43 43 -85 55 -152 56 -294 0 -91 -4 -141 -12 -149 -8 -8 -72 50 -262 240 l-250 251 -68 0 -68 0 303 -303 c166 -166 302 -307 302 -314 0 -18 -65 -126 -90 -148 l-21 -19 -392 392 -392 392 -600 0 -600 0 -322 -322z m-5 -935 c-10 -2 -28 -2 -40 0 -13 2 -5 4 17 4 22 1 32 -1 23 -4z m511 -477 c13 -14 21 -31 18 -38 -4 -9 -6 -8 -6 4 -1 9 -13 26 -27 37 -15 12 -22 21 -17 21 5 0 20 -11 32 -24z m-989 -543 l145 -148 -147 145 c-82 80 -148 138 -148 131 0 -8 -3 -12 -6 -8 -5 5 3 27 9 27 1 0 67 -66 147 -147z"/>
<path d="M12196 15974 c-4 -15 -5 -28 -3 -31 3 -2 51 10 108 26 l104 29 -101 1 c-102 1 -102 1 -108 -25z"/>
<path d="M14323 15671 c-177 -179 -333 -342 -346 -361 -15 -23 -46 -126 -90 -295 -64 -252 -204 -804 -349 -1378 -39 -153 -68 -280 -66 -282 3 -3 27 2 54 10 48 14 111 30 439 115 88 23 255 66 370 97 116 30 260 67 320 83 61 16 207 54 325 85 118 31 251 66 294 76 44 11 98 30 120 41 25 12 153 132 324 301 l282 282 0 705 0 706 -73 72 -72 72 -605 -1 -605 -2 -322 -326z m-5 -928 c-10 -2 -26 -2 -35 0 -10 3 -2 5 17 5 19 0 27 -2 18 -5z m513 -480 l24 -28 -30 25 c-16 14 -32 26 -34 28 -2 1 0 2 6 2 5 0 20 -12 34 -27z m-917 -473 l181 -185 -187 185 c-104 102 -188 192 -187 200 0 13 1 13 6 0 3 -8 87 -98 187 -200z"/>
<path d="M12217 14362 c-196 -197 -357 -363 -357 -370 0 -27 21 -52 44 -52 16 0 118 96 377 354 199 200 355 364 357 376 4 27 -15 50 -42 50 -15 0 -131 -110 -379 -358z"/>
<path d="M2903 12840 c-28 -5 -77 -19 -108 -31 l-58 -21 434 -434 433 -433 -20 -36 c-10 -20 -23 -39 -28 -42 -4 -3 -209 195 -455 441 l-446 446 -422 -422 c-406 -409 -421 -425 -436 -478 -18 -64 -259 -1011 -292 -1147 -15 -63 -19 -93 -11 -93 6 0 72 16 146 36 165 43 294 76 745 193 193 50 361 97 375 103 39 19 837 816 882 882 120 174 123 405 7 580 -44 66 -307 328 -376 375 -103 69 -252 101 -370 81z m252 -120 c52 -20 82 -44 229 -189 92 -91 178 -182 191 -201 45 -70 66 -149 63 -233 l-3 -77 -365 366 -365 365 95 -3 c69 -3 112 -11 155 -28z m-1015 -1435 c0 -11 -14 7 -31 40 -7 13 -3 12 10 -5 11 -14 21 -29 21 -35z m90 -72 c0 -7 -61 31 -73 46 -7 8 7 2 31 -14 23 -15 42 -30 42 -32z m-434 -305 l29 -33 -32 29 c-31 28 -38 36 -30 36 2 0 16 -15 33 -32z m4 -139 c0 -4 -30 24 -67 62 -47 49 -69 66 -75 57 -4 -8 -8 -8 -8 -2 0 29 20 19 82 -43 37 -37 68 -71 68 -74z m76 59 l29 -33 -32 29 c-31 28 -38 36 -30 36 2 0 16 -15 33 -32z"/>
<path d="M8241 12835 c-35 -8 -83 -22 -108 -31 l-45 -17 433 -433 432 -432 -12 -31 c-30 -71 -9 -87 -487 390 l-444 444 -424 -425 -425 -425 -106 -420 c-59 -231 -133 -522 -164 -646 l-58 -225 86 22 c47 12 192 50 321 84 251 66 341 89 655 170 110 28 214 60 230 70 17 10 221 211 455 447 460 462 462 464 495 605 29 122 14 232 -47 358 -26 53 -62 95 -202 236 -94 94 -191 183 -216 197 -111 63 -256 87 -369 62z m284 -123 c61 -29 91 -55 236 -200 126 -128 171 -180 191 -222 41 -89 61 -214 39 -249 -7 -11 -96 73 -365 342 -196 196 -356 359 -356 363 0 3 42 5 93 2 78 -3 103 -9 162 -36z m-1299 -1154 l29 -33 -31 28 c-17 15 -33 24 -37 20 -4 -3 -7 -1 -7 5 0 20 15 13 46 -20z m284 -283 c42 -48 42 -48 6 -15 -21 19 -42 44 -48 55 -6 11 -9 18 -6 15 2 -3 24 -27 48 -55z m228 -126 c-3 -20 -5 -19 -9 9 -3 20 -2 29 4 23 5 -5 7 -19 5 -32z m-578 -244 c63 -63 112 -115 110 -115 -3 0 -57 52 -120 115 -63 63 -112 115 -110 115 3 0 57 -52 120 -115z m650 70 c19 -19 32 -35 29 -35 -3 0 -20 16 -39 35 -19 19 -32 35 -29 35 3 0 20 -16 39 -35z m-660 -207 c-3 -2 -36 30 -75 72 l-69 75 74 -72 c41 -40 72 -74 70 -75z"/>
<path d="M13618 12840 c-45 -8 -142 -36 -162 -48 -4 -2 186 -199 424 -437 l432 -432 -16 -29 c-8 -16 -20 -36 -25 -44 -9 -12 -98 72 -458 433 l-448 447 -426 -427 -426 -428 -37 -150 c-20 -82 -92 -370 -161 -640 -68 -269 -122 -491 -120 -494 5 -4 16 -1 280 68 240 63 720 188 849 221 66 17 133 39 150 50 17 10 223 212 458 447 457 459 470 475 497 601 14 66 14 182 0 242 -26 112 -64 166 -248 353 -194 197 -247 233 -386 262 -76 16 -106 17 -177 5z m257 -128 c59 -28 94 -57 223 -185 215 -213 240 -254 249 -414 3 -51 4 -93 2 -93 -2 0 -168 165 -369 366 l-365 365 95 -3 c83 -3 104 -7 165 -36z m-1260 -1186 c6 -4 1 -4 -10 2 -11 6 -29 19 -39 31 -10 11 -23 18 -29 14 -6 -4 -7 -1 -2 6 5 9 16 5 39 -16 17 -15 36 -32 41 -37z m278 -282 c18 -14 22 -21 11 -15 -22 11 -84 77 -84 89 0 4 10 -5 21 -20 11 -15 35 -39 52 -54z m195 -95 c-3 -20 -5 -19 -9 9 -3 20 -2 29 4 23 5 -5 7 -19 5 -32z m78 -181 l29 -33 -32 29 c-18 17 -33 31 -33 33 0 8 8 1 36 -29z"/>
<path d="M4921 11429 c-50 -10 -201 -58 -201 -65 0 -2 298 -302 661 -665 l662 -662 -21 -41 c-11 -22 -35 -62 -54 -88 l-34 -48 -695 695 -694 694 -613 -612 c-338 -337 -630 -637 -651 -667 -34 -49 -46 -88 -120 -380 -90 -357 -195 -773 -320 -1264 -45 -175 -79 -321 -77 -324 3 -2 56 9 118 26 62 16 183 48 268 70 273 71 471 123 620 162 457 120 744 195 813 211 50 12 98 32 130 54 81 54 1307 1287 1356 1364 183 286 154 669 -72 931 -112 131 -438 443 -512 492 -83 54 -176 92 -275 113 -77 16 -218 18 -289 4z m319 -105 c61 -18 178 -73 218 -104 15 -11 134 -127 266 -258 265 -263 306 -319 347 -465 19 -66 23 -105 23 -197 -2 -203 64 -249 -614 428 -326 326 -590 596 -586 599 24 25 254 22 346 -3z m-1516 -2191 c9 -18 14 -33 12 -33 -6 0 -36 55 -36 66 0 11 5 3 24 -33z m460 -460 c9 -18 14 -33 12 -33 -6 0 -36 55 -36 66 0 11 5 3 24 -33z m-984 -228 l185 -190 -187 185 c-104 102 -188 189 -188 194 0 5 1 7 3 5 1 -3 85 -90 187 -194z m-68 -72 c76 -76 138 -141 138 -145 0 -5 -5 -8 -11 -8 -5 0 -8 4 -5 8 3 5 -57 70 -133 145 -76 76 -135 137 -132 137 3 0 68 -62 143 -137z"/>
<path d="M10263 11425 c-35 -8 -92 -24 -129 -36 l-66 -22 666 -666 666 -666 -32 -55 c-17 -30 -42 -70 -56 -88 l-25 -33 -693 692 -693 693 -26 -24 c-14 -13 -296 -295 -628 -626 -401 -402 -611 -619 -629 -651 -17 -31 -50 -142 -91 -308 -64 -252 -116 -457 -294 -1155 -115 -450 -122 -480 -112 -480 4 0 61 14 126 31 65 17 183 48 263 69 80 20 224 58 320 83 96 26 238 63 315 83 77 20 205 53 285 74 80 21 243 64 363 95 120 31 235 66 255 77 50 28 1302 1277 1357 1353 50 70 89 152 116 250 24 87 26 262 4 366 -19 90 -78 216 -138 294 -67 89 -483 495 -551 540 -163 106 -391 150 -573 110z m352 -109 c141 -45 190 -81 433 -321 245 -242 283 -286 336 -392 50 -99 70 -202 63 -328 -2 -55 -8 -108 -12 -119 -7 -15 -109 83 -602 575 l-593 594 47 11 c80 19 237 9 328 -20z m-1930 -1816 c21 -22 37 -40 34 -40 -3 0 -23 18 -44 40 -21 22 -37 40 -34 40 3 0 23 -18 44 -40z m460 -460 c21 -22 37 -40 34 -40 -3 0 -23 18 -44 40 -21 22 -37 40 -34 40 3 0 23 -18 44 -40z m354 -169 c0 -14 -1 -14 -6 -1 -3 8 -15 26 -27 40 l-21 25 28 -24 c15 -14 27 -32 26 -40z m-939 -436 c102 -102 183 -185 180 -185 -3 0 -88 83 -190 185 -102 102 -183 185 -180 185 3 0 88 -83 190 -185z m1050 140 c19 -19 32 -35 29 -35 -3 0 -20 16 -39 35 -19 19 -32 35 -29 35 3 0 20 -16 39 -35z m-1121 -199 c104 -104 139 -146 130 -151 -8 -5 -10 -4 -6 0 4 5 -57 73 -135 152 -79 79 -140 143 -138 143 3 0 70 -65 149 -144z"/>
<path d="M15631 11430 c-63 -13 -201 -60 -201 -68 0 -4 128 -135 285 -292 l285 -285 0 68 0 68 -201 200 c-111 110 -199 202 -196 205 3 3 38 10 79 15 97 12 231 0 304 -28 11 -4 14 5 14 44 l0 50 -52 12 c-67 17 -259 23 -317 11z"/>
<path d="M0 11330 c0 -46 2 -51 32 -66 70 -36 141 -100 359 -320 189 -192 232 -241 268 -306 61 -113 84 -213 79 -357 -2 -64 -7 -122 -12 -130 -6 -10 -102 80 -367 345 l-359 359 0 -65 0 -65 344 -344 345 -344 -24 -46 c-13 -25 -38 -66 -55 -90 l-32 -44 -289 289 -289 289 0 -639 0 -639 26 24 c85 78 615 611 646 649 158 196 205 473 123 722 -49 151 -81 194 -340 456 -241 245 -321 314 -408 351 l-47 20 0 -49z"/>
<path d="M14623 10618 c-341 -343 -633 -642 -647 -665 -14 -23 -39 -95 -55 -160 -16 -65 -61 -242 -100 -393 -295 -1159 -353 -1391 -347 -1397 2 -2 46 7 98 21 51 14 165 44 253 66 88 23 212 55 275 72 63 16 165 42 225 58 61 16 205 53 320 83 373 98 528 139 630 165 61 15 118 37 145 55 25 16 165 149 313 296 l267 266 0 705 0 705 -373 373 c-204 204 -374 372 -377 372 -3 0 -285 -280 -627 -622z m-643 -2390 c-3 -2 -70 65 -150 147 l-145 150 150 -147 c82 -81 147 -149 145 -150z"/>
<path d="M6862 9007 c-248 -248 -352 -359 -352 -374 0 -28 37 -55 59 -44 23 13 721 713 721 723 0 25 -23 48 -48 48 -22 0 -89 -62 -380 -353z"/>
<path d="M2845 7471 c-121 -37 -157 15 327 -469 l432 -432 -17 -35 c-9 -20 -23 -38 -30 -41 -8 -3 -196 179 -455 438 l-443 443 -428 -430 -427 -430 -73 -290 c-39 -159 -112 -447 -161 -640 -49 -192 -88 -350 -87 -351 3 -3 286 70 712 182 365 97 521 137 545 142 30 6 853 822 906 898 111 161 117 395 13 559 -36 58 -301 329 -372 382 -27 20 -85 49 -130 64 -99 35 -216 38 -312 10z m256 -87 c97 -29 132 -54 297 -218 141 -139 168 -171 200 -235 33 -66 37 -83 40 -170 l4 -96 -361 360 c-199 198 -361 363 -361 367 0 14 125 8 181 -8z m-1235 -1176 l29 -33 -32 29 c-18 17 -33 31 -33 33 0 8 8 1 36 -29z m208 -76 c2 -4 -11 -6 -30 -4 -19 2 -34 6 -34 8 0 8 59 4 64 -4z m-269 -582 c60 -60 107 -110 105 -110 -3 0 -55 50 -115 110 -60 61 -107 110 -105 110 3 0 55 -49 115 -110z m649 71 c21 -22 25 -31 14 -37 -7 -4 -10 -3 -5 1 4 5 -5 21 -20 37 -15 15 -24 28 -22 28 3 0 18 -13 33 -29z"/>
<path d="M8172 7463 l-83 -27 435 -435 436 -436 -26 -44 -27 -43 -448 448 -449 449 -424 -424 -424 -424 -35 -141 c-19 -78 -79 -312 -132 -521 -138 -541 -157 -615 -153 -625 3 -7 124 23 563 139 83 21 276 72 430 112 l280 72 429 426 c257 255 444 449 467 484 56 85 73 152 73 277 0 89 -5 115 -27 173 -37 96 -70 139 -225 294 -169 170 -203 197 -295 236 -62 26 -87 31 -177 34 -92 3 -115 0 -188 -24z m345 -102 c58 -28 93 -57 236 -199 133 -132 174 -180 198 -228 35 -71 55 -173 45 -228 l-8 -39 -359 359 c-197 197 -359 363 -359 368 0 5 40 7 89 4 73 -4 102 -11 158 -37z m-721 -1728 c15 -20 23 -33 16 -29 -13 8 -56 66 -49 66 3 0 17 -17 33 -37z m-720 -5 l29 -33 -32 29 c-31 28 -38 36 -30 36 2 0 16 -15 33 -32z m80 -80 l29 -33 -32 29 c-31 28 -38 36 -30 36 2 0 16 -15 33 -32z m-66 -65 l75 -78 -77 75 c-72 69 -83 80 -75 80 1 0 36 -35 77 -77z m146 -15 l29 -33 -32 29 c-31 28 -38 36 -30 36 2 0 16 -15 33 -32z"/>
<path d="M13570 7475 c-102 -30 -120 -36 -120 -43 0 -4 194 -201 432 -439 l432 -432 -28 -42 -28 -42 -449 449 -449 449 -408 -410 c-224 -225 -414 -419 -423 -430 -8 -11 -54 -173 -101 -360 -48 -187 -121 -474 -163 -639 -41 -164 -74 -300 -72 -302 1 -2 25 3 52 11 28 7 192 50 365 95 695 180 853 222 869 235 52 37 840 831 873 879 58 85 80 154 86 268 5 108 -17 202 -66 288 -14 25 -104 124 -201 220 -187 186 -226 213 -347 245 -71 18 -193 18 -254 0z m262 -99 c88 -31 138 -69 284 -218 152 -154 188 -202 214 -284 18 -60 29 -204 14 -204 -11 0 -723 718 -717 724 16 15 141 4 205 -18z m-1219 -1205 c-2 -3 -20 12 -41 34 l-37 39 41 -35 c22 -19 39 -36 37 -38z m171 -39 c2 -4 -11 -6 -30 -4 -19 2 -34 6 -34 8 0 8 59 4 64 -4z m146 -262 c17 -7 29 -15 26 -17 -14 -14 -146 98 -146 123 0 3 20 -16 45 -44 24 -27 58 -55 75 -62z m158 -71 c-3 -20 -5 -19 -9 9 -3 20 -2 29 4 23 5 -5 7 -19 5 -32z m-578 -244 c63 -63 112 -115 110 -115 -3 0 -57 52 -120 115 -63 63 -112 115 -110 115 3 0 57 -52 120 -115z m649 71 c25 -26 29 -36 19 -41 -7 -5 -10 -4 -5 0 4 5 -7 24 -25 42 -17 18 -30 33 -27 33 3 0 20 -15 38 -34z m-714 -148 l70 -73 -71 68 c-38 37 -73 64 -77 61 -4 -4 -7 -2 -7 4 0 23 16 11 85 -60z"/>
<path d="M4915 6075 c-141 -43 -191 -59 -195 -62 -2 -2 294 -302 659 -667 l664 -664 -28 -54 c-15 -29 -40 -69 -56 -88 l-28 -35 -693 693 -694 693 -629 -630 c-553 -553 -633 -637 -657 -688 -15 -32 -80 -270 -147 -533 -66 -261 -159 -628 -206 -815 -141 -556 -147 -577 -143 -580 2 -1 57 12 123 30 66 17 185 49 265 69 80 21 210 55 290 76 80 21 287 75 460 120 749 194 756 196 805 225 22 13 335 320 696 682 630 632 657 661 696 738 72 140 88 209 87 370 0 120 -4 152 -25 221 -49 160 -89 214 -354 482 -258 261 -294 293 -403 347 -118 58 -198 75 -347 74 -71 0 -134 -2 -140 -4z m355 -114 c137 -47 188 -87 456 -355 218 -219 255 -260 288 -324 72 -140 99 -294 76 -431 l-12 -74 -594 594 c-326 326 -590 597 -586 600 13 13 66 17 187 14 92 -2 135 -8 185 -24z m-1940 -1816 c19 -19 32 -35 29 -35 -3 0 -20 16 -39 35 -19 19 -32 35 -29 35 3 0 20 -16 39 -35z m466 -467 l29 -33 -32 29 c-31 28 -38 36 -30 36 2 0 16 -15 33 -32z m104 -74 c0 -7 -58 25 -65 36 -3 5 10 1 29 -11 20 -12 36 -23 36 -25z m356 -386 l29 -33 -32 29 c-31 28 -38 36 -30 36 2 0 16 -15 33 -32z"/>
<path d="M10245 6069 c-36 -8 -59 -16 -148 -48 -27 -11 -19 -19 636 -674 l664 -664 -28 -54 c-15 -30 -40 -69 -56 -87 l-28 -33 -693 692 -693 693 -629 -629 c-482 -482 -634 -640 -654 -679 -15 -29 -61 -189 -107 -371 -44 -176 -123 -489 -175 -695 -53 -206 -122 -481 -155 -610 -33 -129 -62 -244 -65 -254 -5 -15 -3 -18 12 -12 11 4 78 22 149 41 72 18 294 76 495 129 397 103 443 115 815 213 138 36 285 74 328 84 150 36 129 19 805 693 343 341 644 648 669 681 57 74 117 200 138 286 22 94 19 275 -5 373 -23 92 -68 188 -123 266 -58 80 -471 490 -545 539 -71 48 -174 94 -258 116 -65 17 -281 19 -349 4z m375 -107 c69 -24 144 -62 190 -96 49 -37 454 -440 502 -500 48 -60 89 -140 114 -221 22 -72 28 -325 7 -346 -9 -9 -147 124 -597 574 -322 322 -586 590 -586 596 0 28 287 23 370 -7z m-1599 -1949 l24 -28 -25 22 c-14 11 -34 23 -45 26 -19 5 -19 5 1 6 11 0 31 -11 45 -26z m458 -457 c13 -14 21 -31 18 -38 -4 -9 -6 -8 -6 4 -1 9 -13 26 -27 37 -15 12 -22 21 -17 21 5 0 20 -11 32 -24z m-729 -649 c13 -5 13 -6 0 -6 -8 -1 -98 83 -200 187 l-185 187 185 -181 c102 -100 192 -184 200 -187z m-124 -34 c-1 -2 -65 60 -141 137 -95 96 -141 136 -147 127 -5 -7 -8 -8 -8 -1 0 32 27 12 157 -118 78 -78 141 -143 139 -145z"/>
<path d="M15590 6066 c-74 -21 -160 -51 -160 -56 0 -3 128 -133 285 -290 l285 -285 0 65 0 65 -202 202 c-111 111 -199 206 -195 209 15 15 270 14 327 -1 30 -8 59 -15 63 -15 4 0 7 21 5 47 l-3 47 -50 13 c-64 16 -295 16 -355 -1z"/>
<path d="M0 5976 c0 -51 2 -54 32 -67 56 -23 168 -122 359 -315 239 -243 272 -287 320 -429 21 -61 24 -88 24 -217 0 -80 -4 -150 -8 -154 -4 -5 -170 154 -367 351 l-360 360 0 -66 0 -66 346 -346 347 -346 -41 -68 c-76 -125 -33 -147 -362 182 l-290 290 0 -645 0 -645 311 310 c339 339 389 395 441 500 90 179 107 347 56 549 -41 168 -97 247 -357 509 -225 228 -297 290 -393 338 l-58 29 0 -54z"/>
<path d="M14632 5272 c-341 -341 -633 -640 -650 -664 -23 -33 -42 -93 -85 -263 -31 -121 -90 -355 -132 -520 -217 -855 -295 -1165 -295 -1174 0 -6 18 -5 48 4 26 8 119 32 207 55 88 23 210 54 270 70 61 16 207 54 325 85 118 31 265 69 325 85 61 15 191 50 290 76 99 26 237 62 307 79 70 18 144 43 165 55 21 13 163 147 316 299 l277 276 0 705 0 705 -374 374 -374 373 -620 -620z m-592 -1127 c19 -19 32 -35 29 -35 -3 0 -20 16 -39 35 -19 19 -32 35 -29 35 3 0 20 -16 39 -35z m465 -465 c21 -22 37 -40 34 -40 -3 0 -23 18 -44 40 -21 22 -37 40 -34 40 3 0 23 -18 44 -40z m399 -385 l17 -30 -20 24 c-12 13 -21 28 -21 34 0 12 0 11 24 -28z m-995 -207 c96 -98 183 -178 191 -179 12 0 12 -2 1 -6 -16 -7 -381 355 -380 377 0 13 1 13 6 0 3 -8 85 -95 182 -192z m1056 132 c21 -22 37 -40 34 -40 -3 0 -23 18 -44 40 -21 22 -37 40 -34 40 3 0 23 -18 44 -40z m-1120 -200 c77 -77 137 -140 135 -140 -3 0 -68 63 -145 140 -77 77 -137 140 -135 140 3 0 68 -63 145 -140z"/>
<path d="M1507 3652 c-196 -197 -357 -362 -357 -368 0 -22 33 -55 52 -52 30 5 728 707 728 733 0 27 -18 45 -45 45 -14 0 -138 -118 -378 -358z"/>
<path d="M2910 2134 c-28 -6 -150 -44 -164 -52 -4 -2 186 -199 424 -437 l433 -433 -24 -41 c-12 -22 -25 -41 -28 -41 -4 0 -206 200 -451 445 l-445 445 -408 -408 c-224 -224 -416 -420 -427 -437 -10 -16 -66 -217 -124 -445 -135 -533 -175 -691 -182 -712 -5 -16 13 -17 220 -18 219 0 229 1 333 29 60 16 241 64 403 106 162 42 296 77 297 78 1 1 198 197 437 436 337 337 442 447 465 490 100 190 85 397 -42 567 -53 70 -294 307 -354 348 -67 45 -167 77 -258 81 -44 2 -91 1 -105 -1z m150 -94 c116 -22 155 -49 342 -238 210 -213 229 -244 236 -389 2 -51 1 -93 -4 -93 -4 0 -169 161 -365 358 -314 313 -355 358 -336 364 34 9 69 9 127 -2z m-1160 -1216 c0 -3 -13 4 -30 16 -16 12 -30 24 -30 26 0 3 14 -4 30 -16 17 -12 30 -24 30 -26z m-100 -766 c0 -5 -5 -8 -11 -8 -5 0 -8 4 -5 8 3 5 -24 37 -59 72 -36 36 -65 58 -65 51 0 -8 -3 -12 -6 -8 -3 3 -3 11 1 17 5 8 31 -12 76 -56 38 -38 69 -72 69 -76z"/>
<path d="M8215 2120 c-38 -12 -80 -23 -92 -27 -13 -3 -23 -8 -23 -12 0 -4 193 -200 429 -436 l429 -429 -19 -37 c-10 -21 -23 -40 -27 -43 -5 -3 -210 196 -456 442 l-447 446 -412 -415 c-227 -228 -418 -423 -424 -432 -7 -9 -40 -121 -72 -249 -160 -626 -231 -909 -231 -918 0 -5 90 -9 222 -10 l221 0 131 34 c72 20 192 51 266 70 375 98 403 106 439 136 20 15 218 212 442 437 437 440 452 458 484 594 19 81 19 157 0 237 -30 126 -56 163 -250 358 -113 114 -197 190 -225 204 -132 67 -267 84 -385 50z m207 -81 c114 -25 152 -52 334 -233 136 -137 176 -183 199 -231 31 -66 52 -184 41 -230 -7 -28 -15 -21 -367 331 -285 285 -355 360 -341 366 26 10 76 9 134 -3z m-1152 -1226 c0 -8 -38 17 -51 33 -9 11 -2 9 19 -6 17 -13 32 -25 32 -27z m468 -374 c-3 -20 -5 -19 -9 9 -3 20 -2 29 4 23 5 -5 7 -19 5 -32z m-583 -239 c60 -60 107 -110 105 -110 -3 0 -55 50 -115 110 -60 61 -107 110 -105 110 3 0 55 -49 115 -110z m680 32 c-3 -3 -6 -3 -7 -1 -2 2 -16 20 -33 39 l-30 35 37 -34 c21 -19 36 -37 33 -39z"/>
<path d="M13563 2120 c-138 -36 -172 14 317 -475 l432 -432 -15 -30 c-34 -65 -13 -82 -487 392 l-445 445 -398 -398 c-219 -218 -411 -413 -427 -432 -25 -31 -47 -108 -164 -570 -74 -294 -140 -551 -146 -570 -5 -19 -10 -38 -10 -43 0 -4 109 -6 243 -4 l242 3 170 47 c94 26 260 70 370 98 110 28 214 60 230 70 17 10 221 211 456 446 305 308 432 442 451 478 44 84 61 167 55 275 -8 172 -47 240 -253 446 -153 152 -203 194 -272 224 -115 52 -230 61 -349 30z m208 -80 c110 -21 161 -56 341 -237 143 -145 171 -178 199 -238 27 -58 34 -85 37 -157 3 -49 0 -88 -4 -88 -5 0 -171 162 -368 359 -281 281 -355 360 -340 364 33 8 80 7 135 -3z m-1151 -1226 c0 -3 -13 4 -30 16 -16 12 -30 24 -30 26 0 3 14 -4 30 -16 17 -12 30 -24 30 -26z m302 -294 c18 -11 29 -20 23 -20 -5 0 -23 9 -40 20 -39 26 -25 26 17 0z m-486 -252 l29 -33 -32 29 c-31 28 -38 36 -30 36 2 0 16 -15 33 -32z m80 -80 l29 -33 -32 29 c-31 28 -38 36 -30 36 2 0 16 -15 33 -32z m-74 -55 c68 -67 78 -83 56 -83 -6 0 -8 3 -4 7 9 9 -115 134 -126 127 -4 -3 -8 0 -8 5 0 21 15 10 82 -56z m181 -52 c-2 -3 -18 10 -36 29 l-32 34 36 -30 c20 -16 34 -31 32 -33z"/>
<path d="M4915 720 c-43 -8 -195 -58 -195 -64 0 -1 147 -149 327 -329 l327 -327 65 0 66 0 -309 309 c-347 347 -330 316 -176 327 178 12 347 -46 490 -169 41 -35 164 -155 272 -265 l198 -202 50 0 51 0 -32 48 c-40 59 -434 458 -511 518 -66 51 -188 114 -268 138 -65 20 -281 29 -355 16z"/>
<path d="M10270 721 c-25 -5 -72 -19 -105 -31 -33 -12 -68 -24 -79 -27 -14 -5 51 -75 310 -334 l329 -329 65 0 65 0 -310 310 c-170 171 -305 310 -300 311 6 0 19 2 30 5 11 2 56 7 100 10 118 8 229 -15 345 -72 93 -46 100 -52 354 -305 l260 -259 48 0 c26 0 48 3 48 6 0 32 -490 531 -580 591 -133 89 -243 124 -410 128 -69 2 -145 0 -170 -4z"/>
<path d="M15625 720 c-50 -9 -195 -58 -195 -66 0 -3 127 -132 283 -286 l282 -282 3 62 3 61 -202 201 c-111 110 -200 203 -197 205 9 10 112 25 167 25 31 0 95 -8 144 -18 l87 -18 0 47 0 47 -47 12 c-61 16 -262 22 -328 10z"/>
<path d="M0 621 l0 -48 64 -38 c47 -27 130 -103 312 -286 l247 -249 49 0 c26 0 48 3 48 6 0 22 -92 123 -312 339 -216 214 -263 256 -324 288 -40 20 -75 37 -78 37 -3 0 -6 -22 -6 -49z"/>
<path d="M4275 270 l-270 -270 540 0 540 0 -270 270 c-148 149 -270 270 -270 270 0 0 -122 -121 -270 -270z"/>
<path d="M14985 270 l-270 -270 539 0 539 0 -269 270 c-148 148 -269 270 -269 270 0 0 -122 -121 -270 -270z"/>
<path d="M9630 270 c-143 -143 -260 -262 -260 -265 0 -3 240 -5 532 -5 l533 0 -265 265 c-146 146 -268 265 -272 265 -4 0 -125 -117 -268 -260z"/>
<path d="M2 74 l3 -69 69 -3 69 -3 -34 38 c-19 21 -51 53 -72 72 l-38 34 3 -69z"/>
</g>
<g id="layer102" fill="#fe934e" stroke="none">
<path d="M3714 15638 c-402 -404 -400 -401 -398 -528 3 -199 215 -329 395 -242 31 15 202 180 599 577 l555 555 -395 0 -396 0 -360 -362z"/>
<path d="M4413 15408 c-650 -651 -636 -635 -636 -753 0 -100 52 -190 140 -242 34 -20 63 -27 118 -31 137 -9 111 -30 780 638 l590 590 -195 195 c-107 107 -197 195 -200 195 -3 0 -272 -267 -597 -592z"/>
<path d="M9073 15638 c-396 -397 -402 -405 -403 -514 0 -114 52 -203 152 -256 60 -32 185 -32 243 -1 24 13 267 247 593 573 304 304 552 554 552 556 0 2 -174 4 -388 4 l-387 0 -362 -362z"/>
<path d="M2278 12213 c-207 -208 -381 -388 -387 -400 -32 -64 7 -175 73 -207 39 -18 102 -21 143 -5 29 11 773 746 773 764 0 10 -210 225 -220 225 -3 0 -174 -170 -382 -377z"/>
<path d="M7628 12213 c-293 -295 -378 -386 -388 -416 -23 -74 11 -157 81 -192 33 -18 111 -20 142 -4 12 6 192 180 399 387 l378 377 -112 112 c-62 62 -115 113 -118 113 -3 0 -175 -170 -382 -377z"/>
<path d="M12981 12206 l-384 -384 -5 -55 c-5 -69 17 -120 69 -154 33 -22 47 -25 99 -21 l61 4 385 385 384 384 -113 113 -112 112 -384 -384z"/>
<path d="M4535 12260 c-123 -123 -226 -232 -228 -242 -6 -20 24 -58 45 -58 7 0 116 103 243 230 l230 230 -15 27 c-9 15 -24 29 -34 31 -13 3 -85 -63 -241 -218z"/>
<path d="M9886 12254 c-134 -133 -226 -233 -226 -244 0 -23 26 -50 48 -50 26 0 462 440 462 466 0 25 -24 54 -45 54 -8 0 -115 -101 -239 -226z"/>
<path d="M15244 12259 c-122 -122 -225 -231 -227 -241 -6 -20 24 -58 45 -58 7 0 115 102 240 227 185 184 227 231 222 248 -6 21 -31 45 -48 45 -5 0 -110 -100 -232 -221z"/>
<path d="M2573 11918 c-205 -205 -376 -386 -382 -401 -30 -78 2 -173 69 -207 46 -23 110 -26 148 -6 15 8 196 184 402 390 l375 376 -110 110 c-60 60 -114 110 -120 110 -6 0 -178 -168 -382 -372z"/>
<path d="M7923 11908 c-333 -334 -382 -388 -388 -420 -14 -77 20 -149 86 -183 33 -18 96 -19 136 -4 15 5 198 180 406 387 l377 377 -112 112 c-62 62 -115 113 -118 113 -3 0 -177 -172 -387 -382z"/>
<path d="M13278 11913 c-329 -331 -378 -383 -388 -420 -20 -76 15 -154 84 -187 39 -18 107 -21 139 -5 12 6 192 180 399 387 l378 377 -112 112 c-62 62 -115 113 -118 113 -3 0 -175 -170 -382 -377z"/>
<path d="M2878 11622 c-207 -207 -381 -387 -387 -399 -16 -32 -13 -110 5 -149 33 -69 133 -102 207 -70 18 8 198 180 407 390 l375 376 -115 115 -115 115 -377 -378z"/>
<path d="M8223 11608 c-258 -259 -384 -392 -389 -411 -30 -126 87 -238 208 -198 24 8 141 119 408 386 206 207 377 378 379 381 5 5 -209 224 -219 224 -3 0 -177 -172 -387 -382z"/>
<path d="M13578 11613 c-411 -413 -412 -414 -389 -500 6 -22 20 -52 31 -65 39 -51 122 -72 187 -48 15 6 198 181 405 388 l378 377 -112 112 c-62 62 -115 113 -118 113 -3 0 -175 -170 -382 -377z"/>
<path d="M3948 10513 c-400 -401 -602 -610 -612 -634 -78 -188 53 -389 254 -389 121 0 105 -14 753 634 323 324 587 591 587 595 0 3 -87 93 -193 199 l-192 192 -597 -597z"/>
<path d="M14659 10522 c-390 -391 -594 -602 -610 -632 -33 -63 -34 -186 -1 -247 51 -96 127 -145 238 -151 129 -7 99 -32 764 633 l595 595 -195 195 c-107 107 -197 195 -200 195 -3 -1 -269 -265 -591 -588z"/>
<path d="M4409 10053 c-520 -521 -599 -604 -615 -647 -37 -100 -17 -208 52 -285 59 -66 121 -94 205 -95 122 0 109 -12 762 641 l587 588 -198 198 -197 197 -596 -597z"/>
<path d="M9768 10052 c-328 -328 -604 -613 -613 -632 -26 -51 -31 -147 -11 -207 50 -150 238 -233 376 -165 33 16 210 186 640 617 l595 595 -195 195 -195 195 -597 -598z"/>
<path d="M15123 10057 c-413 -413 -598 -606 -614 -637 -31 -61 -32 -166 -3 -231 46 -100 144 -163 254 -163 123 0 109 -12 703 582 l537 537 0 110 0 110 -143 143 -142 142 -592 -593z"/>
<path d="M10233 9597 c-405 -406 -598 -606 -614 -637 -35 -67 -33 -176 3 -245 53 -101 133 -149 248 -150 64 0 83 4 126 28 35 20 225 203 637 615 l587 587 -198 197 -197 198 -592 -593z"/>
<path d="M4873 9588 c-454 -454 -597 -604 -612 -638 -29 -64 -28 -160 3 -225 31 -68 101 -130 167 -149 66 -20 101 -20 170 0 52 15 74 36 657 617 l602 602 -192 192 c-106 106 -195 193 -198 193 -3 0 -271 -267 -597 -592z"/>
<path d="M15494 9508 c-555 -557 -546 -546 -546 -670 0 -112 60 -205 161 -252 65 -29 170 -29 231 1 31 16 142 120 353 330 l307 308 -2 393 -3 392 -501 -502z"/>
<path d="M2278 6862 c-207 -207 -382 -390 -388 -405 -36 -98 24 -204 127 -223 75 -14 94 2 493 401 l375 375 -115 115 -115 115 -377 -378z"/>
<path d="M7628 6853 c-378 -380 -387 -389 -393 -435 -17 -115 98 -215 206 -179 24 8 146 123 417 394 l382 382 -113 113 -112 112 -387 -387z"/>
<path d="M12988 6862 c-207 -207 -381 -387 -387 -399 -16 -31 -14 -109 4 -142 22 -44 71 -79 119 -86 82 -13 101 3 501 404 l370 371 -115 115 -115 115 -377 -378z"/>
<path d="M4537 6906 c-119 -118 -221 -225 -227 -237 -16 -29 17 -65 52 -56 12 4 122 105 243 226 211 212 219 221 209 248 -6 19 -17 29 -35 31 -22 3 -59 -30 -242 -212z"/>
<path d="M9882 6897 c-219 -220 -239 -246 -210 -275 30 -30 55 -10 276 211 219 220 239 246 210 275 -30 30 -55 10 -276 -211z"/>
<path d="M15239 6903 c-119 -120 -219 -225 -222 -234 -8 -23 20 -59 46 -59 14 0 90 69 235 213 117 116 218 220 223 229 16 29 -6 68 -38 68 -23 0 -66 -38 -244 -217z"/>
<path d="M2578 6562 c-207 -207 -381 -387 -387 -399 -6 -12 -11 -44 -11 -71 0 -63 30 -109 90 -140 49 -25 98 -24 149 3 14 7 192 180 396 384 l370 371 -115 115 -115 115 -377 -378z"/>
<path d="M7933 6568 c-430 -431 -434 -437 -382 -544 23 -48 65 -79 120 -89 73 -13 100 8 497 407 l373 374 -115 112 c-62 62 -115 112 -117 112 -2 0 -172 -168 -376 -372z"/>
<path d="M13283 6558 c-326 -327 -383 -389 -392 -423 -31 -117 82 -226 199 -195 40 11 85 51 425 391 l380 379 -115 115 -115 115 -382 -382z"/>
<path d="M2870 6255 l-384 -384 -4 -63 c-4 -73 16 -115 70 -148 33 -20 113 -26 151 -12 14 6 425 411 724 714 l53 53 -113 113 -112 112 -385 -385z"/>
<path d="M8228 6263 c-207 -208 -382 -391 -388 -406 -26 -70 3 -156 66 -197 33 -22 121 -27 157 -9 12 6 192 180 399 387 l378 377 -112 112 c-62 62 -115 113 -118 113 -3 0 -175 -170 -382 -377z"/>
<path d="M13578 6263 c-332 -334 -378 -383 -388 -421 -28 -105 46 -202 153 -202 27 0 58 5 70 11 12 6 192 180 399 387 l378 377 -112 112 c-62 62 -115 113 -118 113 -3 0 -175 -170 -382 -377z"/>
<path d="M9304 5167 c-392 -393 -597 -605 -609 -632 -30 -63 -32 -170 -5 -234 62 -143 236 -209 374 -142 27 14 235 214 634 613 l592 593 -197 197 -198 197 -591 -592z"/>
<path d="M14653 5157 c-581 -581 -602 -604 -617 -656 -30 -102 -12 -197 50 -269 55 -65 123 -96 209 -97 128 0 111 -14 767 642 l588 588 -198 197 -197 198 -602 -603z"/>
<path d="M4404 4688 c-567 -569 -602 -606 -615 -653 -40 -143 14 -268 145 -338 55 -29 184 -31 236 -3 19 10 304 286 633 614 l597 597 -192 192 c-106 106 -195 193 -198 193 -3 0 -276 -271 -606 -602z"/>
<path d="M9758 4693 c-563 -565 -597 -601 -613 -652 -21 -64 -16 -159 10 -211 24 -48 82 -107 130 -133 31 -17 57 -22 120 -22 69 0 87 4 131 28 35 20 224 202 635 613 l584 584 -195 195 c-107 107 -197 195 -200 195 -3 0 -274 -269 -602 -597z"/>
<path d="M15114 4698 c-652 -654 -630 -627 -628 -753 2 -189 184 -319 365 -260 51 16 85 49 602 563 l547 547 0 110 0 110 -138 138 c-75 75 -142 137 -147 137 -6 0 -276 -267 -601 -592z"/>
<path d="M10228 4243 c-625 -626 -622 -622 -635 -731 -13 -113 60 -235 169 -282 66 -28 171 -25 233 8 24 12 276 257 630 611 l590 591 -195 195 c-107 107 -197 195 -200 195 -3 0 -269 -264 -592 -587z"/>
<path d="M12988 1513 c-207 -208 -382 -391 -387 -406 -16 -41 -13 -104 5 -143 33 -69 144 -106 212 -70 15 8 196 184 402 390 l375 376 -115 115 -115 115 -377 -377z"/>
<path d="M2278 1503 c-207 -208 -381 -388 -387 -400 -6 -12 -11 -42 -11 -66 0 -111 132 -194 228 -143 15 8 196 184 402 390 l375 376 -110 110 c-60 60 -112 110 -115 110 -3 0 -174 -170 -382 -377z"/>
<path d="M7628 1503 c-322 -324 -378 -384 -389 -420 -37 -126 92 -240 218 -192 15 5 198 180 406 387 l377 377 -112 112 c-62 62 -115 113 -118 113 -3 0 -175 -170 -382 -377z"/>
<path d="M4527 1542 c-125 -125 -227 -231 -227 -236 0 -23 23 -46 48 -46 23 0 68 40 250 223 122 123 222 230 222 239 0 17 -36 48 -55 48 -6 0 -113 -103 -238 -228z"/>
<path d="M9888 1553 c-120 -120 -221 -228 -225 -241 -7 -29 13 -52 46 -52 39 0 461 423 461 462 0 27 -23 48 -51 48 -7 0 -111 -98 -231 -217z"/>
<path d="M15238 1542 c-126 -125 -228 -231 -228 -236 0 -23 23 -46 48 -46 23 0 68 41 251 224 197 198 222 227 216 248 -9 29 -6 25 -35 33 -22 5 -50 -20 -252 -223z"/>
<path d="M2578 1213 c-207 -208 -382 -391 -387 -406 -49 -131 71 -261 200 -218 24 8 145 122 414 391 l380 380 -115 115 -115 115 -377 -377z"/>
<path d="M13283 1208 c-333 -334 -383 -388 -392 -425 -35 -130 102 -245 222 -188 18 8 201 184 407 390 l375 375 -115 115 -115 115 -382 -382z"/>
<path d="M7928 1203 c-207 -208 -382 -391 -388 -406 -24 -65 2 -146 61 -188 42 -30 115 -36 160 -14 19 9 202 184 406 388 l373 372 -112 112 c-62 62 -115 113 -118 113 -3 0 -175 -170 -382 -377z"/>
<path d="M2878 912 c-207 -207 -381 -387 -387 -399 -6 -12 -11 -44 -11 -71 0 -78 57 -146 133 -159 80 -13 96 1 497 402 l375 375 -115 115 -115 115 -377 -378z"/>
<path d="M8233 917 c-204 -204 -378 -386 -387 -404 -62 -123 64 -268 195 -224 24 8 145 122 414 391 l380 380 -115 115 -115 115 -372 -373z"/>
<path d="M13578 903 c-378 -380 -387 -389 -393 -435 -13 -88 49 -170 140 -185 77 -12 96 3 495 402 l374 374 -114 116 -115 115 -387 -387z"/>
<path d="M4336 200 l-199 -200 397 0 c218 0 396 3 396 8 0 8 -382 392 -390 392 -3 0 -95 -90 -204 -200z"/>
</g>
<g id="layer103" fill="#ffcc25" stroke="none">
<path d="M3714 15638 c-402 -404 -400 -401 -398 -528 1 -103 55 -189 148 -238 69 -36 179 -38 246 -5 32 16 205 183 600 578 l555 555 -395 0 -396 0 -360 -362z"/>
<path d="M4412 15407 c-649 -650 -635 -634 -635 -752 0 -100 52 -190 140 -242 34 -20 63 -27 118 -31 137 -9 111 -30 780 638 l589 589 -184 186 c-102 102 -192 190 -201 195 -12 7 -141 -117 -607 -583z"/>
<path d="M9073 15638 c-198 -200 -369 -379 -379 -398 -27 -50 -26 -190 0 -244 25 -50 75 -100 129 -128 59 -32 184 -32 242 -1 23 12 272 253 593 573 303 304 552 554 552 556 0 2 -174 4 -388 4 l-387 0 -362 -362z"/>
<path d="M9764 15408 c-391 -392 -597 -607 -610 -633 -14 -29 -19 -62 -19 -120 0 -70 4 -87 29 -133 32 -58 73 -93 143 -124 65 -29 173 -22 234 15 24 14 307 289 629 611 l585 586 -195 195 c-107 107 -197 195 -200 195 -3 0 -271 -267 -596 -592z"/>
<path d="M14428 15643 c-238 -240 -363 -373 -378 -402 -31 -61 -36 -135 -16 -206 23 -77 98 -154 175 -180 63 -21 148 -17 207 11 26 11 225 203 599 576 l560 558 -395 0 -395 0 -357 -357z"/>
<path d="M15113 15398 c-599 -600 -602 -603 -618 -662 -39 -136 28 -277 159 -337 57 -26 157 -25 216 2 34 15 174 148 588 562 l542 542 0 105 0 105 -143 143 -142 142 -602 -602z"/>
<path d="M0 15610 l0 -44 22 22 22 22 -22 22 -22 22 0 -44z"/>
<path d="M57 15482 l-57 -58 2 -392 3 -392 253 253 252 252 -198 198 -197 197 -58 -58z"/>
<path d="M4868 14943 c-562 -564 -597 -601 -613 -652 -25 -75 -17 -174 18 -234 54 -91 134 -136 242 -137 125 0 106 -17 760 639 l589 590 -194 196 c-107 107 -197 195 -200 195 -3 0 -274 -269 -602 -597z"/>
<path d="M10223 14938 c-600 -601 -601 -603 -618 -662 -40 -138 23 -275 153 -336 38 -18 59 -21 121 -18 44 2 91 11 111 21 19 9 299 281 630 612 l595 595 -195 195 -195 195 -602 -602z"/>
<path d="M15493 14858 c-552 -553 -545 -545 -545 -663 0 -115 70 -220 175 -260 68 -26 179 -17 238 18 24 14 178 160 342 324 l297 298 -2 393 -3 392 -502 -502z"/>
<path d="M1137 12692 c-334 -334 -607 -613 -607 -620 0 -16 36 -52 52 -52 7 0 286 273 620 607 440 440 608 614 608 630 0 22 -26 43 -52 43 -7 0 -287 -273 -621 -608z"/>
<path d="M6493 12698 c-503 -502 -603 -607 -603 -630 0 -25 23 -48 47 -48 4 0 281 273 615 607 411 411 608 614 608 628 0 27 -18 45 -44 45 -14 0 -222 -202 -623 -602z"/>
<path d="M11846 12694 c-377 -376 -606 -613 -606 -624 0 -28 43 -54 67 -41 36 19 1213 1207 1213 1223 0 22 -27 48 -50 48 -12 0 -255 -236 -624 -606z"/>
<path d="M58 13133 l-58 -59 0 -64 0 -65 92 92 c87 87 92 94 82 120 -17 49 -51 42 -116 -24z"/>
<path d="M5240 12965 c-216 -216 -224 -225 -214 -252 6 -18 18 -29 33 -31 20 -3 64 36 248 220 221 221 241 246 211 276 -30 30 -55 10 -278 -213z"/>
<path d="M10601 12970 c-222 -222 -241 -246 -209 -278 29 -29 55 -9 266 201 117 116 218 220 223 229 5 10 5 26 -1 42 -21 56 -45 39 -279 -194z"/>
<path d="M15863 12878 c-131 -131 -149 -158 -121 -186 27 -27 55 -11 156 91 l103 103 -3 62 -3 62 -132 -132z"/>
<path d="M3948 10513 c-400 -401 -602 -610 -612 -634 -78 -188 53 -389 254 -389 121 0 105 -13 753 635 323 323 587 591 587 594 0 3 -87 93 -193 199 l-192 192 -597 -597z"/>
<path d="M9303 10518 c-325 -326 -599 -609 -609 -628 -14 -27 -19 -57 -19 -125 0 -80 3 -95 27 -136 55 -93 134 -138 244 -139 55 0 81 5 120 25 37 19 191 166 639 615 l590 590 -195 195 c-107 107 -197 195 -200 195 -3 0 -271 -267 -597 -592z"/>
<path d="M14659 10521 c-384 -384 -595 -603 -610 -632 -33 -62 -34 -185 -1 -246 51 -96 127 -145 238 -151 129 -7 99 -32 764 633 l595 595 -195 195 c-107 107 -197 195 -200 194 -3 0 -269 -265 -591 -588z"/>
<path d="M4413 10058 c-649 -650 -635 -633 -636 -752 0 -79 31 -153 88 -205 59 -54 107 -74 186 -74 122 -2 109 -13 762 640 l587 588 -198 198 -197 197 -592 -592z"/>
<path d="M9768 10052 c-328 -328 -604 -613 -613 -632 -26 -51 -31 -147 -11 -207 50 -151 239 -233 377 -164 33 17 212 189 640 617 l594 594 -196 194 -195 195 -596 -597z"/>
<path d="M15123 10057 c-413 -413 -598 -606 -614 -637 -31 -61 -32 -166 -3 -231 46 -100 144 -163 254 -163 123 0 109 -11 703 582 l537 537 0 110 0 110 -143 143 -142 142 -592 -593z"/>
<path d="M0 10253 l0 -46 25 23 25 24 -22 23 c-12 13 -23 23 -25 23 -2 0 -3 -21 -3 -47z"/>
<path d="M57 10132 l-57 -58 2 -392 3 -392 253 253 252 252 -198 198 -197 197 -58 -58z"/>
<path d="M10233 9597 c-405 -406 -598 -606 -614 -637 -35 -67 -33 -176 3 -245 53 -101 133 -149 248 -150 64 0 83 4 126 28 35 20 225 203 637 615 l587 587 -198 197 -198 198 -591 -593z"/>
<path d="M4873 9588 c-454 -454 -597 -604 -612 -638 -29 -64 -28 -160 3 -225 31 -68 101 -130 167 -149 66 -20 102 -20 170 0 52 15 75 36 657 617 l602 602 -192 192 c-106 106 -195 193 -198 193 -3 0 -271 -267 -597 -592z"/>
<path d="M15498 9513 c-554 -556 -550 -551 -550 -674 0 -113 60 -206 161 -253 65 -29 170 -29 231 1 31 16 142 120 353 330 l307 308 -2 393 -3 392 -497 -497z"/>
<path d="M1147 7353 c-329 -329 -603 -606 -608 -616 -13 -23 13 -67 39 -67 22 0 1232 1210 1232 1232 0 17 -35 48 -55 48 -5 0 -279 -269 -608 -597z"/>
<path d="M7090 7932 c-14 -9 -290 -282 -613 -605 -425 -426 -587 -595 -587 -611 0 -27 18 -46 44 -46 14 0 222 202 623 602 503 502 603 607 603 630 0 17 -7 31 -19 38 -25 13 -21 13 -51 -8z"/>
<path d="M11857 7353 c-329 -329 -603 -606 -608 -616 -15 -26 -1 -56 28 -63 23 -6 81 49 629 597 332 332 607 613 610 623 7 20 -26 56 -49 56 -7 0 -281 -269 -610 -597z"/>
<path d="M59 7783 l-59 -56 0 -66 0 -66 90 90 c50 49 90 97 90 106 0 18 -31 49 -49 49 -7 0 -39 -25 -72 -57z"/>
<path d="M5246 7614 c-135 -134 -226 -233 -226 -244 0 -18 34 -50 54 -50 6 0 110 100 233 222 183 182 223 227 223 250 0 26 -23 48 -49 48 -5 0 -111 -101 -235 -226z"/>
<path d="M10604 7619 c-183 -183 -224 -228 -224 -251 0 -33 31 -54 58 -39 9 5 116 109 237 230 l220 221 -15 28 c-9 15 -24 28 -34 30 -13 3 -86 -63 -242 -219z"/>
<path d="M15863 7525 c-82 -80 -133 -138 -133 -150 0 -32 16 -47 45 -47 21 0 49 22 127 99 l99 99 -3 65 -3 64 -132 -130z"/>
<path d="M3953 5168 c-409 -410 -598 -607 -614 -638 -36 -70 -33 -177 6 -248 54 -100 132 -146 245 -146 63 0 84 5 126 28 36 19 219 196 637 614 l587 587 -198 198 -197 197 -592 -592z"/>
<path d="M9305 5167 c-390 -391 -597 -606 -610 -632 -30 -63 -32 -170 -5 -234 46 -106 170 -181 280 -168 99 12 107 19 728 640 l592 592 -197 197 -198 196 -590 -591z"/>
<path d="M14653 5157 c-581 -581 -602 -604 -617 -656 -30 -102 -12 -197 50 -269 55 -65 123 -96 209 -97 128 0 111 -15 767 642 l588 588 -198 197 -198 198 -601 -603z"/>
<path d="M4413 4698 c-651 -652 -636 -634 -637 -754 0 -106 55 -192 158 -247 55 -29 184 -31 236 -3 19 10 304 286 633 614 l597 597 -192 192 c-106 106 -195 193 -198 193 -3 0 -272 -267 -597 -592z"/>
<path d="M9758 4693 c-595 -596 -596 -598 -613 -657 -33 -115 -6 -215 77 -293 86 -78 213 -94 315 -38 34 18 227 204 634 611 l584 584 -195 195 c-107 107 -197 195 -200 195 -3 0 -274 -269 -602 -597z"/>
<path d="M15114 4698 c-652 -654 -630 -627 -628 -753 2 -189 184 -319 365 -260 51 16 85 49 602 563 l547 547 0 110 0 110 -138 138 c-76 75 -143 137 -148 137 -5 0 -275 -267 -600 -592z"/>
<path d="M0 4900 l0 -44 22 22 22 22 -22 22 -22 22 0 -44z"/>
<path d="M57 4772 l-57 -58 0 -389 0 -390 252 253 253 252 -195 195 -195 195 -58 -58z"/>
<path d="M4869 4233 c-654 -656 -629 -626 -629 -748 0 -118 75 -225 181 -260 66 -22 159 -17 219 13 33 15 209 185 635 612 l590 590 -195 195 c-107 107 -197 195 -200 195 -3 0 -274 -269 -601 -597z"/>
<path d="M10228 4243 c-625 -626 -622 -622 -635 -731 -12 -106 52 -222 152 -275 58 -31 193 -31 250 0 23 12 295 277 630 612 l590 591 -195 195 c-107 107 -197 195 -200 195 -3 0 -269 -264 -592 -587z"/>
<path d="M15493 4148 c-553 -554 -545 -545 -545 -665 0 -204 214 -336 398 -243 48 24 115 85 357 327 l297 298 -2 393 -3 392 -502 -502z"/>
<path d="M1151 1999 c-325 -324 -598 -601 -607 -614 -21 -32 -4 -65 34 -65 23 0 128 100 630 603 400 401 602 609 602 623 0 26 -19 44 -46 44 -16 0 -186 -164 -613 -591z"/>
<path d="M6492 1987 c-404 -404 -602 -609 -602 -623 0 -26 18 -44 45 -44 28 0 1225 1197 1225 1226 0 26 -18 44 -45 44 -13 0 -217 -197 -623 -603z"/>
<path d="M11847 1993 c-329 -329 -600 -608 -603 -621 -8 -29 12 -52 45 -52 21 0 139 113 623 598 329 328 601 605 604 614 9 28 -14 58 -44 58 -22 0 -130 -103 -625 -597z"/>
<path d="M57 2426 l-57 -54 0 -69 0 -68 92 92 c87 87 92 94 82 120 -17 49 -52 42 -117 -21z"/>
<path d="M5241 2256 c-181 -182 -222 -228 -219 -247 2 -15 13 -27 31 -33 27 -10 36 -2 252 214 124 124 225 232 225 242 0 33 -12 48 -39 48 -21 0 -70 -44 -250 -224z"/>
<path d="M10597 2262 c-222 -222 -239 -246 -205 -280 29 -29 55 -9 266 201 117 116 218 220 223 229 16 29 -6 68 -38 68 -23 0 -66 -38 -246 -218z"/>
<path d="M15863 2168 c-131 -131 -149 -158 -121 -186 27 -27 55 -11 156 91 l103 103 -3 62 -3 62 -132 -132z"/>
<path d="M4340 202 l-195 -197 389 -3 c214 -1 392 0 395 3 5 6 -379 395 -389 395 -3 -1 -93 -89 -200 -198z"/>
<path d="M9695 200 l-200 -200 398 0 c218 0 397 3 397 8 0 8 -382 392 -390 392 -3 0 -95 -90 -205 -200z"/>
<path d="M15045 200 l-200 -200 398 0 c218 0 397 3 397 8 0 8 -382 392 -390 392 -3 0 -95 -90 -205 -200z"/>
</g>
<g id="layer104" fill="#fefdfc" stroke="none">
<path d="M3253 14918 c0 -7 -47 -193 -103 -413 -57 -220 -110 -429 -118 -464 l-15 -63 183 -183 182 -183 57 15 c31 8 63 17 71 19 8 2 125 32 260 67 135 36 292 77 350 92 58 15 129 33 158 42 l53 15 -38 27 c-90 65 -143 163 -151 278 -6 94 -21 109 -117 115 -135 9 -258 93 -315 215 -15 33 -24 75 -28 130 -6 103 -15 113 -108 117 -76 4 -131 21 -191 59 -39 25 -113 102 -113 119 0 13 -17 9 -17 -4z"/>
<path d="M8576 14789 c-21 -79 -39 -150 -41 -159 -2 -8 -40 -159 -84 -335 l-81 -319 182 -183 c112 -112 188 -181 197 -178 10 4 316 84 421 111 190 47 500 131 505 135 3 4 -10 17 -30 29 -84 52 -155 197 -155 315 0 57 -22 75 -89 75 -115 0 -241 68 -305 164 -48 72 -56 96 -63 188 -8 98 -17 108 -112 113 -113 5 -235 74 -292 164 -15 23 -17 19 -53 -120z"/>
<path d="M13960 14914 c0 -3 -34 -139 -76 -302 -41 -164 -76 -301 -78 -307 -1 -5 -20 -81 -41 -168 l-39 -157 183 -184 183 -183 167 43 c249 66 585 153 684 179 81 21 117 35 88 35 -17 0 -100 79 -126 120 -34 54 -55 128 -55 190 0 78 -21 96 -116 102 -126 9 -248 86 -306 195 -27 50 -51 172 -42 209 8 30 -36 55 -105 59 -31 2 -69 6 -86 10 -52 11 -126 58 -175 112 -46 50 -60 61 -60 47z"/>
<path d="M1517 14373 c-192 -192 -353 -359 -358 -372 -11 -28 12 -61 42 -61 11 0 169 150 374 355 360 359 377 379 343 413 -7 7 -21 12 -32 12 -13 0 -142 -121 -369 -347z"/>
<path d="M6867 14362 c-236 -236 -357 -364 -357 -378 0 -26 18 -44 45 -44 13 0 140 120 379 359 321 322 357 361 351 382 -9 27 -22 39 -45 39 -8 0 -176 -161 -373 -358z"/>
<path d="M2985 13847 c-20 -51 -91 -357 -83 -357 8 0 269 67 341 87 27 8 25 10 -113 148 -107 107 -141 135 -145 122z"/>
<path d="M8331 13824 c-57 -222 -82 -326 -78 -331 4 -4 357 84 364 91 1 1 -60 64 -137 141 l-138 138 -11 -39z"/>
<path d="M13650 13687 c-23 -94 -45 -178 -48 -186 -7 -18 15 -14 173 29 142 38 132 36 171 45 l31 7 -126 126 c-69 70 -133 133 -142 139 -14 11 -21 -8 -59 -160z"/>
<path d="M1824 11553 c-3 -15 -26 -107 -51 -203 -25 -96 -54 -211 -64 -255 l-20 -79 110 -110 110 -110 103 27 c57 14 157 40 223 58 66 17 149 39 185 48 l65 17 -26 17 c-38 25 -69 89 -77 159 l-7 63 -64 8 c-74 9 -113 27 -158 73 -46 48 -65 90 -72 159 l-6 60 -55 6 c-66 7 -114 27 -157 63 l-32 27 -7 -28z"/>
<path d="M7185 11567 c-3 -10 -8 -25 -11 -34 -3 -10 -8 -27 -10 -38 -2 -11 -30 -122 -62 -247 l-58 -227 112 -112 113 -112 243 63 c134 34 260 68 281 74 l37 12 -26 25 c-38 35 -64 92 -72 157 -6 51 -10 57 -32 60 -85 8 -130 25 -175 64 -57 50 -76 85 -90 168 l-10 65 -55 6 c-61 7 -111 29 -152 67 -24 22 -28 23 -33 9z"/>
<path d="M12536 11569 c-2 -8 -34 -135 -71 -283 l-67 -268 108 -109 c60 -60 114 -109 121 -109 8 0 62 13 121 29 59 16 180 49 270 72 l163 42 -24 26 c-35 37 -56 82 -70 154 l-13 62 -57 7 c-131 17 -213 101 -226 233 l-6 60 -62 7 c-67 7 -114 27 -155 66 -21 19 -28 22 -32 11z"/>
<path d="M1651 10864 c-25 -95 -33 -135 -30 -139 6 -5 169 38 169 45 0 3 -29 34 -64 69 l-64 64 -11 -39z"/>
<path d="M7009 10895 c-1 -15 -5 -34 -23 -104 -10 -35 -16 -65 -14 -67 6 -5 168 38 168 45 0 11 -130 136 -131 126z"/>
<path d="M12366 10889 c-13 -38 -44 -164 -41 -167 4 -5 175 42 175 48 0 3 -29 34 -65 70 -44 44 -66 59 -69 49z"/>
<path d="M8610 9574 c0 -5 -54 -220 -120 -479 l-120 -470 183 -183 183 -183 59 15 c33 8 110 28 170 44 141 37 571 149 653 170 34 8 62 18 62 21 -1 3 -18 18 -40 33 -48 34 -104 108 -125 167 -8 24 -18 74 -21 110 -9 90 -27 109 -104 110 -193 2 -344 151 -357 352 -4 54 -11 83 -22 93 -9 8 -47 15 -92 18 -117 7 -214 59 -280 152 -16 21 -29 35 -29 30z"/>
<path d="M3255 9558 c-3 -7 -36 -137 -75 -288 -38 -151 -91 -357 -117 -458 l-46 -183 184 -185 185 -184 214 56 c118 31 223 58 234 60 10 2 42 10 70 18 28 8 132 36 231 61 99 26 182 48 184 50 2 3 -22 27 -52 55 -31 28 -66 67 -78 86 -28 45 -49 127 -49 190 0 41 -5 55 -25 74 -14 13 -32 21 -43 18 -32 -9 -132 11 -188 38 -70 33 -156 126 -183 199 -13 36 -21 80 -21 123 -1 85 -14 97 -121 104 -99 8 -177 46 -247 123 -34 36 -54 52 -57 43z"/>
<path d="M13922 9403 c-23 -93 -76 -301 -117 -463 -41 -162 -75 -302 -75 -310 0 -8 80 -95 178 -193 l179 -178 64 16 c35 9 71 18 80 20 9 2 92 24 185 48 211 56 504 133 567 148 26 6 47 14 47 18 0 3 -18 19 -40 34 -80 57 -140 179 -140 285 0 79 -21 99 -107 100 -178 4 -323 133 -352 313 -6 34 -8 72 -5 84 9 38 -31 62 -116 68 -114 8 -211 58 -267 137 -15 22 -31 40 -34 40 -3 0 -24 -75 -47 -167z"/>
<path d="M1507 9002 c-196 -197 -357 -361 -357 -365 0 -24 23 -47 48 -47 23 0 89 62 385 358 352 352 358 359 346 385 -28 61 -40 51 -422 -331z"/>
<path d="M12220 9005 c-195 -195 -356 -359 -358 -365 -7 -21 19 -50 46 -50 22 0 89 62 380 353 193 193 352 360 352 369 0 33 -12 48 -39 48 -22 0 -92 -65 -381 -355z"/>
<path d="M8331 8474 c-26 -102 -81 -324 -81 -329 0 -12 48 -3 185 35 80 22 151 40 159 40 8 0 17 4 20 8 3 5 -57 71 -134 147 l-138 138 -11 -39z"/>
<path d="M13652 8343 c-23 -93 -45 -178 -48 -190 -6 -21 0 -20 180 25 102 26 186 49 186 52 0 3 -62 67 -138 143 l-138 137 -42 -167z"/>
<path d="M2938 8318 c-25 -101 -45 -184 -44 -184 3 -3 315 78 355 92 10 3 -29 49 -119 139 -74 74 -137 135 -140 135 -3 0 -26 -82 -52 -182z"/>
<path d="M1825 6198 c-4 -18 -36 -145 -71 -283 l-64 -250 113 -113 c75 -75 117 -110 127 -106 14 5 155 42 400 105 63 16 121 32 128 34 10 4 3 17 -21 45 -37 43 -57 97 -57 152 0 45 -15 58 -67 58 -116 0 -218 101 -232 230 l-6 54 -60 12 c-79 15 -106 26 -148 64 l-35 31 -7 -33z"/>
<path d="M7185 6217 c-2 -6 -35 -134 -73 -284 l-69 -271 112 -112 c62 -62 117 -110 122 -107 4 3 98 28 208 56 110 29 214 56 230 61 17 5 49 14 73 20 l43 11 -24 19 c-34 27 -67 100 -75 168 l-7 57 -50 3 c-128 7 -226 103 -241 233 l-6 57 -52 7 c-63 8 -128 36 -161 69 -17 17 -27 22 -30 13z"/>
<path d="M12540 6228 c0 -4 -32 -131 -71 -284 l-71 -277 112 -112 112 -113 112 29 c61 17 181 48 266 70 85 23 161 43 169 45 11 3 7 13 -15 37 -41 44 -55 74 -68 149 l-11 63 -60 6 c-72 7 -108 24 -156 76 -49 51 -59 73 -67 146 l-7 61 -66 12 c-74 14 -99 25 -146 68 -18 17 -33 27 -33 24z"/>
<path d="M1660 5545 c0 -6 -11 -48 -24 -95 l-23 -85 90 22 c50 13 92 24 93 26 2 2 -28 34 -66 72 -39 38 -70 65 -70 60z"/>
<path d="M6996 5473 c-11 -43 -21 -84 -24 -92 -6 -16 27 -12 121 17 l58 17 -69 68 -68 68 -18 -78z"/>
<path d="M12366 5529 c-3 -8 -14 -47 -25 -88 l-20 -73 32 6 c18 3 58 14 90 24 l58 17 -65 64 c-46 45 -67 60 -70 50z"/>
<path d="M8603 4187 c-11 -47 -220 -861 -228 -892 -5 -16 33 -58 179 -204 l184 -184 224 57 c123 31 273 70 333 86 61 17 119 32 130 35 11 2 56 14 100 25 44 12 96 25 116 31 l37 9 -68 68 c-77 77 -108 144 -117 254 -4 44 -12 72 -22 81 -9 8 -45 17 -81 20 -114 8 -165 32 -245 111 -82 81 -103 126 -112 243 -7 91 -19 103 -106 108 -35 2 -91 14 -123 26 -59 22 -142 89 -174 141 l-17 28 -10 -43z"/>
<path d="M3255 4209 c-2 -8 -36 -138 -74 -290 -39 -151 -92 -360 -118 -462 l-48 -187 182 -182 182 -182 58 14 c32 7 63 14 68 16 6 1 89 23 185 48 96 26 236 63 310 82 336 87 335 87 309 103 -47 30 -112 105 -137 160 -23 48 -26 70 -27 151 l0 95 -90 1 c-69 0 -104 6 -148 23 -71 28 -153 105 -193 181 -26 50 -29 64 -29 162 0 58 -3 104 -7 102 -4 -3 -31 -6 -60 -8 -127 -10 -258 48 -329 147 -19 26 -30 35 -34 26z"/>
<path d="M13861 3812 c-57 -224 -111 -438 -119 -475 l-16 -68 181 -181 181 -181 49 11 c26 6 82 20 123 30 258 68 318 84 440 116 74 19 178 46 232 60 53 14 99 26 104 26 4 0 -11 13 -33 29 -94 68 -153 180 -153 291 0 76 -21 95 -111 103 -206 18 -345 163 -353 368 -2 80 -15 91 -107 95 -95 4 -198 52 -258 121 -23 25 -41 50 -41 54 0 5 -3 9 -7 9 -5 0 -55 -183 -112 -408z"/>
<path d="M6870 3655 c-235 -235 -356 -362 -358 -378 -4 -30 21 -51 50 -43 30 7 728 706 728 728 0 21 -27 48 -48 48 -10 0 -177 -160 -372 -355z"/>
<path d="M12217 3652 c-196 -196 -357 -364 -357 -373 0 -19 31 -49 51 -49 8 0 175 161 372 358 254 254 357 363 357 379 0 22 -26 43 -52 43 -7 0 -174 -161 -371 -358z"/>
<path d="M13647 2973 c-26 -103 -45 -189 -42 -191 2 -3 73 14 157 36 84 23 168 45 186 49 l32 8 -143 143 -143 142 -47 -187z"/>
<path d="M2938 2968 c-25 -101 -45 -184 -43 -186 3 -4 358 88 364 94 5 5 -260 274 -269 274 -3 0 -26 -82 -52 -182z"/>
<path d="M8332 3119 c-24 -77 -84 -330 -79 -335 6 -7 357 87 357 95 0 3 -60 66 -134 140 l-134 133 -10 -33z"/>
<path d="M1762 593 l-72 -282 111 -112 111 -111 182 48 c99 26 226 59 281 73 l100 26 -32 34 c-37 40 -63 107 -63 163 0 42 -3 44 -72 52 -119 13 -214 108 -225 226 -6 66 -6 67 -66 73 -64 6 -116 28 -156 66 l-28 26 -71 -282z"/>
<path d="M12540 875 c0 -3 -32 -132 -72 -286 l-71 -281 109 -109 c81 -82 114 -109 129 -106 11 2 110 28 220 57 110 29 230 60 266 69 66 16 66 16 43 33 -32 25 -74 115 -78 171 -2 27 -5 50 -7 51 -2 2 -27 6 -54 9 -68 7 -115 28 -157 69 -48 46 -68 89 -76 161 l-7 62 -51 6 c-78 10 -122 28 -160 65 -19 19 -34 32 -34 29z"/>
<path d="M7186 859 c-3 -8 -24 -86 -47 -174 -22 -88 -53 -208 -68 -267 l-28 -106 112 -112 112 -111 234 60 c129 34 253 66 277 72 48 13 50 18 21 45 -29 26 -58 93 -67 156 l-7 53 -57 7 c-129 16 -207 92 -232 224 l-12 69 -50 6 c-63 8 -122 33 -156 66 -21 20 -29 23 -32 12z"/>
<path d="M1650 149 c-6 -24 -18 -66 -25 -92 -13 -44 -13 -48 3 -43 9 2 46 12 82 22 36 9 68 20 72 23 4 4 -21 35 -56 70 l-64 64 -12 -44z"/>
<path d="M7004 163 c-3 -16 -12 -53 -20 -84 -8 -31 -14 -59 -14 -62 0 -5 28 1 129 29 l54 15 -64 65 c-35 35 -67 64 -71 64 -4 0 -10 -12 -14 -27z"/>
<path d="M12366 179 c-13 -39 -45 -163 -43 -165 4 -4 164 40 171 47 3 3 -23 34 -59 69 -44 44 -66 59 -69 49z"/>
</g>


</svg>