<svg xmlns="http://www.w3.org/2000/svg" xmlns:xlink="http://www.w3.org/1999/xlink" width="542" height="612" viewBox="0 0 5420 6120" preserveAspectRatio="xMidYMid meet" xmlns:v="https://vecta.io/nano"><g fill="#104e70"><path d="M2397 5728c-14-11-17-39-19-184-3-151-5-174-22-193-13-14-17-30-13-53 2-18 1-43-4-56-18-48-18-48 405-238 108-49 143-61 158-53 19 10 58 79 58 102 0 8-99 59-247 126-137 62-252 117-258 122-5 5 106 9 278 9h287v205c0 192-1 205-19 215-30 16-582 14-604-2zm571-24c21-6 22-10 22-135v-129h-580v129c0 115 2 130 18 134 26 7 514 8 540 1zm-487-331l21-33h-27c-36 0-65 17-65 39 0 43 42 40 71-6zm138 11c12-15 21-31 21-35 0-5-22-9-49-9-43 0-52 4-70 29-12 16-21 32-21 35s22 6 49 6c42 0 53-4 70-26zm151-11l19-33h-53c-55 0-54-1-84 63-2 4 19 7 47 6 46-2 53-6 71-36zm140 5l20-33-47-3c-42-3-50 0-70 25-13 15-23 31-23 36 0 4 23 7 50 7 46 0 52-3 70-32zm80-3c0-41-11-45-34-10-22 34-20 45 9 45 22 0 25-4 25-35zm-582-63c3-17-2-22-17-22-14 0-21 6-21 18 0 38 33 41 38 4zm32-92c8-44 3-47-41-24-38 19-37 55 1 64 31 8 31 9 40-40zm101 4c20-10 28-23 32-56 3-23 4-45 1-47-2-3-24 5-48 16-34 17-45 28-50 53-13 66-5 70 65 34zm130-60c22-11 28-22 31-59 2-25 0-45-5-45-4 0-26 9-47 20-29 15-40 27-40 43 0 12-3 33-7 46-5 21-4 23 18 16 13-4 36-14 50-21zm108-50c40-16 51-34 51-87v-27l-37 15c-21 9-41 19-45 23-9 9-22 92-14 92 3 0 23-7 45-16zm141-74c0-19-24-60-35-60-12 0-25 43-25 82 0 17 2 18 30 3 17-9 30-20 30-25zm-415 610c-3-5 0-13 8-16 24-9 172 0 170 11-4 14-170 19-178 5zm205-5c0-12 16-15 85-15s85 3 85 15-16 15-85 15-85-3-85-15zm-199-69c-20-23 13-27 204-24 143 3 170 5 170 18 0 22-356 28-374 6zm-4-72c-19-19 22-24 194-24 161 0 189 2 189 15s-28 15-188 15c-104 0-192-3-195-6zm-1270 76c-14-11-29-29-32-40-10-33-60-27-82 10-10 17-24 29-32 28-16-3-89-160-90-194-1-19 3-21 42-17s47 1 107-49c170-141 369-298 377-298s183 400 183 419c0 11-9 13-192 37-124 17-128 18-128 41 0 14-13 38-29 54-36 35-86 39-124 9zm103-30c11-11 20-27 20-36 0-14-8-16-46-10-26 3-55 6-65 6-11 0-19 5-19 10 0 19 40 50 65 50 14 0 34-9 45-20zm-246-91c-17-47-37-69-50-57-2 3 7 33 22 67 34 77 56 69 28-10zm294 2c118-16 216-32 219-35 6-6-126-326-134-326-13 0-363 293-363 304 0 30 31 86 48 86 9 0 113-14 230-29zm207-221c-43-100-82-177-86-173-9 9 121 323 143 351 29 35 14-13-57-178z"/><path d="M1186 5373c-3-3-6-9-6-13 0-8 184-150 194-150 3 0 6 7 6 14 0 8-37 44-82 79-97 75-103 78-112 70zm204-172c0-5 12-19 27-31 19-15 29-18 37-10s4 17-13 31c-25 20-51 25-51 10zm388 144c-3-3-3-35 0-70 7-98-34-170-128-225-11-7-12-12-3-21s22-4 54 18c74 49 109 119 109 219 0 47-18 93-32 79zm-73-25c-4-6-4-22-1-36 11-44-11-101-55-136-48-38-38-62 13-30 47 29 70 74 72 138 1 53-14 88-29 64zM686 5023c-3-3-6-57-6-120 0-62-4-113-9-113s-28 48-51 108c-47 117-55 131-69 117-6-6 5-46 30-108 21-53 39-102 39-107 0-6-26-10-58-10-87 0-92-8-92-163 0-69 4-128 10-132 5-3-7-20-27-38-69-64-53-181 31-221 19-9 46-16 60-16 41 0 103 36 117 68l12 28 26-50c20-39 37-56 71-73 56-29 94-29 144 0 56 31 79 67 84 129 4 61-19 106-76 144-18 13-28 25-22 29s10 56 10 131c0 149-8 164-90 164-27 0-50 5-50 10 0 6 16 49 35 97 37 93 42 117 23 111-7-3-33-53-57-111-24-59-48-107-52-107-5 0-9 51-9 114 0 105-6 136-24 119zm182-275c8-8 12-53 12-135v-123h-40c-23 0-55-7-71-16-23-11-34-12-44-4-17 14-67 9-73-7-2-9 8-13 32-13 20 0 36-2 36-5 0-2-9-19-19-36-19-31-19-31-26-8-17 58-98 108-151 95l-24-6v128c0 71 3 132 7 135 12 13 348 8 361-5zm-255-311c36-28 48-94 23-132-27-41-72-59-117-46-80 24-105 111-50 170 37 40 100 43 144 8zm288 8c37-19 69-70 69-108 0-85-84-151-161-128-41 12-85 58-96 99-3 14 0 44 8 66 26 74 110 107 180 71zm-105 287c-2-4 7-18 20-31 30-29 53-17 35 18-11 20-45 29-55 13zm-254-14c-28-28-3-72 39-66 30 4 47 33 33 56-14 21-55 27-72 10zm48-28c0-5-7-10-15-10s-15 5-15 10c0 6 7 10 15 10s15-4 15-10zm57-57c-4-3-7-28-7-55v-48h200v110h-93c-52 0-97-3-100-7zm163-48c0-24-2-25-70-25s-70 1-70 25 2 25 70 25 70-1 70-25z"/><path d="M519 4392c-17-14-20-25-15-45 11-45 71-47 82-1 11 45-31 74-67 46zm39-33c-2-6-8-10-13-10s-11 4-13 10 4 11 13 11 15-5 13-11zm242 2c-15-28-12-46 8-64 27-24 59-21 78 8 15 23 15 27 0 50-21 31-70 35-86 6zm60-25c0-8-5-18-11-22-14-8-33 11-25 25 10 16 36 13 36-3zm135 392c-75-29-76-31-73-117l3-76 47-22c26-12 59-25 73-29l25-6v136c0 152 4 145-75 114zm42-205c-3-2-21 4-41 13-32 16-36 22-37 58 0 23-2 49-4 59-3 14 8 24 38 37l42 19 3-91c1-50 1-92-1-95zm-617 92c0-69 3-85 15-85s15 16 15 85-3 85-15 85-15-16-15-85zm3406-522c-3-4-6-37-6-73v-68l-44 5c-35 4-48 1-65-16-20-20-21-32-21-174 0-143 1-155 21-173 13-11 35-19 60-19h39v-48c0-60 23-110 56-126 32-14 315-15 347 0 34 16 49 46 54 114l5 60h38c24 0 47 8 59 19 20 18 21 30 21 171s-1 153-21 174c-18 19-29 22-65 18l-44-5 6 68c6 63 5 68-15 75-43 13-59-2-66-65l-7-60h-267l-6 55c-4 30-12 58-19 63-13 10-52 13-60 5zm48-74c6-40 2-59-10-46-3 3-8 24-11 46-7 54 12 54 21 0zm359-1c-6-46-10-55-19-45-8 8 6 87 16 87 4 0 6-19 3-42zm-6-86c16-10 16-121 1-139-8-10-57-13-183-13-96 0-180 3-189 6-20 8-23 139-3 147 20 9 361 7 374-1zm-428-16c8-9 11-60 9-157l-3-144h-80l-3 144c-3 152 2 171 43 171 12 0 28-6 34-14zm549 2c14-14 17-275 3-296-11-18-73-11-79 8-4 12-2 13 9 3 15-15 49-17 49-5 0 15-38 44-49 37-8-4-11 33-11 117 0 130 5 148 45 148 12 0 26-5 33-12zm-110-300c1-136-9-179-43-192-9-3-81-6-160-6-197 0-189-7-193 184l-3 146h398l1-132zm-506 30c2-15 11-24 26-26 27-4 28 9 4 31-25 23-34 21-30-5zm190-60c-27-27-6-68 34-68 33 0 49 25 36 55-13 27-49 34-70 13zm168-2c-6-8-10-25-8-38 2-19 9-23 38-23 31 0 35 3 38 29 5 42-41 64-68 32zm-230-94c0-23 30-52 53-52s21 17-3 30c-11 6-20 17-20 25s-7 15-15 15-15-8-15-18zm-1843-132c-64-16-112-47-163-103-124-135-113-335 25-459 161-145 422-89 514 110 32 68 31 197-2 269-27 62-103 136-166 164-52 23-154 32-208 19zm176-46c26-9 69-36 96-60 150-135 118-380-62-471-148-75-331-10-398 139-32 72-32 174-1 239 36 74 107 137 182 160 43 13 135 10 183-7zm-284-81c-47-51-72-91-65-109 9-24 23-16 49 29 14 23 39 55 56 71 30 28 32 46 7 46-6 0-28-17-47-37zm26-49c-27-29-33-64-12-63 18 1 70 67 62 79-10 16-24 12-50-16zm36-40c-21-27-20-44 2-44 16 1 49 48 42 60-10 16-22 12-44-16zm68-9c-39-21-59-59-59-109 0-77 73-130 146-106 100 33 114 169 20 214-41 19-72 20-107 1zm96-31c24-10 46-60 39-89-13-52-86-82-125-52-44 34-47 103-6 132 22 16 64 20 92 9zm-69-40c-30-30-13-74 29-74 46 0 60 48 23 74-28 20-33 20-52 0zm130-109c-20-30-20-45-1-45 18 0 49 45 40 60-10 16-21 12-39-15zm42-29c-31-39-35-56-14-56 17 0 66 56 66 76 0 24-24 15-52-20zm68 2c-10-18-35-50-54-70-25-26-33-41-26-48s19-4 39 12c30 24 85 104 85 125 0 24-26 13-44-19zm-436-26c0-20 49-72 68-72 21 0 13 20-20 56-37 38-48 42-48 16zm522-332c-8-14-12-70-12-183 0-147-2-166-19-181-14-13-18-31-19-86 0-41 5-73 12-79 6-5 126-62 266-126 162-74 262-114 275-111 18 5 65 80 65 105 0 5-53 32-117 62-236 106-388 179-391 187-1 4 125 7 280 7h283l3 197c2 168 0 198-14 212-13 14-54 16-307 16-281 0-293-1-305-20zm598-145v-135h-296c-266 0-296 2-290 16 3 9 6 69 6 135v119h580v-135zm-511-194c27-38 26-41-6-41-36 1-63 22-63 49 0 33 44 28 69-8zm150 0c12-16 21-32 21-35s-24-6-54-6c-49 0-57 3-75 29-12 16-21 32-21 35s24 6 54 6c49 0 57-3 75-29zm140 0c25-35 20-41-35-41-36 0-46 5-63 29-12 16-21 32-21 35s22 6 49 6c43 0 52-4 70-29zm144 0c9-16 17-32 17-35s-22-6-49-6c-43 0-52 4-70 29-12 16-21 32-21 35s24 6 53 6c48 0 54-3 70-29zm79 12c6-25-2-55-13-51-6 2-19 18-30 36l-21 32h30c20 0 31-6 34-17zm-582-78c0-29-34-36-44-9-8 21 1 34 25 34 14 0 19-7 19-25zm30-74c0-16 3-37 7-46 5-14 2-16-18-10-45 13-68 33-62 54 4 18 20 25 61 30 7 0 12-11 12-28zm135-68c3-25 4-47 2-49-2-3-23 3-47 12-44 18-60 43-60 94v29l49-20c46-20 49-23 56-66zm112-10c9-3 24-91 18-101-1-1-22 6-47 17-40 17-46 24-51 58-11 65-11 65 31 47 20-9 42-18 49-21zm97-45c41-20 44-24 48-67 3-25 4-47 2-49-6-10-93 45-98 62-7 26-8 76-1 76 2 0 24-10 49-22zm116-53l30-15-17-35c-27-56-52-38-53 38 0 31 1 32 40 12zm765 638c-34-9-45-24-45-59 0-36 21-56 73-68l27-6v-211c0-161-3-216-14-237-18-34-10-78 17-97 69-48 151 33 103 101-13 19-13 24 9 56 80 118 218 141 342 56 59-40 90-85 75-109-18-29-14-77 8-99 44-44 120-10 120 54 0 19-7 39-15 46-12 10-15 48-15 224v211l50 18c50 18 50 18 50 61 0 40-3 45-31 55-35 12-179 13-219 2-22-6-25-12-25-55 0-48 1-49 39-63 22-7 41-15 43-17 7-6 14-356 8-356-4 0-27 18-52 40-108 95-263 92-366-8l-37-37 2 184c3 171 4 184 22 187 10 1 31 8 47 15 25 10 29 17 29 49 0 55-17 64-129 67-53 1-105-1-116-4zm184-29c59-12 31-19-79-19-101 0-136 7-92 18 27 7 136 8 171 1zm540 0c59-12 31-19-79-19-60 0-110 3-110 7 0 15 132 23 189 12zm-639-54c-14-4-38-8-55-9-23 0-26 2-15 9 8 5 33 9 55 9 35-1 37-2 15-9zm105 0c7-12-32-12-60 0-16 7-13 9 17 9 20 1 40-3 43-9zm540 0c5-7-14-9-58-4-39 4-67 3-70-3-4-6-18-8-33-5-19 3-22 7-12 13 19 12 166 11 173-1zm-617-240c-4-272-22-290-26-25-3 193 1 235 18 235 7 0 9-75 8-210zm542-5c0-137-4-215-10-215s-10 78-10 215 4 215 10 215 10-78 10-215zm-525-265c35-38-17-94-53-58-18 18-15 55 6 67 24 14 26 14 47-9zm536 10c28-16 25-58-6-72-19-8-28-8-40 2-20 17-19 57 3 69 21 13 20 13 43 1z"/><path d="M3740 1931c0-22 25-39 38-27 8 8-10 38-26 44-7 2-12-6-12-17zm540 0c0-22 25-39 38-27 8 8-10 38-26 44-7 2-12-6-12-17zM680 1764c0-84-3-115-12-112-6 2-31 51-54 109-24 60-48 104-55 104-19 0-14-22 27-116 18-45 34-85 34-90s-21-9-46-9c-45 0-82-13-97-34-4-6-7-73-6-149 2-112-1-140-13-150-32-25-48-63-48-109 0-119 144-176 232-91 15 15 28 34 28 42 1 9 12-7 26-36 32-66 76-95 145-95 97 0 166 76 157 173-6 55-28 94-66 116l-27 15 3 132c3 119 2 134-16 156-17 20-29 25-71 25-28 0-51 5-51 10 0 6 16 48 35 94 38 89 42 111 23 111-7 0-31-46-53-102s-46-103-53-106c-9-3-12 24-12 112 0 96-3 116-15 116s-15-20-15-116zm194-170c3-9 6-68 6-132v-117l-45-1c-55-1-116-39-135-84l-13-32-14 32c-17 41-18 38 19 42 49 5 48 28-1 28-23 0-41-4-41-10 0-5-18 0-40 11-26 14-53 20-75 17l-35-4v126c0 70 3 130 7 133 3 4 86 7 184 7 152 0 178-2 183-16zm-251-314c60-66 14-169-76-170-49 0-73 13-92 50-21 41-19 83 6 114 44 55 115 58 162 6zm301-1c60-52 61-126 1-186-28-28-40-33-81-33-123 0-177 145-83 225 46 38 116 36 163-6zm-128 313c-3-5 7-21 23-36 22-21 30-24 34-13 11 30-41 74-57 49zm-250-18c-19-18-20-28-6-55 19-35 80-18 80 22 0 21-26 49-45 49-7 0-21-7-29-16zm98-87c-3-8-4-34-2-58l3-44h190v110l-93 3c-73 2-94 0-98-11zm166-47v-30H670v60h140v-30zm-292-191c-36-21-16-79 27-79 44 0 63 60 26 80-24 12-31 12-53-1zm42-40c0-5-7-9-15-9-15 0-20 12-9 23 8 8 24-1 24-14zm244 6c-30-46 13-99 62-76 48 22 26 101-28 101-10 0-25-11-34-25zm56-31c0-14-21-19-33-7-9 9 13 34 24 27 5-3 9-12 9-20zm790 516c-19-19-20-33-20-265s1-246 20-265c21-21 60-27 60-10 0 6 11 10 25 10s25-4 25-10 102-10 285-10 285 4 285 10c0 14 48 12 52-2 7-20 57 7 68 37 5 14 8 125 7 254-2 208-4 232-21 250-20 22-56 29-56 11 0-5-11-10-25-10s-25 5-25 10c0 6-102 10-285 10s-285-4-285-10c0-5-11-10-25-10s-25 5-25 10c0 17-39 11-60-10zm656-21c4-7 27-10 60-7l54 5v-483l-59 4c-36 3-61 0-65-7-10-15-492-15-501 0-4 6-33 9-69 8l-61-3-3 220c-1 120 0 228 2 240 5 18 11 20 59 16 34-3 57 0 61 7 10 15 512 15 522 0zm-484-51c-8-8-12-66-12-193s4-185 12-193c17-17 429-17 446 0 8 8 12 67 12 199 0 161-2 188-16 193-31 12-429 7-442-6zm428-193v-175h-410v350h410v-175zm-283 98c-4-3-7-48-7-98 0-121 8-129 87-84 83 47 113 69 113 83s-150 106-173 106c-8 0-17-3-20-7zm97-67l59-33-62-37c-34-20-64-36-67-36-2 0-4 32-4 70 0 39 3 70 8 70 4 0 34-15 66-34zm-382 117l3-48h100v90l-106 6 3-48zm78-3c0-15-7-20-25-20s-25 5-25 20 7 20 25 20 25-5 25-20zm542 3l3-48h100v90l-106 6 3-48zm78-3c0-15-7-20-25-20s-25 5-25 20 7 20 25 20 25-5 25-20zm-693-106c-4-4-7-27-7-51v-43h111l-3 48-3 47-45 3c-25 2-49 0-53-4zm73-44c0-15-7-20-25-20-24 0-34 18-18 33 15 15 43 7 43-13zm547 44c-4-4-7-27-7-51v-43h111l-3 48-3 47-45 3c-25 2-49 0-53-4zm73-44c0-15-7-20-25-20s-25 5-25 20 7 20 25 20 25-5 25-20zm-698-147l3-48h100l6 95h-112l3-47zm78-3c0-15-7-20-25-20s-25 5-25 20 7 20 25 20 25-5 25-20zm540 0v-51l105 6v90l-52 3-53 3v-51zm80 0c0-15-7-20-25-20s-25 5-25 20 7 20 25 20 25-5 25-20zM980 1575l-55-23-6-162 67-30c36-17 70-30 75-30s9 61 9 135c0 155 4 150-90 110zm60-109v-94l-40 15-40 16v64c0 63 1 64 33 78 17 8 35 14 40 15 4 0 7-42 7-94zm-614 87c-3-3-6-44-6-90 0-67 3-83 15-83s15 16 15 84c0 78-7 105-24 89zm2166-565c-12-6-25-23-29-36-9-36 32-69 94-77 194-25 271-50 326-107 32-34 37-45 37-88 0-61-12-70-34-23-44 92-118 151-225 178-148 38-307-39-378-183-24-49-28-69-28-142 1-101 21-155 86-225 158-171 438-131 545 78 16 32 28 77 34 130 5 45 15 105 23 134 45 153-73 241-374 278-92 12-104 53-18 64 59 8 64 31 7 30-23 0-53-5-66-11zm240-211c216-126 206-428-17-538-60-29-71-31-143-27-61 3-89 11-131 33-197 108-213 387-29 513 65 44 95 52 189 49 72-3 93-7 131-30z"/><path d="M2599 788c-51-13-129-76-164-132-28-46-30-56-30-145 0-87 3-101 27-142 31-53 71-90 132-122 63-33 183-31 252 5 183 96 213 340 58 477-73 64-175 86-275 59zm154-29c184-46 252-292 117-427-54-54-106-76-185-76-59-1-77 3-117 26-172 102-188 328-31 438 68 47 137 59 216 39zm-122-45c-12-15-21-34-21-44s9-29 21-44c41-52 129-19 129 50 0 62-90 88-129 38zm89-19c14-17 5-51-17-59-38-15-71 22-51 58 11 20 51 21 68 1zm-230-57c-26-28-26-58 1-92 28-36 80-36 108 0 12 15 21 34 21 44s-9 29-21 44c-27 34-79 36-109 4zm88-42c6-48-50-65-70-21-14 32 5 57 41 53 20-2 27-9 29-32zm225 54c-69-28-46-140 29-140 68 0 97 81 44 127-29 25-39 27-73 13zm65-61c4-36-21-55-53-41-44 20-24 76 25 70 18-2 26-10 28-29zm-218-58c-16-31 4-63 37-59 34 4 52 32 37 56-16 26-60 28-74 3zm-164-53c-36-51-5-118 54-118 17 0 39 9 50 20 45 45 11 120-54 120-25 0-39-7-50-22zm84-23c15-18 10-45-12-59-35-22-74 27-48 59 16 19 44 19 60 0zm235 35c-75-30-56-140 24-140 49 0 84 56 65 105-5 13-55 47-66 44-2 0-12-4-23-9zm55-45c15-18 10-45-12-59-33-20-69 20-54 60 7 18 50 18 66-1zm-229-61c-28-35-26-59 4-90 33-33 80-30 108 8 54 73-56 153-112 82zm89-24c14-26-3-60-30-60-20 0-53 27-47 38 2 4 7 15 10 25 9 24 54 22 67-3zm1107 583c-4-3-7-36-7-72v-66l-46 3c-33 3-50-1-65-13-17-17-19-32-19-175 0-180 4-190 78-190h42v-52c0-62 27-113 66-128 33-13 295-13 328 0 39 15 66 66 66 128v52h43c72 0 77 11 77 188 0 139-2 154-20 172-14 14-33 20-65 20h-44l4 135h-35c-35 0-35 0-45-60l-11-60-261-6-7 51c-4 28-9 57-12 65-6 15-55 21-67 8zm47-70c6-45 2-63-10-50-4 3-9 26-11 52-7 60 12 59 21-2zm358-10c-2-24-8-43-13-43-11 0-12 25-3 69 9 45 22 25 16-26zm3-83c3-5 3-39-1-75l-7-65h-387v68c0 38 3 72 7 75 10 11 381 8 388-3zm-437-8c9-7 12-45 10-158l-3-149h-80l-3 144c-2 97 1 148 9 157 13 15 47 18 67 6zm550-4c19-19 17-282-2-297-22-19-70-10-74 13-4 18-3 19 13 3 18-18 28-21 38-10 9 9-22 43-40 43-10 0-13 27-13 123 0 68 3 127 7 130 11 11 58 8 71-5zm-112-295c0-144-6-175-42-192-33-14-275-15-307 0-39 18-47 50-47 192v132l395-4 1-128zm-506 34c0-25 23-42 41-31 14 8 10 18-16 37-25 18-25 18-25-6zm192-69c-27-27-6-68 35-68 29 0 48 33 33 60-12 22-49 27-68 8zm162-13c-9-36 15-60 51-51 22 6 26 11 23 39s-7 32-35 35-33-1-39-23zm-224-78c0-22 31-57 51-57 10 0 19 7 19 15s-6 15-14 15-18 9-21 20c-7 22-35 28-35 7z"/></g><g fill="#fcbf0a"><path d="M4110 5984c-8-9-25-14-41-12-30 3-32-1-22-41 3-13 1-32-6-42-17-28-14-32 19-26 22 5 35 1 49-14 23-24 41-18 41 15 0 15 10 27 32 38l33 15-31 16c-18 9-34 27-38 42-7 29-18 32-36 9zm15-63c7-12-12-24-25-16-11 7-4 25 10 25 5 0 11-4 15-9zm-440-219c-54-9-78-48-55-89 10-19 28-31 53-37l37-10v-212c0-168-3-218-15-240-39-75 56-142 113-81 26 27 28 59 7 90-13 21-13 26 9 58 50 73 146 116 231 103 54-8 123-48 165-97 29-33 32-41 21-63-28-62-2-114 57-114 60 0 93 68 57 116-11 15-14 60-15 229v210l48 15c45 14 47 16 50 57 3 34-1 44-17 53-35 18-171 24-216 8-39-13-40-15-40-58 0-44 1-45 45-61l45-17 3-168c1-93 0-174-2-180-3-8-19 1-42 23-112 105-290 103-385-5l-29-33v186c0 156 2 185 15 185 8 0 30 8 50 17 31 15 35 21 35 55 0 28-5 40-21 48-25 14-149 21-204 12zm139-28c77-11 52-19-59-19-131 0-141 16-14 23 14 1 47-1 73-4zm587-11c5-5-41-8-101-8-108 0-146 9-72 18 50 6 164-1 173-10zm-566-42c19-8 19-8-4-16-13-4-28-2-34 4s-25 11-42 11-36-5-42-11-21-8-34-4c-23 8-23 8-4 16 11 4 47 8 80 8s69-4 80-8zm540 0c19-8 19-8-5-16-15-5-25-4-28 4-4 13-74 15-88 1-5-5-21-6-34-3l-25 7 25 7c34 10 130 9 155 0zm-605-247c0-168-3-215-12-212-7 3-14 16-15 29-5 57 11 399 18 399 5 0 9-97 9-216zm540 1c0-137-4-215-10-215s-10 78-10 215 4 215 10 215 10-78 10-215zm-516-277c16-26-4-53-40-53-23 0-30 5-32 23-2 13-1 30 2 38 8 20 56 14 70-8zm541 2c11-35-3-60-35-60s-46 25-35 60c4 14 15 20 35 20s31-6 35-20zm-601-13c-7-20 3-37 22-37 18 0 18 24-1 40-12 10-16 9-21-3zm538-13c2-11 11-20 22-22 13-3 17 1 14 14-2 11-11 20-22 22-13 3-17-1-14-14zm-2217 589c-29-34-31-35-87-29-67 7-71-1-37-59l22-36-26-52c-15-28-26-52-24-53 1-1 27 2 57 7l55 9 42-42 42-41 6 39c3 22 8 48 10 59 3 13 23 30 50 43 25 12 45 26 45 31s-15 14-32 21c-51 20-68 40-68 76 0 35-8 64-19 63-3 0-19-16-36-36zm25-68c0-18 9-29 32-41l33-17-33-15c-25-12-32-22-32-44 0-33-10-35-35-8-14 16-26 19-47 15-30-7-39 10-16 33 9 9 9 18 0 37-16 35-16 35 22 35 18 0 39 7 46 15 18 22 30 18 30-10zM701 5436c-7-9-27-16-43-16-27 0-29-2-23-34 4-20 2-36-4-40-21-13-11-26 18-24 18 1 38-6 50-16 21-19 21-19 21 6 0 16 9 29 25 38 30 16 32 27 5 35-11 3-23 20-28 37-7 27-9 29-21 14zm4119-21c-21-22-32-26-67-23-24 2-43 2-43 1s8-18 17-38c14-30 15-38 3-62l-18-37c-3-5 15-6 39-2 40 5 46 3 69-23l25-29 10 41c8 33 18 45 43 56 18 8 32 17 32 21 0 3-15 14-34 24-26 14-36 27-42 58l-9 40-25-27zm18-75c11-17 9-24-8-42-12-13-20-17-20-9s-6 11-15 7c-11-4-15 2-15 24 0 26 5 31 40 39 3 0 11-8 18-19zM2592 4130c-24-15-32-27-30-42 5-37 47-57 153-73 134-20 193-38 244-75 47-35 61-62 61-124 0-61-10-63-38-5-29 58-97 123-162 153-64 30-205 29-272-1-67-31-125-88-161-157-27-54-31-71-32-146 0-71 4-93 25-135 71-146 216-224 362-196 166 32 277 166 278 335 1 28 7 62 15 76s14 50 15 81c0 123-103 193-334 224-136 19-170 55-67 73 52 9 59 26 11 30-22 1-47-5-68-18zm201-190c114-43 185-141 195-269 4-59 1-76-23-128-94-210-360-253-508-82-70 82-91 171-63 274 46 175 229 269 399 205zm-198-7c-68-25-118-65-156-127-28-44-33-63-37-131-3-65 0-89 16-127 61-141 218-211 363-163 75 25 160 111 179 180 30 104 7 212-59 288-70 79-208 115-306 80zm171-31c159-55 225-231 140-375-107-184-386-161-462 38-26 69-16 174 22 227 41 58 95 99 151 114 65 17 89 16 149-4zm-135-38c-27-34-26-57 2-88 46-52 127-24 127 45 0 62-91 91-129 43zm83-20c19-19 20-36 4-52-35-35-91 7-66 48 15 24 41 26 62 4zm-223-60c-42-53-16-114 49-114 30 0 43 6 59 26 27 35 26 59-4 89-33 34-77 33-104-1zm83-23c23-25 6-61-28-61-35 0-52 25-38 55s42 32 66 6zm206 19c-43-43-11-120 50-120 44 0 84 42 75 78-4 15-14 35-22 45-22 23-78 22-103-3zm78-19c8-5 12-21 10-37-3-32-38-45-64-24-40 34 9 90 54 61zm-208-80c-21-41 21-81 58-55 38 26 22 74-25 74-12 0-27-9-33-19zm-145-43c-28-16-35-28-35-65 0-34 37-73 70-73 10 0 29 9 44 21 68 53-4 160-79 117zm65-33c14-17 6-60-12-68-25-9-58 12-58 36 0 43 44 63 70 32zm209 17c-28-24-30-76-3-102 46-45 124-15 124 48 0 61-72 93-121 54zm85-34c16-26-4-53-40-53-23 0-30 5-32 23-7 47 47 69 72 30zm-229-53c-29-28-31-47-8-85 20-34 44-42 84-28 51 18 64 67 28 112-27 34-71 35-104 1zm79-21c19-18 19-20 6-45-6-11-21-19-35-19-20 0-45 24-45 44 0 10 32 36 45 36 7 0 21-7 29-16zM205 4035c-171-44-205-56-205-71 0-10 6-14 18-10 9 2 79 21 155 40l138 36 21-20c12-11 25-20 30-20 4 0 8-13 8-29s7-34 15-41c11-9 14-22 10-40s-1-31 10-40c8-7 15-28 15-49 0-20 5-42 10-47 8-8 6-15-5-24-8-7-15-21-15-31 0-19-18-25-210-74-157-40-200-55-200-71 0-10 8-12 28-8 18 4 73-7 151-31 120-36 141-37 141-9 0 8 9 14 20 14 23 0 43 32 34 54-3 9-2 16 4 16s13 13 17 29c3 17 14 31 26 34 13 3 19 14 19 31 0 15 7 29 15 32 17 7 20 49 5 59-5 3-10 21-10 39 0 19-6 39-13 45-8 6-12 23-9 39 2 18-2 35-13 45-9 10-14 25-10 36 8 26-4 51-26 51-10 0-24 9-31 20-16 25-31 24-143-5zm155-424c0-6-4-13-10-16-5-3-10-16-10-28 0-14-11-28-31-40-30-17-34-16-111 5-70 19-78 23-59 32 22 9 97-1 143-19 11-4 20-2 23 6 20 58 26 69 40 69 8 0 15-4 15-9zm-78-23c-9-9-15-9-24 0s-7 12 12 12 21-3 12-12zm4910 454c-7-2-12-10-12-18s-9-14-20-14c-23 0-43-32-34-55 7-18-31-65-53-65-7 0-13-11-13-24 0-14-7-32-16-41-17-17-12-65 6-65 6 0 8-11 4-25-4-16 0-35 11-51 9-14 14-32 11-41-3-8 1-30 10-49s14-37 11-41c-10-9 12-43 28-43 8 0 20-9 27-20 16-25 34-25 117-1 36 11 85 25 109 31 25 6 42 17 42 25 0 19-1 19-100-9-133-37-140-38-146-22-3 9-15 18-25 21-13 4-18 13-14 24 3 9-2 26-10 37-8 10-15 33-15 51 0 17-6 38-14 46-8 7-12 24-9 38 2 13-2 32-10 43-11 16-11 23 2 52 18 37 10 34 216 89 97 26 121 35 123 51s-13 23-106 50c-60 16-114 28-120 26zm102-53c69-21 70-22 42-32-20-7-39-6-60 1-77 26-75 26-91-12-19-46-32-46-27-1 2 19 10 35 17 35s18 7 25 15c15 19 9 19 94-6z"/><path d="M153 3946c-128-34-153-44-153-59 0-14 5-17 18-12 9 3 57 17 105 30 64 17 89 21 92 12 21-67 55-200 52-203-4-4-99-31-224-64-26-6-43-17-43-25s3-15 6-15c15 0 361 93 377 102 12 6 16 16 12 26-3 8-17 63-32 121-25 100-37 133-52 130-3-1-75-20-158-43zm181-102c15-59 25-108 24-109-2-1-15-5-30-9-25-6-28-3-37 31-28 108-41 162-41 171 0 10 19 18 46 21 7 0 23-46 38-105zm4367 45c-23-28-28-30-69-24-24 4-42 3-40-2l17-35c11-22 11-33 1-57-16-39-12-46 29-42 25 2 40-4 62-25l28-27 7 39c5 32 13 44 41 60l36 21-37 21c-24 14-36 29-37 44 0 13-3 31-7 40-6 15-10 13-31-13zm17-97c-4-2-8-11-8-19 0-10-6-13-16-9-9 3-20 6-25 6s-9 13-9 30c0 21 4 28 14 24 8-3 17 0 21 6 5 8 11 4 19-12 7-12 8-24 4-26zm622 92l-223-61c-21-6-22 1 18-153 15-58 31-110 36-116 6-7 46-1 129 20 99 26 120 34 120 50 0 10-5 16-12 13-34-12-118-30-123-26-11 12-56 202-48 209 4 4 31 13 58 19 108 26 125 32 125 46 0 18-8 18-80-1zm-116-180c15-59 25-108 24-109-2-2-15-6-30-10-25-6-28-4-37 32-28 108-41 162-41 171 0 10 19 18 46 21 7 0 23-46 38-105zM40 3845c-7-8-19-15-26-15-8 0-14-9-14-21 0-17 4-20 25-15 31 8 50-20 30-47-8-12-15-14-20-8-10 17-35 13-35-5 0-17 38-53 57-54 6 0 16 13 21 29 6 16 20 32 31 36 28 9 26 29-4 43-19 9-25 19-25 42 0 33-19 40-40 15z"/><path d="M3339 3814c-20-21-30-25-60-20-44 7-53 0-34-28 19-26 19-57 0-82-23-30-18-35 26-28 35 6 44 3 68-20 31-30 41-26 41 16 0 22 8 33 35 49 39 24 39 31-5 49-26 11-30 17-30 51 0 46-8 48-41 13zm17-72c9-13 9-22 0-35-18-23-53-11-53 18 0 21 6 27 37 34 3 0 10-7 16-17zm2027 46c1-24-2-51-7-60-7-15-3-18 18-18 25 0 26 2 26 60 0 52-3 60-19 60-15 0-18-7-18-42zm-5215 25c-10-2-18-11-18-19 0-22 44-14 48 9 4 17 1 18-30 10zm5122-88c0-9 9-15 25-15s25 6 25 15-9 15-25 15-25-6-25-15zM430 3375c0-2 14-55 31-117 52-186 52-189 43-197l-127-101c-64-52-116-99-114-105s58-13 133-17c204-11 183-4 211-78l38-105c26-77 57-137 66-128 11 11 109 262 109 280 0 8 14 13 38 14 174 5 296 16 299 25 3 8-175 159-231 196-11 7-4 44 45 217 18 64 26 108 21 113-6 6-61-24-140-78l-131-87-134 87c-120 77-157 96-157 81zm187-138l102-66 115 75c63 41 117 74 120 74 2 0-1-19-9-42-11-36-26-89-61-219-3-11 29-43 100-100 58-46 105-87 105-91 1-5-23-8-52-8-30 0-94-3-143-6l-89-7-49-130-50-131-16 40c-10 21-20 50-24 64-6 25-6 25 6 2 11-21 33-26 33-6-1 29-41 124-52 124-16 0-17-19-3-56 6-15 9-29 6-31-2-2-14 26-26 62-12 37-27 68-34 70-6 3-71 8-144 12l-133 8 111 88c63 50 110 95 110 105 0 9-7 42-16 72-37 133-44 162-44 177 0 14 2 14 18 1 9-8 63-44 119-81zm17-106c-103-63-97-224 9-275 111-52 236 34 225 154-6 57-35 102-82 124-46 22-114 20-152-3zm136-24c34-17 70-74 70-111 0-41-32-91-69-111-83-43-181 18-181 113 0 38 5 50 39 83 32 32 46 39 77 39 22 0 50-6 64-13zm-93-64c-30-8-13-28 28-31 43-4 69 13 45 28-16 10-42 11-73 3zm-33-64c-10-17 11-25 59-23 93 3 90 3 77 19-15 18-125 21-136 4zm-207-75c-14-15 6-24 54-24 36 0 49 4 47 13-5 13-89 23-101 11zm4148 465c-43-10-67-32-58-54 5-16 46-30 110-40 23-4 44-13 47-21 4-11-5-14-44-14-52 0-100-14-112-33-4-7-8-53-8-102 0-52-5-96-11-102-8-8-7-17 3-32 14-22 28-28 28-11 0 6 7 10 15 10 12 0 15-18 15-103 0-147 0-147 150-147 151 0 152 1 152 149 0 56 3 101 7 101s12-5 19-12c9-9 15-8 27 8 17 23 18 31 5 39-6 3-10 48-10 99 0 114-10 128-100 134-84 6-78 26 12 43 79 16 105 37 77 65-9 8-34 20-55 24-49 12-216 11-269-1zm258-25c20-4 37-10 37-15 0-9-65-29-96-29-13 0-24 8-27 20-3 13-14 20-31 20-15 0-31-8-38-20-14-23-36-25-92-9-38 11-39 23-1 32 30 7 205 8 248 1zm-113-69c0-19-4-35-10-35-11 0-13 30-4 54 10 25 14 19 14-19zm148-77c8-8 11-45 10-107-1-95-1-95-7-28-5 59-10 72-34 93-26 22-37 24-126 24-84 0-102-3-124-20-23-18-26-29-29-88-5-103-23-82-23 26 0 72 3 95 15 102 23 15 303 13 318-2zm-244-72c-7-19 16-32 26-16 5 7 6 19 3 27-3 9 3 13 20 13 21 0 26-6 29-27 2-16 8-28 13-28 6 0 11 12 13 28 3 21 8 27 29 27 17 0 23-4 20-13-7-19 8-41 22-33 6 4 11 14 11 23 0 13 3 13 15 3 9-7 15-29 15-51 0-36-1-38-37-41-50-4-55-26-7-30 53-4 57-28 5-28-30 0-41-4-41-15s11-15 41-15c52 0 48-24-4-28-53-5-50-32 3-32 22 0 40-4 40-10 0-5-15-10-34-10-33 0-55-14-42-27 3-3 20-6 38-7 26-1 34-6 36-23 4-25-14-63-29-63-5 0-9 7-7 16 2 10-2 19-9 21-6 2-13-6-15-19-2-15-11-24-25-26-19-3-23 1-23 22 0 16-6 26-15 26s-15-10-15-26c0-21-4-25-22-22-15 2-24 11-26 26-4 28-22 29-29 2s-24-21-36 13c-13 41-3 57 39 57 48 0 40 24-9 28-20 2-37 7-37 12s17 10 37 12c50 4 55 26 6 30s-49 22 0 26c54 5 51 32-4 32-52 0-48 24 5 28 45 4 44 26-2 30-33 3-37 12-33 62 3 29 19 52 32 45 4-3 6-12 3-19zm-3197-274c-25-26-34-29-68-25-44 6-45 4-24-37 14-27 14-33 0-60-21-41-20-43 24-37 33 4 43 1 62-19 29-31 39-30 39 1 0 25 21 53 56 74 16 9 17 12 4 20-42 26-53 41-59 75l-6 37-28-29zm10-113c-10-14-17-17-22-9-4 6-13 9-19 7-8-3-13 5-13 23s5 26 13 23c6-2 15 1 19 7 5 8 12 5 22-9 12-18 12-24 0-42zm3278-489c-13-14-28-20-50-18-25 2-29 0-27-17 6-35 5-60-3-78-7-16-4-18 23-16 21 3 38-3 55-19l25-23 6 36c5 26 14 39 33 46 21 8 23 12 13 24-7 8-18 15-25 15s-17 16-22 36l-8 36-20-22zm5-75c0-8-7-15-15-15s-15 7-15 15 7 15 15 15 15-7 15-15zm-1516-234c-46-12-54-19-54-55 0-49 18-66 78-73 30-3 56-11 58-18 3-7 0-72-7-146l-16-209c-3-41-10-82-17-90s-20-44-29-79c-23-94-14-109 86-145 17-6 16-9-12-41-42-48-42-95-2-136 78-78 207 12 157 109-9 17-23 35-32 40-22 12-11 28 23 37 40 9 73 44 73 75 0 38-28 126-45 144-10 9-15 35-15 73 0 32-7 125-14 207-8 82-12 155-9 162 3 8 20 14 42 14 57 0 85 20 88 60 3 46-7 60-53 70-46 11-255 11-300 1zm295-30c14-4 26-11 28-16 2-6-63-10-172-10-110 0-174 4-172 10 6 17 50 23 172 23 66 0 131-3 144-7zm-157-261c-2-184-1-210 13-210 13 0 15 28 15 210v210h30c35 0 36-2 10-38-18-25-19-35-10-142 6-63 13-159 16-212l7-96-48-8c-28-4-55-3-64 3-21 13-25 62-12 158 6 44 13 125 16 180 6 92 5 102-14 122-28 30-27 33 12 33h32l-3-210zm115-343c6-18 14-50 18-73 7-46 0-55-57-73-21-7-42-20-48-29-9-15-11-15-22-2-7 9-34 24-60 33-25 10-49 24-51 32-6 15 20 125 33 139 5 5 22 4 39-2 23-8 42-8 73 2 54 16 62 13 75-27zm-39-263c15-32 15-36-5-62-19-26-73-47-58-22 4 6-5 22-18 36-24 24-26 24-36 7-9-16-10-16-11 5-1 80 94 106 128 36zm-13 254c-16-5-54-6-82-3-66 7-74-16-12-34 34-10 48-10 90 4 46 15 59 28 42 38-5 2-21 0-38-5zM182 1613c-19-20-31-24-63-21-43 4-46 0-24-42 14-27 14-33 0-60-21-41-20-43 23-36 33 5 42 2 62-19 31-33 37-32 44 11 5 26 16 41 42 56l35 21-38 21c-32 18-38 27-41 59-4 43-9 44-40 10zm16-111c-10-14-17-16-33-8-29 16-30 54-2 58 31 5 53-26 35-50zm3644 32c-31-36-32-37-87-30-30 3-55 4-55 1 0-2 10-24 21-48l21-43-21-42c-11-23-21-44-21-47 0-4 24-4 53 0 50 6 53 5 86-29 38-39 50-35 51 19 0 40 7 48 59 75 42 21 44 23 26 36-10 8-24 14-30 14-24 0-55 41-55 73 0 56-13 62-48 21zm18-63c0-11 12-29 26-40l26-20-26-12c-17-8-26-20-26-36 0-27-12-30-31-7-8 10-23 14-41 12-32-5-32-5-16 21 9 15 9 25 0 45-11 25-10 26 17 26 16 0 34 7 41 15 17 21 30 19 30-4zM1305 990c-49-5-105-23-105-33 0-9-70-378-76-401-7-28-6-29 27-22 73 15 342 19 412 6 37-7 70-10 72-8s-11 98-30 212c-27 159-39 212-53 222-29 22-159 35-247 24zm24-90c-2-52-6-63-33-89l-32-31 15 90c12 77 17 90 33 90 17 0 19-7 17-60zm81 5c0-52-1-55-25-55s-25 3-25 55 1 55 25 55 25-3 25-55zm73 23c3-18 9-60 12-93 5-48 4-56-6-41-6 10-20 27-30 37-14 14-19 33-19 74 0 47 3 55 19 55 13 0 20-9 24-32zm-227-5c-6-30-34-214-45-297-5-38-11-51-28-57-28-10-28-14-4 108 11 54 24 127 30 163 18 102 20 110 37 110 12 0 14-7 10-27zm288 0c12-44 57-345 52-350-3-3-11-3-19 0-9 3-20 57-35 168-25 185-26 199-13 199 5 0 12-8 15-17zm-99-128c41-41 28-86-31-105-46-15-88 1-104 40-30 73 77 124 135 65zm-151-104c12-13 16-32 14-62-3-42-5-44-35-47-38-4-37-8-21 108 10 72 13 80 19 52 4-18 14-41 23-51zm231-47l7-64h-72v46c0 31 7 54 20 71 11 14 20 37 21 52 1 23 2 22 9-8 4-18 11-62 15-97zm-95-25c0-28-2-29-45-29s-45 1-45 29c0 27 3 30 38 33 49 4 52 2 52-33zM195 884L32 843c-23-4-32-11-32-25 0-15 4-18 18-13 9 4 78 23 153 42l135 35 35-23c22-16 33-30 31-42-2-10 4-29 13-43s14-33 10-42c-3-10 2-27 10-38 8-10 15-33 15-51 0-17 5-35 11-38 7-5 5-15-5-31-9-13-16-30-16-37 0-9-30-22-87-36-49-12-108-28-133-36L73 434c-80-20-99-44-35-44 20 0 89-16 152-35 110-33 129-34 130-4 0 4 11 10 25 13 17 4 25 13 25 28 0 32 33 97 53 103 10 4 17 16 17 31 0 14 7 27 15 30 19 8 20 48 1 63-7 6-11 22-8 36 2 14-2 32-9 41-8 9-12 28-11 41 2 13-3 35-12 48s-13 31-10 39c8 21-11 51-33 51-10 0-22 10-28 23-5 12-12 22-15 21-3 0-63-16-135-35zm161-429c-9-13-16-33-16-45 0-11-5-20-12-20-6 0-19-7-28-15-16-14-25-14-94 7-42 12-76 25-76 29 0 15 43 16 101 1 59-14 63-14 75 3 8 10 14 27 14 36 0 15 13 24 44 28 4 0 1-10-8-24zm-79-22c-3-3-11-2-17 2-9 6-9 10 1 16 14 8 27-7 16-18zm4435 440c-18-22-26-25-62-20-39 5-41 4-35-16 16-52 16-66 0-97l-17-32 42 7c37 6 45 4 71-21 30-29 35-26 41 26 2 17 13 29 36 39 17 8 32 18 32 22s-16 16-35 28c-28 16-35 27-35 50 0 41-13 45-38 14zm17-75c10-16 10-23 2-26-6-2-11-10-11-17 0-10-5-11-24-2-14 7-23 20-23 34 0 19 7 25 37 32 3 0 11-9 19-21zm454 82c-3-11-14-20-24-20-20 0-44-35-34-50 9-14-25-61-52-71-15-5-21-14-17-24 4-9-1-24-11-35-18-20-14-70 5-70 6 0 8-11 4-25-4-16 0-35 11-51 9-14 14-33 11-41-4-9 0-26 8-38s16-37 18-56c2-26 8-35 25-37 12-2 25-12 28-23 8-24 9-24 144 11 62 17 115 30 117 30s4 7 4 15c0 20-9 19-126-13l-101-28-31 26c-18 15-32 36-32 48 0 11-4 24-10 27-5 3-10 23-10 44 0 22-6 44-15 51-9 8-13 21-9 37 4 15 1 30-10 42-14 15-14 20-1 37 8 10 15 26 15 34 0 11 22 21 73 34 308 78 317 86 148 134-61 18-113 32-116 32-4 0-9-9-12-20zm107-37c33-9 60-21 60-26 0-10-83-4-128 9-19 5-25 1-35-25-14-39-27-40-27-2 0 21 6 32 20 36 11 3 20 11 20 16 0 13 22 11 90-8zm-3235 27c-3-5-17-10-29-10-21 0-23-5-22-40 0-26 5-40 14-40 7 0 24-7 37-16 24-16 25-16 25 9 0 17 7 28 20 32 11 3 20 10 20 15s-9 12-20 15-20 15-20 26c0 20-15 26-25 9zM250 825c-88-25-240-65-245-65-3 0-5-7-5-15 0-20 9-19 115 10 50 13 93 21 97 17 5-6 58-191 58-204 0-3-59-20-131-39C25 500-15 482 2 465c5-5 381 94 390 103 3 4-6 54-21 112l-35 133c-7 30-16 31-86 12zm84-125c14-56 24-105 21-109-8-13-44-20-51-10-12 21-54 194-50 206 3 7 16 13 29 13 22 0 26-9 51-100zm491 100c-13-14-31-20-62-20-25 0-43-3-41-7 2-5 10-20 17-35 11-22 11-31-3-59-9-17-16-34-16-37 0-2 18-2 40 2 34 5 43 3 62-19 29-34 35-32 43 15 4 22 12 40 18 40 7 0 22 8 35 18l23 18-36 17c-22 11-35 24-35 36 0 25-10 51-20 51-4 0-15-9-25-20zm18-106c-11-18-18-20-36-11-23 11-33 61-10 53 7-3 15-1 19 5s13 3 23-8c16-16 16-21 4-39zm4422 24c-82-22-154-43-158-48-9-8 50-248 64-264 8-9 52 1 197 41 32 9 52 20 52 29 0 16-9 17-42 5-13-4-39-11-59-15l-36-6-27 98c-14 54-26 103-26 108 0 6 43 21 95 34 76 19 95 28 95 42 0 10-1 18-2 17-2 0-70-19-153-41zm-41-158c15-55 24-105 21-110-3-6-17-10-30-10-20 0-26 8-39 53-43 153-44 167-3 167 22 0 27-9 51-100z"/><path d="M40 695c-7-8-19-15-26-15-8 0-14-7-14-16 0-12 7-15 24-12 16 3 27-2 35-14 17-27-3-50-35-42s-31-14 0-43c32-31 45-29 52 6 4 17 16 33 30 40 31 14 30 25-1 45-16 10-25 26-25 41 0 28-21 33-40 10zm5345-44c4-27 3-47-5-56-15-18-5-35 21-35 18 0 20 6 17 62-2 52-6 63-22 66s-17-1-11-37zm-5231 8c-3-6-2-15 3-20 13-13 43-1 43 17 0 16-36 19-46 3zm5154-66c-24-6-23-33 1-33 23 0 38 18 25 29-5 4-17 6-26 4zm-4103-77c-33-6-66-15-72-19-8-5-13-29-13-57 0-41 4-52 26-69 15-12 35-21 45-21 13 0 19-7 19-22 0-13 9-37 19-54 38-63 168-68 207-9 11 17 26 25 46 25 41 0 64 15 76 50 7 19 18 30 30 30 28 0 49 30 54 77 4 47-3 53-92 73-60 13-271 11-345-4zm355-29c43-11 45-14 45-47 0-34-1-35-42-38-32-2-41-7-36-18 3-8 2-26-1-40-6-22-11-25-34-21-64 13-67 13-70-10-2-13-15-32-30-44-55-43-152-1-152 67 0 35-14 50-43 46-26-5-47 16-47 47 0 39 12 51 61 60 65 13 297 11 349-2zm-117-36c-3-11-13-21-24-24-28-7-23-27 6-27 26 0 62 41 50 60-10 16-26 12-32-9zm-273-11c0-23 35-46 45-29 7 11-22 49-37 49-4 0-8-9-8-20zm93-107c-7-18 41-67 60-60 18 6 20 27 3 27-9 0-22 11-28 25-13 29-26 32-35 8zm295-76c-27-16-37-30-42-56-7-46 7-68 52-81 52-14 56-13 91 17 43 38 41 72-4 112-42 36-48 37-97 8zm80-37l23-30-26-28c-20-21-27-24-34-13-5 8-16 11-29 7-23-8-40 10-24 26 6 6 8 17 5 24-3 8 1 14 10 14 8 0 20 7 27 15 17 21 23 19 48-15z"/></g><g fill="#fc7a57"><path d="M340 6077c-71-56-87-75-69-81 8-3 81-9 163-13l149-8 18-50c45-128 95-249 104-252 6-1 35 63 65 143s58 147 61 149 76 7 163 11c86 4 159 11 161 15 7 10-140 129-159 129-27 0-17-14 44-59 33-25 58-47 55-49-3-3-67-8-142-11l-138-6-17-35c-10-20-31-72-47-117-47-130-42-131-95 13-27 71-52 134-57 140-6 8-52 12-125 13-63 1-123 5-134 9-18 7-15 12 30 46 59 45 68 56 43 56-10 0-43-19-73-43zm227 21c9-35 42-77 73-93 38-20 104-19 147 2 54 25 98 113 58 113-8 0-15-8-15-19 0-45-88-97-142-84-37 10-74 40-88 73-15 35-41 42-33 8zm78 12c3-5 35-10 71-10s64 4 64 10-30 10-71 10c-44 0-68-4-64-10zm2377-85c3-88 5-97 31-122l27-28 188-3c103-2 191-7 195-11 5-5-7-32-27-60s-36-55-36-61c0-24 22-6 56 45 20 30 40 55 43 55s22-27 41-60 41-60 48-60c6 0 12 2 12 4 0 8-42 79-62 105-24 32-15 41 37 39 101-3 135 38 135 166 0 51-4 86-10 86s-10-30-10-69c0-85-13-122-49-144-25-15-62-17-281-17h-252l-29 29c-28 28-29 34-29 115 0 72-3 86-16 86-14 0-15-13-12-95zm68 45c0-54 19-104 44-113 9-4 100-7 203-8l187-1 23 26c18 22 23 39 23 87 0 46-3 59-15 59s-15-13-15-60c0-89-7-92-220-88-198 3-200 4-200 95 0 40-4 53-15 53s-15-12-15-50zm66 38c4-7 22-32 41-55 34-43 53-54 53-32 0 19-70 99-86 99-9 0-12-5-8-12zm74 6c0-9 74-94 82-94 16 0 7 22-24 61-27 33-58 51-58 33zm370-9c0-9 9-15 25-15s25 6 25 15-9 15-25 15-25-6-25-15zm-5-55c-7-11 39-25 54-15 6 3 11 10 11 16 0 12-57 12-65-1zm-3165-9c0-10 88-23 101-15 23 14 4 24-46 24-30 0-55-4-55-9zm3173-53c2-7 14-13 27-13s25 6 28 13c2 8-7 12-28 12s-30-4-27-12zm-533-17c0-25 26-51 52-51 18 0 18 3-9 34-32 40-43 44-43 17zm-2430-22c0-21 42-129 51-129 17 0 16 17-5 74-21 55-46 85-46 55zm607-1824c-21-7-40-15-42-17-1-1-12-55-24-118l-40-210c-10-52-15-98-12-102s31 0 61 8c69 18 292 18 378 0 35-7 64-10 66-7 7 13-66 417-77 428-31 32-239 44-310 18zm83-72c0-48-4-61-27-85-33-34-38-95-10-125 11-13 17-36 17-65 0-45-1-46-35-50-43-5-42-16-10 207l25 173c0 1 9 2 20 2 18 0 20-7 20-57zm80 2c0-52-1-55-25-55s-25 3-25 55 1 55 25 55 25-3 25-55zm74 28c14-76 50-353 46-356-3-3-20-2-37 0-32 5-33 7-33 50 0 30 7 53 20 70 29 37 25 76-10 116-26 30-30 43-30 91 0 49 3 56 19 56 13 0 21-9 25-27zm-224 15c0-2-11-79-25-172l-25-182c0-14-38-39-47-31-7 7 59 360 70 375 8 10 27 17 27 10zm277-10c11-15 69-366 61-373-3-3-12-3-20 0-10 4-18 33-26 93l-37 260c-6 32 5 42 22 20zm-84-149c9-12 17-32 17-44 0-31-45-65-85-65-84 0-116 99-42 130 33 14 90 3 110-21zm-23-174c0-35 0-35-45-35s-45 0-45 35 0 35 45 35 45 0 45-35zm-178-95c-40-5-86-14-103-20-26-11-29-17-29-61 0-54 26-89 67-89 19 0 23-5 23-29 0-32 36-76 75-91 57-22 132-2 155 39 7 13 21 19 47 19 39 0 73 28 73 61 0 10 9 17 23 18 32 3 57 39 57 83 0 47-19 56-138 70-97 11-143 11-250 0zm321-36c39-9 53-39 32-70-13-21-22-24-45-19-27 6-29 4-32-31-4-50-28-64-67-41l-29 17-7-30c-9-39-40-60-91-60-59 0-92 29-96 83-3 41-4 42-43 47-37 5-40 7-43 40-3 50 7 59 74 70 59 9 295 5 347-6zm-146-54c-29-30-21-48 13-30 22 12 42 44 33 54-10 10-16 7-46-24zm-257 6c0-18 26-39 39-31 7 4 6 12-2 25-14 23-37 27-37 6zm100-121c0-23 24-45 49-45 18 0 12 18-14 45-32 31-35 31-35 0zm285-64c-21-12-32-28-37-56-10-49 9-71 67-80 34-5 45-2 73 22 39 35 40 54 6 99-30 39-61 43-109 15zm75-27c0-7 9-18 20-24 19-10 19-12-11-41-26-26-33-29-40-16-6 9-18 13-35 9-25-4-26-3-21 19 4 13 7 30 7 37 0 6 6 12 14 12 7 0 19 6 26 14 13 17 40 10 40-10zm1485-24c-4-6-5-28-3-50 3-34-1-41-32-62-56-38-60-54-60-251 0-268-1-267 270-267 99 0 180-3 180-8 0-4-16-31-35-59-19-29-35-57-35-63 0-23 19-7 54 45 20 30 38 55 41 55s21-25 41-55 43-55 50-55c19 0 19 1-26 69-22 33-40 62-40 66 0 3 28 5 61 5 58 0 64 2 95 36l34 35v191c0 211-6 234-64 262-28 14-31 19-31 63 0 41-3 48-20 48-15 0-23-11-34-47l-15-48h-362l-15 47c-14 47-39 67-54 43zm525-135c44-23 52-66 48-254l-3-163-56-48h-530l-24 25c-25 24-25 26-25 215v191l26 24 27 25h254c207 0 259-3 283-15zm-500-38c-44-22-51-51-48-195 3-133 3-134 31-158 28-23 32-24 210-24 244 1 231-10 235 184l3 146-29 30-30 30h-174c-119 0-181-4-198-13zm382-34c16-14 18-33 18-145 0-71-5-138-10-149-10-18-23-19-192-19-155 0-184 2-200 17-16 14-18 33-18 142 0 181-12 171 207 171 150 0 179-2 195-17zm-352-94c0-18 124-169 139-169 20 0 8 22-60 105-59 72-79 88-79 64zm-20-78c0-12 82-111 92-111 17 0 7 24-29 71-34 44-63 63-63 40zm440 169c-8-15-6-24 10-40s25-18 40-10c21 11 25 27 14 54-9 23-51 20-64-4zm10-179c0-11 30-19 48-14 23 8 12 23-18 23-16 0-30-4-30-9zm-3-47c-12-12 4-24 34-24 31 0 39 14 13 24-20 8-39 8-47 0zm6-61c-25-10-12-23 22-23 36 0 47 13 19 24-18 7-23 7-41-1zm-533-33c0-22 44-55 60-45 6 4-2 18-21 36-37 34-39 35-39 9zM0 2559c0-16 4-19 22-14 104 34 248-38 313-156 27-48 30-63 30-139 0-73-4-92-27-135-57-109-153-168-270-167-52 0-68-3-68-14s16-14 65-14c129 0 238 68 295 183 39 80 47 145 26 225-39 153-167 252-328 252-52 0-58-2-58-21zm5334-15c-88-46-141-112-169-209-48-164 46-341 213-399 39-14 42-14 42 2 0 13-14 21-46 30-67 18-157 110-178 182-36 123-12 222 75 312 42 43 68 60 103 70 25 7 46 18 46 25 0 20-33 15-86-13z"/><path d="M5331 2466c-8-9-11-78-9-227l3-214 24-3c13-2 35 2 47 9 28 15 34 45 7 34-56-23-53-35-53 184 0 110 2 201 5 201 4 0 19-7 35-15 28-15 30-14 30 3 0 18-37 42-64 42-8 0-19-6-25-14zM0 2432c0-11 8-23 18-27 44-17 262-151 259-160-2-5-64-45-138-87-74-43-135-84-137-93-2-8-1-15 1-15 12 0 273 153 291 170 27 26 13 51-47 87L8 2447c-5 2-8-5-8-15zm0-136c0-8 6-17 13-20 10-5 9-7 0-12-7-3-13-23-13-45 0-32 4-39 19-39 16 0 19 7 18 33 0 17 3 39 7 48 4 10 1 23-9 33-20 20-35 21-35 2zm67 7c-4-3-7-33-7-65 0-57 1-58 28-58 15 0 38 7 50 16 30 21 30 77 0 98-23 16-60 21-71 9zm58-58c0-20-6-31-17-33-15-3-18 4-18 33s3 36 18 33c11-2 17-13 17-33z"/><path d="M5387 2303c-13-12-7-23 13-23 11 0 20 7 20 15 0 15-21 21-33 8zm-177-114c0-29 40-99 57-99 18 0 16 10-7 45-11 17-20 40-20 53s-6 22-15 22-15-9-15-21z"/><path d="M5387 2203c-13-12-7-23 13-23 11 0 20 7 20 15 0 15-21 21-33 8zm-1083-575c-35-17-44-52-44-177 0-127 3-137 56-168 18-10 74-51 125-92 122-96 132-100 167-74 18 14 27 29 27 48 0 41-23 43-27 3-5-51-32-47-118 18-41 31-84 65-95 75-19 19-19 19 21 19 34 0 46-6 84-45 24-25 48-45 52-45 17 0 7 24-22 52-16 15-30 30-30 33s98 5 217 5h217l-33-34c-52-54-32-64 26-12 37 34 59 46 82 46 17 0 31-3 30-7 0-11-166-137-185-141-21-5-39 14-39 41 0 35-20 35-23 1-2-19 3-38 13-48 28-27 67-19 127 27l127 97c58 45 74 62 82 95 14 49 4 237-13 264-16 26-48 31-202 31h-131l-43-40c-23-22-45-40-50-40-4 0-25 18-47 40l-40 39h-145c-80 0-155-5-166-11zm341-58c21-22 46-40 55-40s34 18 55 40l39 40h147c121 0 150-3 163-16 13-12 16-40 16-138 0-81-4-126-12-134-17-17-789-17-806 0-8 8-12 54-12 140 0 110 2 128 18 137 9 6 80 11 157 11h141l39-40zm-303-16c-20-13-22-24-22-94 0-111-2-110 175-110 79 0 150 3 159 6 10 4 16 18 16 36 0 48-30 152-48 166-25 19-251 17-280-4zm278-51c6-21 13-57 17-81l6-43-288 6-3 64c-2 35-1 70 2 77 4 11 34 14 130 14h125l11-37zm-234-1c-8-13 68-112 85-112 19 0 7 27-35 74-28 33-45 46-50 38zm397 48c-36-41-55-183-27-194 9-3 80-6 159-6 179 0 177-1 173 113-4 104-8 107-171 107-105 0-119-2-134-20zm275-92l3-78h-144c-79 0-146 3-149 6s-2 20 2 37l20 75 11 43 254-6 3-77zm-222 44c-7-12 69-112 86-112 19 0 5 28-35 75-29 32-46 45-51 37zM436 402c-2-4 14-74 36-156l41-149-24-21c-13-12-40-33-59-48-34-27-34-28-10-28 15 0 45 18 74 44l50 43-36 134c-20 74-35 135-34 136s56-34 123-78l121-81 117 77c64 42 118 75 120 73 2-1-14-64-35-138L881 75l42-37c23-21 51-37 62-37 16 0 12 7-22 37-24 21-43 44-43 52 0 9 18 80 40 160l40 147c0 15-46-10-146-77-65-44-125-80-134-80-8 0-62 32-120 71-125 83-157 102-164 91zm2676-69c3-44 1-49-25-61-51-25-67-65-67-174 0-81 3-98 15-98s15 18 15 99c0 91 2 102 24 128l24 28 244 3c160 2 256 0 281-8 52-15 67-53 67-165 0-50 4-85 10-85s10 41 10 103c0 113-8 134-63 167-28 18-31 23-28 65 2 42 1 45-22 45-20 0-26-7-37-45-9-32-19-47-34-51-11-2-93-3-181-2l-159 3-15 48c-12 39-19 47-39 47-22 0-24-3-20-47zm37-126c-40-10-59-56-59-142 0-51 3-65 15-65s15 15 15 73c0 39 4 77 8 83 18 28 56 34 209 34 203 0 203 0 203-111 0-64 3-79 15-79s15 15 15 79-4 83-20 104c-21 26-21 26-196 29-96 2-188-1-205-5zm441-36c-13-25-4-48 21-56 38-12 65 35 37 63-18 18-46 14-58-7zm-2930-2c-33-13-68-47-86-81-19-37-18-88 1-88 10 0 15 11 15 35 0 81 104 139 179 101 38-20 71-70 71-108 0-19 5-28 16-28 14 0 16 8 11 42-10 73-67 128-138 134-24 2-55-1-69-7zm2510-98c0-16 51-71 66-71 21 0 17 11-16 48-29 31-50 41-50 23zM667 64c-14-14 6-24 49-24 32 0 44 4 44 15s-11 15-43 15c-24 0-47-3-50-6zm10-61c18-2 50-2 70 0 21 2 7 4-32 4-38 0-55-2-38-4z"/></g><g fill="#53b3d7"><path d="M1780 6108c0-27 47-106 85-144 101-102 245-127 373-67 46 22 128 104 146 147 28 68 29 76 7 76-15 0-21-6-21-23 0-31-52-108-93-140-56-42-107-59-182-60-81-1-127 16-192 69-45 37-83 98-83 134 0 13-7 20-20 20-11 0-20-5-20-12zm230-7c13-25 72-44 109-36 33 7 85 55 59 55-9 0-29-7-44-15-16-8-33-15-39-15-5 0-23 7-39 15-41 22-59 20-46-4zm185-7c-19-29-12-44 13-28 18 12 29 54 14 54-5 0-17-12-27-26zm2375-78c0-148 3-151 150-151s150 3 150 151v104h-50c-27 0-50-4-50-10 0-5 18-10 40-10 29 0 40-4 40-15s-11-15-40-15-40-4-40-15 11-15 40-15 40-4 40-15-11-15-41-15c-28 0-39-4-36-12 2-7 19-13 38-13 30 0 34-3 37-30 2-16-4-39-12-50-16-20-16-20-22 3-8 27-24 29-24 2 0-14-7-20-24-20-15 0-26 7-29 20-3 11-10 20-16 20s-11-9-11-20c0-15-7-20-25-20s-25 5-25 20c0 11-4 20-10 20-5 0-10-9-10-20s-7-20-15-20c-20 0-37 35-33 68 3 23 7 27 37 27 19 0 36 6 38 13 3 8-8 12-36 12-55 0-58 27-3 32 46 4 45 22-3 26-52 5-47 32 5 32 22 0 40 5 40 10 0 6-22 10-50 10h-50v-104zm-2330 54c-32-41-34-64-3-44 31 19 58 63 46 75-7 7-20-2-43-31zm65-2c-16-24-42-56-58-71-21-19-27-31-20-38 15-15 79 43 104 94 30 57 9 68-26 15zm-435-23c0-20 45-65 65-65 22 0 18 11-15 48-32 35-50 41-50 17zm682-312c82-2 214-2 296 0 81 1 14 3-148 3s-229-2-148-3zm-2534-9c-10-3-18-11-18-17 0-8 25-12 78-12 61 0 86-5 120-23 229-121 227-439-4-553-39-19-64-24-121-24-80 1-102-18-36-28 111-18 265 65 323 174 18 32 40 118 40 154 0 120-82 247-196 301-49 23-150 38-186 28zm5362-13c-79-24-159-97-198-181-36-74-36-191-3-264 41-87 135-170 216-190 22-6 26-4 23 10-2 10-21 22-50 31-101 29-188 158-188 277 0 130 89 256 202 286 22 6 38 17 38 25 0 16-3 17-40 6z"/><path d="M5331 5606c-8-9-11-77-9-222l3-209 27-3c33-4 68 13 68 33 0 19-10 18-34 0-11-8-23-15-28-15-4 0-8 92-8 205s2 205 5 205c4 0 19-7 35-15 26-14 30-14 30-1 0 31-68 48-89 22zM0 5578c0-7 63-49 140-93s140-85 140-91-63-47-140-90c-77-44-140-85-140-91 0-7 3-13 6-13 4 0 71 37 150 82 142 80 168 104 144 133-12 14-281 175-293 175-4 0-7-6-7-12zm2608 5c50-2 134-2 185 0 50 1 9 3-93 3s-143-2-92-3zm0-30c50-2 134-2 185 0 50 1 9 3-93 3s-143-2-92-3zM0 5447c0-7 6-19 13-26 10-11 9-14 0-18-7-3-13-20-13-39 0-28 4-34 21-34 18 0 20 4 15 26-4 15-2 32 5 40 14 17 6 40-20 54-16 8-21 8-21-3zm78 5c-15-3-18-14-18-63 0-61 4-66 50-59 39 5 64 62 42 97-10 16-53 30-74 25zm36-28c19-7 21-45 4-62-21-21-28-13-28 28 0 43 0 43 24 34zm5276 21c-10-13-9-15 9-15 12 0 21 6 21 15 0 8-4 15-9 15s-14-7-21-15z"/><use xlink:href="#B"/><use xlink:href="#B" x="70"/><path d="M5214 5346c-8-21 32-106 50-106 20 0 20 3-4 42-11 18-20 41-20 50 0 23-19 33-26 14zm166-6c0-5 9-10 20-10s20 5 20 10c0 6-9 10-20 10s-20-4-20-10zm-2140-248c-63-10-70-17-70-68 0-39 3-46 26-54 14-6 41-10 60-10 22 0 37-6 40-15 4-8 0-79-7-158-7-78-14-172-15-209-1-44-8-73-17-83-16-16-37-98-37-145 0-32 24-54 73-65 40-10 43-24 11-52-24-20-29-32-29-70 0-37 5-49 28-69 94-81 216 49 128 136-31 32-27 43 21 55 14 4 36 18 49 31 21 23 22 26 10 81-7 32-21 74-31 93-12 21-21 66-24 115l-15 204c-11 137-8 151 40 151 15 0 39 4 53 10 23 8 26 15 26 55s-3 47-27 56c-34 13-233 20-293 11zm265-31c18-4 31-14 33-25 3-15 0-17-14-12-24 9-274 9-309 0-23-6-26-4-23 12 2 10 14 21 28 25 31 9 245 9 285 0zm-153-261c-3-187-1-210 13-210s15 23 13 210c-3 181-1 210 12 210 8 0 40-3 70-7 55-8 55-8 16-13-26-3-45-13-57-30-17-24-17-33-1-200 21-221 20-235-20-249-18-6-47-8-66-5l-34 7 5 81 16 214c10 117 9 136-5 157-13 19-26 25-58 26l-41 2 40 7c22 4 54 8 70 9l30 1-3-210zm-27-320c17-7 39-6 70 2 33 9 47 9 58 0 16-14 42-124 35-144-3-7-23-19-44-27-22-7-49-22-61-33-21-20-21-20-32 0-6 11-23 22-39 25-15 3-39 14-52 25l-23 19 17 64c25 89 23 87 71 69zm105-280c16-31 11-60-15-85-27-28-61-34-51-10 6 15-26 55-43 55-5 0-12-8-14-17-3-10-5-2-6 18-1 36 16 61 49 71 22 7 69-12 80-32zm-30 239c-14-6-46-7-72-4-60 9-64-8-5-24 33-9 51-9 85 1 24 7 43 18 43 23 0 14-22 16-51 4zm-1752 404c-14-18-25-392-13-471 7-48 46-85 68-63 14 14 57 15 57 1 0-6 102-10 285-10s285 4 285 10c0 13 43 13 56 0 6-6 18-5 34 3l25 13 3 248c2 217 0 251-14 267-15 16-44 18-394 17-331 0-381-2-392-15zm658-14c4-7 27-10 61-7 48 4 54 2 59-16 2-12 3-120 2-240l-3-220-55-3c-30-2-170-6-310-9-185-3-261-1-277 7-14 7-42 10-73 6l-50-6 2 241 3 242 56-3c33-1 60 2 64 8 9 16 511 15 521 0zm-613-56c-8-3-13-23-13-49v-45l105 6 3 39c2 24-2 42-10 47-14 9-65 11-85 2zm67-43c0-15-7-20-25-20s-25 5-25 20 7 20 25 20 25-5 25-20zm56 34c-12-31-7-359 6-372 19-19 432-17 447 2 8 9 11 70 9 197l-3 184-226 3c-200 2-227 0-233-14zm436-11c2-5 2-83 0-175l-3-168h-409v350h204c113 0 206-3 208-7zm-282-82c-5-11-10-55-10-99 0-110 8-115 103-62 78 43 103 63 93 78-5 9-161 102-170 102-3 0-10-9-16-19zm91-53c33-18 58-36 56-41-1-4-30-24-65-43l-62-35v75c0 42 3 76 6 76 4 0 33-15 65-32zm246 155c-4-3-7-26-7-50v-44l53 3c46 3 52 6 55 27 2 12 1 34-2 47-6 21-12 24-50 24-23 0-46-3-49-7zm73-43c0-15-7-20-25-20s-25 5-25 20 7 20 25 20 25-5 25-20zm-700-155v-45h110v90h-110v-45zm78 0c2-15-3-21-17-22-24-2-35 12-27 33 8 22 40 13 44-11zm549 39c-4-4-7-25-7-46v-39l105 6v80l-45 3c-25 2-49 0-53-4zm68-38c0-22-14-29-34-17-19 12-6 43 16 39 10-2 18-12 18-22zm-682-102c-8-3-13-24-13-50v-45l105 6v90l-40 2c-22 1-46 0-52-3zm67-44c0-15-7-20-25-20s-25 5-25 20 7 20 25 20 25-5 25-20zm544 37c-3-9-4-30-2-49 3-33 4-33 53-33h50v90l-48 3c-34 2-49-1-53-11zm76-37c0-15-7-20-25-20s-25 5-25 20 7 20 25 20 25-5 25-20zm1901 324c-19-24-21-40-21-149s2-125 21-149c11-14 26-26 33-26s22-8 33-17c11-10 35-29 53-43l93-72c57-46 88-57 113-40 20 13 35 52 29 72-8 26-29 26-22 0 7-27-15-53-41-48-22 3-191 127-192 141 0 4 15 7 33 7 25 0 44-10 81-45 46-42 66-54 66-38 0 4-14 22-32 40-17 18-29 35-26 38s101 4 219 3l213-3-33-31c-18-17-32-37-29-45 3-9 21 3 55 34 38 36 58 47 82 47 18 0 31-4 29-9-1-5-40-39-85-75-102-82-155-88-136-16 4 17 2 21-8 18-42-14-5-98 42-98 20 0 247 171 277 208 8 11 12 58 12 153 0 178 10 169-199 169h-155l-86-84-86 84h-313l-20-26zm369-39c24-25 48-45 53-45s28 20 53 45l43 45h142c186 0 179 6 179-155 0-96-3-125-15-135-22-18-783-20-802-2-9 10-13 49-13 142 0 112 2 130 18 139 9 6 80 11 157 11h141l44-45zm-320-24c-5-11-10-50-10-86 0-108-4-105 170-105 81 0 155 3 164 6s16 17 16 31c0 34-29 145-42 161-7 8-50 12-149 12-126 0-139-2-149-19zm278-15c12-15 32-98 32-131v-26l-142 3-143 3-6 154 33 3c80 9 218 5 226-6zm-228-34c0-15 88-107 95-100 10 10-65 108-82 108-7 0-13-3-13-8zm396 46c-18-29-41-150-33-172 6-14 28-16 166-16 187 0 181-3 181 105 0 107 3 105-160 105-134 0-140-1-154-22zm272-6c9-6 12-30 10-83l-3-74-135-3c-74-1-140 1-147 6-15 9 12 131 33 148 15 12 224 18 242 6zm-211-38c-9-9 65-103 81-104 20 0 14 14-24 63-36 47-45 53-57 41z"/><use xlink:href="#C"/><use xlink:href="#C" x="30"/><path d="M4262 3773c-1-73 1-133 6-133 4 0 6 46 4 102-4 162-9 175-10 31zM2392 2570c-8-14-12-70-12-183 0-147-2-166-19-181-14-13-18-31-19-86 0-41 5-73 12-79 6-5 126-62 266-126 162-74 262-114 275-111 18 5 65 80 65 105 0 5-53 32-117 62-236 106-388 179-391 187-1 4 125 7 280 7h283l3 197c2 168 0 198-14 212-13 14-54 16-307 16-281 0-293-1-305-20zm598-145v-135h-296c-266 0-296 2-290 16 3 9 6 69 6 135v119h580v-135zm-511-194c27-38 26-41-6-41-36 1-63 22-63 49 0 33 44 28 69-8zm150 0c12-16 21-32 21-35s-24-6-54-6c-49 0-57 3-75 29-12 16-21 32-21 35s24 6 54 6c49 0 57-3 75-29zm140 0c25-35 20-41-35-41-36 0-46 5-63 29-12 16-21 32-21 35s22 6 49 6c43 0 52-4 70-29zm144 0c9-16 17-32 17-35s-22-6-49-6c-43 0-52 4-70 29-12 16-21 32-21 35s24 6 53 6c48 0 54-3 70-29zm79 12c6-25-2-55-13-51-6 2-19 18-30 36l-21 32h30c20 0 31-6 34-17zm-617-43c-3-5 3-10 14-10 16 0 21-6 21-25 0-18-5-25-20-25-11 0-21 6-22 13-4 35-4 43-1 50 2 4 6 7 9 7s2-4-1-10zm110-89c-2-5 15-16 39-25 41-16 44-20 51-62 3-25 4-48 2-51-3-2-26 4-50 15-34 15-46 27-51 49-8 37-4 93 6 87 5-3 6-9 3-13zm-45-20c0-16 3-37 7-46 5-14 2-16-18-10-45 13-68 33-62 54 4 18 20 25 61 30 7 0 12-11 12-28zm247-78c9-3 24-91 18-101-1-1-22 6-47 17-40 17-46 24-51 58-11 65-11 65 31 47 20-9 42-18 49-21zm97-45c41-20 44-24 48-67 3-25 4-47 2-49-6-10-93 45-98 62-7 26-8 76-1 76 2 0 24-10 49-22zm116-53l30-15-17-35c-27-56-52-38-53 38 0 31 1 32 40 12zm-390 580c0-12 16-15 85-15s85 3 85 15-16 15-85 15-85-3-85-15zm200 0c0-12 16-15 85-15s85 3 85 15-16 15-85 15-85-3-85-15zm-200-70c0-13 27-15 191-15 148 0 190 3 187 13-4 9-53 13-191 15-162 2-187 0-187-13zm0-80c0-13 25-15 187-13 138 2 187 6 191 16 3 9-39 12-187 12-164 0-191-2-191-15zm1113 150c0-22 2-30 4-17 2 12 2 30 0 40-3 9-5-1-4-23zm-2394-76c-16-17-29-35-29-40s-13-9-29-9c-21 0-36 8-51 30-12 17-25 30-30 30-9 0-90-180-90-200 0-8 12-10 40-5 40 7 40 7 261-170 141-114 224-174 230-168 10 10 72 149 139 311 38 93 38 93 17 102-12 5-67 14-122 20-176 20-172 19-179 51-15 79-104 105-157 48zm101-4c22-11 30-23 30-42 0-25-1-26-46-19-26 3-55 6-65 6-27 0-23 25 7 49 32 25 36 25 74 6zm-220-54c0-31-40-111-55-111-20 0-19 9 11 79 25 58 44 71 44 32zm290-46c113-15 208-30 212-33 5-6-124-317-137-330-2-2-86 63-187 144l-186 150c-2 1 7 25 19 54 20 46 25 50 48 46 14-3 118-17 231-31zm270-44c0-15-139-334-150-345-36-36-8 43 104 297 23 50 46 75 46 48zm-484-50c-6-9 150-136 180-148 37-14 6 22-68 80-100 77-105 80-112 68zm210-159c-9-15 43-57 55-45 7 7 2 17-20 32-16 12-32 17-35 13zm2898 153c0-110 2-156 3-103 2 53 2 143 0 200-1 57-3 13-3-97zm-31 90c0-38 2-53 4-32 2 20 2 52 0 70-2 17-4 1-4-38zm-539-110c0-93 2-133 3-88 2 45 2 122 0 170-1 48-3 12-3-82zm-1944-66c0-34-5-80-12-102-12-40-63-101-103-123-28-16-12-28 17-14 90 47 148 179 122 278-12 42-24 22-24-39zm-72 7c6-51-15-102-56-136-39-32-37-51 4-30 45 25 68 68 72 137 3 50 1 63-10 63-10 0-13-9-10-34zM570 1650l-55-7 52-1c28-1 55 3 58 8 3 6 5 9 3 8s-28-4-58-8zm1854-210c0-124 2-174 3-112 2 61 2 163 0 225-1 61-3 11-3-113z"/><use xlink:href="#D"/><path d="M602 1613c49-2 127-2 176 0 48 1 8 3-88 3s-136-2-88-3zm352-87c-3-7-4-38-2-67l3-54 5 68c5 67 4 79-6 53zm-31-46c0-30 2-43 4-27 2 15 2 39 0 55-2 15-4 2-4-28zm1530 15c0-22 2-30 4-17 2 12 2 30 0 40-3 9-5-1-4-23z"/><path d="M2453 1405c0-22 2-30 4-17 2 12 2 30 0 40-3 9-5-1-4-23z"/><use xlink:href="#E"/><use xlink:href="#C" x="1530" y="-3350"/><use xlink:href="#B" x="30" y="-4590"/><use xlink:href="#D" x="1870" y="-830"/><path d="M4262 620c-1-73 1-130 6-125 4 6 5 66 1 135l-5 125-2-135z"/><use xlink:href="#C" x="3310" y="-3920"/><path d="M3952 633c48-2 129-2 180 0 51 1 12 3-87 3s-141-2-93-3zm11-30c48-2 125-2 170 0 45 1 6 3-88 3-93 0-130-2-82-3z"/><use xlink:href="#E" x="490" y="-820"/><path d="M4263 375c0-33 2-45 4-27s2 45 0 60-4 0-4-33zm356 25c-81-14-109-41-75-69 8-7 44-17 80-23 54-9 66-14 66-29 0-17-8-19-65-19-95 0-105-13-105-134 0-53-4-98-10-101-23-14-7-25 39-25 40 0 49 3 47 18-1 13 8 18 37 20 50 4 48 22-3 22-39 0-40 1-40 36 0 42 15 74 35 74 8 0 15-9 15-20s5-20 10-20c6 0 10 11 10 25 0 20 5 25 24 25s25-6 28-27c4-35 22-33 26 2 3 20 8 26 25 23 14-2 23-11 25-26 4-27 22-29 22-2 0 11 4 20 8 20 19 0 32-27 32-67V60h-40c-51 0-53-18-2-22 28-2 37-7 36-20-2-15 7-18 47-18 48 0 58 6 40 25-5 6-11 54-13 107-4 117-12 127-100 128-50 0-58 3-58 19 0 15 10 21 43 26 80 12 96 16 107 30 29 35-41 65-159 70-47 2-107 0-132-5zm235-31c49-13 37-27-34-38-47-8-53-6-57 10-6 23-73 28-73 5 0-20-18-23-77-13-105 17-44 45 102 46 55 1 117-4 139-10zm-116-75c-5-42-28-43-28-1 0 18 3 37 7 40 12 13 25-10 21-39zm142-74c17-17 20-33 20-105 0-69-3-85-15-85s-15 14-15 65c0 97-11 105-150 105s-150-8-150-105c0-51-3-65-15-65s-15 17-15 89c0 124-4 121 176 121 131 0 146-2 164-20zM1990 374c-54-20-119-64-140-94-8-12-21-29-28-36-25-26-52-123-52-184 0-51 3-60 18-60 16 0 18 9 17 73 0 56 5 83 24 121 49 99 133 156 242 164 86 6 152-16 214-70 69-61 99-126 99-216-1-52 3-72 12-72 20 0 28 65 15 127-20 100-84 184-176 230-64 34-178 41-245 17zm-67-101c-41-38-86-110-78-122 10-17 21-13 33 14 6 14 30 45 52 69 58 63 52 94-7 39zm19-60c-18-17-32-41-32-52 0-26 16-27 30-2 5 11 17 27 26 35 8 9 14 24 12 34-3 14-9 12-36-15zm35-41c-18-20-22-42-9-42 14 0 53 46 45 53-10 11-19 8-36-11zm44-28c-49-41-56-144-10-144 16 0 18 3 9 19-29 56 11 121 75 121 59 0 101-63 76-116-9-21-8-24 8-24 51 0 36 115-21 154-36 25-101 20-137-10zm41-56c-27-27-6-68 34-68 33 0 49 25 36 55-13 27-49 34-70 13z"/></g><g fill="#fcb065"><path d="M649 6107c4-4 37-7 72-5l64 3-72 5c-40 3-68 1-64-3zm2394-62c0-44 2-61 4-37 2 23 2 59 0 80-2 20-4 1-4-43zm50 20c0-33 2-45 4-27s2 45 0 60-4 0-4-33z"/><use xlink:href="#F"/><use xlink:href="#F" x="-3120" y="-10"/><use xlink:href="#B" x="-1810" y="560"/><use xlink:href="#F" y="-60"/><use xlink:href="#B" x="-2220" y="550"/><path d="M3748 5703c18-2 45-2 60 0s0 4-33 4-45-2-27-4zm520 0c17-2 47-2 65 0 17 2 3 4-33 4s-50-2-32-4z"/><use xlink:href="#E" x="1450" y="4300"/><path d="M3754 5480c0-63 1-89 3-57 2 31 2 83 0 115-2 31-3 5-3-58zm540-105c0-121 2-169 3-107 2 62 2 161 0 220-1 59-3 8-3-113zm-570-20c0-121 2-169 3-107 2 62 2 161 0 220-1 59-3 8-3-113zm-1699 125c12-4 27-15 34-24s18-16 23-16-4 11-20 25c-17 14-36 25-43 24-8 0-5-4 6-9zm-671-1460c1-21 7-26 34-28 29-3 32-1 31 25-2 23-2 24-6 6-3-16-11-23-28-23s-25 7-28 23c-3 19-4 19-3-3z"/><use xlink:href="#G"/><path d="M2860 3887c0-2 15-16 33-33l32-29-29 33c-28 30-36 37-36 29zm-1507-184c15-2 39-2 55 0 15 2 2 4-28 4s-43-2-27-4zm1353-13c7-8 14-24 17-35 4-19 5-19 6 1 0 12-7 28-16 35-16 12-17 12-7-1zm-1359-17c18-2 50-2 70 0 21 2 7 4-32 4-38 0-55-2-38-4z"/><use xlink:href="#E" x="-30" y="2320"/><path d="M1229 3492c5-34 6-35 9-8 2 16 0 32-5 37s-7-7-4-29zm1665-54l-29-33 33 29c30 28 37 36 29 36-2 0-16-15-33-32zm1809-85c15-2 39-2 55 0 15 2 2 4-28 4s-43-2-27-4zm-1569-46c3-10 6-25 6-33s5-14 11-14c12 0 2 40-14 55-7 7-8 4-3-8zm444-17c-7-24-3-38 8-28 3 4 4 17 2 30l-3 23-7-25zm1152-17c-3-23-2-39 3-34s7 24 5 42c-3 33-4 33-8-8z"/><use xlink:href="#G" x="1940" y="-710"/><path d="M4793 3233c15-2 37-2 50 0 12 2 0 4-28 4-27 0-38-2-22-4zm-1565-50c39-2 105-2 145 0 39 1 7 3-73 3s-112-2-72-3zm1415-10c15-2 37-2 50 0 12 2 0 4-28 4-27 0-38-2-22-4z"/><use xlink:href="#D" x="3940" y="1530"/><path d="M4894 3085c0-49 1-71 3-48s2 64 0 90-3 8-3-42zm-1850-95c0-96 2-136 3-87 2 48 2 126 0 175-1 48-3 8-3-88zm1687 137c-1-19-5-26-13-21-7 5-8 3-3-5 11-19 27 3 22 30-4 22-4 21-6-4zm-1637-132c0-71 1-99 3-62s2 96 0 130-3 4-3-68zm1779 65c0-36 2-50 4-32 2 17 2 47 0 65-2 17-4 3-4-33zm-279-10c1-10 13-15 36-16 34-2 34-1 3 3-17 2-34 10-36 16-2 7-3 5-3-3zm-3931-20c2-9 17-16 38-16 31-2 31-1 4 3-16 3-34 10-38 16-6 8-7 7-4-3z"/><use xlink:href="#B" x="2150" y="-2400"/><use xlink:href="#G" x="-1990" y="-960"/><use xlink:href="#D" x="-320" y="1260"/><use xlink:href="#D" x="3990" y="1250"/><use xlink:href="#G" x="-2240" y="-1080"/><use xlink:href="#B" x="1970" y="-2570"/><use xlink:href="#B" x="2150" y="-2570"/><use xlink:href="#G" x="-1720" y="-1090"/><path d="M3243 2823c48-2 126-2 175 0 48 1 8 3-88 3s-136-2-87-3zm0-80c70-2 184-2 255 0 70 1 12 3-128 3s-198-2-127-3zm2006-260l-34-38 38 34c34 33 42 41 34 41-2 0-19-17-38-37zm-4979 24c0-2 15-16 33-33l32-29-29 33c-28 30-36 37-36 29zm4994-39l-29-33 33 29c17 17 32 31 32 33 0 8-8 1-36-29zm68 0c-7-7-12-16-12-22 0-5 6-3 13 6 6 9 21 18 32 21 20 5 20 5 0 6-12 0-26-4-33-11zm13-242c0-151 2-180 15-183 11-3 12-2 3 4s-13 60-16 183l-3 175 1-179zm-5262 5c1-14 9-26 17-28 10-3 11-2 4 4-7 4-14 17-17 28-5 16-5 15-4-4zm206-218l-34-38 38 34c20 19 37 36 37 38 0 8-8 0-41-34zm2875-97c-3-8-4-27-2-43 3-23 5-20 9 15 5 43 2 53-7 28z"/><use xlink:href="#B" x="790" y="-3550"/><path d="M3240 1856c0-2 11-6 25-8 14-3 25-1 25 3 0 5-11 9-25 9s-25-2-25-4zm200-5c0-4 11-6 25-3 14 2 25 6 25 8s-11 4-25 4-25-4-25-9z"/><use xlink:href="#C" x="2490" y="-2960"/><use xlink:href="#E" x="990" y="280"/><path d="M4393 1633c42-2 112-2 155 0 42 1 7 3-78 3s-120-2-77-3zm460 0c37-2 97-2 135 0 37 2 6 3-68 3s-105-1-67-3zm-191-48c21-22 39-37 41-34 2 2-15 19-37 38l-41 35 37-39zm-52 22c0-2 15-16 33-33l32-29-29 33c-28 30-36 37-36 29zm-187-44c37-2 96-2 130 0s4 3-68 3c-71 0-99-1-62-3zm435 0c34-2 90-2 125 0 34 2 6 3-63 3s-97-1-62-3z"/><use xlink:href="#E" x="1870" y="180"/><path d="M5083 1460c0-47 2-66 4-42 2 23 2 61 0 85-2 23-4 4-4-43zm-4947 55c-6-16 19-33 31-21 4 3-1 6-10 6-10 0-14 5-11 15 4 8 4 15 1 15s-8-7-11-15zm5007-75c0-47 2-66 4-42 2 23 2 61 0 85-2 23-4 4-4-43zm-820-15c0-27 2-38 4-22 2 15 2 37 0 50-2 12-4 0-4-28z"/><use xlink:href="#D" x="3660" y="-270"/><path d="M4928 1373c23-2 59-2 80 0 20 2 1 4-43 4s-61-2-37-4zm1-130l-34-38 38 34c20 19 37 36 37 38 0 8-8 0-41-34zM1511 932c0-16 3-21 6-12 3 8 10 18 15 21s3 9-6 12c-12 5-16 0-15-21zm-148-349c15-2 37-2 50 0 12 2 0 4-28 4-27 0-38-2-22-4zm-6-30c18-2 50-2 70 0 21 2 7 4-32 4-38 0-55-2-38-4zm1782-236c6-14 7-28 3-33-4-4-2-4 5-1 12 7 7 44-8 53-5 3-5-6 0-19zm444 6c-3-10-8-21-10-25s2-10 9-14 10-4 6 0c-4 5-3 19 2 32s7 24 4 24c-2 0-7-8-11-17z"/><use xlink:href="#D" x="-100" y="-1470"/><path d="M3044 90c0-52 1-74 3-47 2 26 2 68 0 95-2 26-3 4-3-48zm49-20c0-41 2-58 4-38 2 21 2 55 0 76-2 20-4 3-4-38z"/></g><defs ><path id="B" d="M2643 5433c9-2 25-2 35 0 9 3 1 5-18 5s-27-2-17-5z"/><path id="C" d="M923 4600c0-25 2-35 4-22 2 12 2 32 0 45-2 12-4 2-4-23z"/><path id="D" d="M798 1643c12-2 30-2 40 0 9 3-1 5-23 4-22 0-30-2-17-4z"/><path id="E" d="M2452 1330c0-19 2-27 5-17 2 9 2 25 0 35-3 9-5 1-5-18z"/><path id="F" d="M3650 6052c0-7-10-13-22-13-19-1-20-2-4-6 20-5 44 12 33 24-4 3-7 1-7-5z"/><path id="G" d="M2658 3943c12-2 32-2 45 0 12 2 2 4-23 4s-35-2-22-4z"/></defs></svg>