<?xml version="1.0" encoding="UTF-8" ?>
<!DOCTYPE svg PUBLIC "-//W3C//DTD SVG 1.1//EN" "http://www.w3.org/Graphics/SVG/1.1/DTD/svg11.dtd">
<svg width="416pt" height="416pt" viewBox="0 0 416 416" version="1.1" xmlns="http://www.w3.org/2000/svg">
<g id="#ffffffff">
</g>
<g id="#e6c8e8ff">
<path fill="#e6c8e8" opacity="1.00" d=" M 6.19 0.00 L 10.72 0.00 C 11.35 0.04 12.61 0.11 13.25 0.15 C 12.85 1.97 13.84 4.66 16.06 4.37 C 18.16 4.04 17.83 1.57 18.05 0.00 L 19.02 0.00 C 19.14 0.08 19.38 0.23 19.51 0.30 L 19.40 0.00 L 26.78 0.00 C 28.95 2.00 30.88 4.22 32.91 6.36 C 29.41 9.38 26.06 12.56 22.77 15.80 C 18.64 12.04 15.12 7.66 10.91 3.98 L 11.13 5.06 C 9.43 3.43 7.82 1.71 6.19 0.00 M 17.59 7.49 C 20.49 6.15 23.39 4.45 25.32 1.85 C 24.18 2.26 23.04 2.68 21.91 3.13 C 22.06 2.52 22.34 1.29 22.48 0.67 C 20.11 2.30 18.71 4.92 17.59 7.49 M 24.63 8.08 C 24.20 7.84 23.33 7.37 22.90 7.13 C 19.58 5.86 18.97 11.74 22.04 11.72 C 24.41 10.13 26.66 8.24 28.37 5.93 C 27.11 6.63 25.88 7.36 24.63 8.08 Z" />
<path fill="#e6c8e8" opacity="1.00" d=" M 14.39 0.00 L 15.76 0.00 C 16.69 0.72 17.68 2.78 15.93 3.19 C 14.15 3.53 13.68 1.20 14.39 0.00 Z" />
</g>
<g id="#1c5b7eff">
<path fill="#1c5b7e" opacity="1.00" d=" M 10.72 0.00 L 14.39 0.00 C 13.68 1.20 14.15 3.53 15.93 3.19 C 17.68 2.78 16.69 0.72 15.76 0.00 L 18.05 0.00 C 17.83 1.57 18.16 4.04 16.06 4.37 C 13.84 4.66 12.85 1.97 13.25 0.15 C 12.61 0.11 11.35 0.04 10.72 0.00 Z" />
<path fill="#1c5b7e" opacity="1.00" d=" M 24.63 8.08 C 25.88 7.36 27.11 6.63 28.37 5.93 C 26.66 8.24 24.41 10.13 22.04 11.72 C 18.97 11.74 19.58 5.86 22.90 7.13 C 23.33 7.37 24.20 7.84 24.63 8.08 M 21.15 9.27 C 21.83 10.46 22.55 10.37 23.30 8.99 C 22.57 7.80 21.86 7.89 21.15 9.27 Z" />
<path fill="#1c5b7e" opacity="1.00" d=" M 250.24 29.32 C 250.38 29.19 250.66 28.94 250.80 28.81 C 256.11 27.84 258.92 32.73 261.27 36.54 C 261.04 36.46 260.57 36.30 260.34 36.22 C 258.56 34.12 257.31 31.45 254.87 30.02 C 253.34 29.66 251.78 29.52 250.24 29.32 Z" />
<path fill="#1c5b7e" opacity="1.00" d=" M 264.21 43.71 C 262.93 42.55 261.72 40.78 262.53 39.01 C 263.90 39.95 264.99 41.71 265.08 43.38 C 264.86 43.46 264.43 43.63 264.21 43.71 Z" />
<path fill="#1c5b7e" opacity="1.00" d=" M 376.63 234.51 C 377.74 234.06 379.44 233.45 380.23 234.77 C 382.21 238.32 383.27 242.30 384.93 246.01 C 384.68 246.49 384.19 247.46 383.94 247.95 C 378.95 249.93 374.02 252.08 368.94 253.83 C 366.94 253.81 366.34 251.58 365.72 250.09 C 364.62 246.80 362.51 243.68 362.85 240.08 C 367.40 238.11 372.04 236.38 376.63 234.51 Z" />
<path fill="#1c5b7e" opacity="1.00" d=" M 5.66 399.58 C 8.27 401.77 10.46 404.42 13.05 406.64 C 11.44 408.53 9.74 410.35 8.01 412.13 C 8.93 412.78 9.85 413.44 10.77 414.11 C 12.42 412.12 14.15 410.19 16.28 408.71 C 14.78 411.22 12.25 413.10 11.43 416.00 L 11.31 416.00 C 8.88 413.73 6.45 411.39 4.70 408.54 C 5.71 409.40 6.70 410.28 7.67 411.18 C 9.50 410.13 8.39 408.43 7.89 406.94 C 8.43 407.45 9.51 408.49 10.06 409.01 C 12.76 406.99 10.19 404.97 8.91 403.08 C 6.98 404.95 4.98 406.77 2.68 408.19 C 4.13 406.23 5.90 404.54 7.68 402.89 C 6.99 401.79 6.31 400.69 5.66 399.58 Z" />
</g>
<g id="#729ec1ff">
<path fill="#729ec1" opacity="1.00" d=" M 19.02 0.00 L 19.40 0.00 L 19.51 0.30 C 19.38 0.23 19.14 0.08 19.02 0.00 Z" />
</g>
<g id="#c17d19ff">
<path fill="#c17d19" opacity="1.00" d=" M 166.73 0.00 L 167.61 0.00 C 172.79 1.51 177.91 3.24 183.10 4.74 C 182.62 5.97 182.10 7.19 181.60 8.42 C 181.03 7.05 180.22 5.74 178.68 5.39 C 175.45 4.16 172.06 3.40 168.73 2.53 C 166.52 12.67 164.38 22.82 162.17 32.96 C 160.31 43.27 157.41 53.38 155.88 63.75 C 156.89 63.41 157.90 63.06 158.91 62.71 C 156.87 67.45 154.90 72.21 152.95 76.98 C 152.27 78.25 152.01 80.42 150.06 79.90 C 150.10 76.85 151.00 73.91 151.62 70.94 C 156.67 47.29 161.69 23.64 166.73 0.00 Z" />
<path fill="#c17d19" opacity="1.00" d=" M 348.73 16.67 C 351.06 17.27 354.81 21.11 355.79 16.96 C 355.89 17.86 355.86 18.76 355.70 19.64 C 353.12 20.67 350.43 18.48 348.73 16.67 Z" />
<path fill="#c17d19" opacity="1.00" d=" M 347.55 18.90 C 349.00 21.11 351.64 22.82 354.34 21.82 C 354.13 22.33 353.71 23.35 353.50 23.86 C 351.05 23.02 348.75 20.52 346.03 21.89 C 346.54 20.90 347.05 19.90 347.55 18.90 Z" />
<path fill="#c17d19" opacity="1.00" d=" M 345.56 23.49 C 347.52 22.07 350.12 23.98 351.62 25.36 C 353.00 27.20 351.26 29.66 349.11 28.63 C 347.18 27.98 343.58 25.82 345.56 23.49 M 345.81 23.81 C 345.61 26.68 348.66 27.73 350.95 28.18 C 351.88 25.04 348.28 23.72 345.81 23.81 Z" />
</g>
<g id="#dddbd8ff">
<path fill="#dddbd8" opacity="1.00" d=" M 167.61 0.00 L 183.18 0.00 C 183.22 1.58 183.21 3.16 183.10 4.74 C 177.91 3.24 172.79 1.51 167.61 0.00 Z" />
<path fill="#dddbd8" opacity="1.00" d=" M 160.04 275.05 C 162.40 273.98 163.63 277.29 161.85 278.67 C 160.92 279.57 159.76 281.43 158.28 280.85 C 155.68 279.22 158.11 276.05 160.04 275.05 Z" />
</g>
<g id="#b9b9b9ff">
<path fill="#b9b9b9" opacity="1.00" d=" M 350.61 0.00 L 354.30 0.00 C 356.09 1.44 357.97 2.77 359.96 3.93 L 360.41 4.21 C 360.93 4.52 361.99 5.16 362.52 5.48 L 363.39 5.92 C 364.58 7.23 365.60 8.70 366.57 10.19 C 363.17 9.86 359.81 9.31 356.42 8.95 C 360.24 11.68 365.00 12.28 369.46 13.27 C 368.05 15.92 366.47 18.48 364.99 21.09 C 363.04 20.12 361.10 19.15 359.19 18.13 C 355.64 16.18 351.97 14.50 348.39 12.63 C 346.21 11.46 344.00 10.32 341.79 9.22 C 343.39 6.64 344.90 4.00 346.41 1.35 C 347.80 0.89 349.20 0.42 350.61 0.00 Z" />
<path fill="#b9b9b9" opacity="1.00" d=" M 326.06 38.54 C 326.81 36.27 327.67 34.03 328.57 31.81 C 336.18 35.57 343.90 39.11 351.46 42.99 C 347.76 46.37 342.77 44.37 338.41 43.97 C 341.70 46.78 345.91 47.99 349.67 49.99 C 351.08 50.81 352.45 51.72 353.80 52.67 C 352.74 53.97 352.04 55.96 350.13 56.23 C 345.15 57.49 340.43 54.48 335.48 54.39 C 333.65 53.17 331.90 51.83 330.19 50.45 C 333.06 50.08 336.81 48.45 336.07 44.87 C 336.31 42.11 333.19 41.71 331.33 40.73 C 329.57 40.00 327.81 39.28 326.06 38.54 Z" />
<path fill="#b9b9b9" opacity="1.00" d=" M 351.49 133.05 L 351.70 133.33 C 353.85 136.38 356.43 139.09 359.34 141.41 C 358.39 139.30 357.22 137.28 356.47 135.09 C 356.58 133.51 358.39 132.02 359.90 132.97 C 362.84 134.77 364.81 137.71 367.31 140.04 C 366.31 142.08 365.27 144.10 364.10 146.05 C 364.35 147.25 365.11 148.42 364.86 149.67 C 362.12 152.58 359.05 155.16 356.05 157.80 C 352.82 155.38 351.09 150.55 346.76 149.94 C 347.30 146.40 343.29 144.42 341.42 141.92 C 344.72 138.89 348.22 136.10 351.49 133.05 Z" />
<path fill="#b9b9b9" opacity="1.00" d=" M 323.89 164.67 C 327.97 168.53 331.56 172.86 335.41 176.95 C 332.75 179.31 330.09 181.67 327.38 183.97 C 326.16 182.78 324.91 181.63 323.76 180.38 C 322.41 175.22 321.79 169.73 323.89 164.67 Z" />
<path fill="#b9b9b9" opacity="1.00" d=" M 142.43 251.40 C 146.06 253.57 149.66 255.80 153.27 258.00 C 152.00 260.04 150.69 262.06 149.35 264.06 C 146.74 267.94 144.23 271.89 141.64 275.79 C 140.10 278.13 138.53 280.45 136.92 282.75 C 133.37 280.33 129.44 278.47 126.09 275.80 C 125.27 273.75 124.86 271.56 124.26 269.45 C 129.03 266.30 131.57 261.11 134.35 256.34 C 135.14 254.46 137.29 254.34 138.99 253.89 C 138.43 260.10 135.59 265.66 132.91 271.17 C 138.75 266.32 140.92 258.54 142.43 251.40 Z" />
<path fill="#b9b9b9" opacity="1.00" d=" M 192.76 280.47 C 194.08 279.19 195.41 277.92 196.68 276.60 C 199.20 277.91 202.03 279.70 201.95 282.94 C 202.97 288.16 199.16 292.62 199.27 297.69 C 197.65 299.73 195.75 301.52 193.69 303.11 C 193.00 300.02 191.57 296.55 188.13 295.76 C 186.83 295.40 185.52 295.10 184.22 294.80 C 186.89 289.91 190.58 285.60 192.76 280.47 Z" />
<path fill="#b9b9b9" opacity="1.00" d=" M 183.26 277.49 C 184.45 279.20 186.45 280.67 186.35 282.97 C 186.24 287.45 184.23 291.59 182.78 295.76 C 182.16 297.19 181.45 298.58 180.70 299.95 C 179.55 301.97 178.26 303.90 176.97 305.84 C 174.02 304.64 171.11 303.35 168.22 302.00 C 173.01 293.70 178.27 285.68 183.26 277.49 Z" />
<path fill="#b9b9b9" opacity="1.00" d=" M 267.19 352.41 C 267.90 350.99 268.74 348.76 270.77 349.37 C 275.02 350.42 279.53 350.96 283.56 352.64 C 282.98 357.11 280.91 361.35 281.24 365.94 L 280.52 366.30 C 279.28 370.01 278.76 373.93 277.51 377.65 C 273.68 376.33 269.63 375.74 265.82 374.35 C 264.67 374.02 263.19 373.28 263.42 371.83 C 263.87 367.02 265.85 362.47 266.09 357.62 C 264.45 360.59 263.43 363.88 261.56 366.71 C 260.21 367.73 258.33 366.95 256.79 367.15 C 256.55 362.31 257.70 357.60 259.05 353.00 C 261.76 352.87 264.48 352.65 267.19 352.41 Z" />
<path fill="#b9b9b9" opacity="1.00" d=" M 315.88 359.94 C 322.15 361.09 328.32 363.44 334.79 362.41 C 334.54 364.65 334.02 366.85 333.25 368.97 C 331.70 367.33 329.02 367.24 327.15 368.32 C 324.84 370.61 323.10 373.49 320.39 375.37 C 317.80 377.33 314.65 378.25 311.61 379.20 C 312.78 372.72 314.51 366.37 315.88 359.94 M 329.22 364.00 C 329.84 365.32 332.47 365.22 333.72 364.64 C 333.27 363.10 330.43 363.37 329.22 364.00 M 328.26 366.15 C 328.77 367.57 331.55 367.24 332.78 366.68 C 332.23 365.24 329.46 365.50 328.26 366.15 Z" />
</g>
<g id="#f2ba6fff">
<path fill="#f2ba6f" opacity="1.00" d=" M 354.30 0.00 L 356.99 0.00 C 357.11 0.07 357.34 0.21 357.46 0.28 L 357.35 0.00 L 360.54 0.00 C 359.88 1.24 359.68 2.55 359.96 3.93 C 357.97 2.77 356.09 1.44 354.30 0.00 Z" />
</g>
<g id="#c16155ff">
<path fill="#c16155" opacity="1.00" d=" M 356.99 0.00 L 357.35 0.00 L 357.46 0.28 C 357.34 0.21 357.11 0.07 356.99 0.00 Z" />
</g>
<g id="#cb694bff">
<path fill="#cb694b" opacity="1.00" d=" M 360.54 0.00 L 361.73 0.00 C 361.49 1.20 361.20 2.38 360.86 3.55 L 360.41 4.21 L 359.96 3.93 C 359.68 2.55 359.88 1.24 360.54 0.00 Z" />
</g>
<g id="#f9cb78ff">
<path fill="#f9cb78" opacity="1.00" d=" M 361.73 0.00 L 365.00 0.00 C 364.55 1.02 364.13 2.04 363.74 3.08 C 363.02 3.20 361.58 3.43 360.86 3.55 C 361.20 2.38 361.49 1.20 361.73 0.00 Z" />
</g>
<g id="#cb6948ff">
<path fill="#cb6948" opacity="1.00" d=" M 365.00 0.00 L 366.27 0.00 C 365.50 1.95 364.87 3.96 364.10 5.91 L 363.39 5.92 L 362.52 5.48 C 362.82 4.88 363.43 3.68 363.74 3.08 C 364.13 2.04 364.55 1.02 365.00 0.00 Z" />
</g>
<g id="#f9b443ff">
<path fill="#f9b443" opacity="1.00" d=" M 366.27 0.00 L 368.38 0.00 C 367.63 1.92 367.05 3.89 366.35 5.83 C 365.79 5.85 364.67 5.89 364.10 5.91 C 364.87 3.96 365.50 1.95 366.27 0.00 Z" />
</g>
<g id="#4794aeff">
<path fill="#4794ae" opacity="1.00" d=" M 17.59 7.49 C 18.71 4.92 20.11 2.30 22.48 0.67 C 22.34 1.29 22.06 2.52 21.91 3.13 C 23.04 2.68 24.18 2.26 25.32 1.85 C 23.39 4.45 20.49 6.15 17.59 7.49 Z" />
</g>
<g id="#d69a2aff">
<path fill="#d69a2a" opacity="1.00" d=" M 162.17 32.96 C 164.38 22.82 166.52 12.67 168.73 2.53 C 172.06 3.40 175.45 4.16 178.68 5.39 C 180.22 5.74 181.03 7.05 181.60 8.42 C 179.03 14.57 176.42 20.71 173.92 26.89 C 172.38 27.74 170.75 28.41 169.04 28.87 C 167.84 31.72 166.38 34.63 166.47 37.81 C 166.57 40.01 166.05 42.15 165.25 44.18 C 165.38 44.71 165.65 45.75 165.79 46.27 C 163.49 51.75 161.25 57.25 158.91 62.71 C 157.90 63.06 156.89 63.41 155.88 63.75 C 157.41 53.38 160.31 43.27 162.17 32.96 Z" />
</g>
<g id="#f9b33cff">
<path fill="#f9b33c" opacity="1.00" d=" M 360.86 3.55 C 361.58 3.43 363.02 3.20 363.74 3.08 C 363.43 3.68 362.82 4.88 362.52 5.48 C 361.99 5.16 360.93 4.52 360.41 4.21 L 360.86 3.55 Z" />
</g>
<g id="#a582a8ff">
<path fill="#a582a8" opacity="1.00" d=" M 10.91 3.98 C 15.12 7.66 18.64 12.04 22.77 15.80 C 26.06 12.56 29.41 9.38 32.91 6.36 C 34.91 8.90 38.24 10.80 39.07 14.03 C 38.29 16.85 35.22 18.38 33.34 20.51 C 31.59 20.34 29.82 20.27 28.11 19.89 C 25.89 18.51 24.04 16.55 21.52 15.69 C 17.99 12.21 14.65 8.55 11.13 5.06 L 10.91 3.98 Z" />
<path fill="#a582a8" opacity="1.00" d=" M 318.22 284.58 C 320.14 283.50 322.78 284.28 323.53 286.44 C 324.71 288.72 322.26 290.76 320.97 292.40 C 321.35 291.28 321.72 290.16 322.08 289.03 C 321.65 288.77 320.79 288.25 320.36 287.99 C 318.67 290.55 316.62 292.83 314.76 295.25 C 315.04 296.23 315.50 297.14 316.14 297.99 C 315.59 298.34 314.48 299.03 313.93 299.38 C 311.95 295.65 310.33 291.74 309.29 287.66 C 312.21 286.48 315.34 285.89 318.22 284.58 Z" />
</g>
<g id="#a7a8a9ff">
<path fill="#a7a8a9" opacity="1.00" d=" M 363.39 5.92 L 364.10 5.91 C 364.67 5.89 365.79 5.85 366.35 5.83 C 367.68 8.18 368.85 10.63 369.46 13.27 C 365.00 12.28 360.24 11.68 356.42 8.95 C 359.81 9.31 363.17 9.86 366.57 10.19 C 365.60 8.70 364.58 7.23 363.39 5.92 Z" />
</g>
<g id="#fcd2f4ff">
<path fill="#fcd2f4" opacity="1.00" d=" M 21.15 9.27 C 21.86 7.89 22.57 7.80 23.30 8.99 C 22.55 10.37 21.83 10.46 21.15 9.27 Z" />
</g>
<g id="#f8c778ff">
<path fill="#f8c778" opacity="1.00" d=" M 328.57 31.81 C 332.15 23.83 337.19 16.63 341.79 9.22 C 344.00 10.32 346.21 11.46 348.39 12.63 C 346.74 16.51 344.58 20.21 343.39 24.28 C 343.76 27.71 345.92 30.67 347.40 33.73 C 349.59 32.18 351.98 30.85 353.91 28.96 C 356.24 25.67 357.49 21.76 359.19 18.13 C 361.10 19.15 363.04 20.12 364.99 21.09 C 360.71 28.48 356.61 35.98 352.37 43.40 L 351.46 42.99 C 343.90 39.11 336.18 35.57 328.57 31.81 Z" />
</g>
<g id="#e7d3d5ff">
<path fill="#e7d3d5" opacity="1.00" d=" M 348.39 12.63 C 351.97 14.50 355.64 16.18 359.19 18.13 C 357.49 21.76 356.24 25.67 353.91 28.96 C 351.98 30.85 349.59 32.18 347.40 33.73 C 345.92 30.67 343.76 27.71 343.39 24.28 C 344.58 20.21 346.74 16.51 348.39 12.63 M 348.73 16.67 C 350.43 18.48 353.12 20.67 355.70 19.64 C 355.86 18.76 355.89 17.86 355.79 16.96 C 354.81 21.11 351.06 17.27 348.73 16.67 M 347.55 18.90 C 347.05 19.90 346.54 20.90 346.03 21.89 C 348.75 20.52 351.05 23.02 353.50 23.86 C 353.71 23.35 354.13 22.33 354.34 21.82 C 351.64 22.82 349.00 21.11 347.55 18.90 M 345.56 23.49 C 343.58 25.82 347.18 27.98 349.11 28.63 C 351.26 29.66 353.00 27.20 351.62 25.36 C 350.12 23.98 347.52 22.07 345.56 23.49 Z" />
<path fill="#e7d3d5" opacity="1.00" d=" M 345.81 23.81 C 348.28 23.72 351.88 25.04 350.95 28.18 C 348.66 27.73 345.61 26.68 345.81 23.81 Z" />
</g>
<g id="#927598ff">
<path fill="#927598" opacity="1.00" d=" M 21.52 15.69 C 24.04 16.55 25.89 18.51 28.11 19.89 C 29.82 20.27 31.59 20.34 33.34 20.51 C 31.82 21.56 30.33 23.99 28.22 22.92 C 25.54 20.97 23.57 18.24 21.52 15.69 Z" />
</g>
<g id="#5da0a5ff">
<path fill="#5da0a5" opacity="1.00" d=" M 242.16 26.93 C 239.49 24.71 244.23 24.35 244.92 26.45 C 244.04 26.90 243.12 27.06 242.16 26.93 Z" />
</g>
<g id="#62b0bcff">
<path fill="#62b0bc" opacity="1.00" d=" M 244.92 26.45 C 247.01 27.05 249.08 27.74 251.14 28.48 L 250.80 28.81 C 250.66 28.94 250.38 29.19 250.24 29.32 C 251.78 29.52 253.34 29.66 254.87 30.02 C 257.31 31.45 258.56 34.12 260.34 36.22 C 260.57 36.30 261.04 36.46 261.27 36.54 L 261.63 36.66 C 261.90 37.09 262.45 37.96 262.72 38.39 L 262.53 39.01 C 261.72 40.78 262.93 42.55 264.21 43.71 C 264.43 43.63 264.86 43.46 265.08 43.38 L 265.60 43.18 C 265.90 43.88 266.19 44.59 266.49 45.30 C 265.77 46.81 266.65 48.29 267.26 49.65 C 269.17 53.47 271.20 57.23 273.03 61.10 C 272.56 61.42 271.62 62.05 271.16 62.37 C 263.71 56.71 256.42 50.85 249.35 44.73 C 247.43 42.89 245.20 41.22 243.87 38.89 C 244.25 34.78 243.10 30.87 242.16 26.93 C 243.12 27.06 244.04 26.90 244.92 26.45 M 245.79 31.12 L 245.77 32.34 C 242.68 33.31 247.15 37.88 248.58 35.33 C 250.63 34.37 249.67 32.52 248.99 31.01 C 248.19 31.04 246.59 31.09 245.79 31.12 Z" />
<path fill="#62b0bc" opacity="1.00" d=" M 91.86 62.91 C 95.11 59.99 99.49 62.35 103.10 63.14 C 100.84 76.40 99.43 89.83 97.21 103.09 C 94.10 103.01 91.08 102.07 88.05 101.46 L 88.56 101.24 L 89.29 100.93 C 87.54 99.35 85.17 98.09 84.48 95.67 C 82.57 89.47 84.96 83.14 86.32 77.10 C 87.74 72.25 88.85 67.07 91.86 62.91 Z" />
<path fill="#62b0bc" opacity="1.00" d=" M 167.06 119.13 C 169.85 117.22 173.92 116.01 176.98 118.04 C 179.32 119.30 180.25 122.08 180.18 124.61 C 178.45 127.90 175.94 130.71 172.82 132.74 C 169.00 132.60 165.15 132.42 161.47 131.29 C 160.80 129.08 160.17 125.93 162.46 124.44 C 164.39 123.03 165.59 120.96 167.06 119.13 Z" />
<path fill="#62b0bc" opacity="1.00" d=" M 386.39 256.50 C 387.79 255.76 389.29 256.81 389.70 258.20 C 391.06 261.46 392.46 264.72 393.52 268.10 L 392.80 269.50 C 392.76 269.57 392.68 269.72 392.64 269.79 L 391.96 270.97 L 391.08 270.56 C 390.01 269.89 388.69 270.20 387.65 270.73 C 387.53 271.02 387.30 271.61 387.18 271.90 L 386.95 272.51 L 386.45 272.57 C 382.90 272.85 379.76 274.64 376.57 276.05 C 374.86 274.32 374.42 271.79 373.45 269.64 C 372.65 267.23 371.01 264.77 371.90 262.15 C 376.77 260.37 381.50 258.23 386.39 256.50 Z" />
</g>
<g id="#d69b2bff">
<path fill="#d69b2b" opacity="1.00" d=" M 169.04 28.87 C 170.75 28.41 172.38 27.74 173.92 26.89 C 171.18 33.34 168.51 39.81 165.79 46.27 C 165.65 45.75 165.38 44.71 165.25 44.18 C 166.05 42.15 166.57 40.01 166.47 37.81 C 166.38 34.63 167.84 31.72 169.04 28.87 Z" />
</g>
<g id="#ebf5f8ff">
<path fill="#ebf5f8" opacity="1.00" d=" M 245.79 31.12 C 246.59 31.09 248.19 31.04 248.99 31.01 C 249.67 32.52 250.63 34.37 248.58 35.33 C 247.32 34.69 246.28 33.67 245.77 32.34 L 245.79 31.12 Z" />
</g>
<g id="#4f989bff">
<path fill="#4f989b" opacity="1.00" d=" M 248.58 35.33 C 247.15 37.88 242.68 33.31 245.77 32.34 C 246.28 33.67 247.32 34.69 248.58 35.33 Z" />
</g>
<g id="#a1a1a1ff">
<path fill="#a1a1a1" opacity="1.00" d=" M 326.06 38.54 C 327.81 39.28 329.57 40.00 331.33 40.73 C 328.97 42.23 326.83 44.12 326.26 46.99 C 324.89 44.32 325.05 41.30 326.06 38.54 Z" />
</g>
<g id="#807c7dff">
<path fill="#807c7d" opacity="1.00" d=" M 331.33 40.73 C 333.19 41.71 336.31 42.11 336.07 44.87 C 336.81 48.45 333.06 50.08 330.19 50.45 C 328.85 49.33 327.52 48.20 326.26 46.99 C 326.83 44.12 328.97 42.23 331.33 40.73 Z" />
<path fill="#807c7d" opacity="1.00" d=" M 182.78 295.76 C 184.56 295.73 186.34 295.70 188.13 295.76 C 191.57 296.55 193.00 300.02 193.69 303.11 C 192.45 304.29 191.23 305.49 190.05 306.73 C 188.28 306.29 186.45 306.02 184.77 305.30 C 182.71 304.19 181.88 301.83 180.70 299.95 C 181.45 298.58 182.16 297.19 182.78 295.76 Z" />
</g>
<g id="#a3a4a4ff">
<path fill="#a3a4a4" opacity="1.00" d=" M 338.41 43.97 C 342.77 44.37 347.76 46.37 351.46 42.99 L 352.37 43.40 C 351.24 45.50 350.44 47.74 349.67 49.99 C 345.91 47.99 341.70 46.78 338.41 43.97 Z" />
</g>
<g id="#63b1bdff">
<path fill="#63b1bd" opacity="1.00" d=" M 94.96 46.86 C 96.75 45.23 99.85 46.45 100.26 48.79 C 101.52 52.77 102.46 56.87 103.06 61.01 C 99.27 60.29 95.47 59.66 91.74 58.67 C 91.32 57.28 90.89 55.89 90.46 54.51 L 90.40 54.32 C 91.81 51.78 93.03 49.07 94.96 46.86 Z" />
</g>
<g id="#559c9dff">
<path fill="#559c9d" opacity="1.00" d=" M 267.26 49.65 C 266.65 48.29 265.77 46.81 266.49 45.30 C 269.28 50.15 271.79 55.16 274.21 60.21 C 273.91 60.43 273.32 60.88 273.03 61.10 C 271.20 57.23 269.17 53.47 267.26 49.65 Z" />
</g>
<g id="#a2a2a2ff">
<path fill="#a2a2a2" opacity="1.00" d=" M 353.80 52.67 C 357.12 55.36 354.41 62.36 349.99 61.09 C 344.77 59.85 339.99 57.21 335.48 54.39 C 340.43 54.48 345.15 57.49 350.13 56.23 C 352.04 55.96 352.74 53.97 353.80 52.67 Z" />
<path fill="#a2a2a2" opacity="1.00" d=" M 176.97 305.84 C 178.26 303.90 179.55 301.97 180.70 299.95 C 181.88 301.83 182.71 304.19 184.77 305.30 C 186.45 306.02 188.28 306.29 190.05 306.73 C 185.78 308.85 181.12 307.57 176.97 305.84 Z" />
</g>
<g id="#579a9cff">
<path fill="#579a9c" opacity="1.00" d=" M 90.46 54.51 C 90.89 55.89 91.32 57.28 91.74 58.67 C 95.47 59.66 99.27 60.29 103.06 61.01 C 103.07 61.54 103.09 62.60 103.10 63.14 C 99.49 62.35 95.11 59.99 91.86 62.91 C 88.85 67.07 87.74 72.25 86.32 77.10 C 84.96 83.14 82.57 89.47 84.48 95.67 C 85.17 98.09 87.54 99.35 89.29 100.93 L 88.56 101.24 C 84.63 100.88 80.84 99.71 76.99 98.90 C 80.85 85.97 84.37 72.95 88.06 59.97 C 88.58 58.04 89.51 56.26 90.46 54.51 Z" />
</g>
<g id="#babab9ff">
<path fill="#babab9" opacity="1.00" d=" M 274.21 60.21 C 274.59 59.92 275.37 59.33 275.76 59.04 C 276.75 61.38 280.05 64.01 278.71 66.52 C 278.19 66.88 277.16 67.60 276.65 67.95 C 275.90 68.40 275.14 68.82 274.37 69.22 C 272.66 67.39 270.83 65.59 269.76 63.29 C 270.11 63.06 270.81 62.60 271.16 62.37 C 271.62 62.05 272.56 61.42 273.03 61.10 C 273.32 60.88 273.91 60.43 274.21 60.21 Z" />
</g>
<g id="#cb772cff">
<path fill="#cb772c" opacity="1.00" d=" M 382.04 63.69 C 383.42 62.77 384.82 61.87 386.22 60.98 C 385.35 63.24 384.53 65.52 383.84 67.84 C 386.39 68.37 388.96 68.82 391.52 69.32 C 391.03 69.51 390.07 69.90 389.58 70.09 C 388.22 70.35 386.86 70.60 385.50 70.85 C 382.88 69.33 382.12 66.52 382.04 63.69 Z" />
</g>
<g id="#d58134ff">
<path fill="#d58134" opacity="1.00" d=" M 379.67 82.30 C 376.88 76.52 375.73 67.65 382.04 63.69 C 382.12 66.52 382.88 69.33 385.50 70.85 C 388.62 71.98 391.76 73.13 394.48 75.11 C 394.22 72.41 391.62 71.29 389.58 70.09 C 390.07 69.90 391.03 69.51 391.52 69.32 C 397.83 70.28 401.51 76.31 402.40 82.19 C 401.29 86.18 397.53 88.63 394.98 91.70 C 388.92 89.97 383.21 86.60 379.81 81.15 L 379.67 82.30 Z" />
<path fill="#d58134" opacity="1.00" d=" M 18.33 115.92 C 17.59 118.28 14.79 115.30 17.16 114.65 C 17.45 114.97 18.04 115.60 18.33 115.92 Z" />
</g>
<g id="#919191ff">
<path fill="#919191" opacity="1.00" d=" M 276.65 67.95 C 277.16 67.60 278.19 66.88 278.71 66.52 C 282.54 71.17 286.45 75.76 290.41 80.30 C 291.03 81.20 291.65 82.10 292.26 83.01 C 291.27 83.46 290.31 83.95 289.36 84.45 C 289.16 84.01 288.75 83.12 288.54 82.67 C 285.65 77.01 280.30 73.10 276.65 67.95 Z" />
<path fill="#919191" opacity="1.00" d=" M 256.78 353.26 C 257.34 353.20 258.48 353.06 259.05 353.00 C 257.70 357.60 256.55 362.31 256.79 367.15 C 258.33 366.95 260.21 367.73 261.56 366.71 C 263.43 363.88 264.45 360.59 266.09 357.62 C 265.85 362.47 263.87 367.02 263.42 371.83 C 263.19 373.28 264.67 374.02 265.82 374.35 C 269.63 375.74 273.68 376.33 277.51 377.65 C 277.73 377.97 278.18 378.62 278.41 378.94 C 273.79 378.56 269.33 377.21 264.86 376.12 C 262.99 376.02 262.92 374.02 262.20 372.75 C 259.48 370.67 256.35 369.20 253.64 367.11 C 254.23 364.45 254.80 361.78 255.42 359.13 C 255.55 358.59 255.81 357.51 255.94 356.97 L 256.20 355.90 L 256.45 354.77 C 256.53 354.39 256.69 353.64 256.78 353.26 Z" />
</g>
<g id="#e6d3d5ff">
<path fill="#e6d3d5" opacity="1.00" d=" M 385.50 70.85 C 386.86 70.60 388.22 70.35 389.58 70.09 C 391.62 71.29 394.22 72.41 394.48 75.11 C 391.76 73.13 388.62 71.98 385.50 70.85 Z" />
<path fill="#e6d3d5" opacity="1.00" d=" M 141.64 275.79 C 144.23 271.89 146.74 267.94 149.35 264.06 C 154.04 266.69 158.99 268.85 163.61 271.61 C 166.57 274.12 168.33 277.73 170.65 280.80 C 166.46 281.84 162.29 282.93 158.12 284.05 C 152.66 281.24 147.11 278.60 141.64 275.79 M 147.97 268.37 C 149.02 268.88 150.04 269.46 151.02 270.10 C 149.82 272.32 147.89 274.09 147.07 276.52 C 149.51 274.76 151.53 272.23 152.22 269.26 C 151.62 268.93 150.41 268.26 149.80 267.93 C 149.34 268.04 148.43 268.26 147.97 268.37 M 153.92 270.54 C 156.26 272.64 153.58 274.97 152.69 277.05 C 151.91 277.01 150.36 276.94 149.58 276.90 C 151.25 278.32 153.21 279.33 155.23 280.16 C 154.78 279.56 153.86 278.36 153.41 277.76 C 154.75 275.78 155.44 272.32 158.55 272.91 C 157.16 271.83 155.61 270.99 153.92 270.54 M 156.08 280.02 C 156.81 280.90 157.63 282.37 159.02 282.00 C 162.26 281.04 165.24 277.17 162.99 273.96 C 159.39 273.10 155.57 276.33 156.08 280.02 Z" />
</g>
<g id="#c3c5c4ff">
<path fill="#c3c5c4" opacity="1.00" d=" M 290.41 80.30 C 294.75 80.79 298.99 82.23 302.95 84.03 C 304.08 87.71 304.71 91.52 305.23 95.33 C 305.03 95.46 304.62 95.73 304.42 95.87 C 302.57 90.30 299.62 81.94 292.26 83.01 C 291.65 82.10 291.03 81.20 290.41 80.30 Z" />
</g>
<g id="#8e3f14ff">
<path fill="#8e3f14" opacity="1.00" d=" M 379.81 81.15 C 383.21 86.60 388.92 89.97 394.98 91.70 L 394.60 92.01 C 388.54 91.39 382.74 87.54 379.67 82.30 L 379.81 81.15 Z" />
<path fill="#8e3f14" opacity="1.00" d=" M 412.45 92.43 C 413.47 92.53 414.49 92.65 415.52 92.78 L 416.00 93.28 L 416.00 97.18 C 415.03 96.34 414.03 95.53 413.04 94.73 C 410.89 97.55 414.36 99.41 416.00 101.26 L 416.00 109.38 C 412.37 106.47 408.57 103.79 404.86 100.98 C 407.31 98.06 409.88 95.25 412.45 92.43 Z" />
<path fill="#8e3f14" opacity="1.00" d=" M 224.08 130.11 C 226.31 127.79 227.54 124.76 229.30 122.11 C 227.40 128.99 221.37 133.09 216.92 138.20 C 218.62 134.95 221.61 132.73 224.08 130.11 Z" />
<path fill="#8e3f14" opacity="1.00" d=" M 240.38 150.35 C 241.29 150.71 240.21 152.88 240.28 153.94 C 239.80 158.36 237.27 162.22 234.03 165.15 C 223.22 176.68 210.08 186.53 194.91 191.42 C 183.44 194.38 171.24 195.92 159.56 193.25 C 153.00 191.77 146.79 188.67 141.77 184.19 C 145.44 186.26 148.76 188.97 152.70 190.55 C 161.33 194.13 170.90 194.32 180.08 193.51 C 186.41 192.54 192.88 191.82 198.85 189.36 C 213.71 183.54 226.40 173.24 236.80 161.30 C 239.24 158.17 240.01 154.20 240.38 150.35 Z" />
<path fill="#8e3f14" opacity="1.00" d=" M 0.75 284.74 C 7.04 283.74 12.70 280.51 18.57 278.19 C 15.84 281.01 11.72 281.55 8.30 283.21 C 5.87 283.99 3.37 285.96 0.75 284.74 Z" />
</g>
<g id="#dcdbd9ff">
<path fill="#dcdbd9" opacity="1.00" d=" M 402.40 82.19 C 404.93 85.66 409.38 86.78 412.48 89.62 C 408.86 93.54 405.26 97.48 401.66 101.42 C 399.05 98.48 396.94 95.16 394.60 92.01 L 394.98 91.70 C 397.53 88.63 401.29 86.18 402.40 82.19 Z" />
</g>
<g id="#dbdad8ff">
<path fill="#dbdad8" opacity="1.00" d=" M 288.54 82.67 C 288.75 83.12 289.16 84.01 289.36 84.45 C 290.31 83.95 291.27 83.46 292.26 83.01 C 299.62 81.94 302.57 90.30 304.42 95.87 C 304.62 95.73 305.03 95.46 305.23 95.33 L 305.64 95.05 C 306.06 97.40 306.44 99.76 306.78 102.12 C 300.94 100.40 295.52 97.48 289.96 95.01 C 289.43 90.91 288.20 86.84 288.54 82.67 Z" />
<path fill="#dbdad8" opacity="1.00" d=" M 178.43 406.64 C 178.75 406.75 179.40 406.95 179.72 407.06 C 180.29 407.21 181.42 407.53 181.99 407.69 C 182.39 407.81 183.20 408.04 183.60 408.16 C 183.45 409.75 183.27 411.35 183.07 412.95 C 183.20 413.16 183.46 413.58 183.59 413.78 C 183.75 414.34 184.06 415.45 184.22 416.00 L 172.04 416.00 C 171.39 415.38 170.78 414.72 170.21 414.03 C 171.58 410.37 175.16 408.36 178.43 406.64 Z" />
</g>
<g id="#5a2806ff">
<path fill="#5a2806" opacity="1.00" d=" M 412.48 89.62 C 413.54 90.63 414.50 91.72 415.52 92.78 C 414.49 92.65 413.47 92.53 412.45 92.43 C 409.88 95.25 407.31 98.06 404.86 100.98 C 408.57 103.79 412.37 106.47 416.00 109.38 L 416.00 112.53 C 411.32 108.70 406.31 105.29 401.66 101.42 C 405.26 97.48 408.86 93.54 412.48 89.62 Z" />
<path fill="#5a2806" opacity="1.00" d=" M 0.00 93.27 C 10.15 104.81 20.59 116.10 30.79 127.60 C 28.70 127.94 27.64 125.84 26.38 124.59 C 23.88 121.53 21.12 118.70 18.33 115.92 C 18.04 115.60 17.45 114.97 17.16 114.65 C 15.30 112.20 13.23 109.91 10.81 107.98 C 7.16 104.39 3.63 100.67 0.00 97.05 L 0.00 93.27 Z" />
<path fill="#5a2806" opacity="1.00" d=" M 0.00 109.63 C 8.43 115.60 16.44 122.14 24.74 128.30 C 28.54 131.03 31.94 134.38 36.25 136.33 C 34.64 133.77 32.85 131.31 31.60 128.55 C 36.71 134.04 41.65 139.69 46.73 145.22 C 47.56 146.03 48.05 147.02 48.20 148.19 C 46.78 148.09 45.61 147.31 44.52 146.48 C 29.73 135.07 14.81 123.83 0.00 112.44 L 0.00 109.63 Z" />
<path fill="#5a2806" opacity="1.00" d=" M 143.41 180.00 C 142.38 178.58 141.51 177.01 141.26 175.25 C 142.70 179.28 146.98 181.75 151.17 180.38 C 150.66 180.71 149.66 181.35 149.16 181.67 C 147.21 181.22 145.27 180.73 143.41 180.00 Z" />
<path fill="#5a2806" opacity="1.00" d=" M 259.74 200.09 C 259.45 198.49 260.16 195.32 261.96 195.05 C 261.86 196.87 261.91 199.48 259.74 200.09 Z" />
<path fill="#5a2806" opacity="1.00" d=" M 53.79 224.92 C 59.21 220.00 64.67 215.13 70.23 210.38 C 67.56 213.57 64.39 216.29 61.22 218.96 C 58.79 221.00 56.64 223.43 53.79 224.92 Z" />
<path fill="#5a2806" opacity="1.00" d=" M 44.09 233.31 C 47.24 231.01 49.78 228.00 52.88 225.65 C 50.47 228.69 47.50 231.22 44.62 233.79 L 44.09 233.31 Z" />
<path fill="#5a2806" opacity="1.00" d=" M 13.83 306.09 C 18.43 304.30 23.08 302.62 27.45 300.29 C 24.69 303.07 20.63 303.71 17.19 305.31 C 14.57 306.18 11.84 308.28 9.05 306.77 C 10.66 306.74 12.32 306.76 13.83 306.09 Z" />
</g>
<g id="#cb5d21ff">
<path fill="#cb5d21" opacity="1.00" d=" M 413.04 94.73 C 414.03 95.53 415.03 96.34 416.00 97.18 L 416.00 101.26 C 414.36 99.41 410.89 97.55 413.04 94.73 Z" />
</g>
<g id="#ce5e20ff">
<path fill="#ce5e20" opacity="1.00" d=" M 0.00 97.05 C 3.63 100.67 7.16 104.39 10.81 107.98 C 12.15 109.79 13.33 111.70 14.47 113.65 C 9.07 110.08 4.69 105.22 0.00 100.81 L 0.00 97.05 Z" />
</g>
<g id="#edbb8aff">
<path fill="#edbb8a" opacity="1.00" d=" M 152.22 122.20 C 167.00 109.83 185.17 101.96 203.94 98.03 C 210.93 96.97 218.76 97.88 224.27 102.67 C 229.32 107.25 230.76 114.52 229.97 121.06 C 229.81 121.32 229.47 121.85 229.30 122.11 C 227.54 124.76 226.31 127.79 224.08 130.11 C 221.61 132.73 218.62 134.95 216.92 138.20 C 222.49 141.50 229.49 138.72 235.16 141.77 C 238.11 143.51 239.43 146.83 240.46 149.92 L 240.38 150.35 C 240.01 154.20 239.24 158.17 236.80 161.30 C 232.03 162.13 228.01 165.09 224.33 168.05 C 223.58 165.64 223.35 162.42 220.71 161.25 C 216.90 160.23 211.93 161.24 210.18 165.16 C 208.98 167.28 209.87 169.67 210.78 171.70 C 211.23 171.79 212.13 171.96 212.58 172.04 C 211.09 174.27 208.65 175.30 206.10 175.73 C 205.24 173.83 204.42 171.34 202.00 171.02 C 196.00 169.92 188.78 175.38 189.50 181.71 C 186.75 182.15 183.99 182.55 181.30 183.29 C 181.10 180.68 181.61 177.48 179.29 175.63 C 177.16 173.43 173.66 173.58 171.35 175.39 C 168.26 177.65 163.64 179.02 162.85 183.26 C 158.34 184.91 153.38 183.55 149.16 181.67 C 149.66 181.35 150.66 180.71 151.17 180.38 C 154.73 177.88 159.12 173.96 157.98 169.15 C 155.85 166.62 153.98 163.77 151.56 161.53 C 147.52 160.79 143.24 163.44 141.43 167.04 C 140.30 168.46 141.29 170.53 142.94 170.98 C 142.41 172.41 141.81 173.82 141.26 175.25 C 141.51 177.01 142.38 178.58 143.41 180.00 C 140.27 178.95 137.51 177.08 134.70 175.38 L 134.72 176.92 C 129.32 169.05 128.28 158.56 131.60 149.67 C 135.60 138.74 143.40 129.60 152.22 122.20 M 167.06 119.13 C 165.59 120.96 164.39 123.03 162.46 124.44 C 160.17 125.93 160.80 129.08 161.47 131.29 C 163.86 135.29 169.12 133.72 172.97 134.22 C 176.62 132.44 180.18 128.94 180.18 124.61 C 180.25 122.08 179.32 119.30 176.98 118.04 C 173.92 116.01 169.85 117.22 167.06 119.13 M 196.44 124.45 C 193.64 126.12 190.60 128.77 191.03 132.39 L 191.60 131.58 C 191.46 133.31 190.79 135.41 192.20 136.81 C 197.81 144.34 211.64 140.99 213.58 131.95 C 214.36 129.62 212.28 127.93 210.93 126.38 C 211.49 124.62 209.39 124.23 208.34 123.56 C 204.53 121.89 200.04 122.60 196.44 124.45 M 145.14 141.15 C 141.31 143.88 138.89 149.43 141.09 153.89 C 142.77 156.29 146.24 156.88 148.93 156.15 C 151.26 155.59 151.40 152.96 152.18 151.13 C 152.93 148.88 154.72 146.63 153.64 144.16 C 152.58 140.70 148.14 139.74 145.14 141.15 Z" />
</g>
<g id="#8e3f15ff">
<path fill="#8e3f15" opacity="1.00" d=" M 0.00 100.81 C 4.69 105.22 9.07 110.08 14.47 113.65 C 13.33 111.70 12.15 109.79 10.81 107.98 C 13.23 109.91 15.30 112.20 17.16 114.65 C 14.79 115.30 17.59 118.28 18.33 115.92 C 21.12 118.70 23.88 121.53 26.38 124.59 C 27.64 125.84 28.70 127.94 30.79 127.60 C 31.06 127.91 31.33 128.23 31.60 128.55 C 32.85 131.31 34.64 133.77 36.25 136.33 C 31.94 134.38 28.54 131.03 24.74 128.30 C 16.44 122.14 8.43 115.60 0.00 109.63 L 0.00 100.81 Z" />
</g>
<g id="#a8ba4eff">
<path fill="#a8ba4e" opacity="1.00" d=" M 358.71 128.29 C 363.15 125.62 367.57 122.92 372.03 120.28 C 374.26 122.66 376.48 125.05 378.74 127.41 C 375.62 131.58 372.38 135.67 369.23 139.82 L 368.38 138.88 C 365.63 135.81 362.75 132.87 360.02 129.78 C 359.70 129.41 359.04 128.66 358.71 128.29 Z" />
<path fill="#a8ba4e" opacity="1.00" d=" M 340.36 143.69 C 341.25 144.40 342.13 145.13 342.98 145.90 C 342.24 145.76 340.77 145.50 340.03 145.37 L 339.40 146.83 C 340.03 146.94 341.30 147.14 341.93 147.24 C 340.92 148.81 339.48 148.07 338.15 147.41 C 337.76 147.79 336.99 148.54 336.60 148.92 C 336.38 148.72 335.94 148.32 335.73 148.12 C 337.36 146.75 339.11 145.45 340.36 143.69 Z" />
<path fill="#a8ba4e" opacity="1.00" d=" M 342.66 154.26 C 343.62 152.46 345.19 151.18 346.76 149.94 C 347.21 150.41 348.09 151.35 348.53 151.82 C 348.11 153.21 347.61 154.58 347.19 155.97 C 347.76 155.40 348.90 154.27 349.47 153.70 C 351.48 155.14 353.48 156.75 354.43 159.14 C 351.93 157.03 350.03 160.34 347.93 161.33 C 348.89 159.44 351.53 157.96 351.03 155.65 C 349.12 154.58 347.70 157.46 346.09 158.22 C 345.30 157.23 344.52 156.24 343.73 155.25 C 344.94 154.50 346.16 153.75 347.39 153.01 C 346.95 152.56 346.50 152.12 346.06 151.68 C 344.92 152.53 343.79 153.39 342.66 154.26 Z" />
</g>
<g id="#c99e78ff">
<path fill="#c99e78" opacity="1.00" d=" M 196.44 124.45 C 200.04 122.60 204.53 121.89 208.34 123.56 C 209.39 124.23 211.49 124.62 210.93 126.38 C 204.49 122.13 195.08 124.75 191.60 131.58 L 191.03 132.39 C 190.60 128.77 193.64 126.12 196.44 124.45 Z" />
</g>
<g id="#5d9599ff">
<path fill="#5d9599" opacity="1.00" d=" M 172.82 132.74 C 175.94 130.71 178.45 127.90 180.18 124.61 C 180.18 128.94 176.62 132.44 172.97 134.22 C 169.12 133.72 163.86 135.29 161.47 131.29 C 165.15 132.42 169.00 132.60 172.82 132.74 Z" />
</g>
<g id="#8f8e91ff">
<path fill="#8f8e91" opacity="1.00" d=" M 351.70 133.33 C 354.47 132.14 357.23 130.93 360.02 129.78 C 362.75 132.87 365.63 135.81 368.38 138.88 C 368.11 139.17 367.58 139.75 367.31 140.04 C 364.81 137.71 362.84 134.77 359.90 132.97 C 358.39 132.02 356.58 133.51 356.47 135.09 C 357.22 137.28 358.39 139.30 359.34 141.41 C 356.43 139.09 353.85 136.38 351.70 133.33 Z" />
</g>
<g id="#a4a4a4ff">
<path fill="#a4a4a4" opacity="1.00" d=" M 349.53 132.40 C 350.02 132.56 351.00 132.89 351.49 133.05 C 348.22 136.10 344.72 138.89 341.42 141.92 L 340.66 141.98 C 340.75 141.50 340.91 140.56 341.00 140.09 C 343.73 137.41 346.48 134.71 349.53 132.40 Z" />
</g>
<g id="#cdbdbdff">
<path fill="#cdbdbd" opacity="1.00" d=" M 319.63 159.72 C 326.63 153.05 333.76 146.50 341.00 140.09 C 340.91 140.56 340.75 141.50 340.66 141.98 C 340.59 142.40 340.44 143.26 340.36 143.69 C 339.11 145.45 337.36 146.75 335.73 148.12 C 331.06 152.87 326.55 158.06 324.02 164.29 C 322.53 162.79 321.06 161.26 319.63 159.72 Z" />
</g>
<g id="#ee454aff">
<path fill="#ee454a" opacity="1.00" d=" M 145.14 141.15 C 148.14 139.74 152.58 140.70 153.64 144.16 C 154.72 146.63 152.93 148.88 152.18 151.13 C 151.40 152.96 151.26 155.59 148.93 156.15 C 146.24 156.88 142.77 156.29 141.09 153.89 C 138.89 149.43 141.31 143.88 145.14 141.15 Z" />
<path fill="#ee454a" opacity="1.00" d=" M 262.14 209.15 C 264.55 206.79 268.20 207.59 271.19 207.90 C 272.35 219.92 272.99 231.98 274.08 244.02 C 272.16 244.01 270.23 244.09 268.32 243.93 C 265.26 242.98 261.90 241.56 260.68 238.33 C 258.67 233.03 259.31 227.23 259.52 221.69 C 259.95 217.48 259.67 212.81 262.14 209.15 Z" />
<path fill="#ee454a" opacity="1.00" d=" M 153.27 258.00 C 163.49 264.06 173.54 270.41 183.86 276.31 L 183.71 276.60 C 183.60 276.82 183.37 277.27 183.26 277.49 C 178.27 285.68 173.01 293.70 168.22 302.00 C 157.24 296.54 147.20 289.40 136.92 282.75 C 138.53 280.45 140.10 278.13 141.64 275.79 C 147.11 278.60 152.66 281.24 158.12 284.05 C 162.29 282.93 166.46 281.84 170.65 280.80 C 168.33 277.73 166.57 274.12 163.61 271.61 C 158.99 268.85 154.04 266.69 149.35 264.06 C 150.69 262.06 152.00 260.04 153.27 258.00 Z" />
</g>
<g id="#f9f5f4ff">
<path fill="#f9f5f4" opacity="1.00" d=" M 340.66 141.98 L 341.42 141.92 C 343.29 144.42 347.30 146.40 346.76 149.94 C 345.19 151.18 343.62 152.46 342.66 154.26 C 342.62 154.31 342.53 154.43 342.48 154.48 L 342.52 154.44 L 342.66 154.26 C 343.79 153.39 344.92 152.53 346.06 151.68 C 346.50 152.12 346.95 152.56 347.39 153.01 C 346.16 153.75 344.94 154.50 343.73 155.25 C 344.52 156.24 345.30 157.23 346.09 158.22 C 347.70 157.46 349.12 154.58 351.03 155.65 C 351.53 157.96 348.89 159.44 347.93 161.33 C 350.03 160.34 351.93 157.03 354.43 159.14 C 348.51 165.54 341.43 170.65 335.41 176.95 C 331.56 172.86 327.97 168.53 323.89 164.67 L 324.02 164.29 C 326.55 158.06 331.06 152.87 335.73 148.12 C 335.94 148.32 336.38 148.72 336.60 148.92 C 336.99 148.54 337.76 147.79 338.15 147.41 C 339.48 148.07 340.92 148.81 341.93 147.24 C 341.30 147.14 340.03 146.94 339.40 146.83 L 340.03 145.37 C 340.77 145.50 342.24 145.76 342.98 145.90 C 342.13 145.13 341.25 144.40 340.36 143.69 C 340.44 143.26 340.59 142.40 340.66 141.98 M 338.62 151.18 C 339.22 151.13 340.43 151.04 341.03 150.99 C 340.94 151.63 340.77 152.91 340.68 153.55 C 342.48 151.95 343.73 149.89 344.62 147.68 C 342.54 148.73 340.17 149.32 338.62 151.18 M 330.68 160.70 C 328.23 163.28 332.93 168.19 335.51 165.45 C 337.58 163.22 338.49 160.20 339.16 157.30 C 336.23 158.05 332.93 158.48 330.68 160.70 Z" />
<path fill="#f9f5f4" opacity="1.00" d=" M 289.54 356.68 C 291.06 354.38 293.80 354.01 296.23 354.84 C 302.71 356.82 309.34 358.21 315.88 359.94 C 314.51 366.37 312.78 372.72 311.61 379.20 C 303.82 380.80 295.65 380.28 287.94 378.53 L 287.53 377.26 C 286.98 377.16 285.90 376.97 285.35 376.88 C 285.28 374.34 283.75 372.59 281.11 372.76 C 280.68 374.01 280.26 375.27 279.85 376.53 C 280.78 376.77 282.63 377.25 283.55 377.49 C 281.54 377.59 279.52 377.68 277.51 377.65 C 278.76 373.93 279.28 370.01 280.52 366.30 C 283.76 367.12 287.00 368.29 290.41 367.95 C 289.01 367.40 287.59 366.90 286.15 366.49 L 287.16 365.25 C 288.12 365.45 289.08 365.67 290.04 365.89 C 289.69 365.06 289.34 364.23 289.00 363.41 C 289.54 363.03 290.61 362.27 291.14 361.89 C 288.89 361.24 286.61 360.65 284.33 360.09 C 284.83 359.11 285.32 358.13 285.81 357.16 C 287.97 357.60 290.18 357.94 292.40 357.91 C 291.45 357.47 290.50 357.06 289.54 356.68 M 294.50 369.07 C 297.34 371.90 300.66 375.68 305.11 374.98 C 307.19 373.49 307.71 370.47 306.71 368.20 C 302.97 365.65 298.35 368.03 294.50 369.07 M 281.06 370.26 C 283.41 371.99 286.15 373.07 288.92 373.95 C 288.16 373.01 287.38 372.08 286.62 371.16 C 287.49 371.00 289.23 370.68 290.10 370.52 C 287.20 369.40 284.05 369.96 281.06 370.26 Z" />
</g>
<g id="#acbb4bff">
<path fill="#acbb4b" opacity="1.00" d=" M 338.62 151.18 C 340.17 149.32 342.54 148.73 344.62 147.68 C 343.73 149.89 342.48 151.95 340.68 153.55 C 340.77 152.91 340.94 151.63 341.03 150.99 C 340.43 151.04 339.22 151.13 338.62 151.18 Z" />
</g>
<g id="#c3cd76ff">
<path fill="#c3cd76" opacity="1.00" d=" M 342.48 154.48 C 342.53 154.43 342.62 154.31 342.66 154.26 L 342.52 154.44 L 342.48 154.48 Z" />
</g>
<g id="#afbe52ff">
<path fill="#afbe52" opacity="1.00" d=" M 330.68 160.70 C 332.93 158.48 336.23 158.05 339.16 157.30 C 338.49 160.20 337.58 163.22 335.51 165.45 C 332.93 168.19 328.23 163.28 330.68 160.70 Z" />
</g>
<g id="#a3a3a3ff">
<path fill="#a3a3a3" opacity="1.00" d=" M 308.81 168.56 C 312.93 166.27 315.96 162.60 319.63 159.72 C 321.06 161.26 322.53 162.79 324.02 164.29 L 323.89 164.67 C 321.79 169.73 322.41 175.22 323.76 180.38 C 323.34 179.96 322.52 179.12 322.11 178.69 C 321.78 179.23 321.11 180.29 320.78 180.82 C 321.26 180.90 322.22 181.06 322.70 181.14 C 322.02 182.20 321.33 183.26 320.65 184.33 L 320.31 184.88 C 320.12 184.37 319.76 183.36 319.57 182.85 C 319.45 182.73 319.21 182.48 319.09 182.36 L 318.01 181.91 L 318.23 181.68 C 319.37 180.44 320.52 179.21 321.67 177.97 C 320.21 176.68 318.81 175.33 317.46 173.93 C 316.20 175.00 314.94 176.08 313.69 177.15 C 312.89 176.30 312.11 175.45 311.33 174.60 C 312.71 173.70 314.10 172.81 315.49 171.91 C 314.63 170.56 313.83 169.14 312.70 167.99 C 311.38 167.86 310.08 168.28 308.81 168.56 M 314.87 174.11 C 315.58 173.40 315.58 173.40 314.87 174.11 M 314.12 174.86 C 313.41 175.59 313.41 175.59 314.12 174.86 C 314.31 174.68 314.68 174.30 314.87 174.11 C 314.68 174.30 314.31 174.68 314.12 174.86 Z" />
<path fill="#a3a3a3" opacity="1.00" d=" M 196.68 276.60 C 199.01 273.93 202.85 275.00 205.45 276.67 C 207.25 277.72 209.24 279.57 208.46 281.89 C 206.65 287.75 203.13 292.98 199.27 297.69 C 199.16 292.62 202.97 288.16 201.95 282.94 C 202.03 279.70 199.20 277.91 196.68 276.60 Z" />
<path fill="#a3a3a3" opacity="1.00" d=" M 183.26 277.49 C 183.37 277.27 183.60 276.82 183.71 276.60 C 186.72 277.90 189.70 279.28 192.76 280.47 C 190.58 285.60 186.89 289.91 184.22 294.80 C 185.52 295.10 186.83 295.40 188.13 295.76 C 186.34 295.70 184.56 295.73 182.78 295.76 C 184.23 291.59 186.24 287.45 186.35 282.97 C 186.45 280.67 184.45 279.20 183.26 277.49 Z" />
<path fill="#a3a3a3" opacity="1.00" d=" M 320.39 375.37 C 323.10 373.49 324.84 370.61 327.15 368.32 C 329.04 369.12 331.09 369.55 333.15 369.40 C 332.86 371.06 332.47 372.72 331.95 374.34 C 330.33 373.05 328.17 372.58 326.20 373.25 C 327.61 374.83 329.87 375.06 331.85 374.77 C 331.72 375.34 331.46 376.48 331.33 377.05 C 329.99 375.57 327.85 375.45 326.08 376.10 C 327.47 377.35 329.40 377.66 331.21 377.49 L 330.80 379.18 C 328.79 378.86 326.78 378.59 324.76 378.40 C 326.17 379.37 329.28 378.82 329.68 380.81 C 327.87 381.79 325.73 381.24 323.78 381.36 C 325.87 381.80 327.96 382.26 330.05 382.70 C 329.77 384.12 329.44 385.54 329.14 386.96 C 327.13 386.34 325.13 385.70 323.13 385.07 C 323.03 386.41 322.93 387.74 322.83 389.08 C 324.42 389.43 326.03 390.43 327.69 389.88 C 326.74 388.41 324.85 387.90 323.47 386.92 C 325.26 387.34 327.05 387.81 328.85 388.21 C 328.63 389.57 328.38 390.93 327.97 392.26 C 325.15 391.66 322.87 389.67 320.04 389.10 C 316.58 388.31 313.12 387.52 309.67 386.71 C 310.30 384.20 310.94 381.69 311.61 379.20 C 314.65 378.25 317.80 377.33 320.39 375.37 M 327.30 370.36 C 326.74 371.92 330.57 373.16 330.70 371.36 C 329.94 370.42 328.43 369.90 327.30 370.36 M 324.28 383.30 C 324.30 385.03 327.45 385.58 328.78 384.85 C 328.26 383.39 325.69 382.98 324.28 383.30 Z" />
</g>
<g id="#76bf54ff">
<path fill="#76bf54" opacity="1.00" d=" M 141.43 167.04 C 143.24 163.44 147.52 160.79 151.56 161.53 C 153.98 163.77 155.85 166.62 157.98 169.15 C 159.12 173.96 154.73 177.88 151.17 180.38 C 146.98 181.75 142.70 179.28 141.26 175.25 C 141.81 173.82 142.41 172.41 142.94 170.98 C 143.63 169.50 142.38 168.04 141.43 167.04 Z" />
</g>
<g id="#a583a8ff">
<path fill="#a583a8" opacity="1.00" d=" M 210.18 165.16 C 211.93 161.24 216.90 160.23 220.71 161.25 C 223.35 162.42 223.58 165.64 224.33 168.05 C 223.60 168.88 222.89 169.72 222.18 170.56 C 218.43 171.33 214.61 171.68 210.78 171.70 C 209.87 169.67 208.98 167.28 210.18 165.16 Z" />
<path fill="#a583a8" opacity="1.00" d=" M 392.62 279.47 C 394.24 279.03 396.38 277.47 397.78 279.18 C 399.54 282.27 400.67 285.69 401.84 289.05 C 401.50 289.97 401.16 290.88 400.82 291.79 C 395.42 293.74 390.26 296.40 384.62 297.65 C 382.97 294.19 382.00 290.44 380.06 287.13 C 380.20 286.52 380.49 285.32 380.64 284.72 C 384.25 282.25 388.67 281.30 392.62 279.47 Z" />
<path fill="#a583a8" opacity="1.00" d=" M 288.29 295.37 C 293.76 293.60 299.24 291.18 305.08 291.15 C 309.76 291.72 311.23 297.13 311.43 301.13 C 298.99 307.30 286.54 313.48 274.00 319.44 C 273.15 317.48 272.21 315.54 271.69 313.46 C 271.83 310.18 271.41 306.42 273.64 303.70 C 277.23 299.10 283.14 297.52 288.29 295.37 M 291.30 307.17 C 289.26 308.27 286.72 308.96 285.64 311.22 C 288.57 311.81 290.98 309.80 293.48 308.65 C 296.54 306.95 299.86 305.71 302.81 303.82 C 302.90 303.30 303.07 302.26 303.15 301.75 C 298.90 302.85 295.26 305.40 291.30 307.17 Z" />
<path fill="#a583a8" opacity="1.00" d=" M 408.35 401.19 C 410.51 398.04 414.20 396.32 416.00 392.89 L 416.00 403.51 C 415.03 404.46 414.02 405.37 413.03 406.29 C 411.48 404.58 409.94 402.86 408.35 401.19 Z" />
</g>
<g id="#dcaf85ff">
<path fill="#dcaf85" opacity="1.00" d=" M 224.33 168.05 C 228.01 165.09 232.03 162.13 236.80 161.30 C 226.40 173.24 213.71 183.54 198.85 189.36 C 192.88 191.82 186.41 192.54 180.08 193.51 C 170.90 194.32 161.33 194.13 152.70 190.55 C 148.76 188.97 145.44 186.26 141.77 184.19 C 138.81 182.47 136.65 179.68 134.72 176.92 L 134.70 175.38 C 137.51 177.08 140.27 178.95 143.41 180.00 C 145.27 180.73 147.21 181.22 149.16 181.67 C 153.38 183.55 158.34 184.91 162.85 183.26 C 162.80 183.63 162.72 184.39 162.68 184.76 C 162.93 188.33 166.80 190.24 169.99 189.10 C 173.43 187.80 176.47 185.67 179.60 183.77 C 180.03 183.65 180.88 183.41 181.30 183.29 C 183.99 182.55 186.75 182.15 189.50 181.71 C 189.92 182.11 190.76 182.90 191.19 183.30 C 192.68 185.09 195.32 184.66 196.72 183.00 C 197.75 182.17 198.79 181.36 199.83 180.55 C 201.47 181.60 203.50 180.71 203.86 178.81 C 204.55 177.74 205.32 176.73 206.10 175.73 C 208.65 175.30 211.09 174.27 212.58 172.04 C 215.77 171.65 219.21 171.99 222.18 170.56 C 222.89 169.72 223.60 168.88 224.33 168.05 Z" />
</g>
<g id="#94924cff">
<path fill="#94924c" opacity="1.00" d=" M 142.94 170.98 C 141.29 170.53 140.30 168.46 141.43 167.04 C 142.38 168.04 143.63 169.50 142.94 170.98 Z" />
</g>
<g id="#968c8dff">
<path fill="#968c8d" opacity="1.00" d=" M 308.81 168.56 C 310.08 168.28 311.38 167.86 312.70 167.99 C 313.83 169.14 314.63 170.56 315.49 171.91 C 314.10 172.81 312.71 173.70 311.33 174.60 C 309.80 172.77 308.25 170.97 306.77 169.11 C 307.28 168.97 308.30 168.70 308.81 168.56 Z" />
</g>
<g id="#3a3a3aff">
<path fill="#3a3a3a" opacity="1.00" d=" M 210.78 171.70 C 214.61 171.68 218.43 171.33 222.18 170.56 C 219.21 171.99 215.77 171.65 212.58 172.04 C 212.13 171.96 211.23 171.79 210.78 171.70 Z" />
<path fill="#3a3a3a" opacity="1.00" d=" M 400.82 291.79 C 401.16 290.88 401.50 289.97 401.84 289.05 C 401.87 289.76 401.93 291.18 401.96 291.89 C 397.00 294.18 391.86 296.04 386.79 298.06 C 386.25 297.96 385.17 297.75 384.62 297.65 C 390.26 296.40 395.42 293.74 400.82 291.79 Z" />
<path fill="#3a3a3a" opacity="1.00" d=" M 90.87 358.56 C 98.12 354.89 104.97 350.43 112.37 347.09 L 112.77 347.40 C 105.18 350.53 98.58 355.80 90.87 358.56 Z" />
<path fill="#3a3a3a" opacity="1.00" d=" M 327.30 370.36 C 328.43 369.90 329.94 370.42 330.70 371.36 C 330.57 373.16 326.74 371.92 327.30 370.36 Z" />
<path fill="#3a3a3a" opacity="1.00" d=" M 324.76 378.40 C 326.78 378.59 328.79 378.86 330.80 379.18 C 330.44 380.33 330.47 381.56 330.05 382.70 C 327.96 382.26 325.87 381.80 323.78 381.36 C 325.73 381.24 327.87 381.79 329.68 380.81 C 329.28 378.82 326.17 379.37 324.76 378.40 Z" />
<path fill="#3a3a3a" opacity="1.00" d=" M 190.79 390.93 C 191.19 389.56 191.62 388.20 191.99 386.83 C 193.83 394.10 192.72 403.56 185.60 407.62 C 182.94 408.55 183.69 411.56 183.59 413.78 C 183.46 413.58 183.20 413.16 183.07 412.95 C 183.27 411.35 183.45 409.75 183.60 408.16 C 183.20 408.04 182.39 407.81 181.99 407.69 C 187.05 405.65 188.42 399.49 187.99 394.59 C 185.31 398.80 184.04 404.09 179.72 407.06 C 179.40 406.95 178.75 406.75 178.43 406.64 C 177.24 406.24 176.06 405.84 174.88 405.44 L 175.74 405.17 C 174.80 400.35 175.00 395.43 176.13 390.66 C 176.52 390.19 177.31 389.25 177.71 388.78 C 180.54 388.84 183.46 388.64 186.12 389.82 C 187.09 389.51 188.05 389.19 189.02 388.88 C 189.46 389.39 190.34 390.42 190.79 390.93 Z" />
</g>
<g id="#f8f66fff">
<path fill="#f8f66f" opacity="1.00" d=" M 189.50 181.71 C 188.78 175.38 196.00 169.92 202.00 171.02 C 204.42 171.34 205.24 173.83 206.10 175.73 C 205.32 176.73 204.55 177.74 203.86 178.81 C 202.29 178.61 200.92 179.53 199.83 180.55 C 198.79 181.36 197.75 182.17 196.72 183.00 C 194.88 182.65 192.98 182.80 191.19 183.30 C 190.76 182.90 189.92 182.11 189.50 181.71 Z" />
</g>
<g id="#655b5cff">
<path fill="#655b5c" opacity="1.00" d=" M 314.87 174.11 C 315.58 173.40 315.58 173.40 314.87 174.11 Z" />
</g>
<g id="#d26296ff">
<path fill="#d26296" opacity="1.00" d=" M 171.35 175.39 C 173.66 173.58 177.16 173.43 179.29 175.63 C 181.61 177.48 181.10 180.68 181.30 183.29 C 180.88 183.41 180.03 183.65 179.60 183.77 C 175.98 183.98 173.09 186.17 169.91 187.58 C 167.04 188.72 164.82 186.19 162.68 184.76 C 162.72 184.39 162.80 183.63 162.85 183.26 C 163.64 179.02 168.26 177.65 171.35 175.39 Z" />
</g>
<g id="#6e5b5fff">
<path fill="#6e5b5f" opacity="1.00" d=" M 314.12 174.86 C 314.31 174.68 314.68 174.30 314.87 174.11 C 314.68 174.30 314.31 174.68 314.12 174.86 Z" />
</g>
<g id="#8a8182ff">
<path fill="#8a8182" opacity="1.00" d=" M 313.69 177.15 C 314.94 176.08 316.20 175.00 317.46 173.93 C 318.81 175.33 320.21 176.68 321.67 177.97 C 320.52 179.21 319.37 180.44 318.23 181.68 C 316.73 180.15 315.23 178.63 313.69 177.15 Z" />
</g>
<g id="#5a5051ff">
<path fill="#5a5051" opacity="1.00" d=" M 314.12 174.86 C 313.41 175.59 313.41 175.59 314.12 174.86 Z" />
</g>
<g id="#a3ae4fff">
<path fill="#a3ae4f" opacity="1.00" d=" M 199.83 180.55 C 200.92 179.53 202.29 178.61 203.86 178.81 C 203.50 180.71 201.47 181.60 199.83 180.55 Z" />
<path fill="#a3ae4f" opacity="1.00" d=" M 392.69 305.08 C 392.91 304.99 393.35 304.82 393.58 304.73 C 396.92 308.60 400.55 312.40 405.11 314.83 C 404.15 315.36 403.49 316.16 403.14 317.23 C 402.93 317.34 402.53 317.55 402.33 317.66 C 400.68 316.40 398.44 317.14 398.12 319.26 C 397.83 319.40 397.23 319.69 396.94 319.84 C 396.63 318.39 394.28 318.71 393.98 320.01 C 391.62 316.71 390.48 312.71 389.16 308.92 C 388.14 306.58 391.20 305.91 392.69 305.08 Z" />
</g>
<g id="#7d7374ff">
<path fill="#7d7374" opacity="1.00" d=" M 322.11 178.69 C 322.52 179.12 323.34 179.96 323.76 180.38 C 324.91 181.63 326.16 182.78 327.38 183.97 C 326.51 185.29 325.68 186.62 324.68 187.84 C 322.77 187.91 321.97 185.37 320.65 184.33 C 321.33 183.26 322.02 182.20 322.70 181.14 C 322.22 181.06 321.26 180.90 320.78 180.82 C 321.11 180.29 321.78 179.23 322.11 178.69 Z" />
</g>
<g id="#655c5dff">
<path fill="#655c5d" opacity="1.00" d=" M 319.09 182.36 C 319.21 182.48 319.45 182.73 319.57 182.85 C 319.45 182.73 319.21 182.48 319.09 182.36 Z" />
</g>
<g id="#b7b659ff">
<path fill="#b7b659" opacity="1.00" d=" M 191.19 183.30 C 192.98 182.80 194.88 182.65 196.72 183.00 C 195.32 184.66 192.68 185.09 191.19 183.30 Z" />
</g>
<g id="#a6517fff">
<path fill="#a6517f" opacity="1.00" d=" M 169.91 187.58 C 173.09 186.17 175.98 183.98 179.60 183.77 C 176.47 185.67 173.43 187.80 169.99 189.10 C 166.80 190.24 162.93 188.33 162.68 184.76 C 164.82 186.19 167.04 188.72 169.91 187.58 Z" />
</g>
<g id="#ee464cff">
<path fill="#ee464c" opacity="1.00" d=" M 262.01 193.98 C 263.34 194.04 265.00 193.87 265.77 195.24 C 267.95 198.58 269.43 202.32 271.09 205.93 C 267.71 205.98 264.33 205.89 260.96 206.14 C 260.44 204.18 259.92 202.21 259.37 200.26 L 259.74 200.09 C 261.91 199.48 261.86 196.87 261.96 195.05 L 262.01 193.98 Z" />
</g>
<g id="#ab273dff">
<path fill="#ab273d" opacity="1.00" d=" M 259.37 200.26 C 259.92 202.21 260.44 204.18 260.96 206.14 C 259.89 206.36 258.82 206.60 257.77 206.87 C 258.13 204.63 258.67 202.42 259.37 200.26 Z" />
</g>
<g id="#9dd9daff">
<path fill="#9dd9da" opacity="1.00" d=" M 77.26 203.64 C 78.34 203.07 79.43 201.54 80.81 202.21 C 82.39 203.00 83.24 204.66 84.31 205.99 C 83.81 206.03 82.83 206.12 82.33 206.17 C 82.68 207.65 83.03 209.13 83.35 210.62 C 80.89 208.70 78.91 206.27 77.26 203.64 Z" />
</g>
<g id="#9cd7d7ff">
<path fill="#9cd7d7" opacity="1.00" d=" M 69.95 210.07 C 72.36 207.89 74.68 205.62 77.26 203.64 C 78.91 206.27 80.89 208.70 83.35 210.62 C 84.75 211.72 86.22 212.72 87.71 213.69 C 84.98 216.10 82.17 218.43 79.47 220.89 C 76.46 217.33 73.35 213.84 70.23 210.38 L 69.95 210.07 Z" />
</g>
<g id="#b2eceeff">
<path fill="#b2ecee" opacity="1.00" d=" M 82.33 206.17 C 82.83 206.12 83.81 206.03 84.31 205.99 C 87.07 207.53 89.54 210.69 88.22 214.02 L 87.71 213.69 C 86.22 212.72 84.75 211.72 83.35 210.62 C 83.03 209.13 82.68 207.65 82.33 206.17 Z" />
</g>
<g id="#cc3d4fff">
<path fill="#cc3d4f" opacity="1.00" d=" M 257.77 206.87 C 258.82 206.60 259.89 206.36 260.96 206.14 C 264.33 205.89 267.71 205.98 271.09 205.93 C 271.11 206.42 271.17 207.41 271.19 207.90 C 268.20 207.59 264.55 206.79 262.14 209.15 C 259.67 212.81 259.95 217.48 259.52 221.69 C 259.31 227.23 258.67 233.03 260.68 238.33 C 261.90 241.56 265.26 242.98 268.32 243.93 C 264.10 244.03 259.88 243.98 255.66 244.01 C 256.26 231.62 257.03 219.25 257.77 206.87 Z" />
</g>
<g id="#f0f4f5ff">
<path fill="#f0f4f5" opacity="1.00" d=" M 378.40 222.53 C 390.08 218.21 401.53 213.30 413.20 208.96 C 414.14 210.40 415.12 211.84 416.00 213.34 L 416.00 230.74 C 414.27 227.66 414.17 223.11 410.91 221.22 C 405.60 222.90 400.34 224.95 395.33 227.37 C 395.20 227.77 394.93 228.56 394.79 228.96 C 395.64 232.61 397.22 236.06 398.76 239.46 C 399.27 240.77 400.43 241.52 401.81 240.82 C 406.63 239.18 411.30 237.12 416.00 235.17 L 416.00 244.72 C 412.18 246.46 408.06 247.51 404.37 249.52 C 404.16 249.88 403.75 250.60 403.54 250.96 C 404.50 255.07 406.25 258.96 408.06 262.76 L 409.16 263.09 C 409.59 263.08 410.45 263.04 410.89 263.02 C 412.61 262.34 414.33 261.65 416.00 260.83 L 416.00 269.85 C 414.80 270.94 412.60 271.43 412.26 273.17 C 412.88 276.54 414.64 279.56 416.00 282.67 L 416.00 293.85 C 406.64 271.56 398.17 248.90 389.10 226.49 C 387.30 226.95 385.54 227.55 383.74 228.03 C 387.85 240.30 393.19 252.12 397.74 264.23 C 403.91 279.31 409.45 294.67 416.00 309.60 L 416.00 322.54 C 412.63 320.57 409.29 318.57 405.93 316.60 C 406.25 316.41 406.90 316.02 407.23 315.82 C 407.46 315.68 407.92 315.41 408.14 315.27 C 409.67 315.14 411.82 313.93 410.97 312.12 C 409.60 308.49 408.41 304.76 406.59 301.33 C 405.35 300.02 403.70 300.91 402.32 301.36 C 399.38 302.43 396.51 303.66 393.58 304.73 C 393.35 304.82 392.91 304.99 392.69 305.08 C 391.20 302.38 389.42 299.76 386.79 298.06 C 391.86 296.04 397.00 294.18 401.96 291.89 C 401.93 291.18 401.87 289.76 401.84 289.05 C 400.67 285.69 399.54 282.27 397.78 279.18 C 396.38 277.47 394.24 279.03 392.62 279.47 C 388.67 281.30 384.25 282.25 380.64 284.72 C 380.49 285.32 380.20 286.52 380.06 287.13 C 375.04 281.28 372.37 273.91 367.72 267.80 C 362.72 256.44 358.33 244.83 353.59 233.37 C 355.14 231.84 357.06 230.76 359.14 230.12 C 365.72 228.00 371.84 224.70 378.40 222.53 M 376.63 234.51 C 372.04 236.38 367.40 238.11 362.85 240.08 C 362.51 243.68 364.62 246.80 365.72 250.09 C 366.34 251.58 366.94 253.81 368.94 253.83 C 374.02 252.08 378.95 249.93 383.94 247.95 C 384.19 247.46 384.68 246.49 384.93 246.01 C 383.27 242.30 382.21 238.32 380.23 234.77 C 379.44 233.45 377.74 234.06 376.63 234.51 M 386.39 256.50 C 381.50 258.23 376.77 260.37 371.90 262.15 C 371.01 264.77 372.65 267.23 373.45 269.64 C 374.42 271.79 374.86 274.32 376.57 276.05 C 380.01 275.35 383.15 273.73 386.45 272.57 L 386.95 272.51 L 387.18 271.90 C 388.46 272.60 390.24 271.58 391.08 270.56 L 391.96 270.97 L 392.64 269.79 C 392.68 269.72 392.76 269.57 392.80 269.50 L 393.52 268.10 C 392.46 264.72 391.06 261.46 389.70 258.20 C 389.29 256.81 387.79 255.76 386.39 256.50 Z" />
<path fill="#f0f4f5" opacity="1.00" d=" M 0.00 215.59 C 2.72 221.19 4.72 227.09 7.28 232.76 C 19.40 264.41 32.37 295.75 44.54 327.38 C 45.02 328.40 44.05 329.33 43.72 330.26 C 43.09 330.31 41.82 330.40 41.19 330.44 C 34.64 330.94 27.93 331.59 21.53 329.66 C 25.89 327.48 30.70 326.31 34.95 323.92 C 36.16 323.37 35.94 322.10 35.81 321.04 C 34.22 317.57 33.11 313.89 31.34 310.50 C 29.77 308.87 27.48 310.16 25.73 310.74 C 22.01 312.36 18.02 313.43 14.50 315.48 C 13.06 316.49 14.11 318.32 14.40 319.64 C 15.44 322.65 16.68 325.59 17.89 328.54 L 18.29 329.41 C 16.78 329.28 15.27 329.16 13.77 329.03 C 13.64 328.75 13.39 328.19 13.27 327.91 C 8.82 316.81 4.55 305.65 0.00 294.59 L 0.00 284.54 L 0.75 284.74 C 3.37 285.96 5.87 283.99 8.30 283.21 C 11.72 281.55 15.84 281.01 18.57 278.19 C 17.13 274.13 15.84 269.96 13.71 266.19 C 13.29 266.09 12.43 265.88 12.00 265.78 C 7.85 266.84 3.96 268.71 0.00 270.32 L 0.00 261.13 C 3.12 259.30 7.49 259.16 9.66 256.05 C 8.50 251.90 7.03 247.76 4.89 244.02 C 3.24 243.18 1.55 244.18 0.00 244.72 L 0.00 235.05 C 1.35 234.23 1.60 233.20 0.77 231.96 L 0.00 232.15 L 0.00 215.59 M 8.62 292.49 C 7.20 293.20 4.45 293.75 5.19 295.97 C 6.16 299.67 8.07 303.06 9.05 306.77 C 11.84 308.28 14.57 306.18 17.19 305.31 C 20.63 303.71 24.69 303.07 27.45 300.29 C 25.78 296.39 24.70 292.22 22.57 288.53 C 22.20 288.38 21.46 288.07 21.09 287.91 C 16.77 288.90 12.81 291.04 8.62 292.49 Z" />
<path fill="#f0f4f5" opacity="1.00" d=" M 0.00 310.48 C 1.78 315.00 3.68 319.46 5.40 324.01 L 4.83 324.83 C 3.19 324.25 1.58 323.56 0.00 322.83 L 0.00 310.48 Z" />
</g>
<g id="#cab683ff">
<path fill="#cab683" opacity="1.00" d=" M 70.23 210.38 C 73.35 213.84 76.46 217.33 79.47 220.89 C 70.79 228.59 62.10 236.28 53.44 244.00 C 50.56 240.54 47.71 237.05 44.62 233.79 C 47.50 231.22 50.47 228.69 52.88 225.65 L 53.21 225.25 L 53.79 224.92 C 56.64 223.43 58.79 221.00 61.22 218.96 C 64.39 216.29 67.56 213.57 70.23 210.38 M 67.77 215.67 C 69.11 217.88 70.43 220.68 73.07 221.52 C 74.74 221.16 75.47 219.60 76.08 218.19 C 74.85 218.84 73.65 219.52 72.44 220.20 C 71.09 218.50 69.94 216.43 67.77 215.67 M 63.80 220.27 C 65.04 222.29 66.83 224.01 68.82 225.27 C 70.57 224.86 71.49 223.20 72.33 221.78 C 70.65 222.36 68.78 224.77 67.11 222.85 C 67.67 221.98 68.23 221.12 68.79 220.25 C 67.49 220.54 66.20 220.84 64.90 221.15 C 65.79 219.96 66.64 218.73 67.21 217.36 C 66.05 218.21 63.99 218.55 63.80 220.27 M 59.66 223.91 C 62.99 223.72 63.92 228.11 67.14 228.11 C 65.64 225.64 61.37 224.02 63.09 220.64 C 61.75 221.51 60.64 222.66 59.66 223.91 M 55.78 225.99 C 56.07 227.34 55.55 229.16 56.96 230.01 C 58.75 230.05 60.39 229.25 62.09 228.81 C 62.06 229.57 62.02 231.10 62.00 231.86 C 60.89 231.55 59.79 231.26 58.68 230.98 C 59.07 231.49 59.84 232.51 60.22 233.02 C 62.86 233.70 64.85 229.99 62.88 228.13 C 60.95 226.37 58.89 228.58 57.00 229.18 C 56.35 226.79 58.76 226.03 60.27 224.89 C 58.70 224.91 57.20 225.34 55.78 225.99 M 52.87 228.98 C 53.53 232.01 55.60 234.49 57.72 236.65 L 57.93 235.39 C 57.64 235.01 57.05 234.24 56.76 233.86 C 57.41 233.89 58.71 233.95 59.36 233.98 C 57.43 232.02 55.18 230.44 52.87 228.98 M 48.61 233.12 C 49.62 235.81 51.75 238.13 54.20 239.64 C 53.68 238.53 53.03 237.52 52.23 236.60 C 53.07 234.95 54.17 232.07 51.54 231.36 C 51.66 232.36 51.90 234.36 52.02 235.37 C 50.07 234.65 49.71 233.10 50.40 231.20 C 49.95 231.68 49.06 232.64 48.61 233.12 Z" />
</g>
<g id="#52969cff">
<path fill="#52969c" opacity="1.00" d=" M 67.77 215.67 C 69.94 216.43 71.09 218.50 72.44 220.20 C 73.65 219.52 74.85 218.84 76.08 218.19 C 75.47 219.60 74.74 221.16 73.07 221.52 C 70.43 220.68 69.11 217.88 67.77 215.67 Z" />
</g>
<g id="#559899ff">
<path fill="#559899" opacity="1.00" d=" M 63.80 220.27 C 63.99 218.55 66.05 218.21 67.21 217.36 C 66.64 218.73 65.79 219.96 64.90 221.15 C 66.20 220.84 67.49 220.54 68.79 220.25 C 68.23 221.12 67.67 221.98 67.11 222.85 C 68.78 224.77 70.65 222.36 72.33 221.78 C 71.49 223.20 70.57 224.86 68.82 225.27 C 66.83 224.01 65.04 222.29 63.80 220.27 Z" />
</g>
<g id="#4b959dff">
<path fill="#4b959d" opacity="1.00" d=" M 59.66 223.91 C 60.64 222.66 61.75 221.51 63.09 220.64 C 61.37 224.02 65.64 225.64 67.14 228.11 C 63.92 228.11 62.99 223.72 59.66 223.91 Z" />
</g>
<g id="#bf2b34ff">
<path fill="#bf2b34" opacity="1.00" d=" M 395.33 227.37 C 400.34 224.95 405.60 222.90 410.91 221.22 C 414.17 223.11 414.27 227.66 416.00 230.74 L 416.00 235.17 C 411.30 237.12 406.63 239.18 401.81 240.82 C 400.43 241.52 399.27 240.77 398.76 239.46 C 397.22 236.06 395.64 232.61 394.79 228.96 C 394.93 228.56 395.20 227.77 395.33 227.37 Z" />
<path fill="#bf2b34" opacity="1.00" d=" M 360.62 416.00 C 361.90 414.06 362.41 411.34 364.63 410.22 C 363.84 412.26 362.77 414.18 361.57 416.00 L 360.62 416.00 Z" />
</g>
<g id="#53979aff">
<path fill="#53979a" opacity="1.00" d=" M 55.78 225.99 C 57.20 225.34 58.70 224.91 60.27 224.89 C 58.76 226.03 56.35 226.79 57.00 229.18 C 58.89 228.58 60.95 226.37 62.88 228.13 C 64.85 229.99 62.86 233.70 60.22 233.02 C 59.84 232.51 59.07 231.49 58.68 230.98 C 59.79 231.26 60.89 231.55 62.00 231.86 C 62.02 231.10 62.06 229.57 62.09 228.81 C 60.39 229.25 58.75 230.05 56.96 230.01 C 55.55 229.16 56.07 227.34 55.78 225.99 Z" />
</g>
<g id="#aaaeafff">
<path fill="#aaaeaf" opacity="1.00" d=" M 383.74 228.03 C 385.54 227.55 387.30 226.95 389.10 226.49 C 398.17 248.90 406.64 271.56 416.00 293.85 L 416.00 309.60 C 409.45 294.67 403.91 279.31 397.74 264.23 C 393.19 252.12 387.85 240.30 383.74 228.03 Z" />
<path fill="#aaaeaf" opacity="1.00" d=" M 351.77 235.05 C 352.22 234.63 353.13 233.79 353.59 233.37 C 358.33 244.83 362.72 256.44 367.72 267.80 C 372.31 281.84 378.40 295.35 383.65 309.15 C 389.40 323.72 395.03 338.34 401.07 352.79 C 406.07 350.90 411.08 349.00 416.00 346.88 L 416.00 348.72 C 410.16 350.10 404.81 352.94 399.17 354.95 C 383.40 314.97 367.54 275.03 351.77 235.05 Z" />
<path fill="#aaaeaf" opacity="1.00" d=" M 0.00 294.59 C 4.55 305.65 8.82 316.81 13.27 327.91 C 11.08 327.03 8.77 326.50 6.41 326.50 C 6.07 325.66 5.73 324.84 5.40 324.01 C 3.68 319.46 1.78 315.00 0.00 310.48 L 0.00 294.59 Z" />
<path fill="#aaaeaf" opacity="1.00" d=" M 41.19 330.44 C 41.82 330.40 43.09 330.31 43.72 330.26 C 41.15 332.53 37.72 333.29 34.64 334.58 C 23.09 339.15 11.55 343.75 0.00 348.30 L 0.00 347.04 C 13.62 341.24 27.62 336.38 41.19 330.44 Z" />
</g>
<g id="#41939eff">
<path fill="#41939e" opacity="1.00" d=" M 52.87 228.98 C 55.18 230.44 57.43 232.02 59.36 233.98 C 58.71 233.95 57.41 233.89 56.76 233.86 C 57.05 234.24 57.64 235.01 57.93 235.39 L 57.72 236.65 C 55.60 234.49 53.53 232.01 52.87 228.98 Z" />
</g>
<g id="#b76570ff">
<path fill="#b76570" opacity="1.00" d=" M 0.00 232.15 L 0.77 231.96 C 1.60 233.20 1.35 234.23 0.00 235.05 L 0.00 232.15 Z" />
</g>
<g id="#43939eff">
<path fill="#43939e" opacity="1.00" d=" M 48.61 233.12 C 49.06 232.64 49.95 231.68 50.40 231.20 C 49.71 233.10 50.07 234.65 52.02 235.37 C 51.90 234.36 51.66 232.36 51.54 231.36 C 54.17 232.07 53.07 234.95 52.23 236.60 C 53.03 237.52 53.68 238.53 54.20 239.64 C 51.75 238.13 49.62 235.81 48.61 233.12 Z" />
</g>
<g id="#9cd8d7ff">
<path fill="#9cd8d7" opacity="1.00" d=" M 37.45 239.93 C 38.64 236.93 41.48 235.00 44.09 233.31 L 44.62 233.79 C 47.71 237.05 50.56 240.54 53.44 244.00 C 51.22 245.91 49.15 248.03 46.65 249.57 C 44.46 249.76 43.25 247.49 41.87 246.18 C 40.33 244.17 38.02 242.49 37.45 239.93 Z" />
</g>
<g id="#d95e5eff">
<path fill="#d95e5e" opacity="1.00" d=" M 0.00 244.72 C 1.55 244.18 3.24 243.18 4.89 244.02 C 7.03 247.76 8.50 251.90 9.66 256.05 C 7.49 259.16 3.12 259.30 0.00 261.13 L 0.00 244.72 Z" />
</g>
<g id="#d95f5eff">
<path fill="#d95f5e" opacity="1.00" d=" M 404.37 249.52 C 408.06 247.51 412.18 246.46 416.00 244.72 L 416.00 260.83 C 414.33 261.65 412.61 262.34 410.89 263.02 C 410.25 261.56 409.68 261.59 409.16 263.09 L 408.06 262.76 C 406.25 258.96 404.50 255.07 403.54 250.96 C 403.75 250.60 404.16 249.88 404.37 249.52 Z" />
</g>
<g id="#e2414dff">
<path fill="#e2414d" opacity="1.00" d=" M 118.36 250.18 C 118.79 249.91 119.64 249.38 120.07 249.12 C 124.20 250.80 128.91 251.78 132.43 254.54 C 132.21 254.88 131.78 255.54 131.56 255.87 C 127.06 254.21 122.49 252.65 118.36 250.18 Z" />
</g>
<g id="#c34d4fff">
<path fill="#c34d4f" opacity="1.00" d=" M 118.17 250.07 L 118.36 250.18 C 122.49 252.65 127.06 254.21 131.56 255.87 C 131.78 255.54 132.21 254.88 132.43 254.54 L 132.98 253.79 C 132.71 255.09 132.41 256.40 132.07 257.69 C 126.95 256.16 122.31 253.46 117.38 251.46 C 117.58 251.12 117.97 250.42 118.17 250.07 Z" />
</g>
<g id="#ed4449ff">
<path fill="#ed4449" opacity="1.00" d=" M 111.99 259.84 C 113.28 256.75 115.20 254.00 117.38 251.46 C 122.31 253.46 126.95 256.16 132.07 257.69 C 129.95 261.37 126.81 264.27 124.03 267.42 C 119.78 265.29 115.73 262.78 111.99 259.84 M 115.21 258.16 C 114.72 259.41 116.76 260.55 117.76 259.87 C 118.24 258.62 116.21 257.49 115.21 258.16 Z" />
</g>
<g id="#a8a9a9ff">
<path fill="#a8a9a9" opacity="1.00" d=" M 133.07 253.36 C 136.16 252.56 139.28 251.89 142.43 251.40 C 140.92 258.54 138.75 266.32 132.91 271.17 C 135.59 265.66 138.43 260.10 138.99 253.89 C 137.29 254.34 135.14 254.46 134.35 256.34 C 131.57 261.11 129.03 266.30 124.26 269.45 C 124.21 268.94 124.09 267.93 124.03 267.42 C 126.81 264.27 129.95 261.37 132.07 257.69 C 132.41 256.40 132.71 255.09 132.98 253.79 L 133.07 253.36 Z" />
</g>
<g id="#b84544ff">
<path fill="#b84544" opacity="1.00" d=" M 115.21 258.16 C 116.21 257.49 118.24 258.62 117.76 259.87 C 116.76 260.55 114.72 259.41 115.21 258.16 Z" />
</g>
<g id="#a73435ff">
<path fill="#a73435" opacity="1.00" d=" M 409.16 263.09 C 409.68 261.59 410.25 261.56 410.89 263.02 C 410.45 263.04 409.59 263.08 409.16 263.09 Z" />
</g>
<g id="#efa36fff">
<path fill="#efa36f" opacity="1.00" d=" M 0.00 270.32 C 3.96 268.71 7.85 266.84 12.00 265.78 C 12.43 265.88 13.29 266.09 13.71 266.19 C 15.84 269.96 17.13 274.13 18.57 278.19 C 12.70 280.51 7.04 283.74 0.75 284.74 L 0.00 284.54 L 0.00 270.32 Z" />
</g>
<g id="#ee4449ff">
<path fill="#ee4449" opacity="1.00" d=" M 147.97 268.37 C 148.43 268.26 149.34 268.04 149.80 267.93 C 150.41 268.26 151.62 268.93 152.22 269.26 C 151.53 272.23 149.51 274.76 147.07 276.52 C 147.89 274.09 149.82 272.32 151.02 270.10 C 150.04 269.46 149.02 268.88 147.97 268.37 Z" />
<path fill="#ee4449" opacity="1.00" d=" M 153.92 270.54 C 155.61 270.99 157.16 271.83 158.55 272.91 C 155.44 272.32 154.75 275.78 153.41 277.76 C 153.86 278.36 154.78 279.56 155.23 280.16 C 153.21 279.33 151.25 278.32 149.58 276.90 C 150.36 276.94 151.91 277.01 152.69 277.05 C 153.58 274.97 156.26 272.64 153.92 270.54 Z" />
<path fill="#ee4449" opacity="1.00" d=" M 156.08 280.02 C 155.57 276.33 159.39 273.10 162.99 273.96 C 165.24 277.17 162.26 281.04 159.02 282.00 C 157.63 282.37 156.81 280.90 156.08 280.02 M 160.04 275.05 C 158.11 276.05 155.68 279.22 158.28 280.85 C 159.76 281.43 160.92 279.57 161.85 278.67 C 163.63 277.29 162.40 273.98 160.04 275.05 Z" />
<path fill="#ee4449" opacity="1.00" d=" M 294.50 369.07 C 298.35 368.03 302.97 365.65 306.71 368.20 C 307.71 370.47 307.19 373.49 305.11 374.98 C 300.66 375.68 297.34 371.90 294.50 369.07 Z" />
</g>
<g id="#d9dde0ff">
<path fill="#d9dde0" opacity="1.00" d=" M 367.72 267.80 C 372.37 273.91 375.04 281.28 380.06 287.13 C 382.00 290.44 382.97 294.19 384.62 297.65 C 385.17 297.75 386.25 297.96 386.79 298.06 C 389.42 299.76 391.20 302.38 392.69 305.08 C 391.20 305.91 388.14 306.58 389.16 308.92 C 390.48 312.71 391.62 316.71 393.98 320.01 C 394.72 319.97 396.20 319.88 396.94 319.84 C 397.23 319.69 397.83 319.40 398.12 319.26 C 399.62 319.03 401.05 318.49 402.33 317.66 C 402.53 317.55 402.93 317.34 403.14 317.23 C 403.83 317.08 405.23 316.76 405.93 316.60 C 409.29 318.57 412.63 320.57 416.00 322.54 L 416.00 323.76 C 412.24 321.96 408.55 325.02 405.00 326.04 C 402.65 327.28 399.27 327.48 397.88 329.98 C 398.99 334.31 400.22 339.33 403.29 342.60 C 407.79 342.10 411.83 339.71 416.00 338.08 L 416.00 346.88 C 411.08 349.00 406.07 350.90 401.07 352.79 C 395.03 338.34 389.40 323.72 383.65 309.15 C 378.40 295.35 372.31 281.84 367.72 267.80 Z" />
<path fill="#d9dde0" opacity="1.00" d=" M 0.00 322.83 C 1.58 323.56 3.19 324.25 4.83 324.83 L 5.40 324.01 C 5.73 324.84 6.07 325.66 6.41 326.50 C 7.93 330.11 9.01 333.93 10.97 337.34 C 12.63 337.08 15.45 337.23 15.79 335.08 C 15.46 332.96 14.58 330.99 13.77 329.03 C 15.27 329.16 16.78 329.28 18.29 329.41 C 19.37 329.52 20.45 329.59 21.53 329.66 C 27.93 331.59 34.64 330.94 41.19 330.44 C 27.62 336.38 13.62 341.24 0.00 347.04 L 0.00 338.48 C 1.27 337.41 3.92 337.10 3.87 335.03 C 3.33 331.58 1.43 328.58 0.00 325.47 L 0.00 322.83 Z" />
</g>
<g id="#3c7882ff">
<path fill="#3c7882" opacity="1.00" d=" M 392.64 269.79 C 392.68 269.72 392.76 269.57 392.80 269.50 C 392.76 269.57 392.68 269.72 392.64 269.79 Z" />
</g>
<g id="#323231ff">
<path fill="#323231" opacity="1.00" d=" M 387.65 270.73 C 388.69 270.20 390.01 269.89 391.08 270.56 C 390.24 271.58 388.46 272.60 387.18 271.90 C 387.30 271.61 387.53 271.02 387.65 270.73 Z" />
<path fill="#323231" opacity="1.00" d=" M 376.57 276.05 C 379.76 274.64 382.90 272.85 386.45 272.57 C 383.15 273.73 380.01 275.35 376.57 276.05 Z" />
<path fill="#323231" opacity="1.00" d=" M 405.11 314.83 C 405.64 315.08 406.70 315.58 407.23 315.82 C 406.90 316.02 406.25 316.41 405.93 316.60 C 405.23 316.76 403.83 317.08 403.14 317.23 C 403.49 316.16 404.15 315.36 405.11 314.83 Z" />
<path fill="#323231" opacity="1.00" d=" M 398.12 319.26 C 398.44 317.14 400.68 316.40 402.33 317.66 C 401.05 318.49 399.62 319.03 398.12 319.26 Z" />
<path fill="#323231" opacity="1.00" d=" M 171.96 403.82 C 168.39 398.89 169.58 391.11 174.68 387.66 C 175.43 387.94 176.95 388.50 177.71 388.78 C 177.31 389.25 176.52 390.19 176.13 390.66 C 172.03 393.93 174.29 399.68 171.96 403.82 Z" />
</g>
<g id="#efa370ff">
<path fill="#efa370" opacity="1.00" d=" M 412.26 273.17 C 412.60 271.43 414.80 270.94 416.00 269.85 L 416.00 282.67 C 414.64 279.56 412.88 276.54 412.26 273.17 Z" />
</g>
<g id="#846a89ff">
<path fill="#846a89" opacity="1.00" d=" M 305.99 286.15 C 309.95 284.93 314.11 284.74 318.22 284.58 C 315.34 285.89 312.21 286.48 309.29 287.66 C 310.33 291.74 311.95 295.65 313.93 299.38 L 314.16 299.83 C 313.24 300.25 312.33 300.69 311.43 301.13 C 311.23 297.13 309.76 291.72 305.08 291.15 C 299.24 291.18 293.76 293.60 288.29 295.37 C 283.14 297.52 277.23 299.10 273.64 303.70 C 271.41 306.42 271.83 310.18 271.69 313.46 C 269.60 308.85 267.90 304.09 266.01 299.41 C 279.38 295.13 292.66 290.55 305.99 286.15 Z" />
</g>
<g id="#ffdb94ff">
<path fill="#ffdb94" opacity="1.00" d=" M 8.62 292.49 C 12.81 291.04 16.77 288.90 21.09 287.91 C 21.46 288.07 22.20 288.38 22.57 288.53 C 24.70 292.22 25.78 296.39 27.45 300.29 C 23.08 302.62 18.43 304.30 13.83 306.09 C 12.32 306.76 10.66 306.74 9.05 306.77 C 8.07 303.06 6.16 299.67 5.19 295.97 C 4.45 293.75 7.20 293.20 8.62 292.49 Z" />
</g>
<g id="#dec5e3ff">
<path fill="#dec5e3" opacity="1.00" d=" M 320.36 287.99 C 320.79 288.25 321.65 288.77 322.08 289.03 C 321.72 290.16 321.35 291.28 320.97 292.40 C 319.77 294.58 317.93 296.30 316.14 297.99 C 315.50 297.14 315.04 296.23 314.76 295.25 C 316.62 292.83 318.67 290.55 320.36 287.99 Z" />
</g>
<g id="#adbe4eff">
<path fill="#adbe4e" opacity="1.00" d=" M 402.32 301.36 C 403.70 300.91 405.35 300.02 406.59 301.33 C 408.41 304.76 409.60 308.49 410.97 312.12 C 409.35 312.33 408.52 313.82 408.14 315.27 C 407.92 315.41 407.46 315.68 407.23 315.82 C 406.70 315.58 405.64 315.08 405.11 314.83 C 400.55 312.40 396.92 308.60 393.58 304.73 C 396.51 303.66 399.38 302.43 402.32 301.36 Z" />
</g>
<g id="#e7cbedff">
<path fill="#e7cbed" opacity="1.00" d=" M 291.30 307.17 C 295.26 305.40 298.90 302.85 303.15 301.75 C 303.07 302.26 302.90 303.30 302.81 303.82 C 299.86 305.71 296.54 306.95 293.48 308.65 C 290.98 309.80 288.57 311.81 285.64 311.22 C 286.72 308.96 289.26 308.27 291.30 307.17 Z" />
</g>
<g id="#f6fe97ff">
<path fill="#f6fe97" opacity="1.00" d=" M 25.73 310.74 C 27.48 310.16 29.77 308.87 31.34 310.50 C 33.11 313.89 34.22 317.57 35.81 321.04 C 30.61 325.00 24.12 326.86 17.89 328.54 C 16.68 325.59 15.44 322.65 14.40 319.64 C 14.11 318.32 13.06 316.49 14.50 315.48 C 18.02 313.43 22.01 312.36 25.73 310.74 Z" />
</g>
<g id="#879637ff">
<path fill="#879637" opacity="1.00" d=" M 408.14 315.27 C 408.52 313.82 409.35 312.33 410.97 312.12 C 411.82 313.93 409.67 315.14 408.14 315.27 Z" />
</g>
<g id="#76802fff">
<path fill="#76802f" opacity="1.00" d=" M 393.98 320.01 C 394.28 318.71 396.63 318.39 396.94 319.84 C 396.20 319.88 394.72 319.97 393.98 320.01 Z" />
</g>
<g id="#c9ce85ff">
<path fill="#c9ce85" opacity="1.00" d=" M 35.81 321.04 C 35.94 322.10 36.16 323.37 34.95 323.92 C 30.70 326.31 25.89 327.48 21.53 329.66 C 20.45 329.59 19.37 329.52 18.29 329.41 L 17.89 328.54 C 24.12 326.86 30.61 325.00 35.81 321.04 Z" />
</g>
<g id="#e4b2bdff">
<path fill="#e4b2bd" opacity="1.00" d=" M 405.00 326.04 C 408.55 325.02 412.24 321.96 416.00 323.76 L 416.00 338.08 C 411.83 339.71 407.79 342.10 403.29 342.60 C 400.22 339.33 398.99 334.31 397.88 329.98 C 399.27 327.48 402.65 327.28 405.00 326.04 Z" />
</g>
<g id="#e5b2bdff">
<path fill="#e5b2bd" opacity="1.00" d=" M 0.00 325.47 C 1.43 328.58 3.33 331.58 3.87 335.03 C 3.92 337.10 1.27 337.41 0.00 338.48 L 0.00 325.47 Z" />
</g>
<g id="#9da1a4ff">
<path fill="#9da1a4" opacity="1.00" d=" M 6.41 326.50 C 8.77 326.50 11.08 327.03 13.27 327.91 C 13.39 328.19 13.64 328.75 13.77 329.03 C 14.58 330.99 15.46 332.96 15.79 335.08 C 15.45 337.23 12.63 337.08 10.97 337.34 C 9.01 333.93 7.93 330.11 6.41 326.50 Z" />
</g>
<g id="#adbd50ff">
<path fill="#adbd50" opacity="1.00" d=" M 115.07 344.96 C 118.75 343.13 122.18 340.80 126.01 339.28 C 128.43 339.24 129.11 342.14 130.21 343.80 C 131.27 346.19 133.40 348.37 133.01 351.16 C 129.68 353.80 125.66 355.46 121.89 357.41 C 119.91 353.11 117.55 348.99 115.07 344.96 Z" />
</g>
<g id="#97c1afff">
<path fill="#97c1af" opacity="1.00" d=" M 112.37 347.09 C 111.61 345.94 114.41 345.70 115.07 344.96 C 117.55 348.99 119.91 353.11 121.89 357.41 L 122.03 357.70 C 111.86 362.92 101.95 368.66 91.85 374.03 C 89.63 370.40 87.66 366.64 85.68 362.89 C 87.01 362.40 88.42 361.55 88.72 360.05 L 89.05 359.01 C 89.50 358.90 90.41 358.67 90.87 358.56 C 98.58 355.80 105.18 350.53 112.77 347.40 L 112.37 347.09 M 111.84 349.69 C 112.47 352.22 113.44 354.93 115.42 356.71 C 117.17 357.09 118.36 355.22 119.33 354.07 C 117.99 354.38 116.66 354.73 115.33 355.08 C 114.36 353.18 113.76 350.90 111.84 349.69 M 106.64 353.09 C 107.97 355.24 108.88 357.86 110.94 359.44 C 112.47 359.21 113.70 358.25 114.51 356.98 C 113.01 357.11 111.23 358.48 109.94 357.09 C 110.29 356.44 111.01 355.14 111.36 354.49 C 110.45 354.62 109.54 354.76 108.62 354.90 C 109.03 353.64 109.66 352.50 110.51 351.48 C 109.23 352.03 107.94 352.56 106.64 353.09 M 100.94 356.61 C 99.74 357.17 97.91 357.09 97.54 358.68 C 96.89 360.00 98.47 360.97 99.00 362.03 C 100.90 361.09 102.85 360.84 104.52 362.44 C 104.91 358.85 101.20 360.16 98.99 360.21 C 99.00 359.71 99.00 358.72 99.00 358.23 C 100.76 358.27 102.24 356.65 103.94 356.93 C 105.34 358.60 106.48 360.48 107.87 362.16 C 108.54 358.83 103.11 356.76 106.11 353.55 C 104.35 354.50 102.78 355.82 100.94 356.61 M 93.84 359.75 C 93.99 360.21 94.28 361.14 94.43 361.61 C 95.24 363.91 96.08 366.30 97.81 368.10 C 97.57 367.07 97.31 366.04 97.03 365.02 C 97.62 365.12 98.80 365.32 99.38 365.42 C 97.86 363.26 96.39 360.81 93.84 359.75 M 89.20 362.95 C 90.08 365.58 91.32 368.13 93.08 370.30 C 92.84 368.95 92.57 367.63 92.28 366.30 C 92.67 365.94 93.45 365.23 93.84 364.87 C 93.99 364.05 94.28 362.42 94.43 361.61 C 92.68 361.64 89.55 360.30 89.20 362.95 M 100.09 363.46 C 99.51 365.82 104.60 365.72 104.04 363.45 C 102.75 363.37 101.37 363.36 100.09 363.46 Z" />
</g>
<g id="#4699a6ff">
<path fill="#4699a6" opacity="1.00" d=" M 111.84 349.69 C 113.76 350.90 114.36 353.18 115.33 355.08 C 116.66 354.73 117.99 354.38 119.33 354.07 C 118.36 355.22 117.17 357.09 115.42 356.71 C 113.44 354.93 112.47 352.22 111.84 349.69 Z" />
</g>
<g id="#f23537ff">
<path fill="#f23537" opacity="1.00" d=" M 239.29 350.52 C 245.19 350.96 251.11 351.17 257.02 351.48 C 256.96 351.93 256.84 352.82 256.78 353.26 C 256.69 353.64 256.53 354.39 256.45 354.77 C 251.01 351.58 244.42 352.62 238.44 352.95 C 238.65 352.34 239.07 351.13 239.29 350.52 Z" />
</g>
<g id="#4097a5ff">
<path fill="#4097a5" opacity="1.00" d=" M 106.64 353.09 C 107.94 352.56 109.23 352.03 110.51 351.48 C 109.66 352.50 109.03 353.64 108.62 354.90 C 109.54 354.76 110.45 354.62 111.36 354.49 C 111.01 355.14 110.29 356.44 109.94 357.09 C 111.23 358.48 113.01 357.11 114.51 356.98 C 113.70 358.25 112.47 359.21 110.94 359.44 C 108.88 357.86 107.97 355.24 106.64 353.09 Z" />
</g>
<g id="#ef454bff">
<path fill="#ef454b" opacity="1.00" d=" M 237.92 353.75 C 238.05 353.55 238.31 353.15 238.44 352.95 C 244.42 352.62 251.01 351.58 256.45 354.77 L 256.20 355.90 C 250.18 354.63 244.06 354.02 237.92 353.75 Z" />
</g>
<g id="#e22323ff">
<path fill="#e22323" opacity="1.00" d=" M 283.40 360.96 C 285.12 358.64 283.71 354.49 286.63 353.06 C 286.43 354.04 286.21 355.02 285.99 355.99 C 287.18 356.18 288.36 356.41 289.54 356.68 C 290.50 357.06 291.45 357.47 292.40 357.91 C 290.18 357.94 287.97 357.60 285.81 357.16 C 285.32 358.13 284.83 359.11 284.33 360.09 C 286.61 360.65 288.89 361.24 291.14 361.89 C 290.61 362.27 289.54 363.03 289.00 363.41 C 289.34 364.23 289.69 365.06 290.04 365.89 C 289.08 365.67 288.12 365.45 287.16 365.25 C 285.67 364.69 283.53 364.97 282.75 363.26 C 284.54 363.16 286.34 363.08 288.14 363.04 C 287.00 361.58 285.01 361.56 283.40 360.96 Z" />
<path fill="#e22323" opacity="1.00" d=" M 280.52 366.30 L 281.24 365.94 C 282.87 366.02 284.53 366.12 286.15 366.49 C 287.59 366.90 289.01 367.40 290.41 367.95 C 287.00 368.29 283.76 367.12 280.52 366.30 Z" />
<path fill="#e22323" opacity="1.00" d=" M 281.06 370.26 C 284.05 369.96 287.20 369.40 290.10 370.52 C 289.23 370.68 287.49 371.00 286.62 371.16 C 287.38 372.08 288.16 373.01 288.92 373.95 C 286.15 373.07 283.41 371.99 281.06 370.26 Z" />
<path fill="#e22323" opacity="1.00" d=" M 281.11 372.76 C 283.75 372.59 285.28 374.34 285.35 376.88 C 285.90 376.97 286.98 377.16 287.53 377.26 L 287.94 378.53 C 286.47 378.17 285.02 377.78 283.55 377.49 C 282.63 377.25 280.78 376.77 279.85 376.53 C 280.26 375.27 280.68 374.01 281.11 372.76 M 282.15 374.15 C 280.43 374.54 281.63 376.61 282.99 376.12 C 284.80 375.93 283.48 373.49 282.15 374.15 Z" />
<path fill="#e22323" opacity="1.00" d=" M 179.35 376.04 C 181.30 376.19 183.47 375.62 185.23 376.73 C 187.59 378.00 189.03 380.34 190.49 382.50 C 189.02 381.68 187.69 380.38 185.91 380.43 C 186.73 381.11 187.56 381.78 188.40 382.45 C 188.68 384.01 188.96 385.57 189.22 387.15 C 189.62 385.46 190.05 383.77 190.81 382.20 C 191.24 383.73 191.63 385.28 191.99 386.83 C 191.62 388.20 191.19 389.56 190.79 390.93 C 190.34 390.42 189.46 389.39 189.02 388.88 L 188.55 388.39 C 185.77 387.94 182.95 387.82 180.13 387.79 C 181.67 384.85 183.68 381.71 182.77 378.24 C 181.69 377.41 180.55 376.68 179.35 376.04 Z" />
</g>
<g id="#4299a5ff">
<path fill="#4299a5" opacity="1.00" d=" M 100.94 356.61 C 102.78 355.82 104.35 354.50 106.11 353.55 C 103.11 356.76 108.54 358.83 107.87 362.16 C 106.48 360.48 105.34 358.60 103.94 356.93 C 102.24 356.65 100.76 358.27 99.00 358.23 C 99.00 358.72 99.00 359.71 98.99 360.21 C 101.20 360.16 104.91 358.85 104.52 362.44 C 102.85 360.84 100.90 361.09 99.00 362.03 C 98.47 360.97 96.89 360.00 97.54 358.68 C 97.91 357.09 99.74 357.17 100.94 356.61 Z" />
</g>
<g id="#cd4049ff">
<path fill="#cd4049" opacity="1.00" d=" M 237.92 353.75 C 244.06 354.02 250.18 354.63 256.20 355.90 L 255.94 356.97 C 250.15 356.13 244.35 354.68 238.46 355.09 C 239.95 355.71 241.47 356.25 243.03 356.68 C 241.12 356.94 239.21 357.23 237.37 357.79 C 237.56 356.44 237.76 355.09 237.92 353.75 Z" />
</g>
<g id="#dd4148ff">
<path fill="#dd4148" opacity="1.00" d=" M 238.46 355.09 C 244.35 354.68 250.15 356.13 255.94 356.97 C 255.81 357.51 255.55 358.59 255.42 359.13 C 254.01 359.08 252.61 359.03 251.21 359.00 C 251.85 359.73 252.50 360.47 253.14 361.21 C 251.83 361.23 250.51 361.23 249.20 361.25 C 249.37 361.74 249.72 362.71 249.89 363.20 C 245.42 361.98 241.11 360.27 236.73 358.77 L 237.37 357.79 C 239.21 357.23 241.12 356.94 243.03 356.68 C 241.47 356.25 239.95 355.71 238.46 355.09 Z" />
</g>
<g id="#d13c49ff">
<path fill="#d13c49" opacity="1.00" d=" M 236.73 358.77 C 241.11 360.27 245.42 361.98 249.89 363.20 C 249.72 362.71 249.37 361.74 249.20 361.25 C 250.51 361.23 251.83 361.23 253.14 361.21 C 252.50 360.47 251.85 359.73 251.21 359.00 C 252.61 359.03 254.01 359.08 255.42 359.13 C 254.80 361.78 254.23 364.45 253.64 367.11 C 253.51 367.68 253.26 368.81 253.13 369.37 C 247.62 366.94 242.10 364.54 236.72 361.85 C 236.72 361.08 236.73 359.54 236.73 358.77 Z" />
</g>
<g id="#87ab96ff">
<path fill="#87ab96" opacity="1.00" d=" M 85.12 361.84 C 85.45 360.52 87.47 359.56 88.72 360.05 C 88.42 361.55 87.01 362.40 85.68 362.89 C 85.54 362.63 85.26 362.11 85.12 361.84 Z" />
</g>
<g id="#3a94a5ff">
<path fill="#3a94a5" opacity="1.00" d=" M 93.84 359.75 C 96.39 360.81 97.86 363.26 99.38 365.42 C 98.80 365.32 97.62 365.12 97.03 365.02 C 97.31 366.04 97.57 367.07 97.81 368.10 C 96.08 366.30 95.24 363.91 94.43 361.61 C 94.28 361.14 93.99 360.21 93.84 359.75 Z" />
</g>
<g id="#469aa6ff">
<path fill="#469aa6" opacity="1.00" d=" M 89.20 362.95 C 89.55 360.30 92.68 361.64 94.43 361.61 C 94.28 362.42 93.99 364.05 93.84 364.87 C 93.45 365.23 92.67 365.94 92.28 366.30 C 92.57 367.63 92.84 368.95 93.08 370.30 C 91.32 368.13 90.08 365.58 89.20 362.95 M 91.17 362.56 C 90.10 363.39 91.32 365.62 92.56 364.65 C 93.56 363.80 92.34 361.78 91.17 362.56 Z" />
</g>
<g id="#aebe51ff">
<path fill="#aebe51" opacity="1.00" d=" M 76.83 366.13 C 79.50 364.54 82.08 362.68 85.12 361.84 C 85.26 362.11 85.54 362.63 85.68 362.89 C 87.66 366.64 89.63 370.40 91.85 374.03 C 89.30 375.45 86.84 377.08 84.09 378.10 C 81.98 378.36 81.35 376.04 80.46 374.67 C 79.11 371.89 76.99 369.34 76.83 366.13 Z" />
</g>
<g id="#97c2adff">
<path fill="#97c2ad" opacity="1.00" d=" M 91.17 362.56 C 92.34 361.78 93.56 363.80 92.56 364.65 C 91.32 365.62 90.10 363.39 91.17 362.56 Z" />
</g>
<g id="#3595a9ff">
<path fill="#3595a9" opacity="1.00" d=" M 100.09 363.46 C 101.37 363.36 102.75 363.37 104.04 363.45 C 104.60 365.72 99.51 365.82 100.09 363.46 Z" />
</g>
<g id="#6e5d61ff">
<path fill="#6e5d61" opacity="1.00" d=" M 329.22 364.00 C 330.43 363.37 333.27 363.10 333.72 364.64 C 332.47 365.22 329.84 365.32 329.22 364.00 Z" />
</g>
<g id="#6f5e61ff">
<path fill="#6f5e61" opacity="1.00" d=" M 328.26 366.15 C 329.46 365.50 332.23 365.24 332.78 366.68 C 331.55 367.24 328.77 367.57 328.26 366.15 Z" />
</g>
<g id="#726667ff">
<path fill="#726667" opacity="1.00" d=" M 327.15 368.32 C 329.02 367.24 331.70 367.33 333.25 368.97 L 333.15 369.40 C 331.09 369.55 329.04 369.12 327.15 368.32 Z" />
</g>
<g id="#75686bff">
<path fill="#75686b" opacity="1.00" d=" M 326.20 373.25 C 328.17 372.58 330.33 373.05 331.95 374.34 L 331.85 374.77 C 329.87 375.06 327.61 374.83 326.20 373.25 Z" />
</g>
<g id="#fffeffff">
<path fill="#fffeff" opacity="1.00" d=" M 282.15 374.15 C 283.48 373.49 284.80 375.93 282.99 376.12 C 281.63 376.61 280.43 374.54 282.15 374.15 Z" />
<path fill="#fffeff" opacity="1.00" d=" M 0.00 409.71 C 2.02 411.89 4.12 414.00 6.33 416.00 L 0.00 416.00 L 0.00 409.71 Z" />
</g>
<g id="#726769ff">
<path fill="#726769" opacity="1.00" d=" M 326.08 376.10 C 327.85 375.45 329.99 375.57 331.33 377.05 L 331.21 377.49 C 329.40 377.66 327.47 377.35 326.08 376.10 Z" />
</g>
<g id="#b72121ff">
<path fill="#b72121" opacity="1.00" d=" M 179.35 376.04 C 180.55 376.68 181.69 377.41 182.77 378.24 C 183.68 381.71 181.67 384.85 180.13 387.79 C 182.95 387.82 185.77 387.94 188.55 388.39 L 189.02 388.88 C 188.05 389.19 187.09 389.51 186.12 389.82 C 183.46 388.64 180.54 388.84 177.71 388.78 C 176.95 388.50 175.43 387.94 174.68 387.66 C 176.41 386.38 178.36 385.39 179.95 383.91 C 182.05 381.59 179.73 378.55 179.35 376.04 Z" />
</g>
<g id="#cbbdbdff">
<path fill="#cbbdbd" opacity="1.00" d=" M 277.51 377.65 C 279.52 377.68 281.54 377.59 283.55 377.49 C 285.02 377.78 286.47 378.17 287.94 378.53 C 295.65 380.28 303.82 380.80 311.61 379.20 C 310.94 381.69 310.30 384.20 309.67 386.71 C 300.45 384.58 291.25 382.41 282.03 380.29 C 280.87 379.82 279.22 380.00 278.41 378.94 C 278.18 378.62 277.73 377.97 277.51 377.65 Z" />
</g>
<g id="#74696bff">
<path fill="#74696b" opacity="1.00" d=" M 324.28 383.30 C 325.69 382.98 328.26 383.39 328.78 384.85 C 327.45 385.58 324.30 385.03 324.28 383.30 Z" />
</g>
<g id="#7b6f71ff">
<path fill="#7b6f71" opacity="1.00" d=" M 323.13 385.07 C 325.13 385.70 327.13 386.34 329.14 386.96 L 328.85 388.21 C 327.05 387.81 325.26 387.34 323.47 386.92 C 324.85 387.90 326.74 388.41 327.69 389.88 C 326.03 390.43 324.42 389.43 322.83 389.08 C 322.93 387.74 323.03 386.41 323.13 385.07 Z" />
</g>
<g id="#a076a4ff">
<path fill="#a076a4" opacity="1.00" d=" M 409.54 389.33 C 411.38 387.81 413.40 385.80 416.00 386.80 L 416.00 392.89 C 414.20 396.32 410.51 398.04 408.35 401.19 C 407.45 400.24 406.53 399.32 405.65 398.36 C 408.37 396.53 411.05 394.56 413.10 391.98 C 413.46 391.48 414.19 390.49 414.55 390.00 C 412.88 389.71 411.21 389.58 409.54 389.33 Z" />
</g>
<g id="#886d8cff">
<path fill="#886d8c" opacity="1.00" d=" M 0.00 388.26 C 0.98 388.35 1.75 388.83 2.30 389.72 C 1.66 390.54 0.90 391.24 0.00 391.81 L 0.00 388.26 Z" />
</g>
<g id="#ddc5e3ff">
<path fill="#ddc5e3" opacity="1.00" d=" M 407.00 391.65 C 407.82 390.84 408.66 390.06 409.54 389.33 C 411.21 389.58 412.88 389.71 414.55 390.00 C 414.19 390.49 413.46 391.48 413.10 391.98 C 411.78 392.34 410.46 392.67 409.14 392.99 C 408.60 392.65 407.54 391.98 407.00 391.65 Z" />
</g>
<g id="#a482a8ff">
<path fill="#a482a8" opacity="1.00" d=" M 0.00 391.81 C 0.90 391.24 1.66 390.54 2.30 389.72 C 4.15 391.79 6.13 393.76 8.01 395.81 C 5.29 398.20 2.63 400.67 0.00 403.17 L 0.00 391.81 Z" />
</g>
<g id="#1d1d1dff">
<path fill="#1d1d1d" opacity="1.00" d=" M 171.96 403.82 C 174.29 399.68 172.03 393.93 176.13 390.66 C 175.00 395.43 174.80 400.35 175.74 405.17 L 174.88 405.44 C 174.42 405.28 173.50 404.97 173.04 404.81 C 172.77 404.56 172.23 404.07 171.96 403.82 Z" />
<path fill="#1d1d1d" opacity="1.00" d=" M 179.72 407.06 C 184.04 404.09 185.31 398.80 187.99 394.59 C 188.42 399.49 187.05 405.65 181.99 407.69 C 181.42 407.53 180.29 407.21 179.72 407.06 Z" />
</g>
<g id="#a884aaff">
<path fill="#a884aa" opacity="1.00" d=" M 407.00 391.65 C 407.54 391.98 408.60 392.65 409.14 392.99 C 410.46 392.67 411.78 392.34 413.10 391.98 C 411.05 394.56 408.37 396.53 405.65 398.36 C 402.87 396.18 405.04 393.43 407.00 391.65 Z" />
</g>
<g id="#e3c8e9ff">
<path fill="#e3c8e9" opacity="1.00" d=" M 0.00 403.17 C 2.63 400.67 5.29 398.20 8.01 395.81 C 14.12 402.66 20.82 408.97 26.74 416.00 L 21.01 416.00 C 21.01 415.24 20.99 413.71 20.99 412.95 C 19.60 412.64 17.88 411.27 16.64 412.66 C 15.90 413.71 15.33 414.87 14.70 416.00 L 11.43 416.00 C 12.25 413.10 14.78 411.22 16.28 408.71 C 14.15 410.19 12.42 412.12 10.77 414.11 C 9.85 413.44 8.93 412.78 8.01 412.13 C 9.74 410.35 11.44 408.53 13.05 406.64 C 10.46 404.42 8.27 401.77 5.66 399.58 C 6.31 400.69 6.99 401.79 7.68 402.89 C 5.90 404.54 4.13 406.23 2.68 408.19 C 4.98 406.77 6.98 404.95 8.91 403.08 C 10.19 404.97 12.76 406.99 10.06 409.01 C 9.51 408.49 8.43 407.45 7.89 406.94 C 8.39 408.43 9.50 410.13 7.67 411.18 C 6.70 410.28 5.71 409.40 4.70 408.54 C 6.45 411.39 8.88 413.73 11.31 416.00 L 6.33 416.00 C 4.12 414.00 2.02 411.89 0.00 409.71 L 0.00 403.17 Z" />
</g>
<g id="#d9c4deff">
<path fill="#d9c4de" opacity="1.00" d=" M 413.03 406.29 C 414.02 405.37 415.03 404.46 416.00 403.51 L 416.00 409.58 C 415.03 408.45 414.02 407.38 413.03 406.29 Z" />
</g>
<g id="#b8b8b8ff">
<path fill="#b8b8b8" opacity="1.00" d=" M 173.04 404.81 C 173.50 404.97 174.42 405.28 174.88 405.44 C 176.06 405.84 177.24 406.24 178.43 406.64 C 175.16 408.36 171.58 410.37 170.21 414.03 C 170.78 414.72 171.39 415.38 172.04 416.00 L 166.71 416.00 C 168.69 412.20 170.82 408.48 173.04 404.81 Z" />
</g>
<g id="#f9cb7aff">
<path fill="#f9cb7a" opacity="1.00" d=" M 358.93 407.14 C 359.40 407.28 360.35 407.57 360.82 407.72 C 359.30 410.43 358.03 413.27 356.54 416.00 L 353.65 416.00 C 355.14 412.89 356.65 409.76 358.93 407.14 Z" />
</g>
<g id="#c76650ff">
<path fill="#c76650" opacity="1.00" d=" M 360.82 407.72 C 361.15 407.82 361.81 408.03 362.13 408.14 C 360.67 410.73 359.32 413.40 357.85 416.00 L 356.54 416.00 C 358.03 413.27 359.30 410.43 360.82 407.72 Z" />
</g>
<g id="#facf80ff">
<path fill="#facf80" opacity="1.00" d=" M 362.13 408.14 C 364.03 408.77 365.93 409.52 367.33 411.03 C 365.93 412.19 364.73 414.16 365.59 416.00 L 361.57 416.00 C 362.77 414.18 363.84 412.26 364.63 410.22 C 362.41 411.34 361.90 414.06 360.62 416.00 L 357.85 416.00 C 359.32 413.40 360.67 410.73 362.13 408.14 Z" />
</g>
<g id="#cc6d59ff">
<path fill="#cc6d59" opacity="1.00" d=" M 367.33 411.03 C 367.56 411.25 368.01 411.68 368.23 411.89 C 367.57 413.29 366.60 414.54 366.09 416.00 L 365.59 416.00 C 364.73 414.16 365.93 412.19 367.33 411.03 Z" />
</g>
<g id="#569ab3ff">
<path fill="#569ab3" opacity="1.00" d=" M 16.64 412.66 C 17.88 411.27 19.60 412.64 20.99 412.95 C 20.99 413.71 21.01 415.24 21.01 416.00 L 19.78 416.00 C 20.17 414.81 19.84 413.88 18.80 413.22 C 17.26 412.69 16.51 414.91 17.21 416.00 L 14.70 416.00 C 15.33 414.87 15.90 413.71 16.64 412.66 Z" />
</g>
<g id="#f7c368ff">
<path fill="#f7c368" opacity="1.00" d=" M 368.23 411.89 C 369.66 412.97 369.49 415.37 367.71 416.00 L 366.09 416.00 C 366.60 414.54 367.57 413.29 368.23 411.89 Z" />
</g>
<g id="#e7caecff">
<path fill="#e7caec" opacity="1.00" d=" M 17.21 416.00 C 16.51 414.91 17.26 412.69 18.80 413.22 C 19.84 413.88 20.17 414.81 19.78 416.00 L 17.21 416.00 Z" />
</g>
</svg>
