<svg xmlns="http://www.w3.org/2000/svg" xmlns:xlink="http://www.w3.org/1999/xlink" width="800" height="800"><style>.B{fill:#fff}.C{fill:#050505}.D{stroke:#4aabed}.E{stroke:#ff7415}.F{stroke:#ffbd17}.G{stroke:#94d31a}.H{stroke:#2e9bbc}.I{stroke:#297ecc}.J{stroke:#e5255c}.K{stroke:#31ad45}.L{stroke-miterlimit:10}</style><g fill="none" stroke-width="8" class="L"><path d="M0 28.6h37.1c11 0 26.4 6.3 34.2 14.1L100 71.6a55.6 55.6 0 0114.2 34.1v445.7c0 11 6.3 26.4 14.1 34.2L186 643a55.6 55.6 0 0034.1 14.1h302.9c11 0 20-9 20-20V248.6c0-11 6.3-26.4 14.1-34.2l28.9-28.8a55.7 55.7 0 0014.1-34.2v-45.7c0-11 6.4-26.3 14.1-34.1L643 42.7a55.6 55.6 0 0134.1-14.1H800" class="J"/><path d="M142.9 0v180c0 11 6.3 26.4 14.1 34.1l28.9 28.9a55.6 55.6 0 0034.1 14.1h74.3c11 0 20 9 20 20v274.3c0 11 6.3 26.4 14.1 34.2l28.9 28.8a55.7 55.7 0 0034.1 14.2H800M142.9 800v-37.1c0-11-6.4-26.4-14.2-34.2l-86-86a49 49 0 00-28.4-14.1H0" class="E"/><path d="M0 771.4h151.4c11 0 26.4-6.3 34.2-14.1l28.8-28.9a55.6 55.6 0 0014.2-34.1V191.4c0-11 9-20 20-20h217.1c11 0 20-9 20-20V0m0 800v-14.3c0-7.8 9-14.3 20-14.3H800" class="F"/><path d="M0 571.4h37.1c11 0 26.4 6.4 34.2 14.2L243 757.3a55.7 55.7 0 0034.1 14.1h131.5c11 0 26.3-6.3 34.1-14.1l28.9-28.9a55.6 55.6 0 0134.1-14.1h45.7c11 0 26.4-6.4 34.2-14.2l28.8-28.8a55.7 55.7 0 0014.2-34.2v-45.7c0-11 9-20 20-20H800" class="G"/><path d="M0 314.3h14.3a49 49 0 0128.4 14.1l28.9 28.9a55.6 55.6 0 0114.1 34.1v102.9c0 11 9 20 20 20H180c11 0 26.4 6.4 34.1 14.1l28.9 28.9a55.6 55.6 0 0034.1 14.1h160c11 0 26.4-6.3 34.2-14.1l28.8-28.9a55.7 55.7 0 0014.2-34.1V420c0-11 9-20 20-20h74.3c11 0 26.3-6.4 34.1-14.1l57.4-57.5a55.7 55.7 0 0134.2-14.1H800" class="K"/><path d="M257.1 800V505.7c0-11 6.4-26.3 14.2-34.1l57.4-57.5A55.6 55.6 0 00343 380V162.9c0-11-6.4-26.4-14.2-34.2l-57.4-57.4A55.6 55.6 0 01257 37V0" stroke="#2cbf9c"/><path d="M800 485.7h-37.1c-11 0-20-9-20-20V0m0 800V677.1c0-11-6.4-26.3-14.2-34.1L614.1 528.4a55.6 55.6 0 00-34.1-14.1H448.6c-11 0-26.4-6.4-34.2-14.2l-.3-.2a55.7 55.7 0 00-34.1-14.2H0" class="H"/><path d="M371.4 800V0" class="I"/><path d="M800 257.1H534.3c-11 0-26.4 6.4-34.2 14.2L471.3 300a55.6 55.6 0 01-34.2 14.2H220c-11 0-26.4-6.4-34.1-14.2L157 271.3a55.7 55.7 0 00-34.1-14.2H0" stroke="#334bc1"/><path d="M571.4 0v294.3c0 11 6.4 26.4 14.2 34.1l86 86a55.7 55.7 0 0114.1 34.2v274.3c0 11-9 20-20 20h-74.3c-11 0-20 9-20 20V800" stroke="#7d44d8"/><path d="M428.6 171.4v342.9" stroke="#b945d6"/><path d="M0 142.9h151.4c11 0 26.4-6.4 34.2-14.2l28.8-28.8a55.7 55.7 0 0134.2-14.2h160c11 0 26.3 6.4 34.1 14.2l.3.2a55.6 55.6 0 0034.1 14.2h160c11 0 26.4 6.4 34.2 14.1l.3.3a55.6 55.6 0 0034.1 14.2H800" stroke="#898989"/><path d="M57.1 771.4V563c0-11 9-20 20-20h74.3c11 0 20-9 20-20V420c0-11-6.3-26.4-14.1-34.1l-57.4-57.5a55.7 55.7 0 01-14.2-34.1V57M543 800v-85.7m0-714.3v37.1c0 11 9 20 20 20h131.4c11 0 20 9 20 20v360c0 11-9 20-20 20H505.7c-11 0-20-9-20-20V420c0-11-6.3-26.4-14.1-34.1L442.7 357a55.6 55.6 0 00-34.1-14.1H305.7c-11 0-20-9-20-20V220c0-11-6.3-26.4-14.1-34.1L242.7 157a55.7 55.7 0 01-14.1-34.1V85.7" class="D"/></g><path d="M428.6 354.6a7.3 7.3 0 110-14.6 7.3 7.3 0 010 14.6" class="B"/><path d="M428.6 337.4a10 10 0 00-10 10 10 10 0 0010 9.9 10 10 0 0010-10 10 10 0 00-10-10zm0 5.3a4.6 4.6 0 014.6 4.6 4.6 4.6 0 01-4.6 4.7 4.6 4.6 0 010-9.3" class="C"/><use xlink:href="#B" class="B"/><use xlink:href="#C" class="C"/><use xlink:href="#D" class="B"/><use xlink:href="#E" class="C"/><use xlink:href="#D" x="-56.8" class="B"/><use xlink:href="#E" x="-56.8" class="C"/><use xlink:href="#B" x="-200" class="B"/><use xlink:href="#C" x="-200" class="C"/><use xlink:href="#F" class="B"/><use xlink:href="#C" x="-200" y="-226.1" class="C"/><use xlink:href="#G" class="B"/><use xlink:href="#E" x="2" y="-171.4" class="C"/><use xlink:href="#G" x="84.1" class="B"/><use xlink:href="#E" x="86.1" y="-171.4" class="C"/><use xlink:href="#H" class="B"/><path d="M257.1 161.5a10 10 0 00-10 10 10 10 0 0010 9.9 10 10 0 0010-10 10 10 0 00-10-10zm0 5.3a4.6 4.6 0 014.7 4.6 4.6 4.6 0 01-4.7 4.7c-2.5 0-4.6-2.1-4.6-4.7a4.6 4.6 0 014.6-4.6" class="C"/><use xlink:href="#H" x="171.4" class="B"/><path d="M428.6 161.5a10 10 0 00-10 10 10 10 0 0010 9.9 10 10 0 0010-10 10 10 0 00-10-10zm0 5.3a4.6 4.6 0 014.6 4.6 4.6 4.6 0 01-4.6 4.7 4.6 4.6 0 010-9.3" class="C"/><use xlink:href="#I" class="B"/><use xlink:href="#J" class="C"/><use xlink:href="#I" x="85.7" y="-57.3" class="B"/><use xlink:href="#J" x="85.7" y="-57.3" class="C"/><use xlink:href="#K" class="B"/><path d="M630.2 47a10 10 0 00-10 10 10 10 0 0010 10 10 10 0 0010-10 10 10 0 00-10-10zm0 5.3A4.6 4.6 0 01635 57a4.6 4.6 0 01-4.7 4.6 4.6 4.6 0 010-9.3" class="C"/><use xlink:href="#F" x="514.3" y="-59.6" class="B"/><path d="M742.9 18.6a10 10 0 00-10 10 10 10 0 0010 10 10 10 0 0010-10 10 10 0 00-10-10zm0 5.3a4.6 4.6 0 014.6 4.7 4.6 4.6 0 01-4.6 4.6 4.6 4.6 0 010-9.3" class="C"/><path d="M87 67.1a7.3 7.3 0 110-14.6 7.3 7.3 0 010 14.6" class="B"/><path d="M87 49.8a10 10 0 00-10 10 10 10 0 0010 10 10 10 0 009.9-10 10 10 0 00-10-10zm0 5.4a4.6 4.6 0 110 9.3 4.6 4.6 0 010-9.3" class="C"/><use xlink:href="#L" class="B"/><path d="M142.9 761.5a10 10 0 00-10 10 10 10 0 0010 9.9 10 10 0 0010-10 10 10 0 00-10-10zm0 5.3a4.6 4.6 0 014.6 4.6 4.6 4.6 0 01-9.3 0 4.6 4.6 0 014.7-4.6" class="C"/><use xlink:href="#L" x="71.3" y="-42.7" class="B"/><use xlink:href="#M" class="C"/><path d="M257.1 774.4a7.3 7.3 0 010-14.6 7.3 7.3 0 017.3 7.3 7.3 7.3 0 01-7.3 7.3" class="B"/><path d="M257.1 757.1a10 10 0 00-10 10 10 10 0 0010 10 10 10 0 0010-10 10 10 0 00-10-10zm0 5.4a4.6 4.6 0 014.7 4.6 4.6 4.6 0 01-9.3 0 4.6 4.6 0 014.6-4.6" class="C"/><use xlink:href="#L" x="228.6" class="B"/><use xlink:href="#M" x="157.2" y="42.7" class="C"/><use xlink:href="#H" x="-28.6" y="485.7" class="B"/><use xlink:href="#N" class="C"/><use xlink:href="#H" y="485.7" class="B"/><use xlink:href="#N" x="28.6" class="C"/><use xlink:href="#O" class="B"/><use xlink:href="#P" class="C"/><use xlink:href="#Q" class="B"/><path d="M542.9 704.3a10 10 0 00-10 10 10 10 0 0010 10 10 10 0 0010-10 10 10 0 00-10-10zm0 5.3a4.6 4.6 0 014.6 4.7 4.6 4.6 0 01-4.6 4.6 4.6 4.6 0 01-4.7-4.6 4.6 4.6 0 014.7-4.7" class="C"/><path d="M571.4 778.7a7.3 7.3 0 01-7.3-7.3 7.3 7.3 0 017.3-7.3 7.3 7.3 0 010 14.6" class="B"/><use xlink:href="#R" class="C"/><use xlink:href="#O" x="200" class="B"/><use xlink:href="#P" x="200" class="C"/><use xlink:href="#L" x="513.9" y="-200" class="B"/><use xlink:href="#R" x="85.4" y="-200" class="C"/><use xlink:href="#Q" y="-85.7" class="B"/><use xlink:href="#S" class="C"/><path d="M371.4 630.6a7.3 7.3 0 01-7.3-7.3 7.3 7.3 0 017.3-7.3 7.3 7.3 0 010 14.6" class="B"/><path d="M371.4 613.4a10 10 0 00-10 10 10 10 0 0010 9.9 10 10 0 0010-10 10 10 0 00-10-10zm0 5.3a4.6 4.6 0 010 9.3 4.6 4.6 0 01-4.6-4.7 4.6 4.6 0 014.6-4.6" class="C"/><use xlink:href="#T" class="B"/><use xlink:href="#P" x="-171.4" y="-114.3" class="C"/><use xlink:href="#T" x="-52.7" y="-85.7" class="B"/><use xlink:href="#P" x="-224.1" y="-200" class="C"/><use xlink:href="#L" x="228.6" y="-200" class="B"/><use xlink:href="#R" x="-200" y="-200" class="C"/><use xlink:href="#T" x="-114.3" y="-90.2" class="B"/><use xlink:href="#P" x="-285.7" y="-204.5" class="C"/><use xlink:href="#T" x="-142.9" y="-116.8" class="B"/><use xlink:href="#P" x="-314.3" y="-231.1" class="C"/><use xlink:href="#T" x="-142.9" y="-171.4" class="B"/><use xlink:href="#P" x="-314.3" y="-285.7" class="C"/><use xlink:href="#K" x="-368.4" y="428.8" class="B"/><path d="M261.8 475.7a10 10 0 00-10 10 10 10 0 0010 10 10 10 0 0010-10 10 10 0 00-10-10zm0 5.4a4.6 4.6 0 014.6 4.6 4.6 4.6 0 01-9.3 0 4.6 4.6 0 014.7-4.6" class="C"/><use xlink:href="#T" x="-56.5" y="-171.4" class="B"/><use xlink:href="#P" x="-227.9" y="-285.7" class="C"/><use xlink:href="#L" x="228.6" y="-285.7" class="B"/><use xlink:href="#R" x="-200" y="-285.7" class="C"/><use xlink:href="#U" class="B"/><use xlink:href="#V" class="C"/><path d="M508.7 521.6a7.3 7.3 0 01-7.3-7.3 7.3 7.3 0 017.3-7.3 7.3 7.3 0 010 14.6" class="B"/><path d="M508.7 504.3a10 10 0 00-10 10 10 10 0 0010 10 10 10 0 0010-10 10 10 0 00-10-10zm0 5.4a4.6 4.6 0 010 9.2 4.6 4.6 0 01-4.7-4.6 4.6 4.6 0 014.7-4.6" class="C"/><use xlink:href="#Q" y="-200" class="B"/><use xlink:href="#S" y="-114.3" class="C"/><use xlink:href="#L" x="542.9" y="-314.3" class="B"/><use xlink:href="#R" x="114.3" y="-314.3" class="C"/><use xlink:href="#U" x="114.3" y="-110" class="B"/><use xlink:href="#V" x="114.3" y="-110" class="C"/><use xlink:href="#Q" x="100" y="-328.6" class="B"/><use xlink:href="#S" x="100" y="-242.9" class="C"/><use xlink:href="#W" class="B"/><use xlink:href="#P" x="171.4" y="-451.9" class="C"/><path d="M571.4 264.4a7.3 7.3 0 01-7.3-7.3 7.3 7.3 0 017.3-7.3 7.3 7.3 0 010 14.6" class="B"/><path d="M571.4 247.2a10 10 0 00-10 10 10 10 0 0010 10 10 10 0 0010-10 10 10 0 00-10-10zm0 5.3a4.6 4.6 0 010 9.3 4.6 4.6 0 01-4.6-4.7 4.6 4.6 0 014.6-4.6" class="C"/><use xlink:href="#W" x="-171.4" y="-62.4" class="B"/><use xlink:href="#P" y="-514.3" class="C"/><use xlink:href="#W" x="28.6" y="-5.2" class="B"/><path d="M742.9 304.3a10 10 0 00-10 10 10 10 0 0010 10 10 10 0 0010-10 10 10 0 00-10-10zm0 5.4a4.6 4.6 0 014.6 4.6 4.6 4.6 0 01-9.3 0 4.6 4.6 0 014.7-4.6" class="C"/><path d="M87 264.4a7.3 7.3 0 01-7.4-7.3 7.3 7.3 0 0114.6 0 7.3 7.3 0 01-7.3 7.3" class="B"/><path d="M87 247.2a10 10 0 00-10 10 10 10 0 0010 10 10 10 0 009.9-10 10 10 0 00-10-10zm0 5.3c2.5 0 4.6 2 4.6 4.6a4.6 4.6 0 01-4.7 4.7 4.6 4.6 0 01-4.6-4.7c0-2.5 2-4.6 4.6-4.6" class="C"/><path d="M114.3 264.4a7.3 7.3 0 01-7.3-7.3 7.3 7.3 0 0114.6 0 7.3 7.3 0 01-7.3 7.3" class="B"/><use xlink:href="#X" class="C"/><path d="M114.3 350.7c-4 0-7.3-3.3-7.3-7.3a7.3 7.3 0 017.3-7.3 7.3 7.3 0 017.3 7.3c0 4-3.3 7.3-7.3 7.3" class="B"/><use xlink:href="#Y" class="C"/><use xlink:href="#Z" class="B"/><use xlink:href="#X" y="257.1" class="C"/><use xlink:href="#a" class="B"/><use xlink:href="#Y" y="142.3" class="C"/><path d="M85.6 493c-4 0-7.3-3.3-7.3-7.3a7.3 7.3 0 017.3-7.3 7.3 7.3 0 010 14.6" class="B"/><path d="M85.6 475.7a10 10 0 00-10 10 10 10 0 0010 10 10 10 0 0010-10 10 10 0 00-10-10zm0 5.4a4.6 4.6 0 014.6 4.6 4.6 4.6 0 01-9.2 0 4.6 4.6 0 014.6-4.6" class="C"/><use xlink:href="#a" y="57.9" class="B"/><use xlink:href="#Y" y="200.2" class="C"/><path d="M57.1 584.2a7.3 7.3 0 110-14.6 7.3 7.3 0 010 14.6" class="B"/><path d="M57.1 567a10 10 0 00-10 10 10 10 0 0010 10 10 10 0 0010-10 10 10 0 00-10-10zm0 5.3a4.6 4.6 0 110 9.3 4.6 4.6 0 010-9.3" class="C"/><use xlink:href="#Z" x="-57.1" y="140.6" class="B"/><use xlink:href="#X" x="-57.1" y="397.8" class="C"/><path d="M57.1 778.7a7.3 7.3 0 110-14.6 7.3 7.3 0 010 14.6" class="B"/><use xlink:href="#Y" x="-57.1" y="428.1" class="C"/><path d="M371.4 350.2a7.3 7.3 0 01-7.3-7.3 7.2 7.2 0 013-5.9l1-.8V321l-1-.8a7.2 7.2 0 01-3-5.8 7.3 7.3 0 017.3-7.3 7.3 7.3 0 014.8 12.8l-1 .8v16l1 .7a7.3 7.3 0 012.5 5.6c0 4-3.2 7.3-7.3 7.3" class="B"/><path d="M371.4 304.3a10 10 0 00-10 10 10 10 0 004 8v12.6a10 10 0 00-4 8 10 10 0 0010 10 10 10 0 0010-10c0-3-1.4-5.8-3.5-7.6v-13.4a10 10 0 003.5-7.6 10 10 0 00-10-10zm0 5.3a4.6 4.6 0 013 8.2l-1.8 1.6v18.3l1.8 1.6a4.6 4.6 0 011.7 3.6c0 2.5-2.1 4.6-4.7 4.6a4.6 4.6 0 01-4.6-4.6c0-1.5.7-2.9 1.9-3.7l2-1.6v-18l-2-1.6a4.6 4.6 0 01-2-3.7 4.6 4.6 0 014.7-4.7" class="C"/><path d="M686 607.3a7.3 7.3 0 01-4.3-13.1l1-.8V578l-1-.8a7.2 7.2 0 01-3-5.9 7.3 7.3 0 017.4-7.3 7.3 7.3 0 017.3 7.3c0 2.2-1 4.2-2.6 5.6l-1 .8v15.9l1 .8a7.3 7.3 0 012.6 5.5 7.3 7.3 0 01-7.3 7.3" class="B"/><path d="M686 561.5a10 10 0 00-10 10 10 10 0 004.1 7.9V592a10 10 0 00-4 8 10 10 0 0010 10 10 10 0 0010-10c0-3-1.4-5.7-3.6-7.6V579a10 10 0 003.5-7.6 10 10 0 00-10-10zm0 5.3a4.6 4.6 0 014.7 4.6c0 1.4-.6 2.7-1.6 3.5l-1.9 1.6V595l1.9 1.6c1 .9 1.6 2.2 1.6 3.5a4.6 4.6 0 01-4.6 4.6 4.6 4.6 0 01-2.8-8.3l2.1-1.6v-18l-2.1-1.6a4.6 4.6 0 01-1.9-3.7c0-2.5 2.1-4.6 4.7-4.6" class="C"/><path d="M171.4 519.5a7.3 7.3 0 01-7.3-7.3c0-2.3 1.1-4.4 3-5.8l1-.8v-15.3l-1-.8a7.2 7.2 0 01-3-5.9 7.3 7.3 0 017.3-7.3 7.3 7.3 0 014.8 12.9l-1 .8v15.9l1 .8a7.3 7.3 0 012.5 5.5c0 4-3.2 7.3-7.3 7.3" class="B"/><path d="M171.4 473.7a10 10 0 00-10 10 10 10 0 004 7.9v12.6a10 10 0 00-4 8 10 10 0 0010 10 10 10 0 0010-10c0-3-1.4-5.7-3.5-7.6v-13.4a10 10 0 003.5-7.6 10 10 0 00-10-10zm0 5.3c2.6 0 4.7 2 4.7 4.6a4.6 4.6 0 01-1.7 3.6l-1.8 1.5v18.4l1.8 1.6a4.6 4.6 0 01-3 8.1 4.6 4.6 0 01-4.6-4.6 4.6 4.6 0 011.9-3.7l2-1.6v-18l-2-1.6a4.6 4.6 0 01-2-3.7 4.6 4.6 0 014.7-4.6" class="C"/><path d="M543.3 464.4c-2.3 0-4.4-1-5.8-2.9l-.8-1h-15.3l-.8 1a7.3 7.3 0 01-5.9 3 7.3 7.3 0 010-14.7 7.3 7.3 0 015.6 2.6l.8 1H537l.8-1a7.3 7.3 0 115.5 12" class="B"/><path d="M543.3 447.2a10 10 0 00-7.6 3.5h-13.4a10 10 0 00-7.6-3.5 10 10 0 00-10 10 10 10 0 0010 10 10 10 0 008-4h12.6a10 10 0 008 4 10 10 0 0010-10 10 10 0 00-10-10zm0 5.3a4.6 4.6 0 014.6 4.6 4.6 4.6 0 01-4.6 4.7c-1.5 0-2.8-.7-3.7-1.9l-1.6-2.1h-18l-1.6 2.1a4.6 4.6 0 01-8.3-2.8 4.6 4.6 0 014.6-4.6c1.4 0 2.7.6 3.5 1.6l1.6 1.9h18.4l1.6-1.9c.9-1 2.1-1.6 3.5-1.6" class="C"/><path d="M742.9 264.4c-2.4 0-4.5-1-5.9-2.9l-.8-1H721l-.8 1a7.3 7.3 0 11-.3-9.1l.8 1h16l.7-1a7.3 7.3 0 115.6 12" class="B"/><path d="M742.9 247.2a10 10 0 00-7.6 3.5h-13.4a10 10 0 00-7.6-3.5 10 10 0 00-10 10 10 10 0 0010 10 10 10 0 008-4h12.6a10 10 0 008 4 10 10 0 0010-10 10 10 0 00-10-10zm0 5.3a4.6 4.6 0 014.6 4.6 4.6 4.6 0 01-4.6 4.7c-1.5 0-2.9-.7-3.8-1.9l-1.6-2.1h-18l-1.5 2.1a4.6 4.6 0 01-3.7 1.9 4.6 4.6 0 01-4.7-4.7 4.6 4.6 0 018.2-3l1.6 1.9h18.3l1.6-1.9a4.6 4.6 0 013.6-1.6" class="C"/><path d="M742.9 150.2c-2.4 0-4.5-1.1-5.9-3l-.8-1H721l-.8 1a7.3 7.3 0 11-.3-9.1l.8 1h16l.7-1a7.3 7.3 0 115.6 12" class="B"/><path d="M742.9 132.9a10 10 0 00-7.6 3.5h-13.4a10 10 0 00-7.6-3.5 10 10 0 00-10 10 10 10 0 0010 10 10 10 0 008-4h12.6a10 10 0 008 4 10 10 0 0010-10 10 10 0 00-10-10zm0 5.3a4.6 4.6 0 014.6 4.7 4.6 4.6 0 01-4.6 4.6c-1.5 0-2.9-.7-3.8-1.9l-1.6-2.1h-18l-1.5 2.1a4.6 4.6 0 01-8.3-2.8 4.6 4.6 0 014.6-4.6c1.3 0 2.6.6 3.5 1.7l1.6 1.8h18.3l1.6-1.8c1-1 2.2-1.7 3.6-1.7" class="C"/><path d="M600 121.6a7.3 7.3 0 01-5.8-3l-.8-1H578l-.8 1a7.3 7.3 0 11-.3-9.1l.8 1h15.9l.8-1a7.3 7.3 0 015.5-2.5 7.3 7.3 0 010 14.6" class="B"/><path d="M600 104.3a10 10 0 00-7.6 3.5H579a10 10 0 00-7.6-3.5 10 10 0 00-10 10 10 10 0 0010 10 10 10 0 008-4H592a10 10 0 008 4 10 10 0 0010-10 10 10 0 00-10-10zm0 5.4a4.6 4.6 0 014.6 4.6 4.6 4.6 0 01-8.3 2.8l-1.6-2.2h-18l-1.6 2.2a4.6 4.6 0 01-3.7 1.8 4.6 4.6 0 01-4.6-4.6 4.6 4.6 0 014.6-4.6c1.4 0 2.7.5 3.5 1.6l1.6 1.8H595l1.6-1.8c.9-1 2.1-1.6 3.5-1.6" class="C"/><path d="M713.3 635.9a7.2 7.2 0 01-5.8-3l-.8-1h-15.3l-.8 1a7.3 7.3 0 11-.3-9.1l.8 1H707l.8-1a7.3 7.3 0 115.5 12" class="B"/><path d="M713.3 618.6a10 10 0 00-7.6 3.5h-13.4a10 10 0 00-7.6-3.5 10 10 0 00-10 10 10 10 0 0010 10 10 10 0 008-4h12.6a10 10 0 008 4 10 10 0 0010-10 10 10 0 00-10-10zm0 5.3a4.6 4.6 0 014.6 4.7 4.6 4.6 0 01-4.6 4.6c-1.5 0-2.8-.7-3.7-1.9l-1.6-2.1h-18l-1.6 2.1a4.6 4.6 0 01-3.7 2 4.6 4.6 0 01-4.6-4.7 4.6 4.6 0 018.1-3l1.6 1.8h18.4l1.6-1.8c.9-1 2.2-1.7 3.5-1.7" class="C"/><path d="M371.4 178.7a7.2 7.2 0 01-5.8-2.9l-.8-1h-15.3l-.8 1a7.3 7.3 0 01-13.1-4.4 7.3 7.3 0 017.3-7.3 7.3 7.3 0 015.5 2.6l.8 1h15.9l.8-1a7.3 7.3 0 015.5-2.6 7.3 7.3 0 017.3 7.3c0 4-3.2 7.3-7.3 7.3" class="B"/><path d="M371.4 161.5a10 10 0 00-7.5 3.5h-13.5a10 10 0 00-7.5-3.5 10 10 0 00-10 10 10 10 0 0018 5.9h12.6a10 10 0 0017.9-6 10 10 0 00-10-10zm0 5.3a4.6 4.6 0 014.7 4.6 4.6 4.6 0 01-8.4 2.8l-1.6-2.1h-18l-1.5 2.1a4.6 4.6 0 01-8.3-2.8 4.6 4.6 0 014.6-4.6c1.3 0 2.6.6 3.5 1.6l1.6 1.9h18.3l1.6-1.9c.9-1 2.2-1.6 3.5-1.6" class="C"/><path d="M143 150.2c-2.3 0-4.5-1-5.9-3l-.8-1h-15l-.8 1a7.2 7.2 0 01-5.8 3h-.4a7.2 7.2 0 01-5.7-3l-.8-1H92.7l-.8 1a7.2 7.2 0 01-5.8 3 7.3 7.3 0 01-7.3-7.3 7.3 7.3 0 0112.8-4.7l.8 1h15.7l.8-1a7.3 7.3 0 015.4-2.6h.2a3.1 3.1 0 00.2 0c2.1 0 4.1 1 5.5 2.6l.8 1h15.6l.8-1a7.3 7.3 0 0112.9 4.7 7.3 7.3 0 01-7.3 7.3" class="B"/><path d="M143 133a10 10 0 00-7.6 3.4h-13.2a10 10 0 00-7.6-3.5h-.2a10 10 0 00-7.6 3.5H93.6a10 10 0 00-7.5-3.5 10 10 0 00-10 10 10 10 0 0010 10 10 10 0 008-4h12.3a10 10 0 008 4h.2a10 10 0 008-4H135a10 10 0 0018-6 10 10 0 00-10-10zm0 5.3c2.5 0 4.6 2 4.6 4.6a4.6 4.6 0 01-4.6 4.7c-1.5 0-2.8-.7-3.7-2l-1.6-2h-17.8l-1.6 2a4.6 4.6 0 01-3.5 2h-.5a4.6 4.6 0 01-3.6-2l-1.6-2H91.4l-1.6 2a4.6 4.6 0 01-3.7 2 4.6 4.6 0 01-4.7-4.7c0-2.5 2.1-4.6 4.7-4.6a4.6 4.6 0 013.5 1.6l1.6 1.9h18l1.7-1.9c.8-1 2-1.6 3.3-1.6H114.8c1.3 0 2.5.6 3.4 1.6l1.6 1.9h18l1.7-1.9a4.6 4.6 0 013.5-1.6" class="C"/><path d="M342.9 350.2a7.3 7.3 0 01-7.3-7.3 7.2 7.2 0 012.9-5.9l1-.8V321l-1-.8a7.4 7.4 0 01-1.6-1.6l-.8-1.2h-16.4l-.8 1.2a7.3 7.3 0 01-11.8.2l-.8-1.1H291l-.8 1a7.2 7.2 0 01-5.8 3 7.3 7.3 0 01-7.3-7.3 7.3 7.3 0 017.3-7.3c2.1 0 4.1 1 5.5 2.5l.8 1h16l.7-1a7.3 7.3 0 015.6-2.5 7.2 7.2 0 015.8 3l.8 1h16.6l.8-1c1.4-2 3.5-3 5.9-3 4 0 7.3 3.3 7.3 7.3a7.3 7.3 0 01-2.6 5.5l-1 .8v16l1 .7a7.3 7.3 0 012.6 5.6c0 4-3.3 7.3-7.3 7.3" class="B"/><path d="M342.9 304.3a10 10 0 00-8 4h-14a10 10 0 00-15.5-.5H292a10 10 0 00-7.6-3.5 10 10 0 00-10 10 10 10 0 0010 10 10 10 0 008-4H305a10 10 0 0016.1-.3h13.6a10 10 0 002.2 2.3v12.6a10 10 0 00-4 8 10 10 0 0010 10 10 10 0 006.4-17.6v-13.4a10 10 0 003.5-7.6 10 10 0 00-10-10zm0 5.3a4.6 4.6 0 013 8.2l-1.9 1.6v18.3l1.9 1.6a4.6 4.6 0 01-3 8.2 4.6 4.6 0 01-4.7-4.6c0-1.5.7-2.9 1.9-3.7l2.1-1.6v-18l-2.1-1.6a4.7 4.7 0 01-1-1l-1.6-2.3h-19.2l-1.6 2.2c-.8 1.3-2.2 2-3.7 2s-2.9-.7-3.8-1.8l-1.6-2.2h-18l-1.5 2.2a4.6 4.6 0 01-3.7 1.8 4.6 4.6 0 01-4.7-4.6 4.6 4.6 0 014.7-4.6 4.6 4.6 0 013.5 1.6l1.6 1.8h18.3l1.6-1.8a4.6 4.6 0 013.6-1.6c1.4 0 2.8.6 3.7 1.8l1.6 2.2h19.2l1.6-2.2a4.6 4.6 0 013.8-1.8" class="C"/><g fill="none" stroke-width="8" class="L"><path d="M371.4 733.7h10.2" class="I"/><path d="M57.1 726h10.2" class="D"/><path d="M228.6 596h10.1" class="F"/><path d="M256.7 714.3h10.1m-10-93.6h10m76-235H353M342.9 240h10m-30.3-118.5l7.1-7.2" stroke="#2cbf9c"/><path d="M313.6 530.3h10.2M313.6 380h10.2m-181-310.2H153" class="E"/><path d="M228.6 442.9h10.1m-10.1-75.6h10.1M228.6 206h10.1m247-133.1h10.1m-10-56.9h10M300 171.4v10.2" class="F"/><path d="M691.1 29.6v10.1" class="J"/><path d="M637.5 114.1v10.2M528.9 114v10.2m-196-38.6V96m-294.2 47V153" stroke="#898989"/><path d="M631.3 771.4v10.2m-531-10.2v10.2" class="F"/><path d="M740.7 571v10" class="G"/><path d="M111.5 697l-7.2 7.2" class="E"/><path d="M136.5 635l-7.2 7.1" class="G"/><path d="M157.7 600.4l-7.1 7.2" class="J"/><path d="M181.4 681l-7.2 7.2" class="G"/><path d="M624.7 524.3l-7.2 7.1" class="H"/><path d="M470.5 370.8l-7.1 7.2" class="D"/><path d="M616.2 683.9l-7.2-7.2m-139.3 69l-7.2-7.2" class="G"/><path d="M174.7 217.1l-7.2 7.2" class="E"/><path d="M694 771.4v10.2" class="F"/><path d="M57.1 619.3h10.2" class="D"/><path d="M87 435.3h10M427.4 572v-10" class="K"/><path d="M612.6 457.3v-10.1" class="D"/><path d="M417.1 628.4v-10.1m64.7 10.1v-10.1m115 10.1v-10.1m174.6 10.1v-10.1" class="E"/><path d="M581 400.2V390" class="K"/><path d="M658 257.3v-10.1M30 257.3v-10.1" stroke="#334bc1"/><path d="M30 483.8v-10.1" class="H"/><path d="M52 337l7.1-7.2" class="K"/><path d="M114.3 431.6h10.1M114.3 212h10.1M543 343.4h10m-10 230.3h10" class="J"/><path d="M171.4 423h10.2M86.9 288h10.2m-10.2-89.7h10.2" class="D"/><path d="M371.4 692h10.2" class="I"/><path d="M742.9 704h10" class="H"/><path d="M371.4 442.9h10.2m-10.2-57.2h10.2" class="I"/><path d="M428.6 423h10.1m-10.1-180.1h10.1" stroke="#b945d6"/><path d="M714.3 400h10.1m-10.1-202.7h10.1" class="D"/><path d="M742.9 85.7h10M743 205h10m-10 205h10" class="H"/><path d="M371.4 283.6h10.2m-10.2-55h10.2m-10.2-194h10.2" class="I"/></g><defs><path id="B" d="M428.6 321.6a7.3 7.3 0 01-7.3-7.3 7.3 7.3 0 0114.6 0 7.3 7.3 0 01-7.3 7.3"/><path id="C" d="M428.6 304.3a10 10 0 00-10 10 10 10 0 0010 10 10 10 0 0010-10 10 10 0 00-10-10zm0 5.3a4.6 4.6 0 014.6 4.7 4.6 4.6 0 01-4.6 4.6 4.6 4.6 0 01-4.7-4.6c0-2.6 2.1-4.6 4.7-4.6"/><path id="D" d="M285.3 264.4a7.3 7.3 0 01-7.3-7.3 7.3 7.3 0 0114.6 0 7.3 7.3 0 01-7.3 7.3"/><path id="E" d="M285.3 247.2a10 10 0 00-10 10 10 10 0 0010 10 10 10 0 0010-10 10 10 0 00-10-10zm0 5.3c2.6 0 4.7 2 4.7 4.6a4.6 4.6 0 01-4.7 4.7 4.6 4.6 0 01-4.6-4.7 4.6 4.6 0 014.6-4.6"/><path id="F" d="M228.6 95.5a7.3 7.3 0 01-7.3-7.3c0-4 3.2-7.3 7.3-7.3a7.3 7.3 0 017.3 7.3 7.3 7.3 0 01-7.3 7.3"/><path id="G" d="M287.4 93a7.3 7.3 0 01-7.3-7.3 7.3 7.3 0 017.3-7.3c4 0 7.3 3.3 7.3 7.3a7.3 7.3 0 01-7.3 7.3"/><path id="H" d="M257.1 178.7c-4 0-7.3-3.2-7.3-7.3a7.3 7.3 0 017.3-7.3 7.3 7.3 0 017.3 7.3 7.3 7.3 0 01-7.3 7.3"/><path id="I" d="M485.7 121.6c-4 0-7.3-3.3-7.3-7.3a7.3 7.3 0 017.3-7.3 7.3 7.3 0 017.3 7.3c0 4-3.3 7.3-7.3 7.3"/><path id="J" d="M485.7 104.3a10 10 0 00-10 10 10 10 0 0010 10 10 10 0 0010-10 10 10 0 00-10-10zm0 5.4a4.6 4.6 0 014.6 4.6 4.6 4.6 0 01-4.6 4.6c-2.5 0-4.6-2-4.6-4.6a4.6 4.6 0 014.6-4.6"/><path id="K" d="M630.2 64.3c-4 0-7.3-3.3-7.3-7.3a7.3 7.3 0 017.3-7.3 7.3 7.3 0 017.3 7.3c0 4-3.3 7.3-7.3 7.3"/><path id="L" d="M142.9 778.7a7.3 7.3 0 01-7.3-7.3 7.3 7.3 0 017.3-7.3 7.3 7.3 0 017.3 7.3c0 4-3.3 7.3-7.3 7.3"/><path id="M" d="M214.2 718.8a10 10 0 00-10 10 10 10 0 0010 10 10 10 0 0010-10 10 10 0 00-10-10zm0 5.3a4.6 4.6 0 014.6 4.7 4.6 4.6 0 01-9.2 0 4.6 4.6 0 014.6-4.7"/><path id="N" d="M228.6 647.2a10 10 0 00-10 10 10 10 0 0010 10 10 10 0 0010-10 10 10 0 00-10-10zm0 5.3a4.6 4.6 0 014.6 4.6 4.6 4.6 0 01-9.3 0 4.6 4.6 0 014.7-4.6"/><path id="O" d="M542.9 778.7c-4 0-7.3-3.2-7.3-7.3a7.3 7.3 0 017.3-7.3 7.3 7.3 0 017.3 7.3c0 4-3.3 7.3-7.3 7.3"/><path id="P" d="M542.9 761.5a10 10 0 00-10 10 10 10 0 0010 9.9 10 10 0 0010-10 10 10 0 00-10-10zm0 5.3a4.6 4.6 0 014.6 4.6 4.6 4.6 0 01-9.3 0 4.6 4.6 0 014.7-4.6"/><path id="Q" d="M542.9 721.6a7.3 7.3 0 01-7.3-7.3 7.3 7.3 0 017.3-7.3 7.3 7.3 0 017.3 7.3c0 4-3.3 7.3-7.3 7.3"/><path id="R" d="M571.4 761.5a10 10 0 00-10 10 10 10 0 0010 9.9 10 10 0 0010-10 10 10 0 00-10-10zm0 5.3a4.6 4.6 0 014.7 4.6c0 2.6-2.1 4.7-4.7 4.7a4.6 4.6 0 01-4.6-4.7 4.6 4.6 0 014.6-4.6"/><path id="S" d="M542.9 618.6a10 10 0 00-10 10 10 10 0 0010 10 10 10 0 0010-10 10 10 0 00-10-10zm0 5.3a4.6 4.6 0 014.6 4.7c0 2.5-2 4.6-4.6 4.6a4.6 4.6 0 01-4.7-4.6 4.6 4.6 0 014.7-4.7"/><path id="T" d="M371.4 664.4c-4 0-7.3-3.2-7.3-7.3a7.3 7.3 0 017.3-7.3 7.3 7.3 0 017.3 7.3c0 4-3.2 7.3-7.3 7.3"/><path id="U" d="M428.6 517.3a7.3 7.3 0 01-7.3-7.3 7.3 7.3 0 017.3-7.3 7.3 7.3 0 017.3 7.3c0 4-3.3 7.3-7.3 7.3"/><path id="V" d="M428.6 500a10 10 0 00-10 10 10 10 0 0010 10 10 10 0 0010-10 10 10 0 00-10-10zm0 5.4a4.6 4.6 0 014.6 4.6 4.6 4.6 0 01-9.3 0 4.6 4.6 0 014.7-4.6"/><path id="W" d="M714.3 326.8a7.3 7.3 0 01-7.3-7.3 7.3 7.3 0 017.3-7.3 7.3 7.3 0 017.3 7.3c0 4-3.3 7.3-7.3 7.3"/><path id="X" d="M114.3 247.2a10 10 0 00-10 10 10 10 0 0010 10 10 10 0 0010-10 10 10 0 00-10-10zm0 5.3c2.5 0 4.6 2 4.6 4.6a4.6 4.6 0 01-4.6 4.7 4.6 4.6 0 01-4.6-4.7c0-2.5 2-4.6 4.6-4.6"/><path id="Y" d="M114.3 333.4a10 10 0 00-10 10 10 10 0 0010 10 10 10 0 0010-10 10 10 0 00-10-10zm0 5.3a4.6 4.6 0 014.6 4.7 4.6 4.6 0 01-9.2 0 4.6 4.6 0 014.6-4.7"/><path id="Z" d="M114.3 521.6a7.3 7.3 0 01-7.3-7.3 7.3 7.3 0 117.3 7.3"/><path id="a" d="M114.3 493c-4 0-7.3-3.3-7.3-7.3a7.3 7.3 0 017.3-7.3 7.3 7.3 0 010 14.6"/></defs></svg>