<!DOCTYPE svg PUBLIC "-//W3C//DTD SVG 20010904//EN" "http://www.w3.org/TR/2001/REC-SVG-20010904/DTD/svg10.dtd">
<svg version="1.0" xmlns="http://www.w3.org/2000/svg" width="240px" height="240px" viewBox="0 0 2400 2400" preserveAspectRatio="xMidYMid meet">
<g id="layer101" fill="#38bbac" stroke="none">
<path d="M1192 2155 c-4 -51 -18 -62 -36 -29 -8 16 -15 23 -16 16 0 -7 27 -42 60 -77 33 -35 60 -71 60 -80 0 -20 -49 -20 -78 1 -12 8 -22 10 -22 5 0 -13 53 -41 76 -41 9 0 36 -18 60 -40 24 -22 52 -40 63 -40 42 0 111 -96 111 -154 0 -40 -10 -56 -49 -75 -54 -28 -71 -53 -81 -117 -9 -68 -24 -111 -48 -139 -11 -13 -7 -11 11 4 15 14 27 30 27 37 0 7 5 16 10 19 10 6 6 -50 -6 -85 -4 -12 -3 -12 7 -3 7 7 15 44 18 83 6 67 7 70 25 57 10 -7 22 -31 26 -53 l8 -39 1 37 c1 29 -6 44 -29 68 -16 17 -30 34 -30 38 0 18 35 54 70 72 21 11 51 35 65 54 14 19 43 41 65 50 51 20 134 30 155 19 15 -9 12 -14 -21 -42 -21 -17 -59 -38 -84 -47 -79 -27 -110 -47 -131 -81 -12 -19 -19 -36 -16 -39 3 -3 13 8 21 24 16 32 52 62 72 62 9 0 9 -11 3 -41 -6 -23 -8 -47 -6 -53 2 -6 9 13 16 41 12 49 16 54 59 73 83 37 123 70 120 99 -2 16 -13 31 -30 39 -15 7 -59 59 -101 120 -41 59 -86 118 -101 131 -16 15 -26 36 -27 55 l-1 31 -7 -30 -6 -30 -18 25 c-11 16 -17 19 -17 9 0 -8 18 -33 40 -54 43 -42 48 -70 18 -89 -36 -22 -84 37 -100 122 -4 26 -15 53 -24 62 -15 14 -15 13 -5 -7 16 -31 14 -35 -11 -27 -49 15 -52 14 -18 -4 31 -18 37 -28 49 -82 15 -69 5 -110 -27 -110 -24 0 -66 45 -85 92 -8 20 -29 48 -46 63 -25 23 -31 37 -34 79 -2 28 -4 38 -5 21z m416 -295 c51 -75 55 -90 23 -90 -14 0 -17 6 -13 30 6 41 -51 100 -97 100 -73 0 -57 -119 19 -142 11 -4 10 -8 -8 -17 -28 -15 -38 -9 -45 29 -4 16 -24 49 -46 72 -36 40 -38 44 -24 65 12 18 19 20 39 13 26 -10 67 1 79 20 9 15 11 12 73 -80z m-39 -11 c25 -24 25 -62 -1 -67 -23 -4 -68 41 -68 68 0 27 39 27 69 -1z"/>
<path d="M1532 1830 c1 -13 9 -25 16 -28 17 -5 15 23 -4 39 -14 11 -15 10 -12 -11z"/>
<path d="M2390 2146 c0 -45 -15 -54 -34 -19 -8 15 -15 22 -16 16 0 -7 13 -27 30 -45 l29 -33 1 58 c0 31 -2 57 -5 57 -3 0 -5 -15 -5 -34z"/>
<path d="M169 2123 c14 -28 14 -36 -1 -30 -7 2 -24 7 -38 11 -18 5 -15 1 10 -13 31 -17 37 -27 49 -81 15 -69 5 -110 -27 -110 -24 0 -66 45 -85 91 -14 35 -66 93 -75 84 -3 -2 9 -20 27 -40 40 -46 40 -65 0 -65 -17 0 -28 -4 -24 -10 3 -5 16 -10 27 -10 11 0 40 -18 64 -40 24 -22 52 -40 63 -40 42 0 111 -96 111 -154 0 -40 -10 -56 -49 -75 -54 -28 -71 -53 -81 -117 -9 -68 -24 -111 -48 -139 -11 -13 -7 -11 11 4 15 14 27 30 27 37 0 7 5 16 10 19 10 6 6 -50 -6 -85 -4 -12 -3 -13 8 -2 7 7 14 44 16 82 2 39 8 70 12 70 16 0 39 -37 43 -70 l4 -35 1 37 c2 29 -5 44 -28 68 -16 17 -30 34 -30 38 0 18 35 54 70 72 21 11 51 35 65 54 14 19 43 41 65 50 51 20 134 30 155 19 15 -9 12 -14 -21 -42 -21 -17 -59 -38 -84 -47 -25 -9 -60 -23 -78 -31 -33 -16 -72 -68 -72 -94 1 -8 10 3 20 23 20 37 54 68 76 68 9 0 9 -11 3 -37 -15 -64 -8 -81 8 -20 14 54 18 58 62 77 73 33 121 70 121 94 0 26 -17 46 -39 46 -9 1 -45 44 -81 98 -36 53 -81 115 -101 137 -21 22 -39 54 -42 70 l-4 30 -2 -27 c-1 -34 -14 -36 -29 -5 -7 14 -11 17 -11 7 -1 -9 17 -34 39 -55 43 -42 48 -70 18 -89 -36 -22 -84 37 -100 122 -4 26 -15 53 -24 62 -15 14 -15 13 -5 -7z m235 -257 c31 -46 56 -86 56 -90 0 -3 -10 -6 -23 -6 -20 0 -23 4 -19 30 6 41 -51 100 -97 100 -73 0 -57 -119 19 -142 11 -4 10 -8 -8 -17 -28 -15 -38 -9 -45 29 -4 16 -24 49 -46 72 -36 40 -38 44 -24 65 12 18 19 20 39 13 25 -10 67 0 79 19 3 6 8 11 9 11 2 0 29 -38 60 -84z m-35 -17 c25 -24 25 -62 -1 -67 -23 -4 -68 41 -68 68 0 27 39 27 69 -1z"/>
<path d="M332 1830 c1 -13 9 -25 16 -28 17 -5 15 23 -4 39 -14 11 -15 10 -12 -11z"/>
<path d="M2360 1990 c0 -5 9 -14 20 -20 11 -6 20 -7 20 -3 0 5 -9 14 -20 21 -11 7 -20 8 -20 2z"/>
<path d="M2390 953 c0 -16 -4 -34 -9 -42 -7 -11 -12 -7 -25 15 -8 16 -15 23 -16 17 0 -7 13 -27 30 -45 l29 -33 1 58 c0 31 -2 57 -5 57 -3 0 -5 -12 -5 -27z"/>
<path d="M1192 943 c-3 -43 -18 -50 -36 -16 -8 15 -15 22 -16 15 0 -7 27 -42 60 -77 33 -35 60 -71 60 -80 0 -20 -49 -20 -78 1 -12 8 -22 10 -22 5 0 -13 53 -41 76 -41 9 0 36 -18 60 -40 24 -22 52 -40 63 -40 42 0 111 -96 111 -154 0 -40 -10 -56 -49 -75 -54 -28 -71 -53 -81 -117 -9 -68 -24 -111 -48 -139 -11 -13 -7 -11 11 4 15 14 27 30 27 38 0 7 4 13 8 13 5 0 6 -20 2 -45 -5 -32 -4 -43 3 -36 6 6 13 42 16 81 6 70 6 70 28 55 14 -10 23 -29 26 -53 l4 -37 1 37 c2 29 -4 44 -28 68 -16 17 -30 34 -30 38 0 18 35 54 70 72 21 11 51 35 65 54 38 50 157 89 215 71 18 -6 19 -9 8 -23 -18 -22 -99 -72 -117 -72 -32 0 -101 -43 -122 -76 -12 -19 -19 -37 -16 -40 3 -3 13 8 21 24 16 32 52 62 72 62 9 0 9 -11 3 -37 -15 -66 -8 -81 9 -20 16 55 19 58 77 87 33 16 71 37 83 48 31 24 26 62 -10 80 -16 7 -59 58 -102 120 -41 59 -86 118 -100 131 -16 15 -26 36 -27 55 l-1 31 -7 -30 -6 -30 -18 25 c-11 16 -17 19 -17 9 0 -8 18 -33 40 -54 43 -42 48 -70 18 -89 -36 -22 -84 37 -100 122 -4 26 -15 53 -24 62 -15 14 -15 13 -5 -7 16 -31 14 -35 -11 -27 -50 15 -52 14 -17 -5 37 -20 39 -26 55 -117 7 -38 -10 -74 -34 -74 -24 0 -66 46 -85 92 -8 20 -29 48 -46 63 -23 22 -31 37 -34 74 -2 31 -4 36 -5 14z m416 -283 c51 -75 55 -90 23 -90 -14 0 -17 6 -13 30 3 24 -3 37 -31 65 -56 56 -117 44 -117 -23 0 -25 36 -71 64 -81 20 -8 20 -8 -2 -20 -28 -15 -38 -9 -45 29 -4 16 -24 49 -46 72 -36 40 -38 44 -24 65 12 18 19 20 39 13 26 -10 67 1 79 20 9 15 11 12 73 -80z m-39 -11 c25 -24 25 -62 -1 -67 -23 -4 -68 41 -68 68 0 27 39 27 69 -1z"/>
<path d="M1532 624 c1 -9 9 -19 16 -22 9 -3 13 2 10 14 -1 9 -9 19 -16 22 -9 3 -13 -2 -10 -14z"/>
<path d="M169 923 c14 -28 14 -36 -1 -30 -46 17 -60 16 -27 -2 37 -20 39 -26 55 -117 7 -38 -10 -74 -34 -74 -24 0 -66 46 -85 91 -14 35 -66 93 -75 84 -3 -2 9 -20 27 -40 40 -46 40 -65 0 -65 -17 0 -28 -4 -24 -10 3 -5 16 -10 27 -10 11 0 40 -18 64 -40 24 -22 52 -40 63 -40 42 0 111 -96 111 -154 0 -40 -10 -56 -49 -75 -54 -28 -71 -53 -81 -117 -9 -68 -24 -111 -48 -139 -11 -13 -7 -11 11 4 15 14 27 30 27 38 0 7 4 13 8 13 5 0 6 -20 2 -45 -5 -33 -4 -43 4 -35 6 6 12 42 14 80 2 39 8 70 12 70 15 0 33 -31 41 -68 l7 -37 1 38 c1 28 -5 44 -22 60 -48 45 -38 81 33 117 21 11 51 35 65 54 14 19 43 41 65 50 51 20 134 30 155 19 15 -9 12 -14 -21 -42 -21 -17 -59 -38 -84 -47 -79 -27 -110 -47 -131 -81 -12 -19 -19 -36 -16 -39 3 -3 13 8 21 24 16 32 52 62 72 62 9 0 9 -11 3 -37 -15 -66 -8 -81 9 -20 16 55 19 58 77 87 33 16 71 37 83 48 31 24 26 62 -10 80 -15 7 -59 59 -101 120 -41 59 -86 118 -101 131 -16 15 -26 36 -27 55 l-1 31 -7 -30 -6 -30 -18 25 c-11 16 -17 19 -17 9 0 -8 18 -33 40 -54 43 -42 48 -70 18 -89 -36 -22 -84 37 -100 122 -4 26 -15 53 -24 62 -15 14 -15 13 -5 -7z m239 -263 c51 -75 55 -90 23 -90 -14 0 -17 6 -13 30 6 41 -51 100 -97 100 -73 0 -57 -119 19 -142 11 -4 10 -8 -8 -17 -28 -15 -38 -9 -45 29 -4 16 -24 49 -46 72 -36 40 -38 44 -24 65 12 18 19 20 39 13 26 -10 67 1 79 20 9 15 11 12 73 -80z m-39 -11 c25 -24 25 -62 -1 -67 -23 -4 -68 41 -68 68 0 27 39 27 69 -1z"/>
<path d="M332 630 c1 -13 9 -25 16 -28 17 -5 15 23 -4 39 -14 11 -15 10 -12 -11z"/>
<path d="M2360 790 c0 -5 9 -14 20 -20 11 -6 20 -7 20 -3 0 5 -9 14 -20 21 -11 7 -20 8 -20 2z"/>
</g>
<g id="layer102" fill="#f0547d" stroke="none">
<path d="M204 2385 c-3 -8 -4 -20 -1 -27 4 -8 6 -6 6 5 1 19 21 24 21 5 0 -6 2 -9 5 -6 8 7 -5 38 -16 38 -5 0 -12 -7 -15 -15z"/>
<path d="M290 2386 c0 -7 -3 -27 -6 -43 -8 -40 31 -85 106 -123 57 -29 79 -50 123 -119 12 -19 38 -44 57 -54 l35 -19 -34 28 c-18 15 -40 43 -48 62 -17 42 -5 66 58 109 57 38 80 72 86 127 l6 46 -39 -1 c-22 -1 -30 -3 -19 -6 35 -9 39 -20 21 -67 -11 -28 -30 -54 -49 -67 -18 -12 -46 -35 -63 -51 -21 -19 -34 -26 -39 -19 -3 6 -37 27 -73 45 -91 46 -106 64 -100 121 4 34 2 45 -8 45 -8 0 -14 -6 -14 -14z"/>
<path d="M427 2382 c-23 -25 -21 -65 3 -87 26 -24 109 -31 134 -13 25 20 23 64 -4 94 -30 31 -107 34 -133 6z m108 -17 c55 -54 6 -98 -69 -63 -34 15 -42 44 -20 69 23 26 60 24 89 -6z"/>
<path d="M475 2351 c-7 -12 12 -24 25 -16 11 7 4 25 -10 25 -5 0 -11 -4 -15 -9z"/>
<path d="M1404 2385 c-3 -8 -4 -20 -1 -27 4 -8 6 -6 6 5 1 19 21 24 21 5 0 -6 2 -9 5 -6 8 7 -5 38 -16 38 -5 0 -12 -7 -15 -15z"/>
<path d="M1490 2386 c0 -7 -3 -27 -6 -43 -8 -41 30 -84 116 -129 59 -31 72 -43 96 -89 21 -39 40 -60 69 -75 l40 -22 -34 28 c-18 15 -40 43 -48 62 -17 42 -5 66 58 109 57 38 80 72 86 127 l6 46 -39 -1 c-22 -1 -30 -3 -19 -6 35 -9 39 -20 21 -67 -11 -28 -30 -54 -49 -67 -18 -12 -46 -35 -63 -51 -21 -19 -34 -26 -39 -19 -3 6 -37 27 -73 45 -91 46 -106 64 -100 121 4 34 2 45 -8 45 -8 0 -14 -6 -14 -14z"/>
<path d="M1627 2382 c-23 -25 -21 -65 3 -87 26 -24 109 -31 134 -13 25 20 23 64 -4 94 -30 31 -107 34 -133 6z m108 -17 c38 -37 27 -75 -22 -75 -61 0 -99 46 -67 81 23 26 60 24 89 -6z"/>
<path d="M1675 2351 c-7 -12 12 -24 25 -16 11 7 4 25 -10 25 -5 0 -11 -4 -15 -9z"/>
<path d="M650 1568 c-17 -58 -15 -174 4 -227 16 -44 16 -44 -4 -26 -11 10 -20 14 -20 8 0 -5 9 -18 20 -28 34 -31 21 -85 -21 -85 -37 0 -117 149 -105 195 3 12 21 41 41 66 47 60 44 72 -5 18 -23 -26 -39 -38 -40 -29 -1 31 -20 -14 -20 -48 0 -76 -64 -142 -138 -142 -96 0 -148 -29 -156 -86 -2 -16 -1 -23 1 -16 6 16 20 16 26 0 3 -7 3 1 0 19 -4 25 -1 33 17 43 32 17 42 -3 35 -67 -4 -45 -2 -55 21 -82 14 -17 56 -47 93 -66 53 -28 73 -45 91 -78 30 -55 49 -76 85 -94 27 -14 25 -11 -12 23 -58 55 -63 87 -19 127 18 18 47 42 64 54 36 28 62 79 62 126 0 20 5 39 10 42 16 10 11 75 -10 135 -27 78 -26 157 3 189 16 18 17 21 3 11 -18 -14 -19 -13 -12 23 9 50 2 47 -14 -5z m-117 -282 c24 -59 60 -96 92 -96 15 0 25 -6 25 -15 0 -34 -34 -97 -64 -117 -17 -12 -45 -34 -62 -50 -21 -19 -34 -26 -39 -19 -3 6 -37 27 -73 45 -95 48 -101 57 -100 144 l2 72 49 0 c53 0 109 27 127 61 16 28 23 24 43 -25z"/>
<path d="M432 1187 c-27 -29 -28 -68 -2 -92 26 -24 109 -31 134 -13 29 23 24 67 -13 100 -40 36 -88 38 -119 5z m103 -22 c38 -37 27 -75 -22 -75 -61 0 -99 46 -67 81 23 26 60 24 89 -6z"/>
<path d="M475 1151 c-7 -12 12 -24 25 -16 11 7 4 25 -10 25 -5 0 -11 -4 -15 -9z"/>
<path d="M1850 1568 c-17 -58 -15 -174 4 -227 16 -44 16 -44 -4 -26 -11 10 -20 14 -20 8 0 -5 9 -18 20 -28 34 -31 21 -85 -21 -85 -37 0 -117 149 -105 195 3 12 21 41 41 66 47 60 44 72 -5 18 -23 -26 -39 -38 -40 -29 -1 31 -20 -14 -20 -48 0 -76 -64 -142 -138 -142 -96 0 -148 -29 -156 -86 -2 -16 -1 -23 1 -16 6 16 20 16 26 0 3 -7 3 1 0 18 -5 34 16 60 43 50 14 -5 16 -16 11 -66 -6 -53 -4 -62 19 -89 14 -17 56 -47 93 -66 53 -28 73 -45 91 -78 31 -56 49 -76 85 -94 30 -14 30 -14 -4 13 -18 15 -40 43 -48 62 -12 30 -12 37 2 58 8 13 33 35 54 48 54 35 83 80 89 137 2 27 9 52 13 55 15 9 9 76 -11 134 -27 78 -26 157 3 189 16 18 17 21 3 11 -18 -14 -19 -13 -12 23 9 50 2 47 -14 -5z m-116 -282 c22 -57 58 -96 91 -96 15 0 25 -6 25 -15 0 -34 -34 -97 -64 -117 -17 -12 -45 -34 -62 -50 -21 -19 -34 -26 -39 -19 -3 6 -37 27 -73 45 -95 48 -101 57 -100 144 l2 72 49 0 c53 0 109 27 127 61 16 29 26 23 44 -25z"/>
<path d="M1632 1187 c-27 -29 -28 -68 -2 -92 26 -24 109 -31 134 -13 29 23 24 67 -13 100 -40 36 -88 38 -119 5z m103 -22 c38 -37 27 -75 -22 -75 -61 0 -99 46 -67 81 23 26 60 24 89 -6z"/>
<path d="M1675 1151 c-7 -12 12 -24 25 -16 11 7 4 25 -10 25 -5 0 -11 -4 -15 -9z"/>
<path d="M651 369 c-17 -57 -16 -175 3 -228 16 -44 16 -44 -4 -26 -11 10 -20 14 -20 8 0 -5 9 -18 20 -28 34 -31 21 -85 -21 -85 -37 0 -117 149 -105 195 3 12 21 41 41 66 47 60 44 72 -5 18 -23 -26 -39 -38 -40 -29 -1 31 -20 -14 -20 -48 0 -76 -64 -142 -138 -142 -26 0 -63 -5 -83 -10 -37 -11 -77 -45 -65 -57 3 -4 13 3 22 15 19 27 41 28 49 2 9 -30 33 -25 27 5 -4 24 -2 25 48 25 56 0 112 26 130 61 14 25 27 24 35 -3 4 -13 19 -42 34 -65 24 -39 30 -43 67 -43 22 0 45 5 52 12 17 17 14 75 -8 138 -27 78 -26 157 3 189 16 18 17 21 3 11 -18 -14 -19 -13 -12 23 9 49 2 47 -13 -4z"/>
<path d="M1849 363 c-17 -62 -15 -167 5 -222 16 -44 16 -44 -4 -26 -11 10 -20 14 -20 8 0 -5 9 -18 20 -28 34 -31 21 -85 -21 -85 -37 0 -117 149 -105 195 3 12 21 41 41 66 47 60 44 72 -5 18 -23 -26 -39 -38 -40 -29 -1 31 -20 -14 -20 -48 0 -76 -64 -142 -138 -142 -62 0 -115 -16 -137 -40 -25 -27 -12 -37 14 -11 26 26 38 26 46 1 9 -30 33 -25 27 5 -4 24 -2 25 48 25 60 0 112 26 134 68 l15 27 16 -38 c9 -22 26 -54 38 -73 19 -29 28 -34 63 -34 22 0 45 5 52 12 17 17 14 75 -8 138 -27 78 -26 157 3 189 16 18 17 21 3 11 -18 -14 -19 -13 -12 23 10 52 1 46 -15 -10z"/>
<path d="M468 3 c12 -2 30 -2 40 0 9 3 -1 5 -23 4 -22 0 -30 -2 -17 -4z"/>
<path d="M1673 3 c9 -2 25 -2 35 0 9 3 1 5 -18 5 -19 0 -27 -2 -17 -5z"/>
</g>
<g id="layer103" fill="#cd6399" stroke="none">
<path d="M695 2085 c3 -16 24 -59 45 -95 21 -36 37 -67 35 -69 -2 -2 -18 7 -34 19 -17 12 -31 19 -31 16 0 -3 21 -19 46 -37 68 -46 96 -122 49 -131 -21 -5 -30 2 -51 36 -14 22 -23 32 -19 21 16 -45 16 -56 1 -101 -9 -26 -16 -62 -16 -79 0 -35 42 -105 89 -149 37 -35 39 -65 11 -131 -11 -26 -20 -54 -20 -63 1 -9 7 0 14 20 8 21 21 50 31 64 13 20 16 38 11 71 -5 42 -4 45 29 64 45 27 46 57 5 159 -16 41 -34 94 -40 116 -6 23 -33 77 -62 120 -28 44 -62 102 -75 129 -18 36 -23 41 -18 20z m149 -331 c11 -28 7 -34 -13 -22 -27 16 -66 -3 -75 -36 -9 -38 17 -94 48 -102 45 -11 76 3 76 34 0 21 2 24 10 12 19 -29 10 -57 -26 -85 l-35 -27 -26 23 c-26 25 -63 89 -63 111 0 38 23 90 43 98 34 13 54 12 61 -6z m-1 -77 c11 -21 16 -44 13 -52 -7 -20 -40 -19 -60 1 -19 18 -21 80 -3 87 21 9 32 2 50 -36z"/>
<path d="M807 1664 c-8 -8 1 -24 14 -24 5 0 9 7 9 15 0 15 -12 20 -23 9z"/>
<path d="M1890 2103 c0 -16 34 -91 65 -140 24 -39 24 -55 -1 -35 -5 4 5 -6 23 -23 54 -50 68 -110 28 -117 -21 -5 -30 2 -51 36 -14 22 -23 32 -19 21 16 -45 16 -56 1 -101 -9 -26 -16 -62 -16 -79 0 -35 42 -105 89 -149 37 -35 39 -65 11 -131 -11 -26 -20 -54 -20 -63 1 -9 7 0 14 20 8 21 21 50 31 64 13 20 16 38 11 71 -5 42 -4 45 29 64 19 12 36 26 36 32 3 29 -4 57 -31 127 -16 41 -34 94 -40 116 -6 23 -33 77 -62 120 -28 44 -62 102 -74 129 -13 28 -24 45 -24 38z m154 -349 c11 -28 7 -34 -13 -22 -26 16 -67 -3 -73 -34 -13 -68 38 -125 94 -106 21 8 28 16 28 36 0 21 2 24 10 12 19 -29 10 -57 -26 -85 l-35 -27 -26 23 c-29 28 -63 90 -63 117 0 36 23 84 44 92 33 13 53 11 60 -6z m-1 -77 c11 -21 16 -44 13 -52 -7 -20 -40 -19 -60 1 -19 18 -21 80 -3 87 21 9 32 2 50 -36z"/>
<path d="M2007 1664 c-8 -8 1 -24 14 -24 5 0 9 7 9 15 0 15 -12 20 -23 9z"/>
<path d="M690 903 c0 -16 34 -91 65 -140 29 -48 26 -52 -16 -22 -16 11 -29 18 -29 15 0 -3 21 -19 46 -37 68 -46 96 -122 49 -131 -21 -5 -30 2 -51 36 -14 22 -23 32 -19 21 16 -45 16 -56 1 -101 -9 -26 -16 -62 -16 -79 0 -35 42 -105 89 -149 37 -35 39 -65 11 -131 -11 -26 -20 -54 -20 -63 1 -9 7 0 14 20 8 21 21 50 31 64 13 20 16 38 11 71 -5 42 -4 45 29 64 45 27 46 57 5 159 -16 41 -34 94 -40 116 -6 23 -33 77 -62 120 -28 44 -62 102 -74 129 -13 28 -24 45 -24 38z m154 -349 c11 -28 7 -34 -13 -22 -47 29 -91 -31 -69 -94 22 -63 118 -70 118 -9 0 20 2 23 10 11 19 -29 10 -57 -26 -85 l-35 -27 -26 23 c-29 28 -63 90 -63 117 0 36 23 84 44 92 33 13 53 11 60 -6z m-1 -77 c11 -21 16 -44 13 -52 -7 -20 -40 -19 -60 1 -19 18 -21 80 -3 87 21 9 32 2 50 -36z"/>
<path d="M807 464 c-8 -8 1 -24 14 -24 5 0 9 7 9 15 0 15 -12 20 -23 9z"/>
<path d="M1890 903 c0 -16 34 -91 65 -140 29 -48 26 -52 -16 -22 -16 11 -29 18 -29 15 0 -3 21 -19 46 -37 68 -46 96 -122 49 -131 -21 -5 -30 2 -51 36 -14 22 -23 32 -19 21 16 -45 16 -56 1 -101 -9 -26 -16 -62 -16 -79 0 -35 42 -105 89 -149 37 -35 39 -65 11 -131 -11 -26 -20 -54 -20 -63 1 -9 7 0 14 20 8 21 21 50 31 64 13 20 16 38 11 71 -5 42 -4 45 29 64 45 27 46 57 5 159 -16 41 -34 94 -40 116 -6 23 -33 77 -62 120 -28 44 -62 102 -74 129 -13 28 -24 45 -24 38z m154 -349 c11 -28 7 -34 -13 -22 -47 29 -91 -31 -69 -94 21 -61 118 -69 118 -10 0 21 2 24 10 12 19 -29 10 -57 -26 -85 l-35 -27 -26 23 c-29 28 -63 90 -63 117 0 36 23 84 44 92 33 13 53 11 60 -6z m-1 -77 c11 -21 16 -44 13 -52 -7 -20 -40 -19 -60 1 -19 18 -21 80 -3 87 21 9 32 2 50 -36z"/>
<path d="M2007 464 c-8 -8 1 -24 14 -24 5 0 9 7 9 15 0 15 -12 20 -23 9z"/>
</g>
<g id="layer104" fill="#f1b151" stroke="none">
<path d="M750 2364 c0 -30 -3 -35 -17 -30 -16 6 -16 6 0 -12 14 -15 15 -24 6 -57 -16 -56 -5 -104 48 -208 27 -54 47 -108 49 -131 2 -32 10 -47 43 -77 23 -21 41 -46 42 -56 0 -17 1 -17 7 -1 6 16 9 16 39 -3 19 -12 37 -34 42 -52 7 -26 9 -28 10 -9 1 22 2 22 30 8 16 -9 43 -27 60 -42 27 -23 31 -31 26 -58 -6 -30 -5 -30 10 -11 15 19 16 15 12 -56 -2 -48 -10 -86 -22 -105 l-17 -29 21 25 c54 64 53 169 -1 228 -12 12 -17 22 -10 22 22 0 42 32 42 70 0 26 6 43 18 50 16 11 16 11 -1 6 -10 -3 -21 -6 -23 -6 -2 0 -4 -16 -4 -36 0 -45 -15 -74 -40 -74 -20 0 -186 108 -232 152 -15 14 -28 33 -28 40 0 8 27 27 60 43 93 44 92 43 87 187 -3 69 -10 134 -16 146 -6 11 -12 42 -12 69 -1 41 -2 44 -8 18 l-7 -30 -17 30 c-25 46 -20 13 8 -47 14 -29 25 -66 24 -83 l0 -30 -49 54 c-42 46 -50 61 -50 93 0 21 -4 38 -10 38 -5 0 -10 -20 -10 -43 0 -49 -17 -71 -62 -82 l-28 -7 0 66 c0 37 -4 66 -10 66 -5 0 -10 -16 -10 -36z m215 -179 c15 -22 23 -144 11 -164 -8 -12 -106 -65 -111 -59 -1 2 -26 49 -54 105 -36 72 -51 114 -51 143 0 38 1 40 33 40 17 0 43 9 57 20 l25 20 38 -42 c21 -24 45 -52 52 -63z"/>
<path d="M836 2201 c-26 -29 -18 -112 14 -146 47 -50 105 -17 105 60 0 82 -74 135 -119 86z m88 -59 c13 -45 1 -82 -28 -82 -39 0 -67 77 -41 116 15 23 18 24 38 11 12 -8 26 -28 31 -45z"/>
<path d="M875 2148 c-8 -21 0 -48 14 -48 16 0 20 28 6 47 -13 17 -14 17 -20 1z"/>
<path d="M1950 2364 c0 -29 -3 -35 -15 -30 -14 5 -14 3 -1 -15 11 -16 12 -29 4 -57 -15 -53 -3 -103 48 -204 25 -50 47 -109 49 -132 3 -32 12 -48 45 -78 22 -20 40 -44 40 -53 0 -8 4 -15 10 -15 5 0 7 7 3 17 -6 14 -2 14 26 -3 42 -24 55 -48 47 -87 -3 -17 -3 -28 0 -24 3 3 9 20 13 37 l6 31 47 -30 c58 -37 73 -62 59 -102 -13 -37 -6 -37 14 -1 15 26 15 24 12 -49 -3 -48 -10 -86 -22 -105 l-17 -29 21 23 c54 61 53 171 -1 230 -12 12 -17 22 -10 22 22 0 42 32 42 70 0 26 6 43 18 50 16 11 16 11 -1 6 -10 -3 -21 -6 -23 -6 -2 0 -4 -16 -4 -36 0 -44 -15 -74 -38 -74 -21 0 -219 131 -244 161 -28 33 -22 43 42 74 93 44 92 43 87 187 -3 69 -10 134 -16 146 -6 11 -12 42 -12 69 -1 41 -2 44 -8 18 l-7 -30 -17 30 c-25 46 -20 13 8 -47 14 -29 25 -66 24 -83 l0 -30 -49 54 c-42 46 -50 61 -50 93 0 21 -4 38 -10 38 -5 0 -10 -20 -10 -43 0 -49 -17 -71 -62 -82 l-28 -7 0 66 c0 37 -4 66 -10 66 -5 0 -10 -16 -10 -36z m180 -135 l51 -62 -3 -76 -3 -76 -50 -27 c-27 -15 -53 -28 -56 -28 -3 0 -29 48 -58 106 -35 72 -51 118 -51 145 0 37 1 39 33 39 17 0 43 9 57 20 14 11 26 20 27 20 1 0 24 -28 53 -61z"/>
<path d="M2036 2201 c-26 -29 -18 -112 14 -146 47 -50 105 -17 105 60 0 82 -74 135 -119 86z m84 -41 c23 -42 9 -100 -24 -100 -39 0 -66 78 -41 116 13 20 19 22 35 14 11 -6 24 -19 30 -30z"/>
<path d="M2075 2148 c-8 -21 0 -48 14 -48 16 0 20 28 6 47 -13 17 -14 17 -20 1z"/>
<path d="M1111 1497 l-34 -42 38 37 c22 21 37 39 34 42 -2 2 -19 -14 -38 -37z"/>
<path d="M2316 1502 l-29 -37 34 32 c18 18 31 35 28 37 -3 3 -18 -12 -33 -32z"/>
<path d="M897 1418 c-3 -13 -11 -63 -18 -111 -11 -83 -13 -87 -26 -65 l-14 23 7 -25 c4 -14 9 -48 11 -75 5 -57 -9 -78 -61 -91 l-29 -7 5 174 c2 95 3 169 2 164 -1 -6 -6 -23 -10 -40 l-8 -30 -7 35 c-5 23 -7 10 -4 -40 l4 -75 -19 40 c-26 53 -25 23 0 -34 11 -24 20 -63 20 -88 0 -38 -3 -44 -17 -39 -16 6 -16 6 0 -12 14 -15 15 -24 6 -57 -16 -56 -5 -104 47 -207 25 -50 47 -109 49 -132 3 -32 12 -48 45 -78 22 -20 40 -44 40 -53 0 -8 4 -15 10 -15 5 0 6 8 3 17 -6 15 -2 14 28 -4 19 -12 39 -36 46 -55 10 -27 12 -29 12 -10 l1 23 41 -23 c56 -31 80 -64 73 -97 -6 -25 -6 -26 10 -6 15 19 16 16 13 -56 -3 -48 -10 -86 -22 -105 l-17 -29 21 23 c54 61 53 171 -1 230 -12 12 -17 22 -10 22 22 0 42 32 42 70 0 26 6 43 18 50 16 11 16 11 -1 6 -10 -3 -21 -6 -23 -6 -2 0 -4 -18 -4 -39 0 -40 -20 -71 -45 -71 -17 0 -187 114 -227 152 -36 34 -35 52 2 68 16 7 50 25 76 41 l45 29 -4 129 c-3 70 -10 137 -16 149 -6 11 -12 42 -12 69 -1 41 -2 44 -8 18 l-7 -30 -17 30 c-25 46 -20 13 8 -47 14 -29 25 -66 24 -83 l0 -30 -50 55 -51 55 6 74 c4 45 12 81 21 91 20 22 19 36 -1 19 -14 -11 -15 -9 -10 24 3 20 8 53 11 72 7 39 0 48 -8 13z m33 -389 l51 -62 -3 -76 -3 -76 -50 -27 c-27 -15 -53 -28 -56 -28 -3 0 -29 48 -58 106 -35 72 -51 118 -51 145 0 37 1 39 33 39 17 0 43 9 57 20 14 11 26 20 27 20 1 0 24 -28 53 -61z"/>
<path d="M836 1001 c-15 -16 -18 -31 -14 -71 9 -90 73 -129 118 -72 60 75 -41 213 -104 143z m88 -59 c13 -45 1 -82 -28 -82 -39 0 -67 77 -41 116 15 23 18 24 38 11 12 -8 26 -28 31 -45z"/>
<path d="M872 933 c2 -14 8 -28 14 -30 17 -6 26 27 13 43 -18 22 -31 16 -27 -13z"/>
<path d="M1970 1391 c0 -11 -3 -28 -7 -38 -6 -14 -9 -11 -15 17 -4 19 -5 1 -2 -40 6 -83 2 -85 -26 -14 -11 27 -19 42 -19 34 0 -8 11 -42 24 -75 29 -70 34 -151 10 -141 -14 5 -14 3 -1 -15 11 -16 12 -29 4 -57 -15 -53 -3 -103 49 -205 28 -55 47 -108 49 -132 2 -32 9 -46 38 -71 19 -17 40 -41 45 -55 7 -18 10 -20 10 -6 1 17 2 17 32 0 40 -23 53 -48 45 -86 -3 -17 -3 -28 0 -24 3 3 9 20 13 37 l6 31 47 -30 c58 -37 73 -62 59 -102 -13 -37 -6 -37 14 -1 15 26 15 24 12 -49 -3 -48 -10 -86 -22 -105 l-17 -29 21 23 c54 61 53 171 -1 230 -12 12 -17 22 -10 22 22 0 42 32 42 70 0 26 6 43 18 50 15 10 15 10 -3 8 -16 -3 -21 -13 -25 -48 -11 -91 -24 -91 -160 0 -105 70 -140 102 -140 124 0 7 27 25 60 41 93 44 92 43 87 187 -3 69 -10 134 -16 146 -6 11 -12 42 -12 69 -1 41 -2 44 -8 18 l-7 -30 -17 30 c-25 46 -20 13 8 -47 14 -29 25 -66 24 -83 l0 -30 -50 55 -51 55 6 74 c4 45 12 81 21 91 8 9 15 23 15 30 0 9 -4 8 -13 -5 -12 -16 -14 -10 -11 41 2 49 0 43 -14 -40 -16 -91 -19 -97 -30 -75 l-13 24 7 -25 c4 -14 9 -48 11 -75 5 -57 -9 -78 -61 -91 l-29 -7 5 172 c2 94 3 171 1 171 -2 0 -3 -9 -3 -19z m195 -406 c15 -22 23 -144 11 -164 -8 -12 -106 -65 -111 -59 -1 2 -26 49 -54 105 -36 72 -51 114 -51 143 0 38 1 40 33 40 17 0 43 9 57 20 l25 20 38 -42 c21 -24 45 -52 52 -63z"/>
<path d="M2036 1001 c-15 -16 -18 -31 -14 -71 9 -90 73 -129 118 -72 60 75 -41 213 -104 143z m88 -59 c13 -45 1 -82 -28 -82 -39 0 -67 77 -41 116 15 23 18 24 38 11 12 -8 26 -28 31 -45z"/>
<path d="M2074 947 c-7 -20 1 -47 15 -47 17 0 22 33 7 49 -14 13 -16 13 -22 -2z"/>
<path d="M1115 303 l-28 -38 34 32 c18 18 30 35 27 38 -3 3 -18 -11 -33 -32z"/>
<path d="M2316 302 l-29 -37 34 32 c18 18 31 35 28 37 -3 3 -18 -12 -33 -32z"/>
<path d="M897 218 c-3 -13 -11 -63 -18 -111 -11 -81 -13 -87 -25 -65 -9 15 -13 18 -14 7 0 -8 7 -24 15 -35 13 -16 16 -17 25 -4 5 8 10 27 10 41 0 15 7 32 15 39 8 7 15 20 15 28 0 13 -3 12 -15 -4 -14 -18 -14 -17 -10 11 12 82 15 115 11 115 -2 0 -6 -10 -9 -22z"/>
<path d="M2097 218 c-3 -13 -12 -62 -18 -110 -11 -74 -15 -84 -26 -70 -7 9 -13 12 -13 6 0 -5 7 -19 15 -30 13 -16 16 -17 25 -4 5 8 10 27 10 41 0 15 7 32 15 39 8 7 15 20 15 28 0 13 -3 12 -15 -4 -14 -18 -14 -17 -10 11 12 82 15 115 11 115 -2 0 -6 -10 -9 -22z"/>
<path d="M770 192 c0 -11 -3 -29 -7 -39 -6 -14 -9 -11 -15 17 -4 21 -5 5 -3 -40 l4 -75 -19 40 c-11 22 -20 34 -20 28 0 -17 44 -123 51 -123 7 0 20 203 13 209 -2 2 -4 -5 -4 -17z"/>
<path d="M1970 192 c0 -11 -3 -29 -7 -39 -6 -14 -9 -11 -15 17 -4 21 -5 5 -3 -40 l4 -75 -19 40 c-11 22 -20 34 -20 28 0 -17 44 -123 51 -123 7 0 20 203 13 209 -2 2 -4 -5 -4 -17z"/>
</g>
<g id="layer105" fill="#94add8" stroke="none">
<path d="M41 2376 c13 -28 -1 -56 -27 -56 -8 0 -14 -7 -14 -14 0 -25 59 2 66 29 9 34 1 59 -19 63 -15 3 -16 0 -6 -22z"/>
<path d="M124 2358 c4 -24 18 -62 31 -85 l24 -43 -28 0 c-25 0 -90 17 -133 35 -13 5 -18 3 -18 -8 0 -23 93 -50 185 -53 44 -2 92 -9 108 -15 23 -10 27 -17 27 -53 0 -22 4 -48 9 -55 6 -10 8 0 4 27 -3 23 -2 42 3 42 5 -1 24 -21 42 -46 19 -25 58 -61 87 -79 29 -19 56 -43 58 -52 2 -10 3 -6 1 9 -2 19 2 28 14 31 10 3 5 5 -11 6 -47 2 -84 28 -140 99 -67 83 -76 91 -129 106 -56 17 -99 69 -105 130 -4 32 -10 46 -21 46 -12 0 -13 -8 -8 -42z"/>
<path d="M1028 2273 c2 -105 7 -137 25 -176 21 -47 21 -50 4 -80 l-17 -32 20 24 21 24 -4 -79 c-3 -43 -3 -65 -1 -49 3 17 9 49 14 72 9 37 7 51 -15 105 -64 157 -9 212 151 152 45 -17 96 -27 153 -30 47 -3 98 -10 114 -16 23 -9 27 -16 27 -52 0 -23 7 -51 16 -62 15 -18 15 -18 5 3 -13 25 -15 73 -3 73 4 0 23 -21 42 -47 19 -26 58 -61 87 -79 28 -19 54 -39 57 -46 3 -7 3 -3 0 9 -3 15 0 23 13 26 10 3 3 5 -15 6 -45 1 -80 28 -141 106 -56 71 -86 94 -133 104 -44 9 -89 68 -95 125 -4 32 -10 46 -21 46 -21 0 -8 -72 24 -129 l24 -44 -49 6 c-27 3 -76 17 -110 31 -64 27 -110 33 -141 16 -17 -9 -19 -5 -25 37 -9 62 -15 83 -24 83 -4 0 -5 -57 -3 -127z"/>
<path d="M1100 2377 c0 -46 82 -92 132 -75 42 15 54 89 15 96 -15 3 -16 0 -6 -22 14 -30 -1 -56 -33 -56 -31 0 -78 32 -84 57 -8 30 -24 29 -24 0z"/>
<path d="M2228 2273 c2 -105 7 -137 25 -176 21 -47 21 -50 4 -80 l-17 -32 20 24 21 24 -4 -79 c-3 -43 -3 -65 -1 -49 3 17 9 49 14 72 9 37 7 51 -15 105 -52 127 -26 187 75 175 39 -5 50 -3 50 8 0 8 -15 17 -35 21 -32 6 -50 4 -95 -7 -11 -3 -16 6 -18 36 -3 54 -11 85 -20 85 -4 0 -6 -57 -4 -127z"/>
<path d="M2297 2393 c-15 -25 50 -93 87 -93 26 0 18 14 -19 34 -20 11 -38 30 -41 43 -6 23 -19 30 -27 16z"/>
<path d="M1177 2374 c-13 -13 -7 -24 14 -24 11 0 19 5 17 12 -5 14 -22 21 -31 12z"/>
<path d="M2377 2373 c-12 -11 -8 -23 8 -23 8 0 15 7 15 15 0 16 -12 20 -23 8z"/>
<path d="M100 1617 c-8 -18 -19 -31 -25 -30 -5 1 -16 -10 -24 -25 l-14 -27 -19 50 c-10 28 -15 37 -11 20 8 -38 8 -59 -1 -115 l-8 -45 29 52 c16 29 38 60 49 68 20 13 51 71 43 79 -2 2 -11 -10 -19 -27z"/>
<path d="M1310 1638 c0 -22 -39 -68 -40 -48 0 8 -8 -1 -17 -20 l-16 -35 -17 55 c-20 62 -25 60 -9 -3 8 -35 7 -51 -6 -87 -9 -25 -23 -70 -30 -100 -16 -61 -59 -110 -98 -110 -32 0 -86 36 -97 66 -18 46 -11 82 24 131 35 51 66 107 66 120 -1 4 -7 -3 -15 -17 -9 -15 -15 -19 -15 -10 -1 8 -7 -3 -15 -24 -7 -21 -20 -45 -28 -53 -13 -13 -14 -11 -9 12 3 16 0 30 -7 35 -7 4 -19 25 -26 46 -8 21 -14 31 -15 22 0 -23 19 -71 32 -79 8 -5 6 -21 -6 -54 -25 -65 -23 -102 13 -182 41 -95 50 -141 51 -260 0 -85 4 -110 22 -148 22 -45 22 -47 5 -78 l-17 -32 20 24 21 24 -4 -79 c-3 -43 -3 -65 -1 -49 3 17 9 49 14 72 9 37 7 51 -15 105 -64 157 -9 212 151 152 45 -17 96 -27 153 -30 47 -3 98 -10 114 -16 23 -9 27 -16 27 -52 1 -22 8 -52 16 -66 10 -16 13 -18 8 -5 -12 34 -17 85 -8 85 5 0 25 -21 44 -47 19 -26 58 -61 87 -80 28 -18 54 -41 56 -50 2 -10 3 -6 1 9 -2 19 2 28 14 31 10 3 5 5 -11 6 -47 2 -84 28 -142 101 -61 77 -90 99 -137 109 -19 4 -43 21 -62 45 -28 34 -31 45 -31 108 0 68 1 70 37 104 34 30 43 34 87 32 62 -3 96 25 113 90 13 51 52 102 78 102 11 0 29 10 42 23 13 12 16 16 6 8 -10 -7 -26 -14 -36 -15 -34 -2 -90 -61 -98 -102 -12 -65 -68 -107 -118 -88 -14 5 -11 12 14 40 32 37 36 49 20 59 -5 3 -10 -3 -10 -14 0 -12 -23 -39 -57 -68 -31 -26 -63 -56 -72 -65 -23 -26 -56 -22 -95 12 -41 36 -71 108 -62 145 9 34 54 106 76 122 20 14 46 71 36 80 -3 3 -6 -1 -6 -9z m-92 -322 c13 -19 42 -44 65 -55 41 -21 41 -21 42 -79 1 -43 8 -70 28 -106 l27 -49 -49 6 c-27 3 -77 18 -112 32 -58 25 -100 29 -148 14 -9 -3 -14 9 -17 41 -4 44 -18 113 -29 141 -4 11 5 13 40 11 52 -5 89 14 107 54 15 31 18 30 46 -10z"/>
<path d="M1131 1237 c-56 -28 -43 -89 27 -124 35 -17 49 -20 70 -12 32 12 42 26 42 61 0 27 -49 78 -75 78 -7 0 -19 2 -27 5 -7 3 -24 -1 -37 -8z m79 -32 c50 -26 48 -85 -2 -85 -28 0 -77 31 -84 53 -13 42 33 59 86 32z"/>
<path d="M1177 1174 c-13 -13 -7 -24 14 -24 11 0 19 5 17 12 -5 14 -22 21 -31 12z"/>
<path d="M2255 1589 c-5 -15 -10 -18 -15 -10 -4 8 -9 2 -13 -16 -3 -16 -15 -40 -25 -54 l-20 -24 5 29 c3 15 1 31 -4 35 -5 3 -15 15 -21 26 -7 13 -12 15 -12 6 0 -8 7 -22 16 -32 15 -16 14 -22 -4 -75 -23 -67 -21 -85 18 -174 40 -92 49 -139 50 -257 0 -85 4 -110 22 -148 22 -45 22 -47 5 -78 l-17 -32 20 24 21 24 -4 -79 c-3 -43 -3 -65 -1 -49 3 17 9 49 14 72 9 37 7 51 -15 105 -52 127 -26 187 75 175 39 -5 50 -3 50 8 0 24 -68 31 -129 14 -9 -3 -14 9 -17 41 -4 44 -18 113 -29 141 -4 11 5 13 45 11 44 -4 53 -1 77 26 53 56 54 60 51 125 l-3 62 -17 -70 c-13 -53 -25 -77 -48 -97 -36 -33 -63 -35 -108 -8 -62 38 -69 106 -18 177 40 57 69 113 63 120 -3 2 -8 -5 -12 -18z"/>
<path d="M523 1548 c-12 -12 -31 -22 -41 -23 -35 -2 -90 -60 -98 -101 -12 -65 -68 -107 -118 -88 -14 5 -11 12 14 40 32 37 36 49 20 59 -5 3 -10 -3 -10 -14 0 -12 -23 -39 -57 -68 -31 -26 -63 -56 -72 -65 -8 -10 -26 -18 -38 -18 -28 0 -90 54 -108 94 l-13 31 -1 -30 c-1 -37 43 -89 91 -109 31 -13 32 -16 33 -73 1 -44 7 -70 27 -106 l27 -47 -28 0 c-25 0 -90 17 -134 35 -12 5 -17 3 -17 -8 0 -23 93 -50 185 -53 44 -2 92 -9 108 -15 23 -10 27 -17 27 -53 0 -23 7 -51 16 -62 15 -18 15 -18 5 3 -13 25 -15 73 -3 73 4 0 23 -21 42 -47 19 -26 58 -61 87 -80 28 -18 54 -41 56 -50 2 -10 3 -6 1 9 -2 19 2 28 14 31 10 3 5 5 -11 6 -47 2 -84 28 -142 101 -62 78 -86 97 -133 106 -41 8 -89 62 -98 109 -12 66 1 117 40 152 31 29 43 33 89 33 64 0 89 21 111 94 16 54 50 96 78 96 15 0 92 59 78 60 -3 0 -15 -10 -27 -22z"/>
<path d="M2330 1237 c-35 -18 -40 -74 -8 -104 25 -23 78 -41 78 -26 0 4 -16 17 -35 27 -19 10 -37 27 -41 38 -9 28 15 50 48 46 19 -3 28 0 28 9 0 7 -4 13 -9 13 -5 0 -15 2 -23 5 -7 3 -24 -1 -38 -8z"/>
<path d="M0 1229 c0 -6 12 -22 26 -36 30 -27 28 -54 -4 -68 -26 -12 -31 -37 -4 -28 54 19 69 74 30 110 -33 29 -48 36 -48 22z"/>
<path d="M2377 1173 c-12 -11 -8 -23 8 -23 8 0 15 7 15 15 0 16 -12 20 -23 8z"/>
<path d="M111 439 c-1 -23 -40 -69 -41 -49 0 8 -8 -1 -17 -20 l-16 -35 -14 48 c-16 55 -28 60 -13 6 6 -23 6 -47 0 -69 -19 -67 -10 -76 20 -19 16 31 36 59 44 62 19 7 49 64 42 80 -2 7 -5 5 -5 -4z"/>
<path d="M1300 417 c-8 -18 -19 -31 -25 -30 -5 1 -16 -10 -24 -25 l-14 -27 -12 34 -11 34 -1 -52 c0 -28 -6 -57 -12 -64 -5 -7 -17 -42 -25 -77 -25 -108 -81 -144 -154 -100 -62 38 -69 106 -18 177 40 57 69 113 63 120 -3 2 -9 -6 -13 -19 -7 -22 -7 -22 -15 -3 -7 18 -8 18 -8 -5 -1 -22 -34 -90 -44 -90 -3 0 -2 12 1 26 2 14 0 29 -5 33 -5 3 -15 15 -21 26 -7 13 -12 15 -12 6 0 -8 7 -23 16 -33 16 -16 16 -21 -1 -63 -24 -64 -21 -102 13 -181 16 -38 32 -77 35 -86 4 -10 12 -18 18 -18 10 0 8 25 -6 62 -4 10 5 12 40 10 52 -5 89 14 107 54 15 31 18 30 47 -11 12 -19 43 -44 68 -56 34 -17 44 -26 40 -40 -3 -12 0 -19 8 -19 7 0 16 13 20 30 3 16 22 43 41 60 30 26 42 30 84 28 61 -3 95 25 112 90 12 49 51 102 76 102 10 1 28 8 42 16 17 10 18 13 5 9 -11 -4 -27 -8 -36 -9 -32 -2 -88 -63 -95 -102 -12 -65 -68 -107 -118 -88 -14 5 -11 12 14 40 30 34 39 64 20 64 -5 0 -10 -9 -10 -19 0 -12 -24 -40 -57 -68 -31 -26 -63 -56 -72 -65 -23 -26 -56 -22 -95 12 -41 36 -71 108 -62 145 9 34 54 106 76 122 17 12 46 70 39 77 -2 2 -11 -10 -19 -27z"/>
<path d="M2255 389 c-5 -15 -10 -18 -15 -10 -4 8 -9 2 -13 -16 -3 -16 -15 -40 -25 -54 l-20 -24 5 29 c3 15 1 31 -4 35 -5 3 -15 15 -21 26 -7 13 -12 15 -12 6 0 -8 7 -22 16 -32 15 -16 14 -22 -4 -75 -23 -67 -21 -85 19 -175 16 -37 29 -74 29 -83 0 -9 7 -16 16 -16 16 0 15 19 -1 62 -4 10 6 12 45 10 44 -4 53 -1 77 26 53 56 54 60 51 125 l-3 62 -17 -70 c-13 -53 -25 -77 -48 -98 -36 -32 -63 -34 -108 -7 -62 38 -69 106 -18 177 40 57 69 113 63 120 -3 2 -8 -5 -12 -18z"/>
<path d="M507 334 c-4 -4 -15 -7 -25 -8 -34 -2 -90 -61 -98 -102 -12 -65 -68 -107 -118 -88 -14 5 -11 12 14 40 32 37 36 49 20 59 -5 3 -10 -3 -10 -14 0 -12 -23 -39 -57 -68 -31 -26 -63 -56 -72 -65 -8 -10 -26 -18 -38 -18 -31 0 -98 62 -110 102 l-11 33 -1 -35 c-1 -43 40 -93 95 -116 28 -12 35 -20 31 -35 -3 -12 0 -19 8 -19 7 0 16 13 20 30 3 16 22 43 41 59 29 26 41 30 83 28 61 -3 96 26 113 91 12 49 51 102 76 102 19 1 73 29 56 30 -6 0 -14 -3 -17 -6z"/>
<path d="M1134 40 c-22 -9 -41 -40 -24 -40 6 0 19 5 29 12 15 9 28 9 60 -2 47 -15 63 -8 29 13 -32 20 -69 27 -94 17z"/>
<path d="M2334 40 c-24 -10 -39 -28 -30 -37 3 -4 17 -1 30 7 14 7 34 10 45 7 14 -3 21 0 21 9 0 8 -4 14 -9 14 -5 0 -15 2 -23 4 -7 3 -23 1 -34 -4z"/>
<path d="M2 23 c2 -10 14 -19 27 -21 27 -4 21 12 -10 29 -18 9 -20 8 -17 -8z"/>
</g>


</svg>