<svg xmlns="http://www.w3.org/2000/svg" xmlns:xlink="http://www.w3.org/1999/xlink" width="5333.334" height="5333.334" xmlns:v="https://vecta.io/nano"><path d="M5060.721 4297.035l272.599 22.279v-18.728l-277.186-22.653c-219.266-17.92-261.999-149.724-94.96-292.902l372.146-318.986v-24.587l-388.026 332.599c-167.04 143.17-325.039 81.582-351.119-136.866l-72.066-603.532c-26.08-218.439 125.133-345.946 336.026-283.333l475.185 141.066v-19.467l-460.666-136.76c-210.906-62.613-222.119-193.64-24.92-291.159l351.492-173.826c44.68-22.107 90.013-34.36 134.093-37.68v-26.76a360.13 360.13 0 0 0-33.467 3.853c12.467-12.133 23.64-24.947 33.467-38.373v-51.267c-26.733 53.147-75.186 100.266-144.48 134.533l-355.199 175.666c-197.2 97.52-336.732-1.36-310.053-219.733l69.373-568.052c26.68-218.373 181.08-275.306 343.132-126.506l316.666 290.773c36.413 33.44 63.16 69.533 80.56 106.533v-70.413c-23.187-13.12-46.467-30.16-69.466-51.28l-314.626-288.893c-162.04-148.8-117.426-302.146 99.16-340.772l284.933-50.827v-18.96l-290.333 51.787c-216.586 38.627-327.853-97.253-247.253-301.959l144.266-366.452c79.826-202.759 255.959-231.386 393.319-65.36v-32.173c-66.573-96.746-63.093-169.746 0-201.279v-29.293c-36.133 14.28-54.867 36.84-64.52 57.013-13.8 28.827-14.413 63.333-1.827 102.573 1.053 3.267 2.187 6.56 3.427 9.893-41.253-27.013-84.746-41.267-127.866-41.267-64.267 0-122.36 30.467-168.08 86.253 2.48-45.693-6.733-85.226-27.653-115.946-29.173-42.84-77.946-65.88-141.2-66.773 118.813-80.6 189.64-216.799 188.053-359.852 76.586 127.2 203.679 240.706 339.666 304.573v-29.467c-128.973-63.4-248.773-172.826-320.093-294.279h-47.027c10.413 176.813-98.4 346.959-273.719 405.399l-238.453 79.493c-208.706 69.56-322.026-44.107-251.826-252.599L4280.416.013h-19.693l-77.533 230.279c-70.213 208.493-258.546 255.519-418.519 104.506L3410.031.013h-27.2l366.826 346.279c159.973 151.013 115.12 313.519-99.666 361.106L2681.98 921.864c-214.799 47.587-343.452-87.213-285.919-299.559L2564.687.013h-19.347l-162.906 601.225c-57.533 212.333-157.72 214.079-222.626 3.88L1972.955.013h-19.533l192.026 621.892c64.92 210.213-46.853 309.973-248.359 221.693l-360.679-158.013c-201.506-88.28-307.759-330.693-236.115-538.705L1350.877.013h-19.741l-43.629 126.68c-71.642 207.999-204.221 214.093-294.618 13.52L929.7.013h-20.476l58.877 130.626c90.397 200.573 28.371 246.746-137.837 102.613L561.303.013h-28.492l291.901 253.133c166.208 144.133 124.869 231.159-91.865 193.4l-581.257-101.28C101.209 336.492 49.92 318.839 0 294.293v29.44c10.715 5.04 21.478 9.8 32.282 14.2-12.075 2.413-22.773 5.6-32.282 9.36v29.293c36.493-18.227 92.921-22.587 167.27-9.64l578.104 100.733c216.735 37.76 268.819 197.946 115.745 355.959l-85.078 87.826c-153.074 158.013-391.154 147.053-529.067-24.36L23.959 609.932C15.147 598.985 7.173 588.278 0 577.865v32.173l3.96 4.813 225.219 279.919c137.913 171.4 73.546 343.252-143.034 381.879L0 1292.023v18.96l90.742-16.187c216.581-38.627 350.128 104.386 296.769 317.813l-65.336 261.346C276.393 2057.088 140.133 2122.008 0 2042.755v70.4c32.819 69.773 32.251 142.68 0 206.799v51.267c25.949-35.44 42.524-75.12 48.597-117.666 8.463-59.293-4.191-118.933-36.132-174.52 34.412 15.613 69.141 23.627 103.225 23.627 76.648 0 141.87-39.827 186.289-110.52 3.629 60.493 23.299 115.28 58.293 160.106 39.557 50.667 95.878 84.826 162.888 99.8-63.023 25.707-115.918 67.546-154.08 122.96-37.963 55.12-58.185 119.08-59.917 186.72-63.183-97.893-166.41-156.853-284.583-156.853a351.73 351.73 0 0 0-24.58.867v26.76c150.45-11.333 286.323 81.733 332.123 245.599l42.413 151.746c59.219 211.879-64.885 333.999-275.787 271.386L0 3071.926v19.467l93.196 27.667c210.902 62.613 246.792 230.986 79.755 374.159L0 3641.458v24.587l182.337-156.293c167.036-143.173 300.489-80.333 296.561 139.626l-5.168 289.399c-3.928 219.969-186.542 385.279-405.811 367.359L0 4300.585v18.728l70.825 5.788c219.269 17.92 472.631 196.684 563.029 397.254l275.371 610.978H929.7l-274.977-610.104c-90.397-200.569 15.576-359.846 235.497-353.948l366.03 9.815c219.919 5.897 341.239 180.912 269.599 388.918l-194.714 565.32h19.741l187.453-544.243c71.64-208.007 183.36-206.207 248.279 3.999l166.813 540.244h19.533l-171.773-556.293c-64.907-210.206 54.267-330.053 264.839-266.325l266.159 80.552c210.559 63.728 335.772 289.603 278.226 501.945l-65.067 240.121h19.347l62.027-228.939c57.547-212.342 235.506-262.514 395.492-111.496l360.626 340.435h27.2l-373.732-352.803c-159.986-151.02-115.64-315.726 98.533-366.014l1095.957-257.333c214.173-50.288 331.973 79.154 261.759 287.651l-231.826 688.498h19.693l226.239-671.87c70.2-208.497 183.906-208.107 252.679.867l187.586 569.963c11 33.438 17.293 67.359 19.28 101.04h47.027c-19.84-33.77-35.933-68.463-47.427-103.36l-186.92-567.981c-68.773-208.974 10.947-262.023 177.146-117.889l377.292 327.179v-24.708l-369.079-320.059c-166.2-144.134-122.786-247.401 96.48-229.481zm-486.052-465.764c26.08 218.447-83.733 273.894-244.026 123.213l-455.119-427.799c-160.293-150.68-128.933-351.359 69.693-445.932l149.64-71.266c198.64-94.586 382.492 6.76 408.572 225.213zm-1176.37-484.265c-26.533-46.44-70.44-80.066-127.826-99.053l1.987-.667c38.187-13.187 61.44-33.787 69.093-61.253 7.733-27.733-1.747-57.813-28.173-89.373 23.56 5.72 46.933 8.627 69.706 8.627 100.626 0 183.653-55.787 230.213-148.76 6.987 42.347 22.707 78.306 46.893 106.52 34.413 40.16 83.72 61.4 142.586 61.4 10.6 0 21.427-.68 32.467-2.053-46.947 43.747-76.573 97.026-85.813 156.173-9.16 58.653 2.507 117.92 33.28 173.493-46.32-22.627-95.653-34.573-145.013-34.573-81.733 0-157.506 31.053-218.466 87.68 12.12-58.227 5.267-112.32-20.933-158.16zm-1265.357 158.733c-2.64-2.64-5.293-5.173-7.96-7.6-30.56-27.853-62.507-41.973-94.973-41.973-27.973 0-72.08 11.173-112.213 69.213-1.373-33.933-9.707-61.52-24.973-81.853-18.547-24.707-46.253-37.773-80.133-37.773-16.24 0-33.72 2.947-52.387 8.813a203.33 203.33 0 0 0 5.267-7.72c28.453-43.813 26.547-77.533 19.947-98.093-6.613-20.56-24.693-49.08-73.36-68.12-2.253-.893-4.573-1.747-6.933-2.587 64.72-19.293 119.746-55.773 160.173-107.253 38.373-48.853 60.533-107.293 65.64-170.84 73.12 136.373 210.173 244.466 359.812 283.719-55.773 19.027-99.64 52.2-127.92 97.8-29.253 47.173-39.213 103.413-29.987 164.266zM1494.77 1962.022c17.787 5.893 34.253 8.853 49.307 8.853 37.867 0 58.827-18.467 69.746-33.96 13.413-19.04 19.853-44.533 19.307-76.306 34.067 43.587 74.373 66.68 118.386 66.68 38.96 0 76.92-18.693 111.626-54.093-8.187 57.693 1.28 110.373 28.547 153.96 29.373 46.973 77.026 79.4 138.08 95.026-49.48 20.28-68.426 48.547-74.44 73.133-6.04 24.64-2.293 58.56 32.413 99.56-16.307-3.667-31.947-5.52-46.84-5.52-43.92 0-80 16.387-104.333 47.373-18.707 23.813-29.693 55.093-32.867 92.8-45-73.413-112.293-114.853-191.986-114.853-33.587 0-67.866 7.573-101.893 22.32 26.187-45.387 25.107-79.333 16.267-102.786-9.293-24.653-32.787-52.747-89.693-66.08 46.187-20.28 75.893-49.72 86.413-86.853 10.507-37.12.653-77.773-28.04-119.253zm2457.527 274.039c-32.187-18.64-64.293-28.213-95.413-28.213-45.427 0-85.986 20.573-117.306 59.507-9.04 11.24-17.213 23.853-24.52 37.8-9.053-63.733-34.56-121.72-75.32-169.293-45.173-52.72-105.653-88.64-175.226-105.066 2.707-1.133 5.36-2.293 7.933-3.493 47.56-22.067 64.347-51.92 70.053-73.066 5.707-21.16 6.213-55.4-23.787-98.4-.173-.227-.333-.467-.507-.707 72.786 27.613 155.32 42.307 241.213 42.307 84.48 0 165.693-14.2 237.599-40.933-40.493 51.773-66.387 112.4-75.106 177.946-9.227 69.24 1.453 138.213 30.387 201.613zm-733.945 791.945l-1112.651-672.772c-188.266-113.826-162.653-218.306 56.907-232.173l1186.917-74.973c219.559-13.867 371.599 152.666 337.866 370.066l-65.413 421.546c-33.733 217.399-215.359 302.133-403.626 188.306zm-84.466 209.866l-725.478-4.933c-219.999-1.493-442.652-177.6-494.785-391.332l-71.36-292.559c-52.147-213.733 59.227-295.466 247.493-181.64l1101.837 666.225c188.253 113.84 162.293 205.746-57.707 204.239zm507.119-398.999l63.533-409.466c33.733-217.399 179.36-259.359 323.613-93.253l158.213 182.186c144.253 166.106 99.76 379.399-98.866 473.985l-146.693 69.853c-198.626 94.586-333.532-5.907-299.799-223.306zm-213.626-1059.837l-775.011-518.999c-182.8-122.413-154.96-192.053 61.853-154.746l1501.396 258.306c216.813 37.293 244.719 168.08 62.013 290.626l-185.706 124.56c-182.706 122.546-481.759 122.666-664.545.253zm-812.918-521.919l784.825 525.572c182.8 122.413 152.72 233.919-66.84 247.786l-1184.757 74.826c-219.559 13.867-320.413-136.626-224.106-334.426l183.413-376.692c96.32-197.8 324.679-259.479 507.465-137.066zm-792.011 1289.517l71.92 294.839c52.147 213.733-85.2 387.332-305.186 385.772l-668.901-4.733c-219.994-1.56-264.814-121.706-99.601-266.973l606.596-533.385c165.213-145.266 343.039-89.253 395.172 124.48zm-249.786 699.158c219.986 1.56 254.413 108.706 76.493 238.106l-840.253 611.093c-177.922 129.397-320.281 55.297-316.353-164.668l5.217-292.159c3.928-219.959 187.137-398.652 407.13-397.106zm843.505 5.867l735.438 5.013c219.999 1.493 309.679 158.426 199.306 348.732l-423.186 729.701c-110.373 190.309-280.706 184.786-378.519-12.275l-355.199-715.6c-97.8-197.066 2.16-357.066 222.159-355.572zm2133.021-618.172c35.28 39.853 84.88 60.92 143.426 60.92 12.427 0 25.133-.933 38.093-2.8-36.08 35.773-53.453 74.36-50.12 113.346 3.32 38.827 26.827 73.773 68.146 102.826-76.24 1.507-143.146 30.52-188.92 82.08-30.467 34.32-50.973 77.72-60.707 127.186-47.44-105.826-140.8-169.666-257.879-169.666-14.387 0-28.867.987-43.44 2.96 48.467-44.88 80.826-100.413 93.826-162.746 13.093-62.773 5.44-127.08-21.507-187.973 31.493 18.387 62.693 27.827 92.733 27.827 44.76 0 84.106-20.96 113.786-60.613 8.587-11.467 16.28-24.347 23.053-38.587 8.253 41.88 24.853 77.386 49.507 105.24zm24.973-791.158l-68.653 562.145c-26.667 218.386-166.52 261.146-310.773 95.04l-158.746-182.8c-144.253-166.106-112.786-402.279 69.92-524.825l184.56-123.8c182.706-122.546 310.373-44.133 283.693 174.24zm203.426-554.305c31.987 46.96 84.2 76.666 149.653 85.92-49.76 26.827-82.8 64.04-96.026 109.493-13.227 45.48-5.293 94.666 22.347 144.026-30.96-14.013-61.573-21.213-91.026-21.213-72.466 0-129.853 41.533-164.28 115.253-7.4-36.68-21.48-67.146-42.04-90.36-27.573-31.16-65.72-47.627-110.306-47.627-18.84 0-38.507 2.84-58.92 8.493 31.427-40.6 43.84-81.706 35.533-120.626-8.32-39.013-36.52-71.52-81.933-95.773 55.707-8.587 96.173-33.507 116.066-72.293 15.213-29.667 17.813-65.227 7.72-105.666a246.07 246.07 0 0 0-3.747-13.36c40.707 29.827 84.026 45.573 127.266 45.573 58.707 0 112.36-28.427 155.48-80.573-3.2 53.187 8.24 100.586 34.213 138.733zm-323.413-783.491l234.079-78.026c208.706-69.573 313.533 41 232.946 245.706l-142.68 362.412c-80.6 204.706-251.546 225.999-379.892 47.32l-90.56-126.053c-128.346-178.68-62.6-381.799 146.106-451.359zm-588.105 68.186c13.227-47.92 5.333-99.186-22.2-150.106 37.773 18.067 76.493 27.36 114.973 27.36 77.653 0 146.4-38.093 196.066-105.706-.24 46.587 11.013 86.973 33.6 118.413 32.48 45.213 85.026 69.173 152.013 69.346-53.52 38.413-91.8 89.24-111.16 149.053-18.32 56.573-18.2 116.56-.493 175.773-118.32-103.24-288.746-170.24-450.759-171.653 45.253-29.027 75.453-67.2 87.96-112.48zM2717.287 933.158l947.931-210.013c214.786-47.6 495.545 59.667 623.892 238.346l91.053 126.746c128.346 178.68 55.973 294.346-160.84 257.053l-1498.356-257.786c-216.826-37.293-218.479-106.76-3.68-154.346zm-688.452-30.733c56.12 0 100.8-20.333 129.2-58.827 20.893-28.32 31.787-64.547 32.627-107.293 29.56 40.867 59.067 52 82.413 52 24.053 0 54.093-11.667 83.013-54.693 2.493 52.973 18.267 99.853 46.867 137.24 37.867 49.493 96.453 79.426 166.986 85.906-26.627 16.96-39.84 36.44-39.333 58.067.52 21.893 14.987 40.92 43.053 56.693-36.787 6.04-59.067 21.293-66.44 45.547-6.133 20.173-.267 42.613 17.84 67.6-36.12-11.333-73.346-17.147-110.666-17.147-100.48 0-194.32 42.533-263.146 115.693 11.76-69.453 5.36-140.786-19.52-208.439-25.187-68.48-67.24-127.586-122.186-173.106 6.547.507 12.987.76 19.293.76zm-487.985-194.52l358.532 157.066c201.506 88.293 287.586 322.346 191.266 520.145l-181.133 372.039c-96.32 197.8-235.599 190.093-309.533-17.107l-291.105-815.918c-73.929-207.199 30.452-304.506 231.971-216.226zM865.253 478.959c54.199-8.56 75.501-33.453 83.536-54.973 9.545-25.587 4.251-55.693-15.736-89.533 15.641 6.267 29.672 9.4 42.035 9.4 21.329 0 38.971-9.12 49.675-25.68 9.467-14.653 13.124-34.533 10.928-59.907 3.623 3.933 7.289 7.68 11 11.213 30.564 29.16 63.096 43.947 96.693 43.947 40.123 0 77.085-20.987 108.777-60.72-9.812 150.52 56.483 301.773 173.824 396.559a240.34 240.34 0 0 0-17.08-.627c-54.067 0-96.474 19.613-122.634 56.72-19.489 27.653-28.788 63.093-27.879 105-48.571-63.24-113.822-98.813-186.37-98.813-40.477 0-80.978 10.773-120.19 31.653 25.236-52.093 30.821-103.626 15.456-150.88-15.444-47.493-50.56-86.053-102.033-113.36zm-75.79 445.479l86.884-89.693c153.074-158.013 338.803-117.76 412.732 89.44l290.358 813.811c73.92 207.199-9.533 268.666-185.466 136.573L831.019 1451.89c-175.932-132.093-194.633-369.439-41.557-527.452zM372.971 1356.33c-39.244-50.267-97.796-81.906-167.796-91.44 53.464-28.573 91.43-69.4 110.394-120.04 18.757-50.08 17.196-105.16-3.692-161.186 62.107 42.8 134.566 66.173 209.363 66.173 62.711 0 123.714-16.147 178.809-46.613-31.295 60.973-45.172 128.213-39.771 196.76 5.461 69.306 30.183 134.213 71.469 189.96-30.467-10.32-61.056-15.613-91.061-15.613-89.232 0-165.856 46.453-215.506 126.36-3.616-55.307-21.209-104.653-52.211-144.36zm-33.301 524.612l66.035-264.146c53.359-213.426 240.958-279.973 416.89-147.88l565.643 424.679c175.933 132.093 140.64 256.706-78.432 276.919l-668.842 61.733c-219.069 20.213-354.651-137.88-301.293-351.306zm10.412 792.065c-59.219-211.879 71.568-401.786 290.635-421.999l666.348-61.493c219.065-20.213 263.131 82.106 97.918 227.386l-603.862 530.985c-165.213 145.266-348.839 90.773-408.059-121.106zm95.458 774.465c-26.473-26.96-60.875-41.2-99.485-41.2-24.091 0-49.663 5.533-76.138 16.347 30.716-50.333 41.605-102.333 30.964-152.253-10.616-49.8-41.649-92.76-90.042-126.173 70.297-1.947 126.534-28.227 163.022-76.306 25.475-33.573 39.476-76.28 41.684-125.16 47.603 72.373 116.924 113.226 197.652 113.226 35.145 0 70.838-7.907 106.064-23.293-25.016 43.147-31.52 83.92-18.216 119.573 12.976 34.787 43.38 60.907 88.634 77.213-143.189 39.147-257.846 151.053-300.595 293.079-10.075-30.573-24.663-55.84-43.543-75.053zm186.765 1009.035c-28.049 43.408-40.024 94.9-35.9 150.902-95.261-128.684-247.797-236.806-400.966-284.406 136.764-32.731 245.007-134.852 286.593-268.694 10.851 33.624 27.048 61.709 48.319 83.364 30.644 31.195 70.904 47.685 116.429 47.685 22.253 0 45.685-3.977 69.841-11.753a223.01 223.01 0 0 0-6.211 9.176c-28.295 44.171-26.475 78.436-19.967 99.4s24.412 50.237 72.746 70.62a220.53 220.53 0 0 0 9.521 3.756c-60.932 17.708-109.245 51.725-140.406 99.95zm629.962-95.922l-358.984-9.627c-219.921-5.897-254.283-116.593-76.361-245.99l834.074-606.602c177.92-129.386 273.213-62.427 211.773 148.813l-98.92 340.052c-61.453 211.239-291.666 379.251-511.581 373.354zm532.795 180.81c-24.48 33.172-37.24 75.5-38.067 124.03a227.91 227.91 0 0 0-5.987-7.956c-32.52-41.228-65.24-49.883-86.96-49.883-25.64 0-58.213 11.337-90.933 53.271 1.987-65.697-15.12-126.788-50.813-178.285-34.173-49.292-82.546-85.712-141.186-107.329 150.6-33.771 289.786-135.014 368.586-267.174 1.893 144.782 77.44 280.983 199.773 359.075-67.12 2.544-120.346 28.084-154.413 74.25zm530.532 28.38l-262.133-79.334c-210.559-63.728-332.573-288.706-271.119-499.943l99.28-341.332c61.453-211.253 191.76-222.853 289.573-25.787l349.412 703.973c97.813 197.061 5.56 306.151-205.013 242.423zm593.905 183.042c-13.093 48.649-4.973 100.502 22.88 151.821-35.653-16.912-71.786-25.609-107.373-25.609-74.44 0-138.72 37.749-183.88 104.896-1.267-148.864-79.44-289.722-205.119-369.546 74.546-3.277 111.213-37.128 128.96-65.756 14.88-24.013 26.693-60.629 19.307-113.856 42.507 43.261 91.693 66.209 144.213 66.209 48.533 0 95.413-19.993 137.52-57.741-9.547 46.105-5.24 86.648 13.32 118.878 16.96 29.429 52.507 63.941 126.626 70.613-50.093 30.428-83.306 71.297-96.453 120.09zm1306.423-413.664l-1091.184 256.211c-214.173 50.289-299.106-64.273-188.733-254.583l423.226-729.749c110.373-190.306 331.826-222.733 492.132-72.053l462.519 434.772c160.293 150.685 116.213 315.114-97.96 365.402zm633.318 108.733c-18.96-7.724-36.307-11.605-51.987-11.605-25.747 0-46.8 10.301-60.907 29.788-12.307 17.013-18.6 40.273-18.853 69.608a228.06 228.06 0 0 0-6.253-7.996c-33.227-40.5-66.147-49.001-87.92-49.001-21.667 0-54.507 8.445-87.866 48.676a237.48 237.48 0 0 0-6.04 7.62c.507-51.336-12.28-96.624-38.147-132.62-33.893-47.188-88.76-75.613-156.266-81.526 49.947-30.391 83.04-71.164 96.093-119.822 13.067-48.775 4.747-100.757-23.467-152.176 24.667 11.356 47.973 17.169 69.413 17.169 30.92 0 57.853-11.923 77.88-34.481 16.36-18.436 27.8-43.688 34.187-74.994 35.853 76.926 96.933 121.464 172.773 121.464 28.693 0 58.493-6.412 88.666-18.916-26.987 44.872-34.84 88.406-22.12 127.608 12.707 39.204 44.613 69.85 92.8 90.352-56.507 13.897-79.906 42.093-89.16 66.868-8.88 23.795-9.827 58.2 17.173 103.986zM0 4846.575l561.304 486.759h-28.493L0 4871.282v-24.708"/><use xlink:href="#B"/><use xlink:href="#B" x="2762.66" y="-565.332"/><path d="M614.665 4300.003c0 44.183-35.817 80-80 80s-80-35.817-80-80 35.817-80 80-80 80 35.817 80 80"/><use xlink:href="#C"/><use xlink:href="#B" x="1823.996" y="-341.333"/><use xlink:href="#C" x="-186.666" y="-906.664"/><use xlink:href="#C" x="96" y="-2037.328"/><path d="M1261.33 566.679c0 47.867-38.803 86.666-86.666 86.666s-86.666-38.8-86.666-86.666 38.803-86.666 86.666-86.666 86.666 38.8 86.666 86.666m3519.991 3647.99c0 47.864-38.8 86.666-86.666 86.666s-86.666-38.803-86.666-86.666 38.8-86.666 86.666-86.666 86.666 38.803 86.666 86.666M1751.996 2156.008c0 47.867-38.8 86.666-86.666 86.666s-86.666-38.8-86.666-86.666 38.8-86.666 86.666-86.666 86.666 38.8 86.666 86.666"/><use xlink:href="#B" x="1333.33" y="2357.327"/><use xlink:href="#B" x="2239.994" y="1866.662"/><use xlink:href="#B" x="-309.332" y="2399.994"/><use xlink:href="#B" x="1482.663" y="1162.663"/><use xlink:href="#B" x="2378.661" y="426.665"/><path d="M2865.326 4641.335c0 44.183-35.813 80-80 80s-80-35.817-80-80 35.813-80 80-80 80 35.817 80 80m-1119.997-181.333c0 44.183-35.813 80-80 80s-80-35.817-80-80 35.813-80 80-80 80 35.817 80 80"/><defs ><path id="B" d="M2363.994 918.678c0 44.187-35.813 80-80 80s-80-35.813-80-80 35.813-80 80-80 80 35.813 80 80"/><path id="C" d="M518.665 3212.005c0 44.187-35.817 80-80 80s-80-35.813-80-80 35.817-80 80-80 80 35.813 80 80"/></defs></svg>