<?xml version="1.0" encoding="UTF-8" ?>
<!DOCTYPE svg PUBLIC "-//W3C//DTD SVG 1.1//EN" "http://www.w3.org/Graphics/SVG/1.1/DTD/svg11.dtd">
<svg width="1000pt" height="967pt" viewBox="0 0 1000 967" version="1.1" xmlns="http://www.w3.org/2000/svg">
<g id="#ffffffff">
</g>
<g id="#3f678dff">
<path fill="#3f678d" opacity="1.00" d=" M 181.31 0.00 L 187.89 0.00 C 188.99 8.87 192.06 17.34 195.44 25.56 C 199.82 35.92 206.63 45.10 210.16 55.83 C 212.03 60.40 212.31 65.43 214.11 70.00 C 215.24 72.40 218.34 71.39 220.44 71.66 C 221.22 65.34 218.96 59.25 217.57 53.18 C 215.38 45.56 214.67 37.59 212.20 30.05 C 208.86 20.21 207.11 9.93 204.11 0.00 L 211.48 0.00 C 211.02 1.32 210.59 2.73 211.08 4.11 C 213.71 13.97 216.51 23.77 219.44 33.54 C 222.08 46.23 223.92 59.14 227.57 71.58 C 230.11 71.65 234.14 72.19 234.60 68.72 C 236.92 50.89 234.43 32.89 234.42 14.99 C 234.33 9.98 234.70 4.88 233.29 0.00 L 239.57 0.00 C 239.33 6.01 239.33 12.04 240.05 18.02 C 240.82 25.99 240.25 34.01 240.57 42.01 C 240.92 51.57 240.02 61.13 240.45 70.69 C 242.37 71.08 244.73 72.27 246.44 70.68 C 248.58 69.12 248.94 66.31 249.49 63.92 C 251.10 54.27 255.06 45.27 257.66 35.88 C 258.77 31.76 260.09 27.69 261.68 23.72 C 264.65 16.20 264.89 7.97 264.57 0.00 L 271.81 0.00 C 270.60 5.52 270.28 11.18 269.27 16.74 C 266.73 29.18 261.25 40.75 258.07 53.00 C 256.72 58.31 254.43 63.40 253.86 68.89 C 253.60 72.90 259.67 73.20 261.82 70.82 C 263.58 68.46 264.05 65.44 265.05 62.73 C 266.55 57.75 269.29 53.30 271.78 48.78 C 274.76 43.58 276.39 37.72 279.68 32.68 C 284.74 25.02 288.58 16.62 291.84 8.04 C 292.88 5.49 292.92 2.71 292.70 0.00 L 299.91 0.00 C 296.63 10.99 292.73 21.92 286.54 31.65 C 284.08 35.20 281.41 38.69 279.99 42.83 C 277.24 50.46 272.53 57.24 270.30 65.08 C 268.96 68.89 268.24 73.25 265.21 76.17 C 260.07 78.30 254.37 76.75 249.00 76.75 C 240.00 76.71 230.97 76.33 222.00 77.22 C 218.66 77.36 215.07 77.52 211.98 76.03 C 208.55 74.04 208.28 69.76 207.43 66.31 C 203.18 47.09 189.01 31.94 184.37 12.86 C 183.25 8.59 182.84 4.15 181.31 0.00 Z" />
<path fill="#3f678d" opacity="1.00" d=" M 734.22 0.00 L 741.25 0.00 C 740.99 7.17 744.11 13.78 746.79 20.25 C 749.06 25.68 751.85 30.89 755.16 35.77 C 758.71 40.95 760.00 47.26 763.40 52.53 C 765.86 56.56 768.14 60.74 769.61 65.26 C 770.66 68.21 771.32 71.35 772.88 74.10 C 774.11 76.42 777.35 75.83 779.55 75.65 C 782.53 74.26 780.92 70.87 780.48 68.46 C 777.69 58.97 775.16 49.38 771.81 40.06 C 768.86 30.85 765.40 21.66 764.55 11.96 C 764.20 7.96 763.73 3.97 763.18 0.00 L 769.51 0.00 C 769.93 7.97 770.51 16.01 772.38 23.79 C 777.88 39.70 783.06 55.77 787.04 72.14 C 787.53 75.74 792.81 76.87 794.52 73.58 C 794.82 71.75 794.73 69.90 794.72 68.06 C 794.19 54.04 794.48 40.01 794.67 25.99 C 795.54 17.36 795.96 8.67 795.42 0.00 L 802.64 0.00 C 800.29 5.00 801.97 10.70 801.24 16.00 C 799.80 27.87 800.65 39.86 800.09 51.77 C 799.40 59.00 799.80 66.30 800.62 73.50 C 802.33 75.75 806.08 76.37 808.19 74.31 C 808.77 72.60 808.99 70.79 809.27 69.01 C 810.15 61.46 813.02 54.31 813.79 46.74 C 814.39 41.00 815.89 35.41 817.86 30.00 C 820.10 23.88 821.14 17.43 823.07 11.22 C 824.21 7.59 824.75 3.80 824.67 0.00 L 831.99 0.00 C 829.66 8.76 827.54 17.57 825.21 26.33 C 823.43 32.43 820.84 38.30 819.94 44.63 C 818.67 52.88 816.70 60.99 814.88 69.12 C 814.69 70.91 813.72 73.27 815.41 74.64 C 816.92 76.36 819.60 75.51 820.97 74.05 C 822.01 71.83 822.37 69.36 822.96 67.00 C 824.90 58.21 828.63 49.92 833.17 42.18 C 837.63 34.60 840.80 26.36 843.94 18.17 C 845.81 12.29 847.94 6.27 847.47 0.00 L 853.76 0.00 C 852.94 8.58 850.88 16.99 848.07 25.11 C 843.59 36.75 835.94 46.83 831.49 58.48 C 828.78 63.92 827.77 69.92 826.60 75.81 C 825.89 79.63 821.42 80.87 818.04 80.65 C 805.03 80.56 792.02 80.40 779.01 80.64 C 776.06 80.60 773.05 80.89 770.18 80.14 C 766.58 77.21 765.99 72.31 764.61 68.17 C 762.67 61.04 758.51 54.85 755.75 48.05 C 752.68 39.81 746.40 33.32 743.00 25.22 C 738.59 17.37 736.61 8.58 734.22 0.00 Z" />
</g>
<g id="#f8ced1ff">
<path fill="#f8ced1" opacity="1.00" d=" M 187.89 0.00 L 204.11 0.00 C 207.11 9.93 208.86 20.21 212.20 30.05 C 214.67 37.59 215.38 45.56 217.57 53.18 C 218.96 59.25 221.22 65.34 220.44 71.66 C 218.34 71.39 215.24 72.40 214.11 70.00 C 212.31 65.43 212.03 60.40 210.16 55.83 C 206.63 45.10 199.82 35.92 195.44 25.56 C 192.06 17.34 188.99 8.87 187.89 0.00 Z" />
<path fill="#f8ced1" opacity="1.00" d=" M 831.99 0.00 L 847.47 0.00 C 847.94 6.27 845.81 12.29 843.94 18.17 C 840.80 26.36 837.63 34.60 833.17 42.18 C 828.63 49.92 824.90 58.21 822.96 67.00 C 822.37 69.36 822.01 71.83 820.97 74.05 C 819.60 75.51 816.92 76.36 815.41 74.64 C 813.72 73.27 814.69 70.91 814.88 69.12 C 816.70 60.99 818.67 52.88 819.94 44.63 C 820.84 38.30 823.43 32.43 825.21 26.33 C 827.54 17.57 829.66 8.76 831.99 0.00 Z" />
</g>
<g id="#e2e4faff">
<path fill="#e2e4fa" opacity="1.00" d=" M 211.48 0.00 L 233.29 0.00 C 234.70 4.88 234.33 9.98 234.42 14.99 C 234.43 32.89 236.92 50.89 234.60 68.72 C 234.14 72.19 230.11 71.65 227.57 71.58 C 223.92 59.14 222.08 46.23 219.44 33.54 C 216.51 23.77 213.71 13.97 211.08 4.11 C 210.59 2.73 211.02 1.32 211.48 0.00 Z" />
</g>
<g id="#facda0ff">
<path fill="#facda0" opacity="1.00" d=" M 239.57 0.00 L 264.57 0.00 C 264.89 7.97 264.65 16.20 261.68 23.72 C 260.09 27.69 258.77 31.76 257.66 35.88 C 255.06 45.27 251.10 54.27 249.49 63.92 C 248.94 66.31 248.58 69.12 246.44 70.68 C 244.73 72.27 242.37 71.08 240.45 70.69 C 240.02 61.13 240.92 51.57 240.57 42.01 C 240.25 34.01 240.82 25.99 240.05 18.02 C 239.33 12.04 239.33 6.01 239.57 0.00 Z" />
</g>
<g id="#c8f0cdff">
<path fill="#c8f0cd" opacity="1.00" d=" M 271.81 0.00 L 292.70 0.00 C 292.92 2.71 292.88 5.49 291.84 8.04 C 288.58 16.62 284.74 25.02 279.68 32.68 C 276.39 37.72 274.76 43.58 271.78 48.78 C 269.29 53.30 266.55 57.75 265.05 62.73 C 264.05 65.44 263.58 68.46 261.82 70.82 C 259.67 73.20 253.60 72.90 253.86 68.89 C 254.43 63.40 256.72 58.31 258.07 53.00 C 261.25 40.75 266.73 29.18 269.27 16.74 C 270.28 11.18 270.60 5.52 271.81 0.00 Z" />
<path fill="#c8f0cd" opacity="1.00" d=" M 377.35 233.61 L 377.90 233.42 C 387.90 238.86 396.32 247.08 401.83 257.05 C 403.50 261.57 404.29 266.37 406.08 270.86 C 408.35 276.19 406.85 282.01 406.21 287.51 C 403.67 297.99 399.66 308.11 394.48 317.56 C 391.80 322.14 388.58 326.46 386.78 331.50 C 384.77 337.50 380.75 342.52 378.33 348.33 C 376.37 352.22 375.68 356.64 373.56 360.44 C 371.55 364.11 364.09 362.81 365.48 358.00 C 366.78 351.44 369.35 345.19 370.81 338.66 C 374.78 326.95 379.26 315.32 381.22 303.05 C 383.83 286.52 384.59 269.62 382.56 252.98 C 381.92 247.01 379.30 241.54 376.93 236.12 C 376.52 235.38 376.22 233.83 377.35 233.61 Z" />
</g>
<g id="#3d6890ff">
<path fill="#3d6890" opacity="1.00" d=" M 452.16 0.00 L 459.05 0.00 C 459.93 3.44 461.11 6.84 463.21 9.75 C 467.16 15.57 471.22 22.17 478.11 24.79 C 491.12 29.55 505.01 32.14 518.88 31.39 C 537.18 33.12 555.59 32.35 573.96 32.46 C 580.70 32.50 587.30 30.80 594.03 30.66 C 602.49 30.35 611.62 29.87 618.74 24.73 C 622.68 21.84 627.10 18.61 628.35 13.59 C 629.71 9.20 630.15 4.57 629.69 0.00 L 635.59 0.00 C 633.94 5.82 634.57 12.21 631.72 17.70 C 629.43 22.86 624.66 26.16 620.20 29.31 C 617.87 30.87 615.61 32.84 612.76 33.29 C 603.24 34.52 593.65 35.13 584.14 36.43 C 570.18 38.50 556.01 36.85 542.00 38.17 C 536.99 38.57 531.98 38.03 527.00 37.66 C 515.15 36.62 503.00 39.02 491.41 35.50 C 487.10 34.01 482.71 32.82 478.29 31.74 C 468.85 28.52 461.64 20.92 456.60 12.54 C 454.39 8.65 453.44 4.24 452.16 0.00 Z" />
</g>
<g id="#d0f2feff">
<path fill="#d0f2fe" opacity="1.00" d=" M 459.05 0.00 L 629.69 0.00 C 630.15 4.57 629.71 9.20 628.35 13.59 C 627.10 18.61 622.68 21.84 618.74 24.73 C 611.62 29.87 602.49 30.35 594.03 30.66 C 587.30 30.80 580.70 32.50 573.96 32.46 C 555.59 32.35 537.18 33.12 518.88 31.39 C 505.01 32.14 491.12 29.55 478.11 24.79 C 471.22 22.17 467.16 15.57 463.21 9.75 C 461.11 6.84 459.93 3.44 459.05 0.00 Z" />
<path fill="#d0f2fe" opacity="1.00" d=" M 718.55 166.69 C 723.53 164.36 729.22 163.83 734.62 164.67 C 741.16 166.51 746.20 171.47 750.73 176.31 C 753.17 178.97 755.68 182.70 754.55 186.44 C 751.52 190.31 746.64 192.72 744.74 197.45 C 744.03 200.75 744.04 204.23 744.57 207.56 C 746.34 210.90 751.54 210.14 754.02 208.01 C 758.24 203.79 759.25 197.61 761.45 192.28 C 762.27 190.41 763.82 188.35 766.08 188.39 C 770.12 188.18 774.31 187.95 778.27 188.93 C 783.58 191.82 786.53 198.01 785.84 203.98 C 786.52 214.74 781.13 224.59 775.06 233.04 C 770.72 238.92 764.22 242.49 758.15 246.28 C 753.92 248.75 749.77 251.63 744.88 252.58 C 739.24 253.74 733.71 255.48 727.96 256.00 C 715.24 257.29 702.51 255.32 689.96 253.42 C 678.37 251.56 668.37 244.84 659.54 237.46 C 654.27 233.04 651.65 226.50 648.77 220.45 C 647.81 214.61 647.78 208.20 650.56 202.80 C 652.98 196.64 658.04 192.17 662.39 187.39 C 665.59 183.56 671.08 183.14 675.68 184.00 C 679.08 184.68 683.10 184.63 685.60 187.41 C 688.53 189.75 687.15 193.83 687.94 197.03 C 688.67 202.20 692.12 208.29 697.97 208.40 C 700.48 208.65 701.54 206.06 702.34 204.17 C 703.30 201.55 704.41 198.83 704.33 195.99 C 703.81 192.54 700.99 190.20 698.71 187.84 C 699.25 185.04 700.05 182.18 702.10 180.08 C 706.95 174.94 711.87 169.44 718.55 166.69 Z" />
<path fill="#d0f2fe" opacity="1.00" d=" M 607.99 320.96 C 612.56 319.50 617.67 317.45 622.35 319.71 C 624.77 320.79 628.46 321.84 628.88 324.85 C 626.54 328.07 622.82 330.41 621.75 334.45 C 621.01 337.92 621.15 341.51 621.32 345.04 C 621.15 349.65 625.71 353.33 630.00 353.65 C 633.32 354.25 634.92 350.74 636.44 348.46 C 640.44 342.15 637.69 334.47 638.67 327.61 C 642.81 323.39 649.42 323.04 655.03 323.21 C 662.13 322.70 668.01 327.60 672.72 332.30 C 675.50 334.98 676.13 338.93 675.72 342.62 C 671.36 344.96 666.48 347.53 664.66 352.47 C 664.08 355.78 664.00 359.24 664.62 362.55 C 666.30 367.69 674.58 369.37 677.40 364.37 C 680.72 360.52 680.12 355.16 681.70 350.62 C 683.04 347.02 687.67 348.43 690.26 349.75 C 694.52 351.79 695.74 356.62 697.12 360.72 C 698.79 365.13 699.16 369.97 698.59 374.63 C 695.82 378.07 691.05 378.87 687.74 381.67 C 683.58 384.97 678.37 389.00 679.26 395.01 C 678.53 400.15 684.51 404.40 689.15 402.05 C 694.54 398.88 699.09 393.92 701.25 387.99 C 702.20 385.77 702.99 383.25 705.12 381.85 C 710.64 380.32 716.16 383.18 719.96 387.05 C 723.59 390.21 723.24 395.83 721.93 399.98 C 715.60 409.55 705.09 415.60 694.41 419.18 C 683.46 422.40 672.33 425.28 660.94 426.29 C 656.22 426.60 651.69 428.14 646.99 428.52 C 635.38 429.88 623.67 429.61 612.01 429.53 C 603.32 429.67 594.74 428.05 586.10 427.44 C 576.19 426.10 566.41 423.66 557.11 419.96 C 551.35 418.08 545.63 415.90 540.62 412.42 C 533.83 407.83 525.34 404.19 521.99 396.14 C 520.13 389.82 522.30 383.13 525.87 377.85 C 532.12 368.29 540.75 360.56 550.03 354.02 C 555.65 349.45 562.66 346.37 569.98 346.37 C 572.43 347.08 571.36 350.11 571.50 351.97 C 571.46 357.76 570.04 364.29 573.62 369.37 C 575.95 373.34 580.25 376.35 585.03 375.70 C 589.94 376.28 591.67 370.57 592.41 366.76 C 592.85 361.10 593.78 354.61 590.15 349.75 C 587.81 346.44 584.30 344.22 581.80 341.05 C 583.39 337.16 586.61 334.40 589.54 331.53 C 594.57 326.36 601.39 323.53 607.99 320.96 Z" />
<path fill="#d0f2fe" opacity="1.00" d=" M 121.26 376.21 C 125.45 373.95 131.01 371.78 135.42 374.60 C 139.07 377.54 142.50 380.86 145.33 384.61 C 146.79 387.01 144.33 389.29 143.19 391.26 C 138.73 397.05 137.72 404.69 138.44 411.78 C 138.83 415.04 140.35 418.04 142.40 420.57 C 144.81 420.66 147.22 420.67 149.63 420.59 C 152.77 415.27 153.45 409.01 154.26 403.01 C 154.76 398.63 153.70 394.30 153.43 389.95 C 159.26 384.49 166.98 380.94 175.00 380.62 C 182.83 380.79 190.01 385.18 195.03 390.99 C 196.95 393.43 198.64 396.47 198.38 399.68 C 196.38 404.64 190.28 406.03 187.75 410.62 C 186.18 413.45 186.08 416.80 186.21 419.96 C 186.26 423.46 189.02 425.96 191.05 428.51 C 194.47 427.69 198.26 426.47 200.22 423.32 C 203.06 418.60 202.59 412.85 203.90 407.67 C 204.62 406.01 206.05 404.12 208.10 404.40 C 212.52 404.09 217.02 405.69 220.16 408.85 C 226.74 415.82 231.91 425.14 230.57 435.04 C 227.80 447.40 222.22 459.91 211.79 467.66 C 203.79 471.78 194.69 472.95 185.98 474.76 C 177.92 476.61 169.61 474.70 161.51 476.21 C 145.01 476.74 128.49 476.48 111.98 476.55 C 104.59 476.68 97.37 474.71 89.99 474.60 C 82.66 474.52 74.98 473.42 68.76 469.26 C 64.81 466.62 60.36 463.68 59.08 458.79 C 56.33 449.60 54.41 438.72 60.17 430.25 C 63.80 424.92 66.78 418.98 71.56 414.56 C 76.16 410.76 81.88 408.48 87.70 407.39 C 91.67 410.97 90.37 416.78 92.31 421.32 C 93.39 425.63 97.29 428.36 101.17 429.98 C 104.68 431.37 108.38 428.85 110.21 425.94 C 111.17 421.12 109.79 416.05 106.81 412.19 C 103.93 408.21 98.93 406.29 96.44 402.00 C 96.62 397.20 100.03 393.43 102.75 389.76 C 107.57 383.68 114.64 379.98 121.26 376.21 Z" />
<path fill="#d0f2fe" opacity="1.00" d=" M 962.53 568.58 C 968.24 563.04 976.12 559.90 984.01 559.47 C 990.15 559.12 995.14 563.19 1000.00 566.33 L 1000.00 590.31 C 999.10 593.16 997.86 595.98 997.76 599.02 C 998.06 601.11 999.18 602.95 1000.00 604.88 L 1000.00 647.45 C 994.67 648.82 989.39 650.46 983.90 651.06 C 970.77 652.26 957.56 651.03 944.57 649.03 C 939.22 648.06 934.16 645.99 929.28 643.68 C 923.85 641.08 919.36 636.99 914.68 633.29 C 909.09 628.95 905.80 622.45 903.01 616.12 C 901.50 611.26 902.05 605.95 903.24 601.08 C 904.81 594.59 909.76 589.86 914.04 585.04 C 916.48 582.47 919.10 579.27 922.99 579.31 C 929.02 579.13 936.80 578.49 940.83 583.96 C 942.40 589.22 941.66 595.30 945.06 599.94 C 947.23 602.99 952.03 604.84 955.28 602.47 C 957.15 598.99 958.23 594.99 958.26 591.05 C 957.38 587.44 954.38 584.89 952.25 581.99 C 954.01 576.42 958.46 572.48 962.53 568.58 Z" />
<path fill="#d0f2fe" opacity="1.00" d=" M 361.35 783.36 C 366.08 778.63 371.50 773.83 378.27 772.53 C 387.59 771.82 397.03 775.84 403.47 782.55 C 407.16 786.35 411.52 790.31 412.49 795.77 C 410.69 798.63 407.58 800.71 406.73 804.13 C 406.74 808.40 408.54 812.39 409.88 816.37 C 413.09 816.87 416.79 816.82 419.00 814.03 C 424.17 808.89 422.20 801.00 425.08 794.85 C 430.90 792.32 437.38 791.56 443.64 792.53 C 446.81 793.08 448.81 795.87 450.89 798.06 C 454.38 802.26 458.63 806.03 460.75 811.18 C 462.90 816.13 463.03 821.69 462.59 826.99 C 461.85 831.19 459.29 834.76 457.25 838.41 C 453.55 844.85 447.21 849.04 441.38 853.38 C 429.59 861.52 415.00 863.48 401.06 864.53 C 393.58 864.55 386.05 865.06 378.62 864.05 C 369.28 861.99 359.76 859.51 351.71 854.13 C 345.91 850.12 339.41 846.68 335.28 840.76 C 328.64 831.65 323.90 820.39 325.03 808.94 C 325.20 804.67 328.01 801.24 330.87 798.34 C 335.17 796.31 340.06 796.00 344.73 796.57 C 346.47 796.63 347.73 798.01 348.63 799.37 C 352.21 805.02 352.48 812.66 357.84 817.17 C 360.21 819.46 363.57 818.06 366.26 817.27 C 366.85 812.57 367.49 807.36 364.84 803.15 C 362.28 799.53 358.26 797.33 355.30 794.09 C 356.47 790.10 358.31 786.26 361.35 783.36 Z" />
<path fill="#d0f2fe" opacity="1.00" d=" M 928.12 780.14 C 933.58 778.31 939.04 775.23 944.99 776.08 C 948.74 776.43 952.67 776.31 956.18 777.94 C 960.00 779.68 963.87 781.33 967.64 783.21 C 971.96 785.38 975.20 789.05 978.58 792.41 C 981.10 795.06 984.24 797.59 984.82 801.44 C 980.15 804.01 974.97 806.34 972.05 811.05 C 968.82 815.06 967.83 821.49 971.52 825.53 C 975.29 830.16 983.01 830.51 987.17 826.20 C 992.16 821.38 990.99 813.82 992.65 807.63 C 995.09 807.34 997.54 807.14 1000.00 806.95 L 1000.00 884.57 C 988.53 891.28 975.55 894.62 962.58 896.99 C 953.22 899.36 943.56 899.89 934.03 901.21 C 927.01 902.09 920.03 899.99 913.01 900.74 C 898.83 902.15 884.47 901.62 870.44 899.10 C 862.70 897.48 854.81 896.44 847.32 893.81 C 841.98 892.03 836.43 890.92 831.28 888.61 C 826.97 886.72 822.28 885.43 818.56 882.43 C 809.54 874.54 800.92 865.39 797.18 853.74 C 796.07 848.78 797.55 843.69 798.62 838.85 C 800.57 830.51 805.94 823.67 810.98 816.98 C 819.44 807.76 830.37 799.98 843.08 798.39 C 845.58 798.26 849.14 797.64 850.38 800.51 C 850.91 805.24 849.50 810.16 851.05 814.78 C 852.44 818.18 854.40 821.38 856.91 824.07 C 860.54 828.09 866.87 828.59 871.71 826.76 C 875.14 825.36 875.62 821.18 875.65 817.96 C 876.01 812.64 873.41 807.73 870.27 803.64 C 867.29 799.70 862.66 797.57 859.36 793.97 C 865.31 783.30 878.27 778.29 890.04 778.76 C 896.54 779.27 904.20 780.14 908.09 786.13 C 906.27 790.00 904.27 793.92 903.90 798.25 C 903.41 802.59 905.83 807.13 909.69 809.17 C 912.86 810.50 916.49 810.95 919.87 810.20 C 923.14 807.97 922.74 803.50 922.72 800.04 C 922.69 795.54 919.58 792.00 918.19 787.92 C 919.55 783.68 924.38 781.85 928.12 780.14 Z" />
</g>
<g id="#c8f1ceff">
<path fill="#c8f1ce" opacity="1.00" d=" M 741.25 0.00 L 763.18 0.00 C 763.73 3.97 764.20 7.96 764.55 11.96 C 765.40 21.66 768.86 30.85 771.81 40.06 C 775.16 49.38 777.69 58.97 780.48 68.46 C 780.92 70.87 782.53 74.26 779.55 75.65 C 777.35 75.83 774.11 76.42 772.88 74.10 C 771.32 71.35 770.66 68.21 769.61 65.26 C 768.14 60.74 765.86 56.56 763.40 52.53 C 760.00 47.26 758.71 40.95 755.16 35.77 C 751.85 30.89 749.06 25.68 746.79 20.25 C 744.11 13.78 740.99 7.17 741.25 0.00 Z" />
<path fill="#c8f1ce" opacity="1.00" d=" M 849.76 253.78 C 855.41 245.28 862.83 237.73 872.21 233.43 C 873.47 235.96 871.62 238.39 870.73 240.69 C 867.16 247.94 866.97 256.15 865.82 263.99 C 865.29 273.26 865.43 282.62 867.02 291.79 C 868.05 303.86 870.67 315.80 874.87 327.17 C 877.12 332.85 878.72 338.75 880.39 344.62 C 881.81 349.69 884.04 354.62 884.41 359.94 C 883.07 363.83 876.61 363.32 875.37 359.57 C 872.61 352.52 870.43 345.16 866.25 338.77 C 863.31 334.59 862.63 329.35 859.87 325.09 C 852.32 313.77 846.32 301.24 843.45 287.88 C 842.35 281.85 841.59 275.42 843.82 269.55 C 845.73 264.27 846.28 258.37 849.76 253.78 Z" />
<path fill="#c8f1ce" opacity="1.00" d=" M 707.42 506.99 C 706.89 505.25 708.95 504.44 709.87 503.38 C 718.49 508.18 723.98 516.49 730.01 523.99 C 732.21 526.63 731.56 530.35 732.25 533.52 C 732.72 533.18 733.19 532.85 733.68 532.53 C 734.88 539.61 734.74 546.82 734.70 553.98 C 733.96 565.32 728.27 575.44 723.40 585.45 C 721.27 589.53 718.51 593.24 716.45 597.36 C 712.56 607.30 706.04 616.10 703.52 626.60 C 702.71 631.36 696.25 632.01 693.42 628.73 C 694.44 623.15 696.75 617.95 698.17 612.49 C 700.20 604.89 702.77 597.46 705.13 589.97 C 712.64 567.50 713.77 543.37 711.54 519.94 C 712.12 515.07 707.44 511.76 707.42 506.99 Z" />
</g>
<g id="#fccd9eff">
<path fill="#fccd9e" opacity="1.00" d=" M 769.51 0.00 L 795.42 0.00 C 795.96 8.67 795.54 17.36 794.67 25.99 C 794.48 40.01 794.19 54.04 794.72 68.06 C 794.73 69.90 794.82 71.75 794.52 73.58 C 792.81 76.87 787.53 75.74 787.04 72.14 C 783.06 55.77 777.88 39.70 772.38 23.79 C 770.51 16.01 769.93 7.97 769.51 0.00 Z" />
</g>
<g id="#e2e4fcff">
<path fill="#e2e4fc" opacity="1.00" d=" M 802.64 0.00 L 824.67 0.00 C 824.75 3.80 824.21 7.59 823.07 11.22 C 821.14 17.43 820.10 23.88 817.86 30.00 C 815.89 35.41 814.39 41.00 813.79 46.74 C 813.02 54.31 810.15 61.46 809.27 69.01 C 808.99 70.79 808.77 72.60 808.19 74.31 C 806.08 76.37 802.33 75.75 800.62 73.50 C 799.80 66.30 799.40 59.00 800.09 51.77 C 800.65 39.86 799.80 27.87 801.24 16.00 C 801.97 10.70 800.29 5.00 802.64 0.00 Z" />
<path fill="#e2e4fc" opacity="1.00" d=" M 670.42 493.73 C 673.62 493.46 677.12 497.34 676.22 500.66 C 674.50 508.11 676.16 515.79 674.91 523.29 C 673.65 532.18 675.12 541.22 673.87 550.12 C 673.24 554.75 674.13 559.37 674.30 563.99 C 674.38 573.34 674.68 582.69 674.73 592.04 C 676.18 603.30 675.52 614.70 675.29 626.02 C 675.16 630.15 668.99 632.06 666.73 628.47 C 666.16 619.68 662.90 611.40 661.68 602.71 C 660.51 594.22 658.14 585.98 655.42 577.88 C 653.87 570.46 651.01 563.36 649.72 555.89 C 649.41 547.82 649.20 539.68 649.89 531.64 C 652.33 522.12 655.99 512.94 660.05 504.01 C 661.90 499.30 665.71 495.55 670.42 493.73 Z" />
</g>
<g id="#41678cff">
<path fill="#41678c" opacity="1.00" d=" M 14.31 72.31 C 15.59 70.62 17.57 70.27 19.54 70.72 C 18.70 74.21 18.21 78.00 15.78 80.83 C 13.10 84.06 10.95 87.70 9.33 91.57 C 8.40 91.58 7.46 91.58 6.52 91.59 C 4.78 84.18 9.61 77.49 14.31 72.31 Z" />
</g>
<g id="#40688cff">
<path fill="#40688c" opacity="1.00" d=" M 210.60 88.02 C 210.86 85.28 213.77 85.02 215.94 84.77 C 219.29 84.88 222.64 85.71 226.00 85.10 C 238.98 83.16 251.98 86.34 265.00 85.35 C 266.23 88.81 264.92 92.38 263.95 95.73 C 262.88 100.35 262.66 105.14 261.48 109.75 C 261.05 111.80 259.15 113.70 256.95 113.51 C 248.63 113.50 240.30 113.21 231.99 113.62 C 226.93 114.01 221.63 115.57 216.68 113.79 C 215.58 108.32 215.77 102.69 214.56 97.24 C 213.93 93.89 211.62 91.22 210.60 88.02 M 219.15 91.15 C 219.97 96.35 221.12 101.50 221.61 106.75 C 221.54 108.14 222.98 108.78 224.03 109.27 C 231.37 110.08 238.65 108.06 246.00 108.48 C 249.05 108.36 252.27 109.21 255.22 108.22 C 257.49 103.06 257.71 97.28 259.45 91.94 C 257.91 89.86 255.31 90.27 253.05 90.31 C 246.68 90.64 240.36 89.40 233.99 89.61 C 229.04 89.78 223.83 89.17 219.15 91.15 Z" />
<path fill="#40688c" opacity="1.00" d=" M 322.28 376.32 C 326.32 374.67 330.77 375.65 335.01 375.48 C 339.71 375.69 344.31 374.13 349.01 374.70 C 358.12 375.98 367.35 375.39 376.52 375.61 C 377.46 381.75 374.57 387.61 374.26 393.71 C 373.48 397.11 373.98 402.37 369.75 403.49 C 360.19 404.01 350.52 402.79 341.00 404.27 C 336.94 404.76 332.84 404.68 328.76 404.59 C 327.09 399.38 327.02 393.86 326.23 388.49 C 325.39 384.25 321.89 380.84 322.28 376.32 M 331.12 380.52 C 330.67 384.74 332.47 388.79 332.56 393.00 C 332.97 395.20 332.59 398.35 335.05 399.42 C 341.37 399.83 347.72 399.37 354.00 398.66 C 357.66 398.29 361.28 399.19 364.93 399.19 C 368.11 398.24 368.01 394.52 368.62 391.88 C 369.05 388.10 370.89 384.53 370.46 380.68 C 363.32 380.19 356.14 380.67 348.99 380.14 C 343.03 379.45 337.08 380.55 331.12 380.52 Z" />
<path fill="#40688c" opacity="1.00" d=" M 873.11 375.47 C 882.40 375.55 891.75 375.93 900.98 374.69 C 905.02 374.22 908.97 375.44 912.99 375.47 C 916.91 375.58 920.85 375.19 924.77 375.51 C 927.27 375.40 928.15 378.80 926.62 380.49 C 921.95 387.64 923.06 396.45 921.44 404.46 C 915.95 404.90 910.44 404.61 905.00 403.81 C 897.06 403.21 889.09 403.73 881.15 403.62 C 878.95 403.72 876.90 401.88 876.58 399.75 C 875.50 394.55 875.04 389.23 873.74 384.08 C 873.17 381.25 871.83 378.30 873.11 375.47 M 880.18 380.38 C 877.82 383.93 880.69 387.92 881.07 391.66 C 881.77 394.53 881.86 399.49 885.98 399.20 C 893.98 397.61 901.98 399.80 910.03 399.57 C 912.05 399.38 914.68 400.13 916.10 398.22 C 917.25 394.22 917.35 390.02 918.21 385.96 C 918.65 384.11 918.67 382.22 918.02 380.42 C 913.34 380.51 908.67 379.95 904.01 379.90 C 896.08 380.51 888.12 380.57 880.18 380.38 Z" />
</g>
<g id="#43668cff">
<path fill="#43668c" opacity="1.00" d=" M 327.32 88.20 C 331.01 86.81 335.12 87.52 338.99 87.39 C 345.77 87.60 352.84 87.12 359.24 89.78 C 361.51 90.46 362.09 95.10 359.08 94.64 C 350.80 93.34 342.47 90.46 333.99 92.01 C 331.15 92.16 327.56 93.40 325.29 91.11 C 325.28 89.63 325.96 88.66 327.32 88.20 Z" />
</g>
<g id="#40678aff">
<path fill="#40678a" opacity="1.00" d=" M 769.49 90.08 C 772.18 88.40 775.90 89.71 779.00 89.36 C 788.31 88.82 797.65 88.01 806.99 88.60 C 812.59 88.97 818.28 88.07 823.81 89.40 C 823.98 90.05 824.33 91.35 824.50 92.00 C 823.04 95.75 820.67 99.20 820.21 103.29 C 819.56 108.11 819.29 112.96 818.32 117.73 C 813.99 119.21 809.39 118.05 804.99 117.63 C 796.08 116.95 787.13 117.40 778.22 117.36 C 774.02 117.24 772.88 112.39 772.62 109.01 C 772.35 102.58 769.91 96.47 769.49 90.08 M 776.69 94.74 C 775.81 96.12 776.38 97.78 776.64 99.26 C 777.78 103.71 778.26 108.39 780.33 112.55 C 789.57 112.50 798.86 112.10 808.05 113.25 C 810.27 113.62 813.67 112.68 813.63 109.93 C 814.04 104.75 815.61 99.71 815.62 94.51 C 813.80 93.98 811.93 93.54 810.03 93.56 C 801.69 93.38 793.33 93.35 785.01 94.06 C 782.26 94.25 779.02 92.77 776.69 94.74 Z" />
</g>
<g id="#fbfdd2ff">
<path fill="#fbfdd2" opacity="1.00" d=" M 219.15 91.15 C 223.83 89.17 229.04 89.78 233.99 89.61 C 240.36 89.40 246.68 90.64 253.05 90.31 C 255.31 90.27 257.91 89.86 259.45 91.94 C 257.71 97.28 257.49 103.06 255.22 108.22 C 252.27 109.21 249.05 108.36 246.00 108.48 C 238.65 108.06 231.37 110.08 224.03 109.27 C 222.98 108.78 221.54 108.14 221.61 106.75 C 221.12 101.50 219.97 96.35 219.15 91.15 Z" />
<path fill="#fbfdd2" opacity="1.00" d=" M 331.12 380.52 C 337.08 380.55 343.03 379.45 348.99 380.14 C 356.14 380.67 363.32 380.19 370.46 380.68 C 370.89 384.53 369.05 388.10 368.62 391.88 C 368.01 394.52 368.11 398.24 364.93 399.19 C 361.28 399.19 357.66 398.29 354.00 398.66 C 347.72 399.37 341.37 399.83 335.05 399.42 C 332.59 398.35 332.97 395.20 332.56 393.00 C 332.47 388.79 330.67 384.74 331.12 380.52 Z" />
</g>
<g id="#fafdd4ff">
<path fill="#fafdd4" opacity="1.00" d=" M 776.69 94.74 C 779.02 92.77 782.26 94.25 785.01 94.06 C 793.33 93.35 801.69 93.38 810.03 93.56 C 811.93 93.54 813.80 93.98 815.62 94.51 C 815.61 99.71 814.04 104.75 813.63 109.93 C 813.67 112.68 810.27 113.62 808.05 113.25 C 798.86 112.10 789.57 112.50 780.33 112.55 C 778.26 108.39 777.78 103.71 776.64 99.26 C 776.38 97.78 775.81 96.12 776.69 94.74 Z" />
</g>
<g id="#44688cff">
<path fill="#44688c" opacity="1.00" d=" M 383.94 103.07 C 382.37 102.13 381.45 98.95 383.94 98.54 C 388.51 98.89 392.01 102.17 395.82 104.35 C 399.36 106.63 403.55 108.18 406.27 111.53 C 406.73 113.61 406.53 115.77 406.55 117.89 C 404.90 117.63 403.20 117.29 402.10 115.92 C 396.94 110.43 389.60 107.89 383.94 103.07 Z" />
</g>
<g id="#41668cff">
<path fill="#41668c" opacity="1.00" d=" M 994.00 118.53 C 994.78 118.49 996.33 118.40 997.11 118.36 C 997.45 119.86 998.49 121.39 997.99 122.98 C 995.96 130.57 993.38 138.19 993.52 146.14 C 992.16 146.48 990.84 146.09 989.58 145.68 C 988.11 136.36 991.00 127.23 994.00 118.53 Z" />
</g>
<g id="#44688bff">
<path fill="#44688b" opacity="1.00" d=" M 422.37 126.32 C 424.36 126.40 426.51 126.53 427.94 128.13 C 432.70 132.66 437.41 137.27 442.01 141.97 C 444.05 143.64 443.48 146.44 443.66 148.77 C 439.36 149.30 436.72 145.62 434.01 142.97 C 430.45 139.23 426.46 135.84 423.46 131.61 C 422.24 130.12 422.60 128.10 422.37 126.32 Z" />
</g>
<g id="#48668dff">
<path fill="#48668d" opacity="1.00" d=" M 107.48 146.42 C 113.88 144.21 121.03 145.59 127.56 146.69 C 129.13 147.26 132.64 147.82 131.37 150.25 C 126.55 150.86 121.80 149.38 116.99 149.59 C 113.54 149.59 110.28 150.83 106.92 151.43 C 104.50 150.46 105.60 147.30 107.48 146.42 Z" />
</g>
<g id="#40678fff">
<path fill="#40678f" opacity="1.00" d=" M 458.95 164.05 C 457.04 162.58 455.15 159.10 457.90 157.50 C 461.23 158.32 464.07 160.31 467.03 161.94 C 471.78 164.65 476.85 166.75 481.60 169.48 C 481.64 170.88 481.69 172.28 481.74 173.68 C 479.00 173.65 476.08 173.86 473.68 172.28 C 468.86 169.38 463.44 167.48 458.95 164.05 Z" />
</g>
<g id="#3c6891ff">
<path fill="#3c6891" opacity="1.00" d=" M 707.96 165.04 C 715.85 160.40 725.43 157.96 734.46 160.40 C 740.57 161.31 745.49 165.24 750.44 168.63 C 755.62 172.30 758.27 178.21 761.55 183.43 C 768.33 183.40 775.49 182.52 781.88 185.31 C 788.41 189.44 791.80 197.42 791.62 204.99 C 791.99 211.42 789.67 217.54 787.37 223.41 C 783.75 233.68 776.29 242.47 767.02 248.11 C 761.36 251.70 755.55 255.32 748.95 256.88 C 742.37 258.45 735.85 260.87 728.99 260.58 C 718.72 260.45 708.32 261.36 698.22 258.99 C 686.59 257.73 674.52 255.23 665.04 247.95 C 660.19 244.18 655.73 239.94 651.42 235.58 C 646.92 231.51 644.92 225.53 643.03 219.94 C 641.02 208.40 644.08 195.10 653.40 187.39 C 657.29 183.55 662.36 180.46 667.98 180.43 C 674.19 180.39 680.84 179.75 686.60 182.58 C 687.95 183.15 689.41 183.87 690.94 183.48 C 694.05 180.62 695.54 176.49 698.55 173.54 C 701.58 170.60 704.23 167.15 707.96 165.04 M 718.55 166.69 C 711.87 169.44 706.95 174.94 702.10 180.08 C 700.05 182.18 699.25 185.04 698.71 187.84 C 700.99 190.20 703.81 192.54 704.33 195.99 C 704.41 198.83 703.30 201.55 702.34 204.17 C 701.54 206.06 700.48 208.65 697.97 208.40 C 692.12 208.29 688.67 202.20 687.94 197.03 C 687.15 193.83 688.53 189.75 685.60 187.41 C 683.10 184.63 679.08 184.68 675.68 184.00 C 671.08 183.14 665.59 183.56 662.39 187.39 C 658.04 192.17 652.98 196.64 650.56 202.80 C 647.78 208.20 647.81 214.61 648.77 220.45 C 651.65 226.50 654.27 233.04 659.54 237.46 C 668.37 244.84 678.37 251.56 689.96 253.42 C 702.51 255.32 715.24 257.29 727.96 256.00 C 733.71 255.48 739.24 253.74 744.88 252.58 C 749.77 251.63 753.92 248.75 758.15 246.28 C 764.22 242.49 770.72 238.92 775.06 233.04 C 781.13 224.59 786.52 214.74 785.84 203.98 C 786.53 198.01 783.58 191.82 778.27 188.93 C 774.31 187.95 770.12 188.18 766.08 188.39 C 763.82 188.35 762.27 190.41 761.45 192.28 C 759.25 197.61 758.24 203.79 754.02 208.01 C 751.54 210.14 746.34 210.90 744.57 207.56 C 744.04 204.23 744.03 200.75 744.74 197.45 C 746.64 192.72 751.52 190.31 754.55 186.44 C 755.68 182.70 753.17 178.97 750.73 176.31 C 746.20 171.47 741.16 166.51 734.62 164.67 C 729.22 163.83 723.53 164.36 718.55 166.69 Z" />
<path fill="#3c6891" opacity="1.00" d=" M 0.00 801.21 C 5.54 803.50 11.93 804.28 16.51 808.48 C 22.51 812.89 25.72 819.75 28.38 826.49 C 31.58 833.17 32.53 840.65 32.56 848.00 C 32.69 854.49 32.11 861.29 28.94 867.11 C 25.30 873.73 21.03 880.29 14.72 884.69 C 10.41 888.22 5.11 890.08 0.00 892.11 L 0.00 884.03 C 6.64 881.65 12.03 876.84 17.09 872.09 C 22.42 865.61 26.95 857.65 26.69 849.00 C 26.71 841.30 26.38 833.19 22.58 826.30 C 19.09 819.88 14.99 813.17 8.21 809.82 C 5.71 808.41 2.78 808.43 0.00 808.39 L 0.00 801.21 Z" />
</g>
<g id="#3d6690ff">
<path fill="#3d6690" opacity="1.00" d=" M 147.51 160.47 C 149.57 160.50 151.95 160.69 153.17 162.62 C 155.11 171.19 155.12 180.19 153.36 188.79 C 151.70 189.48 149.95 189.41 148.24 188.91 C 146.85 184.30 148.89 179.66 148.79 175.00 C 149.23 170.08 147.39 165.36 147.51 160.47 Z" />
</g>
<g id="#3f678fff">
<path fill="#3f678f" opacity="1.00" d=" M 79.05 166.06 C 81.41 164.05 86.70 165.75 85.25 169.37 C 82.90 172.34 79.69 174.60 77.84 177.97 C 74.93 183.15 72.69 188.70 71.06 194.41 C 69.55 194.47 68.04 194.51 66.53 194.52 C 65.90 191.29 66.43 188.00 67.69 184.99 C 70.38 178.15 73.11 170.79 79.05 166.06 Z" />
</g>
<g id="#43688dff">
<path fill="#43688d" opacity="1.00" d=" M 990.61 177.32 C 992.25 178.01 995.02 178.04 995.22 180.36 C 996.38 186.14 996.75 192.23 1000.00 197.36 L 1000.00 205.02 C 997.47 203.25 994.72 201.33 993.97 198.13 C 992.05 191.38 990.24 184.40 990.61 177.32 Z" />
</g>
<g id="#44688aff">
<path fill="#44688a" opacity="1.00" d=" M 504.34 183.69 C 501.82 182.92 501.47 177.75 504.94 178.57 C 512.54 179.72 520.22 179.72 527.88 179.48 C 528.18 181.17 529.31 183.30 527.98 184.79 C 524.04 185.88 519.99 184.73 516.01 184.69 C 512.12 184.45 508.07 185.01 504.34 183.69 Z" />
</g>
<g id="#42678eff">
<path fill="#42678e" opacity="1.00" d=" M 546.39 181.71 C 554.63 179.38 563.24 181.41 571.31 183.51 C 574.76 184.53 578.78 185.14 581.14 188.19 C 581.87 189.80 581.73 193.42 579.05 192.48 C 576.37 191.13 574.10 188.95 571.15 188.15 C 562.96 185.77 554.35 186.35 545.93 186.61 C 545.55 185.03 544.75 182.89 546.39 181.71 Z" />
<path fill="#42678e" opacity="1.00" d=" M 384.38 679.21 C 388.22 678.09 391.36 675.32 395.32 674.51 C 395.54 677.00 396.44 680.32 393.72 681.80 C 388.23 685.31 381.28 685.55 374.96 685.39 C 371.77 685.18 366.76 684.73 367.06 680.45 C 372.84 680.25 378.80 681.17 384.38 679.21 Z" />
</g>
<g id="#40678eff">
<path fill="#40678e" opacity="1.00" d=" M 61.89 212.42 C 63.58 212.51 65.13 213.17 66.64 213.89 C 65.39 224.34 61.84 234.95 64.33 245.51 C 62.71 245.38 60.77 245.87 59.60 244.41 C 57.56 240.62 58.61 236.11 58.53 232.00 C 59.24 225.43 59.19 218.59 61.89 212.42 Z" />
<path fill="#40678e" opacity="1.00" d=" M 662.58 490.82 C 666.47 489.00 670.84 489.59 675.00 489.49 C 679.34 489.56 683.69 489.21 688.02 489.68 C 696.70 492.96 706.08 494.31 714.36 498.69 C 717.80 501.17 720.72 504.29 723.66 507.33 C 728.74 512.62 733.80 518.13 737.12 524.73 C 738.63 529.47 739.06 534.52 740.87 539.20 C 743.39 549.89 739.68 560.64 736.42 570.75 C 734.63 575.70 732.28 580.43 729.98 585.16 C 727.43 590.44 723.05 594.63 720.96 600.16 C 718.07 608.04 713.11 615.03 710.88 623.17 C 709.51 627.50 708.61 632.64 704.50 635.32 C 689.69 635.80 674.83 635.11 660.00 635.55 C 656.81 635.27 652.76 636.46 650.50 633.53 C 648.07 631.43 648.45 627.94 647.65 625.12 C 644.16 607.83 632.52 593.90 626.41 577.62 C 623.87 570.21 622.47 562.48 621.99 554.68 C 619.68 543.90 621.82 532.80 625.38 522.55 C 627.20 518.45 628.45 513.94 631.53 510.54 C 635.37 506.26 640.24 503.13 644.83 499.74 C 647.90 497.52 650.58 494.45 654.40 493.53 C 657.17 492.79 659.91 491.91 662.58 490.82 M 670.42 493.73 C 665.71 495.55 661.90 499.30 660.05 504.01 C 655.99 512.94 652.33 522.12 649.89 531.64 C 649.20 539.68 649.41 547.82 649.72 555.89 C 651.01 563.36 653.87 570.46 655.42 577.88 C 658.14 585.98 660.51 594.22 661.68 602.71 C 662.90 611.40 666.16 619.68 666.73 628.47 C 668.99 632.06 675.16 630.15 675.29 626.02 C 675.52 614.70 676.18 603.30 674.73 592.04 C 674.68 582.69 674.38 573.34 674.30 563.99 C 674.13 559.37 673.24 554.75 673.87 550.12 C 675.12 541.22 673.65 532.18 674.91 523.29 C 676.16 515.79 674.50 508.11 676.22 500.66 C 677.12 497.34 673.62 493.46 670.42 493.73 M 683.42 495.44 C 682.64 496.01 682.06 496.74 681.67 497.62 C 680.28 513.37 680.51 529.21 680.41 545.03 C 679.18 554.78 679.15 564.69 680.29 574.46 C 681.00 582.62 680.02 590.86 681.16 599.00 C 682.29 608.03 680.14 617.01 680.48 626.04 C 680.32 627.83 681.57 629.20 682.45 630.63 C 683.90 630.35 685.70 630.90 686.93 629.95 C 688.56 627.63 689.08 624.77 689.69 622.06 C 692.09 610.67 696.43 599.83 699.65 588.68 C 701.09 584.15 703.23 579.81 703.85 575.06 C 704.79 570.00 704.25 564.80 705.19 559.75 C 706.11 554.54 705.59 549.24 705.65 544.00 C 705.66 539.09 705.95 534.14 705.14 529.28 C 704.24 524.53 704.90 519.65 703.95 514.92 C 703.31 510.07 699.46 506.59 697.86 502.10 C 696.85 500.33 696.47 497.65 694.23 497.04 C 690.76 495.87 687.08 495.19 683.42 495.44 M 631.98 521.00 C 630.47 526.33 627.30 531.29 627.45 536.99 C 627.52 546.49 626.55 556.23 629.39 565.45 C 631.35 574.88 635.30 583.75 639.77 592.23 C 642.54 598.89 647.28 604.59 649.35 611.56 C 651.01 616.25 652.70 620.96 653.44 625.91 C 653.68 629.35 657.75 631.25 660.73 629.75 C 660.98 628.26 661.41 626.73 660.97 625.24 C 659.57 619.28 658.18 613.33 656.76 607.39 C 655.17 599.54 654.07 591.52 651.01 584.07 C 648.56 576.40 646.56 568.58 644.69 560.76 C 644.23 553.85 643.49 546.93 643.49 540.00 C 643.36 535.05 644.79 530.27 645.72 525.45 C 646.47 520.70 649.67 516.80 650.40 512.04 C 650.55 510.24 651.75 508.94 652.92 507.69 C 654.81 505.74 655.35 502.12 653.02 500.29 C 644.96 505.83 635.07 511.00 631.98 521.00 M 707.42 506.99 C 707.44 511.76 712.12 515.07 711.54 519.94 C 713.77 543.37 712.64 567.50 705.13 589.97 C 702.77 597.46 700.20 604.89 698.17 612.49 C 696.75 617.95 694.44 623.15 693.42 628.73 C 696.25 632.01 702.71 631.36 703.52 626.60 C 706.04 616.10 712.56 607.30 716.45 597.36 C 718.51 593.24 721.27 589.53 723.40 585.45 C 728.27 575.44 733.96 565.32 734.70 553.98 C 734.74 546.82 734.88 539.61 733.68 532.53 C 733.19 532.85 732.72 533.18 732.25 533.52 C 731.56 530.35 732.21 526.63 730.01 523.99 C 723.98 516.49 718.49 508.18 709.87 503.38 C 708.95 504.44 706.89 505.25 707.42 506.99 Z" />
<path fill="#40678e" opacity="1.00" d=" M 182.71 586.89 C 191.80 584.42 201.39 585.61 210.61 586.71 C 215.28 588.09 219.89 589.83 224.32 591.87 C 231.13 596.53 238.12 601.15 243.61 607.41 C 246.51 610.19 247.75 614.09 249.00 617.79 C 251.75 626.56 254.40 635.72 253.18 645.02 C 251.93 652.50 252.27 660.29 249.50 667.46 C 246.06 682.20 236.50 694.37 230.92 708.24 C 227.40 714.09 227.08 721.04 225.23 727.46 C 223.52 730.84 219.57 732.01 216.01 731.62 C 200.69 731.13 185.35 731.91 170.05 731.31 C 164.87 727.96 164.50 721.24 162.39 715.99 C 160.27 708.86 155.54 702.91 153.26 695.86 C 151.34 690.57 146.97 686.71 144.63 681.65 C 141.55 674.83 137.83 668.24 136.03 660.92 C 133.15 652.02 130.88 642.14 134.19 633.04 C 136.14 627.65 136.57 621.65 139.84 616.80 C 142.42 612.81 145.18 608.92 148.51 605.53 C 152.13 601.83 154.99 597.12 159.94 595.00 C 167.30 591.72 174.97 589.12 182.71 586.89 M 178.65 594.59 C 174.13 601.57 170.34 609.17 168.72 617.39 C 166.66 630.90 166.93 644.73 169.24 658.19 C 169.82 665.29 169.74 672.68 172.79 679.29 C 175.26 687.12 178.57 694.69 180.32 702.74 C 181.44 707.34 183.82 711.56 184.52 716.28 C 185.22 719.41 185.24 723.02 187.48 725.55 C 189.25 726.76 191.53 726.35 193.24 725.26 C 194.18 723.34 193.64 721.07 193.74 719.02 C 193.03 705.69 193.63 692.34 193.56 679.00 C 193.62 673.64 194.64 668.35 194.52 662.99 C 194.51 648.33 194.82 633.65 194.14 619.01 C 192.89 609.84 194.32 600.48 192.42 591.40 C 187.73 591.09 182.46 591.64 178.65 594.59 M 199.40 591.36 L 198.70 592.02 C 198.13 596.69 199.38 601.32 199.39 606.00 C 199.46 612.33 199.27 618.68 200.12 624.98 C 200.48 638.64 200.64 652.33 200.15 666.00 C 199.53 671.98 199.40 677.99 199.34 684.00 C 198.33 697.17 197.99 710.47 199.54 723.61 C 199.76 726.07 202.93 726.48 204.89 726.23 C 208.66 725.41 207.49 720.87 208.34 718.09 C 210.52 709.13 212.36 700.07 213.80 690.95 C 214.97 684.12 218.25 677.86 219.37 671.02 C 220.17 665.81 222.66 661.06 223.65 655.90 C 224.92 650.35 224.53 644.63 224.64 639.00 C 224.56 634.07 224.93 629.02 223.50 624.25 C 220.39 614.34 216.86 604.45 211.45 595.54 C 209.22 591.51 203.45 589.49 199.40 591.36 M 217.11 595.08 C 219.08 600.46 222.57 605.14 224.35 610.60 C 227.10 618.51 230.73 626.44 230.47 635.00 C 230.40 640.00 230.38 645.00 230.34 650.01 C 230.25 656.87 227.22 663.19 225.97 669.85 C 224.45 678.62 220.04 686.58 218.85 695.44 C 218.08 704.14 214.98 712.40 213.51 720.98 C 213.29 722.86 212.88 725.40 215.13 726.23 C 217.86 727.08 220.50 724.51 220.74 721.89 C 222.32 714.18 224.71 706.55 228.62 699.69 C 230.49 696.38 232.13 692.95 233.71 689.50 C 237.87 680.91 242.38 672.31 244.23 662.86 C 247.24 653.27 248.23 643.09 247.39 633.08 C 246.50 627.08 244.06 621.46 242.03 615.79 C 239.63 607.61 231.48 603.42 224.96 598.89 C 222.52 597.27 220.23 595.07 217.11 595.08 M 165.82 598.85 C 156.64 603.57 149.56 611.49 144.23 620.19 C 142.01 624.49 141.91 629.52 139.91 633.94 C 137.55 639.14 138.28 645.05 138.85 650.55 C 141.54 658.90 143.65 667.46 147.80 675.26 C 150.36 682.01 155.40 687.44 157.95 694.20 C 160.36 701.30 165.52 707.08 167.82 714.25 C 169.45 718.21 169.78 723.10 173.24 726.03 C 175.15 726.73 177.88 727.11 179.41 725.46 C 181.15 723.53 179.59 720.89 179.34 718.70 C 176.44 708.77 173.65 698.79 169.98 689.12 C 168.62 685.21 167.75 681.17 166.54 677.23 C 163.50 668.01 163.14 658.23 162.07 648.66 C 160.57 637.23 161.91 625.71 163.47 614.37 C 164.26 608.58 167.97 603.74 168.94 598.02 C 167.87 598.20 166.83 598.48 165.82 598.85 Z" />
</g>
<g id="#3e6890ff">
<path fill="#3e6890" opacity="1.00" d=" M 125.58 231.61 C 131.15 227.74 135.42 222.44 140.08 217.60 C 140.92 217.53 142.62 217.40 143.46 217.33 C 143.33 220.23 144.50 223.81 142.01 226.03 C 139.44 228.76 136.76 231.39 133.95 233.88 C 131.70 236.08 128.07 236.26 125.38 234.79 C 125.45 233.72 125.52 232.66 125.58 231.61 Z" />
</g>
<g id="#41678dff">
<path fill="#41678d" opacity="1.00" d=" M 335.38 222.60 C 341.15 221.19 347.12 221.41 353.01 221.38 C 360.32 221.20 367.13 224.28 374.05 226.21 C 381.31 228.75 389.53 231.15 394.14 237.81 C 398.86 243.45 403.72 249.04 407.47 255.41 C 409.45 259.45 409.59 264.08 411.02 268.32 C 414.13 277.19 412.59 286.91 409.77 295.65 C 407.48 303.81 403.67 311.41 399.95 318.98 C 398.04 322.90 394.75 325.96 392.97 329.95 C 389.65 338.97 384.29 347.15 381.52 356.41 C 380.38 359.74 379.93 363.62 377.10 366.06 C 375.24 367.94 372.37 367.29 370.00 367.45 C 356.33 367.21 342.65 367.24 328.97 367.45 C 325.48 367.74 321.99 366.13 319.91 363.33 C 318.89 357.63 318.53 351.60 315.68 346.43 C 313.72 342.92 312.54 339.06 310.59 335.56 C 304.26 324.47 297.92 313.09 295.24 300.48 C 292.77 289.86 291.81 278.83 292.72 267.95 C 294.21 260.28 296.89 252.91 299.81 245.70 C 305.66 238.27 313.30 232.47 321.29 227.52 C 325.81 225.45 330.58 223.86 335.38 222.60 M 339.28 227.10 C 337.09 228.12 335.06 229.66 333.80 231.76 C 329.72 238.62 326.83 246.11 324.38 253.69 C 319.60 266.31 319.30 280.36 322.39 293.41 C 325.18 305.38 330.04 316.85 332.07 328.99 C 332.81 338.54 336.84 347.45 337.64 356.99 C 337.79 358.94 338.50 361.79 340.99 361.68 C 343.53 362.16 346.53 361.03 346.35 358.00 C 346.73 339.87 346.96 321.67 345.53 303.58 C 345.31 298.06 345.67 292.50 344.98 287.01 C 344.62 284.02 344.49 280.99 344.87 278.00 C 346.17 269.72 344.80 261.30 346.20 253.03 C 346.42 245.01 346.43 236.98 346.56 228.97 C 346.35 225.41 341.61 226.24 339.28 227.10 M 352.43 228.26 C 352.50 233.85 352.16 239.42 351.74 244.99 C 351.41 260.99 351.16 276.99 351.32 293.00 C 351.46 296.52 350.89 300.18 351.92 303.62 C 350.84 316.41 352.71 329.20 352.42 342.01 C 352.39 347.67 351.14 353.31 351.70 358.98 C 352.18 362.05 356.82 363.22 358.55 360.46 C 361.09 356.03 361.45 350.73 362.05 345.76 C 364.96 341.03 365.40 335.31 367.49 330.23 C 369.98 324.22 371.29 317.81 373.67 311.76 C 376.30 304.31 376.26 296.31 377.34 288.57 C 377.51 279.71 379.49 270.84 377.77 262.01 C 377.77 250.08 372.60 238.79 365.97 229.13 C 361.70 228.00 356.53 225.61 352.43 228.26 M 305.62 247.65 C 303.82 251.87 302.14 256.16 300.38 260.40 C 298.45 267.77 296.95 275.54 298.44 283.14 C 299.84 300.44 306.75 316.73 315.21 331.69 C 319.10 337.98 321.12 345.15 323.61 352.05 C 324.91 355.41 323.99 360.63 328.17 362.03 C 329.91 363.00 331.58 361.24 332.48 359.93 C 331.53 351.33 328.40 343.14 326.76 334.69 C 326.42 326.49 323.27 318.86 320.89 311.13 C 319.36 302.69 315.43 294.70 315.47 286.00 C 315.44 281.00 315.42 276.00 315.35 271.00 C 315.15 262.03 318.69 253.61 321.56 245.28 C 323.29 240.21 326.54 235.89 328.71 231.03 C 328.28 230.84 327.41 230.47 326.98 230.28 C 319.60 235.70 311.16 240.16 305.62 247.65 M 377.35 233.61 C 376.22 233.83 376.52 235.38 376.93 236.12 C 379.30 241.54 381.92 247.01 382.56 252.98 C 384.59 269.62 383.83 286.52 381.22 303.05 C 379.26 315.32 374.78 326.95 370.81 338.66 C 369.35 345.19 366.78 351.44 365.48 358.00 C 364.09 362.81 371.55 364.11 373.56 360.44 C 375.68 356.64 376.37 352.22 378.33 348.33 C 380.75 342.52 384.77 337.50 386.78 331.50 C 388.58 326.46 391.80 322.14 394.48 317.56 C 399.66 308.11 403.67 297.99 406.21 287.51 C 406.85 282.01 408.35 276.19 406.08 270.86 C 404.29 266.37 403.50 261.57 401.83 257.05 C 396.32 247.08 387.90 238.86 377.90 233.42 L 377.35 233.61 Z" />
</g>
<g id="#40668eff">
<path fill="#40668e" opacity="1.00" d=" M 885.42 223.79 C 888.33 222.20 891.64 221.42 894.96 221.42 C 902.52 221.32 910.29 221.18 917.58 223.48 C 921.98 225.45 926.89 226.36 930.87 229.22 C 937.81 233.98 945.10 238.82 949.91 245.87 C 954.43 255.93 957.76 266.90 957.40 278.03 C 956.39 285.42 956.61 293.00 954.41 300.19 C 952.87 305.05 952.19 310.21 949.83 314.77 C 947.36 319.70 945.39 324.89 942.48 329.59 C 936.02 339.30 931.57 350.39 929.69 361.91 C 929.13 365.89 924.62 367.72 921.02 367.45 C 906.33 367.19 891.63 367.33 876.94 367.41 C 874.90 367.63 873.13 366.74 871.63 365.49 C 879.98 366.06 888.36 366.13 896.72 365.73 C 896.65 364.54 896.58 363.36 896.59 362.18 C 898.59 355.61 897.31 348.72 897.45 341.99 C 897.47 331.99 897.49 321.98 897.73 311.99 C 898.97 300.70 898.56 289.33 898.66 278.00 C 898.54 269.33 898.75 260.64 897.85 252.00 C 897.42 243.94 897.47 235.86 897.64 227.80 C 897.65 226.26 897.62 224.73 897.61 223.19 C 894.26 222.83 891.19 224.21 888.30 225.71 C 887.33 225.07 886.37 224.43 885.42 223.79 M 902.42 228.43 C 904.19 239.89 902.60 251.52 904.32 262.98 C 904.38 277.65 905.25 292.39 903.61 307.01 C 903.16 314.00 903.75 321.03 902.96 328.01 C 902.03 338.52 902.91 349.06 903.57 359.55 C 904.83 362.71 908.65 361.71 911.26 361.38 C 912.15 356.40 912.52 351.31 914.14 346.49 C 916.74 337.86 916.83 328.69 919.80 320.17 C 922.60 310.80 925.14 301.35 927.67 291.91 C 929.72 281.47 930.09 270.52 927.59 260.13 C 925.28 253.34 923.35 246.37 920.02 239.99 C 917.60 235.12 915.35 229.64 910.46 226.72 C 907.66 226.22 904.24 225.75 902.42 228.43 M 920.31 230.91 C 922.49 234.60 925.29 237.98 926.76 242.06 C 930.04 251.82 934.90 261.45 934.57 272.00 C 934.25 279.14 935.12 286.41 933.27 293.40 C 930.99 302.77 928.39 312.07 925.41 321.24 C 923.29 328.22 922.89 335.59 920.83 342.59 C 919.60 348.61 917.40 354.49 917.20 360.69 C 918.63 361.20 920.18 362.87 921.78 361.91 C 924.78 360.89 924.95 357.35 925.61 354.75 C 928.39 340.08 937.55 327.91 943.35 314.43 C 946.42 307.76 948.06 300.58 950.16 293.58 C 951.36 283.60 952.60 273.33 950.33 263.39 C 949.40 259.09 947.22 255.21 945.82 251.07 C 943.61 243.32 935.46 240.10 929.85 235.23 C 926.91 233.42 924.16 229.47 920.31 230.91 Z" />
</g>
<g id="#3e6989ff">
<path fill="#3e6989" opacity="1.00" d=" M 888.30 225.71 C 891.19 224.21 894.26 222.83 897.61 223.19 C 897.62 224.73 897.65 226.26 897.64 227.80 C 893.18 226.94 888.16 226.82 884.15 229.22 C 880.70 233.16 878.18 237.90 875.94 242.61 C 869.33 259.96 871.33 278.99 873.20 297.03 C 874.39 312.86 882.00 327.16 885.37 342.52 C 885.84 343.00 886.58 343.35 886.78 344.06 C 888.12 349.22 888.35 354.68 890.39 359.65 C 891.32 362.12 894.52 361.51 896.59 362.18 C 896.58 363.36 896.65 364.54 896.72 365.73 C 888.36 366.13 879.98 366.06 871.63 365.49 C 870.02 362.68 868.97 359.62 868.24 356.48 C 866.28 348.55 861.19 341.91 858.61 334.21 C 856.60 327.87 851.86 323.01 848.84 317.20 C 841.37 303.81 835.97 288.49 837.46 272.96 C 838.11 268.87 839.82 265.03 840.55 260.95 C 842.27 250.88 850.67 244.19 856.62 236.54 C 859.01 233.38 862.63 231.57 866.16 229.99 C 872.23 227.45 878.50 225.45 884.72 223.33 L 885.42 223.79 C 886.37 224.43 887.33 225.07 888.30 225.71 M 849.76 253.78 C 846.28 258.37 845.73 264.27 843.82 269.55 C 841.59 275.42 842.35 281.85 843.45 287.88 C 846.32 301.24 852.32 313.77 859.87 325.09 C 862.63 329.35 863.31 334.59 866.25 338.77 C 870.43 345.16 872.61 352.52 875.37 359.57 C 876.61 363.32 883.07 363.83 884.41 359.94 C 884.04 354.62 881.81 349.69 880.39 344.62 C 878.72 338.75 877.12 332.85 874.87 327.17 C 870.67 315.80 868.05 303.86 867.02 291.79 C 865.43 282.62 865.29 273.26 865.82 263.99 C 866.97 256.15 867.16 247.94 870.73 240.69 C 871.62 238.39 873.47 235.96 872.21 233.43 C 862.83 237.73 855.41 245.28 849.76 253.78 Z" />
</g>
<g id="#496686ff">
<path fill="#496686" opacity="1.00" d=" M 20.37 225.43 C 26.46 224.56 30.21 230.23 34.60 233.38 C 37.91 236.41 42.49 236.86 46.61 238.07 C 46.41 239.24 46.19 240.41 45.96 241.59 C 43.31 241.55 40.40 242.24 37.97 240.86 C 32.32 237.77 27.09 233.96 22.21 229.77 C 20.82 228.75 20.53 227.02 20.37 225.43 Z" />
</g>
<g id="#e3e4fbff">
<path fill="#e3e4fb" opacity="1.00" d=" M 902.42 228.43 C 904.24 225.75 907.66 226.22 910.46 226.72 C 915.35 229.64 917.60 235.12 920.02 239.99 C 923.35 246.37 925.28 253.34 927.59 260.13 C 930.09 270.52 929.72 281.47 927.67 291.91 C 925.14 301.35 922.60 310.80 919.80 320.17 C 916.83 328.69 916.74 337.86 914.14 346.49 C 912.52 351.31 912.15 356.40 911.26 361.38 C 908.65 361.71 904.83 362.71 903.57 359.55 C 902.91 349.06 902.03 338.52 902.96 328.01 C 903.75 321.03 903.16 314.00 903.61 307.01 C 905.25 292.39 904.38 277.65 904.32 262.98 C 902.60 251.52 904.19 239.89 902.42 228.43 Z" />
<path fill="#e3e4fb" opacity="1.00" d=" M 199.40 591.36 C 203.45 589.49 209.22 591.51 211.45 595.54 C 216.86 604.45 220.39 614.34 223.50 624.25 C 224.93 629.02 224.56 634.07 224.64 639.00 C 224.53 644.63 224.92 650.35 223.65 655.90 C 222.66 661.06 220.17 665.81 219.37 671.02 C 218.25 677.86 214.97 684.12 213.80 690.95 C 212.36 700.07 210.52 709.13 208.34 718.09 C 207.49 720.87 208.66 725.41 204.89 726.23 C 202.93 726.48 199.76 726.07 199.54 723.61 C 197.99 710.47 198.33 697.17 199.34 684.00 C 199.40 677.99 199.53 671.98 200.15 666.00 C 200.64 652.33 200.48 638.64 200.12 624.98 C 199.27 618.68 199.46 612.33 199.39 606.00 C 199.38 601.32 198.13 596.69 198.70 592.02 L 199.40 591.36 Z" />
</g>
<g id="#e2e4fbff">
<path fill="#e2e4fb" opacity="1.00" d=" M 339.28 227.10 C 341.61 226.24 346.35 225.41 346.56 228.97 C 346.43 236.98 346.42 245.01 346.20 253.03 C 344.80 261.30 346.17 269.72 344.87 278.00 C 344.49 280.99 344.62 284.02 344.98 287.01 C 345.67 292.50 345.31 298.06 345.53 303.58 C 346.96 321.67 346.73 339.87 346.35 358.00 C 346.53 361.03 343.53 362.16 340.99 361.68 C 338.50 361.79 337.79 358.94 337.64 356.99 C 336.84 347.45 332.81 338.54 332.07 328.99 C 330.04 316.85 325.18 305.38 322.39 293.41 C 319.30 280.36 319.60 266.31 324.38 253.69 C 326.83 246.11 329.72 238.62 333.80 231.76 C 335.06 229.66 337.09 228.12 339.28 227.10 Z" />
</g>
<g id="#fdcd9dff">
<path fill="#fdcd9d" opacity="1.00" d=" M 352.43 228.26 C 356.53 225.61 361.70 228.00 365.97 229.13 C 372.60 238.79 377.77 250.08 377.77 262.01 C 379.49 270.84 377.51 279.71 377.34 288.57 C 376.26 296.31 376.30 304.31 373.67 311.76 C 371.29 317.81 369.98 324.22 367.49 330.23 C 365.40 335.31 364.96 341.03 362.05 345.76 C 359.56 349.32 358.89 353.67 357.73 357.76 C 357.06 357.78 355.73 357.81 355.06 357.83 C 352.97 353.84 354.13 349.29 354.19 345.03 C 354.56 335.01 354.02 324.99 354.25 314.98 C 354.43 311.04 353.50 307.19 351.92 303.62 C 350.89 300.18 351.46 296.52 351.32 293.00 C 351.16 276.99 351.41 260.99 351.74 244.99 C 352.16 239.42 352.50 233.85 352.43 228.26 Z" />
<path fill="#fdcd9d" opacity="1.00" d=" M 884.15 229.22 C 888.16 226.82 893.18 226.94 897.64 227.80 C 897.47 235.86 897.42 243.94 897.85 252.00 C 898.75 260.64 898.54 269.33 898.66 278.00 C 898.56 289.33 898.97 300.70 897.73 311.99 C 897.49 321.98 897.47 331.99 897.45 341.99 C 897.31 348.72 898.59 355.61 896.59 362.18 C 894.52 361.51 891.32 362.12 890.39 359.65 C 888.35 354.68 888.12 349.22 886.78 344.06 C 886.58 343.35 885.84 343.00 885.37 342.52 C 882.00 327.16 874.39 312.86 873.20 297.03 C 871.33 278.99 869.33 259.96 875.94 242.61 C 878.18 237.90 880.70 233.16 884.15 229.22 Z" />
</g>
<g id="#f9ced0ff">
<path fill="#f9ced0" opacity="1.00" d=" M 305.62 247.65 C 311.16 240.16 319.60 235.70 326.98 230.28 C 327.41 230.47 328.28 230.84 328.71 231.03 C 326.54 235.89 323.29 240.21 321.56 245.28 C 318.69 253.61 315.15 262.03 315.35 271.00 C 315.42 276.00 315.44 281.00 315.47 286.00 C 315.43 294.70 319.36 302.69 320.89 311.13 C 323.27 318.86 326.42 326.49 326.76 334.69 C 328.40 343.14 331.53 351.33 332.48 359.93 C 331.58 361.24 329.91 363.00 328.17 362.03 C 323.99 360.63 324.91 355.41 323.61 352.05 C 321.12 345.15 319.10 337.98 315.21 331.69 C 306.75 316.73 299.84 300.44 298.44 283.14 C 296.95 275.54 298.45 267.77 300.38 260.40 C 302.14 256.16 303.82 251.87 305.62 247.65 Z" />
</g>
<g id="#f9ced1ff">
<path fill="#f9ced1" opacity="1.00" d=" M 920.31 230.91 C 924.16 229.47 926.91 233.42 929.85 235.23 C 935.46 240.10 943.61 243.32 945.82 251.07 C 947.22 255.21 949.40 259.09 950.33 263.39 C 952.60 273.33 951.36 283.60 950.16 293.58 C 948.06 300.58 946.42 307.76 943.35 314.43 C 937.55 327.91 928.39 340.08 925.61 354.75 C 924.95 357.35 924.78 360.89 921.78 361.91 C 920.18 362.87 918.63 361.20 917.20 360.69 C 917.40 354.49 919.60 348.61 920.83 342.59 C 922.89 335.59 923.29 328.22 925.41 321.24 C 928.39 312.07 930.99 302.77 933.27 293.40 C 935.12 286.41 934.25 279.14 934.57 272.00 C 934.90 261.45 930.04 251.82 926.76 242.06 C 925.29 237.98 922.49 234.60 920.31 230.91 Z" />
</g>
<g id="#43688bff">
<path fill="#43688b" opacity="1.00" d=" M 74.29 240.34 C 78.88 240.60 83.42 242.11 88.03 241.36 C 92.37 240.71 96.62 238.96 101.07 239.57 C 102.52 240.33 103.06 241.52 102.68 243.13 C 94.01 247.28 83.42 248.05 74.42 244.52 C 74.37 243.12 74.33 241.73 74.29 240.34 Z" />
</g>
<g id="#41688eff">
<path fill="#41688e" opacity="1.00" d=" M 63.20 265.29 C 65.12 265.59 67.76 264.91 68.84 267.03 C 72.10 272.88 72.39 279.85 75.33 285.86 C 77.33 290.73 82.85 294.14 81.85 300.01 C 79.50 299.93 77.38 298.96 76.02 297.00 C 71.45 291.19 67.70 284.54 65.97 277.30 C 64.93 273.32 63.19 269.47 63.20 265.29 Z" />
<path fill="#41688e" opacity="1.00" d=" M 208.48 938.53 C 220.31 931.64 234.50 930.20 247.87 931.95 C 256.93 933.98 265.88 936.80 274.25 940.86 C 280.01 943.49 283.20 949.19 287.46 953.58 C 291.29 957.58 294.41 962.19 297.14 967.00 L 290.53 967.00 C 284.34 957.70 277.03 947.98 266.20 943.95 C 265.98 944.22 265.54 944.76 265.32 945.03 C 266.07 948.20 267.72 951.07 268.80 954.14 C 270.40 958.25 270.81 962.68 271.62 967.00 L 266.12 967.00 C 264.90 961.23 264.13 955.16 260.83 950.11 C 258.55 946.68 257.05 942.76 254.61 939.45 C 250.62 937.23 245.69 937.02 241.28 937.91 C 240.00 947.54 240.65 957.30 240.40 967.00 L 234.62 967.00 C 234.64 960.00 234.32 952.97 235.15 946.00 C 235.35 943.38 235.70 940.72 235.18 938.14 C 233.81 935.68 230.43 936.40 228.16 936.86 C 223.21 938.59 221.11 943.82 219.04 948.19 C 216.08 954.25 213.88 960.64 211.66 967.00 L 205.95 967.00 C 207.78 962.66 209.09 958.13 210.82 953.76 C 212.63 949.08 215.66 944.93 216.89 940.02 C 213.94 941.17 211.24 942.83 208.70 944.71 C 204.29 947.92 199.55 950.80 195.86 954.87 C 192.79 958.28 191.94 962.93 190.08 967.00 L 183.80 967.00 C 185.60 962.30 186.83 957.16 190.33 953.35 C 195.30 947.22 201.80 942.62 208.48 938.53 Z" />
<path fill="#41688e" opacity="1.00" d=" M 778.39 938.24 C 781.92 937.17 785.43 935.86 789.13 935.47 C 800.79 934.82 813.00 934.95 823.60 940.50 C 831.83 945.22 839.63 950.90 845.86 958.10 C 847.98 960.66 848.72 963.98 849.94 967.00 L 843.47 967.00 C 841.66 961.83 838.42 957.30 834.01 954.04 C 829.55 950.62 825.04 947.17 820.04 944.60 C 819.75 944.89 819.19 945.49 818.91 945.78 C 819.94 948.65 821.59 951.24 822.87 954.01 C 824.87 958.20 826.11 962.71 827.90 967.00 L 822.99 967.00 C 818.59 959.20 816.75 949.98 811.03 942.95 C 808.42 939.73 803.99 940.24 800.33 940.40 C 799.19 944.88 800.20 949.46 800.31 954.00 C 800.45 958.32 800.37 962.66 800.36 967.00 L 794.43 967.00 C 794.44 958.29 794.90 949.53 793.80 940.87 C 789.42 940.38 784.92 941.26 780.92 943.04 C 778.27 945.23 777.28 948.77 775.48 951.63 C 772.60 956.33 771.39 961.74 769.97 967.00 L 763.82 967.00 C 764.83 963.06 765.57 959.01 767.41 955.35 C 768.68 952.78 769.99 950.19 770.59 947.36 C 766.13 947.60 762.76 950.85 759.35 953.37 C 754.43 957.07 750.71 962.02 747.17 967.00 L 740.62 967.00 C 742.91 963.26 745.48 959.69 748.48 956.47 C 751.70 953.04 754.18 948.79 758.29 946.30 C 764.44 942.42 771.50 940.39 778.39 938.24 Z" />
</g>
<g id="#dfd1bfff">
<path fill="#dfd1bf" opacity="1.00" d=" M 351.92 303.62 C 353.50 307.19 354.43 311.04 354.25 314.98 C 354.02 324.99 354.56 335.01 354.19 345.03 C 354.13 349.29 352.97 353.84 355.06 357.83 C 355.73 357.81 357.06 357.78 357.73 357.76 C 358.89 353.67 359.56 349.32 362.05 345.76 C 361.45 350.73 361.09 356.03 358.55 360.46 C 356.82 363.22 352.18 362.05 351.70 358.98 C 351.14 353.31 352.39 347.67 352.42 342.01 C 352.71 329.20 350.84 316.41 351.92 303.62 Z" />
</g>
<g id="#3b6892ff">
<path fill="#3b6892" opacity="1.00" d=" M 608.38 313.44 C 613.82 312.20 619.86 311.74 625.05 314.18 C 628.46 315.75 631.04 318.58 634.15 320.61 C 638.44 319.21 642.50 316.92 647.08 316.46 C 652.97 315.95 659.15 315.93 664.60 318.55 C 670.25 320.73 674.02 325.66 677.81 330.12 C 680.44 333.17 679.28 337.91 681.98 340.85 C 687.28 342.81 694.52 342.68 697.58 348.31 C 699.89 353.05 701.29 358.20 703.05 363.17 C 704.54 367.09 701.63 373.16 706.51 375.29 C 712.81 376.91 720.37 377.72 724.42 383.50 C 727.33 389.12 727.97 395.76 727.32 401.99 C 726.19 407.10 722.72 411.49 718.86 414.89 C 712.32 418.99 705.89 423.86 698.13 425.30 C 688.08 427.52 678.26 430.83 668.00 431.98 C 659.35 433.12 650.81 435.31 642.05 435.38 C 633.67 435.28 625.38 437.38 616.99 436.27 C 610.10 435.17 603.09 435.71 596.21 434.60 C 587.40 433.30 578.31 433.19 569.82 430.24 C 556.80 426.25 543.31 422.17 532.50 413.56 C 530.17 411.86 527.74 410.32 525.55 408.45 C 522.62 405.96 521.00 402.36 518.54 399.47 C 515.68 396.40 516.04 391.88 515.79 387.99 C 515.68 380.98 518.46 374.26 522.94 368.95 C 529.29 361.35 536.12 353.85 544.81 348.89 C 551.00 344.50 558.24 342.05 565.43 339.87 C 568.06 339.08 571.01 339.77 573.50 338.51 C 575.12 337.01 576.22 335.07 577.48 333.28 C 581.21 327.78 586.51 323.49 592.36 320.41 C 597.52 317.73 602.62 314.67 608.38 313.44 M 607.99 320.96 C 601.39 323.53 594.57 326.36 589.54 331.53 C 586.61 334.40 583.39 337.16 581.80 341.05 C 584.30 344.22 587.81 346.44 590.15 349.75 C 593.78 354.61 592.85 361.10 592.41 366.76 C 591.67 370.57 589.94 376.28 585.03 375.70 C 580.25 376.35 575.95 373.34 573.62 369.37 C 570.04 364.29 571.46 357.76 571.50 351.97 C 571.36 350.11 572.43 347.08 569.98 346.37 C 562.66 346.37 555.65 349.45 550.03 354.02 C 540.75 360.56 532.12 368.29 525.87 377.85 C 522.30 383.13 520.13 389.82 521.99 396.14 C 525.34 404.19 533.83 407.83 540.62 412.42 C 545.63 415.90 551.35 418.08 557.11 419.96 C 566.41 423.66 576.19 426.10 586.10 427.44 C 594.74 428.05 603.32 429.67 612.01 429.53 C 623.67 429.61 635.38 429.88 646.99 428.52 C 651.69 428.14 656.22 426.60 660.94 426.29 C 672.33 425.28 683.46 422.40 694.41 419.18 C 705.09 415.60 715.60 409.55 721.93 399.98 C 723.24 395.83 723.59 390.21 719.96 387.05 C 716.16 383.18 710.64 380.32 705.12 381.85 C 702.99 383.25 702.20 385.77 701.25 387.99 C 699.09 393.92 694.54 398.88 689.15 402.05 C 684.51 404.40 678.53 400.15 679.26 395.01 C 678.37 389.00 683.58 384.97 687.74 381.67 C 691.05 378.87 695.82 378.07 698.59 374.63 C 699.16 369.97 698.79 365.13 697.12 360.72 C 695.74 356.62 694.52 351.79 690.26 349.75 C 687.67 348.43 683.04 347.02 681.70 350.62 C 680.12 355.16 680.72 360.52 677.40 364.37 C 674.58 369.37 666.30 367.69 664.62 362.55 C 664.00 359.24 664.08 355.78 664.66 352.47 C 666.48 347.53 671.36 344.96 675.72 342.62 C 676.13 338.93 675.50 334.98 672.72 332.30 C 668.01 327.60 662.13 322.70 655.03 323.21 C 649.42 323.04 642.81 323.39 638.67 327.61 C 637.69 334.47 640.44 342.15 636.44 348.46 C 634.92 350.74 633.32 354.25 630.00 353.65 C 625.71 353.33 621.15 349.65 621.32 345.04 C 621.15 341.51 621.01 337.92 621.75 334.45 C 622.82 330.41 626.54 328.07 628.88 324.85 C 628.46 321.84 624.77 320.79 622.35 319.71 C 617.67 317.45 612.56 319.50 607.99 320.96 M 631.15 333.14 C 628.07 336.18 625.72 340.17 625.36 344.56 C 626.52 345.49 627.73 347.16 629.44 346.35 C 633.80 343.39 634.45 337.44 633.27 332.70 C 632.42 332.24 631.71 332.38 631.15 333.14 M 578.14 350.09 C 576.87 354.59 576.08 359.33 576.62 364.01 C 577.12 366.72 579.32 368.80 581.92 369.56 C 585.59 366.44 587.11 361.66 587.31 357.00 C 586.65 352.86 583.96 349.05 580.04 347.45 C 578.61 347.52 578.53 349.04 578.14 350.09 M 670.95 360.25 C 673.56 358.48 675.87 355.40 674.98 352.08 C 671.35 352.05 666.71 358.05 670.95 360.25 M 685.87 395.98 C 689.32 393.44 692.81 390.76 695.14 387.10 C 694.60 386.67 693.52 385.81 692.98 385.38 C 690.04 388.14 684.03 391.18 685.87 395.98 Z" />
</g>
<g id="#e6f6fcff">
<path fill="#e6f6fc" opacity="1.00" d=" M 631.15 333.14 C 631.71 332.38 632.42 332.24 633.27 332.70 C 634.45 337.44 633.80 343.39 629.44 346.35 C 627.73 347.16 626.52 345.49 625.36 344.56 C 625.72 340.17 628.07 336.18 631.15 333.14 Z" />
</g>
<g id="#f2fbfeff">
<path fill="#f2fbfe" opacity="1.00" d=" M 578.14 350.09 C 578.53 349.04 578.61 347.52 580.04 347.45 C 583.96 349.05 586.65 352.86 587.31 357.00 C 587.11 361.66 585.59 366.44 581.92 369.56 C 579.32 368.80 577.12 366.72 576.62 364.01 C 576.08 359.33 576.87 354.59 578.14 350.09 Z" />
</g>
<g id="#cceffbff">
<path fill="#cceffb" opacity="1.00" d=" M 670.95 360.25 C 666.71 358.05 671.35 352.05 674.98 352.08 C 675.87 355.40 673.56 358.48 670.95 360.25 Z" />
</g>
<g id="#3d6891ff">
<path fill="#3d6891" opacity="1.00" d=" M 116.62 370.71 C 122.17 367.90 128.66 367.93 134.70 368.57 C 142.01 370.62 144.94 378.56 150.88 382.63 C 160.37 376.88 171.87 373.69 182.86 376.44 C 190.55 378.89 197.96 383.95 201.05 391.68 C 202.42 394.21 202.92 397.64 205.56 399.21 C 212.10 399.91 219.89 399.98 224.35 405.65 C 229.32 411.95 234.11 418.99 235.44 427.06 C 235.78 433.82 235.70 440.77 233.21 447.16 C 231.44 451.62 230.42 456.52 227.29 460.29 C 223.02 465.49 218.49 470.64 212.72 474.24 C 208.70 476.50 203.95 476.66 199.74 478.42 C 195.84 480.04 191.62 480.35 187.48 480.91 C 181.06 482.26 174.49 481.29 168.00 481.45 C 152.01 482.03 136.00 481.67 120.00 481.59 C 107.23 481.93 94.69 478.90 81.96 478.45 C 77.24 478.28 72.24 477.57 68.37 474.65 C 64.23 471.56 59.12 469.28 56.53 464.57 C 52.77 458.38 52.60 450.96 51.66 443.99 C 51.25 439.85 52.25 435.76 52.94 431.71 C 54.60 426.01 57.98 421.03 61.33 416.22 C 65.84 409.81 72.71 405.11 80.32 403.24 C 82.91 402.55 85.66 402.84 88.23 402.10 C 93.44 396.88 93.38 388.18 99.41 383.41 C 104.62 378.54 110.20 373.91 116.62 370.71 M 121.26 376.21 C 114.64 379.98 107.57 383.68 102.75 389.76 C 100.03 393.43 96.62 397.20 96.44 402.00 C 98.93 406.29 103.93 408.21 106.81 412.19 C 109.79 416.05 111.17 421.12 110.21 425.94 C 108.38 428.85 104.68 431.37 101.17 429.98 C 97.29 428.36 93.39 425.63 92.31 421.32 C 90.37 416.78 91.67 410.97 87.70 407.39 C 81.88 408.48 76.16 410.76 71.56 414.56 C 66.78 418.98 63.80 424.92 60.17 430.25 C 54.41 438.72 56.33 449.60 59.08 458.79 C 60.36 463.68 64.81 466.62 68.76 469.26 C 74.98 473.42 82.66 474.52 89.99 474.60 C 97.37 474.71 104.59 476.68 111.98 476.55 C 128.49 476.48 145.01 476.74 161.51 476.21 C 169.61 474.70 177.92 476.61 185.98 474.76 C 194.69 472.95 203.79 471.78 211.79 467.66 C 222.22 459.91 227.80 447.40 230.57 435.04 C 231.91 425.14 226.74 415.82 220.16 408.85 C 217.02 405.69 212.52 404.09 208.10 404.40 C 206.05 404.12 204.62 406.01 203.90 407.67 C 202.59 412.85 203.06 418.60 200.22 423.32 C 198.26 426.47 194.47 427.69 191.05 428.51 C 189.02 425.96 186.26 423.46 186.21 419.96 C 186.08 416.80 186.18 413.45 187.75 410.62 C 190.28 406.03 196.38 404.64 198.38 399.68 C 198.64 396.47 196.95 393.43 195.03 390.99 C 190.01 385.18 182.83 380.79 175.00 380.62 C 166.98 380.94 159.26 384.49 153.43 389.95 C 153.70 394.30 154.76 398.63 154.26 403.01 C 153.45 409.01 152.77 415.27 149.63 420.59 C 147.22 420.67 144.81 420.66 142.40 420.57 C 140.35 418.04 138.83 415.04 138.44 411.78 C 137.72 404.69 138.73 397.05 143.19 391.26 C 144.33 389.29 146.79 387.01 145.33 384.61 C 142.50 380.86 139.07 377.54 135.42 374.60 C 131.01 371.78 125.45 373.95 121.26 376.21 M 143.35 411.84 C 143.23 414.28 146.53 414.24 146.95 412.07 C 148.52 407.01 150.77 401.21 148.77 396.00 C 143.33 398.99 143.02 406.36 143.35 411.84 M 95.45 413.97 C 95.89 418.38 97.26 423.56 101.89 425.24 C 103.01 423.93 104.98 422.91 104.81 420.93 C 105.04 416.23 101.10 412.99 97.88 410.23 C 96.66 411.19 94.88 412.08 95.45 413.97 M 194.46 412.26 C 192.78 414.46 191.41 416.93 191.16 419.74 C 191.64 420.08 192.59 420.76 193.07 421.10 C 195.39 419.20 197.85 416.63 197.60 413.39 C 197.02 412.12 195.59 412.36 194.46 412.26 Z" />
<path fill="#3d6891" opacity="1.00" d=" M 954.18 567.19 C 959.13 561.11 966.40 557.27 973.97 555.58 C 982.85 554.55 992.90 554.89 1000.00 561.08 L 1000.00 566.33 C 995.14 563.19 990.15 559.12 984.01 559.47 C 976.12 559.90 968.24 563.04 962.53 568.58 C 958.46 572.48 954.01 576.42 952.25 581.99 C 954.38 584.89 957.38 587.44 958.26 591.05 C 958.23 594.99 957.15 598.99 955.28 602.47 C 952.03 604.84 947.23 602.99 945.06 599.94 C 941.66 595.30 942.40 589.22 940.83 583.96 C 936.80 578.49 929.02 579.13 922.99 579.31 C 919.10 579.27 916.48 582.47 914.04 585.04 C 909.76 589.86 904.81 594.59 903.24 601.08 C 902.05 605.95 901.50 611.26 903.01 616.12 C 905.80 622.45 909.09 628.95 914.68 633.29 C 919.36 636.99 923.85 641.08 929.28 643.68 C 934.16 645.99 939.22 648.06 944.57 649.03 C 957.56 651.03 970.77 652.26 983.90 651.06 C 989.39 650.46 994.67 648.82 1000.00 647.45 L 1000.00 653.19 C 993.43 654.69 986.75 655.93 979.99 655.70 C 971.67 655.50 963.28 656.24 955.05 654.84 C 947.04 653.50 938.76 653.06 931.21 649.82 C 920.74 645.79 912.55 637.95 904.54 630.40 C 901.32 627.26 899.76 622.93 898.19 618.84 C 894.72 609.37 896.46 598.68 901.02 589.90 C 903.59 585.37 907.62 581.84 911.76 578.77 C 917.29 574.73 924.49 575.31 930.97 575.48 C 935.76 575.52 939.98 578.25 944.68 578.75 C 948.37 575.36 950.56 570.67 954.18 567.19 Z" />
</g>
<g id="#fcfdd4ff">
<path fill="#fcfdd4" opacity="1.00" d=" M 880.18 380.38 C 888.12 380.57 896.08 380.51 904.01 379.90 C 908.67 379.95 913.34 380.51 918.02 380.42 C 918.67 382.22 918.65 384.11 918.21 385.96 C 917.35 390.02 917.25 394.22 916.10 398.22 C 914.68 400.13 912.05 399.38 910.03 399.57 C 901.98 399.80 893.98 397.61 885.98 399.20 C 881.86 399.49 881.77 394.53 881.07 391.66 C 880.69 387.92 877.82 383.93 880.18 380.38 Z" />
</g>
<g id="#ceecfeff">
<path fill="#ceecfe" opacity="1.00" d=" M 685.87 395.98 C 684.03 391.18 690.04 388.14 692.98 385.38 C 693.52 385.81 694.60 386.67 695.14 387.10 C 692.81 390.76 689.32 393.44 685.87 395.98 Z" />
</g>
<g id="#def0faff">
<path fill="#def0fa" opacity="1.00" d=" M 143.35 411.84 C 143.02 406.36 143.33 398.99 148.77 396.00 C 150.77 401.21 148.52 407.01 146.95 412.07 C 146.53 414.24 143.23 414.28 143.35 411.84 Z" />
</g>
<g id="#effcfcff">
<path fill="#effcfc" opacity="1.00" d=" M 95.45 413.97 C 94.88 412.08 96.66 411.19 97.88 410.23 C 101.10 412.99 105.04 416.23 104.81 420.93 C 104.98 422.91 103.01 423.93 101.89 425.24 C 97.26 423.56 95.89 418.38 95.45 413.97 Z" />
</g>
<g id="#cdeef8ff">
<path fill="#cdeef8" opacity="1.00" d=" M 194.46 412.26 C 195.59 412.36 197.02 412.12 197.60 413.39 C 197.85 416.63 195.39 419.20 193.07 421.10 C 192.59 420.76 191.64 420.08 191.16 419.74 C 191.41 416.93 192.78 414.46 194.46 412.26 Z" />
</g>
<g id="#3f6690ff">
<path fill="#3f6690" opacity="1.00" d=" M 931.73 422.77 C 933.58 422.05 935.62 422.43 937.57 422.44 C 940.65 427.49 942.93 433.02 944.61 438.69 C 945.65 442.56 946.07 447.01 943.62 450.47 C 942.23 450.51 940.84 450.58 939.47 450.67 C 940.01 443.89 937.49 437.40 934.68 431.38 C 933.44 428.67 930.16 425.99 931.73 422.77 Z" />
</g>
<g id="#cee1ebff">
<path fill="#cee1eb" opacity="1.00" d=" M 235.44 427.06 L 236.15 426.09 C 237.68 429.09 237.08 432.55 237.70 435.77 C 237.98 437.99 238.84 440.24 238.27 442.50 C 236.83 448.35 236.27 454.64 232.61 459.66 C 228.35 466.69 221.84 474.91 212.72 474.24 C 218.49 470.64 223.02 465.49 227.29 460.29 C 230.42 456.52 231.44 451.62 233.21 447.16 C 235.70 440.77 235.78 433.82 235.44 427.06 Z" />
</g>
<g id="#3f658eff">
<path fill="#3f658e" opacity="1.00" d=" M 938.97 462.73 C 940.70 462.45 942.45 462.33 944.21 462.26 C 946.72 466.51 944.81 471.48 943.77 475.88 C 942.31 480.57 941.34 485.51 938.77 489.76 C 937.34 489.51 934.03 490.49 934.54 487.97 C 935.84 479.54 939.25 471.39 938.97 462.73 Z" />
</g>
<g id="#3f678eff">
<path fill="#3f678e" opacity="1.00" d=" M 411.29 486.91 C 415.17 486.06 419.16 486.82 422.95 487.76 C 425.44 488.08 425.43 491.81 423.07 492.39 C 418.13 492.71 413.17 492.12 408.24 492.61 C 404.97 492.96 401.99 495.01 398.63 494.58 C 396.76 493.49 397.43 490.78 399.26 490.13 C 403.10 488.53 407.25 487.81 411.29 486.91 Z" />
<path fill="#3f678e" opacity="1.00" d=" M 373.53 504.34 C 374.69 501.43 376.77 498.48 379.94 497.64 C 382.58 497.84 382.96 501.03 382.05 502.99 C 381.32 505.34 378.50 506.10 377.64 508.38 C 376.47 511.09 375.44 513.85 374.15 516.51 C 373.24 516.51 371.43 516.50 370.52 516.49 C 369.78 512.15 372.05 508.24 373.53 504.34 Z" />
<path fill="#3f678e" opacity="1.00" d=" M 435.48 504.98 C 437.22 502.10 440.65 505.03 442.51 506.46 C 446.65 511.19 450.36 517.23 449.72 523.76 C 448.54 524.43 447.28 524.71 445.94 524.62 C 443.53 522.41 443.97 518.75 442.87 515.89 C 441.63 511.49 435.42 509.78 435.48 504.98 Z" />
<path fill="#3f678e" opacity="1.00" d=" M 402.26 523.59 C 412.19 520.72 422.58 523.89 431.96 527.28 C 434.75 527.85 434.83 530.82 434.61 533.13 C 433.88 535.62 431.04 534.31 429.62 533.33 C 425.09 530.28 419.35 530.51 414.42 528.42 C 410.71 526.60 406.76 528.24 402.94 528.47 C 400.90 527.38 401.67 525.29 402.26 523.59 Z" />
<path fill="#3f678e" opacity="1.00" d=" M 380.52 533.15 C 381.21 530.23 383.15 527.77 386.09 526.87 C 388.46 525.49 390.52 528.90 389.12 530.86 C 386.58 534.86 382.05 537.90 381.57 542.95 C 381.36 547.59 379.54 551.96 379.36 556.60 C 378.38 556.56 377.41 556.52 376.43 556.50 C 373.78 548.61 376.61 540.29 378.93 532.69 C 379.45 532.83 379.98 532.99 380.52 533.15 Z" />
<path fill="#3f678e" opacity="1.00" d=" M 388.28 591.57 C 387.39 587.01 392.55 585.55 395.93 584.53 C 401.91 584.07 408.03 584.07 413.94 585.18 C 416.06 585.62 419.62 586.28 418.26 589.28 C 412.13 590.52 406.04 588.26 399.92 588.66 C 396.10 589.95 392.53 592.41 388.28 591.57 Z" />
</g>
<g id="#fccd9fff">
<path fill="#fccd9f" opacity="1.00" d=" M 683.42 495.44 C 687.08 495.19 690.76 495.87 694.23 497.04 C 696.47 497.65 696.85 500.33 697.86 502.10 C 699.46 506.59 703.31 510.07 703.95 514.92 C 704.90 519.65 704.24 524.53 705.14 529.28 C 705.95 534.14 705.66 539.09 705.65 544.00 C 705.59 549.24 706.11 554.54 705.19 559.75 C 704.25 564.80 704.79 570.00 703.85 575.06 C 703.23 579.81 701.09 584.15 699.65 588.68 C 696.43 599.83 692.09 610.67 689.69 622.06 C 689.08 624.77 688.56 627.63 686.93 629.95 C 685.70 630.90 683.90 630.35 682.45 630.63 C 681.57 629.20 680.32 627.83 680.48 626.04 C 680.14 617.01 682.29 608.03 681.16 599.00 C 680.02 590.86 681.00 582.62 680.29 574.46 C 679.15 564.69 679.18 554.78 680.41 545.03 C 680.51 529.21 680.28 513.37 681.67 497.62 C 682.06 496.74 682.64 496.01 683.42 495.44 Z" />
</g>
<g id="#f5ced2ff">
<path fill="#f5ced2" opacity="1.00" d=" M 631.98 521.00 C 635.07 511.00 644.96 505.83 653.02 500.29 C 655.35 502.12 654.81 505.74 652.92 507.69 C 651.75 508.94 650.55 510.24 650.40 512.04 C 649.67 516.80 646.47 520.70 645.72 525.45 C 644.79 530.27 643.36 535.05 643.49 540.00 C 643.49 546.93 644.23 553.85 644.69 560.76 C 646.56 568.58 648.56 576.40 651.01 584.07 C 654.07 591.52 655.17 599.54 656.76 607.39 C 658.18 613.33 659.57 619.28 660.97 625.24 C 661.41 626.73 660.98 628.26 660.73 629.75 C 657.75 631.25 653.68 629.35 653.44 625.91 C 652.70 620.96 651.01 616.25 649.35 611.56 C 647.28 604.59 642.54 598.89 639.77 592.23 C 635.30 583.75 631.35 574.88 629.39 565.45 C 626.55 556.23 627.52 546.49 627.45 536.99 C 627.30 531.29 630.47 526.33 631.98 521.00 Z" />
</g>
<g id="#3e688eff">
<path fill="#3e688e" opacity="1.00" d=" M 928.06 504.18 C 928.96 502.02 931.55 502.76 933.37 502.64 C 933.31 504.32 933.57 506.11 932.74 507.67 C 930.36 512.97 926.65 517.54 922.90 521.93 C 920.98 524.34 917.79 524.80 914.91 524.91 C 915.84 521.03 918.87 518.22 921.04 515.01 C 923.81 511.68 925.95 507.93 928.06 504.18 Z" />
</g>
<g id="#46688cff">
<path fill="#46688c" opacity="1.00" d=" M 893.57 539.61 C 897.49 536.64 901.32 532.11 906.79 533.25 C 907.35 537.46 903.12 539.22 900.43 541.49 C 895.12 545.82 888.92 548.83 882.73 551.66 C 880.22 552.84 877.37 552.60 874.69 552.71 C 874.85 551.57 875.02 550.07 876.33 549.69 C 882.44 547.02 888.62 544.17 893.57 539.61 Z" />
</g>
<g id="#42688cff">
<path fill="#42688c" opacity="1.00" d=" M 427.48 561.47 C 433.09 556.60 437.29 550.29 439.83 543.33 C 440.74 543.39 442.55 543.51 443.46 543.57 C 444.71 549.95 440.25 555.15 437.06 560.15 C 434.30 563.84 430.37 568.90 425.13 566.82 C 425.16 564.73 425.67 562.72 427.48 561.47 Z" />
<path fill="#42688c" opacity="1.00" d=" M 153.22 855.48 C 160.65 854.08 168.08 852.00 175.71 852.44 C 175.60 853.32 175.39 855.09 175.28 855.97 C 173.07 856.84 170.70 857.20 168.36 857.59 C 168.78 857.89 169.19 858.20 169.61 858.52 C 164.28 858.28 159.22 860.23 153.99 860.85 C 151.77 860.99 148.93 862.32 147.39 860.04 C 147.16 856.69 150.70 855.98 153.22 855.48 Z" />
</g>
<g id="#42678cff">
<path fill="#42678c" opacity="1.00" d=" M 450.47 543.47 C 454.10 542.66 456.37 546.17 458.56 548.45 C 462.17 553.51 464.15 560.95 460.70 566.60 C 459.64 566.59 458.59 566.59 457.54 566.61 C 457.45 562.22 457.62 557.54 455.42 553.58 C 453.58 550.25 449.54 547.77 450.47 543.47 Z" />
</g>
<g id="#3b6891ff">
<path fill="#3b6891" opacity="1.00" d=" M 0.00 561.62 C 2.75 563.25 5.80 564.58 7.92 567.06 C 11.08 570.42 12.84 574.88 16.19 578.07 C 22.82 579.08 30.13 577.20 36.23 580.81 C 42.12 584.78 45.70 591.90 45.56 598.99 C 46.13 608.55 42.13 617.55 37.87 625.85 C 29.98 639.94 15.10 648.56 0.00 652.99 L 0.00 647.00 C 7.72 645.54 13.92 640.44 20.41 636.37 C 28.69 631.14 34.00 622.39 37.44 613.43 C 39.82 607.26 40.11 600.50 39.44 593.99 C 38.76 587.98 33.11 583.09 27.05 583.35 C 23.46 583.52 18.29 582.15 16.23 586.06 C 13.57 591.27 12.81 597.43 9.12 602.14 C 6.87 604.81 3.07 604.86 0.00 605.97 L 0.00 588.05 C 3.61 586.40 7.23 584.32 9.36 580.85 C 8.72 575.72 5.38 570.05 0.00 568.88 L 0.00 561.62 Z" />
</g>
<g id="#47678bff">
<path fill="#47678b" opacity="1.00" d=" M 379.16 564.23 C 383.76 563.63 386.64 567.78 390.56 569.30 C 397.16 572.46 404.60 571.47 411.65 571.50 C 411.62 572.82 411.61 574.14 411.60 575.47 C 401.43 578.21 391.00 574.44 381.93 569.97 C 379.79 568.85 379.30 566.41 379.16 564.23 Z" />
</g>
<g id="#cdf1fbff">
<path fill="#cdf1fb" opacity="1.00" d=" M 0.00 568.88 C 5.38 570.05 8.72 575.72 9.36 580.85 C 7.23 584.32 3.61 586.40 0.00 588.05 L 0.00 568.88 Z" />
</g>
<g id="#d0f2fdff">
<path fill="#d0f2fd" opacity="1.00" d=" M 16.23 586.06 C 18.29 582.15 23.46 583.52 27.05 583.35 C 33.11 583.09 38.76 587.98 39.44 593.99 C 40.11 600.50 39.82 607.26 37.44 613.43 C 34.00 622.39 28.69 631.14 20.41 636.37 C 13.92 640.44 7.72 645.54 0.00 647.00 L 0.00 605.97 C 3.07 604.86 6.87 604.81 9.12 602.14 C 12.81 597.43 13.57 591.27 16.23 586.06 Z" />
<path fill="#d0f2fd" opacity="1.00" d=" M 0.00 808.39 C 2.78 808.43 5.71 808.41 8.21 809.82 C 14.99 813.17 19.09 819.88 22.58 826.30 C 26.38 833.19 26.71 841.30 26.69 849.00 C 26.95 857.65 22.42 865.61 17.09 872.09 C 12.03 876.84 6.64 881.65 0.00 884.03 L 0.00 808.39 Z" />
<path fill="#d0f2fd" opacity="1.00" d=" M 551.73 930.72 C 556.93 927.73 562.94 930.79 567.68 933.32 C 577.52 938.93 587.89 946.49 590.71 958.10 C 587.83 961.32 584.62 964.22 581.31 967.00 L 548.72 967.00 C 548.65 962.61 548.63 958.14 547.14 953.96 C 545.84 949.53 542.73 946.02 540.28 942.22 C 543.70 938.03 547.26 933.82 551.73 930.72 Z" />
<path fill="#d0f2fd" opacity="1.00" d=" M 491.55 947.48 C 496.54 941.50 503.90 936.70 511.98 937.18 C 520.01 936.69 527.71 940.54 533.41 945.98 C 532.51 952.96 532.11 960.12 533.97 967.00 L 499.65 967.00 C 496.66 962.98 491.93 960.74 488.97 956.76 C 488.07 953.57 489.79 950.11 491.55 947.48 Z" />
</g>
<g id="#42698cff">
<path fill="#42698c" opacity="1.00" d=" M 447.16 585.18 C 447.88 585.03 449.32 584.72 450.04 584.57 C 452.58 586.07 451.49 589.46 451.36 591.89 C 449.79 597.61 446.95 603.67 441.44 606.53 C 439.24 607.65 436.72 609.12 434.20 608.16 C 431.85 605.38 430.50 601.72 427.40 599.63 C 425.05 597.77 421.28 596.89 421.11 593.35 C 423.67 593.35 426.42 593.08 428.77 594.36 C 432.56 596.09 434.89 599.70 437.41 602.84 C 440.43 601.56 442.19 598.58 444.02 596.01 C 446.32 592.86 446.39 588.85 447.16 585.18 Z" />
</g>
<g id="#45688bff">
<path fill="#45688b" opacity="1.00" d=" M 366.86 599.92 C 367.95 596.42 368.84 592.72 371.06 589.73 C 372.51 589.51 373.98 589.44 375.46 589.51 C 377.06 594.94 371.57 598.37 370.45 603.21 C 369.82 606.39 369.78 609.63 369.73 612.86 C 368.53 612.78 367.34 612.71 366.15 612.65 C 364.54 608.50 365.75 604.02 366.86 599.92 Z" />
</g>
<g id="#fdcd9eff">
<path fill="#fdcd9e" opacity="1.00" d=" M 178.65 594.59 C 182.46 591.64 187.73 591.09 192.42 591.40 C 194.32 600.48 192.89 609.84 194.14 619.01 C 194.82 633.65 194.51 648.33 194.52 662.99 C 194.64 668.35 193.62 673.64 193.56 679.00 C 193.63 692.34 193.03 705.69 193.74 719.02 C 193.64 721.07 194.18 723.34 193.24 725.26 C 191.53 726.35 189.25 726.76 187.48 725.55 C 185.24 723.02 185.22 719.41 184.52 716.28 C 183.82 711.56 181.44 707.34 180.32 702.74 C 178.57 694.69 175.26 687.12 172.79 679.29 C 169.74 672.68 169.82 665.29 169.24 658.19 C 166.93 644.73 166.66 630.90 168.72 617.39 C 170.34 609.17 174.13 601.57 178.65 594.59 Z" />
</g>
<g id="#487189ff">
<path fill="#487189" opacity="1.00" d=" M 997.76 599.02 C 997.86 595.98 999.10 593.16 1000.00 590.31 L 1000.00 604.88 C 999.18 602.95 998.06 601.11 997.76 599.02 Z" />
</g>
<g id="#facdd0ff">
<path fill="#facdd0" opacity="1.00" d=" M 217.11 595.08 C 220.23 595.07 222.52 597.27 224.96 598.89 C 231.48 603.42 239.63 607.61 242.03 615.79 C 244.06 621.46 246.50 627.08 247.39 633.08 C 248.23 643.09 247.24 653.27 244.23 662.86 C 242.38 672.31 237.87 680.91 233.71 689.50 C 232.13 692.95 230.49 696.38 228.62 699.69 C 224.71 706.55 222.32 714.18 220.74 721.89 C 220.50 724.51 217.86 727.08 215.13 726.23 C 212.88 725.40 213.29 722.86 213.51 720.98 C 214.98 712.40 218.08 704.14 218.85 695.44 C 220.04 686.58 224.45 678.62 225.97 669.85 C 227.22 663.19 230.25 656.87 230.34 650.01 C 230.38 645.00 230.40 640.00 230.47 635.00 C 230.73 626.44 227.10 618.51 224.35 610.60 C 222.57 605.14 219.08 600.46 217.11 595.08 Z" />
</g>
<g id="#c7f1cdff">
<path fill="#c7f1cd" opacity="1.00" d=" M 165.82 598.85 C 166.83 598.48 167.87 598.20 168.94 598.02 C 167.97 603.74 164.26 608.58 163.47 614.37 C 161.91 625.71 160.57 637.23 162.07 648.66 C 163.14 658.23 163.50 668.01 166.54 677.23 C 167.75 681.17 168.62 685.21 169.98 689.12 C 173.65 698.79 176.44 708.77 179.34 718.70 C 179.59 720.89 181.15 723.53 179.41 725.46 C 177.88 727.11 175.15 726.73 173.24 726.03 C 169.78 723.10 169.45 718.21 167.82 714.25 C 165.52 707.08 160.36 701.30 157.95 694.20 C 155.40 687.44 150.36 682.01 147.80 675.26 C 143.65 667.46 141.54 658.90 138.85 650.55 C 138.28 645.05 137.55 639.14 139.91 633.94 C 141.91 629.52 142.01 624.49 144.23 620.19 C 149.56 611.49 156.64 603.57 165.82 598.85 Z" />
</g>
<g id="#456987ff">
<path fill="#456987" opacity="1.00" d=" M 418.87 618.87 C 421.80 617.08 424.62 614.53 428.26 614.56 C 428.33 615.45 428.46 617.24 428.53 618.13 C 422.52 622.81 415.37 625.58 408.55 628.81 C 406.65 629.46 403.95 630.63 402.29 629.09 C 402.18 626.81 404.41 626.00 406.05 625.06 C 410.26 622.87 414.92 621.56 418.87 618.87 Z" />
</g>
<g id="#436890ff">
<path fill="#436890" opacity="1.00" d=" M 437.37 615.09 C 439.26 615.50 442.17 615.48 442.47 617.99 C 443.10 625.29 442.22 632.88 439.53 639.72 C 438.70 642.17 435.99 642.79 433.87 643.66 C 431.08 641.41 433.97 638.35 434.99 635.98 C 438.63 629.64 437.67 622.07 437.37 615.09 Z" />
</g>
<g id="#43678eff">
<path fill="#43678e" opacity="1.00" d=" M 367.86 622.86 C 371.49 622.07 374.42 625.07 377.66 626.21 C 381.15 628.06 385.60 628.14 388.57 630.87 C 388.56 631.51 388.53 632.79 388.52 633.43 C 383.06 633.80 377.46 632.78 372.60 630.26 C 370.10 628.73 366.89 626.15 367.86 622.86 Z" />
</g>
<g id="#41698aff">
<path fill="#41698a" opacity="1.00" d=" M 651.16 647.04 C 650.58 645.12 652.33 643.39 654.21 643.50 C 661.13 643.35 668.08 643.69 675.00 642.92 C 684.94 643.62 694.92 643.73 704.89 643.48 C 706.48 646.71 705.06 650.25 704.39 653.54 C 702.99 658.78 702.95 664.30 701.34 669.49 C 700.06 672.07 696.56 672.33 694.03 672.07 C 681.93 670.56 669.86 673.16 657.76 672.65 C 655.77 668.06 655.71 663.01 655.38 658.12 C 655.06 654.06 652.05 650.89 651.16 647.04 M 659.34 649.85 C 660.28 654.79 661.37 659.71 661.69 664.75 C 661.80 666.89 664.08 667.99 666.01 667.72 C 675.56 667.60 685.11 667.01 694.66 667.54 C 697.87 662.56 697.47 656.29 699.63 650.88 C 698.66 649.76 697.74 648.28 696.02 648.61 C 685.33 648.70 674.65 648.20 663.96 648.50 C 662.29 648.39 660.73 648.99 659.34 649.85 Z" />
</g>
<g id="#fbfdd4ff">
<path fill="#fbfdd4" opacity="1.00" d=" M 659.34 649.85 C 660.73 648.99 662.29 648.39 663.96 648.50 C 674.65 648.20 685.33 648.70 696.02 648.61 C 697.74 648.28 698.66 649.76 699.63 650.88 C 697.47 656.29 697.87 662.56 694.66 667.54 C 685.11 667.01 675.56 667.60 666.01 667.72 C 664.08 667.99 661.80 666.89 661.69 664.75 C 661.37 659.71 660.28 654.79 659.34 649.85 Z" />
</g>
<g id="#45698aff">
<path fill="#45698a" opacity="1.00" d=" M 423.43 651.39 C 424.82 651.37 426.22 651.37 427.62 651.38 C 428.03 658.23 421.52 661.99 417.59 666.58 C 414.32 670.39 409.06 673.46 404.04 671.09 C 407.10 668.08 410.97 666.05 413.99 662.99 C 417.65 659.57 420.50 655.42 423.43 651.39 Z" />
</g>
<g id="#3f688dff">
<path fill="#3f688d" opacity="1.00" d=" M 599.30 658.33 C 606.74 654.36 615.32 654.51 623.46 653.50 C 623.45 654.37 623.43 656.10 623.42 656.96 C 623.35 658.62 621.19 658.40 620.08 658.89 C 616.03 659.89 611.80 660.18 607.85 661.59 C 605.09 662.52 602.63 664.38 599.65 664.58 C 599.34 662.50 599.26 660.41 599.30 658.33 Z" />
</g>
<g id="#3e678dff">
<path fill="#3e678d" opacity="1.00" d=" M 581.28 673.10 C 583.99 671.21 586.43 675.44 584.79 677.68 C 582.74 680.90 579.62 683.29 577.46 686.44 C 574.56 689.97 573.17 694.38 570.90 698.27 C 566.68 699.35 566.96 693.68 567.56 691.02 C 570.58 684.11 575.41 677.83 581.28 673.10 Z" />
</g>
<g id="#43688fff">
<path fill="#43688f" opacity="1.00" d=" M 562.78 713.36 C 563.59 713.48 564.41 713.60 565.24 713.73 C 567.40 717.03 566.64 721.15 566.00 724.80 C 564.87 729.76 564.11 734.83 564.45 739.93 C 562.84 740.45 560.24 741.37 559.54 739.09 C 558.63 730.36 561.39 721.88 562.78 713.36 Z" />
<path fill="#43688f" opacity="1.00" d=" M 717.61 828.59 C 718.71 827.31 720.31 827.74 721.77 827.97 C 722.63 833.52 717.33 836.85 712.96 838.80 C 707.97 840.67 703.01 842.67 697.98 844.43 C 696.19 845.21 694.17 842.66 694.64 841.04 C 696.64 838.49 700.09 837.98 702.90 836.73 C 708.26 834.93 713.25 832.20 717.61 828.59 Z" />
</g>
<g id="#40688bff">
<path fill="#40688b" opacity="1.00" d=" M 168.30 740.78 C 169.41 739.99 170.63 739.59 171.97 739.58 C 185.32 739.72 198.66 739.12 212.00 739.51 C 215.46 739.82 219.46 738.52 222.52 740.54 C 224.74 742.24 222.31 744.63 221.53 746.43 C 217.64 753.14 219.16 761.16 217.46 768.44 C 204.94 769.79 192.42 766.18 179.96 768.25 C 177.40 768.48 174.22 767.55 172.90 765.20 C 171.44 761.07 171.45 756.63 170.57 752.39 C 169.78 748.52 168.83 744.69 168.30 740.78 M 176.27 744.44 C 175.63 745.71 174.88 747.09 175.41 748.56 C 176.40 752.43 176.91 756.41 177.82 760.31 C 178.46 762.49 180.67 763.89 182.92 763.25 C 192.70 761.56 202.75 765.24 212.42 762.82 C 212.56 758.13 213.48 753.53 214.35 748.95 C 214.77 747.42 214.28 745.93 213.81 744.50 C 201.30 743.92 188.78 744.87 176.27 744.44 Z" />
</g>
<g id="#fafdd3ff">
<path fill="#fafdd3" opacity="1.00" d=" M 176.27 744.44 C 188.78 744.87 201.30 743.92 213.81 744.50 C 214.28 745.93 214.77 747.42 214.35 748.95 C 213.48 753.53 212.56 758.13 212.42 762.82 C 202.75 765.24 192.70 761.56 182.92 763.25 C 180.67 763.89 178.46 762.49 177.82 760.31 C 176.91 756.41 176.40 752.43 175.41 748.56 C 174.88 747.09 175.63 745.71 176.27 744.44 Z" />
</g>
<g id="#486889ff">
<path fill="#486889" opacity="1.00" d=" M 566.00 751.02 C 567.50 751.20 569.62 751.20 569.70 753.25 C 571.28 760.17 576.48 765.39 578.65 772.07 C 577.29 772.23 575.93 772.43 574.57 772.37 C 572.13 769.98 570.82 766.74 569.24 763.78 C 567.35 759.81 565.04 755.56 566.00 751.02 Z" />
</g>
<g id="#41668fff">
<path fill="#41668f" opacity="1.00" d=" M 677.88 765.86 C 687.39 760.39 698.98 759.52 709.61 761.23 C 709.60 762.67 709.62 764.13 709.65 765.60 C 702.27 765.79 694.65 764.80 687.56 767.42 C 684.30 768.79 680.75 768.79 677.29 768.53 C 677.48 767.63 677.68 766.74 677.88 765.86 Z" />
</g>
<g id="#386894ff">
<path fill="#386894" opacity="1.00" d=" M 366.67 772.66 C 370.98 769.22 376.67 768.57 381.97 767.98 C 386.33 767.35 390.78 768.26 394.85 769.87 C 399.48 771.60 404.19 773.71 407.63 777.39 C 410.53 780.51 413.80 783.37 416.02 787.06 C 417.42 789.43 419.29 791.54 421.77 792.83 C 422.86 793.49 423.97 794.17 425.08 794.85 C 422.20 801.00 424.17 808.89 419.00 814.03 C 416.79 816.82 413.09 816.87 409.88 816.37 C 408.54 812.39 406.74 808.40 406.73 804.13 C 407.58 800.71 410.69 798.63 412.49 795.77 C 411.52 790.31 407.16 786.35 403.47 782.55 C 397.03 775.84 387.59 771.82 378.27 772.53 C 371.50 773.83 366.08 778.63 361.35 783.36 C 358.31 786.26 356.47 790.10 355.30 794.09 C 358.26 797.33 362.28 799.53 364.84 803.15 C 367.49 807.36 366.85 812.57 366.26 817.27 C 363.57 818.06 360.21 819.46 357.84 817.17 C 352.48 812.66 352.21 805.02 348.63 799.37 C 347.73 798.01 346.47 796.63 344.73 796.57 C 340.06 796.00 335.17 796.31 330.87 798.34 C 329.59 797.29 328.34 796.21 327.10 795.14 C 333.68 790.52 342.02 791.47 349.59 791.55 C 351.41 788.42 352.92 785.08 355.25 782.28 C 358.39 778.35 362.78 775.75 366.67 772.66 Z" />
</g>
<g id="#456986ff">
<path fill="#456986" opacity="1.00" d=" M 719.53 769.50 C 727.85 769.54 733.95 776.15 739.06 781.94 C 740.74 783.41 740.47 785.73 740.65 787.76 C 739.30 787.67 737.92 787.76 736.61 787.40 C 734.32 785.32 732.73 782.62 730.55 780.45 C 727.51 777.12 723.33 775.24 719.47 773.07 C 719.49 772.18 719.51 770.39 719.53 769.50 Z" />
</g>
<g id="#3c6892ff">
<path fill="#3c6892" opacity="1.00" d=" M 912.79 780.82 C 922.65 774.51 934.02 769.49 946.00 770.33 C 952.69 769.86 958.62 773.19 964.61 775.62 C 973.52 779.04 981.68 785.02 986.74 793.22 C 988.33 795.55 989.63 798.19 991.87 800.00 C 994.49 800.83 997.29 800.88 1000.00 801.34 L 1000.00 806.95 C 997.54 807.14 995.09 807.34 992.65 807.63 C 990.99 813.82 992.16 821.38 987.17 826.20 C 983.01 830.51 975.29 830.16 971.52 825.53 C 967.83 821.49 968.82 815.06 972.05 811.05 C 974.97 806.34 980.15 804.01 984.82 801.44 C 984.24 797.59 981.10 795.06 978.58 792.41 C 975.20 789.05 971.96 785.38 967.64 783.21 C 963.87 781.33 960.00 779.68 956.18 777.94 C 952.67 776.31 948.74 776.43 944.99 776.08 C 939.04 775.23 933.58 778.31 928.12 780.14 C 924.38 781.85 919.55 783.68 918.19 787.92 C 919.58 792.00 922.69 795.54 922.72 800.04 C 922.74 803.50 923.14 807.97 919.87 810.20 C 916.49 810.95 912.86 810.50 909.69 809.17 C 905.83 807.13 903.41 802.59 903.90 798.25 C 904.27 793.92 906.27 790.00 908.09 786.13 C 904.20 780.14 896.54 779.27 890.04 778.76 C 878.27 778.29 865.31 783.30 859.36 793.97 C 862.66 797.57 867.29 799.70 870.27 803.64 C 873.41 807.73 876.01 812.64 875.65 817.96 C 875.62 821.18 875.14 825.36 871.71 826.76 C 866.87 828.59 860.54 828.09 856.91 824.07 C 854.40 821.38 852.44 818.18 851.05 814.78 C 849.50 810.16 850.91 805.24 850.38 800.51 C 849.14 797.64 845.58 798.26 843.08 798.39 C 830.37 799.98 819.44 807.76 810.98 816.98 C 805.94 823.67 800.57 830.51 798.62 838.85 C 797.55 843.69 796.07 848.78 797.18 853.74 C 800.92 865.39 809.54 874.54 818.56 882.43 C 822.28 885.43 826.97 886.72 831.28 888.61 C 836.43 890.92 841.98 892.03 847.32 893.81 C 854.81 896.44 862.70 897.48 870.44 899.10 C 884.47 901.62 898.83 902.15 913.01 900.74 C 920.03 899.99 927.01 902.09 934.03 901.21 C 943.56 899.89 953.22 899.36 962.58 896.99 C 975.55 894.62 988.53 891.28 1000.00 884.57 L 1000.00 892.74 C 989.36 897.78 977.69 899.72 966.49 903.03 C 957.34 904.38 948.19 905.79 939.03 907.00 C 928.36 908.53 917.68 905.80 907.00 906.81 C 892.13 908.47 877.48 904.27 862.71 903.56 C 862.87 903.19 863.05 902.83 863.24 902.48 C 857.65 902.07 852.14 900.90 846.89 898.99 C 839.37 896.18 831.05 895.79 823.90 891.95 C 820.44 890.06 817.03 888.07 813.58 886.17 C 807.28 882.70 803.29 876.45 799.29 870.71 C 796.45 866.24 792.62 862.11 791.61 856.75 C 790.28 844.65 791.42 831.64 798.48 821.33 C 802.37 816.03 805.95 810.33 811.07 806.09 C 816.30 801.80 821.86 797.63 828.40 795.59 C 833.20 794.16 837.96 792.39 842.96 791.78 C 846.00 791.38 849.18 791.94 852.15 791.06 C 855.04 787.92 856.52 783.64 859.95 780.95 C 869.39 773.38 882.19 771.38 893.93 772.95 C 900.75 774.11 906.50 778.21 912.79 780.82 M 908.90 799.69 C 907.89 801.95 909.97 804.00 911.59 805.29 C 915.36 806.86 917.82 802.18 917.53 799.00 C 917.70 796.10 915.36 793.99 913.11 792.60 C 911.18 794.61 909.60 796.97 908.90 799.69 M 856.30 805.96 C 855.91 811.78 856.20 819.76 862.45 822.43 C 865.82 823.90 868.39 820.36 869.39 817.60 C 869.69 814.73 870.29 811.20 868.02 808.97 C 865.43 805.96 862.60 803.05 859.03 801.24 C 857.65 802.49 855.94 803.84 856.30 805.96 M 974.58 820.92 C 975.39 821.75 976.25 822.54 977.15 823.32 C 980.11 823.73 982.32 821.10 983.90 818.97 C 985.76 816.02 988.00 811.49 984.13 809.13 C 979.85 811.97 975.67 815.66 974.58 820.92 Z" />
<path fill="#3c6892" opacity="1.00" d=" M 546.53 927.59 C 550.47 924.06 556.09 924.19 561.05 924.47 C 568.98 924.85 575.79 929.50 581.84 934.24 C 586.08 937.92 590.79 941.58 592.92 946.98 C 594.65 950.57 595.33 954.78 598.01 957.84 C 601.51 959.07 605.34 958.99 608.88 960.18 C 613.48 961.60 617.39 964.50 621.45 967.00 L 608.85 967.00 C 606.36 965.75 603.87 964.13 600.99 964.15 C 598.78 963.76 597.43 965.84 595.89 967.00 L 581.31 967.00 C 584.62 964.22 587.83 961.32 590.71 958.10 C 587.89 946.49 577.52 938.93 567.68 933.32 C 562.94 930.79 556.93 927.73 551.73 930.72 C 547.26 933.82 543.70 938.03 540.28 942.22 C 542.73 946.02 545.84 949.53 547.14 953.96 C 548.63 958.14 548.65 962.61 548.72 967.00 L 544.00 967.00 C 543.69 961.55 542.78 955.83 538.90 951.69 C 537.99 952.60 537.08 953.66 537.33 955.07 C 537.38 959.11 538.26 963.10 539.29 967.00 L 533.97 967.00 C 532.11 960.12 532.51 952.96 533.41 945.98 C 527.71 940.54 520.01 936.69 511.98 937.18 C 503.90 936.70 496.54 941.50 491.55 947.48 C 489.79 950.11 488.07 953.57 488.97 956.76 C 491.93 960.74 496.66 962.98 499.65 967.00 L 484.09 967.00 C 482.60 964.51 481.63 960.34 478.00 960.49 C 472.59 960.12 468.10 963.48 464.40 967.00 L 458.68 967.00 C 461.42 963.48 463.59 958.85 468.17 957.43 C 472.70 956.05 477.48 955.83 482.14 955.10 C 483.95 952.11 485.29 948.89 486.86 945.78 C 489.84 939.95 495.56 936.11 501.38 933.50 C 508.52 930.37 516.51 931.51 523.87 933.08 C 528.54 934.05 532.37 937.07 536.74 938.83 C 540.14 935.20 542.84 930.94 546.53 927.59 Z" />
</g>
<g id="#42668eff">
<path fill="#42668e" opacity="1.00" d=" M 631.26 776.30 C 640.57 775.16 650.09 774.91 659.09 771.92 C 662.11 770.56 663.99 776.08 660.80 776.79 C 651.82 779.46 642.36 780.96 632.99 780.57 C 630.69 780.57 630.77 777.87 631.26 776.30 Z" />
</g>
<g id="#466887ff">
<path fill="#466887" opacity="1.00" d=" M 591.29 774.21 C 595.14 774.49 597.99 777.38 601.58 778.48 C 605.57 779.79 609.68 780.80 613.48 782.66 C 613.53 784.00 613.58 785.34 613.65 786.69 C 610.06 788.12 606.65 785.79 603.36 784.60 C 599.73 782.95 595.77 781.88 592.50 779.53 C 590.69 778.38 591.55 775.96 591.29 774.21 Z" />
</g>
<g id="#3e698eff">
<path fill="#3e698e" opacity="1.00" d=" M 421.77 792.83 C 424.58 789.60 429.05 789.28 432.98 788.63 C 439.29 788.15 446.07 787.92 451.72 791.23 C 456.19 793.86 460.14 797.46 463.25 801.61 C 467.89 809.10 469.29 818.32 468.18 826.98 C 466.90 832.00 464.90 836.92 462.26 841.37 C 457.40 846.77 452.17 851.89 446.37 856.29 C 436.76 862.67 425.52 866.51 414.00 867.22 C 404.47 869.40 394.68 868.61 385.00 868.74 C 380.12 868.72 375.14 868.91 370.42 867.44 C 363.62 865.43 356.39 864.35 350.27 860.55 C 344.98 857.32 339.70 853.99 335.06 849.86 C 328.61 842.82 324.02 834.22 320.99 825.20 C 317.94 815.12 318.59 802.41 327.10 795.14 C 328.34 796.21 329.59 797.29 330.87 798.34 C 328.01 801.24 325.20 804.67 325.03 808.94 C 323.90 820.39 328.64 831.65 335.28 840.76 C 339.41 846.68 345.91 850.12 351.71 854.13 C 359.76 859.51 369.28 861.99 378.62 864.05 C 386.05 865.06 393.58 864.55 401.06 864.53 C 415.00 863.48 429.59 861.52 441.38 853.38 C 447.21 849.04 453.55 844.85 457.25 838.41 C 459.29 834.76 461.85 831.19 462.59 826.99 C 463.03 821.69 462.90 816.13 460.75 811.18 C 458.63 806.03 454.38 802.26 450.89 798.06 C 448.81 795.87 446.81 793.08 443.64 792.53 C 437.38 791.56 430.90 792.32 425.08 794.85 C 423.97 794.17 422.86 793.49 421.77 792.83 Z" />
</g>
<g id="#ebf9fcff">
<path fill="#ebf9fc" opacity="1.00" d=" M 908.90 799.69 C 909.60 796.97 911.18 794.61 913.11 792.60 C 915.36 793.99 917.70 796.10 917.53 799.00 C 917.82 802.18 915.36 806.86 911.59 805.29 C 909.97 804.00 907.89 801.95 908.90 799.69 Z" />
</g>
<g id="#43688cff">
<path fill="#43688c" opacity="1.00" d=" M 732.57 796.18 C 733.88 795.92 735.21 795.75 736.55 796.07 C 739.20 803.40 735.96 810.70 735.26 818.03 C 735.01 819.50 734.63 820.97 734.31 822.44 C 732.61 822.59 730.91 822.70 729.22 822.80 C 728.78 818.63 731.09 814.99 731.82 811.01 C 732.98 806.15 732.71 801.12 732.57 796.18 Z" />
<path fill="#43688c" opacity="1.00" d=" M 246.19 858.40 C 253.90 856.96 260.04 862.44 266.52 865.56 C 271.18 868.36 278.03 871.06 277.64 877.63 C 273.32 878.54 270.41 874.94 267.32 872.64 C 261.58 868.11 254.73 865.47 247.98 862.89 C 245.92 862.34 246.39 860.00 246.19 858.40 Z" />
</g>
<g id="#f7fcfdff">
<path fill="#f7fcfd" opacity="1.00" d=" M 856.30 805.96 C 855.94 803.84 857.65 802.49 859.03 801.24 C 862.60 803.05 865.43 805.96 868.02 808.97 C 870.29 811.20 869.69 814.73 869.39 817.60 C 868.39 820.36 865.82 823.90 862.45 822.43 C 856.20 819.76 855.91 811.78 856.30 805.96 Z" />
</g>
<g id="#eefcfdff">
<path fill="#eefcfd" opacity="1.00" d=" M 974.58 820.92 C 975.67 815.66 979.85 811.97 984.13 809.13 C 988.00 811.49 985.76 816.02 983.90 818.97 C 982.32 821.10 980.11 823.73 977.15 823.32 C 976.25 822.54 975.39 821.75 974.58 820.92 Z" />
</g>
<g id="#43678dff">
<path fill="#43678d" opacity="1.00" d=" M 619.23 833.52 C 618.86 831.74 617.75 829.56 619.94 828.52 C 629.75 827.74 639.70 830.32 648.23 835.12 C 648.19 835.81 648.12 837.18 648.09 837.87 C 641.18 837.49 634.91 833.98 628.02 833.57 C 625.08 833.42 622.16 833.51 619.23 833.52 Z" />
</g>
<g id="#44668eff">
<path fill="#44668e" opacity="1.00" d=" M 601.94 835.88 C 604.07 834.02 606.96 834.30 609.58 834.40 C 609.54 835.44 609.51 836.49 609.50 837.55 C 606.00 840.03 601.93 841.77 599.05 845.04 C 596.95 847.38 595.24 850.03 593.49 852.64 C 592.20 852.56 590.91 852.49 589.64 852.43 C 589.58 850.49 589.16 848.47 589.74 846.60 C 592.68 841.93 597.62 839.10 601.94 835.88 Z" />
</g>
<g id="#446a8dff">
<path fill="#446a8d" opacity="1.00" d=" M 657.52 840.51 C 662.74 840.57 667.77 842.31 673.00 842.45 C 676.56 842.55 680.12 842.56 683.69 842.59 C 684.08 843.77 684.47 844.95 684.87 846.15 C 682.75 847.32 680.34 847.39 678.01 847.05 C 671.83 846.27 665.31 847.01 659.47 844.50 C 657.77 843.85 657.28 842.17 657.52 840.51 Z" />
</g>
<g id="#46688bff">
<path fill="#46688b" opacity="1.00" d=" M 197.58 850.70 C 201.21 849.26 205.21 849.48 209.01 849.95 C 214.12 850.68 219.29 850.28 224.43 850.67 C 224.57 852.01 224.72 853.36 224.86 854.72 C 219.63 855.73 214.26 855.39 209.00 854.83 C 204.59 854.26 200.26 855.52 195.88 855.78 C 195.57 853.93 196.02 851.85 197.58 850.70 Z" />
</g>
<g id="#45668cff">
<path fill="#45668c" opacity="1.00" d=" M 102.29 856.98 C 105.92 855.93 109.58 857.37 113.22 857.64 C 118.67 858.53 124.20 858.62 129.71 858.60 C 130.04 860.27 131.02 862.32 128.94 863.28 C 120.06 864.51 111.13 862.86 102.38 861.48 C 102.37 859.97 102.34 858.46 102.29 856.98 Z" />
</g>
<g id="#446988ff">
<path fill="#446988" opacity="1.00" d=" M 585.60 863.43 C 586.89 863.66 588.19 863.91 589.49 864.20 C 589.52 872.10 590.57 880.39 594.95 887.17 C 596.15 889.35 598.04 891.59 597.28 894.26 C 594.26 895.14 592.65 891.86 591.15 889.85 C 586.84 881.82 584.43 872.56 585.60 863.43 Z" />
</g>
<g id="#e1e4fbff">
<path fill="#e1e4fb" opacity="1.00" d=" M 219.04 948.19 C 221.11 943.82 223.21 938.59 228.16 936.86 C 230.43 936.40 233.81 935.68 235.18 938.14 C 235.70 940.72 235.35 943.38 235.15 946.00 C 234.32 952.97 234.64 960.00 234.62 967.00 L 211.66 967.00 C 213.88 960.64 216.08 954.25 219.04 948.19 Z" />
<path fill="#e1e4fb" opacity="1.00" d=" M 800.33 940.40 C 803.99 940.24 808.42 939.73 811.03 942.95 C 816.75 949.98 818.59 959.20 822.99 967.00 L 800.36 967.00 C 800.37 962.66 800.45 958.32 800.31 954.00 C 800.20 949.46 799.19 944.88 800.33 940.40 Z" />
</g>
<g id="#fccda0ff">
<path fill="#fccda0" opacity="1.00" d=" M 241.28 937.91 C 245.69 937.02 250.62 937.23 254.61 939.45 C 257.05 942.76 258.55 946.68 260.83 950.11 C 264.13 955.16 264.90 961.23 266.12 967.00 L 240.40 967.00 C 240.65 957.30 240.00 947.54 241.28 937.91 Z" />
</g>
<g id="#f7ced2ff">
<path fill="#f7ced2" opacity="1.00" d=" M 208.70 944.71 C 211.24 942.83 213.94 941.17 216.89 940.02 C 215.66 944.93 212.63 949.08 210.82 953.76 C 209.09 958.13 207.78 962.66 205.95 967.00 L 190.08 967.00 C 191.94 962.93 192.79 958.28 195.86 954.87 C 199.55 950.80 204.29 947.92 208.70 944.71 Z" />
<path fill="#f7ced2" opacity="1.00" d=" M 818.91 945.78 C 819.19 945.49 819.75 944.89 820.04 944.60 C 825.04 947.17 829.55 950.62 834.01 954.04 C 838.42 957.30 841.66 961.83 843.47 967.00 L 827.90 967.00 C 826.11 962.71 824.87 958.20 822.87 954.01 C 821.59 951.24 819.94 948.65 818.91 945.78 Z" />
</g>
<g id="#fcce9dff">
<path fill="#fcce9d" opacity="1.00" d=" M 780.92 943.04 C 784.92 941.26 789.42 940.38 793.80 940.87 C 794.90 949.53 794.44 958.29 794.43 967.00 L 769.97 967.00 C 771.39 961.74 772.60 956.33 775.48 951.63 C 777.28 948.77 778.27 945.23 780.92 943.04 Z" />
</g>
<g id="#c7f0cfff">
<path fill="#c7f0cf" opacity="1.00" d=" M 266.20 943.95 C 277.03 947.98 284.34 957.70 290.53 967.00 L 271.62 967.00 C 270.81 962.68 270.40 958.25 268.80 954.14 C 267.72 951.07 266.07 948.20 265.32 945.03 C 265.54 944.76 265.98 944.22 266.20 943.95 Z" />
</g>
<g id="#c7efd1ff">
<path fill="#c7efd1" opacity="1.00" d=" M 759.35 953.37 C 762.76 950.85 766.13 947.60 770.59 947.36 C 769.99 950.19 768.68 952.78 767.41 955.35 C 765.57 959.01 764.83 963.06 763.82 967.00 L 747.17 967.00 C 750.71 962.02 754.43 957.07 759.35 953.37 Z" />
</g>
<g id="#daeef4ff">
<path fill="#daeef4" opacity="1.00" d=" M 537.33 955.07 C 537.08 953.66 537.99 952.60 538.90 951.69 C 542.78 955.83 543.69 961.55 544.00 967.00 L 539.29 967.00 C 538.26 963.10 537.38 959.11 537.33 955.07 Z" />
</g>
<g id="#cbf2fdff">
<path fill="#cbf2fd" opacity="1.00" d=" M 464.40 967.00 C 468.10 963.48 472.59 960.12 478.00 960.49 C 481.63 960.34 482.60 964.51 484.09 967.00 L 464.40 967.00 Z" />
</g>
<g id="#c3eef9ff">
<path fill="#c3eef9" opacity="1.00" d=" M 595.89 967.00 C 597.43 965.84 598.78 963.76 600.99 964.15 C 603.87 964.13 606.36 965.75 608.85 967.00 L 595.89 967.00 Z" />
</g>
</svg>
