<svg xmlns="http://www.w3.org/2000/svg" xmlns:xlink="http://www.w3.org/1999/xlink" width="288" height="288" viewBox="0 0 2880 2880" preserveAspectRatio="xMidYMid meet" xmlns:v="https://vecta.io/nano"><g fill="#3e7866"><path d="M0 2810c0-76 11-84 36-26 10 25 13 27 14 10 0-26 36-74 55-74 17 0 47 90 43 127-3 27-4 28-75 31l-73 3v-71zm848 23c-3-83 0-104 18-124 12-13 17-32 16-53-3-25 3-38 20-52 15-13 22-27 20-45-2-14 6-36 17-50 16-21 28-24 78-23 72 0 136 31 165 79 15 26 31 38 61 46 23 6 45 13 50 16 4 2 7-14 7-36 0-36-3-40-36-51-19-7-38-18-41-26s-14-14-25-14c-33 0-56-18-68-54-8-25-8-41-1-54 9-16 7-19-7-18s-18-9-20-53l-3-54 57-54c78-72 118-83 187-55 62 26 81 27 137 7 50-18 110-11 144 16 32 25 60 130 54 202-4 54-4 55 29 71 18 9 33 21 33 28s14 21 31 30c17 10 27 22 24 28-3 5 1 10 9 10 18 0 40 36 31 50-3 6 0 10 8 10 21 0 27 24 20 77-4 33-11 47-25 51-12 3-18 14-18 33 0 46-67 77-109 50-9-6-21-5-31 1-11 7-31 7-66-1-27-7-58-12-69-12-27 0-64-26-75-52-7-18-9-18-9-4-1 13-7 16-25 11-24-6-25-3-32 55-4 40-11 61-19 61s-16-6-18-12c-4-10-6-10-6 0-2 25-21 1-21-26 0-15-5-34-10-42-8-12-16-9-47 20-74 68-122 79-140 33l-11-28-1 28-1 27h-101c-64 0-98-4-94-10 3-5 2-10-4-10-5 0-13 5-16 10-3 6-19 10-36 10-28 0-29-2-31-47zm543-53c3-58 0-70-20-70-19 0-46-52-34-64 4-3 1-6-5-6-16 0-15 15 4 51 8 16 12 39 9 49-7 23 24 95 36 83 4-4 8-24 10-43zm-427-1c-8-13-27-11-48 4-16 12-14 13 18 9 20-2 33-8 30-13zm295-57c-13-37-24-41-32-12-3 13 2 25 16 35 27 19 29 15 16-23zm291-30c-7-13-9-8-9 23 0 35 1 37 10 17 6-15 5-30-1-40zm180-135c8-3 4-6-11-6-14-1-34 6-45 14-18 14-17 14 11 6 17-5 37-12 45-14zm-104-28c19-22 19-22-3-10-13 6-23 16-23 21 0 15 5 12 26-11zm-154-54c-2-14-9-28-15-32-7-4-8 0-4 11 4 10 7 24 7 32s4 14 9 14c4 0 6-11 3-25zm-138-1c15-39-4-42-24-3-8 15-7 19 4 19 7 0 17-7 20-16zm-19-94c-8-13-34 1-60 30l-20 23 43-22c23-12 40-26 37-31zm-17-90c6 0 12-4 12-10 0-25-83 3-114 39-19 21-18 21 35-3 29-14 60-26 67-26zm-32-75c15-11 16-14 3-15-8 0-24 7-35 15-15 11-16 14-3 15 8 0 24-7 35-15zm1361 658c-10-10-8-61 2-67 5-4 43 7 85 23l75 29 3-32c2-17-2-48-9-70-17-51-16-78 2-102 15-19 16-19 28 0 7 11 24 34 40 51 24 29 27 41 27 104v71h-123c-68 0-127-3-130-7z"/><use xlink:href="#B"/><use xlink:href="#C"/><path d="M1 1958c1-201 2-211 16-170 13 38 18 42 49 42 42 0 41-5 11 190-23 144-23 145-50 148l-27 3 1-213zm2775 200c-6-20-46-291-46-310 0-15 9-18 45-18h45v-62c-1-66-13-144-24-155-3-4-23 10-44 30s-43 37-49 37-16 7-23 15-23 15-35 15c-17 0-24-8-30-32l-7-33-10 42c-10 46-25 63-60 67-13 2-36 8-51 15-36 14-57 14-57-1 0-6-7-4-18 5-10 10-31 17-46 17-25 0-28-3-23-27 3-17 0-31-9-38s-14-37-16-91c-3-70 0-85 17-104 13-14 18-33 17-54-3-25 3-38 20-52 15-13 22-27 20-45-2-14 6-36 17-50 16-21 28-24 78-23 72 0 136 31 165 79 15 26 31 38 61 46 23 6 45 13 50 16 4 2 7-14 7-36 0-36-3-40-36-51-19-7-38-18-41-26s-14-14-25-14c-33 0-56-18-68-54-8-25-8-41-1-54 9-16 7-19-7-18s-18-9-20-53l-3-54 57-54c80-73 116-83 195-52l60 24-2 389c-2 216-6 380-11 370-5-12-6-9-2 11 4 17 8 112 11 213l5 182h-52c-32 0-52-5-54-12zm64-466c-11-16-11-16-6 1 3 10 7 46 8 80l2 62 3-63c2-35-1-70-7-80zm-435-10c-3-3-16 5-28 17l-22 23 28-17c15-10 25-20 22-23zm456-82c3-58 0-70-20-70-19 0-46-52-34-64 4-3 1-6-5-6-16 0-15 15 4 51 8 16 12 39 9 49-7 23 24 95 36 83 4-4 8-24 10-43zm-427-1c-8-13-27-11-48 4-16 12-14 13 18 9 20-2 33-8 30-13zm295-57c-13-37-24-41-32-12-3 13 2 25 16 35 27 19 29 15 16-23zm75-248c15-39-4-42-24-3-8 15-7 19 4 19 7 0 17-7 20-16zm-19-94c-8-13-34 1-60 30l-20 23 43-22c23-12 40-26 37-31zm-17-90c6 0 12-4 12-10 0-25-83 3-114 39-19 21-18 21 35-3 29-14 60-26 67-26zm-32-75c15-11 16-14 3-15-8 0-24 7-35 15-15 11-16 14-3 15 8 0 24-7 35-15zM190 1638c-19-5-44-9-55-9-27 0-64-26-75-52-7-19-9-19-9-3-1 12-6 16-17 12-9-3-20-6-25-6s-9-120-9-288v-287l63-18c68-19 123-13 157 18 27 24 53 133 48 198-4 54-4 55 29 71 18 9 33 21 33 28s14 21 31 30c17 10 27 22 24 28-3 5 1 10 9 10 18 0 40 36 31 50-3 6 0 10 8 10 21 0 27 24 20 77-4 33-11 47-25 51-12 3-18 14-18 33 0 47-62 75-110 49-13-7-21-7-25 0-7 12-37 11-85-2zm-50-126c-7-13-9-8-9 23 0 35 1 37 10 17 6-15 5-30-1-40zm180-135c8-3 4-6-11-6-14-1-34 6-45 14-18 14-17 14 11 6 17-5 37-12 45-14zm-104-28c19-22 19-22-3-10-13 6-23 16-23 21 0 15 5 12 26-11zm-154-54c-2-14-9-28-15-32-7-4-8 0-4 11 4 10 7 24 7 32s4 14 9 14c4 0 6-11 3-25zm1228 210c0-83 4-145 9-145s-1-27-15-59c-29-72-46-177-42-256 4-68 22-83 42-33 16 38 15 42 37-85 19-112 33-102 59 41 18 99 24 103 35 20 10-77 25-59 50 57 13 59 15 60 51 7 32-49 64-68 64-39-1 22-38 180-63 265-14 45-21 82-16 82s9 65 9 145v145h-220v-145z"/><use xlink:href="#C" x="1460" y="-1450"/><use xlink:href="#B" x="-1460" y="-1540"/><path d="M1 404c1-107 5-171 10-163 6 10 9 4 9-18 0-18-4-33-10-33S0 152 0 96V3l69-2 69-1-5 42c-3 24-19 71-35 105-16 33-28 69-25 80 4 17 4 17 11-2 4-11 12-28 17-37 5-10 9-24 9-31 0-24 143-137 175-137 30 0 18 64-20 110-19 23-35 45-35 49 0 14-82 61-106 61-16 0-31 12-49 37-14 21-25 43-25 49 0 20 73-26 95-60 18-27 28-32 86-40 72-10 119-3 119 17-1 20-48 48-88 52-20 2-49 8-64 14s-34 8-42 5-25 1-38 10c-22 16-21 16 25 16 26 0 47 3 47 8 0 4-13 57-28 117l-28 110-135 6 2-177zm52-196c4-29 3-48-3-48s-10 23-10 52c0 62 5 60 13-4zm2742 360c-6-18-55-215-55-222 0-3 32-6 70-6h70v240h-40c-24 0-42-5-45-12zM1306 458c-6-19-46-290-46-310 0-15 9-18 45-18h45V65c0-86 18-84 23 3l3 67 2-67c1-38 6-68 11-68s19 29 31 65c21 63 23 65 56 65 42 0 41-5 11 190l-23 145-77 3c-57 2-78-1-81-10zm102-368c-6-23-13-39-15-36-7 7 8 76 17 76 4 0 3-18-2-40zm1452 230c-8-5-39-10-68-10-32 0-63-6-78-17-14-9-48-20-76-24-38-6-60-17-85-41-39-38-40-41-10-68 23-22 33-23 151-4l38 6-19-28c-61-91-83-125-83-129 0-3 56-5 125-5h125l-2 131c-1 109-4 126-14 107-7-13-32-34-55-47l-43-25 42 50c23 28 42 54 42 59 0 4 7 13 16 20 21 15 15 38-6 25zM873 61c4-20 2-31-8-35-24-9-17-26 11-26 17 0 23 4 18 13-6 10-4 10 7 0 20-19 219-18 219 1 0 18-23 37-52 40-13 2-36 8-51 15-36 14-57 14-57-1 0-6-7-4-18 5-10 10-31 17-47 17-25 0-27-3-22-29z"/></g><g fill="#438e6b"><path d="M0 2818c1-60 1-62 15-38 15 27 19 59 9 84-13 34-24 13-24-46zm55 20c9-54 33-100 48-95 16 5 38 85 31 114-7 27-40 31-47 6-4-17-5-17-6 0 0 9-8 17-17 17-13 0-15-7-9-42zm805 24c0-28 32-52 71-52 43 0 64-13 56-34-9-22-59-20-90 4-33 26-37 25-37-8 0-66 59-97 116-61 41 25 57 18 26-13-14-14-36-22-64-24-48-2-57-14-34-49 19-29 44-31 87-9 34 17 45 14 36-11-4-8-18-15-35-15-15 0-37-6-47-14-18-13-18-15-1-40 26-41 59-49 122-31 51 15 114 63 114 88 0 7-22 33-49 60-28 26-75 82-105 125-50 72-58 78-84 74-18-2-35 2-45 12-21 21-37 20-37-2zm203-309c11-10-13-33-34-33s-26 26-6 33c18 8 33 8 40 0zm-41 250c29-43 78-103 109-134l56-57 42 11c49 13 101 65 101 100 0 22-83 127-100 127-5 0-12-15-15-32-10-44-22-58-52-58-25 0-25 0 11 40 42 46 41 44 20 64-22 23-34 20-34-8 0-14-11-38-25-53l-24-28-1 53c0 39-4 52-15 52-8 0-15-8-15-19 0-10-7-24-15-31-12-10-16-9-21 4-3 9-4 23 0 31 4 12-3 15-35 15h-40l53-77zm258-62c-21-74-47-88-65-37-8 24-6 31 14 47 13 10 31 19 41 19 16 0 17-5 10-29zm1356 113c-4-15-5-29-2-32 6-5 126 37 141 50 5 4-23 8-62 8-68 0-71-1-77-26zm168-22c4-30 1-63-7-88-13-41-12-84 3-84 5 0 11 9 15 20 3 11 20 33 36 50 27 27 30 35 27 87l-3 58-78 6 7-49zm-1170-27c-5-11-10-13-20-5-9 8-19 8-35 0-19-11-21-18-15-58 6-51-4-79-24-67-9 6-11 25-6 67 6 62 3 64-36 30-12-10-18-29-18-54 0-48-23-48-28 0-4 35-5 36-33 22-26-14-24-36 6-66s31-34 5-34c-13 0-28 12-38 30-20 35-28 37-37 9-6-17 4-33 46-77 46-46 48-51 17-27l-38 27-1-23-1-24-14 50-13-23c-7-13-37-35-67-48-82-36-74-71 26-127 27-14 30-20 20-32-27-32-93 14-112 77-6 21-15 38-19 38-21 0-41-15-55-42s-14-32 1-54c20-31 64-58 138-86 61-22 70-33 36-43-41-13-87 5-142 55-30 27-57 47-61 43-3-3-6-24-6-47 0-35 6-46 53-89 28-28 67-56 86-64 32-14 39-13 93 8 35 14 58 30 58 39 0 13 2 13 9 1 5-8 34-22 65-32 95-29 157-3 177 75 5 23 12 49 15 58 4 13-9 9-53-18-58-35-102-41-111-16-2 8 7 12 27 12 41 0 81 17 114 48 31 29 34 57 11 90-22 31-38 27-53-13-14-41-54-75-87-75-36 0-37 17-2 29 40 14 78 49 78 72 0 15 7 17 41 14 26-3 53 2 72 12 29 15 30 17 12 24-11 4-37 8-57 8-37 1-68 22-68 45 0 26 14 25 47-4 26-23 43-30 77-30 27 0 48 6 56 15 11 13 6 15-38 15-34 0-57 6-73 19-37 30-17 35 59 15 69-18 107-15 100 9-3 6-22 14-44 17-43 6-64 16-64 31 0 14 34 11 66-6 30-15 63-11 76 9 15 22 7 27-41 20-29-4-56-2-67 5-15 8-9 10 33 11 43 0 54 4 64 21 18 35-4 45-41 19-41-29-51-18-17 18 30 31 34 54 13 71-11 9-24-2-64-56-55-75-99-119-180-181-29-23-53-42-53-44 1-22-31-84-44-86-15-4-17 1-10 35 4 21 7 46 7 57-1 16 0 17 11 3 10-14 23-7 94 49s213 213 213 236c0 12-45 9-58-4-7-7-12-27-12-46 0-21-4-32-12-30-6 2-12 22-12 43-1 29-6 41-19 43-9 2-20-4-23-13zm-4-77c0-29-14-38-23-15-3 7-3 26 0 41 7 34 23 15 23-26zm90-53c0-8-7-15-15-15-16 0-20 12-8 23 11 12 23 8 23-8zm-186-31c9-3 16-12 16-20 0-22-48-17-60 6-9 17-8 20 9 20 11 0 26-3 35-6zm-147-141c-3-10-5-2-5 17s2 27 5 18c2-10 2-26 0-35zm-47-13c26-26 26-60 0-60-23 0-55 44-46 65 7 20 22 19 46-5zm47-182c-2-18-4-6-4 27s2 48 4 33 2-42 0-60zm-137-68c11 0 40-29 40-41 0-17-46-9-68 12-24 21-20 44 5 35 8-3 18-6 23-6zm74 375c-4-8-3-23 0-32 6-14 8-14 22 5 15 22 12 42-7 42-5 0-12-7-15-15zm778-178c-17-21-23-55-12-62 16-10 40 14 40 41s-14 38-28 21z"/><use xlink:href="#D"/><path d="M531 2370c-37-17-41-22-31-35 15-18 58-19 97-3 15 6 31 11 35 10 15-3-1 32-18 39-28 11-35 10-83-11zm1490-15l-23-23 21-7c14-4 31-1 46 9 24 16 33 35 18 37-5 0-15 2-23 3-8 2-26-7-39-19zm235-22c-12-14-24-33-28-42-7-20 11-63 27-64 18-1 67 82 59 101-4 9-7 20-6 23 3 16-34 3-52-18zm-1826-15c-19-13-39-37-46-55-13-30-12-31 11-29 51 6 101 59 88 94-7 17-15 15-53-10zm154-37c-41-25-47-36-30-51 21-17 71-15 100 4 33 21 33 38-1 54-34 15-32 16-69-7zm1755-50c-29-29-39-74-19-86 17-11 80 60 80 89 0 35-24 34-61-3zm-1843-3c3-4-1-8-9-8-20 0-44-77-29-92 31-31 104 51 82 91-5 11-19 19-29 18-11 0-17-5-15-9zm1674 5c-41-15-78-72-47-74 6 0 19-2 29-4 20-4 77 30 85 51 10 26-28 41-67 27zm-1553-71c-20-22-13-32 23-32 27 0 66 31 53 43-13 14-60 7-76-11zM0 1999v-160l48 3c41 3 47 6 44 23-2 11-5 34-7 50-2 17-7 46-10 65-9 56-14 93-18 126-5 40-14 54-38 54-18 0-19-8-19-161zm2784 149c-4-6-9-25-11-42-4-33-9-70-18-126l-10-65-7-50c-3-18 3-20 70-23l72-3v321h-44c-25 0-48-5-52-12zm-552-13c-18-8-35-14-39-14-9 1-22-34-16-43 13-23 94 2 123 37 12 14 12 18-1 26-19 12-28 11-67-6z"/><use xlink:href="#E"/><path d="M672 2088c-18-18-15-25 13-30 29-6 61 14 51 30-9 16-49 15-64 0zm-45-31c-9-6-18-24-21-38-3-22-1-26 14-22 11 3 26 15 34 28 19 29 0 53-27 32zm1738-304c15-31 39-52 60-50 5 0 40-42 77-94s88-113 112-135c44-41 46-41 87-30 47 12 99 64 99 99 0 22-83 127-100 127-5 0-12-15-15-32-10-44-22-58-52-58-25 0-25 0 11 40 42 46 41 44 20 64-22 23-34 20-34-8 0-14-11-38-25-53l-24-28-1 57c0 38-5 62-16 72-25 26-33 19-22-19 9-26 8-38-2-49-18-22-33-9-27 23 8 37-13 73-46 82-27 7-28 7-22-24l6-32-36 40c-20 22-31 30-25 18 5-12 15-25 20-28 6-3 10-11 10-17s-16 6-35 28c-36 39-36 39-20 7zm385-192c-21-74-47-88-65-37-8 24-6 31 14 47 13 10 31 19 41 19 16 0 17-5 10-29zm-413 142c-27-26 14-73 64-73 43 0 64-13 56-34-9-22-59-20-90 4-33 26-37 25-37-8 0-66 59-97 116-61 41 25 57 18 26-13-14-14-36-22-64-24-48-2-57-14-34-49 19-29 44-31 87-9 34 17 45 14 36-11-4-8-18-15-35-15-15 0-37-6-47-14-18-13-18-15-1-40 26-41 59-49 122-31 51 15 114 63 114 88 0 7-22 33-49 60-28 26-75 82-105 125-50 72-58 78-84 74-21-3-35 2-49 17-11 12-23 18-26 14zm196-330c11-10-13-33-34-33s-26 26-6 33c18 8 33 8 40 0zm-1243 132c0-127 2-145 16-145 12 0 14-5 9-17-30-71-55-173-61-246-8-102 4-114 34-34l20 52 6-50 18-120c14-89 20-75 51 130l24 150 6-100c3-55 10-111 15-125 9-23 11-20 21 31 7 31 16 85 20 120 6 47 9 54 10 26 1-42 15-74 56-127l27-35-7 50c-4 28-22 103-41 168l-34 123c0 2 7 4 15 4 13 0 15 23 15 145v145h-220v-145zm170-189c0-26-6-18-14 19-5 22-4 26 4 15 5-8 10-24 10-34zm-126-55c-4-23-9-40-11-37-3 3-2 23 2 46s9 39 11 37c3-2 2-23-2-46zm83-3c-2-13-4-5-4 17-1 22 1 32 4 23 2-10 2-28 0-40zm-100-110c-2-13-4-3-4 22s2 35 4 23c2-13 2-33 0-45zM224 1625c-5-11-10-13-20-5-9 8-19 8-35 0-19-11-21-18-15-58 6-51-4-79-24-67-9 6-11 25-6 67 6 62 3 64-36 30-12-10-18-29-18-54 0-49-23-48-28 1-3 24-7 31-19 27-8-3-17-6-19-6s-4-13-4-30c0-19 7-34 20-42 26-16 26-28 0-28-28 0-26-37 3-69l22-26-23 19-22 20 2-193 3-193 58-18c96-30 157-4 178 74 5 23 12 49 15 58 4 13-9 9-53-18-58-35-102-41-111-16-2 8 7 12 27 12 41 0 81 17 114 48 31 29 34 57 11 90-22 31-38 27-53-13-14-41-54-75-87-75-36 0-37 17-2 29 40 14 78 49 78 72 0 15 7 17 41 14 26-3 53 2 72 12 29 15 30 17 12 24-11 4-37 8-57 8-37 1-68 22-68 45 0 26 14 25 47-4 26-23 43-30 77-30 27 0 48 6 56 15 11 13 6 15-38 15-34 0-57 6-73 19-37 30-17 35 59 15 69-18 107-15 100 9-3 6-22 14-44 17-43 6-64 16-64 31 0 14 34 11 66-6 30-15 63-11 76 9 15 22 7 27-41 20-29-4-56-2-67 5-15 8-9 10 33 11 43 0 54 4 64 21 18 35-4 45-41 19-41-29-51-18-17 18 30 31 34 54 13 71-11 9-24-2-64-56-55-75-99-119-180-181-29-23-53-42-53-44 1-22-31-84-44-86-15-4-17 1-10 35 4 21 7 46 7 57-1 16 0 17 11 3 10-14 23-7 94 49s213 213 213 236c0 12-45 9-58-4-7-7-12-27-12-46 0-21-4-32-12-30-6 2-12 22-12 43-1 29-6 41-19 43-9 2-20-4-23-13zm-4-77c0-29-14-38-23-15-3 7-3 26 0 41 7 34 23 15 23-26zm90-53c0-8-7-15-15-15-16 0-20 12-8 23 11 12 23 8 23-8zm-186-31c9-3 16-12 16-20 0-22-48-17-60 6-9 17-8 20 9 20 11 0 26-3 35-6zm2701 35c-5-16 1-29 24-53 29-28 31-29 31-9 0 23-30 83-42 83-4 0-10-10-13-21zm-31-64c-4-8-3-23 0-32 6-14 8-14 22 5 15 22 12 42-7 42-5 0-12-7-15-15z"/><path d="M2821 1402c-7-13-37-35-67-48-82-36-74-71 26-127 27-14 30-20 20-32-27-32-93 14-112 77-6 21-15 38-19 38-21 0-41-15-55-42s-14-32 1-54c20-31 64-58 138-86 61-22 70-33 36-43-41-13-87 5-142 55-30 27-57 47-61 43-3-3-6-24-6-47 0-35 6-46 53-89 28-28 67-56 86-64 32-14 39-13 92 8 38 15 60 30 63 44 3 11 6 97 6 191 0 140-3 174-15 184-13 10-15 9-16-11l-1-24-14 50-13-23zm36-79c-3-10-5-2-5 17s2 27 5 18c2-10 2-26 0-35zm-47-13c26-26 26-60 0-60-23 0-55 44-46 65 7 20 22 19 46-5zm47-182c-2-18-4-6-4 27s2 48 4 33 2-42 0-60zm-137-68c11 0 40-29 40-41 0-17-46-9-68 12-24 21-20 44 5 35 8-3 18-6 23-6zm-729-140c-37-17-41-22-31-35 15-18 58-19 97-3 15 6 31 11 35 10 15-3-1 32-18 39-28 11-35 10-83-11zM642 897c-17-21-23-55-12-62 16-10 40 14 40 41s-14 38-28 21zm1248-29c-19-13-39-37-46-55-13-30-12-31 11-29 51 6 101 59 88 94-7 17-15 15-53-10z"/><use xlink:href="#D" x="-1460" y="-1540"/><path d="M2044 831c-41-25-47-36-30-51 21-17 71-15 100 4 33 21 33 38-1 54-34 15-32 16-69-7zM561 815l-23-23 21-7c14-4 31-1 46 9 24 16 33 35 18 37-5 0-15 2-23 3-8 2-26-7-39-19zm235-22c-12-14-24-33-28-42-7-20 11-63 27-64 18-1 67 82 59 101-4 9-7 20-6 23 3 16-34 3-52-18zm1160-15c3-4-1-8-9-8-20 0-44-77-29-92 31-31 104 51 82 91-5 11-19 19-29 18-11 0-17-5-15-9zm121-66c-20-22-13-32 23-32 27 0 66 31 53 43-13 14-60 7-76-11zM879 691c-29-29-39-74-19-86 17-11 80 60 80 89 0 35-24 34-61-3zm-169 2c-41-15-78-72-47-74 6 0 19-2 29-4 20-4 77 30 85 51 10 26-28 41-67 27z"/><use xlink:href="#E" x="1460" y="-1450"/><path d="M2132 638c-18-18-15-25 13-30 29-6 61 14 51 30-9 16-49 15-64 0zm-45-31c-9-6-18-24-21-38-3-22-1-26 14-22 11 3 26 15 34 28 19 29 0 53-27 32zM772 595c-18-8-35-14-39-14-9 1-22-34-16-43 13-23 94 2 123 37 12 14 12 18-1 26-19 12-28 11-67-6zM0 460V350h88c80 0 88 2 89 20 1 11-3 22-8 25-5 4-7 11-3 16 3 5 0 16-6 24s-9 19-6 24c4 5 1 13-5 16-5 4-8 13-5 21 3 7 1 16-5 20-6 3-8 12-5 19 8 23-17 35-76 35H0V460zm2803 99c-6-6-9-17-7-24 3-7 1-16-5-19-6-4-8-13-5-20 3-8 0-17-5-21-6-3-9-11-5-16 3-5 0-16-6-24s-9-19-6-24c4-5 2-12-3-16-5-3-9-14-8-25 1-18 9-20 64-20h63v220h-33c-18 0-38-5-44-11zM1314 448c-4-6-9-25-11-42-4-33-9-70-18-126l-10-65-7-50c-3-19 3-20 117-20s120 1 117 20c-2 11-5 34-7 50-2 17-7 46-10 65-9 56-14 93-18 126-6 49-13 54-82 54-38 0-67-5-71-12zM155 289c-13-20 30-46 89-53 31-4 63-3 71 2 15 8 15 10 0 22-9 7-35 17-58 21s-54 11-68 14c-17 4-30 2-34-6zm2566-6c-14-9-47-20-74-24-51-8-107-48-107-76 0-26 46-37 101-25 28 7 63 12 79 12 22 0 39 12 73 51 25 29 43 58 40 65-7 20-83 18-112-3zm79-23c-19-11-39-19-45-19-5 0 6 8 25 19s40 19 45 19c6 0-6-8-25-19z"/><path d="M120 220c0-6-4-9-10-5-5 3-3-7 5-22s15-32 15-37c0-23 143-126 156-113 9 9-17 61-41 83-14 13-25 29-25 36s-19 24-43 38c-56 33-57 34-57 20zm45-50c21-22 37-40 34-40s-23 18-44 40-37 40-34 40 23-18 44-40zm2611-12c-31-15-56-32-56-37s-16-32-35-61-35-54-35-56 29-4 66-4c65 0 65 0 80 35 7 19 14 43 14 53s11 33 25 52 25 37 25 40c0 13-29 6-84-22zm55 5c-5-10-35-45-66-78l-56-60 63 78c64 78 77 91 59 60zM8 155C0 129 2 0 10 0c11 0 30 74 30 114 0 21-4 35-9 31-5-3-11 3-13 12-4 16-5 16-10-2zm53-34c-8-18-10-46-6-75 7-45 18-58 28-33 4 9 6 9 6 0 1-7 8-13 16-13 24 0 18 69-9 113l-23 38-12-30zm16-43c-2-13-4-5-4 17-1 22 1 32 4 23 2-10 2-28 0-40zm2766 15c-17-27-34-58-38-70-6-21-3-23 29-23s36 3 41 33c4 18 5 50 3 70l-3 37-32-47zM895 53c19-40 36-49 102-52 47-2 51-1 46 18-6 24-20 36-51 44-21 5-23 3-17-26l6-32-36 40c-20 22-31 30-25 18 5-12 15-25 20-28 6-3 10-11 10-17s-16 6-35 28c-36 39-36 39-20 7zm172-33c3-11 14-20 24-20 23 0 24 4 3 24-21 22-33 20-27-4z"/></g><path d="M0 1995v-155h45c42 0 45 2 41 23-3 12-12 69-21 127-23 156-24 160-46 160-18 0-19-9-19-155zm2786 128c-3-16-13-75-21-133l-21-127c-4-22-2-23 66-23h70v310h-44c-40 0-45-2-50-27zm-1486-618v-135h200v270h-200v-135zM0 460V350h85c47 0 85 2 85 4 0 6-40 176-46 199-4 14-17 17-65 17H0V460zm2806 93c-6-23-46-193-46-199 0-2 27-4 60-4h60v220h-34c-24 0-36-5-40-17zM1316 423c-3-16-13-75-21-133l-21-127c-4-23-3-23 111-23s115 0 111 23c-3 12-12 69-21 127-26 176-17 160-90 160-61 0-64-1-69-27z" fill="#fbfcfc"/><defs ><path id="B" d="M2097 2442c-9-10-17-24-17-30 0-16-12-15-36 3-10 8-25 15-33 15s0-11 19-25c20-14 27-25 18-25-17 0-48-31-48-47 0-21 34-23 71-5 33 16 41 17 50 6s8-14-5-14c-20 0-56-35-56-55 0-21 59-20 89 1 20 14 25 15 37 2 12-12 9-16-26-32-73-32-80-86-11-86 28 0 49 8 71 27l32 27 19-25 18-24-34-3c-46-4-103-56-85-77 7-8 21-15 32-15 25 0 80 24 100 43 15 15 18 13 42-23 14-22 31-40 37-40 7 0 6 8-3 23-46 70-45 65-16 90 31 26 48 57 48 87 0 47-63 28-99-31-17-28-18-28-34-11s-15 20 7 41c25 24 41 77 30 105-16 41-94-6-94-57 0-20-1-20-16-5s-15 18 0 39c18 26 21 74 6 84-18 11-51-16-57-46-5-27-8-29-20-16-12 12-13 19-3 36 13 26 10 73-6 78-6 2-18-5-27-15z"/><path id="C" d="M440 2438c0-8 7-32 15-51 19-45 19-47-1-47-23 0-84-64-84-89 0-41 89-19 115 28l11 22 12-25c10-21 8-26-14-41-50-33-68-125-24-125 24 0 80 47 80 68 1 15 3 14 15-2 13-17 12-21-10-42-32-29-35-84-6-84 11 0 30 13 44 30 21 24 26 26 31 13 4-9 0-23-9-33-8-9-15-29-15-43 0-34 32-37 54-5l16 22 30-29c16-16 30-24 30-18 0 5-9 18-20 28-26 23-25 33 1 37 30 4 48 33 31 50-9 9-22 10-54 1s-45-9-50 0c-5 8 3 15 21 19 16 5 34 15 41 23 29 35-43 62-85 31-17-12-21-12-32 3-19 25-16 31 21 31 42 0 93 38 83 63-10 27-71 32-116 10l-39-20-11 24c-10 21-8 23 20 23 16 0 46 7 65 15 28 11 35 19 32 37-2 19-10 24-46 26-25 2-56-3-74-12-17-9-32-16-34-16-1 0-8 17-14 38-14 42-30 64-30 40z"/><path id="D" d="M2176 2381c-9-9-16-29-16-43 0-21-5-25-25-25-24 0-65-28-65-43 0-4 10-10 21-13 15-4 30 3 51 24 16 16 34 29 38 29 13 0 30 34 30 59 0 28-15 34-34 12z"/><path id="E" d="M549 2136c0-1-2-10-4-20-2-11-6-30-9-42-5-18-2-21 13-17 25 6 48 32 53 58 2 16-3 20-24 21-16 1-28 1-29 0z"/></defs></svg>